<?xml version="1.0" standalone="no"?>
<!DOCTYPE svg PUBLIC "-//W3C//DTD SVG 20010904//EN"
 "http://www.w3.org/TR/2001/REC-SVG-20010904/DTD/svg10.dtd">
<svg version="1.0" xmlns="http://www.w3.org/2000/svg"
 width="700.000000pt" height="700.000000pt" viewBox="0 0 700.000000 700.000000"
 preserveAspectRatio="xMidYMid meet">
<metadata>
Created by potrace 1.11, written by Peter Selinger 2001-2013
</metadata>
<g transform="translate(0.000000,700.000000) scale(0.100000,-0.100000)"
fill="#000000" stroke="none">
<path d="M3447 6884 c-1 -1 -66 -4 -143 -8 -78 -4 -150 -8 -160 -10 -11 -2
-45 -7 -78 -11 -32 -3 -70 -9 -85 -11 -373 -62 -665 -155 -981 -313 -804 -401
-1415 -1097 -1698 -1936 -64 -187 -130 -459 -147 -602 -3 -27 -8 -57 -10 -68
-2 -11 -7 -54 -10 -95 -4 -41 -8 -91 -11 -110 -13 -113 0 -518 22 -660 18
-123 28 -176 46 -260 185 -861 687 -1605 1418 -2102 372 -253 780 -424 1220
-512 259 -52 361 -61 700 -61 200 0 297 5 395 19 778 108 1446 441 1993 996
463 468 802 1120 907 1742 3 18 8 40 10 48 7 24 33 247 40 335 12 155 7 432
-10 580 -3 22 -7 63 -10 90 -30 260 -119 593 -231 863 -63 152 -192 399 -280
534 -331 509 -790 921 -1320 1186 -167 84 -380 172 -474 198 -8 2 -68 20 -133
39 -66 19 -131 37 -145 40 -15 3 -38 7 -52 10 -100 21 -228 42 -365 59 -56 7
-403 24 -408 20z m310 -1094 c295 -34 590 -126 832 -259 41 -23 75 -41 77 -41
1 0 42 -26 91 -59 229 -152 395 -308 597 -562 53 -66 150 -229 211 -354 227
-462 291 -934 198 -1455 -19 -109 -94 -355 -141 -462 -243 -553 -659 -971
-1212 -1216 -124 -55 -363 -127 -505 -151 -33 -6 -73 -13 -90 -16 -55 -9 -209
-19 -300 -19 -360 1 -691 75 -1000 223 -393 189 -697 452 -940 816 -82 123
-202 365 -250 505 -383 1108 108 2303 1160 2828 385 192 843 272 1272 222z"/>
</g>
</svg>
