<?xml version="1.0" encoding="utf-8"?>
<!-- Generator: Adobe Illustrator 24.3.0, SVG Export Plug-In . SVG Version: 6.00 Build 0)  -->
<svg version="1.1" id="Camada_1" xmlns="http://www.w3.org/2000/svg" xmlns:xlink="http://www.w3.org/1999/xlink" x="0px" y="0px"
	 width="400px" height="600px" viewBox="0 0 400 600" style="enable-background:new 0 0 400 600;" xml:space="preserve">
<style type="text/css">
	.st0{fill:#26262D;}
</style>
<polygon class="st0" points="285.9,517.2 290,504 276.8,500.1 272.7,513.2 "/>
<polygon class="st0" points="276.1,551.3 280.7,537.4 212.4,516.7 218.9,496.9 259.6,509.1 262.9,495.4 209.7,479.1 184.3,560.6 
	252.6,580.7 256,567.7 202.7,550.8 208.4,530.4 "/>
<polygon class="st0" points="241.9,422 237.4,435.8 291.2,452.1 285.5,472.3 217.1,451.6 213.7,465.2 295.2,490.1 319.4,408.8 
	265.5,392.5 260.8,405.8 302.2,418.4 295.2,438.9 "/>
<polygon class="st0" points="237.9,384 251.1,388.2 247.1,401.9 234,397.7 "/>
<polygon class="st0" points="330.4,323.3 324.6,343.6 284,331.5 279.3,344.7 320.8,357.3 313.8,377.8 260.4,360.9 256.4,374.7 
	323.5,395.6 348.9,314 267.4,289.2 263.3,302.4 "/>
<polygon class="st0" points="256.3,322.9 270.7,326.8 265.5,340.8 252.4,336.7 "/>
<polygon class="st0" points="94.3,517.8 90.2,531 103.4,535.2 107.5,522 "/>
<polygon class="st0" points="104,483.8 100,497.5 168.4,518.2 161.4,538.8 121.2,526 117.1,539.8 170.4,556.1 195.8,474.5 
	128.3,454.3 124.1,467.5 177.4,484.3 172.4,504.5 "/>
<polygon class="st0" points="146.6,393.2 142.7,406.4 196.5,423.1 190.8,443.5 122.5,422.8 118.5,436.5 199.9,461.3 224.1,380 
	170.8,363.1 166.8,376.8 206.9,389 201.1,409.3 "/>
<polygon class="st0" points="142.7,355.2 157.1,359.1 152.4,372.9 138.7,369 "/>
<polygon class="st0" points="165.1,332.2 170.9,311.9 212.1,323.9 216.2,310.7 175.5,298.1 181.8,277.6 235.2,294.5 240.4,280.5 
	172.1,259.9 147.8,341.2 228.1,366.3 232.8,353 "/>
<polygon class="st0" points="239.2,332.6 225.9,327.8 229.4,314.8 242.5,318.9 "/>
<polygon class="st0" points="56.7,298.7 52.7,312.4 66.4,316.4 69.8,302.8 "/>
<polygon class="st0" points="67.1,265.1 62.5,278.4 130.7,299.1 124.4,319.5 83.6,307.3 79.6,320.5 134.1,337.2 158.9,255.8 
	90.6,235.1 86.6,248.8 141.2,265.5 134.2,286 "/>
<polygon class="st0" points="51.3,363.8 48,377.5 101.3,394.4 95.6,414.7 27.3,393.9 23.2,407.1 105.2,431.8 129.5,351.2 
	75.6,334.3 71.5,347.5 112.3,360.1 106,380.6 "/>
<polygon class="st0" points="48.5,325.6 62.5,330.2 58.3,343.3 44,339.4 "/>
<polygon class="st0" points="86.8,492.9 73,489 77.1,475.8 90.3,479.8 "/>
<g>
	<g>
		<g>
			<polygon class="st0" points="173.4,220.8 180.1,222.8 182.1,216 175.4,214 			"/>
			<polygon class="st0" points="155.9,215.8 163,218.1 173.5,183.1 183.6,186.4 177.5,207.2 184.5,208.9 192.8,181.6 150.9,168.8 
				140.8,203.8 147.5,205.5 156,178.1 166.4,181 			"/>
			<polygon class="st0" points="222.1,198 215,195.7 206.8,223.3 196.4,220.4 206.9,185.4 199.9,183.6 187.3,225.4 229,237.7 
				237.2,210.1 230.4,207.7 224.1,228.9 213.5,225.4 			"/>
			<polygon class="st0" points="241.6,195.9 239.5,202.6 232.4,200.6 234.5,193.9 			"/>
			<polygon class="st0" points="272.8,243.2 262.4,240.3 268.6,219.4 261.8,217 255.4,238.3 244.9,234.8 253.4,207.4 246.4,205.3 
				235.8,239.8 277.7,252.6 290.2,210.8 283.4,208.8 			"/>
			<polygon class="st0" points="272.9,205.2 271,212.6 263.8,210 265.9,203.2 			"/>
			<polygon class="st0" points="172.7,122.5 165.9,120.5 163.8,127.2 170.6,129.3 			"/>
			<polygon class="st0" points="190.2,127.4 183.1,125.4 172.6,160.5 162.1,156.9 168.6,136.3 161.5,134.3 153.2,161.6 195.1,174.5 
				205.3,139.8 198.6,137.7 190,165.1 179.7,162.5 			"/>
			<polygon class="st0" points="236.7,149.1 229.9,147.1 221.4,174.7 211,171.9 221.5,136.8 214.4,134.8 201.9,176.6 243.6,188.8 
				252.2,161.4 245.1,159.4 238.9,180 228.5,177.1 			"/>
			<polygon class="st0" points="256.1,147 254.2,154.4 247.1,152.1 249.1,145 			"/>
			<polygon class="st0" points="268,158.5 278.4,161.4 272.3,182.6 279.1,184.6 285.5,163.8 296,166.9 287.4,194.4 294.6,197 
				305.1,161.9 263.4,149.6 250.6,190.8 257.5,193.2 			"/>
			<polygon class="st0" points="267.9,196.5 270.3,189.6 277,191.4 274.9,198.2 			"/>
			<polygon class="st0" points="299.6,54.3 292.6,52.2 290.6,59.3 297.6,61 			"/>
			<polygon class="st0" points="317.2,59.5 310.1,57.5 299.5,91.9 289.1,89 295.5,67.8 288.4,65.7 280,94.1 321.8,106.3 332.2,71.3 
				325.2,69.2 317.1,97.5 306.5,94 			"/>
			<polygon class="st0" points="251,77.6 257.8,79.7 266.3,52 276.7,54.9 266,89.4 273.3,92 285.8,50.2 244,37.6 235.5,65.3 
				242.6,67.6 248.8,46.7 259.1,49.7 			"/>
			<polygon class="st0" points="231.4,79.1 233.5,72.4 240.5,74.1 238.2,81.2 			"/>
			<polygon class="st0" points="219.6,68.2 209.2,65 215.3,44.1 208.6,42 202.1,63 191.7,59.8 200.2,32.1 193,29.8 182.6,64.9 
				224.4,77.1 236.9,35.6 230.2,33.5 			"/>
			<polygon class="st0" points="219.7,30.3 217.3,37.1 210.6,35 212.7,28.2 			"/>
			<polygon class="st0" points="285,102.8 277.9,100.8 275.9,107.8 282.9,109.6 			"/>
			<polygon class="st0" points="302.2,108.1 295.4,105.8 284.9,140.8 274.4,137.6 280.6,116.7 273.8,114.6 265.4,142.6 307.1,155.2 
				317.6,120.1 310.6,118.1 302.1,146.1 291.6,142.6 			"/>
			<polygon class="st0" points="251.6,100.2 244.6,98.5 236,125.9 225.5,123 236.1,88 229.3,85.9 216.8,128 258.2,140.3 
				266.7,112.6 260,110.5 253.6,131.5 243.1,128.2 			"/>
			<polygon class="st0" points="271.2,98.7 268.8,105.9 262.1,103.8 264.1,96.4 			"/>
			<polygon class="st0" points="185.5,80.7 195.7,83.6 189.6,104.8 196.6,106.8 202.7,86 213.2,89.2 204.7,116.5 211.8,118.9 
				222.3,84.1 180.5,71.6 167.9,113.1 175,115.4 			"/>
			<polygon class="st0" points="185.5,118.6 187.5,111.6 194.2,113.6 192.2,120.4 			"/>
		</g>
	</g>
</g>
<g>
	<g>
		<g>
			<polygon class="st0" points="361,489.7 358.5,488.9 357.8,491.4 360.3,492.1 			"/>
			<polygon class="st0" points="367.3,491.4 364.8,490.6 361.1,503.4 357.3,502.2 359.5,494.6 357,494 354,504 369.3,508.5 
				372.9,495.7 370.4,495.1 367.4,505.1 363.6,504.1 			"/>
			<polygon class="st0" points="343.3,498.1 345.9,498.9 348.8,488.9 352.6,489.9 348.9,502.7 351.4,503.3 355.9,488 340.7,483.7 
				337.8,493.8 340.3,494.6 342.5,486.9 346.3,488.1 			"/>
			<polygon class="st0" points="336.2,498.9 337,496.5 339.6,497.2 338.8,499.6 			"/>
			<polygon class="st0" points="324.7,481.8 328.5,482.9 326.4,490.5 328.8,491.3 331.1,483.6 334.9,484.8 331.9,494.8 334.5,495.5 
				338.2,483 322.9,478.4 318.5,493.7 321,494.4 			"/>
			<polygon class="st0" points="324.8,495.6 325.5,493 328.1,493.9 327.4,496.4 			"/>
			<polygon class="st0" points="361.5,525.4 364,526.1 364.8,523.7 362.3,522.9 			"/>
			<polygon class="st0" points="355.2,523.7 357.7,524.4 361.4,511.6 365.3,512.8 363,520.3 365.6,521.1 368.5,511.1 353.2,506.6 
				349.6,519.2 352.1,519.9 355.1,510 358.9,510.9 			"/>
			<polygon class="st0" points="338.2,515.9 340.6,516.6 343.6,506.6 347.5,507.6 343.8,520.4 346.3,521.1 350.8,505.8 335.5,501.5 
				332.5,511.5 335.1,512.2 337.3,504.7 341,505.7 			"/>
			<polygon class="st0" points="331.1,516.8 331.8,514.1 334.4,514.9 333.7,517.5 			"/>
			<polygon class="st0" points="326.8,512.6 323,511.6 325.1,503.9 322.6,503.2 320.4,510.8 316.6,509.6 319.6,499.7 317,498.7 
				313.3,511.5 328.5,515.8 333,500.8 330.5,500 			"/>
			<polygon class="st0" points="326.7,498.8 325.8,501.3 323.4,500.7 324.1,498.2 			"/>
			<polygon class="st0" points="315.6,550.6 318.2,551.4 318.9,548.8 316.3,548.2 			"/>
			<polygon class="st0" points="309.2,548.8 311.8,549.5 315.5,536.9 319.3,538 317.1,545.7 319.6,546.4 322.6,536.1 307.4,531.8 
				303.7,544.6 306.3,545.3 309.1,535 313,536.2 			"/>
			<polygon class="st0" points="333.2,542 330.8,541.3 327.7,551.4 324,550.3 327.7,537.8 325.1,536.8 320.6,552.1 335.9,556.5 
				338.9,546.4 336.3,545.6 334.1,553.2 330.4,552.2 			"/>
			<polygon class="st0" points="340.3,541.4 339.6,543.8 337.1,543.2 337.9,540.6 			"/>
			<polygon class="st0" points="344.7,545.3 348.5,546.4 346.3,554 348.8,554.8 351,547.1 354.8,548.3 351.8,558.4 354.5,559.2 
				358.1,546.4 342.9,542.1 338.5,557.2 340.9,558 			"/>
			<polygon class="st0" points="344.7,559.1 345.6,556.6 348,557.3 347.3,559.8 			"/>
			<polygon class="st0" points="320.8,532.9 323.3,533.6 324.1,531.1 321.5,530.5 			"/>
			<polygon class="st0" points="314.5,531.1 317,531.9 320.7,519.1 324.5,520.3 322.3,527.9 324.8,528.6 327.8,518.4 312.5,514 
				308.8,526.8 311.4,527.5 314.4,517.3 318.2,518.5 			"/>
			<polygon class="st0" points="332.9,533.8 335.5,534.4 338.5,524.4 342.3,525.4 338.6,538.2 341.1,538.9 345.5,523.6 330.4,519.2 
				327.4,529.3 329.8,530.1 332.1,522.4 335.9,523.5 			"/>
			<polygon class="st0" points="325.8,534.4 326.6,531.8 329.1,532.5 328.4,535.2 			"/>
			<polygon class="st0" points="357,540.7 353.3,539.6 355.5,531.9 352.9,531.2 350.7,538.8 346.9,537.6 349.9,527.7 347.3,526.8 
				343.6,539.5 358.9,543.9 363.3,528.8 360.7,528 			"/>
			<polygon class="st0" points="356.9,526.9 356.2,529.4 353.7,528.7 354.5,526.2 			"/>
		</g>
	</g>
</g>
<polygon class="st0" points="0,399.9 10,403.1 14.1,389.9 0.2,385.3 0,386.2 "/>
<polygon class="st0" points="0,437 6,416.7 0,414.9 "/>
<g>
	<polygon class="st0" points="0,362.7 7.2,364.8 11.3,351.6 0,348.1 	"/>
	<polygon class="st0" points="0,326.1 30.2,335.5 35.4,321.4 0,310.7 	"/>
</g>
<polygon class="st0" points="0,222.5 46.5,236.1 39.5,256.6 0,244.2 0,259.3 35.5,270.4 29.8,290.5 0,281.5 0,296.4 39.5,308.3 
	63.7,227 0,207.7 "/>
<polygon class="st0" points="0,503.8 75.9,527.2 80.4,513.3 12.8,492.6 18.6,472.8 59.9,484.8 63.9,471.1 23.2,459 29.6,438.6 
	82.8,455.4 87.5,441.6 19.7,420.8 0,485.8 "/>
</svg>
