<?xml version="1.0" encoding="utf-8"?>
<!-- Generator: Adobe Illustrator 24.3.0, SVG Export Plug-In . SVG Version: 6.00 Build 0)  -->
<svg version="1.1" id="Camada_1" xmlns="http://www.w3.org/2000/svg" xmlns:xlink="http://www.w3.org/1999/xlink" x="0px" y="0px"
	 width="310.3px" height="120px" viewBox="0 0 310.3 120" style="enable-background:new 0 0 310.3 120;" xml:space="preserve">
<style type="text/css">
	.st0{fill:#24242B;}
</style>
<polygon class="st0" points="255.4,89 262.6,92.3 258.6,99.1 252.1,95.8 "/>
<polygon class="st0" points="193,95.6 200.2,98.9 196.6,105.7 189.7,102.4 "/>
<polygon class="st0" points="206.8,85.6 211.7,75.5 232.2,85.4 235.5,78.9 215.4,68.6 220.5,58.5 246.9,72.2 250.8,65.3 217,48.3 
	197,88.7 236.8,109 240.4,102.5 "/>
<polygon class="st0" points="245.6,92.5 239,88.7 242.1,82.3 248.5,85.6 "/>
<polygon class="st0" points="106.2,34.6 103,41.4 109.8,44.7 112.8,37.9 "/>
<polygon class="st0" points="114.7,17.6 111.4,24.5 144.6,41.5 139.8,51.5 119.3,41.2 115.9,48.1 143.3,61.7 163.4,21.4 129.4,4.4 
	126.1,11.2 153.5,24.6 147.9,34.7 "/>
<polygon class="st0" points="121.3,88.4 124.7,81.8 97.9,68.2 102.8,58.2 136,75.1 140,68.2 99.6,47.9 79.2,88.3 106,101.9 
	109.6,95.1 89.4,85.1 94.3,75.1 "/>
<polygon class="st0" points="119.3,108.6 112.8,105.2 115.8,98.4 122.7,102.1 "/>
<polygon class="st0" points="153.1,58.3 149.8,65.1 156.6,68.4 159.6,61.6 "/>
<polygon class="st0" points="161.6,41.6 158,48.1 191.8,65.1 186.7,75.3 166.5,65.2 163.2,71.7 190.2,85.4 210.5,45 176.7,28 
	173.3,34.8 200.3,48.5 194.9,58.6 "/>
<polygon class="st0" points="146.5,71.5 153.3,75.2 150,81.8 142.8,78.4 "/>
<g>
	<g>
		<g>
			<polygon class="st0" points="280.3,56.3 281.3,54.5 279.4,53.7 278.5,55.5 			"/>
			<polygon class="st0" points="278.1,61.1 279.1,59.2 269.7,54.6 271.2,51.9 276.7,54.6 277.6,52.7 270.2,49 264.6,60.2 274,64.8 
				274.9,63 267.6,59.2 268.8,56.4 			"/>
			<polygon class="st0" points="276.2,41.5 275.2,43.5 282.6,47.1 281.3,49.9 271.9,45.3 271.1,47.2 282.3,52.7 287.8,41.5 
				280.4,37.8 279.4,39.7 285,42.4 283.6,45.3 			"/>
			<polygon class="st0" points="276.6,35.9 278.3,36.9 277.5,38.7 275.6,37.8 			"/>
			<polygon class="st0" points="291.4,29.4 290,32.2 284.5,29.5 283.5,31.3 289.1,34.1 287.6,36.8 280.4,33.2 279.4,35.1 
				288.7,39.7 294.2,28.5 283.1,22.9 282.2,24.8 			"/>
			<polygon class="st0" points="280.7,27.5 282.6,28.5 281.6,30.4 279.8,29.5 			"/>
			<polygon class="st0" points="252.6,51.9 251.7,53.7 253.4,54.6 254.4,52.8 			"/>
			<polygon class="st0" points="254.8,47.2 253.9,49.1 263.3,53.8 261.7,56.5 256.3,53.7 255.4,55.6 262.8,59.2 268.3,48 259,43.6 
				258.1,45.4 265.5,49 264.1,51.8 			"/>
			<polygon class="st0" points="263.2,35.2 262.2,36.9 269.6,40.7 268.4,43.4 258.9,38.8 258,40.6 269.2,46.2 274.6,35.1 
				267.4,31.4 266.4,33.2 271.9,36 270.7,38.9 			"/>
			<polygon class="st0" points="263.5,29.5 265.5,30.4 264.5,32.4 262.5,31.4 			"/>
			<polygon class="st0" points="267.2,26.8 268.6,23.9 274.2,26.7 275.1,24.9 269.5,22.1 271,19.2 278.3,23 279.3,21.1 270,16.5 
				264.6,27.6 275.6,33.1 276.5,31.3 			"/>
			<polygon class="st0" points="277.9,28.5 276.1,27.5 276.9,25.8 278.8,26.6 			"/>
			<polygon class="st0" points="239.3,12.9 238.4,14.8 240.3,15.7 241.2,13.8 			"/>
			<polygon class="st0" points="241.7,8.3 240.7,10 250,14.7 248.7,17.5 242.9,14.7 242,16.7 249.7,20.4 255.2,9.1 245.7,4.5 
				244.9,6.4 252.4,9.9 250.9,12.8 			"/>
			<polygon class="st0" points="243.5,27.7 244.5,25.9 237.2,22.2 238.4,19.5 247.7,24 248.7,22.1 237.5,16.6 232.1,27.8 
				239.5,31.5 240.5,29.6 234.9,26.9 236.1,24 			"/>
			<polygon class="st0" points="243.1,33.2 241.3,32.5 242.1,30.5 244.1,31.5 			"/>
			<polygon class="st0" points="239.5,36.1 238.1,38.9 232.5,36.2 231.6,38 237.2,40.8 235.8,43.6 228.4,39.8 227.4,41.7 
				236.8,46.3 242.2,35.2 231.1,29.6 230.2,31.5 			"/>
			<polygon class="st0" points="228.8,34.2 230.6,35.3 229.7,37.2 227.9,36.2 			"/>
			<polygon class="st0" points="252.3,19.3 251.5,21.3 253.3,22.1 254.1,20.2 			"/>
			<polygon class="st0" points="254.6,14.7 253.7,16.5 263,21.2 261.7,23.9 256.1,21.2 255.1,23 262.7,26.7 268.2,15.6 258.7,10.9 
				257.9,12.8 265.3,16.4 263.9,19.2 			"/>
			<polygon class="st0" points="250,28.7 249.2,30.5 256.5,34.2 255.2,37 245.9,32.4 245,34.2 256.2,39.8 261.7,28.6 254.3,24.9 
				253.3,26.7 258.9,29.6 257.5,32.3 			"/>
			<polygon class="st0" points="250.5,23.1 252.5,23.9 251.5,25.8 249.5,24.9 			"/>
			<polygon class="st0" points="241.4,46.3 242.7,43.6 248.5,46.3 249.2,44.4 243.7,41.7 245.1,38.9 252.5,42.7 253.4,40.8 
				244.1,36.2 238.6,47.3 249.6,52.8 250.7,51 			"/>
			<polygon class="st0" points="252,48.1 250.2,47.1 251.1,45.5 252.9,46.3 			"/>
		</g>
	</g>
</g>
<g>
	<g>
		<g>
			<polygon class="st0" points="73.2,38.3 71.4,37.5 70.5,39.3 72.2,40.2 			"/>
			<polygon class="st0" points="77.9,40.6 76,39.6 71.3,48.9 68.6,47.5 71.3,42 69.5,41.2 65.8,48.3 76.9,54.1 81.5,44.8 79.7,43.9 
				75.9,51.1 73.2,49.9 			"/>
			<polygon class="st0" points="58.5,42.3 60.3,43.3 64,36 66.8,37.3 62,46.6 63.9,47.4 69.5,36.3 58.4,30.9 54.8,38.2 56.6,39.2 
				59.4,33.5 62.1,35.1 			"/>
			<polygon class="st0" points="52.9,41.9 53.8,40.1 55.6,41 54.7,42.8 			"/>
			<polygon class="st0" points="46.5,27.2 49.2,28.4 46.5,34 48.2,35 51.1,29.4 53.9,30.9 50.1,38.1 52,39 56.7,29.9 45.5,24.2 
				40,35.3 41.7,36.2 			"/>
			<polygon class="st0" points="44.5,37.7 45.5,35.8 47.4,36.8 46.4,38.6 			"/>
			<polygon class="st0" points="68.5,65.9 70.3,66.9 71.2,65 69.4,64.1 			"/>
			<polygon class="st0" points="63.8,63.6 65.7,64.5 70.4,55.3 73.2,56.8 70.3,62.2 72.1,63.1 75.9,56 64.8,50.2 60.1,59.4 
				61.9,60.3 65.8,53.1 68.5,54.3 			"/>
			<polygon class="st0" points="51.9,55.2 53.7,56.2 57.4,48.8 60.3,50.2 55.5,59.5 57.5,60.4 63,49.3 52,43.8 48.1,51 50,51.9 
				52.8,46.5 55.5,47.8 			"/>
			<polygon class="st0" points="46.3,54.8 47.3,52.9 49.1,53.9 48.2,55.8 			"/>
			<polygon class="st0" points="43.6,51 40.8,49.7 43.6,44.1 41.8,43.2 38.9,48.8 36.2,47.3 39.9,40 38.1,39 33.4,48.2 44.5,53.7 
				50,42.9 48.3,41.8 			"/>
			<polygon class="st0" points="45.5,40.4 44.5,42.2 42.7,41.4 43.6,39.6 			"/>
			<polygon class="st0" points="29.5,78.7 31.4,79.5 32.4,77.8 30.5,76.9 			"/>
			<polygon class="st0" points="24.9,76.3 26.8,77.2 31.4,68.2 34.2,69.4 31.4,75.1 33.3,76 37,68.5 26,63 21.2,72.3 23.2,73.2 
				26.8,65.7 29.6,67.2 			"/>
			<polygon class="st0" points="44.3,74.6 42.5,73.6 38.8,81 36,79.6 40.7,70.6 38.8,69.4 33.2,80.5 44.3,86.1 48,78.8 46.2,77.8 
				43.4,83.3 40.6,82 			"/>
			<polygon class="st0" points="49.9,75.1 49,76.9 47,76.1 48.1,74.2 			"/>
			<polygon class="st0" points="52.6,78.7 55.4,80.2 52.6,85.7 54.5,86.6 57.3,81.1 60,82.5 56.2,89.8 58.1,90.9 62.8,81.5 
				51.7,76.1 46.2,87 47.9,88 			"/>
			<polygon class="st0" points="50.7,89.3 51.7,87.6 53.5,88.4 52.6,90.3 			"/>
			<polygon class="st0" points="36.1,65.8 38,66.8 38.8,64.9 37,64 			"/>
			<polygon class="st0" points="31.5,63.5 33.3,64.5 38,55.2 40.7,56.6 37.9,62.2 39.7,63 43.5,55.6 32.5,50.1 27.7,59.4 29.6,60.3 
				33.4,52.8 36.2,54.3 			"/>
			<polygon class="st0" points="45.3,68.2 47.1,69.1 50.9,61.8 53.7,63.1 49.1,72.4 50.8,73.3 56.4,62.2 45.4,56.6 41.6,64 
				43.4,64.9 46.3,59.3 49.1,60.8 			"/>
			<polygon class="st0" points="39.6,67.6 40.7,65.7 42.5,66.7 41.6,68.6 			"/>
			<polygon class="st0" points="62.8,77 60.1,75.6 62.9,70 61,69.1 58.2,74.6 55.5,73.2 59.3,65.9 57.4,65 52.7,74.2 63.7,79.8 
				69.3,68.8 67.4,67.8 			"/>
			<polygon class="st0" points="64.7,66.3 63.8,68.2 62,67.3 62.9,65.5 			"/>
		</g>
	</g>
</g>
<g>
	<g>
		<g>
			<polygon class="st0" points="25.2,92.5 24.8,93.2 25.5,93.7 25.9,93 			"/>
			<polygon class="st0" points="26.2,90.7 25.8,91.4 29.4,93.6 28.7,94.6 26.6,93.4 26.2,94.1 29,95.8 31.6,91.5 28,89.4 27.6,90.1 
				30.4,91.8 29.8,92.9 			"/>
			<polygon class="st0" points="26.3,98.6 26.8,97.9 24,96.2 24.5,95.1 28.2,97.3 28.5,96.6 24.3,93.9 21.7,98.3 24.6,100 25,99.3 
				22.8,98 23.5,96.9 			"/>
			<polygon class="st0" points="26,100.8 25.3,100.4 25.7,99.7 26.4,100.1 			"/>
			<polygon class="st0" points="19.9,103 20.4,101.9 22.6,103.2 23.1,102.5 20.9,101.2 21.6,100.1 24.4,101.8 24.8,101.1 21.3,99 
				18.6,103.3 22.9,105.8 23.4,105.2 			"/>
			<polygon class="st0" points="24.1,104.1 23.3,103.6 23.8,102.9 24.5,103.4 			"/>
			<polygon class="st0" points="36.2,95.2 36.6,94.5 35.9,94.1 35.5,94.8 			"/>
			<polygon class="st0" points="35.1,97.1 35.5,96.3 31.9,94.2 32.6,93.1 34.7,94.4 35.1,93.7 32.4,92 29.7,96.2 33.3,98.4 
				33.7,97.7 30.9,96 31.5,94.9 			"/>
			<polygon class="st0" points="31.3,101.6 31.8,100.9 28.9,99.2 29.6,98.1 33.2,100.3 33.6,99.5 29.3,97 26.7,101.3 29.5,103 
				30,102.3 27.9,101 28.5,99.9 			"/>
			<polygon class="st0" points="31,103.9 30.3,103.4 30.7,102.7 31.5,103.1 			"/>
			<polygon class="st0" points="29.4,104.9 28.8,105.9 26.6,104.7 26.2,105.4 28.4,106.7 27.7,107.7 24.9,106 24.4,106.7 28,108.9 
				30.5,104.6 26.3,102 25.8,102.7 			"/>
			<polygon class="st0" points="25.2,103.8 25.9,104.2 25.5,104.9 24.8,104.5 			"/>
			<polygon class="st0" points="40.2,111.4 40.6,110.6 39.9,110.2 39.5,110.9 			"/>
			<polygon class="st0" points="39,113.2 39.5,112.4 36,110.3 36.6,109.2 38.8,110.5 39.2,109.8 36.3,108 33.7,112.3 37.3,114.5 
				37.8,113.8 34.8,112.1 35.5,111 			"/>
			<polygon class="st0" points="38.9,105.3 38.5,106 41.4,107.7 40.7,108.8 37.2,106.6 36.7,107.4 41,109.9 43.6,105.6 40.8,103.9 
				40.3,104.6 42.4,105.9 41.8,107 			"/>
			<polygon class="st0" points="39.3,103 40,103.5 39.6,104.2 38.9,103.7 			"/>
			<polygon class="st0" points="40.8,102 41.5,101 43.7,102.2 44.1,101.5 42,100.2 42.6,99.2 45.5,100.9 45.9,100.2 42.3,98 
				39.8,102.3 44,104.9 44.5,104.2 			"/>
			<polygon class="st0" points="45.1,103.1 44.4,102.7 44.8,102 45.5,102.4 			"/>
			<polygon class="st0" points="35.2,108.3 35.6,107.6 34.9,107.2 34.5,107.9 			"/>
			<polygon class="st0" points="34.1,110.1 34.5,109.4 30.9,107.3 31.6,106.2 33.7,107.5 34.1,106.8 31.3,105 28.7,109.3 
				32.3,111.5 32.7,110.8 29.8,109 30.5,108 			"/>
			<polygon class="st0" points="36.4,104.7 36.8,104 34,102.2 34.6,101.1 38.2,103.3 38.6,102.6 34.3,100 31.7,104.3 34.6,106 
				35,105.3 32.8,104 33.5,102.9 			"/>
			<polygon class="st0" points="36,106.9 35.3,106.5 35.7,105.8 36.4,106.2 			"/>
			<polygon class="st0" points="40.5,97.9 39.8,98.9 37.7,97.6 37.2,98.4 39.4,99.7 38.7,100.7 35.9,99 35.5,99.7 39,101.9 
				41.6,97.6 37.4,95 36.9,95.7 			"/>
			<polygon class="st0" points="36.2,96.8 37,97.2 36.5,97.9 35.8,97.5 			"/>
		</g>
	</g>
</g>
<polygon class="st0" points="71.6,120 74,115.4 67.5,111.7 64.1,118.6 66.9,120 "/>
<g>
	<g>
		<polygon class="st0" points="105.4,120 113.8,120 116,115.5 75.9,95.2 72.7,101.7 106.1,118.6 		"/>
		<polygon class="st0" points="80.1,120 83.3,120 80.8,118.8 		"/>
	</g>
</g>
<g>
	<g>
		<polygon class="st0" points="158.1,120 129.2,105.5 125.9,112 142,120 		"/>
		<polygon class="st0" points="164.2,120 172.6,120 186.5,92.3 159.8,78.6 156.4,85.1 176.7,95.4 171.5,105.5 144.5,91.9 
			141.5,98.7 167.8,112.3 		"/>
	</g>
</g>
<g>
	<g>
		<polygon class="st0" points="223.1,120 231.3,120 233.4,115.8 207,102.3 203.7,109.1 223.6,119 		"/>
		<polygon class="st0" points="200.2,120 191.7,115.8 189.6,120 		"/>
	</g>
</g>
<g>
	<g>
		<polygon class="st0" points="289.2,105.9 269.1,95.9 265.4,102.4 285.9,112.7 282,120 290.6,120 304.6,92.6 264.2,72.3 
			260.8,78.9 294.1,95.8 		"/>
		<polygon class="st0" points="275,120 254,109.2 250.8,116 258.5,120 		"/>
	</g>
</g>
</svg>
