<?xml version="1.0" encoding="utf-8"?>
<!-- Generator: Adobe Illustrator 24.3.0, SVG Export Plug-In . SVG Version: 6.00 Build 0)  -->
<svg version="1.1" id="Camada_1" xmlns="http://www.w3.org/2000/svg" xmlns:xlink="http://www.w3.org/1999/xlink" x="0px" y="0px"
	 width="228.8px" height="400px" viewBox="0 0 228.8 400" style="enable-background:new 0 0 228.8 400;" xml:space="preserve">
<style type="text/css">
	.st0{fill:#18181E;}
</style>
<path class="st0" d="M164.7,394.5c-1.8,0-3.6,0-5.4-0.1l0.1-2c2.3,0.1,4.6,0.1,6.9,0.1v2C165.8,394.5,165.3,394.5,164.7,394.5z
	 M173.4,394.2l-0.1-2c2.3-0.2,4.6-0.4,6.9-0.7l0.3,2C178.1,393.8,175.7,394,173.4,394.2z M152.3,393.8c-2.3-0.2-4.7-0.6-7-0.9l0.3-2
	c2.3,0.4,4.6,0.7,6.9,0.9L152.3,393.8z M187.4,392.4l-0.4-2c2.3-0.4,4.5-0.9,6.8-1.4l0.5,1.9C192,391.5,189.7,392,187.4,392.4z
	 M138.4,391.5c-2.3-0.5-4.6-1.1-6.8-1.8l0.6-1.9c2.2,0.7,4.5,1.3,6.7,1.8L138.4,391.5z M201.1,389.2l-0.6-1.9
	c2.2-0.6,4.4-1.4,6.6-2.1l0.7,1.9C205.6,387.8,203.3,388.5,201.1,389.2z M124.9,387.4c-2.2-0.8-4.4-1.7-6.5-2.7l0.8-1.8
	c2.1,1,4.2,1.8,6.4,2.7L124.9,387.4z M214.4,384.5l-0.8-1.9c2.1-0.9,4.3-1.8,6.4-2.8l0.8,1.8C218.7,382.7,216.6,383.6,214.4,384.5z
	 M112,381.5c-2.1-1.1-4.1-2.4-6.1-3.6l1.1-1.7c1.9,1.2,3.9,2.4,5.9,3.5L112,381.5z M227.2,378.5l-0.9-1.8c0.7-0.4,1.4-0.7,2-1.1
	l1,1.8C228.6,377.8,227.9,378.2,227.2,378.5z M100.2,373.8c-1.9-1.4-3.7-2.9-5.5-4.5l1.3-1.5c1.7,1.5,3.5,3,5.3,4.4L100.2,373.8z
	 M89.6,364.4c-1.6-1.7-3.2-3.5-4.7-5.3l1.5-1.3c1.5,1.8,3,3.5,4.6,5.2L89.6,364.4z M80.6,353.5c-1.4-1.9-2.7-3.9-3.9-5.9l1.7-1
	c1.2,2,2.5,3.9,3.8,5.8L80.6,353.5z M73.3,341.5c-1.1-2.1-2.1-4.2-3.1-6.4l1.8-0.8c0.9,2.1,1.9,4.2,3,6.2L73.3,341.5z M67.6,328.5
	c-0.8-2.2-1.5-4.5-2.2-6.7l1.9-0.5c0.6,2.2,1.3,4.4,2.1,6.6L67.6,328.5z M63.7,314.9c-0.5-2.3-0.9-4.7-1.2-7l2-0.3
	c0.3,2.3,0.7,4.6,1.1,6.8L63.7,314.9z M61.9,300.9c-0.1-1.4-0.1-2.7-0.1-4.1c0-1,0-2,0.1-3l2,0.1c0,1-0.1,2-0.1,3c0,1.3,0,2.6,0.1,4
	H61.9z M64.4,287l-2-0.2c0.3-2.1,0.6-4.3,1.1-6.3l0.1-0.7l2,0.4l-0.1,0.6C65,282.9,64.7,284.9,64.4,287z M67.4,273.5l-1.9-0.6
	c0.7-2.3,1.6-4.5,2.6-6.6l1.8,0.8C68.9,269.2,68.1,271.3,67.4,273.5z M73.1,261.1l-1.7-1c1.2-2,2.5-4,4-5.9l1.6,1.2
	C75.5,257.2,74.2,259.1,73.1,261.1z M81.4,250.1l-1.5-1.4c1.5-1.7,3.2-3.3,5-5l1.4,1.5C84.5,246.9,82.9,248.5,81.4,250.1z
	 M91.5,240.7l-1.3-1.5c1.6-1.3,3.3-2.7,5.5-4.4l1.2,1.6C94.8,238,93.1,239.4,91.5,240.7z M102.5,232.1l-1.2-1.6
	c1.8-1.4,3.7-2.8,5.5-4.3l1.2,1.6C106.2,229.2,104.3,230.6,102.5,232.1z M113.5,223.3l-1.3-1.5c1.9-1.6,3.6-3.1,5.2-4.6l1.4,1.4
	C117.1,220.1,115.4,221.6,113.5,223.3z M123.6,213.5l-1.5-1.3c1.6-1.7,3.1-3.5,4.4-5.3l1.6,1.2C126.8,209.9,125.2,211.8,123.6,213.5
	z M132.3,202.3l-1.7-1.1c1.2-1.9,2.4-3.9,3.5-6l1.8,0.9C134.7,198.3,133.5,200.4,132.3,202.3z M138.8,189.8L137,189
	c0.9-2.1,1.7-4.3,2.4-6.5l1.9,0.6C140.5,185.4,139.7,187.7,138.8,189.8z M143.2,176.4l-1.9-0.5c0.5-2.3,1-4.5,1.3-6.8l2,0.3
	C144.2,171.7,143.7,174.1,143.2,176.4z M145.3,162.4l-2-0.1c0.1-1.5,0.1-3,0.1-4.4c0-0.8,0-1.7,0-2.5l2-0.1c0,0.8,0,1.7,0,2.5
	C145.4,159.3,145.4,160.9,145.3,162.4z M142.9,148.5c-0.2-2.2-0.6-4.4-1-6.9l2-0.3c0.4,2.5,0.8,4.7,1,7L142.9,148.5z M140.5,134.8
	c-0.5-2.3-1-4.6-1.6-6.8l1.9-0.5c0.5,2.3,1.1,4.5,1.6,6.8L140.5,134.8z M137.4,121.1c-0.6-2.6-1-4.8-1.4-6.9l2-0.4
	c0.4,2.1,0.8,4.2,1.4,6.8L137.4,121.1z M135,107.2c-0.3-2.5-0.4-4.8-0.4-7.1h2c0,2.2,0.2,4.5,0.4,6.9L135,107.2z M136.8,93.2l-2-0.2
	c0.2-2.3,0.6-4.7,1.1-7l2,0.4C137.4,88.7,137,91,136.8,93.2z M139.6,79.8l-1.9-0.6c0.3-1,0.7-2.1,1.1-3.1c0.4-1.2,0.9-2.4,1.4-3.5
	l1.8,0.8c-0.5,1.1-0.9,2.3-1.4,3.4C140.3,77.7,139.9,78.8,139.6,79.8z M145,67.1l-1.8-1c1.1-2,2.3-4.1,3.7-6.1l1.7,1.1
	C147.3,63.1,146.1,65.1,145,67.1z M152.6,55.6l-1.6-1.2c1.4-1.8,3-3.6,4.6-5.4l1.5,1.4C155.6,52,154,53.8,152.6,55.6z M162,45.4
	l-1.4-1.5c1.7-1.6,3.5-3.1,5.3-4.7l1.3,1.5C165.4,42.3,163.7,43.9,162,45.4z M172.7,36.6l-1.2-1.6c1.9-1.4,3.8-2.7,5.8-4l1.1,1.7
	C176.5,33.9,174.6,35.3,172.7,36.6z M184.4,29l-1-1.7c2-1.2,4-2.3,6.1-3.4l0.9,1.8C188.3,26.7,186.3,27.9,184.4,29z M196.6,22.4
	l-0.9-1.8c2.1-1,4.2-2,6.4-3l0.8,1.8C200.8,20.5,198.7,21.5,196.6,22.4z M209.4,16.8l-0.8-1.9c2.1-0.9,4.3-1.7,6.6-2.6l0.7,1.9
	C213.7,15.1,211.5,15.9,209.4,16.8z M222.4,11.9l-0.7-1.9c2.2-0.7,4.4-1.5,6.7-2.2l0.6,1.9C226.8,10.4,224.6,11.2,222.4,11.9z"/>
</svg>
