<?xml version="1.0" encoding="utf-8"?>
<!-- Generator: Adobe Illustrator 24.3.0, SVG Export Plug-In . SVG Version: 6.00 Build 0)  -->
<svg version="1.1" id="Camada_1" xmlns="http://www.w3.org/2000/svg" xmlns:xlink="http://www.w3.org/1999/xlink" x="0px" y="0px"
	 width="400px" height="650px" viewBox="0 0 400 650" style="enable-background:new 0 0 400 650;" xml:space="preserve">
<style type="text/css">
	.st0{fill:#26262D;}
</style>
<polygon class="st0" points="175.7,579.9 189.4,564.1 173.6,550.3 159.8,566.1 "/>
<polygon class="st0" points="141.3,621.3 156.2,604.8 73.7,534.3 94.8,510.7 144,552.4 157.1,535.5 92.9,480.3 7.8,578.3 
	90.5,647.9 103.3,631.9 39.4,575.8 59.8,551 "/>
<polygon class="st0" points="172.6,420.5 157.7,437 222.8,492.4 202.4,517.1 119.9,446.6 106.9,463.5 205.2,547.8 288.5,449.3 
	223.4,393.9 208.8,409.5 258.7,452.2 236.5,476.6 "/>
<polygon class="st0" points="190.2,365.1 206,378.8 192.1,395.5 176.3,381.8 "/>
<polygon class="st0" points="356,337.1 335.6,361.8 286.4,320.1 271.7,335.7 321.6,378.5 299.5,402.8 235.5,346.7 221.6,363.4 
	302.2,433.5 387.3,335.4 289.1,251.2 275.3,267 "/>
<polygon class="st0" points="253.1,291.3 270.7,305.5 255,321.8 239.2,308 "/>
<polygon class="st0" points="75.2,266.9 92.8,281.1 78,297.6 61.3,283.6 "/>
<polygon class="st0" points="120.5,248.5 140.9,223.8 191,265.7 204.8,249.9 155.8,207.3 177,182.8 241,238.9 256.7,222.6 
	174.3,152.1 91,250.6 187.4,334.4 202.1,318.8 "/>
<polygon class="st0" points="223.4,294.3 207.8,279.6 220.6,263.6 236.4,277.4 "/>
<polygon class="st0" points="25,95.4 10.3,111 92.8,181.5 71.5,206 22.3,164.3 8.5,180.1 74.3,236.6 158.5,138.4 76,67.9 62.1,84.6 
	127.8,141.1 105.6,165.5 "/>
<g>
	<polygon class="st0" points="261.2,594.5 264.4,597.3 267.2,594 264,591.2 	"/>
	<polygon class="st0" points="252.6,587.5 256,590.5 270.4,573.5 275.3,577.8 266.8,587.9 270.3,590.6 281.5,577.4 261.2,560 
		247.1,577.1 250.4,579.7 261.8,566.5 266.9,570.6 	"/>
	<polygon class="st0" points="293.9,593.6 290.5,590.6 279.2,604 274.1,599.9 288.4,582.8 285,580.2 267.8,600.5 288.2,617.4 
		299.4,604 296.2,601 287.5,611.3 282.5,606.8 	"/>
	<polygon class="st0" points="305.3,597.1 302.5,600.4 299,597.6 301.8,594.3 	"/>
	<polygon class="st0" points="311.3,631.1 306.2,627 314.7,616.8 311.4,613.8 302.7,624.1 297.7,619.6 309.1,606.4 305.7,603.6 
		291.4,620.2 311.7,637.6 328.8,617.3 325.6,614.5 	"/>
	<polygon class="st0" points="320.5,610 317.7,613.6 314.3,610.4 317.1,607.1 	"/>
	<polygon class="st0" points="284.6,539.5 281.3,536.7 278.5,540 281.8,542.8 	"/>
	<polygon class="st0" points="293.1,546.5 289.7,543.6 275.4,560.7 270.3,556.1 279,546.2 275.5,543.4 264.3,556.6 284.5,573.9 
		298.6,557.1 295.4,554.3 284,567.5 278.8,563.5 	"/>
	<polygon class="st0" points="313.9,569.9 310.6,567.1 299.1,580.5 294,576.3 308.4,559.3 304.9,556.4 287.8,576.7 308.1,593.7 
		319.6,580.5 316.1,577.6 307.7,587.6 302.6,583.5 	"/>
	<polygon class="st0" points="325.3,573.4 322.4,577 319,574 321.8,570.6 	"/>
	<polygon class="st0" points="329.1,582.7 334.2,586.8 325.7,597.2 329,600 337.6,589.8 342.7,594.2 331.3,607.4 334.6,610.6 
		349,593.6 328.6,576.6 311.6,596.5 314.8,599.5 	"/>
	<polygon class="st0" points="319.9,603.8 322.9,600.6 326.2,603.2 323.4,606.5 	"/>
	<polygon class="st0" points="372,532.1 368.6,529.3 365.7,532.7 369.2,535.4 	"/>
	<polygon class="st0" points="380.5,539.3 377.1,536.5 362.8,553.1 357.7,549 366.4,538.7 363,535.8 351.4,549.6 371.8,566.5 
		386.1,549.5 382.6,546.7 371.3,560.5 366.3,556 	"/>
	<polygon class="st0" points="339.2,533.4 342.5,536.2 353.9,522.8 359,526.9 344.8,543.6 348.2,546.8 365.3,526.5 345,509.3 
		333.5,522.7 336.9,525.8 345.4,515.6 350.5,519.7 	"/>
	<polygon class="st0" points="327.9,529.5 330.7,526.2 334.2,528.8 331.2,532.3 	"/>
	<polygon class="st0" points="324,520.6 318.9,516.2 327.4,506.1 324.1,503.3 315.5,513.4 310.4,509.1 321.9,495.7 318.4,492.6 
		304.1,509.7 324.4,526.6 341.5,506.5 338.3,503.7 	"/>
	<polygon class="st0" points="333.2,499.4 330.2,502.6 327,499.8 329.8,496.5 	"/>
	<polygon class="st0" points="352.1,555.7 348.6,552.8 345.8,556.3 349.3,559 	"/>
	<polygon class="st0" points="360.4,562.8 357.2,559.8 342.8,576.9 337.8,572.5 346.2,562.4 343,559.6 331.5,573.1 351.8,590.3 
		366.1,573.3 362.7,570.4 351.2,584 346.1,579.5 	"/>
	<polygon class="st0" points="334,546.1 330.5,543.5 319.1,556.7 314,552.6 328.4,535.5 325.1,532.7 307.9,553.2 328.1,570.1 
		339.5,556.7 336.3,553.9 327.6,564.1 322.5,559.7 	"/>
	<polygon class="st0" points="345.4,550 342.3,553.5 339.1,550.7 341.9,547 	"/>
	<polygon class="st0" points="301.9,519.2 306.8,523.3 298.3,533.7 301.8,536.5 310.2,526.4 315.3,530.7 303.9,543.9 307.3,546.9 
		321.6,530.1 301.3,512.9 284.2,533.1 287.6,536.1 	"/>
	<polygon class="st0" points="292.7,540.4 295.5,537 298.8,539.8 296,543 	"/>
</g>
<g>
	<polygon class="st0" points="225.5,52.4 223,55.2 225.8,57.7 228.3,54.9 	"/>
	<polygon class="st0" points="231.7,45 229,47.9 243.6,60.7 239.8,64.9 231.1,57.3 228.7,60.3 240.1,70.4 255.5,53 240.9,40.4 
		238.6,43.2 249.9,53.4 246.2,57.8 	"/>
	<polygon class="st0" points="225.7,80.9 228.4,78 216.9,67.9 220.6,63.5 235.2,76.3 237.6,73.3 220.2,58 205,75.5 216.6,85.5 
		219.2,82.8 210.4,75 214.4,70.7 	"/>
	<polygon class="st0" points="222.4,90.8 219.6,88.3 222.2,85.3 225,87.8 	"/>
	<polygon class="st0" points="192.7,95.4 196.4,91 205.1,98.6 207.8,95.8 199,88.1 203,83.8 214.3,94 216.8,91 202.5,78.3 
		187.1,95.7 204.5,110.9 207,108.1 	"/>
	<polygon class="st0" points="211,103.8 207.9,101.3 210.8,98.4 213.6,100.9 	"/>
	<polygon class="st0" points="273,73.7 275.5,70.9 272.7,68.4 270.2,71.2 	"/>
	<polygon class="st0" points="266.8,81 269.3,78.1 254.7,65.3 258.8,61 267.3,68.7 269.8,65.7 258.5,55.7 243,73.1 257.5,85.6 
		260,82.8 248.7,72.7 252.2,68.2 	"/>
	<polygon class="st0" points="246.1,98.7 248.6,95.9 237.1,85.7 240.8,81.3 255.4,94.1 257.9,91.1 240.5,75.9 225.4,93.3 
		236.7,103.5 239.3,100.5 230.7,93 234.4,88.6 	"/>
	<polygon class="st0" points="242.8,108.6 239.7,106 242.4,103.1 245.3,105.6 	"/>
	<polygon class="st0" points="234.7,111.8 231,116.2 222.1,108.6 219.6,111.4 228.3,119.1 224.4,123.4 213.1,113.2 210.2,116.1 
		224.8,128.9 240,111.5 222.9,96.3 220.2,99 	"/>
	<polygon class="st0" points="216.4,103.4 219.1,106 216.8,108.9 214,106.4 	"/>
	<polygon class="st0" points="278,150 280.5,147.1 277.6,144.5 275.2,147.5 	"/>
	<polygon class="st0" points="271.6,157.3 274.1,154.4 259.9,141.6 263.6,137.3 272.4,145 274.9,142.1 263.1,131.8 248,149.2 
		262.6,162 265.1,159 253.3,148.9 257.3,144.6 	"/>
	<polygon class="st0" points="277.5,121.4 275,124.2 286.5,134.4 282.8,138.8 268.5,126.1 265.6,129 283,144.3 298.3,126.8 
		286.8,116.6 284.1,119.6 292.9,127.1 289.2,131.5 	"/>
	<polygon class="st0" points="281.1,111.6 283.9,114.1 281.5,117.1 278.6,114.4 	"/>
	<polygon class="st0" points="288.9,108.3 292.7,104 301.5,111.6 304,108.8 295.3,101 299.1,96.7 310.6,106.9 313.3,104 298.7,91.2 
		283.6,108.6 300.8,123.9 303.3,121.1 	"/>
	<polygon class="st0" points="307.2,116.7 304.4,114.1 306.9,111.3 309.7,113.8 	"/>
	<polygon class="st0" points="257.8,132.2 260.3,129.3 257.4,126.7 255,129.7 	"/>
	<polygon class="st0" points="251.4,139.4 254.1,136.6 239.5,123.8 243.3,119.5 252.1,127.1 254.6,124.3 242.9,114 227.6,131.4 
		242.2,144.2 244.8,141.2 233.1,131 237.2,126.7 	"/>
	<polygon class="st0" points="266.4,116.7 268.8,113.7 257.5,103.5 261.2,99.1 275.8,111.9 278.3,109.1 260.7,93.8 245.6,111.1 
		257.1,121.3 259.6,118.5 250.9,110.8 254.8,106.4 	"/>
	<polygon class="st0" points="262.8,126.5 259.9,123.8 262.4,121 265.5,123.6 	"/>
	<polygon class="st0" points="290.4,89.1 286.8,93.4 277.9,85.8 275.3,88.7 284.1,96.3 280.2,100.6 268.9,90.4 266.2,93.4 
		280.6,106.1 295.9,88.7 278.7,73.5 276,76.4 	"/>
	<polygon class="st0" points="272.1,80.7 275.1,83.3 272.6,86.1 269.8,83.6 	"/>
</g>
<polygon class="st0" points="0,3.1 0,30.7 13.9,42.3 0,57.5 0,91.6 43.5,40.2 "/>
<polygon class="st0" points="109.5,295 95.6,311.7 143.9,353.2 123.5,377.9 57.6,322.3 43.8,338.1 108.7,394.4 88.3,419.1 
	5.9,348.7 0,355.7 0,372.3 90.2,449.6 173.5,351.1 "/>
<polygon class="st0" points="0,201.6 0,229.3 29.8,255.2 8.6,279.7 0,272.4 0,322.9 59.4,253.2 "/>
<polygon class="st0" points="0,400.6 0,428.6 44.9,468 25.4,492.9 0,471.2 0,499.8 11.4,509.6 0,522.1 0,553.5 76.4,465.4 "/>
</svg>
