<?xml version="1.0" encoding="utf-8"?>
<!-- Generator: Adobe Illustrator 24.3.0, SVG Export Plug-In . SVG Version: 6.00 Build 0)  -->
<svg version="1.1" id="Camada_1" xmlns="http://www.w3.org/2000/svg" xmlns:xlink="http://www.w3.org/1999/xlink" x="0px" y="0px"
	 width="360px" height="640px" viewBox="0 0 360 640" style="enable-background:new 0 0 360 640;" xml:space="preserve">
<style type="text/css">
	.st0{fill:#292930;}
</style>
<g>
	<polygon class="st0" points="305,116.1 306.8,114.6 305.3,112.8 303.5,114.3 	"/>
	<polygon class="st0" points="300.5,119.9 302.3,118.4 294.8,109.4 297.5,107.1 302,112.5 303.8,111 297.8,103.8 287,112.8 
		294.5,121.8 296.3,120.3 290.3,113.1 293,110.9 	"/>
	<polygon class="st0" points="307.4,98.9 305.6,100.4 311.6,107.6 308.9,109.8 301.4,100.8 299.6,102.3 308.6,113.1 319.4,104.1 
		313.4,96.9 311.6,98.4 316.1,103.8 313.4,106.1 	"/>
	<polygon class="st0" points="310.4,93.3 311.9,95.1 310.1,96.6 308.6,94.8 	"/>
	<polygon class="st0" points="328.7,93.3 326,95.6 321.5,90.2 319.7,91.7 324.2,97.1 321.5,99.3 315.5,92.1 313.7,93.6 321.2,102.6 
		332,93.6 323.1,82.8 321.3,84.3 	"/>
	<polygon class="st0" points="318.6,86.5 320.1,88.3 318.2,89.8 316.8,88 	"/>
	<polygon class="st0" points="278.3,98.6 276.5,100.1 278,102 279.8,100.5 	"/>
	<polygon class="st0" points="282.8,94.9 281,96.4 288.5,105.4 285.8,107.7 281.3,102.3 279.5,103.8 285.5,111 296.3,102 288.8,93 
		287,94.5 293,101.7 290.3,103.9 	"/>
	<polygon class="st0" points="296.9,86.2 295.1,87.7 301.1,94.9 298.4,97.2 290.9,88.1 289.1,89.6 298.1,100.5 308.9,91.5 303,84.3 
		301.1,85.8 305.6,91.2 302.9,93.4 	"/>
	<polygon class="st0" points="300,80.6 301.5,82.5 299.7,84 298.2,82.1 	"/>
	<polygon class="st0" points="305.1,79.4 307.8,77.2 312.3,82.6 314.1,81.1 309.6,75.7 312.3,73.4 318.3,80.7 320.1,79.2 
		312.6,70.1 301.8,79.1 310.7,90 312.6,88.5 	"/>
	<polygon class="st0" points="315.3,86.2 313.8,84.4 315.6,82.9 317.1,84.7 	"/>
	<polygon class="st0" points="282.6,52.3 280.8,53.8 282.3,55.7 284.1,54.2 	"/>
	<polygon class="st0" points="287.1,48.6 285.3,50.1 292.8,59.1 290.1,61.4 285.6,56 283.8,57.5 289.8,64.7 300.6,55.7 293.1,46.7 
		291.3,48.2 297.3,55.4 294.6,57.6 	"/>
	<polygon class="st0" points="280.2,69.6 282,68.1 276,60.9 278.7,58.7 286.2,67.7 288,66.2 279,55.3 268.2,64.3 274.2,71.6 
		276,70.1 271.5,64.7 274.2,62.4 	"/>
	<polygon class="st0" points="277.2,75.2 275.7,73.4 277.5,71.9 279,73.7 	"/>
	<polygon class="st0" points="272.1,76.4 269.4,78.6 264.9,73.2 263.1,74.7 267.6,80.1 264.9,82.4 258.9,75.2 257.1,76.7 
		264.5,85.7 275.4,76.7 266.4,65.9 264.6,67.4 	"/>
	<polygon class="st0" points="261.9,69.6 263.4,71.4 261.6,72.9 260.1,71.1 	"/>
	<polygon class="st0" points="293.1,65 291.3,66.5 292.8,68.3 294.6,66.8 	"/>
	<polygon class="st0" points="297.6,61.2 295.8,62.7 303.3,71.8 300.6,74 296.1,68.6 294.3,70.1 300.3,77.3 311.1,68.3 303.6,59.3 
		301.8,60.8 307.8,68 305.1,70.3 	"/>
	<polygon class="st0" points="286.5,73.5 284.7,75 290.7,82.3 288,84.5 280.5,75.5 278.7,77 287.7,87.8 298.5,78.8 292.5,71.6 
		290.7,73.1 295.2,78.5 292.5,80.8 	"/>
	<polygon class="st0" points="289.5,68 291,69.8 289.2,71.3 287.7,69.5 	"/>
	<polygon class="st0" points="269.3,87.8 272,85.6 276.5,91 278.3,89.5 273.8,84.1 276.6,81.8 282.5,89 284.3,87.5 276.9,78.5 
		266,87.5 275,98.3 276.8,96.8 	"/>
	<polygon class="st0" points="279.5,94.6 278,92.8 279.8,91.3 281.3,93.1 	"/>
</g>
<polygon class="st0" points="221.2,434.5 233.6,424.6 223.6,412.2 211.3,422.2 "/>
<polygon class="st0" points="190.4,459.5 202.8,449.5 153,387.8 171.5,372.8 201.3,409.8 213.7,399.9 173.9,350.5 99.9,410.4 
	149.7,472.1 162,462.1 122.2,412.7 140.7,397.8 "/>
<polygon class="st0" points="239.2,318 226.9,327.9 266.7,377.3 248.2,392.3 198.5,330.6 186.2,340.5 245.9,414.6 319.8,354.7 
	280,305.4 267.7,315.3 297.5,352.4 279,367.3 "/>
<polygon class="st0" points="260.1,280.7 270,293 257.7,303 247.8,290.7 "/>
<polygon class="st0" points="315.6,235.7 325.5,248.1 313.2,258.1 303.3,245.7 "/>
<polygon class="st0" points="42.6,314 30.3,324 40.2,336.3 52.5,326.3 "/>
<polygon class="st0" points="73.4,289 61.1,299 110.8,360.7 92.3,375.7 62.5,338.7 50.2,348.6 90,398 163.9,338.2 114.1,276.4 
	101.8,286.4 141.6,335.8 123.1,350.8 "/>
<polygon class="st0" points="169.6,231.6 157.3,241.5 197.1,290.9 178.6,305.9 128.8,244.2 116.5,254.1 176.2,328.2 250.1,268.3 
	210.3,219 198,228.9 227.9,266 209.4,280.9 "/>
<polygon class="st0" points="190.4,194.3 200.4,206.6 188.1,216.6 178.1,204.2 "/>
<polygon class="st0" points="225.1,186.6 243.6,171.7 273.4,208.7 285.7,198.7 255.9,161.7 274.4,146.7 314.2,196.1 326.5,186.1 
	276.7,124.4 202.8,184.3 262.5,258.3 274.8,248.3 "/>
<polygon class="st0" points="293.3,233.4 283.4,221 295.7,211.1 305.6,223.4 "/>
<polygon class="st0" points="75.8,1.5 63.5,11.4 73.5,23.8 85.8,13.8 "/>
<polygon class="st0" points="37,155.3 27,143 39.3,133 49.3,145.4 "/>
<polygon class="st0" points="145.5,87.9 133.2,97.8 143.1,110.2 155.4,100.2 "/>
<polygon class="st0" points="176.3,62.9 164,72.9 213.7,134.6 195.2,149.6 165.4,112.6 153.1,122.5 192.9,171.9 266.8,112 217,50.3 
	204.7,60.3 244.5,109.7 226,124.6 "/>
<polygon class="st0" points="100,145.1 87.7,155.1 127.5,204.4 109,219.4 59.2,157.7 46.9,167.7 106.6,241.7 180.6,181.9 
	140.8,132.5 128.4,142.5 158.3,179.5 139.8,194.5 "/>
<polygon class="st0" points="120.9,107.8 130.8,120.2 118.5,130.1 108.5,117.8 "/>
<polygon class="st0" points="51.1,286.7 41.2,274.3 53.5,264.4 63.4,276.7 "/>
<g>
	<polygon class="st0" points="224.8,467.2 226.3,469 228.1,467.5 226.6,465.7 	"/>
	<polygon class="st0" points="221.1,462.7 222.6,464.5 231.6,457 233.8,459.7 228.4,464.2 229.9,466 237.1,460 228.1,449.2 
		219.1,456.7 220.6,458.5 227.8,452.5 230.1,455.2 	"/>
	<polygon class="st0" points="242.1,469.6 240.6,467.8 233.4,473.8 231.1,471.1 240.1,463.6 238.6,461.8 227.8,470.8 236.8,481.6 
		244.1,475.6 242.6,473.8 237.1,478.3 234.9,475.6 	"/>
	<polygon class="st0" points="247.7,472.6 245.9,474.1 244.4,472.3 246.2,470.8 	"/>
	<polygon class="st0" points="247.7,490.9 245.4,488.2 250.8,483.7 249.3,481.9 243.9,486.4 241.7,483.7 248.9,477.7 247.4,475.9 
		238.3,483.4 247.4,494.2 258.2,485.2 256.7,483.4 	"/>
	<polygon class="st0" points="254.4,480.7 252.6,482.2 251.1,480.4 252.9,478.9 	"/>
	<polygon class="st0" points="242.3,440.5 240.8,438.7 239,440.2 240.5,442 	"/>
	<polygon class="st0" points="246,445 244.5,443.2 235.5,450.7 233.2,448 238.7,443.5 237.1,441.7 229.9,447.7 239,458.5 248,451 
		246.5,449.2 239.3,455.2 237,452.5 	"/>
	<polygon class="st0" points="254.7,459.1 253.2,457.3 246,463.3 243.8,460.6 252.8,453.1 251.3,451.3 240.5,460.3 249.5,471.1 
		256.7,465.1 255.2,463.3 249.8,467.8 247.5,465.1 	"/>
	<polygon class="st0" points="260.3,462.1 258.5,463.6 257,461.8 258.8,460.3 	"/>
	<polygon class="st0" points="261.5,467.2 263.8,469.9 258.3,474.4 259.8,476.2 265.3,471.7 267.5,474.4 260.3,480.4 261.8,482.2 
		270.8,474.7 261.8,463.9 251,472.9 252.5,474.7 	"/>
	<polygon class="st0" points="254.7,477.4 256.5,475.9 258,477.7 256.2,479.2 	"/>
	<polygon class="st0" points="288.6,444.7 287.1,442.9 285.3,444.4 286.8,446.2 	"/>
	<polygon class="st0" points="292.3,449.2 290.8,447.4 281.8,454.9 279.5,452.2 285,447.7 283.5,445.9 276.2,451.9 285.3,462.7 
		294.3,455.2 292.8,453.4 285.6,459.4 283.3,456.7 	"/>
	<polygon class="st0" points="271.3,442.3 272.8,444.1 280,438.1 282.3,440.8 273.2,448.3 274.7,450.1 285.6,441.1 276.5,430.3 
		269.3,436.3 270.8,438.1 276.2,433.6 278.5,436.3 	"/>
	<polygon class="st0" points="265.7,439.3 267.5,437.8 269,439.6 267.2,441.1 	"/>
	<polygon class="st0" points="264.5,434.2 262.3,431.5 267.7,427 266.2,425.2 260.8,429.7 258.5,427 265.7,421 264.2,419.2 
		255.2,426.7 264.2,437.5 275,428.5 273.5,426.7 	"/>
	<polygon class="st0" points="271.3,424 269.5,425.5 268,423.7 269.8,422.2 	"/>
	<polygon class="st0" points="275.9,455.2 274.4,453.4 272.6,454.9 274.1,456.7 	"/>
	<polygon class="st0" points="279.7,459.7 278.2,457.9 269.2,465.4 266.9,462.7 272.3,458.2 270.8,456.4 263.6,462.4 272.6,473.2 
		281.6,465.7 280.1,463.9 272.9,469.9 270.7,467.2 	"/>
	<polygon class="st0" points="267.4,448.6 265.9,446.8 258.7,452.8 256.4,450.1 265.4,442.6 263.9,440.8 253.1,449.8 262.1,460.6 
		269.3,454.6 267.8,452.8 262.4,457.3 260.2,454.6 	"/>
	<polygon class="st0" points="272.9,451.6 271.1,453.1 269.6,451.3 271.4,449.8 	"/>
	<polygon class="st0" points="253.1,431.5 255.3,434.2 249.9,438.7 251.4,440.5 256.8,436 259.1,438.7 251.9,444.7 253.4,446.5 
		262.4,439 253.4,428.2 242.6,437.2 244.1,439 	"/>
	<polygon class="st0" points="246.3,441.7 248.1,440.2 249.6,442 247.8,443.5 	"/>
</g>
<polygon class="st0" points="0,134.8 0,160.1 2.3,163 0,164.9 0,185.3 24.6,165.3 "/>
<g>
	<polygon class="st0" points="0,286.4 20.3,311.6 32.6,301.6 0,261.2 	"/>
	<polygon class="st0" points="72,249.4 84.3,239.4 34.5,177.7 0,205.7 0,226.1 1.4,225 31.2,262 43.5,252 13.7,215 32.2,200 	"/>
</g>
<g>
	<polygon class="st0" points="0,109.5 17.1,130.6 29.4,120.7 0,84.2 	"/>
	<polygon class="st0" points="98.6,105.4 110.9,95.5 51.2,21.4 0,62.9 0,83.3 18,68.7 57.8,118 70.1,108.1 30.3,58.7 48.8,43.7 	"/>
</g>
<polygon class="st0" points="156.1,0 174.9,23.3 156.4,38.2 125.6,0 105.2,0 144.1,48.2 125.6,63.2 95.7,26.2 83.4,36.1 123.2,85.5 
	197.1,25.6 176.5,0 "/>
<g>
	<polygon class="st0" points="360,227.7 346.4,210.8 334.1,220.8 360,252.9 	"/>
	<polygon class="st0" points="360,290.8 335.5,260.4 323.2,270.4 353,307.4 334.5,322.4 294.7,273 282.4,283 332.2,344.7 360,322.2 
			"/>
</g>
</svg>
