<?xml version="1.0" encoding="utf-8"?>
<!-- Generator: Adobe Illustrator 24.3.0, SVG Export Plug-In . SVG Version: 6.00 Build 0)  -->
<svg version="1.1" id="Camada_1" xmlns="http://www.w3.org/2000/svg" xmlns:xlink="http://www.w3.org/1999/xlink" x="0px" y="0px"
	 width="550px" height="640px" viewBox="0 0 550 640" style="enable-background:new 0 0 550 640;" xml:space="preserve">
<style type="text/css">
	.st0{fill:#292930;}
</style>
<polygon class="st0" points="119.1,511 138.4,515.9 143.3,496.6 124,491.7 "/>
<polygon class="st0" points="71.3,498.5 90.5,503.4 115,407 143.6,414.6 128.9,472.5 148.2,477.4 167.7,400.2 52.1,370.9 
	27.6,467.3 46.9,472.2 66.5,395.1 95.7,402.2 "/>
<polygon class="st0" points="249.9,441.3 230.7,436.4 211.1,513.5 181.8,506.4 206.3,410 187,405.1 157.7,520.8 273.3,550.1 
	293.6,472.5 274.3,467.6 259,526 230.4,518.4 "/>
<polygon class="st0" points="303.4,434 298.5,453.2 279.2,448.4 284.1,429.1 "/>
<polygon class="st0" points="394.6,559.7 365.3,552.6 380,494.8 360.7,489.9 346,547.7 317.5,540.1 337,463 317.7,458.1 292.6,555 
	409,583.9 438.3,468.2 419,463.3 "/>
<polygon class="st0" points="389.8,456.2 384.9,475.5 365.6,470.6 370.5,451.3 "/>
<polygon class="st0" points="106.3,240.4 87,235.5 82.1,254.7 101.4,259.6 "/>
<polygon class="st0" points="154.1,252.8 134.8,247.9 110.4,344.3 81.1,337.2 96.5,278.9 76.5,274.5 57,351.6 173.3,380.5 
	197.8,284.1 178.5,279.2 158.9,356.3 129.7,349.2 "/>
<polygon class="st0" points="284.2,306.3 264.9,301.4 245.3,378.6 216.8,371 241.2,274.6 221.9,269.7 192.6,385.4 308.2,414.7 
	327.8,337.6 308.5,332.7 293.9,390.5 264.6,383.4 "/>
<polygon class="st0" points="337.6,299 332.7,318.3 313.4,313.4 318.3,294.1 "/>
<polygon class="st0" points="371.2,328.1 400.5,335.2 385.2,393.5 404.4,398.4 419.8,340.1 448.4,347.6 428.8,424.7 448.1,429.6 
	472.5,333.3 356.9,303.9 327.5,419.6 346.8,424.5 "/>
<polygon class="st0" points="375.4,432.1 380.3,412.8 399.5,417.7 394.7,436.9 "/>
<polygon class="st0" points="445.3,38.4 426,33.5 421.1,52.8 440.4,57.7 "/>
<polygon class="st0" points="493.1,50.9 473.8,46 449.4,142.4 420.1,135.3 435.5,77 416.2,72.1 396,149.7 512.3,178.5 536.8,82.1 
	517.5,77.3 497.9,154.4 468.7,147.3 "/>
<polygon class="st0" points="314.5,108.2 333.7,113.1 353.3,35.9 382.6,43 357.4,139.9 376.7,144.8 406.7,28.6 290.4,-0.2 
	270.8,76.9 290.1,81.8 304.8,24 334,31.1 "/>
<polygon class="st0" points="261,115.5 265.9,96.2 285.2,101.1 280.3,120.4 "/>
<polygon class="st0" points="410.4,173.9 391.1,169 386.2,188.3 405.5,193.1 "/>
<polygon class="st0" points="458.9,185.8 439.6,180.9 415.2,277.3 385.9,270.3 400.6,212.4 381.3,207.5 361.8,284.6 477.4,314 
	501.9,217.6 482.6,212.7 463,289.8 434.5,282.2 "/>
<polygon class="st0" points="319.1,170.9 299.8,166 280.2,243.1 251,236 275.4,139.6 256.1,134.8 226.8,250.4 342.5,279.7 
	362,202.6 342.8,197.8 328.1,255.6 299.5,248 "/>
<polygon class="st0" points="371.8,164.1 366.9,183.4 347.6,178.5 352.5,159.2 "/>
<polygon class="st0" points="135.6,124.7 164.2,132.3 149.5,190.1 168.8,195 183.4,137.2 212.7,144.2 193.1,221.4 212.4,226.2 
	236.9,129.9 121.2,100.5 91.9,216.2 111.1,221.1 "/>
<polygon class="st0" points="139.7,228.7 144.6,209.4 163.9,214.3 159,233.6 "/>
<g>
	<polygon class="st0" points="457.2,542.7 460.5,543.5 461.4,540.2 458.1,539.4 	"/>
	<polygon class="st0" points="449.1,540.5 452.4,541.4 456.5,524.9 461.4,526.2 458.9,536.1 462.2,536.9 465.6,523.8 445.8,518.7 
		441.6,535.2 444.9,536 448.2,522.9 453.2,524.1 	"/>
	<polygon class="st0" points="479.6,530.8 476.3,529.9 473,543.1 468,541.9 472.1,525.4 468.8,524.6 463.8,544.3 483.6,549.4 
		487.1,536.1 483.8,535.3 481.1,545.2 476.3,543.9 	"/>
	<polygon class="st0" points="488.7,529.5 487.9,532.8 484.6,532 485.4,528.7 	"/>
	<polygon class="st0" points="504.3,551 499.3,549.8 501.8,539.9 498.5,539.1 496,548.9 491.1,547.7 494.5,534.5 491.2,533.6 
		486.9,550.2 506.8,555.1 511.8,535.4 508.5,534.5 	"/>
	<polygon class="st0" points="503.5,533.3 502.7,536.6 499.4,535.8 500.2,532.5 	"/>
	<polygon class="st0" points="455,496.4 451.8,495.6 450.9,498.9 454.2,499.7 	"/>
	<polygon class="st0" points="463.2,498.6 459.9,497.7 455.8,514.2 450.8,513 453.4,503 450,502.3 446.6,515.4 466.5,520.4 
		470.7,503.9 467.4,503.1 464,516.2 459,515 	"/>
	<polygon class="st0" points="485.4,507.7 482.2,506.9 478.8,520 473.9,518.7 478.1,502.3 474.8,501.4 469.8,521.2 489.6,526.2 
		492.9,513 489.6,512.2 487.1,522.1 482.1,520.9 	"/>
	<polygon class="st0" points="494.6,506.5 493.7,509.8 490.4,508.9 491.3,505.6 	"/>
	<polygon class="st0" points="500.3,511.4 505.3,512.6 502.7,522.6 506,523.4 508.6,513.5 513.5,514.8 510.2,527.9 513.5,528.8 
		517.6,512.3 497.9,507.3 492.9,527.1 496.1,527.9 	"/>
	<polygon class="st0" points="501,529.2 501.9,525.9 505.2,526.7 504.3,530 	"/>
	<polygon class="st0" points="513,461.9 509.7,461.1 508.8,464.4 512.1,465.2 	"/>
	<polygon class="st0" points="521.1,464.1 517.9,463.2 513.7,479.7 508.7,478.5 511.3,468.5 508,467.7 504.6,480.9 524.4,485.9 
		528.6,469.4 525.3,468.6 522,481.7 517,480.5 	"/>
	<polygon class="st0" points="490.6,473.8 493.9,474.7 497.3,461.5 502.3,462.7 498,479.3 501.3,480.1 506.4,460.3 486.5,455.3 
		483.2,468.5 486.5,469.3 489,459.5 494,460.7 	"/>
	<polygon class="st0" points="481.5,475.1 482.3,471.8 485.6,472.6 484.8,475.9 	"/>
	<polygon class="st0" points="475.7,470.1 470.9,468.8 473.4,459 470.1,458.1 467.6,468 462.6,466.8 465.9,453.6 462.6,452.8 
		458.4,469.2 478.2,474.3 483.2,454.5 479.9,453.7 	"/>
	<polygon class="st0" points="475,452.4 474.2,455.7 470.9,454.8 471.7,451.5 	"/>
	<polygon class="st0" points="507,485.1 503.7,484.2 502.9,487.5 506.2,488.4 	"/>
	<polygon class="st0" points="515.3,487.1 512,486.3 507.8,502.8 502.8,501.5 505.3,491.7 502,490.8 498.7,504 518.5,509 
		522.6,492.5 519.3,491.7 516,504.9 511.1,503.6 	"/>
	<polygon class="st0" points="491.4,484.6 488.1,483.7 484.8,496.9 479.8,495.7 484,479.2 480.7,478.4 475.6,498.2 495.4,503.2 
		498.8,490 495.5,489.2 493,499 488.1,497.7 	"/>
	<polygon class="st0" points="500.4,483.4 499.6,486.7 496.3,485.9 497.1,482.6 	"/>
	<polygon class="st0" points="460.1,476.7 464.9,478 462.4,487.8 465.7,488.7 468.2,478.8 473.2,480 469.9,493.2 473.2,494 
		477.4,477.6 457.6,472.5 452.6,492.3 455.9,493.1 	"/>
	<polygon class="st0" points="460.8,494.4 461.6,491.1 464.9,492 464.1,495.3 	"/>
</g>
<g>
	<polygon class="st0" points="72.8,551.8 72,555.1 75.3,556 76.1,552.7 	"/>
	<polygon class="st0" points="75,543.7 74.2,546.9 90.6,551.2 89.3,556.1 79.4,553.5 78.6,556.8 91.7,560.2 96.8,540.5 80.4,536.2 
		79.5,539.5 92.7,542.9 91.5,547.9 	"/>
	<polygon class="st0" points="84.7,574.2 85.5,570.9 72.3,567.5 73.6,562.5 90,566.8 90.9,563.5 71.1,558.4 66,578.1 79.3,581.7 
		80.1,578.4 70.2,575.7 71.5,570.8 	"/>
	<polygon class="st0" points="85.9,583.4 82.6,582.5 83.4,579.2 86.7,580.1 	"/>
	<polygon class="st0" points="64.3,598.8 65.5,593.9 75.4,596.4 76.3,593.1 66.4,590.6 67.7,585.7 80.9,589.1 81.7,585.8 
		65.2,581.4 60.2,601.3 79.9,606.4 80.8,603.1 	"/>
	<polygon class="st0" points="82,598.1 78.7,597.3 79.6,594 82.8,594.8 	"/>
	<polygon class="st0" points="119.1,549.8 119.9,546.5 116.7,545.7 115.8,549 	"/>
	<polygon class="st0" points="116.9,558 117.8,554.7 101.3,550.5 102.6,545.5 112.5,548.1 113.3,544.7 100.1,541.3 95.1,561.2 
		111.6,565.4 112.4,562.1 99.2,558.7 100.5,553.7 	"/>
	<polygon class="st0" points="107.7,580.2 108.5,576.9 95.4,573.5 96.7,568.6 113.1,572.9 114,569.6 94.3,564.5 89.2,584.2 
		102.3,587.6 103.2,584.3 93.3,581.8 94.5,576.8 	"/>
	<polygon class="st0" points="108.9,589.3 105.6,588.5 106.5,585.2 109.7,586 	"/>
	<polygon class="st0" points="103.9,595 102.7,600 92.7,597.4 91.9,600.7 101.8,603.3 100.5,608.2 87.3,604.8 86.5,608.1 
		102.9,612.3 108,592.6 88.3,587.5 87.5,590.8 	"/>
	<polygon class="st0" points="86.1,595.7 89.4,596.5 88.6,599.8 85.3,599 	"/>
	<polygon class="st0" points="153.3,607.9 154.2,604.6 150.9,603.8 150,607.1 	"/>
	<polygon class="st0" points="151.2,616.1 152,612.8 135.6,608.5 136.8,603.5 146.8,606.2 147.6,602.9 134.4,599.4 129.3,619.3 
		145.8,623.5 146.6,620.2 133.5,616.8 134.7,611.8 	"/>
	<polygon class="st0" points="141.5,585.5 140.7,588.8 153.8,592.2 152.6,597.2 136.1,592.8 135.2,596.1 155,601.3 160.1,581.5 
		146.9,578.1 146,581.4 155.9,583.9 154.7,588.9 	"/>
	<polygon class="st0" points="140.3,576.4 143.6,577.2 142.8,580.5 139.5,579.7 	"/>
	<polygon class="st0" points="145.3,570.6 146.6,565.8 156.5,568.3 157.3,565 147.5,562.5 148.7,557.5 161.9,560.9 162.7,557.6 
		146.3,553.3 141.2,573.1 160.9,578.2 161.8,574.9 	"/>
	<polygon class="st0" points="163.1,570 159.8,569.2 160.6,565.9 163.9,566.7 	"/>
	<polygon class="st0" points="130.2,601.8 131.1,598.5 127.8,597.7 126.9,601 	"/>
	<polygon class="st0" points="128.1,610.1 129,606.8 112.5,602.6 113.8,597.6 123.6,600.1 124.5,596.8 111.3,593.4 106.2,613.2 
		122.7,617.4 123.5,614.1 110.4,610.7 111.7,605.9 	"/>
	<polygon class="st0" points="130.8,586.2 131.7,583 118.5,579.6 119.7,574.6 136.2,578.8 137,575.5 117.3,570.4 112.2,590.2 
		125.3,593.6 126.2,590.3 116.3,587.7 117.6,582.8 	"/>
	<polygon class="st0" points="131.9,595.3 128.6,594.4 129.5,591.1 132.8,592 	"/>
	<polygon class="st0" points="138.8,554.9 137.5,559.8 127.6,557.3 126.8,560.5 136.7,563.1 135.4,568.1 122.3,564.7 121.4,568 
		137.9,572.2 143,552.5 123.2,547.4 122.4,550.7 	"/>
	<polygon class="st0" points="121.1,555.6 124.4,556.4 123.5,559.7 120.2,558.8 	"/>
</g>
<polygon class="st0" points="249.3,-0.2 227.4,86.4 198.8,78.8 213.5,21 194.2,16.1 179.5,73.9 150.3,66.9 167.3,-0.2 146.7,-0.2 
	126.1,81.2 241.8,110.6 269.8,-0.2 "/>
</svg>
