<?xml version="1.0" encoding="utf-8"?>
<!-- Generator: Adobe Illustrator 24.3.0, SVG Export Plug-In . SVG Version: 6.00 Build 0)  -->
<svg version="1.1" id="Camada_1" xmlns="http://www.w3.org/2000/svg" xmlns:xlink="http://www.w3.org/1999/xlink" x="0px" y="0px"
	 width="400px" height="450px" viewBox="0 0 400 450" style="enable-background:new 0 0 400 450;" xml:space="preserve">
<style type="text/css">
	.st0{fill:#27272E;}
</style>
<g>
	<g>
		<g>
			<polygon class="st0" points="194.7,409.5 207.2,405.1 202.6,392.7 190.2,397.1 			"/>
			<polygon class="st0" points="162.8,421.6 176.1,417.1 153,352.7 171.8,346.4 185.9,384.5 198.3,379.4 180.4,329.1 103,356.3 
				126.7,420.2 138.7,415.5 121.1,364.7 140.1,357.5 			"/>
			<polygon class="st0" points="242.8,321.2 229.5,325.6 247.8,376.3 228.9,383.5 205.8,319 193.3,324.2 220.9,401.2 297.4,373.2 
				279,322.4 266.1,326.4 280.1,365.5 260.4,371.8 			"/>
			<polygon class="st0" points="269.7,296.2 274.1,308.8 261.2,313.5 256.9,301.1 			"/>
			<polygon class="st0" points="369.4,332.7 350.5,339.8 336.6,301.6 323.6,305.6 337.7,344.7 318,351.1 300.3,300.2 287.5,305.2 
				309.8,368.7 387.2,341.5 359.6,264.7 347,269 			"/>
			<polygon class="st0" points="327.3,275.4 332.6,288.7 318.8,292.8 314.5,280.2 			"/>
			<polygon class="st0" points="84.3,262.5 71.9,266.8 76.2,279.2 88.7,274.9 			"/>
			<polygon class="st0" points="116.1,250.4 103.2,255.2 126.5,319.6 106.7,326 93.5,287.8 80.6,292.5 98.6,343 175.9,315.7 
				152.8,252.1 140.3,256.5 157.9,307.2 139.4,314.9 			"/>
			<polygon class="st0" points="210.3,231.3 197.9,235.7 215.9,286.8 196.9,294.1 173.7,229.6 160.8,234.4 188.4,311.4 264.9,283.3 
				247.4,232.6 234.5,237.3 248.1,275.2 229.2,282.4 			"/>
			<polygon class="st0" points="237.3,206.5 242.5,219.7 229.2,224.1 224.4,211.3 			"/>
			<polygon class="st0" points="267.9,210.5 286.9,203.3 301.2,241.9 313.8,237.5 300.2,199 319.5,192 337.1,242.8 350.8,238.8 
				327.6,174.4 251,202.3 277.8,278.5 290.7,274.5 			"/>
			<polygon class="st0" points="310,267.8 306.1,254.7 318.1,250.1 322.4,262.5 			"/>
			<polygon class="st0" points="199.4,18.4 186.6,23.2 191.5,36 204,30.8 			"/>
			<polygon class="st0" points="231.7,6.7 218.8,11.6 241.2,75.2 222.3,82.4 208.3,43.3 195.4,48.1 214.2,100.1 290.8,72.1 
				267.5,7.7 254.7,12.4 273.9,64 254.1,70.4 			"/>
			<polygon class="st0" points="152.2,107.6 164.8,103.2 146.7,52 165.6,44.9 188,108.5 201.8,104.4 174.1,27.5 97.2,55.1 
				115.3,106.3 128.6,101.9 114.6,63.6 133.5,56.5 			"/>
			<polygon class="st0" points="124.4,131.7 120.1,119.2 132.5,114 137,127.3 			"/>
			<polygon class="st0" points="94.6,128.4 75.4,135.2 61.3,96.9 48.8,101.2 62.4,140.1 43.1,146.7 25.1,95.6 11.7,100.1 35,164.5 
				111.5,136.5 84.3,60 71.9,64.4 			"/>
			<polygon class="st0" points="52.5,71.2 56.5,84.1 44,88.4 39.6,76 			"/>
			<polygon class="st0" points="231.5,107.8 218.6,112.5 223.4,125.4 235.8,120.3 			"/>
			<polygon class="st0" points="263.3,96.5 250.5,100.6 273.6,164.9 254.3,171.9 240.3,133.6 227.9,138 246.3,189.4 323.2,161.9 
				299.9,97.5 287.1,102.2 305.5,153.9 285.7,160.3 			"/>
			<polygon class="st0" points="178.3,141.1 165.9,146.3 183.4,197 164.5,204.3 141.3,139.8 128.8,144.2 156.8,221.5 232.9,193.9 
				214.9,142.8 202.4,147.1 216.1,185.9 196.7,192.6 			"/>
			<polygon class="st0" points="206.1,116.9 210.6,130.3 198.1,134.7 192.8,121.3 			"/>
			<polygon class="st0" points="57.1,185.1 75.6,178.3 90.1,217 103,212.1 88.9,173.9 108.3,167.1 125.8,217.8 139.1,213.4 
				116.3,149.3 39.4,177 66.6,253.5 79.9,249.1 			"/>
			<polygon class="st0" points="99.2,242.3 94.4,229.4 107,225.1 111.3,237.5 			"/>
		</g>
	</g>
</g>
<g>
	<g>
		<g>
			<polygon class="st0" points="345.4,11.1 342.3,12 343.4,15 346.5,14 			"/>
			<polygon class="st0" points="353.2,8.4 350,9.3 355,25 350.4,26.3 347.4,17.1 344.2,18.2 348.3,30.6 367,24.5 361.9,9 358.9,9.9 
				362.7,22.4 358.2,24 			"/>
			<polygon class="st0" points="333.1,32 336.4,30.9 332.4,18.6 337,17 342.1,32.8 345.2,31.6 339.1,12.8 320.4,18.9 324.4,31.4 
				327.6,30.4 324.5,21.1 329.3,19.6 			"/>
			<polygon class="st0" points="326.3,37.7 325.5,34.7 328.6,33.7 329.5,36.7 			"/>
			<polygon class="st0" points="302.7,28.1 307.3,26.6 310.3,35.9 313.5,35.1 310.5,25.5 315.3,24.2 319.1,36.5 322.3,35.4 
				317.3,19.9 298.5,25.9 304.5,44.6 307.6,43.7 			"/>
			<polygon class="st0" points="312.3,42.3 311.3,39.1 314.6,38.1 315.6,41.2 			"/>
			<polygon class="st0" points="370.9,47.4 373.9,46.5 373,43.4 369.9,44.3 			"/>
			<polygon class="st0" points="363.2,50 366.2,48.9 361.2,33.1 366,31.9 368.8,41.1 372,40 368,27.7 349.2,33.8 354.4,49.2 
				357.5,48.3 353.4,36 358,34.3 			"/>
			<polygon class="st0" points="340.3,53.8 343.3,52.9 339.4,40.4 343.9,38.8 349,54.6 352.1,53.5 346.2,34.8 327.6,40.9 
				331.4,53.2 334.6,52.3 331.6,43 336.2,41.3 			"/>
			<polygon class="st0" points="333.5,59.6 332.3,56.4 335.7,55.3 336.7,58.6 			"/>
			<polygon class="st0" points="326.3,58.5 321.5,59.9 318.5,50.6 315.5,51.5 318.5,61 313.6,62.4 309.8,50.1 306.6,50.9 
				311.6,66.6 330.2,60.4 324.3,42 321.3,42.8 			"/>
			<polygon class="st0" points="316.5,44.3 317.3,47.5 314.5,48.5 313.4,45.5 			"/>
			<polygon class="st0" points="341.2,105.3 344.4,104.2 343.3,101 340.3,102.2 			"/>
			<polygon class="st0" points="333.4,107.7 336.5,106.8 331.6,91.1 336.2,89.6 339.3,99.2 342.5,98.1 338.3,85.3 319.6,91.4 
				324.7,107.2 327.8,106.2 323.6,93.7 328.4,92.2 			"/>
			<polygon class="st0" points="353.4,84.2 350.3,85 354.1,97.5 349.6,99.1 344.6,83.6 341.4,84.5 347.4,103.3 366.1,97.2 
				362.2,84.7 359,85.7 361.9,94.9 357.3,96.7 			"/>
			<polygon class="st0" points="360.1,78.6 361.2,81.5 358.1,82.7 357.1,79.5 			"/>
			<polygon class="st0" points="367.4,79.6 372,78.1 375.1,87.5 378.2,86.5 375.2,77 380,75.5 383.8,88 387,87 381.9,71.4 
				363.3,77.5 369.3,96.2 372.3,95.1 			"/>
			<polygon class="st0" points="377,93.8 376.2,90.6 379.3,89.5 380.2,92.5 			"/>
			<polygon class="st0" points="334.3,83.5 337.4,82.3 336.3,79.2 333.3,80.4 			"/>
			<polygon class="st0" points="326.5,85.9 329.5,85 324.5,69.3 329.1,67.8 332.3,77.2 335.3,76.2 331.3,63.7 312.5,69.6 
				317.7,85.4 320.8,84.3 316.7,71.9 321.4,70.4 			"/>
			<polygon class="st0" points="347.3,75.8 350.4,74.7 346.5,62.4 351.1,60.8 356.1,76.4 359.2,75.5 353.1,56.6 334.5,62.7 
				338.4,75.2 341.5,74.2 338.6,64.7 343.3,63.3 			"/>
			<polygon class="st0" points="340.4,81.5 339.4,78.2 342.4,77.3 343.7,80.5 			"/>
			<polygon class="st0" points="376.8,66.2 372.4,67.7 369.1,58.1 366,59.4 369,68.6 364.4,70.1 360.5,57.6 357.4,58.7 362.3,74.3 
				381,68.3 375.2,49.7 371.8,50.5 			"/>
			<polygon class="st0" points="367.2,52.1 368.1,55.3 365.2,56.2 364.1,53.2 			"/>
		</g>
	</g>
</g>
<g>
	<g>
		<g>
			<polygon class="st0" points="371.8,399.4 371.2,397.5 369.3,398.2 370,400.1 			"/>
			<polygon class="st0" points="373.7,404.2 373,402.2 363.4,405.7 362.4,402.8 368.1,400.8 367.4,398.8 359.7,401.6 363.9,413.2 
				373.5,409.6 372.8,407.8 365.1,410.4 364,407.7 			"/>
			<polygon class="st0" points="358.5,392.1 359.2,394.2 366.8,391.4 367.9,394.2 358.2,397.8 359,399.7 370.6,395.5 366.4,383.9 
				358.7,386.7 359.3,388.7 365.1,386.5 366.2,389.5 			"/>
			<polygon class="st0" points="354.8,388 356.6,387.5 357.4,389.4 355.5,390 			"/>
			<polygon class="st0" points="360.2,373.1 361.3,375.9 355.6,378 356.2,380 362,377.9 363,380.9 355.4,383.5 356.1,385.5 
				365.7,382 361.6,370.4 350,374.6 350.7,376.5 			"/>
			<polygon class="st0" points="351.6,379.4 353.6,378.7 354.3,380.7 352.4,381.4 			"/>
			<polygon class="st0" points="349.7,416.1 350.3,418 352.2,417.3 351.6,415.4 			"/>
			<polygon class="st0" points="347.9,411.3 348.6,413.2 358.4,409.7 359.3,412.7 353.6,414.6 354.3,416.6 361.9,413.8 357.7,402.3 
				348.2,405.8 348.8,407.7 356.4,404.9 357.6,407.7 			"/>
			<polygon class="st0" points="345,397.1 345.7,399 353.3,396.3 354.5,399 344.7,402.6 345.5,404.5 357,400.4 352.8,388.9 
				345.2,391.5 345.9,393.5 351.6,391.4 352.8,394.3 			"/>
			<polygon class="st0" points="341.2,393 343.2,392.2 344,394.2 342,395 			"/>
			<polygon class="st0" points="341.8,388.5 340.8,385.5 346.6,383.5 345.9,381.6 340,383.6 339.1,380.6 346.7,378 346.1,376 
				336.4,379.4 340.7,390.9 352.1,386.9 351.5,385 			"/>
			<polygon class="st0" points="350.5,382 348.5,382.6 347.8,380.9 349.6,380.1 			"/>
			<polygon class="st0" points="312.9,398.8 313.6,400.8 315.6,400 314.8,398.1 			"/>
			<polygon class="st0" points="311.2,393.9 311.8,395.9 321.5,392.5 322.6,395.3 316.7,397.5 317.4,399.5 325.3,396.6 321.1,385 
				311.3,388.5 312.1,390.4 319.7,387.5 320.8,390.5 			"/>
			<polygon class="st0" points="326.3,405.9 325.7,404 318.1,406.7 316.9,403.9 326.5,400.4 325.9,398.5 314.3,402.6 318.5,414.2 
				326.2,411.4 325.5,409.4 319.8,411.5 318.6,408.7 			"/>
			<polygon class="st0" points="330,410 328.2,410.8 327.4,408.9 329.3,408.1 			"/>
			<polygon class="st0" points="329.5,414.6 330.5,417.4 324.7,419.6 325.4,421.5 331.3,419.4 332.3,422.3 324.6,425 325.3,427 
				335,423.5 330.7,412 319.2,416.1 319.9,418 			"/>
			<polygon class="st0" points="320.9,420.9 322.9,420.3 323.6,422.2 321.7,422.9 			"/>
			<polygon class="st0" points="326.4,394 327.2,395.9 329.1,395.1 328.3,393.3 			"/>
			<polygon class="st0" points="324.7,389.2 325.3,391.1 335,387.6 336,390.4 330.2,392.6 330.9,394.5 338.7,391.7 334.5,380.1 
				324.8,383.7 325.5,385.6 333.2,382.7 334.2,385.7 			"/>
			<polygon class="st0" points="331.4,402 332.2,403.9 339.8,401.1 340.9,404 331.2,407.5 331.9,409.4 343.6,405.1 339.3,393.7 
				331.6,396.4 332.3,398.3 338.2,396.3 339.1,399.2 			"/>
			<polygon class="st0" points="327.8,397.8 329.7,397 330.4,398.9 328.4,399.8 			"/>
			<polygon class="st0" points="338.1,420.2 337.1,417.4 342.9,415.2 342.1,413.3 336.4,415.4 335.4,412.5 343.1,409.8 342.3,407.9 
				332.7,411.3 336.9,422.8 348.4,418.8 347.8,416.7 			"/>
			<polygon class="st0" points="346.7,413.9 344.7,414.5 344.1,412.7 345.9,412 			"/>
		</g>
	</g>
</g>
<g>
	<g>
		<g>
			<polygon class="st0" points="58.8,335.2 55.6,336.3 56.6,339.5 59.9,338.4 			"/>
			<polygon class="st0" points="67,332.2 63.7,333.4 69.1,349.8 64.3,351.3 60.9,341.7 57.8,342.8 61.9,355.6 81.6,349.3 76.1,333 
				73.1,334 77.1,346.9 72.5,348.7 			"/>
			<polygon class="st0" points="46.2,357.2 49.6,356.3 45.2,343.4 50,341.5 55.5,358 58.6,356.8 52.1,337.2 32.6,343.9 37,356.8 
				40.3,355.9 36.9,345.9 42,344.4 			"/>
			<polygon class="st0" points="39.2,363.4 38.3,360.3 41.3,359.1 42.4,362.3 			"/>
			<polygon class="st0" points="14.2,353.7 18.9,351.9 22.3,361.7 25.7,360.8 22.3,350.8 27.4,349.3 31.5,362.2 34.8,361.1 
				29.5,345 9.7,351.4 16.3,370.9 19.5,370 			"/>
			<polygon class="st0" points="24.5,368.5 23.3,365 26.7,364 27.7,367.2 			"/>
			<polygon class="st0" points="85.9,373 89.2,372 88.1,368.8 84.9,369.9 			"/>
			<polygon class="st0" points="77.7,375.9 81,374.7 75.6,358.3 80.6,356.9 83.6,366.5 86.9,365.5 82.8,352.6 63.1,359 68.5,375.3 
				71.6,374.3 67.6,361.3 72.2,359.4 			"/>
			<polygon class="st0" points="53.8,380.2 57.1,379.2 52.7,366.2 57.6,364.4 63.1,380.8 66.4,379.7 59.9,360 40.3,366.7 
				44.5,379.7 47.8,378.6 44.6,368.8 49.3,367.2 			"/>
			<polygon class="st0" points="46.8,386.3 45.7,383 49,381.9 50.2,385.2 			"/>
			<polygon class="st0" points="39.1,385.1 34.3,386.8 31,377 27.7,378 31,388 26.1,389.5 21.8,376.6 18.4,377.5 23.8,393.9 
				43.4,387.3 37.1,367.9 33.8,368.8 			"/>
			<polygon class="st0" points="28.8,370.4 29.7,373.8 26.7,374.9 25.7,371.6 			"/>
			<polygon class="st0" points="55.4,434.2 58.6,432.9 57.6,429.7 54.4,430.9 			"/>
			<polygon class="st0" points="47.1,436.9 50.4,435.8 45.1,419.6 49.9,417.8 53.3,427.8 56.6,426.6 52.2,413.3 32.6,420 
				38.1,436.5 41.4,435.3 36.9,422.1 41.9,420.7 			"/>
			<polygon class="st0" points="67.8,411.8 64.6,412.9 68.9,425.9 64,427.6 58.8,411.4 55.2,412.3 61.9,431.8 81.5,425.4 
				77.3,412.4 73.9,413.4 77.2,423 72.3,424.9 			"/>
			<polygon class="st0" points="75,405.8 76.1,409.1 72.9,410.3 71.9,406.9 			"/>
			<polygon class="st0" points="82.4,406.8 87.4,405.2 90.8,415 94,413.9 90.8,404.2 95.7,402.5 99.9,415.6 103.3,414.6 97.7,398 
				78.3,404.9 84.8,424.2 87.9,423.3 			"/>
			<polygon class="st0" points="92.8,421.6 91.9,418.3 95.1,417.2 96.2,420.4 			"/>
			<polygon class="st0" points="47.8,411.3 51.2,410.2 49.9,407 46.8,408.2 			"/>
			<polygon class="st0" points="39.7,414 43,413 37.5,396.6 42.5,395 45.7,404.8 48.8,403.8 44.5,390.6 24.9,397.2 30.4,413.6 
				33.7,412.5 29.2,399.2 34.4,397.8 			"/>
			<polygon class="st0" points="61.4,403.2 64.6,402.1 60.5,389 65.3,387.3 70.8,403.7 74,402.6 67.3,383 47.9,389.5 52.2,402.6 
				55.4,401.6 52.1,391.7 57.1,390.1 			"/>
			<polygon class="st0" points="54.2,409.2 53.2,405.7 56.4,404.7 57.6,408.1 			"/>
			<polygon class="st0" points="92.3,392.7 87.5,394.3 84.2,384.5 80.9,385.6 84.1,395.4 79.4,397 75.1,384.1 71.8,385.1 
				77.2,401.4 96.8,395 90.3,375.4 86.9,376.4 			"/>
			<polygon class="st0" points="82,378.1 83.2,381.3 80,382.4 78.9,379.1 			"/>
		</g>
	</g>
</g>
</svg>
