<?xml version="1.0" encoding="utf-8"?>
<!-- Generator: Adobe Illustrator 24.3.0, SVG Export Plug-In . SVG Version: 6.00 Build 0)  -->
<svg version="1.1" id="Camada_1" xmlns="http://www.w3.org/2000/svg" xmlns:xlink="http://www.w3.org/1999/xlink" x="0px" y="0px"
	 width="300px" height="550px" viewBox="0 0 300 550" style="enable-background:new 0 0 300 550;" xml:space="preserve">
<style type="text/css">
	.st0{fill:#2B2B32;}
</style>
<g>
	<g>
		<polygon class="st0" points="236.3,119.8 224.3,118 222.5,130 234.5,131.9 		"/>
		<polygon class="st0" points="267.3,124 254.6,121.8 245.2,184.1 227.2,181 232.5,144 220.2,142.7 212.7,191.2 287.3,203.1 
			296,140.9 284.2,139.6 276.3,188.3 257.8,185.9 		"/>
		<polygon class="st0" points="158.7,170.4 171.4,172.6 178.7,123.6 197.2,126 187.8,188.3 200.1,189.6 211.5,115.2 137.3,104.4 
			130,153.5 142.1,155.9 147.9,118.1 166.6,121.7 		"/>
		<polygon class="st0" points="126,178.8 128,166.7 140.5,168.5 138.5,180.5 		"/>
		<polygon class="st0" points="61.2,105.6 79.6,108.1 74.2,145.2 86.5,147.6 92.1,109.8 110.9,113.3 103,162.2 115.5,163.8 
			125.2,102.6 50.7,90.7 39.4,165 51.5,167 		"/>
		<polygon class="st0" points="70.3,170.5 71.8,157.3 84.8,160.1 82.8,172.2 		"/>
		<polygon class="st0" points="261.3,287.2 273.3,289.1 275.2,277.1 263.3,275.2 		"/>
		<polygon class="st0" points="230.3,283 242.9,284.8 252.2,222.5 271,226 265,262.7 277.5,264.5 285,215.8 210.5,204 201.4,265.6 
			213.4,267.6 221.4,218.8 239.7,220.7 		"/>
		<polygon class="st0" points="145.7,257.3 157.7,259.2 165.5,210 184,212.3 174.6,274.7 187.1,276.4 198.4,202 124.3,191.3 
			116.3,240.1 128.8,241.9 134.3,205.2 152.8,207.7 		"/>
		<polygon class="st0" points="113,265.6 114.5,252.6 127.2,254.9 125.5,267.4 		"/>
		<polygon class="st0" points="90,249 71.5,246.5 76.7,209 64.7,207.1 58.8,244.2 40.1,241.4 48.1,192.5 35.3,189.8 25.9,252.1 
			100.1,263 111.7,189.6 99.6,187.2 		"/>
		<polygon class="st0" points="80.9,184.2 78.4,196.5 66.6,195 68.6,183 		"/>
		<polygon class="st0" points="61.4,434.5 73.9,436.1 75.6,423.7 63.2,422.4 		"/>
		<polygon class="st0" points="30.2,429.8 42.8,431.5 52.4,370.2 70.9,372.6 65.1,410.4 77.7,412.2 85.1,361.8 10.9,351 1.6,413.4 
			14.1,415.1 21.1,365 39.9,368.4 		"/>
		<polygon class="st0" points="138.7,382.9 126.5,380.9 118.8,430.3 100.4,427.8 110.1,366.5 97.1,363.8 85.9,438.1 160.2,449.4 
			168,400.1 155.3,397.9 149.9,435 131.5,432.5 		"/>
		<polygon class="st0" points="171.7,375.5 169.7,387.5 157.4,386.4 159.6,373.6 		"/>
		<polygon class="st0" points="194.4,391.2 213,394.1 207.6,431.3 219.6,433.2 225.6,395.9 244.1,398.9 236.3,448.1 249.1,450.4 
			258.4,388.1 184.2,377.3 172.8,451.1 184.8,453 		"/>
		<polygon class="st0" points="203.5,456 205.9,443.8 217.9,445.7 216,457.7 		"/>
		<polygon class="st0" points="74.6,348 87.1,349.9 88.8,337.3 76.5,336.1 		"/>
		<polygon class="st0" points="43.9,343.3 56.1,345.6 65.4,283.4 84.1,286.2 78.7,323.3 90.6,325.2 98.3,275.5 24,264.1 14.7,326.5 
			27.1,328.3 34.8,278.4 53.6,281.9 		"/>
		<polygon class="st0" points="132.2,344.3 144.5,345.6 152.5,296.8 171,299.2 161.6,361.6 173.6,363.4 184.7,288.7 111.1,277.7 
			103.3,326.9 115.3,328.9 121.1,291.6 139.8,294.6 		"/>
		<polygon class="st0" points="99.1,351.8 101.3,339 113.4,340.9 111.8,354 		"/>
		<polygon class="st0" points="249.6,361.8 231.6,359.2 236.8,321.5 224.2,319.8 218.9,356.9 200.3,353.9 208.2,305.2 195.5,303 
			185.9,364.8 260.3,376 271.8,302.2 259.1,300 		"/>
		<polygon class="st0" points="240.5,297 238.7,309.5 226.7,307.6 228.6,295.6 		"/>
	</g>
</g>
<g>
	<g>
		<polygon class="st0" points="246.5,81 247.1,77.6 243.8,77.3 243.3,80.6 		"/>
		<polygon class="st0" points="245.5,89.6 246.1,86.1 228.9,83.6 229.8,78.6 239.9,80.1 240.4,76.5 226.7,74.6 223.8,95.2 
			240.8,97.5 241.3,94.3 227.8,92.1 228.3,87.1 		"/>
		<polygon class="st0" points="232.5,59.6 231.9,63.2 245.5,65.1 244.9,70.2 227.5,67.8 227.2,71.2 247.8,74.2 250.7,53.6 
			237.1,51.7 236.5,55.2 246.8,56.6 246,61.8 		"/>
		<polygon class="st0" points="230.2,50.5 233.4,51.1 233,54.6 229.6,54 		"/>
		<polygon class="st0" points="250.3,32.6 249.5,37.7 239.4,36.2 238.7,39.7 249.1,41.3 248.1,46.4 234.7,44.2 234.3,47.8 
			251.3,50.3 254.4,29.8 233.9,26.7 233.3,30 		"/>
		<polygon class="st0" points="232.4,35.2 235.9,35.6 235.3,39.3 231.9,38.7 		"/>
		<polygon class="st0" points="200.3,88.1 199.8,91.5 203.1,92 203.7,88.7 		"/>
		<polygon class="st0" points="201.5,79.7 201,83.1 218.3,85.7 217.3,90.7 207.2,89.1 206.7,92.7 220.3,94.6 223.2,74 206.3,71.7 
			205.7,75.1 219.3,76.9 218.7,82.1 		"/>
		<polygon class="st0" points="208.5,56.2 207.9,59.6 221.5,61.6 221,66.6 203.7,64.2 203.3,67.6 223.8,70.6 226.6,50.2 213.2,48.1 
			212.6,51.6 222.7,53 222.3,58.2 		"/>
		<polygon class="st0" points="206.1,47.1 209.7,47.5 209.2,51.2 205.7,50.7 		"/>
		<polygon class="st0" points="210.6,40.8 211.4,35.6 221.7,37.2 222.2,33.8 211.8,32.2 212.8,27 226.2,29.1 227,25.7 209.8,23.2 
			206.9,43.6 227.1,46.7 227.8,43.4 		"/>
		<polygon class="st0" points="228.6,38.2 225.1,37.5 225.6,34.4 228.8,34.7 		"/>
		<polygon class="st0" points="159.4,33.2 158.9,36.7 162.4,37.2 162.7,33.7 		"/>
		<polygon class="st0" points="160.7,24.6 160.2,28 177.2,30.6 176.5,35.7 166.1,34.2 165.6,37.8 179.6,39.7 182.5,19.1 165.2,16.7 
			164.8,20.1 178.5,21.9 177.7,27.1 		"/>
		<polygon class="st0" points="173.6,54.5 174.3,51.2 160.8,49 161.3,44 178.3,46.5 178.9,43 158.4,39.9 155.5,60.5 169.1,62.6 
			169.7,59.1 159.6,57.6 160,52.4 		"/>
		<polygon class="st0" points="175.9,63.5 172.6,63.2 172.8,59.7 176.4,60.1 		"/>
		<polygon class="st0" points="171.5,69.9 170.8,74.9 160.4,73.5 159.9,76.9 170.3,78.5 169.5,83.7 156,81.5 155.4,84.9 172.5,87.5 
			175.4,67 154.9,64 154.5,67.3 		"/>
		<polygon class="st0" points="153.6,72.4 157,73.1 156.6,76.5 153.3,76 		"/>
		<polygon class="st0" points="183.2,36.8 182.9,40.2 186.4,40.6 186.6,37.3 		"/>
		<polygon class="st0" points="184.5,28.2 184,31.6 201.2,34.1 200.4,39.2 190.1,37.8 189.6,41.1 203.4,43.1 206.4,22.6 189.1,20.1 
			188.7,23.6 202.4,25.5 201.6,30.7 		"/>
		<polygon class="st0" points="184.4,52.7 184,56.1 197.5,58.1 196.9,63.2 179.7,60.7 179.2,64 199.9,67 202.8,46.6 189.2,44.5 
			188.6,47.9 199,49.6 198.1,54.6 		"/>
		<polygon class="st0" points="182.3,43.5 185.8,44 185.3,47.3 181.7,47 		"/>
		<polygon class="st0" points="179.8,85.1 180.5,80.1 191,81.5 191.3,78 181.1,76.5 181.9,71.5 195.5,73.5 195.9,70.1 178.9,67.5 
			175.9,88 196.2,91.2 197,87.6 		"/>
		<polygon class="st0" points="197.6,82.5 194.1,81.9 194.7,78.7 198,79.1 		"/>
	</g>
</g>
<g>
	<g>
		<polygon class="st0" points="40.5,467.6 40,470.9 43.3,471.6 43.9,468.2 		"/>
		<polygon class="st0" points="41.8,459 41.2,462.5 58.2,465.5 57.3,470.5 47.2,468.9 46.8,472.1 60,474.6 63.7,454.2 46.7,451.4 
			46.3,454.5 59.5,457 58.9,462 		"/>
		<polygon class="st0" points="53.9,489.2 54.7,485.7 41.3,483.5 41.9,478.4 59.1,481.3 59.4,478 39.1,474.4 35.8,494.8 49.2,497 
			50,493.7 39.6,491.9 40.7,486.8 		"/>
		<polygon class="st0" points="56.1,498.2 52.9,497.6 53.3,494.3 56.6,494.9 		"/>
		<polygon class="st0" points="35.7,515.6 36.4,510.6 46.6,512.3 47.4,508.9 37,507.2 38.1,502 51.3,504.4 51.9,501.1 35.2,498.1 
			31.5,518.5 51.8,521.9 52.5,518.7 		"/>
		<polygon class="st0" points="53.5,513.6 50,513 50.7,509.5 54,510.1 		"/>
		<polygon class="st0" points="86.6,461.7 87.3,458.3 83.9,457.8 83.4,461.1 		"/>
		<polygon class="st0" points="85.2,470.3 85.8,466.8 68.8,463.8 69.9,458.7 79.8,460.6 80.5,457.2 67.2,454.7 63.5,475.1 
			80.4,478.1 81,474.8 67.6,472.3 68.2,467.3 		"/>
		<polygon class="st0" points="77.7,493.3 78.4,490 65,487.6 65.6,482.5 82.7,485.5 83.2,482 62.9,478.5 59.5,498.8 72.9,501.3 
			73.5,497.8 63.4,496.1 64.2,491.1 		"/>
		<polygon class="st0" points="79.8,502.4 76.4,501.8 77,498.3 80.5,498.9 		"/>
		<polygon class="st0" points="75.1,508.6 74.3,513.6 64.1,511.9 63.5,515.2 73.8,517.1 72.8,522.1 59.4,519.8 58.7,523.2 
			75.7,526.2 79.1,505.9 59,502.2 58.3,505.6 		"/>
		<polygon class="st0" points="57.3,510.7 60.7,511.5 60.2,514.6 56.9,514 		"/>
		<polygon class="st0" points="126,517.5 126.4,514 123.1,513.4 122.7,516.8 		"/>
		<polygon class="st0" points="124.4,526 125.1,522.6 108.3,519.6 109,514.5 119.4,516.3 119.9,512.8 106.1,510.4 102.8,530.8 
			119.8,533.8 120.4,530.3 106.6,528.1 107.7,522.9 		"/>
		<polygon class="st0" points="112.2,495.9 111.6,499.3 125.1,501.7 124.3,506.8 107.6,503.7 106.7,507.3 127,510.7 130.6,490.3 
			117.2,487.9 116.5,491.4 126.5,493 125.8,498.2 		"/>
		<polygon class="st0" points="110.4,486.8 113.7,487.4 113.3,490.8 109.8,490.1 		"/>
		<polygon class="st0" points="114.7,480.8 115.7,475.6 125.9,477.2 126.4,473.9 116.3,472.1 117.2,467 130.7,469.6 131.4,466.1 
			114.2,463.1 111,483.5 131.1,486.9 131.8,483.7 		"/>
		<polygon class="st0" points="132.6,478.6 129.3,477.8 129.8,474.5 133.2,475.1 		"/>
		<polygon class="st0" points="102.3,513.3 102.9,509.8 99.5,509.4 99,512.7 		"/>
		<polygon class="st0" points="100.8,521.8 101.5,518.4 84.5,515.4 85.4,510.3 95.6,512.1 96.1,508.8 82.5,506.4 79,526.8 
			96.1,529.7 96.6,526.3 82.9,524 84,518.8 		"/>
		<polygon class="st0" points="101.6,497.5 102.1,494.2 88.6,491.6 89.4,486.6 106.4,489.5 107,486.1 86.6,482.8 83.2,503 
			96.7,505.4 97.3,502 87.1,500.3 88,495.1 		"/>
		<polygon class="st0" points="103.4,506.7 99.9,506 100.5,502.6 104.1,503.2 		"/>
		<polygon class="st0" points="107,465.4 106.2,470.3 96,468.6 95.3,472.1 105.5,473.9 104.7,478.8 91.2,476.4 90.6,479.8 
			107.5,482.8 111.1,462.5 90.9,458.9 90.1,462.4 		"/>
		<polygon class="st0" points="89.2,467.5 92.6,468 92,471.3 88.7,470.7 		"/>
	</g>
</g>
</svg>
