<?xml version="1.0" encoding="utf-8"?>
<!-- Generator: Adobe Illustrator 24.3.0, SVG Export Plug-In . SVG Version: 6.00 Build 0)  -->
<svg version="1.1" id="Camada_1" xmlns="http://www.w3.org/2000/svg" xmlns:xlink="http://www.w3.org/1999/xlink" x="0px" y="0px"
	 width="400px" height="600px" viewBox="0 0 400 600" style="enable-background:new 0 0 400 600;" xml:space="preserve">
<style type="text/css">
	.st0{fill:#2B2B32;}
</style>
<g>
	<polygon class="st0" points="184.2,502.7 197.7,498.7 193.6,485.2 180.1,489.2 	"/>
	<polygon class="st0" points="149.7,513.8 164.1,509.8 142.7,440 163.1,434.3 176.1,475.7 189.6,470.8 173.1,416.3 89.3,441.3 
		111.2,510.6 124.3,506.1 108.2,451.2 128.7,444.5 	"/>
	<polygon class="st0" points="239.9,411.1 225.6,415 242.5,470 222,476.7 200.6,406.9 187.1,411.8 212.5,495.1 295.4,469.3 
		278.4,414.3 264.4,417.8 277.4,460.2 256,466 	"/>
	<polygon class="st0" points="269.9,386 273.9,399.5 259.9,403.9 255.9,390.4 	"/>
	<polygon class="st0" points="374.2,429.9 353.7,436.5 340.8,395.1 326.8,398.7 339.8,441 318.4,446.8 302.3,391.8 288.4,396.3 
		308.9,465.2 392.6,440.2 367.1,356.9 353.6,360.9 	"/>
	<polygon class="st0" points="332.2,366.7 337.2,381.1 322.3,384.7 318.3,371.2 	"/>
	<polygon class="st0" points="74.3,340.4 60.8,344.4 64.8,358 78.3,354 	"/>
	<polygon class="st0" points="108.7,329.3 94.8,333.7 116.2,403.5 94.8,409.3 82.7,367.9 68.8,372.4 85.3,426.9 169,401.9 
		147.7,333 134.1,337 150.2,391.9 130.1,399.1 	"/>
	<polygon class="st0" points="210,313.7 196.5,317.8 213,373.1 192.5,379.9 171.1,310.1 157.1,314.5 182.6,397.9 265.4,371.9 
		249.3,317 235.4,321.5 247.9,362.5 227.4,369.2 	"/>
	<polygon class="st0" points="240,288.7 244.9,303.1 230.5,307.1 226,293.2 	"/>
	<polygon class="st0" points="272.3,294.6 292.9,287.9 306.3,329.7 319.8,325.7 307.3,283.9 328.2,277.6 344.3,332.6 359.1,329 
		337.7,259.2 254.8,285 279.4,367.5 293.3,363.9 	"/>
	<polygon class="st0" points="314.3,357.7 310.7,343.7 323.8,339.2 327.8,352.8 	"/>
	<polygon class="st0" points="209.4,86.6 195.4,91 199.9,104.9 213.5,100 	"/>
	<polygon class="st0" points="244.2,75.8 230.3,80.3 250.8,149.2 230.4,155.9 217.5,113.5 203.5,118 220.9,174.3 303.8,148.4 
		282.3,78.7 268.4,83.1 286.2,139 264.8,144.8 	"/>
	<polygon class="st0" points="154.5,179.1 168.1,175.1 151.5,119.6 172,113 192.5,182 207.4,178.3 181.9,95 98.6,120.5 115.2,175.9 
		129.6,171.8 116.6,130.4 137.1,123.8 	"/>
	<polygon class="st0" points="123.7,203.3 119.7,189.8 133.1,184.9 137.2,199.3 	"/>
	<polygon class="st0" points="92.1,198.3 71.3,204.5 58.3,163.1 44.7,167.1 57.2,209 36.3,215.2 19.8,159.9 5.4,163.9 26.8,233.7 
		109.7,207.7 84.6,124.9 71.2,129 	"/>
	<polygon class="st0" points="50.2,135.2 53.8,149.2 40.2,153.2 36.2,139.6 	"/>
	<polygon class="st0" points="238.9,183.4 224.9,187.8 229.3,201.8 242.9,196.9 	"/>
	<polygon class="st0" points="273.3,173 259.4,176.7 280.8,246.4 259.8,252.7 246.9,211.2 233.5,215.3 250.4,271.1 333.6,245.7 
		312.2,175.9 298.3,180.3 315.3,236.2 293.9,242 	"/>
	<polygon class="st0" points="180.5,216.1 167,221 183.1,275.9 162.6,282.7 141.2,212.8 127.7,216.8 153.6,300.6 235.9,275.1 
		219.4,219.8 205.9,223.8 218.5,265.7 197.5,271.9 	"/>
	<polygon class="st0" points="211.4,191.8 215.4,206.3 201.9,210.3 197,195.9 	"/>
	<polygon class="st0" points="49.2,256.7 69.3,250.4 82.7,292.3 96.7,287.9 83.7,246.4 104.7,240.2 120.7,295.1 135.1,291.1 
		114.1,221.7 30.8,247.2 55.8,330.1 70.2,326 	"/>
	<polygon class="st0" points="91.1,319.8 86.7,305.8 100.2,301.8 104.2,315.4 	"/>
</g>
<g>
	<polygon class="st0" points="57,497.4 54.1,498.5 55.2,501.3 58.2,500.3 	"/>
	<polygon class="st0" points="64.6,494.6 61.5,495.7 66.9,510.8 62.4,512.2 59.2,503.3 56.2,504.5 60.4,516.4 78.6,509.9 
		73.1,494.9 70.2,496 74.3,508 70,509.7 	"/>
	<polygon class="st0" points="45.7,518.3 48.9,517.1 44.6,505.3 49,503.5 54.5,518.7 57.4,517.4 50.9,499.4 32.9,506 37.2,518 
		40.3,516.9 37,507.8 41.6,506.3 	"/>
	<polygon class="st0" points="39.3,524 38.4,521.2 41.4,520 42.4,523 	"/>
	<polygon class="st0" points="15.9,515.5 20.5,513.8 23.7,522.8 26.7,521.9 23.5,512.6 28.1,511.2 32.2,523.1 35.3,522 29.9,507 
		11.9,513.4 18.3,531.5 21.3,530.5 	"/>
	<polygon class="st0" points="25.9,528.9 24.6,525.8 27.9,524.9 28.9,527.8 	"/>
	<polygon class="st0" points="82.9,532.1 85.9,531 84.9,528.1 81.9,529.1 	"/>
	<polygon class="st0" points="75.5,534.8 78.6,533.7 73.1,518.5 77.8,517.1 80.8,526 83.9,524.9 79.6,513.1 61.5,519.5 66.9,534.4 
		69.9,533.4 65.7,521.5 70.1,519.7 	"/>
	<polygon class="st0" points="53.4,539.4 56.3,538.4 52.1,526.3 56.5,524.6 62,539.8 65,538.6 58.5,520.5 40.5,527 44.7,539 
		47.7,537.9 44.5,529 49,527.2 	"/>
	<polygon class="st0" points="47,545.2 45.8,542.1 48.9,540.9 50,544 	"/>
	<polygon class="st0" points="39.9,544.3 35.4,545.9 32.1,536.9 29.1,537.9 32.3,547 27.7,548.5 23.6,536.5 20.4,537.5 25.8,552.6 
		43.8,546.1 37.5,528.2 34.5,529.1 	"/>
	<polygon class="st0" points="30,530.8 30.9,533.9 28.1,534.9 27,532 	"/>
	<polygon class="st0" points="55.8,589.4 58.9,588.3 57.8,585.3 54.8,586.5 	"/>
	<polygon class="st0" points="48.4,592.1 51.3,591.1 46.1,576 50.4,574.3 53.8,583.5 56.9,582.4 52.4,570.2 34.4,576.7 39.9,591.9 
		42.9,590.7 38.4,578.6 43,577.1 	"/>
	<polygon class="st0" points="67.1,568.5 64.1,569.5 68.2,581.5 63.9,583.2 58.6,568.2 55.4,569.1 61.8,587.2 79.9,580.8 
		75.7,568.7 72.6,569.8 75.8,578.7 71.4,580.5 	"/>
	<polygon class="st0" points="73.6,562.8 74.6,565.6 71.7,566.9 70.6,563.8 	"/>
	<polygon class="st0" points="80.5,563.6 85.1,561.9 88.4,571 91.3,570 88.1,560.8 92.7,559.2 96.9,571.3 100,570.2 94.6,555.1 
		76.6,561.6 83,579.7 85.9,578.6 	"/>
	<polygon class="st0" points="90.5,577 89.6,574 92.5,572.9 93.5,575.8 	"/>
	<polygon class="st0" points="48.4,568.4 51.4,567.2 50.2,564.2 47.4,565.4 	"/>
	<polygon class="st0" points="40.9,571 43.9,570 38.5,554.9 43,553.3 46.3,562.3 49.3,561.3 44.9,549.2 26.8,555.6 32.3,570.8 
		35.3,569.6 31,557.6 35.6,556 	"/>
	<polygon class="st0" points="60.9,560.5 63.9,559.3 59.6,547.4 64.2,545.8 69.6,560.9 72.5,559.9 66,541.6 48,548.2 52.3,560.1 
		55.3,559.1 52.1,550 56.6,548.5 	"/>
	<polygon class="st0" points="54.4,566.2 53.3,563.1 56.3,562.1 57.5,565.2 	"/>
	<polygon class="st0" points="89.4,550.2 85,551.8 81.6,542.7 78.6,543.9 81.9,552.8 77.3,554.5 73.2,542.5 70.1,543.5 75.5,558.5 
		93.5,552.1 87.2,534.2 84,535.1 	"/>
	<polygon class="st0" points="79.5,536.8 80.6,539.9 77.7,540.8 76.6,537.9 	"/>
</g>
<g>
	<polygon class="st0" points="147.4,57.4 146.6,54.5 143.8,55.3 144.5,58.2 	"/>
	<polygon class="st0" points="149.7,64.6 148.8,61.7 134.2,65.8 133.1,61.5 141.7,58.9 140.8,56.2 129.4,59.3 134.2,76.8 
		148.7,72.6 147.9,69.9 136.4,72.9 135.1,68.8 	"/>
	<polygon class="st0" points="128.6,45.4 129.3,48.5 140.8,45.1 142.2,49.4 127.5,53.6 128.5,56.4 146,51.4 140.8,34.1 129.4,37.4 
		130,40.4 138.9,37.8 140,42.3 	"/>
	<polygon class="st0" points="123.4,39.1 126.3,38.4 127.2,41.1 124.3,41.9 	"/>
	<polygon class="st0" points="133,17.6 134.3,21.8 125.6,24.4 126.3,27.3 135.2,24.7 136.3,29.2 124.8,32.4 125.6,35.3 140,31.2 
		135.2,13.7 117.8,18.8 118.5,21.5 	"/>
	<polygon class="st0" points="119.6,26 122.7,25.1 123.4,28.1 120.6,28.9 	"/>
	<polygon class="st0" points="113.2,79.7 114,82.5 116.9,81.7 116.1,78.9 	"/>
	<polygon class="st0" points="111.1,72.3 111.9,75.3 126.5,71.1 127.6,75.6 119,77.9 119.8,80.9 131.3,77.7 126.4,60.2 111.9,64.3 
		112.7,67.1 124.2,64.1 125.7,68.2 	"/>
	<polygon class="st0" points="108.2,51.2 109,54.1 120.5,50.9 121.9,55.1 107.3,59.3 108.2,62.3 125.6,57.3 120.6,39.9 109,43.1 
		109.8,46 118.5,43.6 119.7,47.8 	"/>
	<polygon class="st0" points="103.1,44.9 106.1,44 106.9,47 104,47.8 	"/>
	<polygon class="st0" points="104.4,38.2 103.1,33.8 111.9,31.3 111.1,28.5 102.3,30.9 101.1,26.6 112.7,23.3 111.9,20.3 97.3,24.5 
		102.4,41.8 119.6,37 118.9,34.1 	"/>
	<polygon class="st0" points="117.7,29.7 114.8,30.4 114,27.7 116.8,26.9 	"/>
	<polygon class="st0" points="60.8,50.5 61.8,53.4 64.7,52.6 63.7,49.7 	"/>
	<polygon class="st0" points="58.8,43.1 59.6,46.1 74,42.1 75.4,46.4 66.6,49 67.4,51.9 79.3,48.5 74.1,31.2 59.5,35.3 60.4,38.3 
		72.2,34.7 73.2,39.2 	"/>
	<polygon class="st0" points="80,62.3 79.2,59.4 67.6,62.7 66.2,58.3 80.7,54.4 80,51.2 62.6,56.3 67.6,73.7 79.1,70.5 78.3,67.5 
		69.7,70 68.3,65.7 	"/>
	<polygon class="st0" points="84.9,68.9 82,69.6 81.1,66.8 84.1,66 	"/>
	<polygon class="st0" points="83.7,75.3 84.9,79.7 76.2,82.3 77.1,85.1 85.8,82.7 87,87.1 75.4,90.2 76.1,93.3 90.8,89 85.7,71.7 
		68.4,76.7 69.1,79.4 	"/>
	<polygon class="st0" points="70.4,83.8 73.4,83.1 74.2,86 71.3,86.8 	"/>
	<polygon class="st0" points="81.2,44.8 82,47.8 84.9,46.8 84,44 	"/>
	<polygon class="st0" points="79.2,37.5 79.9,40.4 94.4,36.3 95.6,40.7 87,43.2 87.8,46 99.4,42.7 94.5,25.3 79.9,29.4 80.7,32.4 
		92.5,29 93.6,33.5 	"/>
	<polygon class="st0" points="87.8,57 88.7,59.8 100.3,56.7 101.6,61.1 87,65.2 87.8,68.1 105.2,62.9 100.3,45.7 88.6,49 89.4,51.8 
		98.2,49.3 99.4,53.7 	"/>
	<polygon class="st0" points="82.8,50.4 85.9,49.7 86.7,52.5 83.6,53.5 	"/>
	<polygon class="st0" points="95.7,84.5 94.5,80.2 103.2,77.7 102.4,74.8 93.7,77.2 92.5,73 104,69.7 103.1,66.8 88.6,70.9 
		93.6,88.3 110.9,83.4 110.2,80.4 	"/>
	<polygon class="st0" points="109,76 106.1,76.9 105.3,74.1 108.2,73.3 	"/>
</g>
</svg>
