<?xml version="1.0" encoding="utf-8"?>
<!-- Generator: Adobe Illustrator 24.3.0, SVG Export Plug-In . SVG Version: 6.00 Build 0)  -->
<svg version="1.1" id="Camada_1" xmlns="http://www.w3.org/2000/svg" xmlns:xlink="http://www.w3.org/1999/xlink" x="0px" y="0px"
	 width="400px" height="600px" viewBox="0 0 400 600" style="enable-background:new 0 0 400 600;" xml:space="preserve">
<style type="text/css">
	.st0{fill:#1A1A1E;}
</style>
<g>
	<g>
		<g>
			<polygon class="st0" points="263,77 246.9,78.7 248.7,94.8 264.8,93.2 			"/>
			<polygon class="st0" points="304.5,71.8 287.4,73.3 296.5,157 272.2,159 266.4,109.4 250.1,112 257,177.2 357.2,167.1 
				347.3,83.9 331.7,86.1 338,151.8 313.3,154.9 			"/>
			<polygon class="st0" points="180.1,168.6 197.2,167.3 190,101.4 214.6,98.3 223.7,181.9 240.1,179.3 229.4,79.4 130,90.7 
				137.3,156.7 153.8,155.7 148.3,104.9 173.7,103.1 			"/>
			<polygon class="st0" points="140.7,190.6 139.2,174.4 155.9,172.5 157.5,188.6 			"/>
			<polygon class="st0" points="32.2,118.3 56.8,115.3 62.5,165 79.1,164 73.5,113.2 99,111.3 105.4,177 122.1,174.9 113.8,92.6 
				13.6,102.7 24.3,202.4 40.6,200.9 			"/>
			<polygon class="st0" points="66,198.9 63.5,181.5 81.2,180.6 82.7,196.9 			"/>
			<polygon class="st0" points="352.4,284.5 368.5,282.9 366.9,266.8 350.8,268.3 			"/>
			<polygon class="st0" points="311,289.7 327.8,287.7 318.5,204.1 344,202.1 348.8,251.5 365.5,249.6 358.6,184.2 258.4,194.4 
				267.7,277.1 283.8,275.5 277.5,209.8 301.8,206 			"/>
			<polygon class="st0" points="193,285.3 209,283.6 202.3,217.4 227.1,214.2 236.2,297.9 253,295.9 242.2,196 142.8,207.4 
				149.1,273.1 165.9,271.2 160.5,222 185.2,218.8 			"/>
			<polygon class="st0" points="153.6,307.2 151.1,289.9 168.3,288.5 170.3,305.2 			"/>
			<polygon class="st0" points="118.2,293.6 93.5,296.6 87.5,246.4 71.2,248.1 76.4,298 51.2,300.8 44.9,235 27.4,235.8 36.5,319.5 
				136,308.2 126,209.5 109.5,210.5 			"/>
			<polygon class="st0" points="84.4,213 85.4,229.7 69.6,231.8 68.1,215.7 			"/>
			<polygon class="st0" points="144.5,542.7 161.2,540.7 159.1,524 142.7,526.6 			"/>
			<polygon class="st0" points="102.6,547.4 119.4,545.2 111,462.9 135.7,459.7 141.1,510.4 157.9,508.4 150.4,440.9 50.9,452.2 
				60.2,535.9 76.9,533.9 68.8,466.8 94.3,464.8 			"/>
			<polygon class="st0" points="226.7,449.8 210.4,451.4 217.2,517.7 192.6,520.8 184.2,438.3 166.5,439.3 177.4,539.1 277.2,528.3 
				270.4,462 253.3,463.5 258.9,513.2 234.3,516.2 			"/>
			<polygon class="st0" points="266.8,429.1 268.4,445.2 252.1,447.9 250.6,430.6 			"/>
			<polygon class="st0" points="301.4,441.6 326.4,439 332.2,488.8 348.3,487.2 343.3,436.9 368.3,434.5 375,500.7 392.2,499.3 
				383,415.7 283.6,427 294,526.3 310.2,524.6 			"/>
			<polygon class="st0" points="335.2,522.1 334.2,505.5 350.3,503.9 352,520 			"/>
			<polygon class="st0" points="132.1,426.7 148.8,424.8 146.8,408 130.5,410.6 			"/>
			<polygon class="st0" points="90.8,431 107.3,429.8 98.2,346.3 123.4,343.6 129,393.4 145,391.7 137.9,325 38.2,335.6 47.4,419.3 
				64,417.3 57,350.4 82.5,348.4 			"/>
			<polygon class="st0" points="205.2,402.3 221.5,399.7 215.2,334 239.9,330.8 249,414.5 265.1,412.8 254,312.5 155.2,323.5 
				161.9,389.7 178.2,388.1 172.9,337.9 198,335.4 			"/>
			<polygon class="st0" points="165,423.2 163.5,405.9 179.7,404.2 182.1,421.7 			"/>
			<polygon class="st0" points="362.6,384.7 338.5,387.5 332.4,337.1 315.6,339.2 321.4,388.9 296.3,391.4 290,325.9 272.8,327.2 
				281.5,410.3 381.3,399.5 371,300.2 353.9,301.7 			"/>
			<polygon class="st0" points="328.8,304.2 330.8,321 314.6,322.6 313,306.5 			"/>
		</g>
	</g>
</g>
<g>
	<g>
		<g>
			<polygon class="st0" points="308.7,559.9 308.9,562.2 311.1,561.8 310.9,559.5 			"/>
			<polygon class="st0" points="307.9,554 308.1,556.4 319.8,555.1 320.1,558.5 313.2,559.3 313.5,561.7 322.8,560.7 321.2,546.6 
				309.6,548 309.8,550.2 319.1,549.3 319.6,552.7 			"/>
			<polygon class="st0" points="321.6,571.6 321.3,569 312.1,570.1 311.6,566.7 323.5,565.3 323,563 309,564.6 310.6,578.6 
				319.9,577.5 319.7,575.1 312.7,576 312.3,572.4 			"/>
			<polygon class="st0" points="324.6,577.1 322.4,577.2 322.1,574.9 324.4,574.7 			"/>
			<polygon class="st0" points="314.5,592.3 314.1,588.9 321,588.1 320.9,585.7 313.8,586.5 313.6,582.9 322.7,582 322.4,579.6 
				310.8,580.9 312.3,594.9 326.3,593.4 326.1,591.1 			"/>
			<polygon class="st0" points="325.9,587.6 323.4,587.9 323.3,585.4 325.6,585.2 			"/>
			<polygon class="st0" points="337.9,547.2 337.6,544.9 335.3,545.1 335.6,547.4 			"/>
			<polygon class="st0" points="338.6,553 338.2,550.7 326.4,551.9 326.2,548.4 333.1,547.7 332.8,545.3 323.6,546.4 325.2,560.5 
				336.8,559 336.5,556.7 327.3,557.8 326.8,554.4 			"/>
			<polygon class="st0" points="338,569.6 337.7,567.3 328.4,568.3 327.9,564.9 339.8,563.6 339.5,561.3 325.4,562.8 327.1,576.7 
				336.2,575.8 336,573.4 329.1,574.2 328.5,570.7 			"/>
			<polygon class="st0" points="341.1,575.2 338.6,575.6 338.4,573.1 340.8,572.8 			"/>
			<polygon class="st0" points="339.2,580.1 339.6,583.7 332.6,584.4 332.8,586.7 339.9,586 340.1,589.6 331,590.5 331.1,592.9 
				342.8,591.6 341.2,577.7 327.4,579.1 327.5,581.4 			"/>
			<polygon class="st0" points="327.8,585 330.2,584.8 330.5,586.9 328.3,587.3 			"/>
			<polygon class="st0" points="374.3,576.4 374,573.9 371.6,574.2 372,576.6 			"/>
			<polygon class="st0" points="374.9,582.2 374.6,579.9 362.9,581.1 362.5,577.6 369.7,576.8 369.4,574.4 359.8,575.5 361.4,589.6 
				373.3,588.2 372.9,585.9 363.6,587.1 363.2,583.5 			"/>
			<polygon class="st0" points="361.2,564.8 361.3,567.1 370.6,566.2 371.1,569.6 359.5,570.9 359.7,573.2 373.7,571.7 372.1,557.7 
				362.8,558.7 363,561.1 369.9,560.3 370.5,563.8 			"/>
			<polygon class="st0" points="358.2,559.2 360.4,558.9 360.8,561.2 358.4,561.5 			"/>
			<polygon class="st0" points="360,554.3 359.6,550.8 366.6,550 366.4,547.7 359.3,548.4 358.9,544.9 368.2,544 368,541.6 
				356.3,542.9 357.9,556.8 371.9,555.3 371.6,553.1 			"/>
			<polygon class="st0" points="371.3,549.5 368.9,549.7 368.6,547.3 370.9,547.1 			"/>
			<polygon class="st0" points="357.9,578.1 357.5,575.7 355.2,576.1 355.6,578.3 			"/>
			<polygon class="st0" points="358.5,583.9 358.3,581.6 346.6,582.9 346.2,579.5 353.2,578.6 353,576.3 343.6,577.4 345.1,591.4 
				356.9,590 356.6,587.7 347.3,588.8 346.9,585.2 			"/>
			<polygon class="st0" points="354.4,567.8 354.1,565.5 344.9,566.5 344.4,563 356.1,561.7 355.9,559.4 341.8,561 343.4,575 
				352.7,574 352.5,571.7 345.4,572.3 345.1,568.9 			"/>
			<polygon class="st0" points="357.4,573.5 355,573.8 354.8,571.5 357.2,571.1 			"/>
			<polygon class="st0" points="351.9,545.7 352.3,549.1 345.1,550 345.6,552.3 352.5,551.6 352.9,555 343.5,556 343.9,558.3 
				355.5,557.1 354,543.1 340.1,544.5 340.2,547 			"/>
			<polygon class="st0" points="340.6,550.5 343,550.3 343.2,552.4 341,552.8 			"/>
		</g>
	</g>
</g>
<g>
	<g>
		<g>
			<polygon class="st0" points="34.3,29.8 34.7,33.1 38,32.8 37.6,29.4 			"/>
			<polygon class="st0" points="33.1,21.3 33.5,24.8 50.4,22.8 50.9,27.8 40.9,29.1 41.4,32.3 54.6,30.9 52.4,10.6 35.6,12.7 
				36,15.8 49.3,14.5 50.1,19.4 			"/>
			<polygon class="st0" points="53,46.4 52.7,42.9 39.4,44.6 38.6,39.6 55.7,37.6 55.1,34.4 34.8,36.7 37.4,56.8 50.7,55.2 
				50.5,51.8 40.2,53.1 39.8,47.9 			"/>
			<polygon class="st0" points="57.6,54.4 54.3,54.7 53.8,51.5 57.1,51.1 			"/>
			<polygon class="st0" points="43.2,76.5 42.4,71.7 52.5,70.3 52.3,66.9 42,68.2 41.6,63 54.8,61.6 54.4,58.2 37.8,60.1 40,80.5 
				60.2,78 59.9,74.8 			"/>
			<polygon class="st0" points="59.5,69.6 55.9,70 55.7,66.6 58.9,66.2 			"/>
			<polygon class="st0" points="76.2,11.3 75.9,7.9 72.6,8.3 73,11.7 			"/>
			<polygon class="st0" points="77.3,19.8 76.9,16.4 60,18.3 59.6,13.1 69.5,12.2 69.1,8.8 55.9,10.2 58.1,30.5 74.9,28.6 
				74.5,25.3 61.2,26.6 60.3,21.8 			"/>
			<polygon class="st0" points="76.7,43.7 76.4,40.4 63,41.9 62.2,36.8 79.1,34.9 78.7,31.4 58.4,33.8 60.9,54 74.3,52.6 73.9,49.2 
				63.9,50.3 63.3,45.4 			"/>
			<polygon class="st0" points="81.2,51.7 77.7,52.1 77.4,48.6 80.8,48.2 			"/>
			<polygon class="st0" points="78.5,58.8 79.1,63.9 69,65.1 69.3,68.4 79.6,67.3 80.1,72.3 66.7,73.9 67,77.3 83.9,75.4 81.4,55.2 
				61.5,57.4 61.7,60.7 			"/>
			<polygon class="st0" points="62.3,65.8 65.6,65.6 66.1,68.7 62.7,69.1 			"/>
			<polygon class="st0" points="129.1,53 128.5,49.6 125.2,49.9 125.7,53.3 			"/>
			<polygon class="st0" points="130,61.5 129.6,58.1 112.9,60 112.2,55 122.5,53.7 122,50.3 108.3,51.9 110.8,72.1 127.8,70.1 
				127.4,66.7 113.7,68.5 113.3,63.3 			"/>
			<polygon class="st0" points="110,36.5 110.4,39.9 123.8,38.3 124.5,43.4 107.8,45.1 107.9,48.8 128.1,46.3 125.8,26.1 
				112.5,27.5 112.7,31 122.7,29.8 123.5,34.8 			"/>
			<polygon class="st0" points="105.7,28.4 109,28 109.6,31.4 106.1,31.6 			"/>
			<polygon class="st0" points="108.1,21.5 107.6,16.3 117.7,15 117.2,11.7 107.2,12.8 106.7,7.7 120.1,6.4 119.8,2.9 102.7,4.9 
				105.4,25 125.4,22.6 125.1,19.5 			"/>
			<polygon class="st0" points="124.5,14.4 121.1,14.6 120.7,11.3 124,10.9 			"/>
			<polygon class="st0" points="105.5,55.7 105.1,52.3 101.7,52.8 102.2,56.1 			"/>
			<polygon class="st0" points="106.4,64.1 106.2,60.7 89.3,62.7 88.7,57.6 98.8,56.5 98.4,53.2 84.9,54.7 87.2,75 104.2,73 
				103.8,69.6 90.1,71.2 89.7,66 			"/>
			<polygon class="st0" points="100.4,41 99.9,37.7 86.5,39 85.8,34 102.7,32 102.4,28.7 82.1,31.2 84.5,51.3 98,49.8 97.6,46.4 
				87.4,47.7 86.9,42.5 			"/>
			<polygon class="st0" points="104.7,49.2 101.2,49.4 100.8,46.1 104.3,45.7 			"/>
			<polygon class="st0" points="96.5,9.1 97.1,14 87,15.2 87.3,18.6 97.5,17.5 98.1,22.4 84.7,23.9 85.1,27.3 101.9,25.4 99.6,5.2 
				79.4,7.5 79.7,11 			"/>
			<polygon class="st0" points="80.3,16.1 83.6,15.5 84,18.9 80.7,19.3 			"/>
		</g>
	</g>
</g>
</svg>
