<?xml version="1.0" encoding="utf-8"?>
<!-- Generator: Adobe Illustrator 24.3.0, SVG Export Plug-In . SVG Version: 6.00 Build 0)  -->
<svg version="1.1" id="Camada_1" xmlns="http://www.w3.org/2000/svg" xmlns:xlink="http://www.w3.org/1999/xlink" x="0px" y="0px"
	 width="350px" height="600px" viewBox="0 0 350 600" style="enable-background:new 0 0 350 600;" xml:space="preserve">
<style type="text/css">
	.st0{fill:#16161A;}
</style>
<g>
	<g>
		<g>
			<polygon class="st0" points="122,452.8 136.2,451.1 134.5,436.9 120.3,438.5 			"/>
			<polygon class="st0" points="85.3,457.7 100.5,456.2 91.8,382.3 113.3,380.3 118.8,424.2 133.2,421.7 126.6,364.2 38,373.9 
				47.4,447.3 61.2,445.2 55.1,387.2 77,384.3 			"/>
			<polygon class="st0" points="194.6,371.1 179.4,372.5 186.3,430.6 164.6,433.6 155.9,359.7 141.4,362.1 151.7,450.4 239.5,439.6 
				232.5,381.3 217.9,382.4 223.2,427.2 200.7,429 			"/>
			<polygon class="st0" points="229.2,351.4 230.7,365.7 215.9,367.5 214.4,353.3 			"/>
			<polygon class="st0" points="325.7,414.5 304,417.4 298.6,373.5 283.9,374.5 289.2,419.3 266.7,421.2 260.6,363.1 245.8,365.2 
				253.8,437.9 342.3,428.2 332,340 317.7,341.5 			"/>
			<polygon class="st0" points="295.2,343.5 297.5,358.9 282,359.8 280.5,345.4 			"/>
			<polygon class="st0" points="41.4,270 27.1,271.6 28.7,285.8 42.9,284.3 			"/>
			<polygon class="st0" points="78,265.1 63.1,267 71.9,340.8 49.4,342.8 44.8,299.1 30,300.9 36.7,358.7 125.1,348.9 116.3,275.9 
				102.1,277.5 108.2,335.5 86.7,339 			"/>
			<polygon class="st0" points="182.3,268 168.1,269.7 174.5,328.1 152.7,331.2 144,257.2 129.2,259.2 139.5,347.4 227.3,336.5 
				221.2,278.5 206.4,280.4 211.5,323.8 189.7,326.8 			"/>
			<polygon class="st0" points="217,248.4 219.3,263.7 204.1,265.1 202.2,250.3 			"/>
			<polygon class="st0" points="248.3,260.2 270.2,257.3 275.9,301.7 290.2,300.1 285.3,255.9 307.5,253.3 313.6,311.4 329.1,310.5 
				320.4,236.7 232.5,247.4 242.1,334.6 256.7,333.6 			"/>
			<polygon class="st0" points="278.8,331.2 277.8,316.4 291.7,314.4 293.3,328.6 			"/>
			<polygon class="st0" points="223.2,40.2 208.4,42.1 210.4,56.8 224.9,54.4 			"/>
			<polygon class="st0" points="260.2,35.7 245.3,37.8 253.4,110.5 231.6,113.5 226.4,68.7 211.6,70.6 218.7,130.2 306.6,119.5 
				297.8,45.6 283,47.4 290.7,106.7 268.2,108.6 			"/>
			<polygon class="st0" points="151.2,122.9 165.7,121.4 159.2,62.8 180.9,59.9 188.9,132.7 204.5,131.7 194.1,43.6 106,53.9 
				112.5,112.5 127.7,111 122.3,67.1 144,64.2 			"/>
			<polygon class="st0" points="115.9,141.6 114.4,127.3 128.8,124.8 130.3,140.1 			"/>
			<polygon class="st0" points="85.3,130.7 63.2,133.3 57.7,89.2 43.5,90.8 48.3,135.2 26.2,137.5 19.8,79 4.5,80.5 13.3,154.3 
				101.1,143.5 91.1,55.8 76.9,57.5 			"/>
			<polygon class="st0" points="54.7,59.8 55.8,74.5 41.5,76 39.9,61.8 			"/>
			<polygon class="st0" points="235.1,142.6 220.3,144.5 222.2,159.3 236.6,156.9 			"/>
			<polygon class="st0" points="271.5,138.5 256.9,139.7 265.6,213.4 243.4,216 238,172 223.9,173.7 230.7,232.6 318.8,222.4 
				310,148.5 295.3,150.4 302,209.5 279.5,211.4 			"/>
			<polygon class="st0" points="170.6,164.8 156.2,167.2 162.3,225.2 140.5,228.3 131.8,154.3 117.5,155.9 128.2,244.5 215.4,234.1 
				209,175.6 194.6,177.1 199.6,221.4 177.5,223.8 			"/>
			<polygon class="st0" points="206,146 207.5,161.2 193.1,162.8 190.9,147.4 			"/>
			<polygon class="st0" points="31.6,181.5 52.9,178.8 58.6,223.3 73.5,221.4 68,177.5 90.1,175.1 96.3,233 111.4,231.6 
				103.1,158.2 14.9,168.6 24.8,256.2 39.9,254.8 			"/>
			<polygon class="st0" points="62.1,252.4 60.2,237.6 74.5,236.1 76,250.3 			"/>
		</g>
	</g>
</g>
<g>
	<g>
		<g>
			<polygon class="st0" points="19.7,22.6 19.9,24.6 21.8,24.3 21.6,22.3 			"/>
			<polygon class="st0" points="18.9,17.6 19.1,19.6 29.2,18.5 29.5,21.4 23.5,22.1 23.8,24.2 31.8,23.2 30.4,11.1 20.4,12.4 
				20.6,14.3 28.6,13.5 29,16.4 			"/>
			<polygon class="st0" points="30.9,32.6 30.6,30.4 22.7,31.4 22.2,28.4 32.4,27.2 32,25.2 20,26.6 21.4,38.7 29.4,37.7 29.2,35.7 
				23.2,36.5 22.9,33.4 			"/>
			<polygon class="st0" points="33.5,37.4 31.6,37.5 31.3,35.5 33.3,35.3 			"/>
			<polygon class="st0" points="24.9,50.5 24.5,47.5 30.4,46.8 30.3,44.8 24.2,45.5 24,42.4 31.9,41.6 31.6,39.5 21.6,40.7 23,52.8 
				35,51.4 34.8,49.4 			"/>
			<polygon class="st0" points="34.6,46.4 32.5,46.6 32.3,44.5 34.3,44.3 			"/>
			<polygon class="st0" points="44.7,11.6 44.5,9.6 42.5,9.8 42.7,11.8 			"/>
			<polygon class="st0" points="45.3,16.5 45.1,14.5 34.9,15.7 34.7,12.7 40.7,12 40.4,10 32.4,11 33.9,23 43.8,21.8 43.6,19.8 
				35.7,20.8 35.2,17.8 			"/>
			<polygon class="st0" points="44.9,30.9 44.7,28.9 36.7,29.8 36.3,26.9 46.4,25.6 46.2,23.6 34.1,25 35.6,37 43.5,36.2 43.3,34.1 
				37.3,34.8 36.8,31.8 			"/>
			<polygon class="st0" points="47.6,35.6 45.5,36 45.3,33.8 47.4,33.6 			"/>
			<polygon class="st0" points="46,39.9 46.4,42.9 40.3,43.6 40.5,45.6 46.7,44.9 46.9,48.1 39,48.9 39.1,50.9 49.2,49.8 47.7,37.8 
				35.8,39.1 36,41 			"/>
			<polygon class="st0" points="36.3,44.1 38.3,44 38.6,45.8 36.7,46.1 			"/>
			<polygon class="st0" points="76.2,36.5 75.9,34.4 73.8,34.7 74.2,36.7 			"/>
			<polygon class="st0" points="76.7,41.5 76.5,39.5 66.5,40.6 66.1,37.6 72.2,36.9 72,34.8 63.8,35.8 65.2,47.9 75.4,46.7 
				75.1,44.7 67.1,45.7 66.7,42.7 			"/>
			<polygon class="st0" points="64.9,26.6 65,28.5 73,27.7 73.4,30.6 63.4,31.8 63.6,33.9 75.7,32.5 74.2,20.4 66.2,21.3 66.4,23.4 
				72.4,22.7 72.9,25.7 			"/>
			<polygon class="st0" points="62.3,21.8 64.2,21.5 64.6,23.5 62.5,23.8 			"/>
			<polygon class="st0" points="63.8,17.5 63.4,14.6 69.5,13.8 69.3,11.8 63.1,12.5 62.8,9.4 70.8,8.6 70.6,6.6 60.5,7.7 62,19.7 
				74.1,18.4 73.8,16.4 			"/>
			<polygon class="st0" points="73.5,13.4 71.5,13.5 71.2,11.5 73.1,11.3 			"/>
			<polygon class="st0" points="62.2,38 61.8,36 59.8,36.3 60.2,38.2 			"/>
			<polygon class="st0" points="62.7,43.1 62.5,41.1 52.4,42.3 52.1,39.3 58.1,38.5 57.9,36.5 49.8,37.5 51.2,49.5 61.3,48.3 
				61,46.3 53,47.3 52.7,44.2 			"/>
			<polygon class="st0" points="59.1,29.2 58.8,27.2 50.9,28.1 50.4,25.1 60.5,24 60.3,22 48.1,23.4 49.6,35.4 57.6,34.5 57.4,32.6 
				51.3,33.1 51,30.2 			"/>
			<polygon class="st0" points="61.7,34.1 59.6,34.3 59.4,32.4 61.5,32 			"/>
			<polygon class="st0" points="56.8,10.2 57.1,13.1 51,13.9 51.4,15.9 57.3,15.2 57.7,18.2 49.7,19.1 49.9,21.1 59.9,20 58.6,7.9 
				46.6,9.2 46.7,11.4 			"/>
			<polygon class="st0" points="47.1,14.4 49.2,14.2 49.3,16 47.4,16.3 			"/>
		</g>
	</g>
</g>
<g>
	<g>
		<g>
			<polygon class="st0" points="57.4,527.3 57.6,529.2 59.5,528.9 59.3,527 			"/>
			<polygon class="st0" points="56.7,522.2 56.9,524.3 67,523.1 67.2,526.1 61.3,526.8 61.6,528.8 69.6,527.9 68.1,515.8 58.1,517 
				58.4,518.9 66.3,518.1 66.8,521 			"/>
			<polygon class="st0" points="68.6,537.2 68.4,535.1 60.4,536.1 60,533.1 70.2,531.8 69.8,529.8 57.7,531.3 59.2,543.4 
				67.2,542.4 67,540.3 61,541.1 60.6,538 			"/>
			<polygon class="st0" points="71.2,542 69.4,542.1 69.1,540.1 71,539.9 			"/>
			<polygon class="st0" points="62.6,555.1 62.3,552.2 68.2,551.5 68.1,549.4 62,550.1 61.7,547.1 69.7,546.2 69.4,544.2 
				59.4,545.3 60.7,557.4 72.8,556 72.6,554.1 			"/>
			<polygon class="st0" points="72.3,551 70.3,551.3 70.1,549.1 72.1,548.9 			"/>
			<polygon class="st0" points="82.5,516.2 82.3,514.2 80.3,514.4 80.5,516.4 			"/>
			<polygon class="st0" points="83.1,521.2 82.8,519.2 72.7,520.3 72.5,517.3 78.4,516.7 78.1,514.6 70.2,515.6 71.7,527.7 
				81.6,526.4 81.4,524.4 73.4,525.4 73,522.4 			"/>
			<polygon class="st0" points="82.7,535.5 82.5,533.5 74.5,534.4 74,531.5 84.2,530.3 83.9,528.3 71.9,529.6 73.3,541.6 
				81.2,540.8 81,538.8 75.1,539.5 74.6,536.5 			"/>
			<polygon class="st0" points="85.4,540.3 83.3,540.6 83,538.5 85.1,538.2 			"/>
			<polygon class="st0" points="83.8,544.5 84.1,547.6 78.1,548.3 78.3,550.2 84.4,549.6 84.7,552.7 76.8,553.5 76.9,555.6 
				86.9,554.4 85.5,542.4 73.6,543.7 73.7,545.7 			"/>
			<polygon class="st0" points="74.1,548.7 76.1,548.6 76.3,550.4 74.4,550.7 			"/>
			<polygon class="st0" points="114,541.1 113.7,539 111.6,539.3 112,541.3 			"/>
			<polygon class="st0" points="114.5,546.1 114.3,544.2 104.2,545.2 103.9,542.3 110,541.5 109.7,539.4 101.5,540.5 103,552.5 
				113.2,551.3 112.9,549.3 104.8,550.4 104.5,547.3 			"/>
			<polygon class="st0" points="102.7,531.2 102.8,533.2 110.8,532.4 111.2,535.3 101.2,536.4 101.4,538.5 113.5,537.1 112,525.1 
				104,525.9 104.2,528 110.1,527.3 110.7,530.3 			"/>
			<polygon class="st0" points="100,526.4 101.9,526.1 102.3,528.1 100.2,528.4 			"/>
			<polygon class="st0" points="101.5,522.2 101.2,519.2 107.2,518.4 107,516.5 100.9,517.1 100.6,514.1 108.6,513.3 108.4,511.2 
				98.3,512.4 99.8,524.4 111.8,523 111.5,521.1 			"/>
			<polygon class="st0" points="111.3,518.1 109.2,518.2 108.9,516.2 110.9,516 			"/>
			<polygon class="st0" points="99.9,542.7 99.5,540.7 97.6,541 97.9,542.9 			"/>
			<polygon class="st0" points="100.5,547.7 100.3,545.7 90.2,546.9 89.8,543.9 95.9,543.2 95.7,541.2 87.6,542.1 88.9,554.2 
				99.1,553 98.8,551 90.8,551.9 90.5,548.9 			"/>
			<polygon class="st0" points="96.8,533.9 96.5,531.9 88.6,532.8 88.2,529.8 98.3,528.6 98.1,526.6 85.9,528.1 87.4,540.1 
				95.4,539.2 95.2,537.2 89.1,537.8 88.8,534.8 			"/>
			<polygon class="st0" points="99.4,538.7 97.3,539 97.1,537 99.2,536.6 			"/>
			<polygon class="st0" points="94.5,514.8 94.9,517.7 88.8,518.6 89.1,520.6 95.1,519.9 95.4,522.8 87.4,523.7 87.7,525.7 
				97.7,524.6 96.3,512.6 84.4,513.9 84.4,516 			"/>
			<polygon class="st0" points="84.9,519 86.9,518.8 87.1,520.7 85.2,521 			"/>
		</g>
	</g>
</g>
<g>
	<g>
		<g>
			<polygon class="st0" points="330.2,542.7 329.4,536.6 323.3,537.2 324,543.4 			"/>
			<polygon class="st0" points="332.4,558.4 331.6,552 300.2,555.8 299.3,546.5 317.8,544 316.9,538 292.4,540.7 296.5,578.4 
				327.8,574.4 327,568.7 302.4,571.2 300.9,562.1 			"/>
			<polygon class="st0" points="295.4,511.9 295.9,518.4 320.6,515.3 322.2,524.5 290.5,528.3 291.6,534.3 329.1,530 324.3,492.5 
				299.6,495.6 300,501.9 319.2,499.5 319.9,509.1 			"/>
			<polygon class="st0" points="286.9,497.2 292.9,496.6 293.8,502.5 287.8,503.2 			"/>
			<polygon class="st0" points="313.6,456 315.1,465.1 296.2,467.5 296.6,473.8 315.8,471.4 316.6,481.2 292,483.8 292.7,490 
				323.6,486.5 319.5,448.7 282,453.3 282.5,459.3 			"/>
			<polygon class="st0" points="283.4,468.9 289.9,468.1 290.4,474.5 284.4,475.1 			"/>
			<polygon class="st0" points="252.4,577.2 252.9,583.4 259.2,582.7 258.4,576.5 			"/>
			<polygon class="st0" points="250.3,561.4 251.2,567.7 282.5,564.2 283.2,573.7 264.8,575.5 265.5,581.8 290.2,579.2 286,541.5 
				254.7,545.1 255.5,551.2 280.2,548.7 281.8,557.7 			"/>
			<polygon class="st0" points="251.5,517 252,523.2 276.9,520.3 278.4,529.7 246.9,533.4 247.7,539.8 285.3,535.3 280.7,497.9 
				255.8,500.5 256.6,506.9 275.2,504.7 276.3,513.8 			"/>
			<polygon class="st0" points="243.1,502.2 249.5,501.5 250.2,507.9 243.8,508.7 			"/>
			<polygon class="st0" points="248.1,488.9 246.8,479.6 265.6,477.3 265,471.1 246,473.2 245,463.9 269.9,461 269.3,454.5 
				238,458.3 242.6,495.7 279.6,491.6 279.2,485.3 			"/>
			<polygon class="st0" points="278.2,475.9 271.9,476.3 271.1,470.5 277.3,469.8 			"/>
			<polygon class="st0" points="154.2,499.8 155.2,506.1 161.4,505.5 160.4,499.3 			"/>
			<polygon class="st0" points="152.4,484 153.1,490.4 184.1,486.9 185.6,496.1 166.4,498.5 167.3,504.9 192.8,501.8 188,464.3 
				156.5,468 157.3,474.4 182.7,471.1 183.4,480.7 			"/>
			<polygon class="st0" points="189.7,530.4 188.9,524.2 164,527.1 162.7,517.8 193.7,514.4 193.4,507.7 155.9,512.3 160.2,549.8 
				185,547.1 184.5,540.6 166,543 164.5,533.6 			"/>
			<polygon class="st0" points="197.6,545.5 191.4,546.2 190.4,540 196.9,539.5 			"/>
			<polygon class="st0" points="193.1,558.4 194.1,568 175.3,570.5 176.2,576.5 194.8,574.4 195.9,583.8 171,586.4 171.5,592.9 
				203.2,589 198.2,551.7 161.1,556.2 161.6,562.1 			"/>
			<polygon class="st0" points="162.8,571.6 169.1,571.2 169.8,577.2 163.6,578 			"/>
			<polygon class="st0" points="197.9,494.8 198.6,501.2 204.9,500.1 204,494.1 			"/>
			<polygon class="st0" points="196.1,479.1 196.7,485.5 228.1,481.7 229.1,491.2 210.3,493.4 211.1,499.4 236.2,496.6 231.8,459 
				200.3,462.7 201.1,469.1 226.4,466 227.1,475.7 			"/>
			<polygon class="st0" points="207.4,522.2 208.3,528.2 233.2,525.7 234.4,535 203.1,538.7 203.8,544.9 241.4,540.2 236.9,502.9 
				211.9,505.8 212.5,512 231.5,509.7 232.5,519.3 			"/>
			<polygon class="st0" points="199.4,506.9 205.9,506.4 206.7,512.6 200.1,513.4 			"/>
			<polygon class="st0" points="214.7,581.4 213.6,572.2 232.4,569.9 231.7,563.5 212.9,565.7 211.8,556.5 236.6,553.8 235.9,547.4 
				204.7,551 209,588.6 246.4,584.2 245.9,577.8 			"/>
			<polygon class="st0" points="244.8,568.3 238.6,569.3 237.8,563.1 244,562.4 			"/>
		</g>
	</g>
</g>
</svg>
