<?xml version="1.0" encoding="utf-8"?>
<!-- Generator: Adobe Illustrator 24.3.0, SVG Export Plug-In . SVG Version: 6.00 Build 0)  -->
<svg version="1.1" id="Camada_1" xmlns="http://www.w3.org/2000/svg" xmlns:xlink="http://www.w3.org/1999/xlink" x="0px" y="0px"
	 width="400px" height="600px" viewBox="0 0 400 600" style="enable-background:new 0 0 400 600;" xml:space="preserve">
<style type="text/css">
	.st0{fill:#24242B;}
</style>
<g>
	<g>
		<polygon class="st0" points="216.4,16.2 202.5,20.3 206.7,34.2 220.6,30.1 		"/>
		<polygon class="st0" points="251.9,5 237.1,9 258.7,80.8 237.6,86.6 224.6,44 210.7,49 227.3,105 313.4,79.8 291.3,8.5 
			277.9,13.1 294.1,69.5 273,76.3 		"/>
		<polygon class="st0" points="158.7,110 173.4,106 156.4,49.5 177.4,42.7 199,114.5 212.9,109.6 187.3,23.9 102.1,50 119.2,106.5 
			133.6,102.9 120.5,59.4 142.5,53.6 		"/>
		<polygon class="st0" points="127.8,135.6 123.8,121.7 138.1,117.2 142.1,131.1 		"/>
		<polygon class="st0" points="21,90 42.1,83.3 55.1,125.8 69.4,122.3 56.3,78.7 78.3,72.9 94.6,129.4 108.9,124.9 88.2,54.1 
			2.1,79.3 27.8,164.9 41.7,160.8 		"/>
		<polygon class="st0" points="63.7,155 58.7,140.2 74,136.6 78,150.5 		"/>
		<polygon class="st0" points="328.3,183.4 342.2,179.3 338.2,165.4 324.3,169.5 		"/>
		<polygon class="st0" points="292.9,194.7 307.2,190.2 285.6,118.4 307.6,112.6 319.8,155.1 334.2,150.7 317.5,94.6 231.4,119.8 
			253,190.6 266.9,186.6 250.7,130.2 271.3,122.9 		"/>
		<polygon class="st0" points="188.9,210.1 202.7,205.9 186.1,149.1 207.2,142.2 228.8,214 243.1,209.5 217.5,123.9 132.3,150 
			148.5,206.5 162.9,202 150.2,159.8 171.3,153.1 		"/>
		<polygon class="st0" points="158,235.6 153,220.8 167.8,216.8 172.3,231.1 		"/>
		<polygon class="st0" points="124.8,229.4 103.7,236.1 90.2,193.1 76.3,197.2 88.9,240.1 67.4,246.5 51.1,190 35.9,193.6 
			57.5,265.3 142.7,239.3 118,154.5 103.6,158.1 		"/>
		<polygon class="st0" points="82.1,164.4 85.7,178.8 72.2,183.3 68.2,169.4 		"/>
		<polygon class="st0" points="188.3,443.2 202.6,438.8 198.1,424.5 184.2,429.4 		"/>
		<polygon class="st0" points="152.4,454.1 166.7,449.5 146.1,378.7 167,372 180.1,415.5 194.5,411 176.9,353.1 91.7,379.2 
			113.4,450.9 127.7,446.5 109.7,389 131.7,383.2 		"/>
		<polygon class="st0" points="245.1,348.5 231.2,352.6 247.8,409.6 226.8,416.3 206.1,345.4 190.8,349.1 216.5,434.7 302.2,409 
			285.5,352 270.7,356.2 283.7,398.8 262.7,405.4 		"/>
		<polygon class="st0" points="276.9,323.8 280.9,337.7 267.1,342.7 263,327.9 		"/>
		<polygon class="st0" points="309.3,329.2 330.7,322.9 343.8,365.5 357.7,361.5 345.1,318.4 366.6,312.1 383.2,369 398.1,364.9 
			376.4,293.2 291.2,319.4 316.5,404.5 330.4,400.4 		"/>
		<polygon class="st0" points="351.9,394.1 348.3,379.8 362.2,375.8 366.3,389.7 		"/>
		<polygon class="st0" points="158.5,343.7 172.9,339.2 168.4,324.9 154.5,329.8 		"/>
		<polygon class="st0" points="123.1,354.1 137.4,350.4 115.9,278.7 137.4,272.4 150.4,315.1 164.3,311 147.2,253.6 61.6,279.2 
			83.2,351 97.5,346.5 80.4,289.1 102.4,283.2 		"/>
		<polygon class="st0" points="218.6,310.5 232.5,305.5 216.3,249 237.4,242.2 258.9,314 272.8,309.9 246.7,223.9 162.1,249.5 
			178.7,306.4 192.6,302.4 179.9,259.3 201.5,253 		"/>
		<polygon class="st0" points="186.8,335.2 182.7,320.3 196.6,316.3 201.5,331.1 		"/>
		<polygon class="st0" points="353.6,269.4 332.9,275.8 319.4,232.7 305.1,237.2 318.2,279.8 296.6,286.1 280.4,229.7 265.6,233.7 
			286.8,305 372.4,279.3 347.2,194.1 332.4,198.2 		"/>
		<polygon class="st0" points="310.9,204.5 315.4,218.8 301.5,222.9 297.4,209 		"/>
	</g>
</g>
<g>
	<g>
		<polygon class="st0" points="357.8,84.6 360,83.9 359.2,81.7 357,82.4 		"/>
		<polygon class="st0" points="352.1,86.7 354.4,85.9 350.6,74.4 354,73.4 356.3,80.2 358.6,79.3 355.6,70.3 341.7,74.9 345.6,86.3 
			347.8,85.5 344.9,76.4 348.2,75.2 		"/>
		<polygon class="st0" points="366.7,69.1 364.2,69.9 367.3,78.9 363.9,80.2 360.1,68.6 357.8,69.5 362.4,83.2 376.1,78.6 
			373.1,69.5 370.7,70.2 373.1,77.1 369.6,78.2 		"/>
		<polygon class="st0" points="371.6,64.9 372.3,67 370,67.9 369.3,65.6 		"/>
		<polygon class="st0" points="389.1,71.7 385.7,72.9 383.4,66.1 381.1,66.7 383.4,73.8 379.8,74.8 377,65.7 374.6,66.5 378.4,77.9 
			392.2,73.4 387.6,59.6 385.4,60.3 		"/>
		<polygon class="st0" points="381.9,61.4 382.8,63.8 380.2,64.5 379.5,62.2 		"/>
		<polygon class="st0" points="338.8,58.1 336.6,58.8 337.3,61 339.5,60.3 		"/>
		<polygon class="st0" points="344.5,56.1 342.1,56.9 346,68.5 342.4,69.5 340.3,62.7 338,63.4 341,72.4 354.8,67.9 351,56.6 
			348.7,57.3 351.7,66.3 348.3,67.6 		"/>
		<polygon class="st0" points="361.3,53.1 359,53.8 362,63 358.7,64.2 354.8,52.6 352.5,53.5 357.1,67.2 370.8,62.6 367.8,53.5 
			365.5,54.2 367.8,61 364.4,62.3 		"/>
		<polygon class="st0" points="366.2,48.8 367.1,51.1 364.6,51.9 363.9,49.6 		"/>
		<polygon class="st0" points="371.5,49.6 375,48.4 377.3,55.3 379.6,54.6 377.3,47.7 380.8,46.6 383.7,55.7 386.1,55 382.3,43.5 
			368.6,48.1 373,61.7 375.4,61.1 		"/>
		<polygon class="st0" points="378.8,59.9 378.2,57.6 380.3,56.9 381.1,59.1 		"/>
		<polygon class="st0" points="360.3,15.2 357.9,16 358.7,18.4 361,17.5 		"/>
		<polygon class="st0" points="366,13.4 363.7,14.1 367.4,25.5 364.1,26.7 361.7,19.8 359.4,20.5 362.5,29.8 376.2,25.2 372.3,13.7 
			370.1,14.5 373.2,23.7 369.7,24.8 		"/>
		<polygon class="st0" points="351.4,30.9 353.7,30.2 350.8,21 354.1,19.8 357.9,31.2 360.3,30.6 355.7,16.8 342,21.3 344.9,30.5 
			347.3,29.8 345,23 348.4,21.7 		"/>
		<polygon class="st0" points="346.4,35 345.7,32.9 347.9,32 348.7,34.3 		"/>
		<polygon class="st0" points="341.2,34.3 337.7,35.5 335.4,28.6 333.2,29.3 335.4,36.3 332,37.4 329,28.2 326.6,29 330.5,40.5 
			344.2,35.9 339.6,22.1 337.4,22.9 		"/>
		<polygon class="st0" points="333.9,24 334.6,26.3 332.4,27.1 331.6,24.8 		"/>
		<polygon class="st0" points="365.5,31.3 363.2,32.1 364.1,34.4 366.2,33.5 		"/>
		<polygon class="st0" points="371.2,29.4 369,30.1 372.8,41.6 369.3,42.7 367,35.9 364.7,36.6 367.9,45.8 381.6,41.3 377.7,29.7 
			375.4,30.5 378.5,39.7 375,40.8 		"/>
		<polygon class="st0" points="356,37 353.7,37.8 356.7,46.9 353.2,48.1 349.4,36.6 347.2,37.3 351.8,51.2 365.4,46.5 362.5,37.4 
			360.2,38.1 362.5,45.1 359,46.1 		"/>
		<polygon class="st0" points="361,32.8 361.7,35.2 359.5,35.9 358.6,33.5 		"/>
		<polygon class="st0" points="334.2,44.2 337.6,43.1 340,50.1 342.3,49.2 340,42.4 343.4,41.3 346.4,50.4 348.7,49.6 344.9,38.2 
			331.2,42.7 335.7,56.4 338.1,55.7 		"/>
		<polygon class="st0" points="341.5,54.6 340.7,52.2 342.9,51.6 343.7,53.8 		"/>
	</g>
</g>
<g>
	<g>
		<polygon class="st0" points="60,505.1 62.2,504.4 61.4,502.2 59.2,502.9 		"/>
		<polygon class="st0" points="54.2,507.1 56.6,506.4 52.8,494.9 56.2,493.9 58.5,500.7 60.7,499.8 57.8,490.7 43.9,495.3 
			47.8,506.8 50,506 47.1,496.9 50.4,495.7 		"/>
		<polygon class="st0" points="68.9,489.6 66.4,490.4 69.5,499.4 66.1,500.7 62.2,489.1 60,490 64.6,503.7 78.3,499.1 75.3,490 
			72.9,490.7 75.3,497.6 71.8,498.7 		"/>
		<polygon class="st0" points="73.8,485.4 74.4,487.5 72.2,488.4 71.5,486.1 		"/>
		<polygon class="st0" points="91.3,492.2 87.9,493.4 85.6,486.6 83.3,487.2 85.6,494.3 82,495.3 79.2,486.2 76.8,487 80.6,498.4 
			94.3,493.9 89.8,480.1 87.6,480.8 		"/>
		<polygon class="st0" points="84,481.9 85,484.3 82.4,484.9 81.7,482.7 		"/>
		<polygon class="st0" points="41,478.6 38.8,479.3 39.5,481.5 41.7,480.8 		"/>
		<polygon class="st0" points="46.7,476.6 44.3,477.4 48.2,488.9 44.6,489.9 42.5,483.2 40.2,483.9 43.2,492.9 57,488.4 53.1,477 
			50.9,477.8 53.9,486.8 50.5,488.1 		"/>
		<polygon class="st0" points="63.5,473.5 61.2,474.3 64.2,483.5 60.9,484.7 57,473.1 54.7,473.9 59.2,487.7 72.9,483.1 70,473.9 
			67.7,474.7 70,481.5 66.6,482.8 		"/>
		<polygon class="st0" points="68.4,469.2 69.3,471.6 66.8,472.4 66.1,470.1 		"/>
		<polygon class="st0" points="73.7,470.1 77.2,468.9 79.5,475.8 81.8,475.1 79.5,468.2 83,467.1 85.9,476.2 88.3,475.5 84.5,464 
			70.8,468.6 75.2,482.2 77.5,481.6 		"/>
		<polygon class="st0" points="81,480.4 80.4,478.1 82.5,477.4 83.3,479.6 		"/>
		<polygon class="st0" points="62.5,435.7 60.1,436.5 60.9,438.8 63.2,438 		"/>
		<polygon class="st0" points="68.2,433.8 65.9,434.6 69.6,446 66.3,447.2 63.9,440.2 61.5,441 64.7,450.3 78.4,445.7 74.5,434.1 
			72.2,435 75.4,444.2 71.9,445.3 		"/>
		<polygon class="st0" points="53.6,451.4 55.9,450.6 53,441.5 56.3,440.3 60,451.7 62.5,451 57.9,437.3 44.2,441.8 47.1,451 
			49.5,450.3 47.2,443.5 50.6,442.2 		"/>
		<polygon class="st0" points="48.6,455.5 47.9,453.4 50.1,452.4 50.9,454.8 		"/>
		<polygon class="st0" points="43.4,454.8 39.9,456 37.6,449.1 35.3,449.8 37.6,456.7 34.1,457.9 31.2,448.7 28.8,449.5 32.7,461 
			46.4,456.3 41.8,442.6 39.6,443.4 		"/>
		<polygon class="st0" points="36.1,444.5 36.7,446.8 34.5,447.6 33.8,445.3 		"/>
		<polygon class="st0" points="67.7,451.7 65.4,452.6 66.3,454.9 68.4,454 		"/>
		<polygon class="st0" points="73.4,449.9 71.2,450.6 75,462.1 71.5,463.2 69.2,456.3 66.9,457.1 70,466.3 83.8,461.8 79.9,450.2 
			77.6,451 80.7,460.2 77.2,461.3 		"/>
		<polygon class="st0" points="58.2,457.4 55.9,458.3 58.9,467.4 55.4,468.5 51.6,457 49.4,457.8 54,471.7 67.6,467 64.6,457.9 
			62.4,458.6 64.6,465.6 61.2,466.6 		"/>
		<polygon class="st0" points="63.2,453.3 63.9,455.6 61.7,456.4 60.8,454 		"/>
		<polygon class="st0" points="36.4,464.7 39.8,463.6 42.2,470.6 44.5,469.7 42.2,462.9 45.6,461.7 48.5,470.9 50.9,470.1 
			47.1,458.7 33.4,463.2 37.8,476.9 40.2,476.2 		"/>
		<polygon class="st0" points="43.7,475 42.9,472.7 45.1,472 45.9,474.2 		"/>
	</g>
</g>
<g>
	<g>
		<polygon class="st0" points="179.9,529.8 181.1,533.6 185,532.4 183.8,528.6 		"/>
		<polygon class="st0" points="176.5,520 177.8,524 197.6,517.7 199.3,523.6 187.6,527.4 189,531.2 204.4,526.4 197.1,502.7 
			177.5,509.1 178.7,512.7 194.3,508.1 196.3,513.7 		"/>
		<polygon class="st0" points="206,545.3 204.9,541.2 189.4,546.2 187.3,540.4 207.2,534.1 205.7,530.4 182.1,537.8 189.8,561.3 
			205.3,556.3 204.3,552.3 192.3,556.2 190.6,550.1 		"/>
		<polygon class="st0" points="213.4,553.7 209.5,554.9 208.2,551.1 212,549.9 		"/>
		<polygon class="st0" points="201.2,583.5 199.2,577.8 211,573.9 209.9,569.9 197.9,573.8 196.2,567.7 211.7,562.9 210.5,559.1 
			191,565.1 198.3,588.9 221.9,581.3 220.8,577.5 		"/>
		<polygon class="st0" points="219.1,571.5 214.9,572.8 213.8,568.7 217.7,567.5 		"/>
		<polygon class="st0" points="225.7,498 224.5,494.1 220.6,495.3 221.8,499.2 		"/>
		<polygon class="st0" points="228.9,507.9 227.6,503.9 207.9,510.1 206.2,504 217.9,500.6 216.6,496.6 201.1,501.4 208.4,525.1 
			228.1,518.9 226.9,515.1 211.3,519.7 209.1,514.1 		"/>
		<polygon class="st0" points="233.7,536.6 232.5,532.7 216.9,537.6 214.8,531.8 234.5,525.5 233.3,521.5 209.6,529 217.2,552.5 
			232.9,547.8 231.6,543.8 219.9,547.4 218,541.7 		"/>
		<polygon class="st0" points="240.8,545 236.8,546.3 235.5,542.3 239.6,541 		"/>
		<polygon class="st0" points="239.3,554.2 241.3,560.1 229.4,563.9 230.6,567.7 242.6,564.1 244.3,570 228.7,574.8 229.8,578.9 
			249.6,572.7 242,549.1 218.7,556.4 219.7,560.4 		"/>
		<polygon class="st0" points="221.5,566.4 225.5,565.3 226.7,568.9 222.9,570.1 		"/>
		<polygon class="st0" points="298.3,535.6 296.9,531.7 293,532.9 294.4,536.8 		"/>
		<polygon class="st0" points="301.4,545.6 300.1,541.6 280.7,547.7 278.6,541.9 290.6,538 289.3,534 273.3,539.2 281,562.6 
			300.7,556.3 299.5,552.3 283.5,557.6 281.8,551.5 		"/>
		<polygon class="st0" points="271.7,520.4 272.9,524.3 288.7,519.3 290.6,525.2 271.1,531.1 272.2,535.4 295.7,527.9 288.2,504.2 
			272.6,509.1 273.8,513.2 285.4,509.4 287.5,515.2 		"/>
		<polygon class="st0" points="264.8,511.6 268.6,510.4 270.1,514.3 265.9,515.4 		"/>
		<polygon class="st0" points="266.1,502.8 264.3,496.8 276.1,492.8 274.7,489.1 263,492.7 261.2,486.8 276.9,482 275.7,477.9 
			255.8,484.3 263.6,507.7 286.9,500.2 285.9,496.5 		"/>
		<polygon class="st0" points="283.9,490.6 279.9,491.6 278.7,487.8 282.6,486.6 		"/>
		<polygon class="st0" points="270.8,544.3 269.5,540.3 265.6,541.7 267,545.5 		"/>
		<polygon class="st0" points="273.8,554.1 272.8,550.2 253,556.4 251.2,550.4 262.9,546.8 261.8,542.9 246,547.9 253.5,571.5 
			273.2,565.2 271.9,561.2 256,566.3 254.4,560.2 		"/>
		<polygon class="st0" points="261.3,527.8 260,524.1 244.3,528.8 242.3,522.9 262.1,516.6 260.9,512.8 237.2,520.5 244.7,543.8 
			260.5,538.9 259.3,535 247.4,538.8 245.6,532.8 		"/>
		<polygon class="st0" points="268.3,536.6 264.2,537.8 263,533.9 267.1,532.5 		"/>
		<polygon class="st0" points="249.4,490.7 251.2,496.4 239.4,500.2 240.7,504.2 252.4,500.5 254.3,506.3 238.6,511.1 239.9,515.2 
			259.6,509 252.1,485.4 228.6,492.7 229.8,496.8 		"/>
		<polygon class="st0" points="231.6,502.8 235.5,501.4 236.7,505.3 232.8,506.4 		"/>
	</g>
</g>
</svg>
