<?xml version="1.0" encoding="utf-8"?>
<!-- Generator: Adobe Illustrator 24.3.0, SVG Export Plug-In . SVG Version: 6.00 Build 0)  -->
<svg version="1.1" id="Camada_1" xmlns="http://www.w3.org/2000/svg" xmlns:xlink="http://www.w3.org/1999/xlink" x="0px" y="0px"
	 width="400px" height="650px" viewBox="0 0 400 650" style="enable-background:new 0 0 400 650;" xml:space="preserve">
<style type="text/css">
	.st0{fill:#16161A;}
</style>
<g>
	<g>
		<g>
			<polygon class="st0" points="217.5,608.5 204,604.2 199.6,617.6 213.1,621.9 			"/>
			<polygon class="st0" points="269.8,564.2 290.3,571.3 273.3,626.3 286.3,631 309.5,561.6 225.6,535.3 208.2,589.8 221.7,594.9 
				235.4,553.5 255.8,559.5 233.2,629.4 247.6,633.7 			"/>
			<polygon class="st0" points="141.4,583.9 120,577.8 133.6,535.4 119.7,531.6 101.8,586.7 184.8,613.9 211.6,530.5 198,525.4 
				175.5,595.2 155,588.2 172.8,533.2 158.4,529 			"/>
			<polygon class="st0" points="142.7,508 138.5,521.5 124.5,516.8 128.7,503.3 			"/>
			<polygon class="st0" points="44.9,476.8 31.3,472.6 4.5,556 88.3,582.3 109.9,513.4 96.1,508.6 79,563.7 57.6,557.5 71.3,515.2 
				57.3,511.4 43.7,552.8 23.2,545.9 			"/>
			<polygon class="st0" points="80.2,487.7 76,501.3 61.1,497.5 66.3,483 			"/>
			<polygon class="st0" points="321.9,474 335.4,478.2 339.6,464.7 326.1,460.5 			"/>
			<polygon class="st0" points="269,518.6 248.9,511 265.9,456 252.4,451.8 229.9,520.8 313.7,547.2 331.2,492.6 317.2,487.9 
				304.4,529.3 283,523.2 305.6,453.3 291.6,448.7 			"/>
			<polygon class="st0" points="171.6,487 151.1,480 164.4,438.9 150.4,434.3 133.4,489.3 216.3,516.6 243.1,433.1 229.2,428.4 
				206.6,498.4 186,491.2 203.5,435.9 190.1,431.6 			"/>
			<polygon class="st0" points="174.2,410.6 169.5,424.5 155.1,420.3 160.2,405.9 			"/>
			<polygon class="st0" points="105.5,480.8 119.4,484.6 145.4,402 62.4,374.8 39.8,444.6 54.6,448.4 71.6,393.4 92.6,400.1 
				79.4,441.9 93,446.2 107,404.3 127.6,411.3 			"/>
			<polygon class="st0" points="71,469 75.2,455.5 88.3,460.1 84.5,474.2 			"/>
			<polygon class="st0" points="189.7,216.6 203.2,221.7 208,207.8 194.1,203.1 			"/>
			<polygon class="st0" points="137.4,260.8 116,254.6 134.7,198.7 120.8,194.1 98.1,263.9 181.1,291.2 199.5,234.8 185.5,230.1 
				171.8,272.5 151.4,265.4 173.1,196.5 159.1,191.7 			"/>
			<polygon class="st0" points="266.1,241.6 286.6,248.5 273,290 287.4,294.3 304.9,238.8 221.5,212 194.6,295.4 209.5,299.3 
				231.2,230.3 251.7,237.3 234.2,292.7 247.9,297 			"/>
			<polygon class="st0" points="264.9,317.6 269.2,303.1 282.7,308.3 278.5,321.8 			"/>
			<polygon class="st0" points="332.4,247.8 318.9,243.5 292.5,326.5 375.4,353.7 398,284 383.5,279.7 366.1,335 345.2,328.6 
				358.4,286.5 344.9,282.3 331.1,323.9 310.3,317.2 			"/>
			<polygon class="st0" points="367.4,259.1 363.1,272.6 349.6,268.4 353.4,254.4 			"/>
			<polygon class="st0" points="158.7,313.5 172.2,318.6 176.9,304.7 162.9,300 			"/>
			<polygon class="st0" points="106.7,358.2 85.3,352 103.2,296 89.3,291.4 66.6,361.3 150,388 167.8,332.2 154.4,327.9 
				140.8,369.5 119.8,362.8 142.4,293 128.5,289.1 			"/>
			<polygon class="st0" points="203.2,389.7 182.2,383.1 195.5,341.1 181.9,336.9 164.5,392.3 246.9,419.1 274.2,335.4 260.7,331.1 
				238.2,401 217.6,393.9 234.6,338.9 221.1,333.8 			"/>
			<polygon class="st0" points="204.8,313.2 199.7,327.6 186.1,323.3 190.4,308.9 			"/>
			<polygon class="st0" points="330.4,446 344.8,450.3 371.1,367.3 287.8,340.4 265.6,409.9 280,414.1 297,359.2 318,365.7 
				304.3,407.2 318.3,411.9 332.4,370 352.5,376.6 			"/>
			<polygon class="st0" points="296.3,434.7 300.5,421.2 314.1,425.4 309.4,439.4 			"/>
		</g>
	</g>
</g>
<g>
	<g>
		<g>
			<polygon class="st0" points="352.1,559.9 354.3,560.6 355.2,558.5 353,557.8 			"/>
			<polygon class="st0" points="343.4,566.8 340.3,565.6 343.3,556.7 341.2,555.9 337.1,567 350.5,571.8 353.7,562.9 351.4,562.1 
				349,568.7 345.7,567.6 349.7,556.4 347.4,555.6 			"/>
			<polygon class="st0" points="364.4,564.2 367.8,565.4 365.4,572.1 367.7,572.9 370.9,564 357.5,559.2 352.7,572.6 354.9,573.5 
				358.9,562.2 362.2,563.5 359,572.3 361.4,573.1 			"/>
			<polygon class="st0" points="363.9,576.6 364.6,574.4 366.8,575.3 366.2,577.4 			"/>
			<polygon class="st0" points="379.6,582 381.8,582.8 386.4,569.4 373.1,564.7 369.1,575.8 371.4,576.7 374.4,567.9 377.8,568.9 
				375.5,575.7 377.8,576.4 380.1,569.8 383.4,571 			"/>
			<polygon class="st0" points="373.9,580.1 374.6,577.9 377,578.7 376.2,581 			"/>
			<polygon class="st0" points="334.6,581.2 332.4,580.5 331.7,582.7 333.9,583.4 			"/>
			<polygon class="st0" points="343.4,574.3 346.7,575.5 343.5,584.3 345.7,585.1 349.7,574.1 336.4,569.3 333.2,578.1 335.5,578.9 
				337.7,572.4 341.1,573.3 337.2,584.6 339.4,585.5 			"/>
			<polygon class="st0" points="359,579.7 362.3,581.1 359.9,587.7 362.2,588.4 365.2,579.6 351.9,574.9 347.2,588.2 349.4,589.1 
				353.5,577.8 356.7,579.1 353.6,588 355.8,588.7 			"/>
			<polygon class="st0" points="358.2,592.2 359.1,589.9 361.5,590.7 360.5,593 			"/>
			<polygon class="st0" points="369.7,581.1 367.5,580.5 362.9,593.7 376.2,598.5 380.2,587.3 377.9,586.6 374.9,595.4 371.4,594.4 
				373.7,587.6 371.5,586.8 369.2,593.5 365.8,592.3 			"/>
			<polygon class="st0" points="375.3,583.3 374.5,585.4 372.5,584.6 373.1,582.3 			"/>
			<polygon class="st0" points="354.8,623.6 352.6,622.6 351.7,624.9 354,625.8 			"/>
			<polygon class="st0" points="363.6,616.6 367,617.8 363.7,626.7 365.9,627.5 369.9,616.3 356.5,611.5 353.2,620.5 355.5,621.4 
				358,614.6 361.3,615.8 357.4,627 359.6,627.7 			"/>
			<polygon class="st0" points="342.6,619.2 339.3,617.8 341.6,611.3 339.3,610.5 336.3,619.4 349.6,624.2 354.3,610.8 352,610.1 
				348.1,621.1 344.9,619.9 347.9,611 345.7,610.3 			"/>
			<polygon class="st0" points="343.1,606.9 342.3,609.2 340.1,608.2 340.9,606.1 			"/>
			<polygon class="st0" points="331.9,617.8 334,618.6 338.6,605.3 325.4,600.5 321.4,611.7 323.7,612.4 326.7,603.5 330.1,604.7 
				327.8,611.5 330,612.2 332.4,605.5 335.7,606.7 			"/>
			<polygon class="st0" points="326.2,615.8 326.9,613.6 329.1,614.4 328.5,616.7 			"/>
			<polygon class="st0" points="360.2,608 358.1,607.1 357.3,609.3 359.5,610.2 			"/>
			<polygon class="st0" points="369,601 372.4,602.2 369.2,611.1 371.4,612 375.5,600.7 362.1,596 358.9,605 361.1,605.7 363.5,599 
				366.8,600.2 362.9,611.4 365.1,612.1 			"/>
			<polygon class="st0" points="353.4,595.5 356.7,596.6 354.5,603.4 356.7,604.1 359.8,595.2 346.5,590.4 341.7,603.9 343.9,604.7 
				347.8,593.5 351.1,594.8 348,603.5 350.2,604.4 			"/>
			<polygon class="st0" points="352.8,607.9 353.7,605.6 355.9,606.3 355.1,608.6 			"/>
			<polygon class="st0" points="333.1,585.6 330.7,585 326.1,598.3 339.5,603 343.3,591.9 341.1,591 338.1,599.9 334.8,598.7 
				337.1,592.2 334.9,591.2 332.4,598 329.2,596.8 			"/>
			<polygon class="st0" points="338.6,587.8 337.8,589.9 335.7,589.2 336.4,586.9 			"/>
		</g>
	</g>
</g>
<g>
	<g>
		<g>
			<polygon class="st0" points="86.8,97.4 88.5,92.1 83.3,90.5 81.6,95.6 			"/>
			<polygon class="st0" points="103.5,117.7 100.6,125.3 79.8,118.8 78,123.6 104.4,132.5 114.7,100.6 93.9,94 92.1,98.9 
				107.7,104.4 105.2,112.3 78.7,103.5 76.8,108.9 			"/>
			<polygon class="st0" points="96.4,68.3 98.7,60.2 114.9,65.6 116.3,60.2 95.5,53.2 84.7,84.9 116.5,95.2 118.5,90.2 91.7,81.3 
				94.7,73.6 115.6,80.6 117.2,75.1 			"/>
			<polygon class="st0" points="125.3,68.9 120.2,67.2 122,62.2 127.1,63.8 			"/>
			<polygon class="st0" points="137.6,31.8 139.1,26.6 107.4,16 97.2,48.1 123.3,56.6 125,51.3 104.2,44.7 106.6,36.4 122.8,41.9 
				124.2,36.5 108.4,31 111.2,23.4 			"/>
			<polygon class="st0" points="133.2,45.2 128,43.6 129.6,38 135.2,39.9 			"/>
			<polygon class="st0" points="137.8,137.6 136.1,142.9 141.4,144.6 142.9,139.3 			"/>
			<polygon class="st0" points="120.8,117.2 123.8,109.7 144.9,116.2 146.6,111.1 120,102.5 109.8,134.4 130.7,141 132.4,135.6 
				116.8,130.9 119.1,122.7 145.7,131.3 147.5,125.9 			"/>
			<polygon class="st0" points="133.3,80.1 135.9,72.4 151.7,77.6 153.5,72.2 132.4,65.5 121.8,97.2 153.6,107.7 155.4,102.3 
				128.7,93.5 131.7,85.7 152.8,92.5 154.3,87.3 			"/>
			<polygon class="st0" points="162.4,81.4 157.1,79.6 158.8,74.2 164.2,75.9 			"/>
			<polygon class="st0" points="135.8,54.9 134.4,60.3 165.8,70.4 176.4,38.7 149.8,30 148.3,35.5 169.3,42.4 166.8,50.3 
				150.6,45.1 149.1,50.3 165,55.6 162.2,63.5 			"/>
			<polygon class="st0" points="140.3,41.8 145.5,43.5 143.8,48.3 138.4,46.9 			"/>
			<polygon class="st0" points="236.5,87.9 234.5,93.2 239.7,94.8 241.7,89.5 			"/>
			<polygon class="st0" points="219.8,67.8 222.1,59.6 243.5,66.9 245.4,61.5 218.7,52.8 207.9,84.4 229.5,91.6 231.3,86.2 
				215.2,80.8 218,73 244.3,81.5 246,76.1 			"/>
			<polygon class="st0" points="226.8,117 223.8,124.8 208.2,119.5 206.6,125.1 227.6,131.8 238,100 206.3,89.4 204.9,95.2 
				231.2,103.5 228.4,111.4 207.3,104.5 205.6,109.8 			"/>
			<polygon class="st0" points="197.7,116.4 203.2,117.9 201.2,123.2 196,121.5 			"/>
			<polygon class="st0" points="224.3,142.2 225.8,137.2 194.4,126.7 183.5,158.2 210.3,167.1 211.9,161.6 190.8,155 193.4,147 
				209.1,152.1 211,147 195.1,141.6 197.7,133.4 			"/>
			<polygon class="st0" points="219.8,155.6 214.5,153.9 216.2,148.7 221.6,150.2 			"/>
			<polygon class="st0" points="199.6,75.7 197.7,80.8 202.9,82.8 204.7,77.5 			"/>
			<polygon class="st0" points="182.7,55.7 185,47.4 206.4,54.6 208.3,49.2 181.6,40.4 171.2,72.2 192.4,79.1 194.2,74 178.3,68.8 
				180.9,60.8 207.4,69.6 209,64.2 			"/>
			<polygon class="st0" points="170.4,92.6 173,84.5 189,89.8 190.6,84.5 169.4,77.6 158.9,109.1 190.7,119.9 192.5,114.6 
				165.9,105.9 168.6,98 189.8,104.6 191.7,99.5 			"/>
			<polygon class="st0" points="199.5,93.2 194,91.3 195.7,86.1 201.2,87.7 			"/>
			<polygon class="st0" points="148.5,140.9 146.9,146.4 178.5,156.8 188.9,125 162.5,116.4 160.8,121.8 181.8,128.5 179.2,136.3 
				163.3,131.1 161.6,136.5 177.5,141.8 174.9,149.5 			"/>
			<polygon class="st0" points="152.8,127.9 158,129.6 156.3,134.9 151.1,132.9 			"/>
		</g>
	</g>
</g>
</svg>
