<?xml version="1.0" encoding="utf-8"?>
<!-- Generator: Adobe Illustrator 24.3.0, SVG Export Plug-In . SVG Version: 6.00 Build 0)  -->
<svg version="1.1" id="Camada_1" xmlns="http://www.w3.org/2000/svg" xmlns:xlink="http://www.w3.org/1999/xlink" x="0px" y="0px"
	 width="500px" height="100px" viewBox="0 0 500 100" style="enable-background:new 0 0 500 100;" xml:space="preserve">
<style type="text/css">
	.st0{fill:#26262D;}
	.st1{fill:#24242B;}
	.st2{fill:#49D3FF;}
	.st3{fill:#FE5D7A;}
	.st4{fill:#FFCD4B;}
	.st5{fill:#1EED89;}
</style>
<path class="st0" d="M0,30.3c0,0,133.8-66.4,273.1,29.6c120.5,61.6,226.9,16,226.9,16V0H0V30.3z"/>
<g>
	<path class="st1" d="M273.1,59.9C133.8-36.1,0,30.3,0,30.3V100h500V75.9C500,75.9,393.6,121.6,273.1,59.9z"/>
</g>
<path class="st2" d="M125,14.9v-13C84.9,0,43.1,6.8,0,22.3v13.8C43.2,19.9,85.1,12.9,125,14.9z"/>
<path class="st3" d="M125,14.9c10.9,0.5,21.6,1.8,32.1,3.7c38.4,6.9,65.1,20.6,92.9,35.3V39.2c-25.7-13.5-53.2-26.6-90.6-33.4
	c-11.3-2-22.8-3.3-34.4-3.9V14.9z"/>
<path class="st4" d="M375,84c-4.9-0.5-9.9-1.2-14.8-2c-42.5-6.9-70.9-22-100.9-37.9c-3.1-1.6-6.2-3.3-9.3-4.9v14.6
	c1.1,0.6,2.2,1.1,3.2,1.7c29.6,15.7,60.3,31.9,104.9,39.2c5.6,0.9,11.2,1.7,16.9,2.2V84z"/>
<path class="st5" d="M375,84v13c9.4,1,19,1.4,28.5,1.4c31.6,0,63.9-5.2,96.5-15.7V69.2C457.5,83.3,415.6,88.3,375,84z"/>
</svg>
