<?xml version="1.0" encoding="utf-8"?>
<!-- Generator: Adobe Illustrator 24.3.0, SVG Export Plug-In . SVG Version: 6.00 Build 0)  -->
<svg version="1.1" id="Camada_1" xmlns="http://www.w3.org/2000/svg" xmlns:xlink="http://www.w3.org/1999/xlink" x="0px" y="0px"
	 width="500px" height="180px" viewBox="0 0 500 180" style="enable-background:new 0 0 500 180;" xml:space="preserve">
<style type="text/css">
	.st0{fill:url(#SVGID_1_);}
	.st1{fill:#FFCD4B;}
	.st2{fill:#49D3FF;}
	.st3{fill:#1EED89;}
	.st4{fill:#555560;}
	.st5{fill:#FE5D7A;}
	.st6{fill:#32323A;}
	.st7{fill:#FFFFFF;}
</style>
<linearGradient id="SVGID_1_" gradientUnits="userSpaceOnUse" x1="250" y1="2" x2="250" y2="182" gradientTransform="matrix(1 0 0 -1 0 182)">
	<stop  offset="0" style="stop-color:#000000"/>
	<stop  offset="1" style="stop-color:#18181C"/>
</linearGradient>
<rect class="st0" width="500" height="180"/>
<path class="st1" d="M7.3,47c1.7-0.7,3.5-1.3,5.2-2l0.7,1.8c-1.7,0.7-3.5,1.4-5.2,2L7.3,47z"/>
<path class="st2" d="M17.8,43c1.5-0.6,3.2-1.3,4.7-1.9l0.5-0.2l0.7,1.8l-0.5,0.2c-1.6,0.7-3.2,1.3-4.7,1.9L17.8,43z"/>
<path class="st3" d="M28.3,38.8c1.7-0.7,3.4-1.4,5.2-2.1l0.7,1.8c-1.8,0.7-3.5,1.4-5.2,2.1L28.3,38.8z"/>
<path class="st4" d="M247.6,40v-1.9h1.1c0.7,0,1.3,0,2,0c0.8,0,1.6,0,2.5,0V40c-0.9,0-1.7,0-2.6,0c-0.7,0-1.4,0-2,0H247.6z"/>
<path class="st4" d="M236.3,39.7l0.1-1.9c1.8,0.1,3.7,0.2,5.6,0.2v1.9C240.1,39.9,238.2,39.8,236.3,39.7z"/>
<path class="st4" d="M258.7,37.9c1.9,0,3.8-0.1,5.6-0.2l0.1,1.9c-1.8,0.1-3.7,0.1-5.6,0.2L258.7,37.9z"/>
<path class="st4" d="M225.1,39.1l0.2-1.9c1.8,0.1,3.7,0.3,5.6,0.3l-0.1,1.9C228.8,39.4,227,39.3,225.1,39.1z"/>
<path class="st4" d="M269.8,37.5c1.9-0.1,3.8-0.2,5.6-0.3l0.2,1.9c-1.8,0.1-3.7,0.3-5.6,0.3L269.8,37.5z"/>
<path class="st4" d="M214,38l0.3-1.9c1.8,0.2,3.6,0.4,5.5,0.6l-0.2,1.9C217.7,38.4,215.8,38.3,214,38z"/>
<path class="st4" d="M281,36.6c1.9-0.2,3.7-0.4,5.5-0.6l0.2,2c-1.8,0.3-3.7,0.4-5.6,0.6L281,36.6z"/>
<path class="st4" d="M202.9,36.3l0.3-1.9c1.8,0.3,3.7,0.7,5.5,0.9l-0.3,1.9C206.6,37,204.7,36.6,202.9,36.3z"/>
<path class="st4" d="M292,35.3c1.9-0.3,3.7-0.6,5.5-0.9l0.3,1.9c-1.8,0.3-3.6,0.6-5.5,0.9L292,35.3z"/>
<path class="st5" d="M38.8,34.8c1.8-0.6,3.5-1.3,5.3-1.9l0.6,1.8c-1.8,0.6-3.5,1.3-5.2,1.9L38.8,34.8z"/>
<path class="st4" d="M303,33.5c1.9-0.3,3.7-0.7,5.5-1l0.3,1.9c-1.8,0.3-3.6,0.7-5.5,1L303,33.5z"/>
<path class="st4" d="M192,33.9l0.4-1.9c1.8,0.4,3.6,0.9,5.4,1.3l-0.4,1.9C195.6,34.7,193.8,34.3,192,33.9z"/>
<path class="st4" d="M313.9,31.2c1.8-0.3,3.6-0.8,5.4-1.2l0.4,1.9c-1.7,0.4-3.6,0.9-5.4,1.3L313.9,31.2z"/>
<path class="st4" d="M49.4,31.1c1.7-0.5,3.5-1.1,5.3-1.6l0.5,1.8c-1.8,0.5-3.6,1-5.3,1.6L49.4,31.1z"/>
<path class="st4" d="M181.2,30.8l0.5-1.8c1.7,0.5,3.5,1,5.3,1.5l-0.5,1.9C184.7,31.8,182.9,31.3,181.2,30.8z"/>
<path class="st1" d="M324.8,28.7c1.8-0.4,3.6-0.9,5.4-1.4l0.4,1.9c-1.8,0.4-3.6,0.9-5.4,1.4L324.8,28.7z"/>
<path class="st4" d="M60.3,27.9c1.8-0.5,3.6-1,5.4-1.5l0.4,1.9c-1.8,0.4-3.6,0.9-5.4,1.4L60.3,27.9z"/>
<path class="st4" d="M170.5,27.5l0.5-1.8c1.8,0.5,3.5,1,5.3,1.6l-0.5,1.8C174,28.6,172.3,28,170.5,27.5z"/>
<polygon class="st3" points="335.6,26 341,24.6 341.5,26.4 336.1,27.9 "/>
<path class="st4" d="M71,25.2c1.8-0.3,3.7-0.8,5.5-1.1l0.3,1.9c-1.8,0.3-3.6,0.7-5.4,1.1L71,25.2z"/>
<path class="st6" d="M159.8,24.5l0.4-1.9c1.7,0.3,3.5,0.9,5.4,1.4l-0.5,1.9C163.2,25.4,161.5,24.9,159.8,24.5z"/>
<path class="st2" d="M346.4,23.1c1.8-0.5,3.6-0.9,5.4-1.4l0.4,1.9c-1.8,0.5-3.6,0.9-5.4,1.4L346.4,23.1z"/>
<path class="st4" d="M82.1,23c1.8-0.3,3.6-0.7,5.5-0.9l0.3,1.9c-1.9,0.3-3.7,0.5-5.5,0.9L82.1,23z"/>
<path class="st4" d="M148.9,22.4l0.3-1.9c1.8,0.3,3.7,0.6,5.5,0.9l-0.3,1.9C152.5,23,150.7,22.7,148.9,22.4z"/>
<path class="st4" d="M93.1,21.3c1.8-0.3,3.7-0.5,5.6-0.7l0.2,1.9c-1.9,0.3-3.7,0.4-5.5,0.7L93.1,21.3z"/>
<path class="st5" d="M357.3,20.6c1.8-0.4,3.6-0.8,5.5-1.2l0.3,1.9c-1.8,0.4-3.6,0.8-5.4,1.2L357.3,20.6z"/>
<path class="st4" d="M104.4,20.1c1.5-0.2,3.2-0.3,4.8-0.4l0.8-0.1l0.1,1.9l-0.8,0.1c-1.6,0.2-3.3,0.3-4.8,0.4L104.4,20.1z"/>
<path class="st7" d="M490.4,20.8l0.3-1.9c1.8,0.3,3.7,0.7,5.5,1l-0.3,1.9C494,21.5,492.2,21.2,490.4,20.8z"/>
<path class="st4" d="M137.9,21.3l0.1-1.9c1.9,0.1,3.8,0.3,5.6,0.4l-0.2,1.9C141.6,21.5,139.8,21.4,137.9,21.3z"/>
<path class="st4" d="M115.5,19.3c1.9-0.2,3.8-0.2,5.6-0.3l0.1,1.9c-1.8,0.1-3.7,0.2-5.6,0.3L115.5,19.3z"/>
<path class="st4" d="M126.9,20.9h-0.3V19h0.3c1.9,0,3.7,0,5.4,0.1l-0.1,1.9C130.5,21,128.8,20.9,126.9,20.9z"/>
<path class="st4" d="M368.3,18.3c1.8-0.3,3.6-0.7,5.5-1l0.3,1.9c-1.9,0.3-3.7,0.6-5.5,0.9L368.3,18.3z"/>
<path class="st4" d="M479.4,18.7l0.3-1.9c1.9,0.3,3.7,0.7,5.5,1l-0.3,1.9C483.2,19.3,481.3,19,479.4,18.7z"/>
<path class="st4" d="M379.3,16.4c1.9-0.3,3.7-0.5,5.6-0.8l0.3,1.9c-1.9,0.3-3.7,0.5-5.5,0.8L379.3,16.4z"/>
<path class="st4" d="M468.4,16.9l0.3-1.9c1.9,0.3,3.7,0.5,5.6,0.8l-0.3,1.9C472.1,17.5,470.3,17.2,468.4,16.9z"/>
<path class="st4" d="M390.4,15c1.8-0.3,3.7-0.4,5.6-0.6l0.2,1.9c-1.9,0.3-3.7,0.4-5.5,0.6L390.4,15z"/>
<path class="st4" d="M457.4,15.7l0.2-1.9c1.9,0.2,3.8,0.3,5.6,0.5l-0.2,1.9C461.2,16.1,459.3,15.9,457.4,15.7z"/>
<path class="st4" d="M401.6,13.9c1.8-0.1,3.7-0.3,5.6-0.3l0.1,1.9c-1.9,0.1-3.8,0.2-5.6,0.3L401.6,13.9z"/>
<path class="st4" d="M446.3,15.1l0.1-1.9c2,0.1,3.8,0.2,5.6,0.3l-0.1,1.9C450.1,15.3,448.3,15.2,446.3,15.1z"/>
<path class="st6" d="M412.8,13.3c1.8-0.1,3.7-0.1,5.6-0.2l0.1,1.9c-1.9,0-3.8,0.1-5.6,0.2L412.8,13.3z"/>
<path class="st4" d="M435.2,14.9V13c1.9,0,3.8,0,5.6,0.1l-0.1,1.9C439,14.9,437.1,14.9,435.2,14.9z"/>
<path class="st4" d="M424,13c1.8-0.1,3.7-0.1,5.6-0.1v1.9c-1.9,0.1-3.8,0.1-5.6,0.1V13z"/>
<path class="st6" d="M23.4,17.4l0.3-1.9c1.8,0.3,3.7,0.8,5.5,1.1l-0.3,1.9C27.2,18.1,25.4,17.7,23.4,17.4z"/>
<path class="st4" d="M12.3,15.6l0.3-1.9c2,0.3,3.8,0.6,5.6,0.9l-0.3,1.9C16.2,16.2,14.3,15.8,12.3,15.6z"/>
<path class="st4" d="M1.3,14.3l0.2-1.9c1.9,0.2,3.8,0.4,5.6,0.6l-0.2,1.9C5.1,14.7,3.3,14.4,1.3,14.3z"/>
<path class="st4" d="M1.8,76v-1.9c1.3,0,2.8,0,4.1,0h1.4V76H5.9C4.4,76,3,76,1.8,76z"/>
<path class="st6" d="M12.8,74c1.8-0.1,3.7-0.1,5.6-0.2l0.1,1.9c-1.9,0.1-3.8,0.2-5.6,0.2L12.8,74z"/>
<path class="st2" d="M234.2,75.5v-1.9h0.4c1.7,0,3.4,0,5.2-0.1l0.1,1.9c-1.7,0.1-3.4,0.1-5.2,0.1H234.2L234.2,75.5z"/>
<path class="st4" d="M24,73.5c1-0.1,2-0.1,3-0.2c0.9-0.1,1.7-0.1,2.6-0.2l0.1,1.9c-0.9,0.1-1.7,0.1-2.6,0.2c-1,0.1-2,0.1-3,0.2
	L24,73.5z"/>
<path class="st1" d="M224.3,75.3l-1.2-0.1l0.1-1.9l1.2,0.1c1.5,0.1,2.9,0.2,4.4,0.2l-0.1,1.9C227.3,75.4,225.8,75.4,224.3,75.3z"/>
<path class="st3" d="M245.4,73.4c1.8-0.1,3.7-0.3,5.5-0.4l0.2,1.9c-1.8,0.2-3.7,0.3-5.6,0.4L245.4,73.4z"/>
<path class="st4" d="M212,74.4l0.2-1.9c1.8,0.3,3.7,0.3,5.5,0.5l-0.2,1.9C215.6,74.8,213.7,74.6,212,74.4z"/>
<path class="st4" d="M35.2,72.9c1.9-0.2,3.7-0.3,5.5-0.5l0.2,1.9c-1.8,0.2-3.6,0.3-5.6,0.5L35.2,72.9z"/>
<path class="st5" d="M256.4,72.3c1.9-0.3,3.7-0.5,5.5-0.9l0.3,1.9c-1.9,0.3-3.7,0.6-5.6,0.9L256.4,72.3z"/>
<path class="st4" d="M200.8,73l0.3-1.9c1.8,0.3,3.7,0.5,5.5,0.8l-0.3,1.9C204.5,73.5,202.6,73.3,200.8,73z"/>
<path class="st4" d="M46.2,71.7c1.8-0.3,3.7-0.5,5.5-0.8l0.3,1.9c-1.9,0.3-3.7,0.5-5.6,0.8L46.2,71.7z"/>
<path class="st4" d="M267.4,70.4c1.8-0.3,3.6-0.9,5.4-1.3l0.4,1.9c-1.9,0.4-3.7,0.9-5.5,1.3L267.4,70.4z"/>
<path class="st4" d="M189.7,71.1l0.3-1.9c1.8,0.3,3.6,0.7,5.5,1l-0.3,1.9C193.4,71.7,191.5,71.4,189.7,71.1z"/>
<path class="st4" d="M57.2,70c1.8-0.3,3.6-0.7,5.5-1l0.3,1.9c-1.9,0.3-3.7,0.7-5.5,1L57.2,70z"/>
<polygon class="st4" points="178.8,68.8 179.2,66.9 184.7,68 184.2,69.9 "/>
<path class="st4" d="M68.1,67.9c1.7-0.3,3.4-0.8,5.2-1.1l0.3-0.1l0.4,1.9l-0.3,0.1c-1.7,0.3-3.4,0.8-5.2,1.1L68.1,67.9z"/>
<path class="st4" d="M278.1,67.6c1.7-0.5,3.4-1.1,5.2-1.7l0.6,1.8c-1.8,0.6-3.6,1.2-5.3,1.7L278.1,67.6z"/>
<path class="st4" d="M167.8,66.7l0.3-1.9c1.9,0.3,3.7,0.7,5.5,1l-0.3,1.9C171.5,67.4,169.7,67,167.8,66.7z"/>
<path class="st4" d="M78.9,65.5c1.8-0.3,3.6-0.8,5.5-1.1l0.3,1.9c-1.8,0.3-3.6,0.8-5.4,1.1L78.9,65.5z"/>
<path class="st4" d="M288.6,63.9c1.8-0.6,3.5-1.3,5.2-2l0.7,1.8c-1.7,0.7-3.5,1.4-5.2,2.1L288.6,63.9z"/>
<path class="st4" d="M156.8,64.9l0.3-1.9c1.9,0.3,3.7,0.5,5.6,0.8l-0.3,1.9C160.5,65.5,158.7,65.2,156.8,64.9z"/>
<path class="st4" d="M485,65.1l0.3-1.9c1.8,0.3,3.6,0.4,5.5,0.6l-0.2,1.9C488.7,65.5,486.8,65.4,485,65.1z"/>
<path class="st4" d="M89.9,63.5c1.9-0.3,3.7-0.5,5.6-0.8l0.3,1.9c-1.9,0.3-3.7,0.5-5.5,0.8L89.9,63.5z"/>
<path class="st4" d="M473.9,63.5l0.3-1.9c1.8,0.3,3.7,0.6,5.5,0.9l-0.3,1.9C477.6,64.1,475.8,63.8,473.9,63.5z"/>
<path class="st4" d="M145.8,63.8l0.2-1.9c1.9,0.2,3.8,0.3,5.6,0.5l-0.2,1.9C149.5,64.2,147.7,64,145.8,63.8z"/>
<path class="st4" d="M101.1,62.1c1.8-0.2,3.7-0.3,5.6-0.4l0.1,1.9c-1.8,0.1-3.7,0.3-5.5,0.4L101.1,62.1z"/>
<path class="st4" d="M134.7,63.2l0.1-1.9c1.9,0.1,3.8,0.2,5.6,0.3l-0.1,1.9C138.5,63.4,136.6,63.3,134.7,63.2z"/>
<path class="st4" d="M112.4,61.4c1.8-0.1,3.6-0.2,5.6-0.2v1.9c-2,0.1-3.8,0.1-5.6,0.2V61.4z"/>
<path class="st4" d="M123.9,63.1h-0.4v-1.9h0.4c1.7,0,3.5,0,5.2,0v1.9C127.5,63.1,125.7,63.1,123.9,63.1z"/>
<path class="st6" d="M462.9,61.2l0.4-1.9c1.8,0.4,3.6,0.9,5.4,1.2l-0.3,1.9C466.6,62.1,464.8,61.7,462.9,61.2z"/>
<path class="st4" d="M298.9,59.9c1.7-0.7,3.5-1.4,5.2-2.1l0.7,1.8c-1.7,0.7-3.4,1.4-5.2,2.1L298.9,59.9z"/>
<path class="st4" d="M452.1,58.6l0.4-1.9c1.8,0.4,3.6,0.9,5.4,1.4l-0.4,1.9C455.7,59.4,453.9,59,452.1,58.6z"/>
<path class="st4" d="M309.5,55.8c1.9-0.7,3.6-1.3,5.3-1.9l0.6,1.8c-1.7,0.6-3.4,1.2-5.2,1.9L309.5,55.8z"/>
<path class="st4" d="M441.6,55.6l-0.3-0.1l0.5-1.9l0.3,0.1c1.6,0.5,3.3,1,5,1.5l-0.5,1.9C445,56.5,443.3,56.1,441.6,55.6z"/>
<path class="st4" d="M320.1,52.1c1.8-0.5,3.6-1,5.4-1.5l0.5,1.9c-1.7,0.4-3.5,1-5.3,1.5L320.1,52.1z"/>
<path class="st4" d="M430.5,52.6l0.4-1.9c1.8,0.4,3.6,0.9,5.4,1.5l-0.5,1.9C434.1,53.5,432.3,53,430.5,52.6z"/>
<path class="st4" d="M419.7,49.8l0.3-1.9c1.8,0.4,3.6,0.9,5.5,1.3l-0.4,1.9C423.2,50.7,421.4,50.2,419.7,49.8z"/>
<path class="st4" d="M331,49.2c1.8-0.4,3.7-0.9,5.5-1.2l0.3,1.9c-1.8,0.3-3.6,0.8-5.4,1.2L331,49.2z"/>
<path class="st4" d="M342,47c1.8-0.3,3.6-0.6,5.5-0.9l0.3,1.9c-1.9,0.3-3.7,0.5-5.5,0.9L342,47z"/>
<path class="st4" d="M408.8,47.8l0.3-1.9c1.8,0.3,3.7,0.6,5.5,0.9l-0.3,1.9C412.4,48.4,410.6,48.1,408.8,47.8z"/>
<path class="st4" d="M353,45.3c1.8-0.3,3.7-0.4,5.6-0.6l0.2,1.9c-1.8,0.2-3.7,0.4-5.5,0.6L353,45.3z"/>
<path class="st4" d="M397.8,46.4l0.2-1.9c1.9,0.2,3.8,0.3,5.6,0.6l-0.3,1.9C401.5,46.9,399.6,46.6,397.8,46.4z"/>
<path class="st4" d="M364.2,44.4c1.1-0.1,2.2-0.1,3.4-0.2c0.8,0,1.5-0.1,2.2-0.1l0.1,1.9c-0.8,0-1.5,0.1-2.2,0.1
	c-1.1,0-2.2,0.1-3.3,0.2L364.2,44.4z"/>
<path class="st4" d="M386.6,45.8l0.1-1.9c1.9,0.1,3.8,0.2,5.6,0.3l-0.1,1.9C390.4,45.9,388.5,45.9,386.6,45.8z"/>
<path class="st4" d="M375.5,43.9c1.6-0.1,3.3-0.1,4.8-0.1h0.8v1.9h-0.8c-1.6,0-3.2,0.1-4.8,0.1V43.9z"/>
<path class="st4" d="M269.1,21.4c1.8,0,3.7-0.1,5.5-0.3l0.2,1.9c-1.8,0.2-3.7,0.3-5.6,0.3L269.1,21.4z"/>
<path class="st4" d="M261.4,23.2c-1.1-0.1-2.2-0.2-3.4-0.3l0.2-1.9c1,0.1,2.2,0.2,3.3,0.3c0.8,0,1.5,0.1,2.2,0.1l-0.1,1.9
	C262.9,23.2,262.1,23.2,261.4,23.2z"/>
<path class="st4" d="M280.2,20.6c1.8-0.3,3.7-0.5,5.5-0.9l0.3,1.9c-1.9,0.3-3.8,0.6-5.6,0.9L280.2,20.6z"/>
<path class="st4" d="M246.9,21.2l0.3-1.9c1.9,0.4,3.6,0.8,5.4,1l-0.3,1.9C250.6,21.9,248.8,21.6,246.9,21.2z"/>
<path class="st4" d="M291.2,18.7c1.8-0.4,3.6-0.9,5.4-1.4l0.5,1.9c-1.9,0.5-3.7,0.9-5.5,1.4L291.2,18.7z"/>
<path class="st4" d="M235.9,18.6l0.4-1.9c1.9,0.4,3.6,0.9,5.4,1.4l-0.4,1.9C239.6,19.5,237.7,19,235.9,18.6z"/>
<path class="st4" d="M301.9,15.6c1.7-0.6,3.5-1.2,5.2-1.9l0.6,1.8c-1.8,0.7-3.5,1.3-5.3,1.9L301.9,15.6z"/>
<path class="st2" d="M225.1,15.7l0.4-1.9c1.9,0.4,3.7,0.9,5.4,1.4l-0.4,1.9C228.8,16.7,227,16.2,225.1,15.7z"/>
<path class="st3" d="M214.3,13.2l0.3-1.9c1.8,0.4,3.6,0.8,5.5,1.2l-0.4,1.9C217.9,14,216.1,13.7,214.3,13.2z"/>
<path class="st4" d="M312.3,11.7c1.6-0.7,3.4-1.5,5.1-2.2l0.8,1.7c-1.7,0.9-3.4,1.6-5.2,2.3L312.3,11.7z"/>
<path class="st1" d="M203.3,11.3l0.3-1.9c1.9,0.3,3.7,0.6,5.5,0.9l-0.3,1.9C207,11.9,205.2,11.6,203.3,11.3z"/>
<path class="st5" d="M192.2,9.8l0.2-1.9c1.8,0.2,3.7,0.4,5.6,0.7l-0.3,1.9C195.8,10.2,194,10.1,192.2,9.8z"/>
<path class="st4" d="M181.1,8.8l0.2-1.9c1.8,0.1,3.7,0.3,5.6,0.4l-0.2,1.9C184.8,9,182.9,8.9,181.1,8.8z"/>
<path class="st4" d="M322.5,7c1.6-0.9,3.3-1.7,4.9-2.7l0.9,1.7c-1.6,0.9-3.4,1.8-5,2.7L322.5,7z"/>
<path class="st4" d="M170,8.2l0.1-1.9c1.8,0.1,3.7,0.2,5.6,0.3l-0.1,1.9C173.7,8.3,171.8,8.2,170,8.2z"/>
<path class="st4" d="M158.9,8.1V6.2c1.7,0,3.6,0,5.6,0v1.9C162.5,8.1,160.7,8.1,158.9,8.1z"/>
<path class="st4" d="M421.3,78.6l0.6-1.8c1.7,0.7,3.5,1.4,5.2,2.1l-0.7,1.8C424.8,79.9,423,79.2,421.3,78.6z"/>
<path class="st4" d="M410.8,75l0.5-1.8c1.7,0.5,3.5,1.1,5.3,1.7l-0.6,1.8C414.3,76.1,412.5,75.6,410.8,75z"/>
<path class="st4" d="M311.5,73.2c1.8-0.5,3.6-1,5.4-1.5l0.4,1.9c-1.8,0.5-3.6,1-5.3,1.5L311.5,73.2z"/>
<path class="st7" d="M399.9,72.2l0.4-1.9c1.8,0.4,3.6,0.9,5.4,1.4l-0.4,1.9C403.5,73,401.7,72.6,399.9,72.2z"/>
<path class="st4" d="M322.3,70.4c1.8-0.4,3.7-0.9,5.5-1.2l0.3,1.9c-1.8,0.3-3.6,0.8-5.4,1.2L322.3,70.4z"/>
<path class="st7" d="M389.1,69.9l0.3-1.9c1.8,0.3,3.7,0.7,5.5,1l-0.3,1.9C392.7,70.6,390.9,70.3,389.1,69.9z"/>
<path class="st4" d="M333.3,68.1c1.9-0.3,3.8-0.6,5.6-0.9l0.3,1.9c-1.8,0.3-3.7,0.5-5.5,0.9L333.3,68.1z"/>
<path class="st7" d="M378.1,68.6l0.2-1.9c1.9,0.2,3.7,0.3,5.6,0.6l-0.3,1.9C381.7,68.9,379.9,68.7,378.1,68.6z"/>
<path class="st4" d="M344.5,66.7c1.9-0.2,3.7-0.3,5.6-0.4l0.1,1.9c-1.8,0.1-3.7,0.3-5.5,0.4L344.5,66.7z"/>
<path class="st7" d="M366.9,67.8v-0.9L367,66c1.9,0.1,3.8,0.2,5.6,0.3l-0.1,1.9C370.7,68,368.8,67.9,366.9,67.8z"/>
<path class="st4" d="M355.8,66c1.8-0.1,3.7-0.1,5.6-0.1v1.9c-1.9,0-3.7,0-5.6,0.1V66z"/>
<path class="st4" d="M166.8,50.6l0.7-1.8c1.7,0.7,3.5,1.4,5.2,2.2l-0.7,1.8C170.3,52,168.6,51.3,166.8,50.6z"/>
<path class="st4" d="M57.1,52.4v-1.9c1.8,0,3.6,0,5.6,0v1.9c-1,0-2,0-2.9,0C58.8,52.4,57.9,52.4,57.1,52.4z"/>
<path class="st4" d="M45.7,51.9l0.2-1.9c1.9,0.2,3.8,0.3,5.6,0.3l-0.1,1.9C49.6,52.1,47.7,52,45.7,51.9z"/>
<path class="st6" d="M68.1,50.3c1.9-0.1,3.8-0.2,5.6-0.3l0.2,1.9c-1.8,0.2-3.7,0.3-5.6,0.3L68.1,50.3z"/>
<path class="st4" d="M79.3,49.5c1.9-0.2,3.7-0.4,5.5-0.7l0.3,1.9c-1.8,0.3-3.7,0.5-5.6,0.7L79.3,49.5z"/>
<path class="st4" d="M90.3,47.9c1.8-0.3,3.6-0.6,5.5-1l0.3,1.9c-1.9,0.3-3.7,0.7-5.5,1L90.3,47.9z"/>
<path class="st4" d="M156.4,47.1l0.5-1.9c1.8,0.5,3.6,1,5.4,1.6l-0.6,1.8C159.9,48.1,158.1,47.6,156.4,47.1z"/>
<path class="st7" d="M101.1,45.7l2.4-0.5c1-0.3,2.1-0.4,3.1-0.7l0.4,1.9c-0.9,0.3-2,0.4-3,0.7l-2.4,0.5L101.1,45.7z"/>
<path class="st4" d="M145.6,44.6l0.3-1.9c1.8,0.3,3.7,0.7,5.5,1.1l-0.4,1.9C149.1,45.3,147.3,45,145.6,44.6z"/>
<path class="st7" d="M112.1,43.3c2-0.4,3.8-0.7,5.6-0.9l0.3,1.9c-1.7,0.3-3.5,0.6-5.4,0.9L112.1,43.3z"/>
<path class="st7" d="M134.5,43.4l0.1-1.9c1.8,0.1,3.7,0.3,5.6,0.4l-0.2,1.9C138.2,43.7,136.3,43.5,134.5,43.4z"/>
<path class="st7" d="M123.4,41.7c1-0.1,2.1-0.1,3.2-0.2c0.8-0.1,1.5-0.1,2.4-0.1v1.9c-0.9,0-1.6,0.1-2.4,0.1c-1.1,0-2.2,0.1-3.2,0.2
	V41.7z"/>
<path class="st4" d="M446.1,137v1.9H445c-0.7,0-1.3,0-2,0c-0.8,0-1.6,0-2.5,0V137c0.9,0,1.7,0,2.6,0c0.7,0,1.4,0,2,0H446.1z"/>
<path class="st4" d="M457.4,137.2l-0.1,1.9c-1.8-0.1-3.7-0.2-5.6-0.2V137C453.6,137,455.5,137.1,457.4,137.2z"/>
<path class="st4" d="M435.1,139c-1.9,0-3.8,0.1-5.6,0.2l-0.1-1.9c1.8-0.1,3.7-0.1,5.6-0.2L435.1,139z"/>
<path class="st4" d="M468.6,137.8l-0.2,1.9c-1.8-0.1-3.7-0.3-5.6-0.3l0.1-1.9C464.9,137.6,466.7,137.6,468.6,137.8z"/>
<path class="st4" d="M424,139.4c-1.9,0.1-3.8,0.2-5.6,0.3l-0.2-1.9c1.8-0.1,3.7-0.3,5.6-0.3L424,139.4z"/>
<path class="st4" d="M479.7,138.9l-0.3,1.9c-1.8-0.2-3.6-0.4-5.5-0.6l0.2-1.9C476,138.5,477.9,138.7,479.7,138.9z"/>
<path class="st4" d="M412.7,140.4c-1.9,0.2-3.7,0.4-5.5,0.6l-0.2-2c1.8-0.3,3.7-0.4,5.6-0.6L412.7,140.4z"/>
<path class="st4" d="M490.8,140.7l-0.3,1.9c-1.8-0.3-3.7-0.7-5.5-0.9l0.3-1.9C487.1,140,489,140.3,490.8,140.7z"/>
<path class="st4" d="M401.7,141.7c-1.9,0.3-3.7,0.6-5.5,0.9l-0.3-1.9c1.8-0.3,3.6-0.6,5.5-0.9L401.7,141.7z"/>
<path class="st4" d="M390.8,143.4c-1.9,0.3-3.7,0.7-5.5,1l-0.3-1.9c1.8-0.3,3.6-0.7,5.5-1L390.8,143.4z"/>
<path class="st4" d="M379.8,145.7c-1.8,0.3-3.6,0.8-5.4,1.2L374,145c1.7-0.4,3.6-0.9,5.4-1.3L379.8,145.7z"/>
<path class="st1" d="M368.9,148.2c-1.8,0.4-3.6,0.9-5.4,1.4l-0.4-1.9c1.8-0.4,3.6-0.9,5.4-1.4L368.9,148.2z"/>
<polygon class="st3" points="358.2,151 352.7,152.4 352.2,150.5 357.6,149.1 "/>
<path class="st2" d="M347.3,153.8c-1.8,0.5-3.6,0.9-5.4,1.4l-0.4-1.9c1.8-0.5,3.6-0.9,5.4-1.4L347.3,153.8z"/>
<path class="st7" d="M170,152.4l-0.1,1.9c-1.8-0.1-3.7-0.1-5.6-0.1v-1.9C166.2,152.3,168.1,152.3,170,152.4z"/>
<path class="st4" d="M158.8,154.2c-1.8,0.1-3.7,0.1-5.6,0.2l-0.1-1.9c1.9-0.1,3.8-0.2,5.6-0.2L158.8,154.2z"/>
<path class="st7" d="M181.1,152.9l-0.2,1.9c-1.8-0.1-3.6-0.3-5.5-0.3l0.1-1.9C177.4,152.6,179.3,152.7,181.1,152.9z"/>
<path class="st4" d="M147.6,154.6c-1.9,0.2-3.8,0.3-5.6,0.3l-0.1-1.9c1.8-0.2,3.7-0.3,5.6-0.3L147.6,154.6z"/>
<path class="st4" d="M136.5,155.3c-1.9,0.1-3.8,0.3-5.6,0.4l-0.2-1.9c1.8-0.2,3.7-0.3,5.6-0.4L136.5,155.3z"/>
<path class="st7" d="M192.3,154.2l-0.3,1.9c-1.9-0.3-3.7-0.6-5.5-0.8l0.2-1.9C188.6,153.6,190.4,153.9,192.3,154.2z"/>
<path class="st4" d="M125.3,156.2c-1.8,0.2-3.7,0.4-5.5,0.6l-0.2-1.9c1.9-0.2,3.7-0.4,5.6-0.6L125.3,156.2z"/>
<path class="st5" d="M336.4,156.4c-1.8,0.4-3.6,0.8-5.5,1.2l-0.3-1.9c1.8-0.4,3.6-0.8,5.4-1.2L336.4,156.4z"/>
<path class="st7" d="M203.3,156.1l-0.3,1.9c-1.8-0.3-3.7-0.7-5.5-1l0.3-1.9C199.7,155.5,201.5,155.8,203.3,156.1z"/>
<path class="st4" d="M114.2,157.5c-1.8,0.2-3.7,0.4-5.5,0.7l-0.3-1.9c1.9-0.2,3.7-0.4,5.6-0.7L114.2,157.5z"/>
<path class="st4" d="M325.5,158.6c-1.8,0.3-3.6,0.7-5.5,1l-0.3-1.9c1.9-0.3,3.7-0.6,5.5-0.9L325.5,158.6z"/>
<path class="st4" d="M103.2,159c-1.8,0.3-3.7,0.5-5.5,0.8l-0.3-1.9c1.8-0.3,3.6-0.5,5.5-0.8L103.2,159z"/>
<path class="st4" d="M214.3,158.3l-0.3,1.9c-1.9-0.3-3.7-0.7-5.5-1l0.3-1.9C210.5,157.6,212.4,157.9,214.3,158.3z"/>
<path class="st4" d="M314.4,160.5c-1.9,0.3-3.7,0.5-5.6,0.8l-0.3-1.9c1.9-0.3,3.7-0.5,5.5-0.8L314.4,160.5z"/>
<polygon class="st4" points="92.1,160.7 86.6,161.5 86.4,159.6 91.9,158.7 "/>
<path class="st4" d="M225.3,160l-0.3,1.9c-1.9-0.3-3.7-0.5-5.6-0.8l0.3-1.9C221.6,159.5,223.4,159.8,225.3,160z"/>
<path class="st4" d="M303.3,162c-1.8,0.3-3.7,0.4-5.6,0.6l-0.2-1.9c1.9-0.3,3.7-0.4,5.5-0.6L303.3,162z"/>
<path class="st4" d="M81.1,162.3c-1.8,0.3-3.6,0.6-5.5,0.9l-0.3-1.9c1.8-0.3,3.7-0.6,5.5-0.9L81.1,162.3z"/>
<path class="st4" d="M236.3,161.2l-0.2,1.9c-1.9-0.2-3.8-0.3-5.6-0.5l0.2-1.9C232.5,160.9,234.4,161,236.3,161.2z"/>
<path class="st4" d="M292.1,163c-1.8,0.1-3.7,0.3-5.6,0.3l-0.1-1.9c1.9-0.1,3.8-0.2,5.6-0.3L292.1,163z"/>
<path class="st4" d="M247.4,161.8l-0.1,1.9c-2-0.1-3.8-0.2-5.6-0.3l0.1-1.9C243.6,161.6,245.4,161.7,247.4,161.8z"/>
<path class="st6" d="M280.9,163.6c-1.8,0.1-3.7,0.1-5.6,0.2l-0.1-1.9c1.9,0,3.8-0.1,5.6-0.2L280.9,163.6z"/>
<path class="st4" d="M258.5,162.1v1.9c-1.9,0-3.8,0-5.6-0.1l0.1-1.9C254.7,162.1,256.6,162.1,258.5,162.1z"/>
<path class="st4" d="M70,164c-1.8,0.3-3.6,0.5-5.5,0.8l-0.3-1.9c1.8-0.3,3.7-0.5,5.5-0.8L70,164z"/>
<path class="st4" d="M269.7,164c-1.8,0.1-3.7,0.1-5.6,0.1v-1.9c1.9-0.1,3.8-0.1,5.6-0.1V164z"/>
<path class="st6" d="M59,165.4c-1.9,0.2-3.7,0.4-5.6,0.6l-0.2-1.9c1.8-0.2,3.7-0.3,5.5-0.6L59,165.4z"/>
<path class="st4" d="M47.8,166.5c-1.8,0.2-3.7,0.3-5.6,0.4l-0.2-1.9c1.9-0.1,3.8-0.3,5.6-0.4L47.8,166.5z"/>
<path class="st4" d="M36.6,167.4c-1.8,0.2-3.7,0.3-5.6,0.3l-0.1-1.9c1.9-0.2,3.8-0.3,5.6-0.3L36.6,167.4z"/>
<path class="st4" d="M25.4,167.9c-1.8,0.1-3.7,0.2-5.6,0.2v-1.9c1.9-0.1,3.8-0.1,5.6-0.2V167.9z"/>
<path class="st4" d="M14.3,166.2v1.9c-1.8,0-3.7,0-5.6,0v-1.9C10.6,166.3,12.4,166.3,14.3,166.2z"/>
<path class="st2" d="M463.5,101.4v1.9h-0.4c-1.7,0-3.4,0-5.2,0.1l-0.1-1.9c1.7-0.1,3.4-0.1,5.2-0.1H463.5L463.5,101.4z"/>
<path class="st1" d="M473.4,101.7l1.2,0.1l-0.1,1.9l-1.2-0.1c-1.5-0.1-2.9-0.2-4.4-0.2l0.1-1.9C470.5,101.5,471.9,101.6,473.4,101.7
	z"/>
<path class="st3" d="M452.3,103.6c-1.8,0.1-3.7,0.3-5.5,0.4l-0.2-1.9c1.8-0.2,3.7-0.3,5.6-0.4L452.3,103.6z"/>
<path class="st4" d="M485.7,102.5l-0.2,1.9c-1.8-0.3-3.7-0.3-5.5-0.5l0.2-1.9C482.1,102.2,484,102.4,485.7,102.5z"/>
<path class="st5" d="M441.3,104.6c-1.9,0.3-3.7,0.5-5.5,0.9l-0.3-1.9c1.9-0.3,3.7-0.6,5.6-0.9L441.3,104.6z"/>
<path class="st4" d="M496.9,103.9l-0.3,1.9c-1.8-0.3-3.7-0.5-5.5-0.8l0.3-1.9C493.3,103.4,495.1,103.7,496.9,103.9z"/>
<path class="st4" d="M430.3,106.6c-1.8,0.3-3.6,0.9-5.4,1.3l-0.4-1.9c1.9-0.4,3.7-0.9,5.5-1.3L430.3,106.6z"/>
<path class="st4" d="M419.6,109.3c-1.7,0.5-3.4,1.1-5.2,1.7l-0.6-1.8c1.8-0.6,3.6-1.2,5.3-1.7L419.6,109.3z"/>
<path class="st4" d="M190.4,110.2l-0.1,1.9c-1.8-0.1-3.7-0.1-5.6-0.1v-1.9C186.6,110.1,188.5,110.2,190.4,110.2z"/>
<path class="st5" d="M179.2,112c-1.8,0-3.7,0-5.6,0.1l-0.1-1.9c1.9,0,3.8-0.1,5.6-0.1L179.2,112z"/>
<path class="st4" d="M201.5,110.7l-0.1,1.9c-1.8-0.2-3.7-0.3-5.6-0.3l0.1-1.9C197.8,110.5,199.7,110.6,201.5,110.7z"/>
<path class="st1" d="M168.1,112.3h-0.3c-1.8,0.1-3.5,0.2-5.2,0.3l-0.1-1.9c1.6-0.1,3.4-0.2,5.2-0.3h0.3L168.1,112.3z"/>
<path class="st2" d="M156.9,113c-1.9,0.2-3.7,0.3-5.5,0.5l-0.2-1.9c1.8-0.2,3.6-0.3,5.6-0.5L156.9,113z"/>
<path class="st4" d="M409.1,113c-1.8,0.6-3.5,1.3-5.2,2l-0.7-1.8c1.7-0.7,3.5-1.4,5.2-2.1L409.1,113z"/>
<path class="st4" d="M212.7,111.8l-0.3,1.9c-1.8-0.3-3.6-0.4-5.5-0.6l0.2-1.9C209,111.4,210.9,111.6,212.7,111.8z"/>
<path class="st3" d="M145.8,114.2c-1.8,0.3-3.7,0.5-5.5,0.8l-0.3-1.9c1.9-0.3,3.7-0.5,5.6-0.8L145.8,114.2z"/>
<path class="st4" d="M223.8,113.5l-0.3,1.9c-1.8-0.3-3.7-0.6-5.5-0.9l0.3-1.9C220.1,112.9,221.9,113.1,223.8,113.5z"/>
<path class="st4" d="M134.9,115.9c-1.9,0.3-3.7,0.7-5.5,1L129,115c1.8-0.3,3.6-0.7,5.5-1L134.9,115.9z"/>
<path class="st6" d="M234.8,115.7l-0.4,1.9c-1.8-0.4-3.6-0.9-5.4-1.2l0.3-1.9C231.1,114.8,232.9,115.3,234.8,115.7z"/>
<path class="st4" d="M398.8,117.1c-1.7,0.7-3.5,1.4-5.2,2.1l-0.7-1.8c1.7-0.7,3.4-1.4,5.2-2.1L398.8,117.1z"/>
<path class="st4" d="M123.9,118c-1.5,0.3-3,0.6-4.6,0.9l-0.9,0.2l-0.3-1.9l0.9-0.2c1.5-0.3,3-0.6,4.6-0.9L123.9,118z"/>
<path class="st4" d="M245.7,118.4l-0.4,1.9c-1.8-0.4-3.6-0.9-5.4-1.4l0.4-1.9C242,117.5,243.9,117.9,245.7,118.4z"/>
<path class="st4" d="M113,120.3c-1.8,0.3-3.6,0.8-5.5,1.1l-0.3-1.9c1.9-0.3,3.7-0.8,5.5-1.1L113,120.3z"/>
<path class="st4" d="M388.2,121.1c-1.9,0.7-3.6,1.3-5.3,1.9l-0.6-1.8c1.7-0.6,3.4-1.2,5.2-1.9L388.2,121.1z"/>
<path class="st4" d="M256.1,121.4l0.3,0.1l-0.5,1.9l-0.3-0.1c-1.6-0.5-3.3-1-5-1.5l0.5-1.9C252.7,120.4,254.4,120.9,256.1,121.4z"/>
<path class="st4" d="M101.9,122.5c-1.7,0.3-3.6,0.6-5.5,0.9l-0.3-1.9c1.9-0.3,3.8-0.5,5.5-0.9L101.9,122.5z"/>
<path class="st4" d="M90.9,124.1c-1.8,0.3-3.7,0.5-5.6,0.7l-0.2-1.9c1.9-0.3,3.7-0.4,5.5-0.7L90.9,124.1z"/>
<path class="st4" d="M377.6,124.8c-1.8,0.5-3.6,1-5.4,1.5l-0.5-1.9c1.7-0.4,3.5-1,5.3-1.5L377.6,124.8z"/>
<path class="st4" d="M267.2,124.4l-0.4,1.9c-1.8-0.4-3.6-0.9-5.4-1.5l0.5-1.9C263.6,123.4,265.4,124,267.2,124.4z"/>
<path class="st4" d="M12.8,123.6l-0.2,1.9c-1.9-0.2-3.8-0.3-5.6-0.5l0.2-1.9C9.1,123.3,10.9,123.4,12.8,123.6z"/>
<path class="st4" d="M79.8,125.3c-1.8,0.2-3.7,0.3-5.6,0.4l-0.2-1.9c2-0.1,3.8-0.3,5.6-0.4L79.8,125.3z"/>
<path class="st4" d="M24,124.4l-0.1,1.9c-1.9-0.1-3.8-0.3-5.6-0.3l0.1-1.9C20.2,124.1,22.1,124.2,24,124.4z"/>
<path class="st4" d="M68.6,126.1c-1.9,0.1-3.7,0.2-5.6,0.3l-0.1-1.9c1.9-0.1,3.7-0.2,5.6-0.3L68.6,126.1z"/>
<path class="st6" d="M35.1,124.8l-0.1,1.9c-1.9,0-3.7-0.1-5.6-0.2l0.1-1.9C31.4,124.7,33.2,124.7,35.1,124.8z"/>
<path class="st4" d="M57.3,126.6c-1.9,0.1-3.7,0.2-5.6,0.2v-1.9c1.9-0.1,3.7-0.1,5.6-0.2V126.6z"/>
<path class="st4" d="M45.1,124.9h1.1v1.9h-1.1c-1.5,0-3,0-4.5,0v-1.9C42.1,124.9,43.6,124.9,45.1,124.9z"/>
<path class="st4" d="M278,127.1l-0.3,1.9c-1.8-0.4-3.6-0.9-5.5-1.3l0.4-1.9C274.5,126.3,276.3,126.7,278,127.1z"/>
<path class="st4" d="M366.7,127.7c-1.8,0.4-3.7,0.9-5.5,1.2l-0.3-1.9c1.8-0.3,3.6-0.8,5.4-1.2L366.7,127.7z"/>
<path class="st4" d="M355.7,130c-1.8,0.3-3.6,0.6-5.5,0.9l-0.3-1.9c1.9-0.3,3.7-0.5,5.5-0.9L355.7,130z"/>
<path class="st4" d="M288.9,129.1l-0.3,1.9c-1.8-0.3-3.7-0.6-5.5-0.9l0.3-1.9C285.3,128.5,287.1,128.9,288.9,129.1z"/>
<path class="st4" d="M344.7,131.6c-1.8,0.3-3.7,0.4-5.6,0.6l-0.2-1.9c1.8-0.2,3.7-0.4,5.5-0.6L344.7,131.6z"/>
<path class="st4" d="M299.9,130.5l-0.2,1.9c-1.9-0.2-3.8-0.3-5.6-0.6l0.3-1.9C296.2,130.1,298.1,130.3,299.9,130.5z"/>
<path class="st4" d="M333.5,132.6c-1.1,0.1-2.2,0.1-3.4,0.2c-0.8,0-1.5,0.1-2.2,0.1l-0.1-1.9c0.8,0,1.5-0.1,2.2-0.1
	c1.1,0,2.2-0.1,3.3-0.2L333.5,132.6z"/>
<path class="st4" d="M311.1,131.1L311,133c-1.9-0.1-3.8-0.2-5.6-0.3l0.1-1.9C307.3,131,309.2,131,311.1,131.1z"/>
<path class="st4" d="M322.2,133.1c-1.6,0.1-3.3,0.1-4.8,0.1h-0.8v-1.9h0.8c1.6,0,3.2-0.1,4.8-0.1V133.1z"/>
<path class="st4" d="M418.8,155.5c-1.8,0-3.7,0.1-5.5,0.3l-0.2-1.9c1.8-0.2,3.7-0.3,5.6-0.3L418.8,155.5z"/>
<path class="st4" d="M426.5,153.7c1.1,0.1,2.2,0.2,3.4,0.3l-0.2,1.9c-1-0.1-2.2-0.2-3.3-0.3c-0.8,0-1.5-0.1-2.2-0.1l0.1-1.9
	C425,153.7,425.8,153.7,426.5,153.7z"/>
<path class="st4" d="M407.7,156.3c-1.8,0.3-3.7,0.5-5.5,0.9l-0.3-1.9c1.9-0.3,3.8-0.6,5.6-0.9L407.7,156.3z"/>
<path class="st4" d="M441,155.8l-0.3,1.9c-1.9-0.4-3.6-0.8-5.4-1l0.3-1.9C437.3,155,439.2,155.4,441,155.8z"/>
<path class="st4" d="M396.7,158.3c-1.8,0.4-3.6,0.9-5.4,1.4l-0.5-1.9c1.9-0.5,3.7-0.9,5.5-1.4L396.7,158.3z"/>
<path class="st4" d="M452,158.4l-0.4,1.9c-1.9-0.4-3.6-0.9-5.4-1.4l0.4-1.9C448.4,157.4,450.2,157.9,452,158.4z"/>
<path class="st4" d="M386,161.3c-1.7,0.6-3.5,1.2-5.2,1.9l-0.6-1.8c1.8-0.7,3.5-1.3,5.3-1.9L386,161.3z"/>
<path class="st2" d="M462.8,161.2l-0.4,1.9c-1.9-0.4-3.7-0.9-5.4-1.4l0.4-1.9C459.1,160.3,460.9,160.8,462.8,161.2z"/>
<path class="st3" d="M473.7,163.7l-0.3,1.9c-1.8-0.4-3.6-0.8-5.5-1.2l0.4-1.9C470,162.9,471.8,163.3,473.7,163.7z"/>
<path class="st4" d="M375.6,165.3c-1.6,0.7-3.4,1.5-5.1,2.2l-0.8-1.7c1.7-0.9,3.4-1.6,5.2-2.3L375.6,165.3z"/>
<path class="st1" d="M484.6,165.7l-0.3,1.9c-1.9-0.3-3.7-0.6-5.5-0.9l0.3-1.9C480.9,165,482.7,165.3,484.6,165.7z"/>
<path class="st5" d="M495.7,167.2l-0.2,1.9c-1.8-0.2-3.7-0.4-5.6-0.7l0.3-1.9C492.1,166.7,493.9,166.9,495.7,167.2z"/>
<path class="st4" d="M365.4,170c-1.6,0.9-3.3,1.7-4.9,2.7l-0.9-1.7c1.6-0.9,3.4-1.8,5-2.7L365.4,170z"/>
<path class="st5" d="M21.6,91.6v1.9c-1.8,0-3.7,0-5.6,0v-1.9c0.9,0,1.7,0,2.5,0C19.6,91.6,20.6,91.6,21.6,91.6z"/>
<path class="st4" d="M10.5,93.7C8.7,93.8,6.8,93.9,5,94l-0.2-1.9c1.8-0.2,3.7-0.3,5.6-0.3L10.5,93.7z"/>
<path class="st2" d="M31.6,92.1c0.4,0,0.9,0.1,1.4,0.1l-0.2,1.9c-0.4,0-0.9-0.1-1.4-0.1c-1.4-0.1-2.8-0.2-4.2-0.3l0.1-1.9
	C28.7,92,30.1,92,31.6,92.1z"/>
<path class="st3" d="M44,93.6l-0.3,1.9c-1.9-0.3-3.7-0.5-5.5-0.8l0.3-1.9C40.3,93.1,42.1,93.3,44,93.6z"/>
<path class="st1" d="M55.1,95.7l-0.3,1.9c-1.8-0.4-3.6-0.8-5.5-1.1l0.3-1.9C51.4,94.9,53.2,95.3,55.1,95.7z"/>
<path class="st4" d="M66,97.9l-0.3,1.9c-1.9-0.3-3.7-0.8-5.5-1.1l0.3-1.9C62.3,97.1,64.1,97.6,66,97.9z"/>
<path class="st4" d="M143.6,99.3c-1.8,0.3-3.7,0.7-5.5,1l-0.3-1.9c1.9-0.3,3.7-0.7,5.5-1L143.6,99.3z"/>
<path class="st4" d="M76.9,99.7l-0.3,1.9c-1.8-0.3-3.6-0.5-5.5-0.9l0.3-1.9C73.3,99.2,75.1,99.4,76.9,99.7z"/>
<path class="st4" d="M132.6,101.1c-1.9,0.3-3.7,0.5-5.6,0.8l-0.2-1.9c1.8-0.2,3.7-0.4,5.5-0.7L132.6,101.1z"/>
<path class="st4" d="M88,100.9l-0.2,1.9c-1.9-0.2-3.8-0.3-5.6-0.5l0.2-1.9C84.2,100.6,86.1,100.7,88,100.9z"/>
<path class="st4" d="M121.4,102.5c-1.9,0.2-3.8,0.3-5.6,0.4l-0.1-1.9c1.8-0.1,3.6-0.3,5.5-0.4L121.4,102.5z"/>
<path class="st4" d="M99,101.4v1.9c-1.9,0-3.7-0.1-5.6-0.2l0.1-1.9C95.3,101.3,97.2,101.3,99,101.4z"/>
<path class="st4" d="M110.1,103.2c-1.8,0-3.7,0.1-5.6,0.1v-1.9c1.9,0,3.8,0,5.6-0.1V103.2z"/>
<path class="st4" d="M65.9,139.2v1.9c-1.8,0-3.7,0-5.5,0.1l-0.1-1.9c1.5-0.1,3.1-0.1,4.6-0.1C65.3,139.2,65.6,139.2,65.9,139.2z"/>
<path class="st6" d="M77.2,139.9l-0.2,1.9c-1.8-0.3-3.7-0.4-5.5-0.5l0.1-1.9C73.5,139.5,75.4,139.7,77.2,139.9z"/>
<path class="st4" d="M54.9,141.6h-0.3c-1.8,0.2-3.5,0.4-5.2,0.7l-0.3-1.9c1.7-0.3,3.5-0.5,5.3-0.7h0.3L54.9,141.6z"/>
<path class="st4" d="M88.3,141.7l-0.3,1.9c-1.8-0.3-3.6-0.8-5.4-1l0.3-1.9C84.6,141,86.5,141.3,88.3,141.7z"/>
<path class="st4" d="M44,143.4c-1.8,0.3-3.5,0.8-5.4,1.3l-0.5-1.9c1.9-0.5,3.7-1,5.5-1.4L44,143.4z"/>
<path class="st7" d="M33.2,146.2c-1.2,0.3-2.3,0.8-3.5,1.1l-1.8,0.6l-0.5-1.8l1.8-0.6c1.2-0.3,2.3-0.8,3.5-1.1L33.2,146.2z"/>
<path class="st7" d="M22.5,149.5c-1.9,0.6-3.7,1-5.4,1.5l-0.4-1.9c1.7-0.3,3.4-0.9,5.3-1.4L22.5,149.5z"/>
<path class="st7" d="M11.6,152.1c-0.9,0.2-1.9,0.3-2.9,0.4c-0.9,0.2-1.7,0.3-2.7,0.3L5.8,151c0.9-0.2,1.7-0.3,2.6-0.3
	c0.9-0.2,1.9-0.3,2.8-0.4L11.6,152.1z"/>
<path class="st4" d="M272.4,98.3l-0.6,1.8c-1.7-0.7-3.5-1.4-5.2-2.1l0.7-1.8C268.9,97,270.7,97.7,272.4,98.3z"/>
<path class="st4" d="M283,101.9l-0.5,1.8c-1.7-0.5-3.5-1.1-5.3-1.7l0.6-1.8C279.4,100.8,281.2,101.3,283,101.9z"/>
<path class="st4" d="M382.2,103.7c-1.8,0.5-3.6,1-5.4,1.5l-0.4-1.9c1.8-0.5,3.6-1,5.3-1.5L382.2,103.7z"/>
<path class="st7" d="M293.8,104.8l-0.4,1.9c-1.8-0.4-3.6-0.9-5.4-1.4l0.4-1.9C290.2,103.9,292,104.3,293.8,104.8z"/>
<path class="st4" d="M371.4,106.6c-1.8,0.4-3.7,0.9-5.5,1.2l-0.3-1.9c1.8-0.3,3.6-0.8,5.4-1.2L371.4,106.6z"/>
<path class="st7" d="M304.6,107l-0.3,1.9c-1.8-0.3-3.7-0.7-5.5-1l0.3-1.9C301,106.3,302.8,106.7,304.6,107z"/>
<path class="st4" d="M360.4,108.8c-1.9,0.3-3.8,0.6-5.6,0.9l-0.3-1.9c1.8-0.3,3.7-0.5,5.5-0.9L360.4,108.8z"/>
<path class="st7" d="M315.7,108.4l-0.2,1.9c-1.9-0.2-3.7-0.3-5.6-0.6l0.3-1.9C312,108,313.8,108.2,315.7,108.4z"/>
<path class="st4" d="M349.2,110.3c-1.9,0.2-3.7,0.3-5.6,0.4l-0.1-1.9c1.8-0.1,3.7-0.3,5.5-0.4L349.2,110.3z"/>
<path class="st7" d="M326.8,109.2v0.9l-0.1,0.9c-1.9-0.1-3.8-0.2-5.6-0.3l0.1-1.9C323.1,109,324.9,109.1,326.8,109.2z"/>
<path class="st4" d="M337.9,111c-1.8,0.1-3.7,0.1-5.6,0.1v-1.9c1.9,0,3.7,0,5.6-0.1V111z"/>
</svg>
