<?xml version="1.0" encoding="utf-8"?>
<!-- Generator: Adobe Illustrator 24.3.0, SVG Export Plug-In . SVG Version: 6.00 Build 0)  -->
<svg version="1.1" id="Camada_1" xmlns="http://www.w3.org/2000/svg" xmlns:xlink="http://www.w3.org/1999/xlink" x="0px" y="0px"
	 width="500px" height="180px" viewBox="0 0 500 180" style="enable-background:new 0 0 500 180;" xml:space="preserve">
<style type="text/css">
	.st0{fill:url(#SVGID_1_);}
	.st1{fill:#FFCD4B;}
	.st2{fill:#49D3FF;}
	.st3{fill:#1EED89;}
	.st4{fill:#555560;}
	.st5{fill:#FE5D7A;}
	.st6{fill:#32323A;}
	.st7{fill:#FFFFFF;}
</style>
<linearGradient id="SVGID_1_" gradientUnits="userSpaceOnUse" x1="250" y1="2" x2="250" y2="182" gradientTransform="matrix(1 0 0 -1 0 182)">
	<stop  offset="0" style="stop-color:#18181C"/>
	<stop  offset="1" style="stop-color:#26262D"/>
</linearGradient>
<rect class="st0" width="500" height="180"/>
<path class="st1" d="M8,128.1c1.7,0.6,3.5,1.3,5.2,2l-0.7,1.8c-1.7-0.7-3.5-1.3-5.2-2L8,128.1z"/>
<path class="st2" d="M18.5,132.1c1.5,0.6,3.1,1.2,4.7,1.9l0.5,0.2l-0.7,1.8l-0.5-0.2c-1.5-0.6-3.2-1.3-4.7-1.9L18.5,132.1z"/>
<path class="st3" d="M28.9,136.4c1.7,0.7,3.4,1.4,5.2,2.1l-0.7,1.8c-1.8-0.7-3.5-1.4-5.2-2.1L28.9,136.4z"/>
<path class="st4" d="M248.7,137c0.6,0,1.3,0,2,0c0.9,0,1.7,0,2.6,0v1.9c-0.9,0-1.7,0-2.5,0c-0.7,0-1.3,0-2,0h-1.1V137H248.7z"/>
<path class="st4" d="M242,137v1.9c-1.9,0-3.8,0.1-5.6,0.2l-0.1-1.9C238.2,137.1,240.1,137,242,137z"/>
<path class="st4" d="M258.7,137.1c1.9,0.1,3.8,0.1,5.6,0.2l-0.1,1.9c-1.8-0.1-3.7-0.2-5.6-0.2L258.7,137.1z"/>
<path class="st4" d="M230.8,137.5l0.1,1.9c-1.9,0.1-3.8,0.3-5.6,0.3l-0.2-1.9C227,137.6,228.8,137.6,230.8,137.5z"/>
<path class="st4" d="M269.9,137.6c1.9,0.1,3.8,0.3,5.6,0.3l-0.2,1.9c-1.8-0.2-3.7-0.3-5.6-0.3L269.9,137.6z"/>
<path class="st4" d="M219.6,138.3l0.2,1.9c-1.9,0.2-3.7,0.4-5.5,0.6l-0.3-1.9C215.8,138.7,217.7,138.5,219.6,138.3z"/>
<path class="st4" d="M281.1,138.4c1.9,0.2,3.8,0.3,5.6,0.6l-0.2,2c-1.8-0.2-3.6-0.4-5.5-0.6L281.1,138.4z"/>
<path class="st4" d="M208.5,139.7l0.3,1.9c-1.8,0.3-3.7,0.6-5.5,0.9l-0.3-1.9C204.7,140.3,206.6,140,208.5,139.7z"/>
<path class="st4" d="M292.3,139.8c1.9,0.3,3.7,0.5,5.5,0.9l-0.3,1.9c-1.8-0.3-3.6-0.6-5.5-0.9L292.3,139.8z"/>
<path class="st5" d="M39.4,140.3c1.7,0.6,3.4,1.3,5.2,1.9l-0.6,1.8c-1.8-0.6-3.5-1.3-5.3-1.9L39.4,140.3z"/>
<path class="st4" d="M303.3,141.5c1.9,0.3,3.7,0.7,5.5,1l-0.3,1.9c-1.8-0.3-3.6-0.7-5.5-1L303.3,141.5z"/>
<path class="st4" d="M197.4,141.8l0.4,1.9c-1.8,0.4-3.6,0.9-5.4,1.3l-0.4-1.9C193.8,142.6,195.6,142.2,197.4,141.8z"/>
<path class="st4" d="M314.3,143.8c1.8,0.4,3.7,0.9,5.4,1.3l-0.4,1.9c-1.8-0.4-3.6-0.9-5.4-1.2L314.3,143.8z"/>
<path class="st4" d="M49.9,144c1.7,0.6,3.5,1.1,5.3,1.6l-0.5,1.8c-1.8-0.5-3.6-1.1-5.3-1.6L49.9,144z"/>
<path class="st4" d="M186.6,144.5l0.5,1.9c-1.8,0.5-3.6,1-5.3,1.5l-0.5-1.8C182.9,145.6,184.7,145.1,186.6,144.5z"/>
<path class="st1" d="M325.2,146.3c1.8,0.4,3.6,0.9,5.4,1.4l-0.4,1.9c-1.8-0.4-3.6-0.9-5.4-1.4L325.2,146.3z"/>
<path class="st4" d="M60.7,147.2c1.8,0.5,3.6,0.9,5.4,1.4l-0.4,1.9c-1.8-0.4-3.6-0.9-5.4-1.5L60.7,147.2z"/>
<path class="st4" d="M175.8,147.8l0.5,1.8c-1.8,0.6-3.5,1.1-5.3,1.6l-0.5-1.8C172.3,148.9,174,148.4,175.8,147.8z"/>
<polygon class="st3" points="336.1,149.1 341.5,150.5 341,152.4 335.6,151 "/>
<path class="st4" d="M71.4,149.9c1.8,0.4,3.6,0.8,5.4,1.1l-0.3,1.9c-1.8-0.3-3.7-0.8-5.5-1.1L71.4,149.9z"/>
<path class="st6" d="M165.1,151.1l0.5,1.9c-1.9,0.5-3.7,1-5.4,1.4l-0.4-1.9C161.5,152,163.2,151.6,165.1,151.1z"/>
<path class="st2" d="M346.8,151.9c1.8,0.4,3.6,0.9,5.4,1.4l-0.4,1.9c-1.8-0.4-3.6-0.9-5.4-1.4L346.8,151.9z"/>
<path class="st4" d="M82.4,152.1c1.8,0.3,3.6,0.6,5.5,0.9l-0.3,1.9c-1.9-0.3-3.7-0.6-5.5-0.9L82.4,152.1z"/>
<path class="st4" d="M154.3,153.6l0.3,1.9c-1.8,0.3-3.7,0.7-5.5,0.9l-0.3-1.9C150.7,154.2,152.5,154,154.3,153.6z"/>
<path class="st4" d="M93.4,153.7c1.8,0.3,3.6,0.4,5.5,0.7l-0.2,1.9c-1.9-0.2-3.8-0.4-5.6-0.7L93.4,153.7z"/>
<path class="st5" d="M357.8,154.5c1.8,0.4,3.6,0.8,5.4,1.2l-0.3,1.9c-1.9-0.4-3.7-0.8-5.5-1.2L357.8,154.5z"/>
<path class="st4" d="M104.5,154.9c1.5,0.2,3.2,0.3,4.8,0.4l0.8,0.1l-0.1,1.9l-0.8-0.1c-1.6-0.1-3.3-0.3-4.8-0.4L104.5,154.9z"/>
<path class="st7" d="M495.9,155.1l0.3,1.9c-1.8,0.3-3.7,0.7-5.5,1l-0.3-1.9C492.2,155.8,494,155.5,495.9,155.1z"/>
<path class="st4" d="M143.4,155.2l0.2,1.9c-1.8,0.2-3.7,0.3-5.6,0.4l-0.1-1.9C139.8,155.5,141.6,155.5,143.4,155.2z"/>
<path class="st4" d="M115.6,155.7c1.9,0.1,3.8,0.2,5.6,0.3l-0.1,1.9c-1.8-0.1-3.7-0.1-5.6-0.3L115.6,155.7z"/>
<path class="st4" d="M132.3,156l0.1,1.9c-1.7,0.1-3.5,0.1-5.4,0.1h-0.3v-1.9h0.3C128.8,156.1,130.5,156,132.3,156z"/>
<path class="st4" d="M368.6,156.8c1.8,0.3,3.6,0.7,5.5,0.9l-0.3,1.9c-1.9-0.3-3.7-0.7-5.5-1L368.6,156.8z"/>
<path class="st4" d="M484.9,157.3l0.3,1.9c-1.8,0.3-3.6,0.7-5.5,1l-0.3-1.9C481.3,157.9,483.2,157.6,484.9,157.3z"/>
<path class="st4" d="M379.6,158.6c1.8,0.3,3.6,0.5,5.5,0.8l-0.3,1.9c-1.9-0.3-3.7-0.5-5.6-0.8L379.6,158.6z"/>
<path class="st4" d="M474,159.2l0.3,1.9c-1.9,0.3-3.7,0.5-5.6,0.8l-0.3-1.9C470.3,159.8,472.1,159.5,474,159.2z"/>
<path class="st4" d="M390.6,160.1c1.8,0.2,3.6,0.3,5.5,0.6l-0.2,1.9c-1.9-0.2-3.8-0.3-5.6-0.6L390.6,160.1z"/>
<path class="st4" d="M463,160.7l0.2,1.9c-1.8,0.2-3.7,0.3-5.6,0.5l-0.2-1.9C459.3,161,461.2,160.9,463,160.7z"/>
<path class="st4" d="M401.7,161.1c1.8,0.2,3.7,0.3,5.6,0.3l-0.1,1.9c-1.9-0.1-3.8-0.3-5.6-0.3L401.7,161.1z"/>
<path class="st4" d="M451.9,161.6l0.1,1.9c-1.8,0.1-3.6,0.2-5.6,0.3l-0.1-1.9C448.3,161.7,450.1,161.6,451.9,161.6z"/>
<path class="st6" d="M412.9,161.7c1.8,0.1,3.7,0.2,5.6,0.2l-0.1,1.9c-1.9-0.1-3.8-0.1-5.6-0.2L412.9,161.7z"/>
<path class="st4" d="M440.7,162l0.1,1.9c-1.8,0.1-3.7,0.1-5.6,0.1v-1.9C437.1,162.1,439,162.1,440.7,162z"/>
<path class="st4" d="M424,162.1c1.8,0,3.7,0,5.6,0.1v1.9c-1.9,0-3.8,0-5.6-0.1V162.1z"/>
<path class="st6" d="M28.9,158.5l0.3,1.9c-1.8,0.3-3.7,0.8-5.5,1.1l-0.3-1.9C25.4,159.2,27.2,158.8,28.9,158.5z"/>
<path class="st4" d="M17.9,160.5l0.3,1.9c-1.8,0.3-3.6,0.6-5.6,0.9l-0.3-1.9C14.3,161.1,16.2,160.8,17.9,160.5z"/>
<path class="st4" d="M6.9,162.1l0.2,1.9c-1.8,0.2-3.7,0.4-5.6,0.6l-0.2-1.9C3.3,162.5,5.1,162.2,6.9,162.1z"/>
<path class="st4" d="M5.9,101h1.4v1.9H5.9c-1.4,0-2.8,0-4.1,0V101C3,101,4.4,101,5.9,101z"/>
<path class="st6" d="M12.9,101.1c1.8,0,3.7,0.1,5.6,0.2l-0.1,1.9c-1.9-0.1-3.8-0.1-5.6-0.2L12.9,101.1z"/>
<path class="st2" d="M234.3,101.4h0.4c1.7,0,3.4,0,5.2,0.1l-0.1,1.9c-1.7-0.1-3.4-0.1-5.2-0.1h-0.4L234.3,101.4L234.3,101.4z"/>
<path class="st4" d="M24.1,101.5c1,0.1,2,0.1,3,0.2c0.9,0.1,1.7,0.1,2.6,0.2l-0.1,1.9c-0.9-0.1-1.7-0.1-2.6-0.2c-1-0.1-2-0.1-3-0.2
	L24.1,101.5z"/>
<path class="st1" d="M228.7,101.5l0.1,1.9c-1.5,0-2.9,0.1-4.4,0.2l-1.2,0.1l-0.1-1.9l1.2-0.1C225.8,101.6,227.3,101.5,228.7,101.5z"
	/>
<path class="st3" d="M245.5,101.7c1.9,0.1,3.8,0.3,5.6,0.4l-0.2,1.9c-1.8-0.2-3.7-0.3-5.5-0.4L245.5,101.7z"/>
<path class="st4" d="M217.5,102l0.2,1.9c-1.8,0.2-3.7,0.3-5.5,0.5l-0.2-1.9C213.7,102.4,215.6,102.2,217.5,102z"/>
<path class="st4" d="M35.3,102.2c2,0.2,3.8,0.3,5.6,0.5l-0.2,1.9c-1.8-0.2-3.6-0.3-5.5-0.5L35.3,102.2z"/>
<path class="st5" d="M256.7,102.7c1.9,0.3,3.7,0.5,5.6,0.9l-0.3,1.9c-1.8-0.3-3.6-0.6-5.5-0.9L256.7,102.7z"/>
<path class="st4" d="M206.3,103.1l0.3,1.9c-1.8,0.3-3.7,0.5-5.5,0.8l-0.3-1.9C202.6,103.7,204.5,103.4,206.3,103.1z"/>
<path class="st4" d="M46.4,103.4c1.9,0.3,3.7,0.5,5.6,0.8l-0.3,1.9c-1.8-0.3-3.7-0.5-5.5-0.8L46.4,103.4z"/>
<path class="st4" d="M267.8,104.7c1.8,0.4,3.6,0.9,5.5,1.3l-0.4,1.9c-1.8-0.4-3.6-0.9-5.4-1.3L267.8,104.7z"/>
<path class="st4" d="M195.2,104.9l0.3,1.9c-1.9,0.3-3.7,0.7-5.5,1l-0.3-1.9C191.5,105.6,193.4,105.2,195.2,104.9z"/>
<path class="st4" d="M57.5,105c1.8,0.3,3.6,0.7,5.5,1l-0.3,1.9c-1.9-0.3-3.7-0.7-5.5-1L57.5,105z"/>
<polygon class="st4" points="184.2,107 184.7,108.9 179.2,110 178.8,108.1 "/>
<path class="st4" d="M68.5,107.2c1.8,0.3,3.4,0.8,5.2,1.1l0.3,0.1l-0.4,1.9l-0.3-0.1c-1.7-0.3-3.4-0.8-5.2-1.1L68.5,107.2z"/>
<path class="st4" d="M278.6,107.5c1.7,0.5,3.5,1.1,5.3,1.7l-0.6,1.8c-1.8-0.6-3.5-1.2-5.2-1.7L278.6,107.5z"/>
<path class="st4" d="M173.3,109.3l0.3,1.9c-1.8,0.3-3.6,0.7-5.5,1l-0.3-1.9C169.7,109.9,171.5,109.6,173.3,109.3z"/>
<path class="st4" d="M79.4,109.5c1.8,0.3,3.6,0.8,5.4,1.1l-0.3,1.9c-1.9-0.3-3.7-0.8-5.5-1.1L79.4,109.5z"/>
<path class="st4" d="M289.3,111.1c1.7,0.7,3.5,1.4,5.2,2.1l-0.7,1.8c-1.7-0.7-3.4-1.4-5.2-2L289.3,111.1z"/>
<path class="st4" d="M162.4,111.2l0.3,1.9c-1.9,0.3-3.7,0.5-5.6,0.8l-0.3-1.9C158.7,111.7,160.5,111.5,162.4,111.2z"/>
<path class="st4" d="M490.6,111.2l0.2,1.9c-1.9,0.2-3.7,0.3-5.5,0.6l-0.3-1.9C486.8,111.6,488.7,111.4,490.6,111.2z"/>
<path class="st4" d="M90.3,111.6c1.8,0.3,3.6,0.5,5.5,0.8l-0.3,1.9c-1.9-0.3-3.7-0.5-5.6-0.8L90.3,111.6z"/>
<path class="st4" d="M479.5,112.6l0.3,1.9c-1.8,0.3-3.7,0.6-5.5,0.9l-0.3-1.9C475.8,113.1,477.6,112.9,479.5,112.6z"/>
<path class="st4" d="M151.4,112.6l0.2,1.9c-1.8,0.2-3.7,0.3-5.6,0.5l-0.2-1.9C147.7,113,149.5,112.8,151.4,112.6z"/>
<path class="st4" d="M101.3,113c1.8,0.2,3.7,0.3,5.5,0.4l-0.1,1.9c-1.9-0.1-3.8-0.3-5.6-0.4L101.3,113z"/>
<path class="st4" d="M140.3,113.5l0.1,1.9c-1.8,0.1-3.7,0.2-5.6,0.3l-0.1-1.9C136.6,113.6,138.5,113.6,140.3,113.5z"/>
<path class="st4" d="M112.4,113.6c1.8,0.1,3.6,0.1,5.6,0.2v1.9c-2,0-3.8-0.1-5.6-0.2V113.6z"/>
<path class="st4" d="M129.1,113.8v1.9c-1.6,0-3.4,0-5.2,0h-0.4v-1.9h0.4C125.7,113.9,127.5,113.9,129.1,113.8z"/>
<path class="st6" d="M468.4,114.5l0.3,1.9c-1.8,0.3-3.6,0.8-5.4,1.2l-0.4-1.9C464.8,115.3,466.6,114.8,468.4,114.5z"/>
<path class="st4" d="M299.7,115.3c1.7,0.7,3.4,1.4,5.2,2.1l-0.7,1.8c-1.7-0.7-3.5-1.4-5.2-2.1L299.7,115.3z"/>
<path class="st4" d="M457.5,117l0.4,1.9c-1.8,0.4-3.6,0.9-5.4,1.4l-0.4-1.9C453.9,117.9,455.7,117.5,457.5,117z"/>
<path class="st4" d="M310.2,119.3c1.8,0.7,3.5,1.3,5.2,1.9l-0.6,1.8c-1.7-0.6-3.4-1.2-5.3-1.9L310.2,119.3z"/>
<path class="st4" d="M446.6,119.9l0.5,1.9c-1.7,0.4-3.4,0.9-5,1.5l-0.3,0.1l-0.5-1.9l0.3-0.1C443.3,120.9,445,120.4,446.6,119.9z"/>
<path class="st4" d="M320.7,122.9c1.8,0.5,3.6,1.1,5.3,1.5l-0.5,1.9c-1.8-0.5-3.6-1-5.4-1.5L320.7,122.9z"/>
<path class="st4" d="M435.9,122.9l0.5,1.9c-1.8,0.5-3.6,1-5.4,1.5l-0.4-1.9C432.3,124,434.1,123.4,435.9,122.9z"/>
<path class="st4" d="M425.1,125.9l0.4,1.9c-1.9,0.4-3.7,0.9-5.5,1.3l-0.3-1.9C421.4,126.7,423.2,126.3,425.1,125.9z"/>
<path class="st4" d="M331.4,125.9c1.8,0.4,3.6,0.9,5.4,1.2l-0.3,1.9c-1.8-0.3-3.7-0.8-5.5-1.2L331.4,125.9z"/>
<path class="st4" d="M342.3,128.1c1.8,0.3,3.6,0.6,5.5,0.9l-0.3,1.9c-1.9-0.3-3.7-0.6-5.5-0.9L342.3,128.1z"/>
<path class="st4" d="M414.2,128.2l0.3,1.9c-1.8,0.3-3.7,0.7-5.5,0.9l-0.3-1.9C410.6,128.9,412.4,128.5,414.2,128.2z"/>
<path class="st4" d="M353.3,129.7c1.8,0.2,3.7,0.4,5.5,0.6l-0.2,1.9c-1.9-0.2-3.8-0.3-5.6-0.6L353.3,129.7z"/>
<path class="st4" d="M403.3,129.9l0.3,1.9c-1.8,0.3-3.7,0.4-5.6,0.6l-0.2-1.9C399.6,130.3,401.5,130.1,403.3,129.9z"/>
<path class="st4" d="M364.4,130.7c1.1,0.1,2.2,0.2,3.3,0.2c0.8,0,1.5,0.1,2.2,0.1l-0.1,1.9c-0.8,0-1.5-0.1-2.2-0.1
	c-1.1-0.1-2.2-0.1-3.4-0.2L364.4,130.7z"/>
<path class="st4" d="M392.2,130.8l0.1,1.9c-1.8,0.1-3.7,0.2-5.6,0.3l-0.1-1.9C388.5,131,390.4,131,392.2,130.8z"/>
<path class="st4" d="M375.5,131.2c1.6,0,3.2,0.1,4.8,0.1h0.8v1.9h-0.8c-1.5,0-3.2,0-4.8-0.1V131.2z"/>
<path class="st4" d="M269.2,153.6c1.9,0,3.8,0.1,5.6,0.3l-0.2,1.9c-1.8-0.2-3.7-0.3-5.5-0.3L269.2,153.6z"/>
<path class="st4" d="M263.6,153.6l0.1,1.9c-0.8,0-1.5,0.1-2.2,0.1c-1.1,0.1-2.2,0.2-3.3,0.3l-0.2-1.9c1.1-0.1,2.2-0.2,3.4-0.3
	C262.1,153.7,262.9,153.7,263.6,153.6z"/>
<path class="st4" d="M280.5,154.4c1.8,0.3,3.7,0.5,5.6,0.9l-0.3,1.9c-1.8-0.3-3.7-0.6-5.5-0.9L280.5,154.4z"/>
<path class="st4" d="M252.4,154.8l0.3,1.9c-1.8,0.3-3.5,0.6-5.4,1l-0.3-1.9C248.8,155.4,250.6,155,252.4,154.8z"/>
<path class="st4" d="M291.6,156.4c1.8,0.4,3.6,0.9,5.5,1.4l-0.5,1.9c-1.8-0.5-3.6-0.9-5.4-1.4L291.6,156.4z"/>
<path class="st4" d="M241.4,157l0.4,1.9c-1.8,0.4-3.5,0.9-5.4,1.4l-0.4-1.9C237.7,157.9,239.6,157.4,241.4,157z"/>
<path class="st4" d="M302.4,159.5c1.8,0.6,3.5,1.2,5.3,1.9l-0.6,1.8c-1.7-0.7-3.5-1.3-5.2-1.9L302.4,159.5z"/>
<path class="st2" d="M230.5,159.8l0.4,1.9c-1.7,0.4-3.5,0.9-5.4,1.4l-0.4-1.9C227,160.8,228.8,160.3,230.5,159.8z"/>
<path class="st3" d="M219.7,162.5l0.4,1.9c-1.9,0.4-3.7,0.8-5.5,1.2l-0.3-1.9C216.1,163.3,217.9,162.9,219.7,162.5z"/>
<path class="st4" d="M313,163.5c1.7,0.7,3.4,1.5,5.2,2.3l-0.8,1.7c-1.7-0.8-3.4-1.5-5.1-2.2L313,163.5z"/>
<path class="st1" d="M208.8,164.7l0.3,1.9c-1.8,0.3-3.6,0.6-5.5,0.9l-0.3-1.9C205.2,165.3,207,165,208.8,164.7z"/>
<path class="st5" d="M197.7,166.5l0.3,1.9c-1.9,0.3-3.8,0.5-5.6,0.7l-0.2-1.9C194,166.9,195.8,166.7,197.7,166.5z"/>
<path class="st4" d="M186.7,167.8l0.2,1.9c-1.9,0.2-3.8,0.3-5.6,0.4l-0.2-1.9C182.9,168,184.8,167.9,186.7,167.8z"/>
<path class="st4" d="M323.3,168.3c1.6,0.9,3.4,1.7,5,2.7l-0.9,1.7c-1.6-0.9-3.3-1.8-4.9-2.7L323.3,168.3z"/>
<path class="st4" d="M175.5,168.5l0.1,1.9c-1.9,0.1-3.8,0.2-5.6,0.3l-0.1-1.9C171.8,168.7,173.7,168.6,175.5,168.5z"/>
<path class="st4" d="M164.4,168.9v1.9c-2,0-3.9,0-5.6,0v-1.9C160.7,168.9,162.5,168.9,164.4,168.9z"/>
<path class="st4" d="M426.5,96.3l0.7,1.8c-1.7,0.7-3.5,1.4-5.2,2.1l-0.6-1.8C423,97.7,424.8,97,426.5,96.3z"/>
<path class="st4" d="M416,100.2l0.6,1.8c-1.8,0.6-3.6,1.2-5.3,1.7l-0.5-1.8C412.5,101.3,414.3,100.8,416,100.2z"/>
<path class="st4" d="M312,101.9c1.7,0.5,3.5,1,5.3,1.5l-0.4,1.9c-1.8-0.5-3.6-1-5.4-1.5L312,101.9z"/>
<path class="st7" d="M405.3,103.4l0.4,1.9c-1.8,0.5-3.6,0.9-5.4,1.4l-0.4-1.9C401.7,104.3,403.5,103.9,405.3,103.4z"/>
<path class="st4" d="M322.7,104.7c1.8,0.4,3.6,0.9,5.4,1.2l-0.3,1.9c-1.8-0.3-3.7-0.8-5.5-1.2L322.7,104.7z"/>
<path class="st7" d="M394.5,106l0.3,1.9c-1.8,0.3-3.7,0.7-5.5,1l-0.3-1.9C390.9,106.7,392.7,106.3,394.5,106z"/>
<path class="st4" d="M333.7,106.9c1.8,0.3,3.7,0.6,5.5,0.9l-0.3,1.9c-1.8-0.3-3.7-0.5-5.6-0.9L333.7,106.9z"/>
<path class="st7" d="M383.6,107.8l0.3,1.9c-1.9,0.3-3.7,0.4-5.6,0.6l-0.2-1.9C379.9,108.2,381.7,108,383.6,107.8z"/>
<path class="st4" d="M344.7,108.4c1.8,0.2,3.7,0.3,5.5,0.4l-0.1,1.9c-1.9-0.1-3.7-0.3-5.6-0.4L344.7,108.4z"/>
<path class="st7" d="M372.5,108.8l0.1,1.9c-1.8,0.1-3.7,0.2-5.6,0.3l-0.1-0.9v-0.9C368.8,109.1,370.7,109,372.5,108.8z"/>
<path class="st4" d="M355.8,109.1c1.9,0.1,3.7,0.1,5.6,0.1v1.9c-1.9,0-3.8,0-5.6-0.1V109.1z"/>
<path class="st4" d="M172,124.2l0.7,1.8c-1.7,0.8-3.5,1.5-5.2,2.2l-0.7-1.8C168.6,125.7,170.3,125,172,124.2z"/>
<path class="st4" d="M59.7,124.6c0.9,0,1.9,0,2.9,0v1.9c-2,0-3.8,0-5.6,0v-1.9C57.9,124.6,58.8,124.6,59.7,124.6z"/>
<path class="st4" d="M51.4,124.7l0.1,1.9c-1.8,0.1-3.7,0.2-5.6,0.3l-0.2-1.9C47.7,124.9,49.6,124.8,51.4,124.7z"/>
<path class="st6" d="M68.3,124.7c1.9,0.1,3.8,0.2,5.6,0.3l-0.2,1.9c-1.8-0.2-3.7-0.3-5.6-0.3L68.3,124.7z"/>
<path class="st4" d="M79.4,125.6c1.9,0.2,3.8,0.4,5.6,0.7l-0.3,1.9c-1.8-0.3-3.6-0.5-5.5-0.7L79.4,125.6z"/>
<path class="st4" d="M90.6,127.1c1.8,0.3,3.6,0.7,5.5,1l-0.3,1.9c-1.9-0.4-3.7-0.8-5.5-1L90.6,127.1z"/>
<path class="st4" d="M161.7,128.3l0.6,1.8c-1.8,0.6-3.6,1.1-5.4,1.6l-0.5-1.9C158.1,129.4,159.9,128.9,161.7,128.3z"/>
<path class="st7" d="M101.6,129.4l2.4,0.5c1,0.3,2.1,0.4,3,0.7l-0.4,1.9c-1-0.3-2.1-0.4-3.1-0.7l-2.4-0.5L101.6,129.4z"/>
<path class="st4" d="M150.9,131.2l0.4,1.9c-1.8,0.4-3.7,0.8-5.5,1.1l-0.3-1.9C147.3,132,149.1,131.6,150.9,131.2z"/>
<path class="st7" d="M112.5,131.8c1.9,0.3,3.7,0.7,5.4,0.9l-0.3,1.9c-1.8-0.3-3.6-0.5-5.6-0.9L112.5,131.8z"/>
<path class="st7" d="M140,133.1l0.2,1.9c-1.9,0.2-3.8,0.3-5.6,0.4l-0.1-1.9C136.3,133.4,138.2,133.3,140,133.1z"/>
<path class="st7" d="M123.4,133.3c1,0.1,2.1,0.2,3.2,0.2c0.8,0,1.5,0.1,2.4,0.1v1.9c-0.9,0-1.6,0-2.4-0.1c-1.1-0.1-2.2-0.1-3.2-0.2
	V133.3z"/>
<path class="st4" d="M445,40c-0.6,0-1.3,0-2,0c-0.9,0-1.7,0-2.6,0v-1.9c0.9,0,1.7,0,2.5,0c0.7,0,1.3,0,2,0h1.1V40H445z"/>
<path class="st4" d="M451.8,39.9V38c1.9,0,3.8-0.1,5.6-0.2l0.1,1.9C455.5,39.8,453.6,39.9,451.8,39.9z"/>
<path class="st4" d="M435,39.8c-1.9-0.1-3.8-0.1-5.6-0.2l0.1-1.9c1.8,0.1,3.7,0.2,5.6,0.2L435,39.8z"/>
<path class="st4" d="M462.9,39.5l-0.1-1.9c1.9-0.1,3.8-0.3,5.6-0.3l0.2,1.9C466.7,39.3,464.9,39.4,462.9,39.5z"/>
<path class="st4" d="M423.8,39.4c-1.9-0.1-3.8-0.3-5.6-0.3l0.2-1.9c1.8,0.2,3.7,0.3,5.6,0.3L423.8,39.4z"/>
<path class="st4" d="M474.1,38.6l-0.2-1.9c1.9-0.2,3.7-0.4,5.5-0.6l0.3,1.9C477.9,38.3,476,38.4,474.1,38.6z"/>
<path class="st4" d="M412.6,38.5c-1.9-0.2-3.8-0.3-5.6-0.6l0.2-2c1.8,0.2,3.6,0.4,5.5,0.6L412.6,38.5z"/>
<path class="st4" d="M485.2,37.2l-0.3-1.9c1.8-0.3,3.7-0.6,5.5-0.9l0.3,1.9C489,36.6,487.1,37,485.2,37.2z"/>
<path class="st4" d="M401.4,37.2c-1.9-0.3-3.7-0.5-5.5-0.9l0.3-1.9c1.8,0.3,3.6,0.6,5.5,0.9L401.4,37.2z"/>
<path class="st4" d="M390.4,35.4c-1.9-0.3-3.7-0.7-5.5-1l0.3-1.9c1.8,0.3,3.6,0.7,5.5,1L390.4,35.4z"/>
<path class="st4" d="M379.4,33.2c-1.8-0.4-3.7-0.9-5.4-1.3l0.4-1.9c1.8,0.4,3.6,0.9,5.4,1.2L379.4,33.2z"/>
<path class="st1" d="M368.5,30.6c-1.8-0.4-3.6-0.9-5.4-1.4l0.4-1.9c1.8,0.4,3.6,0.9,5.4,1.4L368.5,30.6z"/>
<polygon class="st3" points="357.6,27.9 352.2,26.4 352.7,24.6 358.2,26 "/>
<path class="st2" d="M346.9,25c-1.8-0.4-3.6-0.9-5.4-1.4l0.4-1.9c1.8,0.4,3.6,0.9,5.4,1.4L346.9,25z"/>
<path class="st7" d="M164.3,24.7v-1.9c1.9,0,3.8,0,5.6-0.1l0.1,1.9C168.1,24.7,166.2,24.7,164.3,24.7z"/>
<path class="st4" d="M158.7,24.7c-1.8,0-3.7-0.1-5.6-0.2l0.1-1.9c1.9,0.1,3.8,0.1,5.6,0.2L158.7,24.7z"/>
<path class="st7" d="M175.5,24.4l-0.1-1.9c1.9-0.1,3.7-0.3,5.5-0.3l0.2,1.9C179.3,24.2,177.4,24.3,175.5,24.4z"/>
<path class="st4" d="M147.5,24.2c-1.9-0.1-3.8-0.2-5.6-0.3L142,22c1.8,0.1,3.7,0.2,5.6,0.3L147.5,24.2z"/>
<path class="st4" d="M136.4,23.6c-1.9-0.2-3.8-0.3-5.6-0.4l0.2-1.9c1.8,0.2,3.7,0.3,5.6,0.4L136.4,23.6z"/>
<path class="st7" d="M186.7,23.5l-0.2-1.9c1.8-0.2,3.6-0.4,5.5-0.8l0.3,1.9C190.4,23,188.6,23.3,186.7,23.5z"/>
<path class="st4" d="M125.2,22.6c-1.9-0.2-3.7-0.4-5.6-0.6l0.2-1.9c1.8,0.2,3.7,0.4,5.5,0.6L125.2,22.6z"/>
<path class="st5" d="M336,22.4c-1.8-0.4-3.6-0.8-5.4-1.2l0.3-1.9c1.9,0.4,3.7,0.8,5.5,1.2L336,22.4z"/>
<path class="st7" d="M197.8,21.8l-0.3-1.9c1.8-0.3,3.7-0.7,5.5-1l0.3,1.9C201.5,21.2,199.7,21.5,197.8,21.8z"/>
<path class="st4" d="M114.1,21.3c-1.9-0.3-3.7-0.5-5.6-0.7l0.3-1.9c1.8,0.3,3.7,0.5,5.5,0.7L114.1,21.3z"/>
<path class="st4" d="M325.1,20.1c-1.8-0.3-3.6-0.7-5.5-0.9l0.3-1.9c1.9,0.3,3.7,0.7,5.5,1L325.1,20.1z"/>
<path class="st4" d="M103,19.9c-1.9-0.3-3.7-0.5-5.5-0.8l0.3-1.9c1.8,0.3,3.7,0.5,5.5,0.8L103,19.9z"/>
<path class="st4" d="M208.8,19.7l-0.3-1.9c1.8-0.3,3.6-0.7,5.5-1l0.3,1.9C212.4,19,210.5,19.3,208.8,19.7z"/>
<path class="st4" d="M314.1,18.3c-1.8-0.3-3.6-0.5-5.5-0.8l0.3-1.9c1.9,0.3,3.7,0.5,5.6,0.8L314.1,18.3z"/>
<polygon class="st4" points="91.9,18.2 86.4,17.4 86.6,15.5 92.1,16.2 "/>
<path class="st4" d="M219.7,17.7l-0.3-1.9c1.9-0.3,3.7-0.5,5.6-0.8l0.3,1.9C223.4,17.2,221.6,17.5,219.7,17.7z"/>
<path class="st4" d="M303.1,16.9c-1.8-0.2-3.6-0.3-5.5-0.6l0.2-1.9c1.9,0.2,3.8,0.3,5.6,0.6L303.1,16.9z"/>
<path class="st4" d="M80.9,16.5c-1.8-0.3-3.7-0.5-5.5-0.9l0.3-1.9c1.9,0.3,3.7,0.5,5.5,0.9L80.9,16.5z"/>
<path class="st4" d="M230.7,16.2l-0.2-1.9c1.8-0.2,3.7-0.3,5.6-0.5l0.2,1.9C234.4,15.9,232.5,16.1,230.7,16.2z"/>
<path class="st4" d="M292,15.8c-1.8-0.2-3.7-0.3-5.6-0.3l0.1-1.9c1.9,0.1,3.8,0.3,5.6,0.3L292,15.8z"/>
<path class="st4" d="M241.8,15.4l-0.1-1.9c1.8-0.1,3.6-0.2,5.6-0.3l0.1,1.9C245.4,15.2,243.6,15.3,241.8,15.4z"/>
<path class="st6" d="M280.8,15.2c-1.8-0.1-3.7-0.2-5.6-0.2l0.1-1.9c1.9,0.1,3.8,0.1,5.6,0.2L280.8,15.2z"/>
<path class="st4" d="M253,15l-0.1-1.9c1.8-0.1,3.7-0.1,5.6-0.1v1.9C256.6,14.9,254.7,14.9,253,15z"/>
<path class="st4" d="M69.8,14.9c-1.8-0.3-3.7-0.5-5.5-0.8l0.3-1.9c1.9,0.3,3.7,0.5,5.5,0.8L69.8,14.9z"/>
<path class="st4" d="M269.7,14.9c-1.8,0-3.7,0-5.6-0.1v-1.9c1.9,0,3.8,0,5.6,0.1V14.9z"/>
<path class="st6" d="M58.8,13.4c-1.8-0.3-3.7-0.4-5.5-0.6l0.2-1.9c1.9,0.2,3.7,0.4,5.6,0.6L58.8,13.4z"/>
<path class="st4" d="M47.7,12.3c-1.8-0.2-3.7-0.3-5.6-0.4l0.2-1.9c1.9,0.2,3.8,0.3,5.6,0.4L47.7,12.3z"/>
<path class="st4" d="M36.5,11.4c-1.8-0.1-3.7-0.2-5.6-0.3L31,9.2c1.9,0.1,3.8,0.2,5.6,0.3L36.5,11.4z"/>
<path class="st4" d="M25.4,10.9c-1.8-0.1-3.7-0.1-5.6-0.2V8.8c1.9,0,3.8,0.1,5.6,0.2V10.9z"/>
<path class="st4" d="M8.7,10.7V8.8c1.9,0,3.8,0,5.6,0v1.9C12.4,10.7,10.6,10.7,8.7,10.7z"/>
<path class="st2" d="M463.4,75.5H463c-1.7,0-3.4,0-5.2-0.1l0.1-1.9c1.7,0.1,3.4,0.1,5.2,0.1h0.4L463.4,75.5L463.4,75.5z"/>
<path class="st1" d="M469,75.4l-0.1-1.9c1.5,0,2.9-0.1,4.4-0.2l1.2-0.1l0.1,1.9l-1.2,0.1C471.9,75.4,470.5,75.4,469,75.4z"/>
<path class="st3" d="M452.2,75.3c-1.9-0.1-3.8-0.3-5.6-0.4l0.2-1.9c1.8,0.2,3.7,0.3,5.5,0.4L452.2,75.3z"/>
<path class="st4" d="M480.2,74.9L480,73c1.8-0.2,3.7-0.3,5.5-0.5l0.2,1.9C484,74.6,482.1,74.8,480.2,74.9z"/>
<path class="st5" d="M441,74.2c-1.9-0.3-3.7-0.5-5.6-0.9l0.3-1.9c1.8,0.3,3.6,0.6,5.5,0.9L441,74.2z"/>
<path class="st4" d="M491.4,73.8l-0.3-1.9c1.8-0.3,3.7-0.5,5.5-0.8l0.3,1.9C495.1,73.3,493.3,73.5,491.4,73.8z"/>
<path class="st4" d="M429.9,72.3c-1.8-0.4-3.6-0.9-5.5-1.3l0.4-1.9c1.8,0.4,3.6,0.9,5.4,1.3L429.9,72.3z"/>
<path class="st4" d="M419.1,69.4c-1.7-0.5-3.5-1.1-5.3-1.7l0.6-1.8c1.8,0.6,3.5,1.2,5.2,1.7L419.1,69.4z"/>
<path class="st4" d="M184.7,66.8v-1.9c1.9,0,3.8,0,5.6-0.1l0.1,1.9C188.5,66.8,186.6,66.8,184.7,66.8z"/>
<path class="st5" d="M179.2,66.8c-1.8,0-3.7-0.1-5.6-0.1l0.1-1.9c1.9,0.1,3.8,0.1,5.6,0.1L179.2,66.8z"/>
<path class="st4" d="M195.9,66.6l-0.1-1.9c1.9-0.1,3.8-0.2,5.6-0.3l0.1,1.9C199.7,66.3,197.8,66.4,195.9,66.6z"/>
<path class="st1" d="M168,66.5h-0.3c-1.8-0.1-3.6-0.2-5.2-0.3l0.1-1.9c1.7,0.1,3.4,0.2,5.2,0.3h0.3L168,66.5z"/>
<path class="st2" d="M156.8,65.8c-2-0.2-3.8-0.3-5.6-0.5l0.2-1.9c1.8,0.2,3.6,0.3,5.5,0.5L156.8,65.8z"/>
<path class="st4" d="M408.4,65.8c-1.7-0.7-3.5-1.4-5.2-2.1l0.7-1.8c1.7,0.7,3.4,1.4,5.2,2L408.4,65.8z"/>
<path class="st4" d="M207.1,65.7l-0.2-1.9c1.9-0.2,3.7-0.3,5.5-0.6l0.3,1.9C210.9,65.4,209,65.5,207.1,65.7z"/>
<path class="st3" d="M145.6,64.6c-1.9-0.3-3.7-0.5-5.6-0.8l0.3-1.9c1.8,0.3,3.7,0.5,5.5,0.8L145.6,64.6z"/>
<path class="st4" d="M218.2,64.3l-0.3-1.9c1.8-0.3,3.7-0.6,5.5-0.9l0.3,1.9C221.9,63.8,220.1,64.1,218.2,64.3z"/>
<path class="st4" d="M134.5,63c-1.9-0.3-3.7-0.7-5.5-1l0.3-1.9c1.8,0.3,3.6,0.7,5.5,1L134.5,63z"/>
<path class="st6" d="M229.3,62.4l-0.3-1.9c1.8-0.3,3.6-0.8,5.4-1.2l0.4,1.9C232.9,61.7,231.1,62.1,229.3,62.4z"/>
<path class="st4" d="M398,61.7c-1.7-0.7-3.4-1.4-5.2-2.1l0.7-1.8c1.7,0.7,3.5,1.4,5.2,2.1L398,61.7z"/>
<path class="st4" d="M123.6,60.8c-1.5-0.3-3.1-0.7-4.6-0.9l-0.9-0.2l0.3-1.9l0.9,0.2c1.5,0.3,3.1,0.7,4.6,0.9L123.6,60.8z"/>
<path class="st4" d="M240.2,60l-0.4-1.9c1.8-0.4,3.6-0.9,5.4-1.4l0.4,1.9C243.9,59,242,59.4,240.2,60z"/>
<path class="st4" d="M112.7,58.5c-1.8-0.3-3.6-0.8-5.5-1.1l0.3-1.9c1.9,0.3,3.7,0.8,5.5,1.1L112.7,58.5z"/>
<path class="st4" d="M387.5,57.6c-1.8-0.7-3.5-1.3-5.2-1.9l0.6-1.8c1.7,0.6,3.4,1.2,5.3,1.9L387.5,57.6z"/>
<path class="st4" d="M251.1,57l-0.5-1.9c1.7-0.4,3.4-0.9,5-1.5l0.3-0.1l0.5,1.9l-0.3,0.1C254.4,56.1,252.7,56.5,251.1,57z"/>
<path class="st4" d="M101.6,56.3c-1.7-0.3-3.6-0.6-5.5-0.9l0.3-1.9c1.9,0.3,3.8,0.6,5.5,0.9L101.6,56.3z"/>
<path class="st4" d="M90.6,54.7c-1.8-0.3-3.6-0.4-5.5-0.7l0.2-1.9c1.9,0.2,3.8,0.4,5.6,0.7L90.6,54.7z"/>
<path class="st4" d="M377,54c-1.8-0.5-3.6-1.1-5.3-1.5l0.5-1.9c1.8,0.5,3.6,1,5.4,1.5L377,54z"/>
<path class="st4" d="M261.8,54l-0.5-1.9c1.8-0.5,3.6-1,5.4-1.5l0.4,1.9C265.4,53,263.6,53.5,261.8,54z"/>
<path class="st4" d="M7.2,53.8L7,52c1.8-0.2,3.7-0.3,5.6-0.5l0.2,1.9C10.9,53.5,9.1,53.7,7.2,53.8z"/>
<path class="st4" d="M79.6,53.5c-1.8-0.2-3.6-0.3-5.6-0.4l0.2-1.9c1.9,0.2,3.8,0.3,5.6,0.4L79.6,53.5z"/>
<path class="st4" d="M18.4,52.9L18.3,51c1.8-0.1,3.7-0.3,5.6-0.3l0.1,1.9C22.1,52.7,20.2,52.8,18.4,52.9z"/>
<path class="st4" d="M68.5,52.7c-1.9-0.1-3.7-0.2-5.6-0.3l0.1-1.9c1.9,0.1,3.7,0.2,5.6,0.3L68.5,52.7z"/>
<path class="st6" d="M29.5,52.3l-0.1-1.9c1.9-0.1,3.7-0.2,5.6-0.2l0.1,1.9C33.2,52.2,31.4,52.3,29.5,52.3z"/>
<path class="st4" d="M57.3,52.2c-1.9-0.1-3.7-0.1-5.6-0.2v-1.9c1.9,0,3.7,0.1,5.6,0.2V52.2z"/>
<path class="st4" d="M40.6,52v-1.9c1.5,0,2.9,0,4.5,0h1.1V52h-1.1C43.6,52,42.1,52,40.6,52z"/>
<path class="st4" d="M272.6,51.1l-0.4-1.9c1.9-0.4,3.7-0.9,5.5-1.3l0.3,1.9C276.3,50.2,274.5,50.7,272.6,51.1z"/>
<path class="st4" d="M366.3,51.1c-1.8-0.4-3.6-0.9-5.4-1.2l0.3-1.9c1.8,0.3,3.7,0.8,5.5,1.2L366.3,51.1z"/>
<path class="st4" d="M355.4,48.9c-1.8-0.3-3.6-0.6-5.5-0.9l0.3-1.9c1.9,0.3,3.7,0.6,5.5,0.9L355.4,48.9z"/>
<path class="st4" d="M283.5,48.8l-0.3-1.9c1.8-0.3,3.7-0.7,5.5-0.9l0.3,1.9C287.1,48.1,285.3,48.4,283.5,48.8z"/>
<path class="st4" d="M344.4,47.2c-1.8-0.2-3.7-0.4-5.5-0.6l0.2-1.9c1.9,0.2,3.8,0.3,5.6,0.6L344.4,47.2z"/>
<path class="st4" d="M294.4,47l-0.3-1.9c1.8-0.3,3.7-0.4,5.6-0.6l0.2,1.9C298.1,46.6,296.2,46.9,294.4,47z"/>
<path class="st4" d="M333.3,46.3c-1.1-0.1-2.2-0.2-3.3-0.2c-0.8,0-1.5-0.1-2.2-0.1l0.1-1.9c0.8,0,1.5,0.1,2.2,0.1
	c1.1,0.1,2.2,0.1,3.4,0.2L333.3,46.3z"/>
<path class="st4" d="M305.5,46.1l-0.1-1.9c1.8-0.1,3.7-0.2,5.6-0.3l0.1,1.9C309.2,45.9,307.3,45.9,305.5,46.1z"/>
<path class="st4" d="M322.2,45.8c-1.6,0-3.2-0.1-4.8-0.1h-0.8v-1.9h0.8c1.5,0,3.2,0,4.8,0.1V45.8z"/>
<path class="st4" d="M418.7,23.3c-1.9,0-3.8-0.1-5.6-0.3l0.2-1.9c1.8,0.2,3.7,0.3,5.5,0.3L418.7,23.3z"/>
<path class="st4" d="M424.3,23.3l-0.1-1.9c0.8,0,1.5-0.1,2.2-0.1c1.1-0.1,2.2-0.2,3.3-0.3l0.2,1.9c-1.1,0.1-2.2,0.2-3.4,0.3
	C425.8,23.2,425,23.2,424.3,23.3z"/>
<path class="st4" d="M407.4,22.5c-1.8-0.3-3.7-0.5-5.6-0.9l0.3-1.9c1.8,0.3,3.7,0.6,5.5,0.9L407.4,22.5z"/>
<path class="st4" d="M435.5,22.2l-0.3-1.9c1.8-0.3,3.5-0.6,5.4-1l0.3,1.9C439.2,21.6,437.3,21.9,435.5,22.2z"/>
<path class="st4" d="M396.3,20.6c-1.8-0.4-3.6-0.9-5.5-1.4l0.5-1.9c1.8,0.5,3.6,0.9,5.4,1.4L396.3,20.6z"/>
<path class="st4" d="M446.6,19.9l-0.4-1.9c1.8-0.4,3.5-0.9,5.4-1.4l0.4,1.9C450.2,19,448.4,19.5,446.6,19.9z"/>
<path class="st4" d="M385.5,17.5c-1.8-0.6-3.5-1.2-5.3-1.9l0.6-1.8c1.7,0.7,3.5,1.3,5.2,1.9L385.5,17.5z"/>
<path class="st2" d="M457.4,17.1l-0.4-1.9c1.7-0.4,3.5-0.9,5.4-1.4l0.4,1.9C460.9,16.2,459.1,16.7,457.4,17.1z"/>
<path class="st3" d="M468.2,14.4l-0.4-1.9c1.9-0.4,3.7-0.8,5.5-1.2l0.3,1.9C471.8,13.7,470,14,468.2,14.4z"/>
<path class="st4" d="M374.9,13.5c-1.7-0.7-3.4-1.5-5.2-2.3l0.8-1.7c1.7,0.8,3.4,1.5,5.1,2.2L374.9,13.5z"/>
<path class="st1" d="M479.2,12.2l-0.3-1.9c1.8-0.3,3.6-0.6,5.5-0.9l0.3,1.9C482.7,11.6,480.9,11.9,479.2,12.2z"/>
<path class="st5" d="M490.2,10.5l-0.3-1.9c1.9-0.3,3.8-0.5,5.6-0.7l0.2,1.9C493.9,10.1,492.1,10.2,490.2,10.5z"/>
<path class="st4" d="M364.6,8.7c-1.6-0.9-3.4-1.7-5-2.7l0.9-1.7c1.6,0.9,3.3,1.8,4.9,2.7L364.6,8.7z"/>
<path class="st5" d="M18.5,85.3c-0.8,0-1.6,0-2.5,0v-1.9c1.9,0,3.8,0,5.6,0v1.9C20.6,85.3,19.6,85.3,18.5,85.3z"/>
<path class="st4" d="M10.4,85.2c-1.9-0.1-3.8-0.2-5.6-0.3L5,82.9c1.8,0.2,3.7,0.3,5.5,0.3L10.4,85.2z"/>
<path class="st2" d="M27.3,85.1l-0.1-1.9c1.5-0.1,2.8-0.2,4.2-0.3c0.4,0,0.9-0.1,1.4-0.1l0.2,1.9c-0.4,0-0.9,0.1-1.4,0.1
	C30.1,84.9,28.7,85,27.3,85.1z"/>
<path class="st3" d="M38.4,84.1l-0.3-1.9c1.8-0.3,3.6-0.5,5.5-0.8l0.3,1.9C42.1,83.6,40.3,83.9,38.4,84.1z"/>
<path class="st1" d="M49.5,82.4l-0.3-1.9c1.9-0.3,3.7-0.7,5.5-1.1l0.3,1.9C53.2,81.6,51.4,82.1,49.5,82.4z"/>
<path class="st4" d="M60.5,80.2l-0.3-1.9c1.8-0.3,3.6-0.8,5.5-1.1l0.3,1.9C64.1,79.4,62.3,79.8,60.5,80.2z"/>
<path class="st4" d="M143.2,79.6c-1.8-0.3-3.6-0.7-5.5-1l0.3-1.9c1.8,0.3,3.7,0.7,5.5,1L143.2,79.6z"/>
<path class="st4" d="M71.4,78.1l-0.3-1.9c1.9-0.3,3.7-0.6,5.5-0.9l0.3,1.9C75.1,77.5,73.3,77.8,71.4,78.1z"/>
<path class="st4" d="M132.3,77.7c-1.8-0.3-3.7-0.5-5.5-0.7l0.2-1.9c1.9,0.3,3.7,0.4,5.6,0.8L132.3,77.7z"/>
<path class="st4" d="M82.4,76.6l-0.2-1.9c1.8-0.2,3.7-0.3,5.6-0.5L88,76C86.1,76.2,84.2,76.4,82.4,76.6z"/>
<path class="st4" d="M121.2,76.3c-1.9-0.2-3.7-0.3-5.5-0.4l0.1-1.9c1.8,0.1,3.7,0.3,5.6,0.4L121.2,76.3z"/>
<path class="st4" d="M93.5,75.7l-0.1-1.9c1.9-0.1,3.7-0.2,5.6-0.2v1.9C97.2,75.6,95.3,75.6,93.5,75.7z"/>
<path class="st4" d="M110.1,75.6c-1.8-0.1-3.7-0.1-5.6-0.1v-1.9c1.9,0,3.8,0.1,5.6,0.1V75.6z"/>
<path class="st4" d="M64.9,37.8c-1.5,0-3.1,0-4.6-0.1l0.1-1.9c1.8,0.1,3.7,0.1,5.5,0.1v1.9C65.6,37.8,65.3,37.8,64.9,37.8z"/>
<path class="st6" d="M71.6,37.6l-0.1-1.9c1.8-0.1,3.7-0.3,5.5-0.5l0.2,1.9C75.4,37.2,73.5,37.4,71.6,37.6z"/>
<path class="st4" d="M54.7,37.2h-0.3c-1.8-0.2-3.6-0.4-5.3-0.7l0.3-1.9c1.7,0.3,3.4,0.5,5.2,0.7h0.3L54.7,37.2z"/>
<path class="st4" d="M82.8,36.3l-0.3-1.9c1.8-0.3,3.6-0.7,5.4-1l0.3,1.9C86.5,35.6,84.6,36,82.8,36.3z"/>
<path class="st4" d="M43.5,35.5c-1.8-0.3-3.6-0.9-5.5-1.4l0.5-1.9c1.9,0.5,3.6,0.9,5.4,1.3L43.5,35.5z"/>
<path class="st7" d="M32.7,32.6c-1.2-0.3-2.3-0.8-3.5-1.1l-1.8-0.6l0.5-1.8l1.8,0.6c1.2,0.3,2.3,0.8,3.5,1.1L32.7,32.6z"/>
<path class="st7" d="M22,29.2c-1.9-0.5-3.6-1-5.3-1.4l0.4-1.9c1.7,0.4,3.5,0.9,5.4,1.5L22,29.2z"/>
<path class="st7" d="M11.3,26.7c-0.9-0.2-1.9-0.3-2.8-0.4c-0.9-0.1-1.7-0.2-2.6-0.3L6,24.1c0.9,0.1,1.8,0.2,2.7,0.3
	c1,0.2,2,0.3,2.9,0.4L11.3,26.7z"/>
<path class="st4" d="M267.2,80.7l-0.7-1.8c1.7-0.7,3.5-1.4,5.2-2.1l0.6,1.8C270.7,79.2,268.9,79.9,267.2,80.7z"/>
<path class="st4" d="M277.7,76.7l-0.6-1.8c1.8-0.6,3.6-1.2,5.3-1.7L283,75C281.2,75.6,279.4,76.1,277.7,76.7z"/>
<path class="st4" d="M381.7,75.1c-1.7-0.5-3.5-1-5.3-1.5l0.4-1.9c1.8,0.5,3.6,1,5.4,1.5L381.7,75.1z"/>
<path class="st7" d="M288.4,73.5l-0.4-1.9c1.8-0.5,3.6-0.9,5.4-1.4l0.4,1.9C292,72.6,290.2,73,288.4,73.5z"/>
<path class="st4" d="M371,72.3c-1.8-0.4-3.6-0.9-5.4-1.2l0.3-1.9c1.8,0.3,3.7,0.8,5.5,1.2L371,72.3z"/>
<path class="st7" d="M299.2,71l-0.3-1.9c1.8-0.3,3.7-0.7,5.5-1l0.3,1.9C302.8,70.3,301,70.6,299.2,71z"/>
<path class="st4" d="M360,70c-1.8-0.3-3.7-0.6-5.5-0.9l0.3-1.9c1.8,0.3,3.7,0.5,5.6,0.9L360,70z"/>
<path class="st7" d="M310.1,69.2l-0.3-1.9c1.9-0.3,3.7-0.4,5.6-0.6l0.2,1.9C313.8,68.7,312,68.9,310.1,69.2z"/>
<path class="st4" d="M349,68.6c-1.8-0.2-3.7-0.3-5.5-0.4l0.1-1.9c1.9,0.1,3.7,0.3,5.6,0.4L349,68.6z"/>
<path class="st7" d="M321.2,68.1l-0.1-1.9c1.8-0.1,3.7-0.2,5.6-0.3l0.1,0.9v0.9C324.9,67.9,323.1,68,321.2,68.1z"/>
<path class="st4" d="M337.9,67.9c-1.9-0.1-3.7-0.1-5.6-0.1v-1.9c1.9,0,3.8,0,5.6,0.1V67.9z"/>
</svg>
