<?xml version="1.0" encoding="utf-8"?>
<!-- Generator: Adobe Illustrator 24.3.0, SVG Export Plug-In . SVG Version: 6.00 Build 0)  -->
<svg version="1.1" id="Camada_1" xmlns="http://www.w3.org/2000/svg" xmlns:xlink="http://www.w3.org/1999/xlink" x="0px" y="0px"
	 width="500px" height="150px" viewBox="0 0 500 150" style="enable-background:new 0 0 500 150;" xml:space="preserve">
<style type="text/css">
	.st0{fill:#292930;}
	.st1{fill:#24242B;}
</style>
<rect class="st0" width="500" height="75"/>
<rect y="75" class="st1" width="500" height="75"/>
<g>
	<path class="st1" d="M6.3,137.6L6.3,137.6c-3.5,0-6.3-3.1-6.3-7V64.4c0-3.9,2.8-7,6.3-7l0,0c3.5,0,6.3,3.1,6.3,7v66.1
		C12.4,134.4,9.8,137.6,6.3,137.6z"/>
	<path class="st1" d="M31.3,128L31.3,128c-3.5,0-6.3-3.1-6.3-7V54.8c0-3.9,2.8-7,6.3-7l0,0c3.5,0,6.3,3.1,6.3,7v66.1
		C37.5,124.8,34.6,128,31.3,128z"/>
	<path class="st1" d="M56.2,134.9L56.2,134.9c-3.5,0-6.3-3.1-6.3-7V61.7c0-3.9,2.8-7,6.3-7l0,0c3.5,0,6.3,3.1,6.3,7v66.1
		C62.5,131.7,59.7,134.9,56.2,134.9z"/>
	<path class="st1" d="M81.2,97.3L81.2,97.3c-3.5,0-6.3-3.1-6.3-7V10.3c0-3.9,2.8-7,6.3-7l0,0c3.5,0,6.3,3.1,6.3,7v79.9
		C87.5,94.1,84.7,97.3,81.2,97.3z"/>
	<path class="st1" d="M106.2,134.9L106.2,134.9c-3.5,0-6.3-3.1-6.3-7V61.7c0-3.9,2.8-7,6.3-7l0,0c3.5,0,6.3,3.1,6.3,7v66.1
		C112.5,131.7,109.7,134.9,106.2,134.9z"/>
	<path class="st1" d="M131.2,117.5L131.2,117.5c-3.5,0-6.3-3.1-6.3-7V44.4c0-3.9,2.8-7,6.3-7l0,0c3.5,0,6.3,3.1,6.3,7v66.1
		C137.5,114.3,134.7,117.5,131.2,117.5z"/>
	<path class="st1" d="M156.2,128L156.2,128c-3.5,0-6.3-3.1-6.3-7V54.8c0-3.9,2.8-7,6.3-7l0,0c3.5,0,6.3,3.1,6.3,7v66.1
		C162.5,124.8,159.7,128,156.2,128z"/>
	<path class="st1" d="M181.2,131.3L181.2,131.3c-3.5,0-6.3-3.1-6.3-7V44.4c0-3.9,2.8-7,6.3-7l0,0c3.5,0,6.3,3.1,6.3,7v79.9
		C187.5,128.1,184.7,131.3,181.2,131.3z"/>
	<path class="st1" d="M206.3,143L206.3,143c-3.5,0-6.3-3.1-6.3-7V44.8c0-3.9,2.8-7,6.3-7l0,0c3.5,0,6.3,3.1,6.3,7v91.3
		C212.5,139.8,209.7,143,206.3,143z"/>
	<path class="st1" d="M231.3,104.1L231.3,104.1c-3.5,0-6.3-3.1-6.3-7v-33c0-3.9,2.8-7,6.3-7l0,0c3.5,0,6.3,3.1,6.3,7v33.1
		C237.6,101.1,234.8,104.1,231.3,104.1z"/>
	<path class="st1" d="M256.3,119.9L256.3,119.9c-3.5,0-6.3-3.1-6.3-7V58.3c0-3.9,2.8-7,6.3-7l0,0c3.5,0,6.3,3.1,6.3,7V113
		C262.6,116.7,259.8,119.9,256.3,119.9z"/>
	<path class="st1" d="M281.3,137.1L281.3,137.1c-3.5,0-6.3-3.1-6.3-7V38.8c0-3.9,2.8-7,6.3-7l0,0c3.5,0,6.3,3.1,6.3,7v91.3
		C287.6,134,284.8,137.1,281.3,137.1z"/>
	<path class="st1" d="M306.3,97.9L306.3,97.9c-3.5,0-6.3-3.1-6.3-7V57.7c0-3.9,2.8-7,6.3-7l0,0c3.5,0,6.3,3.1,6.3,7v33.1
		C312.5,94.7,309.8,97.9,306.3,97.9z"/>
	<path class="st1" d="M331.3,130.4L331.3,130.4c-3.5,0-6.3-3.1-6.3-7V68.6c0-3.9,2.8-7,6.3-7l0,0c3.5,0,6.3,3.1,6.3,7v54.7
		C337.5,127.2,334.7,130.4,331.3,130.4z"/>
	<path class="st1" d="M356.2,101.7L356.2,101.7c-3.5,0-6.3-3.1-6.3-7V28.6c0-3.9,2.8-7,6.3-7l0,0c3.5,0,6.3,3.1,6.3,7v66.1
		C362.5,98.6,359.7,101.7,356.2,101.7z"/>
	<path class="st1" d="M381.2,111L381.2,111c-3.5,0-6.3-3.1-6.3-7V37.9c0-3.9,2.8-7,6.3-7l0,0c3.5,0,6.3,3.1,6.3,7V104
		C387.5,107.9,384.7,111,381.2,111z"/>
	<path class="st1" d="M406.2,121.7L406.2,121.7c-3.5,0-6.3-3.1-6.3-7V48.6c0-3.9,2.8-7,6.3-7l0,0c3.5,0,6.3,3.1,6.3,7v66.1
		C412.5,118.5,409.7,121.7,406.2,121.7z"/>
	<path class="st1" d="M431.2,130.4L431.2,130.4c-3.5,0-6.3-3.1-6.3-7V57.2c0-3.9,2.8-7,6.3-7l0,0c3.5,0,6.3,3.1,6.3,7v66.1
		C437.5,127.2,434.7,130.4,431.2,130.4z"/>
	<path class="st1" d="M456.3,148.1L456.3,148.1c-3.5,0-6.3-3.1-6.3-7V61.1c0-3.9,2.8-7,6.3-7l0,0c3.5,0,6.3,3.1,6.3,7V141
		C462.5,144.9,459.7,148.1,456.3,148.1z"/>
	<path class="st1" d="M481.3,126.2L481.3,126.2c-3.5,0-6.3-3.1-6.3-7V53c0-3.9,2.8-7,6.3-7l0,0c3.5,0,6.3,3.1,6.3,7v66.1
		C487.6,123,484.8,126.2,481.3,126.2z"/>
</g>
<g>
	<path class="st0" d="M18.7,90.4L18.7,90.4c-3.5,0-6.3-3.1-6.3-7V17.2c0-3.9,2.8-7,6.3-7l0,0c3.5,0,6.3,3.1,6.3,7v66.1
		C25,87.2,22.2,90.4,18.7,90.4z"/>
	<path class="st0" d="M43.7,120.8L43.7,120.8c-3.5,0-6.3-3.1-6.3-7V47.7c0-3.9,2.8-7,6.3-7l0,0c3.5,0,6.3,3.1,6.3,7v66.1
		C50,117.6,47.2,120.8,43.7,120.8z"/>
	<path class="st0" d="M68.8,115.7L68.8,115.7c-3.5,0-6.3-3.1-6.3-7V28.8c0-3.9,2.8-7,6.3-7l0,0c3.5,0,6.3,3.1,6.3,7v79.9
		C75,112.5,72.2,115.7,68.8,115.7z"/>
	<path class="st0" d="M93.8,124.5L93.8,124.5c-3.5,0-6.3-3.1-6.3-7V51.4c0-3.9,2.8-7,6.3-7l0,0c3.5,0,6.3,3.1,6.3,7v66.1
		C100.1,121.4,97.2,124.5,93.8,124.5z"/>
	<path class="st0" d="M118.8,101.9L118.8,101.9c-3.5,0-6.3-3.1-6.3-7V28.8c0-3.9,2.8-7,6.3-7l0,0c3.5,0,6.3,3.1,6.3,7v66.1
		C125.1,98.8,122.3,101.9,118.8,101.9z"/>
	<path class="st0" d="M143.8,92.6L143.8,92.6c-3.5,0-6.3-3.1-6.3-7V19.5c0-3.9,2.8-7,6.3-7l0,0c3.5,0,6.3,3.1,6.3,7v66.1
		C149.9,89.5,147.1,92.6,143.8,92.6z"/>
	<path class="st0" d="M168.8,105.5L168.8,105.5c-3.5,0-6.3-3.1-6.3-7V18.6c0-3.9,2.8-7,6.3-7l0,0c3.5,0,6.3,3.1,6.3,7v79.9
		C175.1,102.3,172.3,105.5,168.8,105.5z"/>
	<path class="st0" d="M193.8,126.9L193.8,126.9c-3.5,0-6.3-3.1-6.3-7V28.8c0-3.9,2.8-7,6.3-7l0,0c3.5,0,6.3,3.1,6.3,7v91.1
		C200,123.8,197.3,126.9,193.8,126.9z"/>
	<path class="st0" d="M218.8,84.5L218.8,84.5c-3.5,0-6.3-3.1-6.3-7V44.4c0-3.9,2.8-7,6.3-7l0,0c3.5,0,6.3,3.1,6.3,7v33.1
		C225,81.4,222.2,84.5,218.8,84.5z"/>
	<path class="st0" d="M243.7,92.6L243.7,92.6c-3.5,0-6.3-3.1-6.3-7V31c0-3.9,2.8-7,6.3-7l0,0c3.5,0,6.3,3.1,6.3,7v54.7
		C250,89.5,247.2,92.6,243.7,92.6z"/>
	<path class="st0" d="M268.7,105.2L268.7,105.2c-3.5,0-6.3-3.1-6.3-7V7c0-3.9,2.8-7,6.3-7l0,0c3.5,0,6.3,3.1,6.3,7v91.3
		C275,102,272.2,105.2,268.7,105.2z"/>
	<path class="st0" d="M293.7,113.9L293.7,113.9c-3.5,0-6.3-3.1-6.3-7v-33c0-3.9,2.8-7,6.3-7l0,0c3.5,0,6.3,3.1,6.3,7V107
		C300,110.7,297.2,113.9,293.7,113.9z"/>
	<path class="st0" d="M318.8,101.1L318.8,101.1c-3.5,0-6.3-3.1-6.3-7V39.6c0-3.9,2.8-7,6.3-7l0,0c3.5,0,6.3,3.1,6.3,7v54.7
		C325,98,322.2,101.1,318.8,101.1z"/>
	<path class="st0" d="M343.8,128L343.8,128c-3.5,0-6.3-3.1-6.3-7V54.8c0-3.9,2.8-7,6.3-7l0,0c3.5,0,6.3,3.1,6.3,7v66.1
		C350.1,124.8,347.2,128,343.8,128z"/>
	<path class="st0" d="M368.8,141.2L368.8,141.2c-3.5,0-6.3-3.1-6.3-7V68c0-3.9,2.8-7,6.3-7l0,0c3.5,0,6.3,3.1,6.3,7v66.1
		C375.1,138.2,372.3,141.2,368.8,141.2z"/>
	<path class="st0" d="M393.8,139.7L393.8,139.7c-3.5,0-6.3-3.1-6.3-7V66.5c0-3.9,2.8-7,6.3-7l0,0c3.5,0,6.3,3.1,6.3,7v66.1
		C400.1,136.5,397.3,139.7,393.8,139.7z"/>
	<path class="st0" d="M418.8,101.1L418.8,101.1c-3.5,0-6.3-3.1-6.3-7V28c0-3.9,2.8-7,6.3-7l0,0c3.5,0,6.3,3.1,6.3,7v66.1
		C425,98,422.2,101.1,418.8,101.1z"/>
	<path class="st0" d="M443.8,102L443.8,102c-3.5,0-6.3-3.1-6.3-7V15.1c0-3.9,2.8-7,6.3-7l0,0c3.5,0,6.3,3.1,6.3,7V95
		C450,98.9,447.2,102,443.8,102z"/>
	<path class="st0" d="M468.8,110.3L468.8,110.3c-3.5,0-6.3-3.1-6.3-7V37.2c0-3.9,2.8-7,6.3-7l0,0c3.5,0,6.3,3.1,6.3,7v66.1
		C475.1,107.1,472.3,110.3,468.8,110.3z"/>
	<path class="st0" d="M493.7,86.2L493.7,86.2c-3.5,0-6.3-3.1-6.3-7V12.9c0-3.9,2.8-7,6.3-7l0,0c3.5,0,6.3,3.1,6.3,7V79
		C500,83,497.2,86.2,493.7,86.2z"/>
</g>
</svg>
