<?xml version="1.0" encoding="utf-8"?>
<!-- Generator: Adobe Illustrator 24.3.0, SVG Export Plug-In . SVG Version: 6.00 Build 0)  -->
<svg version="1.1" id="Camada_1" xmlns="http://www.w3.org/2000/svg" xmlns:xlink="http://www.w3.org/1999/xlink" x="0px" y="0px"
	 width="500px" height="100px" viewBox="0 0 500 100" style="enable-background:new 0 0 500 100;" xml:space="preserve">
<style type="text/css">
	.st0{fill:#26262D;}
	.st1{fill:#49D3FF;}
	.st2{fill:#FE5D7A;}
	.st3{fill:#FFCD4B;}
	.st4{fill:#1EED89;}
</style>
<path class="st0" d="M500,69.7c0,0-133.8,66.4-273.1-29.6C106.4-21.6,0,24.1,0,24.1L0,100h500V69.7z"/>
<g>
	<path d="M226.9,40.1C366.2,136.1,500,69.7,500,69.7V0L0,0l0,24.1C0,24.1,106.4-21.6,226.9,40.1z"/>
</g>
<g>
	<path class="st1" d="M375,85.1v13c40.1,1.9,81.9-4.9,125-20.4V63.9C456.8,80.1,414.9,87.1,375,85.1z"/>
	<path class="st2" d="M375,85.1c-10.9-0.5-21.6-1.8-32.1-3.7c-38.4-6.9-65.1-20.6-92.9-35.3v14.6c25.7,13.5,53.2,26.6,90.6,33.4
		c11.3,2,22.8,3.3,34.4,3.9V85.1z"/>
	<path class="st3" d="M125,16c4.9,0.5,9.9,1.2,14.8,2c42.5,6.9,70.9,22,100.9,37.9c3.1,1.6,6.2,3.3,9.3,4.9V46.2
		c-1.1-0.6-2.2-1.1-3.2-1.7c-29.6-15.7-60.3-31.9-104.9-39.2C136.3,4.3,130.6,3.6,125,3V16z"/>
	<path class="st4" d="M125,16V3c-9.4-1-19-1.4-28.5-1.4C64.8,1.6,32.5,6.8,0,17.2l0,13.6C42.5,16.7,84.4,11.7,125,16z"/>
</g>
</svg>
