<?xml version="1.0" encoding="utf-8"?>
<!-- Generator: Adobe Illustrator 24.3.0, SVG Export Plug-In . SVG Version: 6.00 Build 0)  -->
<svg version="1.1" id="Camada_1" xmlns="http://www.w3.org/2000/svg" xmlns:xlink="http://www.w3.org/1999/xlink" x="0px" y="0px"
	 width="500px" height="180px" viewBox="0 0 500 180" style="enable-background:new 0 0 500 180;" xml:space="preserve">
<style type="text/css">
	.st0{fill:url(#SVGID_1_);}
	.st1{fill:#FFCD4B;}
	.st2{fill:#49D3FF;}
	.st3{fill:#1EED89;}
	.st4{fill:#555560;}
	.st5{fill:#FE5D7A;}
	.st6{fill:#32323A;}
	.st7{fill:#FFFFFF;}
</style>
<linearGradient id="SVGID_1_" gradientUnits="userSpaceOnUse" x1="250" y1="2" x2="250" y2="182" gradientTransform="matrix(1 0 0 -1 0 182)">
	<stop  offset="0" style="stop-color:#18181C"/>
	<stop  offset="1" style="stop-color:#24242B"/>
</linearGradient>
<rect class="st0" width="500" height="180"/>
<path class="st1" d="M490.9,129.9c-1.7,0.7-3.5,1.3-5.2,2l-0.7-1.8c1.7-0.7,3.5-1.4,5.2-2L490.9,129.9z"/>
<path class="st2" d="M480.4,133.9c-1.5,0.6-3.2,1.3-4.7,1.9l-0.5,0.2l-0.7-1.8l0.5-0.2c1.6-0.7,3.2-1.3,4.7-1.9L480.4,133.9z"/>
<path class="st3" d="M470,138.2c-1.7,0.7-3.4,1.4-5.2,2.1l-0.7-1.8c1.8-0.7,3.5-1.4,5.2-2.1L470,138.2z"/>
<path class="st4" d="M250.6,137v1.9h-1.1c-0.7,0-1.3,0-2,0c-0.8,0-1.6,0-2.5,0V137c0.9,0,1.7,0,2.6,0c0.7,0,1.4,0,2,0H250.6z"/>
<path class="st4" d="M261.9,137.2l-0.1,1.9c-1.8-0.1-3.7-0.2-5.6-0.2V137C258.1,137,260,137.1,261.9,137.2z"/>
<path class="st4" d="M239.6,139c-1.9,0-3.8,0.1-5.6,0.2l-0.1-1.9c1.8-0.1,3.7-0.1,5.6-0.2L239.6,139z"/>
<path class="st4" d="M273.1,137.8l-0.2,1.9c-1.8-0.1-3.7-0.3-5.6-0.3l0.1-1.9C269.4,137.6,271.2,137.6,273.1,137.8z"/>
<path class="st4" d="M228.5,139.4c-1.9,0.1-3.8,0.2-5.6,0.3l-0.2-1.9c1.8-0.1,3.7-0.3,5.6-0.3L228.5,139.4z"/>
<path class="st4" d="M284.2,138.9l-0.3,1.9c-1.8-0.2-3.6-0.4-5.5-0.6l0.2-1.9C280.5,138.5,282.4,138.7,284.2,138.9z"/>
<path class="st4" d="M217.2,140.4c-1.9,0.2-3.7,0.4-5.5,0.6l-0.2-2c1.8-0.3,3.7-0.4,5.6-0.6L217.2,140.4z"/>
<path class="st4" d="M295.3,140.7l-0.3,1.9c-1.8-0.3-3.7-0.7-5.5-0.9l0.3-1.9C291.6,140,293.5,140.3,295.3,140.7z"/>
<path class="st4" d="M206.2,141.7c-1.9,0.3-3.7,0.6-5.5,0.9l-0.3-1.9c1.8-0.3,3.6-0.6,5.5-0.9L206.2,141.7z"/>
<path class="st5" d="M459.5,142.1c-1.8,0.6-3.5,1.3-5.3,1.9l-0.6-1.8c1.8-0.6,3.5-1.3,5.2-1.9L459.5,142.1z"/>
<path class="st4" d="M195.2,143.4c-1.9,0.3-3.7,0.7-5.5,1l-0.3-1.9c1.8-0.3,3.6-0.7,5.5-1L195.2,143.4z"/>
<path class="st4" d="M306.2,143.1l-0.4,1.9c-1.8-0.4-3.6-0.9-5.4-1.3l0.4-1.9C302.6,142.2,304.4,142.6,306.2,143.1z"/>
<path class="st4" d="M184.3,145.7c-1.8,0.3-3.6,0.8-5.4,1.2l-0.4-1.9c1.7-0.4,3.6-0.9,5.4-1.3L184.3,145.7z"/>
<path class="st4" d="M448.8,145.8c-1.7,0.5-3.5,1.1-5.3,1.6l-0.5-1.8c1.8-0.5,3.6-1,5.3-1.6L448.8,145.8z"/>
<path class="st4" d="M317,146.2l-0.5,1.8c-1.7-0.5-3.5-1-5.3-1.5l0.5-1.9C313.5,145.1,315.3,145.6,317,146.2z"/>
<path class="st1" d="M173.4,148.2c-1.8,0.4-3.6,0.9-5.4,1.4l-0.4-1.9c1.8-0.4,3.6-0.9,5.4-1.4L173.4,148.2z"/>
<path class="st4" d="M437.9,149c-1.8,0.5-3.6,1-5.4,1.5l-0.4-1.9c1.8-0.4,3.6-0.9,5.4-1.4L437.9,149z"/>
<path class="st4" d="M327.7,149.4l-0.5,1.8c-1.8-0.5-3.5-1-5.3-1.6l0.5-1.8C324.2,148.4,325.9,148.9,327.7,149.4z"/>
<polygon class="st3" points="162.6,151 157.2,152.4 156.7,150.5 162.1,149.1 "/>
<path class="st4" d="M427.2,151.8c-1.8,0.3-3.7,0.8-5.5,1.1l-0.3-1.9c1.8-0.3,3.6-0.7,5.4-1.1L427.2,151.8z"/>
<path class="st6" d="M338.4,152.4l-0.4,1.9c-1.7-0.3-3.5-0.9-5.4-1.4l0.5-1.9C335,151.6,336.7,152,338.4,152.4z"/>
<path class="st2" d="M151.8,153.8c-1.8,0.5-3.6,0.9-5.4,1.4l-0.4-1.9c1.8-0.5,3.6-0.9,5.4-1.4L151.8,153.8z"/>
<path class="st4" d="M416.1,153.9c-1.8,0.3-3.6,0.7-5.5,0.9l-0.3-1.9c1.9-0.3,3.7-0.5,5.5-0.9L416.1,153.9z"/>
<path class="st4" d="M349.3,154.6l-0.3,1.9c-1.8-0.3-3.7-0.6-5.5-0.9l0.3-1.9C345.7,154,347.5,154.2,349.3,154.6z"/>
<path class="st4" d="M405.1,155.6c-1.8,0.3-3.7,0.5-5.6,0.7l-0.2-1.9c1.9-0.3,3.7-0.4,5.5-0.7L405.1,155.6z"/>
<path class="st5" d="M140.9,156.4c-1.8,0.4-3.6,0.8-5.5,1.2l-0.3-1.9c1.8-0.4,3.6-0.8,5.4-1.2L140.9,156.4z"/>
<path class="st4" d="M393.8,156.8c-1.5,0.2-3.2,0.3-4.8,0.4l-0.8,0.1l-0.1-1.9l0.8-0.1c1.6-0.2,3.3-0.3,4.8-0.4L393.8,156.8z"/>
<path class="st7" d="M7.8,156.1L7.4,158c-1.8-0.3-3.7-0.7-5.5-1l0.3-1.9C4.2,155.5,6,155.8,7.8,156.1z"/>
<path class="st4" d="M360.3,155.6l-0.1,1.9c-1.9-0.1-3.8-0.3-5.6-0.4l0.2-1.9C356.6,155.5,358.5,155.5,360.3,155.6z"/>
<path class="st4" d="M382.7,157.6c-1.9,0.2-3.8,0.2-5.6,0.3L377,156c1.8-0.1,3.7-0.2,5.6-0.3L382.7,157.6z"/>
<path class="st4" d="M371.3,156.1h0.3v1.9h-0.3c-1.9,0-3.7,0-5.4-0.1l0.1-1.9C367.7,156,369.4,156.1,371.3,156.1z"/>
<path class="st4" d="M129.9,158.6c-1.8,0.3-3.6,0.7-5.5,1l-0.3-1.9c1.9-0.3,3.7-0.6,5.5-0.9L129.9,158.6z"/>
<path class="st4" d="M18.8,158.3l-0.3,1.9c-1.9-0.3-3.7-0.7-5.5-1l0.3-1.9C15,157.6,16.9,157.9,18.8,158.3z"/>
<path class="st4" d="M118.9,160.5c-1.9,0.3-3.7,0.5-5.6,0.8l-0.3-1.9c1.9-0.3,3.7-0.5,5.5-0.8L118.9,160.5z"/>
<path class="st4" d="M29.8,160l-0.3,1.9c-1.9-0.3-3.7-0.5-5.6-0.8l0.3-1.9C26.1,159.5,27.9,159.8,29.8,160z"/>
<path class="st4" d="M107.8,162c-1.8,0.3-3.7,0.4-5.6,0.6l-0.2-1.9c1.9-0.3,3.7-0.4,5.5-0.6L107.8,162z"/>
<path class="st4" d="M40.8,161.2l-0.2,1.9c-1.9-0.2-3.8-0.3-5.6-0.5l0.2-1.9C37,160.9,38.9,161,40.8,161.2z"/>
<path class="st4" d="M96.6,163c-1.8,0.1-3.7,0.3-5.6,0.3l-0.1-1.9c1.9-0.1,3.8-0.2,5.6-0.3L96.6,163z"/>
<path class="st4" d="M51.9,161.8l-0.1,1.9c-2-0.1-3.8-0.2-5.6-0.3l0.1-1.9C48.1,161.6,49.9,161.7,51.9,161.8z"/>
<path class="st6" d="M85.4,163.6c-1.8,0.1-3.7,0.1-5.6,0.2l-0.1-1.9c1.9,0,3.8-0.1,5.6-0.2L85.4,163.6z"/>
<path class="st4" d="M63,162.1v1.9c-1.9,0-3.8,0-5.6-0.1l0.1-1.9C59.2,162.1,61.1,162.1,63,162.1z"/>
<path class="st4" d="M74.2,164c-1.8,0.1-3.7,0.1-5.6,0.1v-1.9c1.9-0.1,3.8-0.1,5.6-0.1V164z"/>
<path class="st6" d="M474.8,159.6l-0.3,1.9c-1.8-0.3-3.7-0.8-5.5-1.1l0.3-1.9C471,158.8,472.8,159.2,474.8,159.6z"/>
<path class="st4" d="M485.9,161.4l-0.3,1.9c-2-0.3-3.8-0.6-5.6-0.9l0.3-1.9C482,160.8,483.9,161.1,485.9,161.4z"/>
<path class="st4" d="M496.9,162.7l-0.2,1.9c-1.9-0.2-3.8-0.4-5.6-0.6l0.2-1.9C493.1,162.2,494.9,162.5,496.9,162.7z"/>
<path class="st4" d="M496.5,101v1.9c-1.3,0-2.8,0-4.1,0h-1.4V101h1.4C493.8,101,495.2,101,496.5,101z"/>
<path class="st6" d="M485.4,103c-1.8,0.1-3.7,0.1-5.6,0.2l-0.1-1.9c1.9-0.1,3.8-0.2,5.6-0.2L485.4,103z"/>
<path class="st2" d="M264,101.4v1.9h-0.4c-1.7,0-3.4,0-5.2,0.1l-0.1-1.9c1.7-0.1,3.4-0.1,5.2-0.1H264L264,101.4z"/>
<path class="st4" d="M474.2,103.4c-1,0.1-2,0.1-3,0.2c-0.9,0.1-1.7,0.1-2.6,0.2l-0.1-1.9c0.9-0.1,1.7-0.1,2.6-0.2c1-0.1,2-0.1,3-0.2
	L474.2,103.4z"/>
<path class="st1" d="M273.9,101.7l1.2,0.1l-0.1,1.9l-1.2-0.1c-1.5-0.1-2.9-0.2-4.4-0.2l0.1-1.9C271,101.5,272.4,101.6,273.9,101.7z"
	/>
<path class="st3" d="M252.8,103.6c-1.8,0.1-3.7,0.3-5.5,0.4l-0.2-1.9c1.8-0.2,3.7-0.3,5.6-0.4L252.8,103.6z"/>
<path class="st4" d="M286.2,102.5l-0.2,1.9c-1.8-0.3-3.7-0.3-5.5-0.5l0.2-1.9C282.6,102.2,284.5,102.4,286.2,102.5z"/>
<path class="st4" d="M463,104.1c-1.9,0.2-3.7,0.3-5.5,0.5l-0.2-1.9c1.8-0.2,3.6-0.3,5.6-0.5L463,104.1z"/>
<path class="st5" d="M241.8,104.6c-1.9,0.3-3.7,0.5-5.5,0.9l-0.3-1.9c1.9-0.3,3.7-0.6,5.6-0.9L241.8,104.6z"/>
<path class="st4" d="M297.4,103.9l-0.3,1.9c-1.8-0.3-3.7-0.5-5.5-0.8l0.3-1.9C293.8,103.4,295.6,103.7,297.4,103.9z"/>
<path class="st4" d="M452,105.3c-1.8,0.3-3.7,0.5-5.5,0.8l-0.3-1.9c1.9-0.3,3.7-0.5,5.6-0.8L452,105.3z"/>
<path class="st4" d="M230.8,106.6c-1.8,0.3-3.6,0.9-5.4,1.3l-0.4-1.9c1.9-0.4,3.7-0.9,5.5-1.3L230.8,106.6z"/>
<path class="st4" d="M308.5,105.9l-0.3,1.9c-1.8-0.3-3.6-0.7-5.5-1l0.3-1.9C304.9,105.2,306.7,105.6,308.5,105.9z"/>
<path class="st4" d="M441,106.9c-1.8,0.3-3.6,0.7-5.5,1l-0.3-1.9c1.9-0.3,3.7-0.7,5.5-1L441,106.9z"/>
<polygon class="st4" points="319.4,108.1 319,110 313.5,108.9 314,107 "/>
<path class="st4" d="M430.1,109.1c-1.7,0.3-3.4,0.8-5.2,1.1l-0.3,0.1l-0.4-1.9l0.3-0.1c1.7-0.3,3.4-0.8,5.2-1.1L430.1,109.1z"/>
<path class="st4" d="M220.1,109.3c-1.7,0.5-3.4,1.1-5.2,1.7l-0.6-1.8c1.8-0.6,3.6-1.2,5.3-1.7L220.1,109.3z"/>
<path class="st4" d="M330.4,110.3l-0.3,1.9c-1.9-0.3-3.7-0.7-5.5-1l0.3-1.9C326.7,109.6,328.5,109.9,330.4,110.3z"/>
<path class="st4" d="M419.3,111.4c-1.8,0.3-3.6,0.8-5.5,1.1l-0.3-1.9c1.8-0.3,3.6-0.8,5.4-1.1L419.3,111.4z"/>
<path class="st4" d="M209.6,113c-1.8,0.6-3.5,1.3-5.2,2l-0.7-1.8c1.7-0.7,3.5-1.4,5.2-2.1L209.6,113z"/>
<path class="st4" d="M341.4,112l-0.3,1.9c-1.9-0.3-3.7-0.5-5.6-0.8l0.3-1.9C337.7,111.5,339.5,111.7,341.4,112z"/>
<path class="st4" d="M13.2,111.8l-0.3,1.9c-1.8-0.3-3.6-0.4-5.5-0.6l0.2-1.9C9.5,111.4,11.4,111.6,13.2,111.8z"/>
<path class="st4" d="M408.3,113.5c-1.9,0.3-3.7,0.5-5.6,0.8l-0.3-1.9c1.9-0.3,3.7-0.5,5.5-0.8L408.3,113.5z"/>
<path class="st4" d="M24.3,113.5l-0.3,1.9c-1.8-0.3-3.7-0.6-5.5-0.9l0.3-1.9C20.6,112.9,22.4,113.1,24.3,113.5z"/>
<path class="st4" d="M352.4,113.1l-0.2,1.9c-1.9-0.2-3.8-0.3-5.6-0.5l0.2-1.9C348.7,112.8,350.5,113,352.4,113.1z"/>
<path class="st4" d="M397.1,114.8c-1.8,0.2-3.7,0.3-5.6,0.4l-0.1-1.9c1.8-0.1,3.7-0.3,5.5-0.4L397.1,114.8z"/>
<path class="st4" d="M363.5,113.7l-0.1,1.9c-1.9-0.1-3.8-0.2-5.6-0.3l0.1-1.9C359.7,113.6,361.6,113.6,363.5,113.7z"/>
<path class="st4" d="M385.8,115.5c-1.8,0.1-3.6,0.2-5.6,0.2v-1.9c2-0.1,3.8-0.1,5.6-0.2V115.5z"/>
<path class="st4" d="M374.3,113.8h0.4v1.9h-0.4c-1.7,0-3.5,0-5.2,0v-1.9C370.8,113.9,372.5,113.9,374.3,113.8z"/>
<path class="st6" d="M35.3,115.7l-0.4,1.9c-1.8-0.4-3.6-0.9-5.4-1.2l0.3-1.9C31.6,114.8,33.4,115.3,35.3,115.7z"/>
<path class="st4" d="M199.3,117.1c-1.7,0.7-3.5,1.4-5.2,2.1l-0.7-1.8c1.7-0.7,3.4-1.4,5.2-2.1L199.3,117.1z"/>
<path class="st4" d="M46.1,118.4l-0.4,1.9c-1.8-0.4-3.6-0.9-5.4-1.4l0.4-1.9C42.5,117.5,44.3,117.9,46.1,118.4z"/>
<path class="st4" d="M188.7,121.1c-1.9,0.7-3.6,1.3-5.3,1.9l-0.6-1.8c1.7-0.6,3.4-1.2,5.2-1.9L188.7,121.1z"/>
<path class="st4" d="M56.6,121.4l0.3,0.1l-0.5,1.9l-0.3-0.1c-1.6-0.5-3.3-1-5-1.5l0.5-1.9C53.2,120.4,54.9,120.9,56.6,121.4z"/>
<path class="st4" d="M178.1,124.8c-1.8,0.5-3.6,1-5.4,1.5l-0.5-1.9c1.7-0.4,3.5-1,5.3-1.5L178.1,124.8z"/>
<path class="st4" d="M67.7,124.4l-0.4,1.9c-1.8-0.4-3.6-0.9-5.4-1.5l0.5-1.9C64.1,123.4,65.9,124,67.7,124.4z"/>
<path class="st4" d="M78.5,127.1l-0.3,1.9c-1.8-0.4-3.6-0.9-5.5-1.3l0.4-1.9C75,126.3,76.8,126.7,78.5,127.1z"/>
<path class="st4" d="M167.2,127.7c-1.8,0.4-3.7,0.9-5.5,1.2l-0.3-1.9c1.8-0.3,3.6-0.8,5.4-1.2L167.2,127.7z"/>
<path class="st4" d="M156.2,130c-1.8,0.3-3.6,0.6-5.5,0.9l-0.3-1.9c1.9-0.3,3.7-0.5,5.5-0.9L156.2,130z"/>
<path class="st4" d="M89.4,129.1l-0.3,1.9c-1.8-0.3-3.7-0.6-5.5-0.9l0.3-1.9C85.8,128.5,87.6,128.9,89.4,129.1z"/>
<path class="st4" d="M145.2,131.6c-1.8,0.3-3.7,0.4-5.6,0.6l-0.2-1.9c1.8-0.2,3.7-0.4,5.5-0.6L145.2,131.6z"/>
<path class="st4" d="M100.4,130.5l-0.2,1.9c-1.9-0.2-3.8-0.3-5.6-0.6l0.3-1.9C96.7,130.1,98.6,130.3,100.4,130.5z"/>
<path class="st4" d="M134,132.6c-1.1,0.1-2.2,0.1-3.4,0.2c-0.8,0-1.5,0.1-2.2,0.1l-0.1-1.9c0.8,0,1.5-0.1,2.2-0.1
	c1.1,0,2.2-0.1,3.3-0.2L134,132.6z"/>
<path class="st4" d="M111.6,131.1l-0.1,1.9c-1.9-0.1-3.8-0.2-5.6-0.3l0.1-1.9C107.8,131,109.7,131,111.6,131.1z"/>
<path class="st4" d="M122.7,133.1c-1.6,0.1-3.3,0.1-4.8,0.1h-0.8v-1.9h0.8c1.6,0,3.2-0.1,4.8-0.1V133.1z"/>
<path class="st4" d="M229.1,155.5c-1.8,0-3.7,0.1-5.5,0.3l-0.2-1.9c1.8-0.2,3.7-0.3,5.6-0.3L229.1,155.5z"/>
<path class="st4" d="M236.8,153.7c1.1,0.1,2.2,0.2,3.4,0.3l-0.2,1.9c-1-0.1-2.2-0.2-3.3-0.3c-0.8,0-1.5-0.1-2.2-0.1l0.1-1.9
	C235.3,153.7,236.1,153.7,236.8,153.7z"/>
<path class="st4" d="M218,156.3c-1.8,0.3-3.7,0.5-5.5,0.9l-0.3-1.9c1.9-0.3,3.8-0.6,5.6-0.9L218,156.3z"/>
<path class="st4" d="M251.3,155.8l-0.3,1.9c-1.9-0.4-3.6-0.8-5.4-1l0.3-1.9C247.6,155,249.4,155.4,251.3,155.8z"/>
<path class="st4" d="M207,158.3c-1.8,0.4-3.6,0.9-5.4,1.4l-0.5-1.9c1.9-0.5,3.7-0.9,5.5-1.4L207,158.3z"/>
<path class="st4" d="M262.3,158.4l-0.4,1.9c-1.9-0.4-3.6-0.9-5.4-1.4l0.4-1.9C258.7,157.4,260.5,157.9,262.3,158.4z"/>
<path class="st4" d="M196.3,161.3c-1.7,0.6-3.5,1.2-5.2,1.9l-0.6-1.8c1.8-0.7,3.5-1.3,5.3-1.9L196.3,161.3z"/>
<path class="st2" d="M273.1,161.2l-0.4,1.9c-1.9-0.4-3.7-0.9-5.4-1.4l0.4-1.9C269.4,160.3,271.2,160.8,273.1,161.2z"/>
<path class="st3" d="M283.9,163.7l-0.3,1.9c-1.8-0.4-3.6-0.8-5.5-1.2l0.4-1.9C280.3,162.9,282.1,163.3,283.9,163.7z"/>
<path class="st4" d="M185.9,165.3c-1.6,0.7-3.4,1.5-5.1,2.2l-0.8-1.7c1.7-0.9,3.4-1.6,5.2-2.3L185.9,165.3z"/>
<path class="st1" d="M294.9,165.7l-0.3,1.9c-1.9-0.3-3.7-0.6-5.5-0.9l0.3-1.9C291.2,165,293,165.3,294.9,165.7z"/>
<path class="st5" d="M306,167.2l-0.2,1.9c-1.8-0.2-3.7-0.4-5.6-0.7l0.3-1.9C302.4,166.7,304.2,166.9,306,167.2z"/>
<path class="st4" d="M317.1,168.2l-0.2,1.9c-1.8-0.1-3.7-0.3-5.6-0.4l0.2-1.9C313.4,167.9,315.3,168,317.1,168.2z"/>
<path class="st4" d="M175.7,170c-1.6,0.9-3.3,1.7-4.9,2.7l-0.9-1.7c1.6-0.9,3.4-1.8,5-2.7L175.7,170z"/>
<path class="st4" d="M328.3,168.8l-0.1,1.9c-1.8-0.1-3.7-0.2-5.6-0.3l0.1-1.9C324.6,168.6,326.4,168.7,328.3,168.8z"/>
<path class="st4" d="M339.4,168.9v1.9c-1.7,0-3.6,0-5.6,0v-1.9C335.7,168.9,337.5,168.9,339.4,168.9z"/>
<path class="st4" d="M76.9,98.3l-0.6,1.8c-1.7-0.7-3.5-1.4-5.2-2.1l0.7-1.8C73.4,97,75.2,97.7,76.9,98.3z"/>
<path class="st4" d="M87.4,101.9l-0.5,1.8c-1.7-0.5-3.5-1.1-5.3-1.7l0.6-1.8C83.9,100.8,85.7,101.3,87.4,101.9z"/>
<path class="st4" d="M186.7,103.7c-1.8,0.5-3.6,1-5.4,1.5l-0.4-1.9c1.8-0.5,3.6-1,5.3-1.5L186.7,103.7z"/>
<path class="st7" d="M98.3,104.8l-0.4,1.9c-1.8-0.4-3.6-0.9-5.4-1.4l0.4-1.9C94.7,103.9,96.5,104.3,98.3,104.8z"/>
<path class="st4" d="M175.9,106.6c-1.8,0.4-3.7,0.9-5.5,1.2l-0.3-1.9c1.8-0.3,3.6-0.8,5.4-1.2L175.9,106.6z"/>
<path class="st7" d="M109.1,107l-0.3,1.9c-1.8-0.3-3.7-0.7-5.5-1l0.3-1.9C105.5,106.3,107.3,106.7,109.1,107z"/>
<path class="st4" d="M164.9,108.8c-1.9,0.3-3.8,0.6-5.6,0.9l-0.3-1.9c1.8-0.3,3.7-0.5,5.5-0.9L164.9,108.8z"/>
<path class="st7" d="M120.1,108.4l-0.2,1.9c-1.9-0.2-3.7-0.3-5.6-0.6l0.3-1.9C116.5,108,118.3,108.2,120.1,108.4z"/>
<path class="st4" d="M153.7,110.3c-1.9,0.2-3.7,0.3-5.6,0.4l-0.1-1.9c1.8-0.1,3.7-0.3,5.5-0.4L153.7,110.3z"/>
<path class="st7" d="M131.3,109.2v0.9l-0.1,0.9c-1.9-0.1-3.8-0.2-5.6-0.3l0.1-1.9C127.5,109,129.4,109.1,131.3,109.2z"/>
<path class="st4" d="M142.4,111c-1.8,0.1-3.7,0.1-5.6,0.1v-1.9c1.9,0,3.7,0,5.6-0.1V111z"/>
<path class="st4" d="M331.4,126.4l-0.7,1.8c-1.7-0.7-3.5-1.4-5.2-2.2l0.7-1.8C327.9,125,329.6,125.7,331.4,126.4z"/>
<path class="st4" d="M441.1,124.6v1.9c-1.8,0-3.6,0-5.6,0v-1.9c1,0,2,0,2.9,0C439.4,124.6,440.3,124.6,441.1,124.6z"/>
<path class="st4" d="M452.5,125.1l-0.2,1.9c-1.9-0.2-3.8-0.3-5.6-0.3l0.1-1.9C448.6,124.8,450.5,124.9,452.5,125.1z"/>
<path class="st6" d="M430.1,126.6c-1.9,0.1-3.8,0.2-5.6,0.3l-0.2-1.9c1.8-0.2,3.7-0.3,5.6-0.3L430.1,126.6z"/>
<path class="st4" d="M418.9,127.5c-1.9,0.2-3.7,0.4-5.5,0.7l-0.3-1.9c1.8-0.3,3.7-0.5,5.6-0.7L418.9,127.5z"/>
<path class="st4" d="M407.9,129c-1.8,0.3-3.6,0.6-5.5,1l-0.3-1.9c1.9-0.3,3.7-0.7,5.5-1L407.9,129z"/>
<path class="st4" d="M341.8,129.8l-0.5,1.9c-1.8-0.5-3.6-1-5.4-1.6l0.6-1.8C338.3,128.9,340.1,129.4,341.8,129.8z"/>
<path class="st7" d="M397.1,131.3l-2.4,0.5c-1,0.3-2.1,0.4-3.1,0.7l-0.4-1.9c0.9-0.3,2-0.4,3-0.7l2.4-0.5L397.1,131.3z"/>
<path class="st4" d="M352.6,132.3l-0.3,1.9c-1.8-0.3-3.7-0.7-5.5-1.1l0.4-1.9C349.1,131.6,350.9,132,352.6,132.3z"/>
<path class="st7" d="M386.2,133.7c-2,0.4-3.8,0.7-5.6,0.9l-0.3-1.9c1.7-0.3,3.5-0.6,5.4-0.9L386.2,133.7z"/>
<path class="st7" d="M363.7,133.5l-0.1,1.9c-1.8-0.1-3.7-0.3-5.6-0.4l0.2-1.9C360,133.3,361.9,133.4,363.7,133.5z"/>
<path class="st7" d="M374.8,135.2c-1,0.1-2.1,0.1-3.2,0.2c-0.8,0.1-1.5,0.1-2.4,0.1v-1.9c0.9,0,1.6-0.1,2.4-0.1
	c1.1,0,2.2-0.1,3.2-0.2V135.2z"/>
<path class="st4" d="M52.1,40v-1.9h1.1c0.7,0,1.3,0,2,0c0.8,0,1.6,0,2.5,0V40c-0.9,0-1.7,0-2.6,0c-0.7,0-1.4,0-2,0H52.1z"/>
<path class="st4" d="M40.8,39.7l0.1-1.9c1.8,0.1,3.7,0.2,5.6,0.2v1.9C44.6,39.9,42.7,39.8,40.8,39.7z"/>
<path class="st4" d="M63.1,37.9c1.9,0,3.8-0.1,5.6-0.2l0.1,1.9c-1.8,0.1-3.7,0.1-5.6,0.2L63.1,37.9z"/>
<path class="st4" d="M29.6,39.1l0.2-1.9c1.8,0.1,3.7,0.3,5.6,0.3l-0.1,1.9C33.3,39.4,31.5,39.3,29.6,39.1z"/>
<path class="st4" d="M74.2,37.5c1.9-0.1,3.8-0.2,5.6-0.3L80,39c-1.8,0.1-3.7,0.3-5.6,0.3L74.2,37.5z"/>
<path class="st4" d="M18.5,38l0.3-1.9c1.8,0.2,3.6,0.4,5.5,0.6l-0.2,1.9C22.2,38.4,20.3,38.3,18.5,38z"/>
<path class="st4" d="M85.5,36.6c1.9-0.2,3.7-0.4,5.5-0.6l0.2,2c-1.8,0.3-3.7,0.4-5.6,0.6L85.5,36.6z"/>
<path class="st4" d="M7.4,36.3l0.3-1.9c1.8,0.3,3.7,0.7,5.5,0.9L13,37.2C11.1,37,9.2,36.6,7.4,36.3z"/>
<path class="st4" d="M96.5,35.3c1.9-0.3,3.7-0.6,5.5-0.9l0.3,1.9c-1.8,0.3-3.6,0.6-5.5,0.9L96.5,35.3z"/>
<path class="st4" d="M107.4,33.5c1.9-0.3,3.7-0.7,5.5-1l0.3,1.9c-1.8,0.3-3.6,0.7-5.5,1L107.4,33.5z"/>
<path class="st4" d="M118.4,31.2c1.8-0.3,3.6-0.8,5.4-1.2l0.4,1.9c-1.7,0.4-3.6,0.9-5.4,1.3L118.4,31.2z"/>
<path class="st1" d="M129.3,28.7c1.8-0.4,3.6-0.9,5.4-1.4l0.4,1.9c-1.8,0.4-3.6,0.9-5.4,1.4L129.3,28.7z"/>
<polygon class="st3" points="140.1,26 145.5,24.6 146,26.4 140.6,27.9 "/>
<path class="st2" d="M150.9,23.1c1.8-0.5,3.6-0.9,5.4-1.4l0.4,1.9c-1.8,0.5-3.6,0.9-5.4,1.4L150.9,23.1z"/>
<path class="st7" d="M328.2,24.6l0.1-1.9c1.8,0.1,3.7,0.1,5.6,0.1v1.9C332,24.7,330.1,24.7,328.2,24.6z"/>
<path class="st4" d="M339.4,22.8c1.8-0.1,3.7-0.1,5.6-0.2l0.1,1.9c-1.9,0.1-3.8,0.2-5.6,0.2L339.4,22.8z"/>
<path class="st7" d="M317.1,24.1l0.2-1.9c1.8,0.1,3.6,0.3,5.5,0.3l-0.1,1.9C320.8,24.3,318.9,24.2,317.1,24.1z"/>
<path class="st4" d="M350.6,22.4c1.9-0.2,3.8-0.3,5.6-0.3l0.1,1.9c-1.8,0.2-3.7,0.3-5.6,0.3L350.6,22.4z"/>
<path class="st4" d="M361.7,21.7c1.9-0.1,3.8-0.3,5.6-0.4l0.2,1.9c-1.8,0.2-3.7,0.3-5.6,0.4L361.7,21.7z"/>
<path class="st7" d="M305.9,22.7l0.3-1.9c1.9,0.3,3.7,0.6,5.5,0.8l-0.2,1.9C309.6,23.3,307.8,23,305.9,22.7z"/>
<path class="st4" d="M372.9,20.7c1.8-0.2,3.7-0.4,5.5-0.6l0.2,1.9c-1.9,0.2-3.7,0.4-5.6,0.6L372.9,20.7z"/>
<path class="st5" d="M161.8,20.6c1.8-0.4,3.6-0.8,5.5-1.2l0.3,1.9c-1.8,0.4-3.6,0.8-5.4,1.2L161.8,20.6z"/>
<path class="st7" d="M294.9,20.8l0.3-1.9c1.8,0.3,3.7,0.7,5.5,1l-0.3,1.9C298.5,21.5,296.7,21.2,294.9,20.8z"/>
<path class="st4" d="M384,19.4c1.8-0.2,3.7-0.4,5.5-0.7l0.3,1.9c-1.9,0.2-3.7,0.4-5.6,0.7L384,19.4z"/>
<path class="st4" d="M172.7,18.3c1.8-0.3,3.6-0.7,5.5-1l0.3,1.9c-1.9,0.3-3.7,0.6-5.5,0.9L172.7,18.3z"/>
<path class="st4" d="M395,18c1.8-0.3,3.7-0.5,5.5-0.8l0.3,1.9c-1.8,0.3-3.6,0.5-5.5,0.8L395,18z"/>
<path class="st4" d="M283.9,18.7l0.3-1.9c1.9,0.3,3.7,0.7,5.5,1l-0.3,1.9C287.7,19.3,285.8,19,283.9,18.7z"/>
<path class="st4" d="M183.8,16.4c1.9-0.3,3.7-0.5,5.6-0.8l0.3,1.9c-1.9,0.3-3.7,0.5-5.5,0.8L183.8,16.4z"/>
<polygon class="st4" points="406.1,16.2 411.6,15.5 411.8,17.4 406.3,18.2 "/>
<path class="st4" d="M272.9,16.9l0.3-1.9c1.9,0.3,3.7,0.5,5.6,0.8l-0.3,1.9C276.6,17.5,274.8,17.2,272.9,16.9z"/>
<path class="st4" d="M194.9,15c1.8-0.3,3.7-0.4,5.6-0.6l0.2,1.9c-1.9,0.3-3.7,0.4-5.5,0.6L194.9,15z"/>
<path class="st4" d="M417.1,14.6c1.8-0.3,3.6-0.6,5.5-0.9l0.3,1.9c-1.8,0.3-3.7,0.6-5.5,0.9L417.1,14.6z"/>
<path class="st4" d="M261.9,15.7l0.2-1.9c1.9,0.2,3.8,0.3,5.6,0.5l-0.2,1.9C265.7,16.1,263.8,15.9,261.9,15.7z"/>
<path class="st4" d="M206.1,13.9c1.8-0.1,3.7-0.3,5.6-0.3l0.1,1.9c-1.9,0.1-3.8,0.2-5.6,0.3L206.1,13.9z"/>
<path class="st4" d="M250.8,15.1l0.1-1.9c2,0.1,3.8,0.2,5.6,0.3l-0.1,1.9C254.6,15.3,252.8,15.2,250.8,15.1z"/>
<path class="st6" d="M217.3,13.3c1.8-0.1,3.7-0.1,5.6-0.2L223,15c-1.9,0-3.8,0.1-5.6,0.2L217.3,13.3z"/>
<path class="st4" d="M239.7,14.9V13c1.9,0,3.8,0,5.6,0.1l-0.1,1.9C243.5,14.9,241.6,14.9,239.7,14.9z"/>
<path class="st4" d="M428.2,13c1.8-0.3,3.6-0.5,5.5-0.8l0.3,1.9c-1.8,0.3-3.7,0.5-5.5,0.8L428.2,13z"/>
<path class="st4" d="M228.5,13c1.8-0.1,3.7-0.1,5.6-0.1v1.9c-1.9,0.1-3.8,0.1-5.6,0.1V13z"/>
<path class="st6" d="M439.2,11.5c1.9-0.2,3.7-0.4,5.6-0.6l0.2,1.9c-1.8,0.2-3.7,0.3-5.5,0.6L439.2,11.5z"/>
<path class="st4" d="M450.4,10.4c1.8-0.2,3.7-0.3,5.6-0.4l0.2,1.9c-1.9,0.1-3.8,0.3-5.6,0.4L450.4,10.4z"/>
<path class="st4" d="M461.7,9.5c1.8-0.2,3.7-0.3,5.6-0.3l0.1,1.9c-1.9,0.2-3.8,0.3-5.6,0.3L461.7,9.5z"/>
<path class="st4" d="M472.8,9c1.8-0.1,3.7-0.2,5.6-0.2v1.9c-1.9,0.1-3.8,0.1-5.6,0.2V9z"/>
<path class="st4" d="M483.9,10.7V8.8c1.8,0,3.7,0,5.6,0v1.9C487.6,10.7,485.8,10.7,483.9,10.7z"/>
<path class="st2" d="M34.7,75.5v-1.9h0.4c1.7,0,3.4,0,5.2-0.1l0.1,1.9c-1.7,0.1-3.4,0.1-5.2,0.1H34.7L34.7,75.5z"/>
<path class="st1" d="M24.8,75.3l-1.2-0.1l0.1-1.9l1.2,0.1c1.5,0.1,2.9,0.2,4.4,0.2l-0.1,1.9C27.7,75.4,26.3,75.4,24.8,75.3z"/>
<path class="st3" d="M45.9,73.4c1.8-0.1,3.7-0.3,5.5-0.4l0.2,1.9c-1.8,0.2-3.7,0.3-5.6,0.4L45.9,73.4z"/>
<path class="st4" d="M12.5,74.4l0.2-1.9c1.8,0.3,3.7,0.3,5.5,0.5L18,74.9C16.1,74.8,14.2,74.6,12.5,74.4z"/>
<path class="st5" d="M56.9,72.3c1.9-0.3,3.7-0.5,5.5-0.9l0.3,1.9c-1.9,0.3-3.7,0.6-5.6,0.9L56.9,72.3z"/>
<path class="st4" d="M1.3,73l0.3-1.9c1.8,0.3,3.7,0.5,5.5,0.8l-0.3,1.9C4.9,73.5,3.1,73.3,1.3,73z"/>
<path class="st4" d="M67.9,70.4c1.8-0.3,3.6-0.9,5.4-1.3l0.4,1.9c-1.9,0.4-3.7,0.9-5.5,1.3L67.9,70.4z"/>
<path class="st4" d="M78.6,67.6c1.7-0.5,3.4-1.1,5.2-1.7l0.6,1.8c-1.8,0.6-3.6,1.2-5.3,1.7L78.6,67.6z"/>
<path class="st4" d="M307.8,66.8l0.1-1.9c1.8,0.1,3.7,0.1,5.6,0.1v1.9C311.6,66.8,309.7,66.8,307.8,66.8z"/>
<path class="st5" d="M319,64.9c1.8,0,3.7,0,5.6-0.1l0.1,1.9c-1.9,0-3.8,0.1-5.6,0.1L319,64.9z"/>
<path class="st4" d="M296.7,66.2l0.1-1.9c1.8,0.2,3.7,0.3,5.6,0.3l-0.1,1.9C300.4,66.4,298.5,66.3,296.7,66.2z"/>
<path class="st1" d="M330.1,64.6h0.3c1.8-0.1,3.5-0.2,5.2-0.3l0.1,1.9c-1.6,0.1-3.4,0.2-5.2,0.3h-0.3L330.1,64.6z"/>
<path class="st2" d="M341.3,63.9c1.9-0.2,3.7-0.3,5.5-0.5l0.2,1.9c-1.8,0.2-3.6,0.3-5.6,0.5L341.3,63.9z"/>
<path class="st4" d="M89.1,63.9c1.8-0.6,3.5-1.3,5.2-2l0.7,1.8c-1.7,0.7-3.5,1.4-5.2,2.1L89.1,63.9z"/>
<path class="st4" d="M285.5,65.1l0.3-1.9c1.8,0.3,3.6,0.4,5.5,0.6l-0.2,1.9C289.2,65.5,287.3,65.4,285.5,65.1z"/>
<path class="st3" d="M352.4,62.7c1.8-0.3,3.7-0.5,5.5-0.8l0.3,1.9c-1.9,0.3-3.7,0.5-5.6,0.8L352.4,62.7z"/>
<path class="st4" d="M274.4,63.5l0.3-1.9c1.8,0.3,3.7,0.6,5.5,0.9l-0.3,1.9C278.1,64.1,276.3,63.8,274.4,63.5z"/>
<path class="st4" d="M363.4,61.1c1.9-0.3,3.7-0.7,5.5-1l0.3,1.9c-1.8,0.3-3.6,0.7-5.5,1L363.4,61.1z"/>
<path class="st6" d="M263.4,61.2l0.4-1.9c1.8,0.4,3.6,0.9,5.4,1.2l-0.3,1.9C267.1,62.1,265.3,61.7,263.4,61.2z"/>
<path class="st4" d="M99.4,59.9c1.7-0.7,3.5-1.4,5.2-2.1l0.7,1.8c-1.7,0.7-3.4,1.4-5.2,2.1L99.4,59.9z"/>
<path class="st4" d="M374.3,58.9c1.5-0.3,3-0.6,4.6-0.9l0.9-0.2l0.3,1.9l-0.9,0.2c-1.5,0.3-3,0.6-4.6,0.9L374.3,58.9z"/>
<path class="st4" d="M252.5,58.6l0.4-1.9c1.8,0.4,3.6,0.9,5.4,1.4L258,60C256.2,59.4,254.4,59,252.5,58.6z"/>
<path class="st4" d="M385.2,56.6c1.8-0.3,3.6-0.8,5.5-1.1l0.3,1.9c-1.9,0.3-3.7,0.8-5.5,1.1L385.2,56.6z"/>
<path class="st4" d="M110,55.8c1.9-0.7,3.6-1.3,5.3-1.9l0.6,1.8c-1.7,0.6-3.4,1.2-5.2,1.9L110,55.8z"/>
<path class="st4" d="M242.1,55.6l-0.3-0.1l0.5-1.9l0.3,0.1c1.6,0.5,3.3,1,5,1.5l-0.5,1.9C245.5,56.5,243.8,56.1,242.1,55.6z"/>
<path class="st4" d="M396.3,54.4c1.7-0.3,3.6-0.6,5.5-0.9l0.3,1.9c-1.9,0.3-3.8,0.5-5.5,0.9L396.3,54.4z"/>
<path class="st4" d="M407.3,52.8c1.8-0.3,3.7-0.5,5.6-0.7l0.2,1.9c-1.9,0.3-3.7,0.4-5.5,0.7L407.3,52.8z"/>
<path class="st4" d="M120.6,52.1c1.8-0.5,3.6-1,5.4-1.5l0.5,1.9c-1.7,0.4-3.5,1-5.3,1.5L120.6,52.1z"/>
<path class="st4" d="M231,52.6l0.4-1.9c1.8,0.4,3.6,0.9,5.4,1.5l-0.5,1.9C234.6,53.5,232.8,53,231,52.6z"/>
<path class="st4" d="M485.4,53.3l0.2-1.9c1.9,0.2,3.8,0.3,5.6,0.5l-0.2,1.9C489.1,53.7,487.3,53.5,485.4,53.3z"/>
<path class="st4" d="M418.4,51.6c1.8-0.2,3.7-0.3,5.6-0.4l0.2,1.9c-2,0.1-3.8,0.3-5.6,0.4L418.4,51.6z"/>
<path class="st4" d="M474.3,52.6l0.1-1.9c1.9,0.1,3.8,0.3,5.6,0.3l-0.1,1.9C478,52.8,476.1,52.7,474.3,52.6z"/>
<path class="st4" d="M429.6,50.8c1.9-0.1,3.7-0.2,5.6-0.3l0.1,1.9c-1.9,0.1-3.7,0.2-5.6,0.3L429.6,50.8z"/>
<path class="st6" d="M463.2,52.1l0.1-1.9c1.9,0,3.7,0.1,5.6,0.2l-0.1,1.9C466.9,52.3,465,52.2,463.2,52.1z"/>
<path class="st4" d="M440.9,50.3c1.9-0.1,3.7-0.2,5.6-0.2V52c-1.9,0.1-3.7,0.1-5.6,0.2V50.3z"/>
<path class="st4" d="M453.1,52H452v-1.9h1.1c1.5,0,3,0,4.5,0V52C456.1,52,454.6,52,453.1,52z"/>
<path class="st4" d="M220.2,49.8l0.3-1.9c1.8,0.4,3.6,0.9,5.5,1.3l-0.4,1.9C223.7,50.7,221.9,50.2,220.2,49.8z"/>
<path class="st4" d="M131.5,49.2c1.8-0.4,3.7-0.9,5.5-1.2l0.3,1.9c-1.8,0.3-3.6,0.8-5.4,1.2L131.5,49.2z"/>
<path class="st4" d="M142.5,47c1.8-0.3,3.6-0.6,5.5-0.9l0.3,1.9c-1.9,0.3-3.7,0.5-5.5,0.9L142.5,47z"/>
<path class="st4" d="M209.3,47.8l0.3-1.9c1.8,0.3,3.7,0.6,5.5,0.9l-0.3,1.9C212.9,48.4,211.1,48.1,209.3,47.8z"/>
<path class="st4" d="M153.5,45.3c1.8-0.3,3.7-0.4,5.6-0.6l0.2,1.9c-1.8,0.2-3.7,0.4-5.5,0.6L153.5,45.3z"/>
<path class="st4" d="M198.3,46.4l0.2-1.9c1.9,0.2,3.8,0.3,5.6,0.6l-0.3,1.9C202,46.9,200.1,46.6,198.3,46.4z"/>
<path class="st4" d="M164.7,44.4c1.1-0.1,2.2-0.1,3.4-0.2c0.8,0,1.5-0.1,2.2-0.1l0.1,1.9c-0.8,0-1.5,0.1-2.2,0.1
	c-1.1,0-2.2,0.1-3.3,0.2L164.7,44.4z"/>
<path class="st4" d="M187.1,45.8l0.1-1.9c1.9,0.1,3.8,0.2,5.6,0.3l-0.1,1.9C190.9,45.9,189,45.9,187.1,45.8z"/>
<path class="st4" d="M176,43.9c1.6-0.1,3.3-0.1,4.8-0.1h0.8v1.9h-0.8c-1.6,0-3.2,0.1-4.8,0.1V43.9z"/>
<path class="st4" d="M79.4,21.4c1.8,0,3.7-0.1,5.5-0.3l0.2,1.9c-1.8,0.2-3.7,0.3-5.6,0.3L79.4,21.4z"/>
<path class="st4" d="M71.7,23.2c-1.1-0.1-2.2-0.2-3.4-0.3l0.2-1.9c1,0.1,2.2,0.2,3.3,0.3c0.8,0,1.5,0.1,2.2,0.1l-0.1,1.9
	C73.2,23.2,72.4,23.2,71.7,23.2z"/>
<path class="st4" d="M90.5,20.6c1.8-0.3,3.7-0.5,5.5-0.9l0.3,1.9c-1.9,0.3-3.8,0.6-5.6,0.9L90.5,20.6z"/>
<path class="st4" d="M57.2,21.2l0.3-1.9c1.9,0.4,3.6,0.8,5.4,1l-0.3,1.9C60.9,21.9,59.1,21.6,57.2,21.2z"/>
<path class="st4" d="M101.5,18.7c1.8-0.4,3.6-0.9,5.4-1.4l0.5,1.9c-1.9,0.5-3.7,0.9-5.5,1.4L101.5,18.7z"/>
<path class="st4" d="M46.2,18.6l0.4-1.9c1.9,0.4,3.6,0.9,5.4,1.4l-0.4,1.9C49.8,19.5,48,19,46.2,18.6z"/>
<path class="st4" d="M112.2,15.6c1.7-0.6,3.5-1.2,5.2-1.9l0.6,1.8c-1.8,0.7-3.5,1.3-5.3,1.9L112.2,15.6z"/>
<path class="st2" d="M35.4,15.7l0.4-1.9c1.9,0.4,3.7,0.9,5.4,1.4l-0.4,1.9C39.1,16.7,37.3,16.2,35.4,15.7z"/>
<path class="st3" d="M24.6,13.2l0.3-1.9c1.8,0.4,3.6,0.8,5.5,1.2L30,14.4C28.2,14,26.4,13.7,24.6,13.2z"/>
<path class="st4" d="M122.6,11.7c1.6-0.7,3.4-1.5,5.1-2.2l0.8,1.7c-1.7,0.9-3.4,1.6-5.2,2.3L122.6,11.7z"/>
<path class="st1" d="M13.6,11.3l0.3-1.9c1.9,0.3,3.7,0.6,5.5,0.9L19,12.2C17.3,11.9,15.5,11.6,13.6,11.3z"/>
<path class="st5" d="M2.5,9.8l0.2-1.9c1.8,0.2,3.7,0.4,5.6,0.7L8,10.5C6.1,10.2,4.3,10.1,2.5,9.8z"/>
<path class="st4" d="M132.8,7c1.6-0.9,3.3-1.7,4.9-2.7l0.9,1.7c-1.6,0.9-3.4,1.8-5,2.7L132.8,7z"/>
<path class="st5" d="M476.6,85.3v-1.9c1.8,0,3.7,0,5.6,0v1.9c-0.9,0-1.7,0-2.5,0C478.6,85.3,477.6,85.3,476.6,85.3z"/>
<path class="st4" d="M487.7,83.3c1.8-0.1,3.7-0.2,5.5-0.3l0.2,1.9c-1.8,0.2-3.7,0.3-5.6,0.3L487.7,83.3z"/>
<path class="st2" d="M466.6,84.8c-0.4,0-0.9-0.1-1.4-0.1l0.2-1.9c0.4,0,0.9,0.1,1.4,0.1c1.4,0.1,2.8,0.2,4.2,0.3l-0.1,1.9
	C469.5,85,468.1,84.9,466.6,84.8z"/>
<path class="st3" d="M454.3,83.4l0.3-1.9c1.9,0.3,3.7,0.5,5.5,0.8l-0.3,1.9C458,83.9,456.1,83.6,454.3,83.4z"/>
<path class="st1" d="M443.2,81.3l0.3-1.9c1.8,0.4,3.6,0.8,5.5,1.1l-0.3,1.9C446.9,82.1,445,81.6,443.2,81.3z"/>
<path class="st4" d="M432.2,79.1l0.3-1.9c1.9,0.3,3.7,0.8,5.5,1.1l-0.3,1.9C435.9,79.8,434.1,79.4,432.2,79.1z"/>
<path class="st4" d="M354.6,77.7c1.8-0.3,3.7-0.7,5.5-1l0.3,1.9c-1.9,0.3-3.7,0.7-5.5,1L354.6,77.7z"/>
<path class="st4" d="M421.3,77.2l0.3-1.9c1.8,0.3,3.6,0.5,5.5,0.9l-0.3,1.9C424.9,77.8,423.1,77.5,421.3,77.2z"/>
<path class="st4" d="M365.6,75.9c1.9-0.3,3.7-0.5,5.6-0.8l0.2,1.9c-1.8,0.2-3.7,0.4-5.5,0.7L365.6,75.9z"/>
<path class="st4" d="M410.2,76l0.2-1.9c1.9,0.2,3.8,0.3,5.6,0.5l-0.2,1.9C414,76.4,412.1,76.2,410.2,76z"/>
<path class="st4" d="M376.8,74.4c1.9-0.2,3.8-0.3,5.6-0.4l0.1,1.9c-1.8,0.1-3.6,0.3-5.5,0.4L376.8,74.4z"/>
<path class="st4" d="M399.2,75.5v-1.9c1.9,0,3.7,0.1,5.6,0.2l-0.1,1.9C402.9,75.6,401,75.6,399.2,75.5z"/>
<path class="st4" d="M388.1,73.7c1.8,0,3.7-0.1,5.6-0.1v1.9c-1.9,0-3.8,0-5.6,0.1V73.7z"/>
<path class="st4" d="M432.3,37.8v-1.9c1.8,0,3.7,0,5.5-0.1l0.1,1.9c-1.5,0.1-3.1,0.1-4.6,0.1C432.9,37.8,432.6,37.8,432.3,37.8z"/>
<path class="st6" d="M421,37.1l0.2-1.9c1.8,0.3,3.7,0.4,5.5,0.5l-0.1,1.9C424.7,37.4,422.8,37.2,421,37.1z"/>
<path class="st4" d="M443.3,35.3h0.3c1.8-0.2,3.5-0.4,5.2-0.7l0.3,1.9c-1.7,0.3-3.5,0.5-5.3,0.7h-0.3L443.3,35.3z"/>
<path class="st4" d="M409.9,35.3l0.3-1.9c1.8,0.3,3.6,0.8,5.4,1l-0.3,1.9C413.6,36,411.7,35.6,409.9,35.3z"/>
<path class="st4" d="M454.3,33.5c1.8-0.3,3.5-0.8,5.4-1.3l0.5,1.9c-1.9,0.5-3.7,1-5.5,1.4L454.3,33.5z"/>
<path class="st7" d="M465,30.8c1.2-0.3,2.3-0.8,3.5-1.1l1.8-0.6l0.5,1.8l-1.8,0.6c-1.2,0.3-2.3,0.8-3.5,1.1L465,30.8z"/>
<path class="st7" d="M475.7,27.4c1.9-0.6,3.7-1,5.4-1.5l0.4,1.9c-1.7,0.3-3.4,0.9-5.3,1.4L475.7,27.4z"/>
<path class="st7" d="M486.6,24.9c0.9-0.2,1.9-0.3,2.9-0.4c0.9-0.2,1.7-0.3,2.7-0.3l0.2,1.9c-0.9,0.2-1.7,0.3-2.6,0.3
	c-0.9,0.2-1.9,0.3-2.8,0.4L486.6,24.9z"/>
<path class="st4" d="M225.8,78.6l0.6-1.8c1.7,0.7,3.5,1.4,5.2,2.1l-0.7,1.8C229.3,79.9,227.5,79.2,225.8,78.6z"/>
<path class="st4" d="M215.2,75l0.5-1.8c1.7,0.5,3.5,1.1,5.3,1.7l-0.6,1.8C218.8,76.1,217,75.6,215.2,75z"/>
<path class="st4" d="M116,73.2c1.8-0.5,3.6-1,5.4-1.5l0.4,1.9c-1.8,0.5-3.6,1-5.3,1.5L116,73.2z"/>
<path class="st7" d="M204.4,72.2l0.4-1.9c1.8,0.4,3.6,0.9,5.4,1.4l-0.4,1.9C208,73,206.2,72.6,204.4,72.2z"/>
<path class="st4" d="M126.8,70.4c1.8-0.4,3.7-0.9,5.5-1.2l0.3,1.9c-1.8,0.3-3.6,0.8-5.4,1.2L126.8,70.4z"/>
<path class="st7" d="M193.6,69.9l0.3-1.9c1.8,0.3,3.7,0.7,5.5,1L199,71C197.2,70.6,195.4,70.3,193.6,69.9z"/>
<path class="st4" d="M137.8,68.1c1.9-0.3,3.8-0.6,5.6-0.9l0.3,1.9c-1.8,0.3-3.7,0.5-5.5,0.9L137.8,68.1z"/>
<path class="st7" d="M182.6,68.6l0.2-1.9c1.9,0.2,3.7,0.3,5.6,0.6l-0.3,1.9C186.2,68.9,184.4,68.7,182.6,68.6z"/>
<path class="st4" d="M149,66.7c1.9-0.2,3.7-0.3,5.6-0.4l0.1,1.9c-1.8,0.1-3.7,0.3-5.5,0.4L149,66.7z"/>
<path class="st7" d="M171.4,67.8v-0.9l0.1-0.9c1.9,0.1,3.8,0.2,5.6,0.3l-0.1,1.9C175.2,68,173.3,67.9,171.4,67.8z"/>
<path class="st4" d="M160.3,66c1.8-0.1,3.7-0.1,5.6-0.1v1.9c-1.9,0-3.7,0-5.6,0.1V66z"/>
</svg>
