<?xml version="1.0" encoding="utf-8"?>
<!-- Generator: Adobe Illustrator 24.3.0, SVG Export Plug-In . SVG Version: 6.00 Build 0)  -->
<svg version="1.1" id="Camada_1" xmlns="http://www.w3.org/2000/svg" xmlns:xlink="http://www.w3.org/1999/xlink" x="0px" y="0px"
	 width="500px" height="100px" viewBox="0 0 500 100" style="enable-background:new 0 0 500 100;" xml:space="preserve">
<style type="text/css">
	.st0{fill:#292930;}
	.st1{fill:#18181C;}
	.st2{fill:#FFFFFF;}
	.st3{fill:#8D8D99;}
</style>
<path class="st0" d="M500,30.3c0,0-133.8-66.4-273.1,29.6C106.4,121.6,0,75.9,0,75.9L0,0l500,0V30.3z"/>
<g>
	<path class="st1" d="M226.9,59.9C366.2-36.1,500,30.3,500,30.3V100H0l0-24.1C0,75.9,106.4,121.6,226.9,59.9z"/>
</g>
<g>
	<path class="st2" d="M375,14.9v-13c40.1-1.9,81.9,4.9,125,20.4v13.8C456.8,19.9,414.9,12.9,375,14.9z"/>
	<path class="st3" d="M375,14.9c-10.9,0.5-21.6,1.8-32.1,3.7c-38.4,6.9-65.1,20.6-92.9,35.3V39.2c25.7-13.5,53.2-26.6,90.6-33.4
		c11.3-2,22.8-3.3,34.4-3.9V14.9z"/>
	<path class="st2" d="M125,84c4.9-0.5,9.9-1.2,14.8-2c42.5-6.9,70.9-22,100.9-37.9c3.1-1.6,6.2-3.3,9.3-4.9v14.6
		c-1.1,0.6-2.2,1.1-3.2,1.7c-29.6,15.7-60.3,31.9-104.9,39.2c-5.6,0.9-11.2,1.7-16.9,2.2V84z"/>
	<path class="st3" d="M125,84v13c-9.4,1-19,1.4-28.5,1.4c-31.6,0-63.9-5.2-96.5-15.7l0-13.6C42.5,83.3,84.4,88.3,125,84z"/>
</g>
</svg>
