<?xml version="1.0" encoding="utf-8"?>
<!-- Generator: Adobe Illustrator 24.3.0, SVG Export Plug-In . SVG Version: 6.00 Build 0)  -->
<svg version="1.1" id="Camada_1" xmlns="http://www.w3.org/2000/svg" xmlns:xlink="http://www.w3.org/1999/xlink" x="0px" y="0px"
	 width="400px" height="400px" viewBox="0 0 400 400" style="enable-background:new 0 0 400 400;" xml:space="preserve">
<style type="text/css">
	.st0{fill:#23B4DB;}
	.st1{fill:#39E09B;}
	.st2{fill:#28BF7B;}
	.st3{fill:#555560;}
</style>
<g>
	<g>
		<path class="st0" d="M104.8,60.5l-3.5,0.3L113,86.9l4.1-15.6L112,60l-3.7,0.3l-0.2-2.6l16.3-1.3l0.2,2.6l-3.8,0.3l11.7,25.9
			l2.6-10c3.5-12.9-5-16.1-5.2-18.9s1.8-5.2,4.6-5.5c0.2,0,0.3,0,0.4,0c-5.1-4.1-11.7-6.3-18.7-5.7c-9.2,0.8-16.9,6.1-21,13.6
			l9.3-0.8L104.8,60.5L104.8,60.5L104.8,60.5z"/>
		<path class="st0" d="M92,73.7c0.8,10.1,7.2,18.4,15.9,22.2L93.3,63.2C92.2,66.5,91.7,70,92,73.7z"/>
		<path class="st0" d="M140.3,56.6c0.6,2.2,0.7,4.7,0.3,7.3h0.1l-0.3,1.2l0,0c-0.2,0.8-0.4,1.7-0.7,2.6l-7,26.2
			c8-5.1,12.9-14.4,12.1-24.4C144.4,64.6,142.8,60.3,140.3,56.6z"/>
		<path class="st0" d="M112.3,97.3c2.6,0.6,5.4,0.8,8.2,0.6c2.7-0.2,5.3-0.8,7.7-1.8l-9.5-21.2L112.3,97.3z"/>
		<path class="st0" d="M138.9,47.4c-6.4-5.5-14.6-8.1-23.1-7.4c-8.4,0.7-16.1,4.6-21.5,11.1c-5.5,6.4-8.1,14.6-7.4,23.1
			c0.7,8.4,4.6,16.1,11.1,21.5s14.6,8.1,23.1,7.4s16.1-4.6,21.5-11.1c5.5-6.4,8.1-14.6,7.4-23.1C149.3,60.5,145.3,52.9,138.9,47.4z
			 M120.8,100.8c-16.2,1.3-30.4-10.7-31.7-26.9S99.8,43.5,116,42.2s30.4,10.8,31.7,26.9C149.1,85.3,137,99.5,120.8,100.8z"/>
	</g>
</g>
<g>
	<g>
		<path class="st0" d="M304,160l-2.4,1l14.2,15.1l-0.9-11.7l-6.2-6.6l-2.4,1.1l-0.7-1.7l10.9-4.8l0.7,1.7l-2.5,1.1l14.2,15.1
			l-0.5-7.5c-0.6-9.7-7.3-9.9-8.1-11.8c-0.8-1.9,0-4.1,1.9-4.9c0.1,0,0.2-0.1,0.3-0.1c-4.4-1.6-9.5-1.5-14.2,0.5
			c-6.2,2.7-10.2,8.2-11.2,14.3l6.3-2.7L304,160L304,160L304,160z"/>
		<path class="st0" d="M298.4,172.2c3,6.7,9.3,11,16.2,11.5l-17.8-19C296.8,167.2,297.3,169.7,298.4,172.2z"/>
		<path class="st0" d="M327.5,149c0.9,1.4,1.5,3.1,1.9,4.9h0.1l0.1,0.9l0,0c0.1,0.6,0.1,1.3,0.2,1.9l1.4,19.7
			c4.3-5.4,5.4-12.9,2.5-19.7C332.2,153.6,330.1,150.9,327.5,149z"/>
		<path class="st0" d="M317.9,183.6c2-0.2,3.9-0.7,5.8-1.5c1.8-0.8,3.4-1.8,4.9-3.1l-11.5-12.3L317.9,183.6z"/>
		<path class="st0" d="M324.4,143c-5.7-2.3-12-2.1-17.6,0.4c-5.6,2.4-10,7-12.2,12.7s-2.1,12,0.4,17.6c2.4,5.6,7,10,12.7,12.2
			c5.7,2.3,12,2.1,17.6-0.4c5.6-2.4,10-7,12.2-12.7s2.1-12-0.4-17.6C334.6,149.6,330.1,145.2,324.4,143z M324.6,184
			c-10.8,4.7-23.5-0.2-28.2-11s0.2-23.5,11-28.2c10.8-4.7,23.5,0.2,28.2,11S335.4,179.3,324.6,184z"/>
	</g>
</g>
<path id="path18" class="st1" d="M75.2,155.2c-0.2-1.3-1.7-1.9-2.7-1.1L54.9,168c-0.9,0.7-0.6,2.1,0.4,2.5l6.7,2.8l-2.9,6.8
	c-0.3,0.7,0.1,1.5,0.7,1.8l3.9,1.6c0.7,0.3,1.5-0.1,1.8-0.7l2.9-6.8l-1.9-0.8c-0.8-0.4-1.2-1.2-1-1.9c0.1-0.2,0.2-0.5,0.4-0.6
	l9.8-7.7L75.2,155.2z"/>
<path id="path20" class="st2" d="M83.9,158.9c1-0.8,2.5-0.2,2.7,1.1l2.4,22.3c0.1,1.1-1,1.9-2.1,1.4l-6.6-2.8l-2.9,6.8
	c-0.3,0.7-1.1,1.1-1.8,0.7l-4.1-1.7c-0.7-0.3-1.1-1.1-0.7-1.8l2.9-6.8l1.9,0.8c0.8,0.4,1.6,0,2-0.6c0.1-0.2,0.2-0.5,0.2-0.7
	l-1.3-12.4L83.9,158.9z"/>
<path id="path18_2_" class="st1" d="M27.2,23.9c-1.2-1-3.1-0.4-3.3,1.2l-4.2,27.2c-0.2,1.4,1.2,2.4,2.5,1.9l8.4-3.1l3.1,8.5
	c0.3,0.9,1.3,1.3,2.2,1l4.9-1.8c0.9-0.3,1.3-1.3,1-2.2l-3.1-8.5l-2.3,0.9c-1,0.3-2-0.1-2.5-0.9c-0.1-0.3-0.2-0.6-0.2-0.9l2.4-15.2
	L27.2,23.9z"/>
<path id="path20_2_" class="st2" d="M38.2,20c0.2-1.6,2.1-2.2,3.3-1.2l20.7,18.1c1,0.9,0.6,2.6-0.7,3.1l-8.2,3l3.1,8.5
	c0.3,0.9-0.1,1.9-1,2.2l-5.2,1.9c-0.9,0.3-1.9-0.1-2.2-1L44.9,46l2.3-0.9c1-0.3,1.5-1.3,1.3-2.3c-0.1-0.3-0.2-0.6-0.4-0.8L36.5,31.9
	L38.2,20z"/>
<path id="path18_1_" class="st1" d="M289,59.2c-0.8-1.4-2.8-1.3-3.6,0.1l-12.8,24.5c-0.6,1.3,0.4,2.6,1.8,2.6l9-0.2l0.2,9.1
	c0,0.9,0.8,1.7,1.7,1.7l5.3-0.1c0.9,0,1.7-0.8,1.7-1.7l-0.2-9.1l-2.5,0.1c-1.1,0-1.9-0.7-2.1-1.7c0-0.3,0-0.6,0.1-0.9l7.1-13.7
	L289,59.2z"/>
<path id="path20_1_" class="st2" d="M300.8,58.9c0.7-1.4,2.8-1.5,3.6-0.1l13.9,23.9c0.6,1.2-0.2,2.6-1.6,2.7l-8.8,0.2l0.2,9.1
	c0,0.9-0.7,1.7-1.7,1.7l-5.6,0.1c-0.9,0-1.7-0.7-1.7-1.7l-0.2-9.1l2.5-0.1c1.1,0,1.8-0.8,2-1.8c0-0.3,0-0.6-0.2-0.9l-7.8-13.3
	L300.8,58.9z"/>
<g>
	<path class="st0" d="M148.3,126.2l-0.9-5.7l1.3,0.2l0.5,4l1.8-3.7l1.3,0.2l0.6,4l1.7-3.7l1.3,0.2l-2.5,5.3l-1.4-0.2l-0.6-4
		l-1.7,3.6L148.3,126.2z"/>
	<path class="st0" d="M157.7,126.8c-0.5-0.6-0.6-1.3-0.5-2.1c0.2-0.8,0.5-1.5,1.1-1.9c0.6-0.5,1.4-0.6,2.2-0.5
		c0.8,0.2,1.5,0.5,2,1.1c0.5,0.6,0.6,1.3,0.5,2.1c-0.2,0.8-0.5,1.5-1.1,1.9c-0.6,0.5-1.4,0.6-2.2,0.5
		C158.8,127.8,158.1,127.4,157.7,126.8z M159.2,123.7c-0.3,0.3-0.5,0.7-0.6,1.1c-0.1,0.5,0,0.9,0.2,1.3c0.2,0.4,0.6,0.6,1,0.7
		c0.5,0.1,0.8-0.1,1.2-0.3c0.3-0.3,0.5-0.7,0.6-1.2c0.1-0.5,0-0.9-0.2-1.3c-0.2-0.4-0.6-0.6-1.1-0.7
		C159.9,123.3,159.5,123.4,159.2,123.7z"/>
	<path class="st0" d="M164.9,128.6l0.8-5.5l2.8,0.4c0.5,0.1,0.9,0.3,1.2,0.7c0.3,0.4,0.4,0.8,0.3,1.4c-0.1,0.4-0.2,0.7-0.4,0.9
		c-0.2,0.2-0.5,0.5-0.8,0.5l0.9,2.4l-1.4-0.2l-0.8-2.1l-1-0.2l-0.3,2L164.9,128.6z M166.8,124.3l-0.2,1.5l1.3,0.2
		c0.2,0,0.4,0,0.5-0.2c0.2-0.2,0.2-0.3,0.2-0.5c0-0.2,0-0.4-0.1-0.5c-0.1-0.2-0.2-0.2-0.5-0.2L166.8,124.3z"/>
	<path class="st0" d="M171.8,129.6l0.8-5.5l2.4,0.3c0.8,0.2,1.5,0.5,2,1.1c0.5,0.6,0.6,1.3,0.5,2.1c-0.2,0.8-0.5,1.5-1.1,1.9
		c-0.6,0.5-1.4,0.6-2.2,0.5L171.8,129.6z M175.5,128.6c0.3-0.3,0.5-0.7,0.6-1.1c0.1-0.5,0-0.9-0.2-1.3s-0.6-0.5-1.1-0.6l-1.1-0.2
		l-0.5,3.4l1.1,0.2C174.7,128.9,175.2,128.8,175.5,128.6z"/>
	<path class="st0" d="M180.6,130.8l-1.3-0.2l0.8-5.5l2.8,0.4c0.5,0.1,0.9,0.3,1.2,0.7c0.3,0.4,0.4,0.8,0.3,1.4
		c-0.1,0.5-0.3,0.9-0.7,1.2s-0.8,0.4-1.4,0.3l-1.5-0.2L180.6,130.8z M181,127.8l1.3,0.2c0.2,0,0.4,0,0.5-0.2
		c0.2-0.2,0.2-0.3,0.2-0.5s0-0.4-0.1-0.5s-0.2-0.2-0.5-0.2l-1.3-0.2L181,127.8z"/>
	<path class="st0" d="M186,131.6l0.8-5.5l2.8,0.4c0.5,0.1,0.9,0.3,1.2,0.7c0.3,0.4,0.4,0.8,0.3,1.4c-0.1,0.4-0.2,0.7-0.4,0.9
		s-0.5,0.5-0.8,0.5l0.9,2.4l-1.4-0.2l-0.8-2.1l-1-0.2l-0.3,2L186,131.6z M188,127.3l-0.2,1.5l1.3,0.2c0.2,0,0.4,0,0.5-0.2
		c0.2-0.2,0.2-0.3,0.2-0.5s0-0.4-0.1-0.5c-0.1-0.2-0.2-0.2-0.5-0.2L188,127.3z"/>
	<path class="st0" d="M193.7,127l4.1,0.6l-0.2,1.1l-2.8-0.4l-0.2,1.1l2.6,0.4l-0.2,1.1l-2.6-0.4l-0.2,1.2l2.9,0.4l-0.2,1.1l-4.2-0.6
		L193.7,127z"/>
	<path class="st0" d="M203.7,132.5c-0.1,0.5-0.3,0.8-0.8,1.1c-0.5,0.2-1,0.4-1.6,0.2c-0.4-0.1-0.8-0.2-1.1-0.4
		c-0.4-0.2-0.7-0.4-0.9-0.7l0.8-0.8c0.2,0.2,0.3,0.3,0.5,0.4c0.2,0.1,0.5,0.2,0.8,0.2c0.3,0.1,0.5,0,0.7-0.1
		c0.2-0.1,0.3-0.2,0.3-0.3c0-0.1,0-0.2-0.2-0.3c-0.2-0.2-0.4-0.2-0.7-0.5c-0.7-0.3-1.1-0.7-1.4-1c-0.2-0.3-0.4-0.7-0.3-1.1
		c0.1-0.5,0.3-0.8,0.7-1.1c0.4-0.2,0.9-0.4,1.5-0.3c0.4,0.1,0.7,0.2,1.1,0.4c0.4,0.2,0.6,0.4,0.8,0.6l-0.8,0.8
		c-0.1-0.2-0.2-0.2-0.5-0.4c-0.2-0.1-0.5-0.2-0.7-0.2c-0.2,0-0.5,0-0.6,0.1c-0.2,0.1-0.2,0.2-0.3,0.3c0,0.2,0,0.2,0.2,0.4
		c0.2,0.2,0.4,0.2,0.7,0.5c0.7,0.3,1.1,0.7,1.4,1C203.7,131.8,203.8,132.1,203.7,132.5z"/>
	<path class="st0" d="M209.9,133.4c-0.1,0.5-0.3,0.8-0.8,1.1c-0.5,0.2-1,0.4-1.6,0.2c-0.4-0.1-0.8-0.2-1.1-0.4
		c-0.4-0.2-0.7-0.4-0.9-0.7l0.8-0.8c0.2,0.2,0.3,0.3,0.5,0.4c0.2,0.2,0.5,0.2,0.8,0.2c0.3,0.1,0.5,0,0.7-0.1
		c0.2-0.1,0.3-0.2,0.3-0.3c0-0.1,0-0.2-0.2-0.3c-0.2-0.2-0.4-0.2-0.7-0.5c-0.7-0.3-1.1-0.7-1.4-1c-0.2-0.3-0.4-0.7-0.3-1.1
		c0.1-0.5,0.3-0.8,0.7-1.1c0.4-0.2,0.9-0.4,1.5-0.3c0.4,0.1,0.7,0.2,1.1,0.4c0.4,0.2,0.6,0.4,0.8,0.6l-0.8,0.8
		c-0.1-0.2-0.2-0.2-0.5-0.4c-0.2-0.1-0.5-0.2-0.7-0.2c-0.2,0-0.5,0-0.6,0.1s-0.2,0.2-0.3,0.3c0,0.2,0,0.2,0.2,0.4s0.4,0.2,0.7,0.5
		c0.7,0.3,1.1,0.7,1.4,1C209.9,132.6,210,133,209.9,133.4z"/>
</g>
<g>
	<path class="st0" d="M295.4,28l-3.3-6.9l1.7-0.2l2.1,4.8l0.9-5.2l1.7-0.2l2.2,4.8l0.7-5.2l1.7-0.2l-1.3,7.5l-1.8,0.2l-2.2-4.7
		l-0.8,5.2L295.4,28z"/>
	<path class="st0" d="M307.4,25.4c-0.8-0.6-1.3-1.4-1.4-2.5c-0.2-1.1,0.1-2.1,0.7-2.8c0.6-0.8,1.5-1.3,2.6-1.4
		c1.1-0.2,2.1,0.1,2.9,0.6c0.8,0.6,1.3,1.4,1.4,2.5c0.2,1.1-0.1,2-0.7,2.8c-0.6,0.8-1.5,1.3-2.6,1.4C309.2,26.2,308.2,26,307.4,25.4
		z M308.1,20.9c-0.3,0.5-0.4,1.1-0.3,1.7c0.1,0.7,0.4,1.2,0.8,1.5c0.4,0.4,1,0.5,1.5,0.4c0.6-0.1,1.1-0.4,1.4-0.9
		c0.3-0.5,0.4-1.1,0.3-1.7c-0.1-0.7-0.4-1.2-0.8-1.6c-0.4-0.4-1-0.5-1.6-0.4C308.9,20.1,308.4,20.4,308.1,20.9z"/>
	<path class="st0" d="M317,25l-1-7.2l3.6-0.5c0.7-0.1,1.3,0,1.8,0.4s0.8,0.9,0.9,1.6c0.1,0.5,0,0.9-0.2,1.3s-0.4,0.7-0.8,0.9l2,2.6
		l-1.8,0.3l-1.8-2.4l-1.3,0.2l0.4,2.6L317,25z M317.9,18.9l0.3,1.9l1.7-0.2c0.2,0,0.4-0.2,0.6-0.3s0.2-0.4,0.1-0.7
		c0-0.3-0.1-0.5-0.3-0.6c-0.2-0.1-0.4-0.2-0.6-0.2L317.9,18.9z"/>
	<path class="st0" d="M326.1,23.7l-1-7.2l3.1-0.4c1.1-0.2,2.1,0.1,2.9,0.6c0.8,0.6,1.3,1.4,1.4,2.5s-0.1,2-0.7,2.8s-1.5,1.2-2.6,1.4
		L326.1,23.7z M330.4,21.1c0.3-0.5,0.4-1,0.3-1.7c-0.1-0.7-0.4-1.2-0.8-1.5c-0.4-0.4-1-0.5-1.6-0.4l-1.4,0.2l0.6,4.5l1.4-0.2
		C329.6,21.8,330.1,21.6,330.4,21.1z"/>
	<path class="st0" d="M337.6,22.1l-1.7,0.2l-1-7.2l3.6-0.5c0.7-0.1,1.3,0,1.8,0.4s0.8,0.9,0.9,1.6c0.1,0.7,0,1.3-0.4,1.8
		s-0.9,0.8-1.6,0.9l-1.9,0.3L337.6,22.1z M337,18.1l1.7-0.2c0.2,0,0.4-0.2,0.6-0.3c0.1-0.2,0.2-0.4,0.1-0.7c0-0.3-0.1-0.5-0.3-0.6
		c-0.2-0.1-0.4-0.2-0.6-0.2l-1.7,0.2L337,18.1z"/>
	<path class="st0" d="M344.7,21.1l-1-7.2l3.6-0.5c0.7-0.1,1.3,0,1.8,0.4c0.5,0.4,0.8,0.9,0.9,1.6c0.1,0.5,0,0.9-0.2,1.3
		s-0.4,0.7-0.8,0.9l2,2.6l-1.8,0.3l-1.8-2.4l-1.3,0.2l0.4,2.6L344.7,21.1z M345.6,15l0.3,1.9l1.7-0.2c0.2,0,0.4-0.2,0.6-0.3
		c0.1-0.2,0.2-0.4,0.1-0.7c0-0.3-0.1-0.5-0.3-0.6c-0.2-0.1-0.4-0.2-0.6-0.2L345.6,15z"/>
	<path class="st0" d="M352.7,12.6l5.4-0.8l0.2,1.4l-3.7,0.5l0.2,1.5l3.4-0.5l0.2,1.4l-3.4,0.5l0.2,1.6l3.8-0.5l0.2,1.4l-5.5,0.8
		L352.7,12.6z"/>
	<path class="st0" d="M367.2,15.8c0.1,0.6-0.1,1.2-0.6,1.7s-1.1,0.8-1.9,0.9c-0.5,0.1-1,0.1-1.6,0c-0.5-0.1-1-0.3-1.4-0.5l0.7-1.2
		c0.2,0.1,0.5,0.2,0.9,0.3c0.3,0.1,0.7,0.1,1,0c0.4-0.1,0.7-0.2,0.9-0.3c0.2-0.2,0.3-0.3,0.3-0.5c0-0.1-0.1-0.3-0.3-0.4
		c-0.2-0.1-0.5-0.2-1-0.3c-1-0.2-1.7-0.4-2.1-0.7s-0.7-0.7-0.8-1.3c-0.1-0.6,0.1-1.2,0.5-1.7s1-0.8,1.8-0.9c0.5-0.1,1-0.1,1.5,0
		c0.5,0.1,0.9,0.3,1.2,0.5l-0.7,1.3c-0.2-0.1-0.4-0.2-0.7-0.3c-0.3-0.1-0.6-0.1-0.9,0c-0.3,0-0.6,0.1-0.8,0.3
		c-0.2,0.1-0.3,0.3-0.2,0.5c0,0.2,0.1,0.3,0.3,0.4c0.2,0.1,0.5,0.2,1,0.3c1,0.2,1.7,0.4,2.1,0.7C366.9,14.9,367.1,15.3,367.2,15.8z"
		/>
	<path class="st0" d="M375.3,14.7c0.1,0.6-0.1,1.2-0.6,1.7s-1.1,0.8-1.9,0.9c-0.5,0.1-1,0.1-1.6,0c-0.5-0.1-1-0.3-1.4-0.5l0.7-1.2
		c0.2,0.1,0.5,0.2,0.9,0.3c0.3,0.1,0.7,0.1,1,0c0.4-0.1,0.7-0.2,0.9-0.3c0.2-0.2,0.3-0.3,0.3-0.5c0-0.1-0.1-0.3-0.3-0.4
		c-0.2-0.1-0.5-0.2-1-0.3c-1-0.2-1.7-0.4-2.1-0.7s-0.7-0.7-0.8-1.3c-0.1-0.6,0.1-1.2,0.5-1.7s1-0.8,1.8-0.9c0.5-0.1,1-0.1,1.5,0
		c0.5,0.1,0.9,0.3,1.2,0.5l-0.7,1.3c-0.2-0.1-0.4-0.2-0.7-0.3c-0.3-0.1-0.6-0.1-0.9,0c-0.3,0-0.6,0.1-0.8,0.3
		c-0.2,0.1-0.3,0.3-0.2,0.5c0,0.2,0.1,0.3,0.3,0.4c0.2,0.1,0.5,0.2,1,0.3c1,0.2,1.7,0.4,2.1,0.7C375,13.8,375.2,14.2,375.3,14.7z"/>
</g>
<g>
	<path class="st1" d="M176.7,84.8l-1.2-7.2l1.7-0.3l1,5.8l3.5-0.7l0.2,1.4L176.7,84.8z"/>
	<path class="st1" d="M186.4,83.2l-1.7,0.3l-1.2-7.2l1.7-0.3L186.4,83.2z"/>
	<path class="st1" d="M194.5,81.9l-4.2-4l0.8,4.5l-1.6,0.2l-1.2-7.2l1.6-0.2l4.2,3.9l-0.8-4.5l1.6-0.2l1.2,7.2L194.5,81.9z"/>
	<path class="st1" d="M204,80.2l-2.7-2.8l-0.7,1l0.4,2.4l-1.7,0.3l-1.2-7.2l1.7-0.3l0.5,2.7l2.2-3.1l2.2-0.4l-2.4,3.4l3.8,3.8
		L204,80.2z"/>
	<path class="st1" d="M207,72.2l6.5-1.1l0.2,1.4l-2.5,0.4l1,5.8l-1.7,0.3l-1-5.8l-2.5,0.4L207,72.2z"/>
	<path class="st1" d="M217.4,77.9l-1.2-7.2l3.5-0.7c0.7-0.1,1.3,0,1.8,0.3c0.5,0.3,0.8,0.9,0.9,1.5c0.1,0.5,0.1,0.9-0.1,1.3
		c-0.1,0.4-0.4,0.7-0.7,1l2.1,2.5l-1.8,0.3l-1.9-2.3l-1.4,0.2l0.4,2.6L217.4,77.9z M218,71.8l0.3,1.9l1.7-0.3
		c0.3-0.1,0.5-0.2,0.5-0.3c0.2-0.2,0.2-0.5,0.1-0.7c-0.1-0.3-0.2-0.5-0.3-0.6c-0.1-0.2-0.5-0.2-0.6-0.2L218,71.8z"/>
	<path class="st1" d="M225.2,69.2l5.3-0.9l0.2,1.4l-3.7,0.6l0.2,1.5l3.3-0.6l0.2,1.4l-3.3,0.6l0.2,1.6l3.8-0.6l0.2,1.4l-5.4,0.9
		L225.2,69.2z"/>
	<path class="st1" d="M233.5,67.7l5.3-0.9l0.2,1.4l-3.7,0.6l0.2,1.5l3.3-0.6l0.2,1.4l-3.3,0.6l0.2,1.6l3.8-0.6L240,74l-5.4,0.9
		L233.5,67.7z"/>
</g>
<g>
	<path class="st1" d="M118.3,204.1l-3.5-6.4l1.5-0.8l2.9,5.2l3.2-1.7l0.7,1.2L118.3,204.1z"/>
	<path class="st1" d="M126.9,199.4l-1.5,0.8l-3.5-6.4l1.5-0.8L126.9,199.4z"/>
	<path class="st1" d="M134.1,195.4l-5.3-2.4l2.2,4.1l-1.4,0.8l-3.5-6.4l1.4-0.8l5.2,2.3l-2.2-4l1.4-0.8l3.5,6.4L134.1,195.4z"/>
	<path class="st1" d="M142.5,190.7L139,189l-0.3,1.2l1.1,2.1l-1.5,0.8l-3.5-6.4l1.5-0.8l1.3,2.4l1-3.7l1.9-1.1l-1.1,3.9l4.8,2.4
		L142.5,190.7z"/>
	<path class="st1" d="M142.7,182.3l5.8-3.2l0.7,1.2l-2.2,1.2l2.9,5.2l-1.5,0.8l-2.9-5.2l-2.2,1.2L142.7,182.3z"/>
	<path class="st1" d="M154.4,184.2l-3.5-6.4l3.1-1.7c0.6-0.3,1.2-0.4,1.8-0.3c0.6,0.2,1.1,0.5,1.4,1.2c0.2,0.4,0.3,0.8,0.3,1.3
		c0,0.4-0.1,0.8-0.4,1.2l2.8,1.7l-1.6,0.9l-2.6-1.6l-1.2,0.7l1.3,2.3L154.4,184.2z M153,178.2l0.9,1.6l1.5-0.8
		c0.2-0.1,0.4-0.3,0.4-0.5c0.1-0.2,0-0.5-0.1-0.7c-0.1-0.3-0.3-0.4-0.5-0.5s-0.4,0-0.7,0.1L153,178.2z"/>
	<path class="st1" d="M158.9,173.4l4.8-2.6l0.7,1.2l-3.3,1.8l0.7,1.3l3-1.6l0.7,1.2l-3,1.6l0.8,1.4l3.4-1.9l0.7,1.2l-4.9,2.7
		L158.9,173.4z"/>
	<path class="st1" d="M166.3,169.3l4.8-2.6l0.7,1.2l-3.3,1.8l0.7,1.3l3-1.6l0.7,1.2l-3,1.6l0.8,1.4l3.4-1.9l0.7,1.2l-4.9,2.7
		L166.3,169.3z"/>
</g>
<g>
	<path class="st3" d="M74.2,109.3l-1.8-2.8c1.8-1.2,3.8-2.3,5.7-3.5l1.7,2.9C78,107,76.1,108.1,74.2,109.3z"/>
	<path class="st3" d="M134.8,372.1c-1.8-4-3.7-8-5.8-11.7l2.9-1.5c2.1,3.9,4,7.9,5.8,12L134.8,372.1z M122.5,349.1
		c-2.4-3.7-4.8-7.3-7.4-10.8l2.6-2c2.7,3.5,5.2,7.2,7.5,11L122.5,349.1z M106.8,328.2c-2.1-2.4-4.4-4.8-6.6-7
		c-0.8-0.8-1.6-1.6-2.4-2.4l2.3-2.4c0.8,0.8,1.6,1.6,2.5,2.4c2.3,2.3,4.6,4.8,6.8,7.2L106.8,328.2z M88,310
		c-3.4-2.8-6.9-5.2-10.5-7.7l1.9-2.7c3.8,2.5,7.3,5.1,10.8,7.9L88,310z M66.3,295.6c-2.5-1.4-5.2-2.9-8.4-4.6
		c-1.1-0.6-2.1-1.1-3.2-1.7l1.5-2.9c1.1,0.6,2.1,1.1,3.2,1.7c3.3,1.7,6,3.1,8.5,4.6L66.3,295.6z M43,283.3
		c-4.7-2.5-8.3-4.7-11.5-6.9l2-2.7c3.1,2.1,6.6,4.3,11.1,6.8L43,283.3z M21.4,267.4c-3-3.3-5.5-7-7.7-11.2l2.9-1.5
		c2.1,3.9,4.4,7.3,7.2,10.5L21.4,267.4z M8.7,243.7c-1.2-4.2-2-8.7-2.5-13.2l3.3-0.3c0.4,4.4,1.2,8.6,2.3,12.7L8.7,243.7z M5.9,217
		c0.2-4.3,0.8-8.8,1.6-13.4l3.3,0.6c-0.8,4.4-1.4,8.7-1.6,12.9L5.9,217z M10.6,190.7c1.2-4.1,2.7-8.4,4.3-12.6l3.1,1.2
		c-1.6,4.1-3.1,8.3-4.2,12.3L10.6,190.7z M20.2,165.8c0.7-1.6,1.6-3.2,2.4-4.9c0.4-0.7,0.7-1.3,1-1.9c0.9-1.7,1.9-3.4,2.8-5.1
		l2.8,1.7c-1,1.6-1.8,3.2-2.7,4.9c-0.3,0.5-0.6,1.2-1,1.9c-0.9,1.7-1.7,3.2-2.4,4.8L20.2,165.8z M36.4,144.7l-2.7-2
		c2.6-3.6,5.4-7.1,8.3-10.5l2.5,2.2C41.6,137.8,38.9,141.2,36.4,144.7z M53.6,125.2l-2.3-2.4c3.3-3,6.6-5.9,10.2-8.6l2,2.6
		C60.1,119.4,56.8,122.3,53.6,125.2z"/>
	<path class="st3" d="M141.9,390.4c-0.7-2.1-1.4-4.2-2.2-6.2l3.1-1.1c0.7,2.1,1.5,4.1,2.2,6.3L141.9,390.4z"/>
</g>
<path class="st3" d="M160.4,378.7l-3-1.4c1.4-3,2.7-6.1,3.9-9l3.1,1.2C163.1,372.5,161.8,375.5,160.4,378.7z M169.1,357.1L166,356
	c0.5-1.4,0.9-2.8,1.3-4.1c0.9-2.9,1.8-5.7,2.5-8.4l3.2,0.8c-0.8,2.8-1.6,5.7-2.6,8.5C170,354.2,169.5,355.6,169.1,357.1z
	 M172.7,330.7c0.8-4.5,1.3-8.8,1.4-12.9l3.3,0.1c-0.2,4.2-0.7,8.7-1.5,13.4L172.7,330.7z M173.6,304.8c-0.7-4.4-1.7-8.6-3.4-12.3
	l3.1-1.3c1.6,4,2.9,8.4,3.5,13.1L173.6,304.8z M163.6,281.7c-2.7-3.2-5.9-5.9-9.6-8.3l1.7-2.8c4.1,2.6,7.5,5.5,10.4,8.9L163.6,281.7
	z M142.4,267.7c-4-1.6-8.3-3-12.4-4.3l1-3.1c4.2,1.4,8.5,2.7,12.6,4.4L142.4,267.7z M117.5,259c-4.6-1.8-8.6-3.6-12.3-5.6l1.6-3
	c3.5,1.9,7.3,3.6,11.8,5.4L117.5,259z M94,245.8c-2.7-2.3-5.4-4.8-7.8-7.6c-0.6-0.7-1.1-1.3-1.8-2l2.6-2.1c0.5,0.7,1.1,1.3,1.7,1.9
	c2.3,2.6,4.8,5,7.4,7.2L94,245.8z M77,225c-2.1-3.8-3.8-8.1-5.3-12.4l3.2-1.1c1.4,4.2,3.1,8.2,5.1,11.8L77,225z"/>
<path class="st3" d="M248.5,392.4l-2.1-2.6c3.5-2.8,6.8-5.6,9.9-8.6l2.2,2.4C255.5,386.6,252.1,389.6,248.5,392.4z M268,374.2
	l-2.5-2.2c3-3.2,5.8-6.6,8.4-10l2.7,2C274,367.4,271.1,370.9,268,374.2z M284.3,352.8l-2.8-1.7c2.3-3.7,4.4-7.6,6.3-11.4l3,1.5
	C288.7,345,286.6,349,284.3,352.8z M295.9,328.7l-3.1-1.2c1-2.7,1.8-5.4,2.5-8.1c0.4-1.4,0.8-3,1.1-4.4l3.2,0.8
	c-0.3,1.5-0.7,3-1.2,4.6C297.7,323.1,296.9,325.9,295.9,328.7z M298.6,302.2c0.4-4.6,0.8-9.2,0.9-13.1l3.3,0.2
	c-0.1,3.9-0.4,8.5-1,13.3L298.6,302.2z M300.2,275.9c0.4-5,1.1-9.1,2-13.3l3.2,0.8c-0.9,4-1.5,8.1-2,12.8L300.2,275.9z M309.4,250.9
	l-3.1-1.3c0.8-1.8,1.6-3.7,2.6-5.6c1.1-2.2,2.2-4.4,3.5-6.4l2.8,1.7c-1.2,2-2.4,4-3.4,6.2C310.9,247.4,310.1,249.2,309.4,250.9z
	 M322.8,228.9l-2.5-2.1c2.9-3.4,6.1-6.4,9.7-9.4l2.1,2.5C328.7,222.8,325.7,225.7,322.8,228.9z M342.8,212.4l-1.8-2.8
	c1.7-1.1,3.4-2.1,5-3.2c2-1.3,4.1-2.6,6.2-3.9l1.8,2.8c-2,1.3-4.2,2.7-6.2,4C346.1,210.3,344.5,211.4,342.8,212.4z M364.8,197.3
	l-2.2-2.5c3.4-2.9,6.2-6,8.7-9.4l2.7,2C371.3,191,368.4,194.2,364.8,197.3z M380.8,175.7l-3-1.4c1.3-3,2.4-6.1,3.3-9.3
	c0.3-1,0.6-2,0.7-3l3.2,0.8c-0.3,1.1-0.5,2.1-0.8,3.2C383.4,169.3,382.2,172.6,380.8,175.7z M383.6,149.3c0.2-4.2,0.3-8.5-0.1-13
	l3.3-0.2c0.3,4.6,0.4,9.1,0,13.4L383.6,149.3z M382.1,123.2c-0.7-4.1-1.6-8.4-2.7-12.8l3.2-0.8c1.2,4.5,2,8.9,2.7,13.1L382.1,123.2z
	 M375.7,97.8c-1.3-4-2.7-8.2-4.4-12.4l3.1-1.1c1.6,4.3,3.1,8.5,4.4,12.6L375.7,97.8z M366.5,73.2c-1.6-3.9-3.5-8-5.4-12.1l3-1.4
	c1.9,4,3.8,8.2,5.5,12.2L366.5,73.2z M355.3,49.3c-1.9-3.9-4-7.7-6.1-11.6l2.9-1.6c2.1,4,4.3,7.9,6.2,11.8L355.3,49.3z"/>
<path class="st3" d="M224.2,381.9c-0.1-2.6,0-5.1,0-7.6l3.3,0.1c0,2.5,0,5,0,7.6L224.2,381.9z M224.4,360.9c0.1-2.2,0.2-4.3,0.3-6.4
	c0.1-2.3,0.2-4.6,0.4-6.9l3.3,0.3c-0.1,2.2-0.3,4.5-0.4,6.8c-0.1,2.1-0.2,4.2-0.3,6.4L224.4,360.9z M229.4,334.7l-3.3-0.4
	c0.4-4.4,0.9-8.9,1.6-13.2l3.3,0.5C230.3,325.9,229.8,330.4,229.4,334.7z M232.9,308.6l-3.3-0.6c0.7-4.4,1.5-8.7,2.3-13.1l3.3,0.7
	C234.4,299.9,233.6,304.2,232.9,308.6z M238.1,282.7l-3.3-0.8c1-4.3,2.1-8.6,3.3-12.9l3.2,0.9C240.2,274.1,239.1,278.5,238.1,282.7z
	 M245.1,257.3l-3.2-1c1.2-3.9,2.6-8,4.1-12.6l3.2,1.1C247.6,249.5,246.3,253.4,245.1,257.3z M253.6,232.3l-3.2-1.1
	c1.4-4,2.9-8.3,4.2-12.5l3.2,1C256.5,224,255,228.3,253.6,232.3z M261.2,206.8l-3.3-0.7c0.9-4.4,1.6-8.5,2-12.9l3.3,0.4
	C263,197.9,262.3,202.3,261.2,206.8z M260.5,180.2c-0.1-4.3-0.4-8.7-0.9-13.1l3.3-0.4c0.6,4.4,0.9,9,0.9,13.4L260.5,180.2z
	 M257.4,154.2c-0.9-4.1-2.1-8.4-3.5-12.6l3.2-1c1.4,4.3,2.6,8.6,3.6,12.9L257.4,154.2z M249.2,129.4c-1.7-3.9-3.6-7.9-5.6-11.8
	l2.9-1.6c2.1,4,4,8,5.8,12.1L249.2,129.4z M237.1,106.3c-2.2-3.6-4.7-7.2-7.4-10.9l2.7-2c2.6,3.6,5.1,7.4,7.5,11.1L237.1,106.3z"/>
<path class="st3" d="M198.7,391.9c-0.8-4.3-1.6-8.8-2.3-13.1l3.3-0.6c0.7,4.4,1.5,8.7,2.3,13L198.7,391.9z M194.3,365.7
	c-0.6-4.4-1.1-8.8-1.6-13.2l3.3-0.4c0.5,4.3,1,8.8,1.6,13.1L194.3,365.7z M191.3,339.2c-0.4-4.5-0.7-8.9-0.9-13.2l3.3-0.2
	c0.2,4.4,0.6,8.6,0.9,13.1L191.3,339.2z M189.9,312.8c0-1.5-0.1-3.1-0.1-4.5c-0.1-3.1-0.2-5.9-0.3-8.8l3.3-0.2
	c0.2,2.8,0.2,5.7,0.3,8.8c0,1.5,0.1,3,0.1,4.5L189.9,312.8z M188.7,286.5c-0.2-1.6-0.4-3.1-0.6-4.7c-0.3-2.8-0.8-5.6-1.3-8.3
	l3.3-0.6c0.6,2.8,1,5.7,1.4,8.5c0.3,1.6,0.4,3.2,0.6,4.7L188.7,286.5z M180.2,248.1l3.1-1c1.4,4.2,2.7,8.5,3.8,12.8l-3.2,0.8
	C182.8,256.5,181.6,252.3,180.2,248.1z M170.1,223.8l3-1.4c2,4.1,3.9,8.1,5.5,12.2l-3.1,1.2C173.8,231.9,172.1,227.8,170.1,223.8z
	 M157.2,201l2.8-1.8c2.4,3.7,4.8,7.6,6.9,11.4l-2.9,1.6C161.8,208.5,159.6,204.7,157.2,201z"/>
</svg>
