<?xml version="1.0" encoding="utf-8"?>
<!-- Generator: Adobe Illustrator 24.3.0, SVG Export Plug-In . SVG Version: 6.00 Build 0)  -->
<svg version="1.1" id="Camada_1" xmlns="http://www.w3.org/2000/svg" xmlns:xlink="http://www.w3.org/1999/xlink" x="0px" y="0px"
	 width="400px" height="400px" viewBox="0 0 400 400" style="enable-background:new 0 0 400 400;" xml:space="preserve">
<style type="text/css">
	.st0{fill:#23B4DB;}
	.st1{fill:#39E09B;}
	.st2{fill:#28BF7B;}
	.st3{fill:#555560;}
</style>
<g>
	<g>
		<path class="st0" d="M46.3,80.5l-3.5,0.3l11.7,26.1l4.1-15.6l-5.1-11.3l-3.7,0.3l-0.2-2.6l16.3-1.3l0.2,2.6l-3.8,0.3L74,105.2
			l2.6-10c3.5-12.9-5-16.1-5.2-18.9c-0.2-2.8,1.8-5.2,4.6-5.5c0.2,0,0.3,0,0.4,0c-5.1-4.1-11.7-6.3-18.7-5.7
			c-9.2,0.8-16.9,6.1-21,13.6l9.3-0.8L46.3,80.5L46.3,80.5L46.3,80.5z"/>
		<path class="st0" d="M33.5,93.7c0.8,10.1,7.2,18.4,15.9,22.2L34.8,83.2C33.7,86.5,33.2,90,33.5,93.7z"/>
		<path class="st0" d="M81.8,76.6c0.6,2.2,0.7,4.7,0.3,7.3l0.1,0l-0.3,1.2l0,0c-0.2,0.8-0.4,1.7-0.7,2.6l-7,26.2
			c8-5.1,12.9-14.4,12.1-24.4C85.9,84.6,84.3,80.3,81.8,76.6z"/>
		<path class="st0" d="M53.8,117.3c2.6,0.6,5.4,0.8,8.2,0.6c2.7-0.2,5.3-0.8,7.7-1.8l-9.5-21.2L53.8,117.3z"/>
		<path class="st0" d="M80.4,67.4c-6.4-5.5-14.6-8.1-23.1-7.4c-8.4,0.7-16.1,4.6-21.5,11.1c-5.5,6.4-8.1,14.6-7.4,23.1
			c0.7,8.4,4.6,16.1,11.1,21.5s14.6,8.1,23.1,7.4s16.1-4.6,21.5-11.1c5.5-6.4,8.1-14.6,7.4-23.1C90.8,80.5,86.8,72.9,80.4,67.4z
			 M62.3,120.8c-16.2,1.3-30.4-10.7-31.7-26.9s10.7-30.4,26.9-31.7C73.7,60.9,87.9,73,89.2,89.1C90.6,105.3,78.5,119.5,62.3,120.8z"
			/>
	</g>
</g>
<g>
	<g>
		<path class="st0" d="M224.4,121l-2.6,1.1l15.7,16.7l-1-12.9l-6.8-7.3l-2.7,1.2l-0.8-1.9l12-5.3l0.8,1.9l-2.8,1.2l15.7,16.7
			l-0.6-8.3c-0.7-10.7-8-10.9-8.9-13c-0.9-2.1,0-4.5,2.1-5.4c0.1,0,0.2-0.1,0.3-0.1c-4.9-1.8-10.5-1.7-15.7,0.5
			c-6.8,3-11.2,9-12.4,15.8l6.9-3L224.4,121L224.4,121L224.4,121z"/>
		<path class="st0" d="M218.2,134.4c3.3,7.4,10.3,12.1,17.9,12.7l-19.6-21C216.4,128.9,217,131.7,218.2,134.4z"/>
		<path class="st0" d="M250.3,108.9c1,1.5,1.7,3.4,2.1,5.4l0.1,0l0.1,1l0,0c0.1,0.7,0.1,1.4,0.2,2.1l1.5,21.7c4.7-6,6-14.2,2.8-21.7
			C255.5,113.9,253.2,111,250.3,108.9z"/>
		<path class="st0" d="M239.7,147c2.2-0.2,4.3-0.8,6.4-1.7c2-0.9,3.8-2,5.4-3.4l-12.7-13.6L239.7,147z"/>
		<path class="st0" d="M246.9,102.2c-6.3-2.5-13.2-2.3-19.4,0.4c-6.2,2.7-11,7.7-13.5,14c-2.5,6.3-2.3,13.2,0.4,19.4
			c2.7,6.2,7.7,11,14,13.5s13.2,2.3,19.4-0.4c6.2-2.7,11-7.7,13.5-14c2.5-6.3,2.3-13.2-0.4-19.4
			C258.1,109.5,253.2,104.7,246.9,102.2z M247.1,147.5c-11.9,5.2-25.9-0.2-31.1-12.1s0.2-25.9,12.1-31.1
			c11.9-5.2,25.9,0.2,31.1,12.1C264.4,128.3,259,142.3,247.1,147.5z"/>
	</g>
</g>
<path id="path18" class="st1" d="M133.4,93.9c-1.9-1.2-4.5,0.1-4.5,2.4l-0.6,39.4c0,2,2.2,3.1,3.9,2.2l11.3-6l6.1,11.5
	c0.6,1.2,2.1,1.6,3.3,1l6.6-3.5c1.2-0.6,1.6-2.1,1-3.3l-6.1-11.5l-3.1,1.7c-1.4,0.7-2.9,0.3-3.7-0.8c-0.2-0.4-0.4-0.8-0.4-1.3
	l0.4-22L133.4,93.9z"/>
<path id="path20" class="st2" d="M148.2,86.1c0-2.3,2.6-3.6,4.5-2.4l33,21.6c1.6,1.1,1.4,3.5-0.4,4.5l-11.1,5.9l6.1,11.5
	c0.6,1.2,0.2,2.7-1,3.3l-7,3.7c-1.2,0.6-2.7,0.2-3.3-1l-6.1-11.5l3.1-1.7c1.4-0.7,1.8-2.2,1.4-3.5c-0.2-0.4-0.4-0.8-0.8-1.1
	l-18.4-12L148.2,86.1z"/>
<path id="path18_1_" class="st1" d="M258.9,38c-0.8-1.4-2.8-1.3-3.6,0.1l-12.8,24.5c-0.6,1.3,0.4,2.6,1.8,2.6l9-0.2l0.2,9.1
	c0,0.9,0.8,1.7,1.7,1.7l5.3-0.1c0.9,0,1.7-0.8,1.7-1.7l-0.2-9.1l-2.5,0.1c-1.1,0-1.9-0.7-2.1-1.7c0-0.3,0-0.6,0.1-0.9l7.1-13.7
	L258.9,38z"/>
<path id="path20_1_" class="st2" d="M270.7,37.7c0.7-1.4,2.8-1.5,3.6-0.1l13.9,23.9c0.6,1.2-0.2,2.6-1.6,2.7l-8.8,0.2l0.2,9.1
	c0,0.9-0.7,1.7-1.7,1.7l-5.6,0.1c-0.9,0-1.7-0.7-1.7-1.7l-0.2-9.1l2.5-0.1c1.1,0,1.8-0.8,2-1.8c0-0.3,0-0.6-0.2-0.9l-7.8-13.3
	L270.7,37.7z"/>
<g>
	<path class="st0" d="M53.7,181l-1.2-7.5l1.7,0.2l0.7,5.2l2.3-4.8l1.7,0.2l0.8,5.2l2.2-4.8l1.7,0.2l-3.3,6.9l-1.8-0.3l-0.8-5.2
		l-2.2,4.7L53.7,181z"/>
	<path class="st0" d="M66,181.8c-0.6-0.8-0.8-1.7-0.7-2.8c0.2-1.1,0.6-2,1.4-2.5c0.8-0.6,1.8-0.8,2.9-0.6s2,0.6,2.6,1.4
		c0.6,0.8,0.8,1.7,0.7,2.8c-0.2,1.1-0.6,1.9-1.5,2.5c-0.8,0.6-1.8,0.8-2.9,0.6C67.5,183.1,66.6,182.6,66,181.8z M68,177.7
		c-0.4,0.4-0.7,0.9-0.8,1.5c-0.1,0.7,0,1.2,0.3,1.7c0.3,0.5,0.8,0.8,1.3,0.9c0.6,0.1,1.1-0.1,1.6-0.4c0.4-0.4,0.7-0.9,0.8-1.6
		c0.1-0.7,0-1.2-0.3-1.7c-0.3-0.5-0.8-0.8-1.4-0.9C68.9,177.2,68.4,177.3,68,177.7z"/>
	<path class="st0" d="M75.4,184.1l1-7.2l3.6,0.5c0.7,0.1,1.2,0.4,1.6,0.9c0.4,0.5,0.5,1.1,0.4,1.8c-0.1,0.5-0.2,0.9-0.5,1.2
		c-0.3,0.3-0.6,0.6-1,0.7l1.2,3.1l-1.8-0.3l-1.1-2.8l-1.3-0.2l-0.4,2.6L75.4,184.1z M77.9,178.5l-0.3,1.9l1.7,0.2
		c0.2,0,0.5,0,0.6-0.2c0.2-0.2,0.3-0.4,0.3-0.7c0-0.3,0-0.5-0.1-0.7c-0.1-0.2-0.3-0.3-0.6-0.3L77.9,178.5z"/>
	<path class="st0" d="M84.4,185.4l1-7.2l3.1,0.4c1.1,0.2,2,0.6,2.6,1.4c0.6,0.8,0.8,1.7,0.7,2.8c-0.2,1.1-0.6,1.9-1.4,2.5
		c-0.8,0.6-1.8,0.8-2.9,0.6L84.4,185.4z M89.3,184.1c0.4-0.4,0.7-0.9,0.8-1.5c0.1-0.7,0-1.2-0.3-1.7c-0.3-0.5-0.8-0.7-1.4-0.8
		l-1.4-0.2l-0.6,4.5l1.4,0.2C88.3,184.5,88.9,184.4,89.3,184.1z"/>
	<path class="st0" d="M95.9,187l-1.7-0.2l1-7.2l3.6,0.5c0.7,0.1,1.2,0.4,1.6,0.9c0.4,0.5,0.5,1.1,0.4,1.8c-0.1,0.7-0.4,1.2-0.9,1.6
		c-0.5,0.4-1.1,0.5-1.8,0.4l-1.9-0.3L95.9,187z M96.5,183.1l1.7,0.2c0.2,0,0.5,0,0.6-0.2c0.2-0.2,0.3-0.4,0.3-0.7
		c0-0.3,0-0.5-0.1-0.7c-0.1-0.2-0.3-0.3-0.6-0.3l-1.7-0.2L96.5,183.1z"/>
	<path class="st0" d="M103,188.1l1-7.2l3.6,0.5c0.7,0.1,1.2,0.4,1.6,0.9c0.4,0.5,0.5,1.1,0.4,1.8c-0.1,0.5-0.2,0.9-0.5,1.2
		c-0.3,0.3-0.6,0.6-1,0.7l1.2,3.1l-1.8-0.3l-1.1-2.8l-1.3-0.2l-0.4,2.6L103,188.1z M105.6,182.5l-0.3,1.9l1.7,0.2
		c0.2,0,0.5,0,0.6-0.2c0.2-0.2,0.3-0.4,0.3-0.7c0-0.3,0-0.5-0.1-0.7c-0.1-0.2-0.3-0.3-0.6-0.3L105.6,182.5z"/>
	<path class="st0" d="M113.1,182.1l5.4,0.8l-0.2,1.4l-3.7-0.5l-0.2,1.5l3.4,0.5l-0.2,1.4l-3.4-0.5l-0.2,1.6l3.8,0.5l-0.2,1.4
		l-5.5-0.8L113.1,182.1z"/>
	<path class="st0" d="M126.1,189.2c-0.1,0.6-0.4,1.1-1,1.5c-0.6,0.3-1.3,0.5-2.1,0.3c-0.5-0.1-1-0.2-1.5-0.5
		c-0.5-0.2-0.9-0.5-1.2-0.9l1-1c0.2,0.2,0.4,0.4,0.7,0.5s0.6,0.3,1,0.3c0.4,0.1,0.7,0,0.9-0.1c0.3-0.1,0.4-0.2,0.4-0.4
		c0-0.1,0-0.3-0.2-0.4c-0.2-0.2-0.5-0.3-0.9-0.6c-0.9-0.4-1.5-0.9-1.8-1.3c-0.3-0.4-0.5-0.9-0.4-1.4c0.1-0.6,0.4-1.1,0.9-1.4
		c0.5-0.3,1.2-0.5,1.9-0.4c0.5,0.1,0.9,0.2,1.4,0.5c0.5,0.2,0.8,0.5,1.1,0.8l-1,1c-0.1-0.2-0.3-0.3-0.6-0.5
		c-0.3-0.1-0.6-0.2-0.9-0.3c-0.3,0-0.6,0-0.8,0.1s-0.3,0.2-0.4,0.4c0,0.2,0,0.3,0.2,0.5c0.2,0.2,0.5,0.3,0.9,0.6
		c0.9,0.4,1.5,0.9,1.8,1.3C126.1,188.3,126.2,188.7,126.1,189.2z"/>
	<path class="st0" d="M134.2,190.4c-0.1,0.6-0.4,1.1-1,1.5c-0.6,0.3-1.3,0.5-2.1,0.3c-0.5-0.1-1-0.2-1.5-0.5
		c-0.5-0.2-0.9-0.5-1.2-0.9l1-1c0.2,0.2,0.4,0.4,0.7,0.5c0.3,0.2,0.6,0.3,1,0.3c0.4,0.1,0.7,0,0.9-0.1c0.3-0.1,0.4-0.2,0.4-0.4
		c0-0.1,0-0.3-0.2-0.4c-0.2-0.2-0.5-0.3-0.9-0.6c-0.9-0.4-1.5-0.9-1.8-1.3c-0.3-0.4-0.5-0.9-0.4-1.4c0.1-0.6,0.4-1.1,0.9-1.4
		c0.5-0.3,1.2-0.5,1.9-0.4c0.5,0.1,0.9,0.2,1.4,0.5c0.5,0.2,0.8,0.5,1.1,0.8l-1,1c-0.1-0.2-0.3-0.3-0.6-0.5
		c-0.3-0.1-0.6-0.2-0.9-0.3c-0.3,0-0.6,0-0.8,0.1c-0.2,0.1-0.3,0.2-0.4,0.4c0,0.2,0,0.3,0.2,0.5c0.2,0.2,0.5,0.3,0.9,0.6
		c0.9,0.4,1.5,0.9,1.8,1.3C134.2,189.4,134.3,189.9,134.2,190.4z"/>
</g>
<g>
	<path class="st0" d="M235.7,21.3l-3.3-6.9l1.7-0.2l2.1,4.8l0.9-5.2l1.7-0.2l2.2,4.8l0.7-5.2l1.7-0.2l-1.3,7.5l-1.8,0.2l-2.2-4.7
		l-0.8,5.2L235.7,21.3z"/>
	<path class="st0" d="M247.7,18.7c-0.8-0.6-1.3-1.4-1.4-2.5c-0.2-1.1,0.1-2.1,0.7-2.8c0.6-0.8,1.5-1.3,2.6-1.4
		c1.1-0.2,2.1,0.1,2.9,0.6c0.8,0.6,1.3,1.4,1.4,2.5c0.2,1.1-0.1,2-0.7,2.8c-0.6,0.8-1.5,1.3-2.6,1.4
		C249.5,19.5,248.5,19.3,247.7,18.7z M248.4,14.2c-0.3,0.5-0.4,1.1-0.3,1.7c0.1,0.7,0.4,1.2,0.8,1.5c0.4,0.4,1,0.5,1.5,0.4
		c0.6-0.1,1.1-0.4,1.4-0.9c0.3-0.5,0.4-1.1,0.3-1.7c-0.1-0.7-0.4-1.2-0.8-1.6c-0.4-0.4-1-0.5-1.6-0.4
		C249.2,13.4,248.7,13.7,248.4,14.2z"/>
	<path class="st0" d="M257.3,18.3l-1-7.2l3.6-0.5c0.7-0.1,1.3,0,1.8,0.4c0.5,0.4,0.8,0.9,0.9,1.6c0.1,0.5,0,0.9-0.2,1.3
		c-0.2,0.4-0.4,0.7-0.8,0.9l2,2.6l-1.8,0.3l-1.8-2.4l-1.3,0.2l0.4,2.6L257.3,18.3z M258.2,12.2l0.3,1.9l1.7-0.2
		c0.2,0,0.4-0.2,0.6-0.3s0.2-0.4,0.1-0.7c0-0.3-0.1-0.5-0.3-0.6c-0.2-0.1-0.4-0.2-0.6-0.2L258.2,12.2z"/>
	<path class="st0" d="M266.4,17l-1-7.2l3.1-0.4c1.1-0.2,2.1,0.1,2.9,0.6c0.8,0.6,1.3,1.4,1.4,2.5c0.1,1.1-0.1,2-0.7,2.8
		c-0.6,0.8-1.5,1.2-2.6,1.4L266.4,17z M270.7,14.4c0.3-0.5,0.4-1,0.3-1.7c-0.1-0.7-0.4-1.2-0.8-1.5c-0.4-0.4-1-0.5-1.6-0.4l-1.4,0.2
		l0.6,4.5l1.4-0.2C269.9,15.1,270.4,14.9,270.7,14.4z"/>
	<path class="st0" d="M277.9,15.4l-1.7,0.2l-1-7.2l3.6-0.5c0.7-0.1,1.3,0,1.8,0.4c0.5,0.4,0.8,0.9,0.9,1.6c0.1,0.7,0,1.3-0.4,1.8
		c-0.4,0.5-0.9,0.8-1.6,0.9l-1.9,0.3L277.9,15.4z M277.3,11.4l1.7-0.2c0.2,0,0.4-0.2,0.6-0.3c0.1-0.2,0.2-0.4,0.1-0.7
		c0-0.3-0.1-0.5-0.3-0.6c-0.2-0.1-0.4-0.2-0.6-0.2l-1.7,0.2L277.3,11.4z"/>
	<path class="st0" d="M285,14.4l-1-7.2l3.6-0.5c0.7-0.1,1.3,0,1.8,0.4c0.5,0.4,0.8,0.9,0.9,1.6c0.1,0.5,0,0.9-0.2,1.3
		c-0.2,0.4-0.4,0.7-0.8,0.9l2,2.6l-1.8,0.3l-1.8-2.4l-1.3,0.2l0.4,2.6L285,14.4z M285.9,8.3l0.3,1.9l1.7-0.2c0.2,0,0.4-0.2,0.6-0.3
		c0.1-0.2,0.2-0.4,0.1-0.7c0-0.3-0.1-0.5-0.3-0.6c-0.2-0.1-0.4-0.2-0.6-0.2L285.9,8.3z"/>
	<path class="st0" d="M293,5.9l5.4-0.8l0.2,1.4l-3.7,0.5l0.2,1.5l3.4-0.5l0.2,1.4l-3.4,0.5l0.2,1.6l3.8-0.5l0.2,1.4l-5.5,0.8
		L293,5.9z"/>
	<path class="st0" d="M307.5,9.1c0.1,0.6-0.1,1.2-0.6,1.7c-0.5,0.5-1.1,0.8-1.9,0.9c-0.5,0.1-1,0.1-1.6,0c-0.5-0.1-1-0.3-1.4-0.5
		l0.7-1.2c0.2,0.1,0.5,0.2,0.9,0.3c0.3,0.1,0.7,0.1,1,0c0.4-0.1,0.7-0.2,0.9-0.3c0.2-0.2,0.3-0.3,0.3-0.5c0-0.1-0.1-0.3-0.3-0.4
		c-0.2-0.1-0.5-0.2-1-0.3c-1-0.2-1.7-0.4-2.1-0.7c-0.4-0.3-0.7-0.7-0.8-1.3c-0.1-0.6,0.1-1.2,0.5-1.7c0.4-0.5,1-0.8,1.8-0.9
		c0.5-0.1,1-0.1,1.5,0c0.5,0.1,0.9,0.3,1.2,0.5L305.9,6c-0.2-0.1-0.4-0.2-0.7-0.3c-0.3-0.1-0.6-0.1-0.9,0c-0.3,0-0.6,0.1-0.8,0.3
		c-0.2,0.1-0.3,0.3-0.2,0.5c0,0.2,0.1,0.3,0.3,0.4c0.2,0.1,0.5,0.2,1,0.3c1,0.2,1.7,0.4,2.1,0.7C307.2,8.2,307.4,8.6,307.5,9.1z"/>
	<path class="st0" d="M315.6,8c0.1,0.6-0.1,1.2-0.6,1.7c-0.5,0.5-1.1,0.8-1.9,0.9c-0.5,0.1-1,0.1-1.6,0c-0.5-0.1-1-0.3-1.4-0.5
		l0.7-1.2c0.2,0.1,0.5,0.2,0.9,0.3c0.3,0.1,0.7,0.1,1,0c0.4-0.1,0.7-0.2,0.9-0.3c0.2-0.2,0.3-0.3,0.3-0.5c0-0.1-0.1-0.3-0.3-0.4
		c-0.2-0.1-0.5-0.2-1-0.3c-1-0.2-1.7-0.4-2.1-0.7c-0.4-0.3-0.7-0.7-0.8-1.3c-0.1-0.6,0.1-1.2,0.5-1.7c0.4-0.5,1-0.8,1.8-0.9
		c0.5-0.1,1-0.1,1.5,0c0.5,0.1,0.9,0.3,1.2,0.5L314,4.9c-0.2-0.1-0.4-0.2-0.7-0.3c-0.3-0.1-0.6-0.1-0.9,0c-0.3,0-0.6,0.1-0.8,0.3
		c-0.2,0.1-0.3,0.3-0.2,0.5c0,0.2,0.1,0.3,0.3,0.4c0.2,0.1,0.5,0.2,1,0.3c1,0.2,1.7,0.4,2.1,0.7C315.3,7.1,315.5,7.5,315.6,8z"/>
</g>
<g>
	<path class="st1" d="M118.7,55l0.3-7.3l1.7,0.1l-0.2,5.9l3.6,0.1l-0.1,1.4L118.7,55z"/>
	<path class="st1" d="M128.5,55.4l-1.7-0.1l0.3-7.3l1.7,0.1L128.5,55.4z"/>
	<path class="st1" d="M136.7,55.8l-3.3-4.8l-0.2,4.6l-1.6-0.1l0.3-7.3l1.6,0.1l3.3,4.7l0.2-4.6l1.6,0.1l-0.3,7.3L136.7,55.8z"/>
	<path class="st1" d="M146.3,56.2l-2.1-3.3l-0.9,0.8l-0.1,2.4l-1.7-0.1l0.3-7.3l1.7,0.1l-0.1,2.7l2.8-2.6l2.2,0.1l-3,2.8l2.9,4.5
		L146.3,56.2z"/>
	<path class="st1" d="M150.9,49l6.6,0.3l-0.1,1.4l-2.5-0.1l-0.2,5.9l-1.7-0.1l0.2-5.9l-2.5-0.1L150.9,49z"/>
	<path class="st1" d="M159.9,56.7l0.3-7.3l3.6,0.1c0.7,0,1.3,0.3,1.7,0.7c0.4,0.4,0.6,1,0.6,1.7c0,0.5-0.1,0.9-0.4,1.2
		c-0.2,0.4-0.5,0.6-0.9,0.8l1.5,2.9l-1.8-0.1l-1.4-2.7l-1.4-0.1l-0.1,2.6L159.9,56.7z M161.8,50.9l-0.1,1.9l1.7,0.1
		c0.3,0,0.5-0.1,0.6-0.2c0.2-0.2,0.3-0.4,0.3-0.7c0-0.3-0.1-0.5-0.2-0.7c-0.1-0.2-0.4-0.3-0.6-0.3L161.8,50.9z"/>
	<path class="st1" d="M169.3,49.8l5.4,0.2l-0.1,1.4l-3.7-0.2l-0.1,1.5l3.4,0.1l-0.1,1.4l-3.4-0.1l-0.1,1.6l3.8,0.2l-0.1,1.4
		l-5.5-0.2L169.3,49.8z"/>
	<path class="st1" d="M177.8,50.1l5.4,0.2l-0.1,1.4l-3.7-0.2l-0.1,1.5l3.4,0.1l-0.1,1.4l-3.4-0.1l-0.1,1.6l3.8,0.2l-0.1,1.4
		l-5.5-0.2L177.8,50.1z"/>
</g>
<g>
	<path class="st1" d="M247.8,187.7l-3.5-6.4l1.5-0.8l2.9,5.2l3.2-1.7l0.7,1.2L247.8,187.7z"/>
	<path class="st1" d="M256.4,183l-1.5,0.8l-3.5-6.4l1.5-0.8L256.4,183z"/>
	<path class="st1" d="M263.6,179l-5.3-2.4l2.2,4.1l-1.4,0.8l-3.5-6.4l1.4-0.8l5.2,2.3l-2.2-4l1.4-0.8l3.5,6.4L263.6,179z"/>
	<path class="st1" d="M272,174.3l-3.5-1.7l-0.3,1.2l1.1,2.1l-1.5,0.8l-3.5-6.4l1.5-0.8l1.3,2.4l1-3.7l1.9-1.1l-1.1,3.9l4.8,2.4
		L272,174.3z"/>
	<path class="st1" d="M272.2,165.9l5.8-3.2l0.7,1.2l-2.2,1.2l2.9,5.2l-1.5,0.8l-2.9-5.2l-2.2,1.2L272.2,165.9z"/>
	<path class="st1" d="M283.9,167.8l-3.5-6.4l3.1-1.7c0.6-0.3,1.2-0.4,1.8-0.3c0.6,0.2,1.1,0.5,1.4,1.2c0.2,0.4,0.3,0.8,0.3,1.3
		c0,0.4-0.1,0.8-0.4,1.2l2.8,1.7l-1.6,0.9l-2.6-1.6l-1.2,0.7l1.3,2.3L283.9,167.8z M282.5,161.8l0.9,1.6l1.5-0.8
		c0.2-0.1,0.4-0.3,0.4-0.5c0.1-0.2,0-0.5-0.1-0.7c-0.1-0.3-0.3-0.4-0.5-0.5c-0.2-0.1-0.4,0-0.7,0.1L282.5,161.8z"/>
	<path class="st1" d="M288.4,157l4.8-2.6l0.7,1.2l-3.3,1.8l0.7,1.3l3-1.6l0.7,1.2l-3,1.6l0.8,1.4l3.4-1.9l0.7,1.2l-4.9,2.7
		L288.4,157z"/>
	<path class="st1" d="M295.8,152.9l4.8-2.6l0.7,1.2l-3.3,1.8l0.7,1.3l3-1.6l0.7,1.2l-3,1.6l0.8,1.4l3.4-1.9l0.7,1.2l-4.9,2.7
		L295.8,152.9z"/>
</g>
<g>
	<path class="st3" d="M26.7,146.3l-2.9-1.7c1.1-1.9,2.3-3.8,3.5-5.7l2.8,1.8C29,142.6,27.8,144.4,26.7,146.3z"/>
	<path class="st3" d="M201,352.1c-3.4-2.7-6.9-5.4-10.5-7.8l1.9-2.7c3.6,2.5,7.2,5.2,10.7,8L201,352.1z M179.5,337.3
		c-3.8-2.2-7.6-4.3-11.5-6.2l1.4-3c4,1.9,7.9,4,11.7,6.3L179.5,337.3z M156,325.9c-3-1.2-6.1-2.3-9.1-3.2c-1.1-0.3-2.2-0.7-3.2-1
		l0.9-3.2c1.1,0.3,2.2,0.7,3.3,1c3.1,1,6.3,2.1,9.3,3.3L156,325.9z M131,318.4c-4.3-0.9-8.5-1.5-12.9-2l0.4-3.3
		c4.5,0.5,8.8,1.2,13.2,2.1L131,318.4z M105.1,315.5c-2.9-0.1-5.9-0.2-9.6-0.2c-1.2,0-2.4,0-3.6,0l0-3.3c1.2,0,2.4,0,3.6,0
		c3.7,0,6.7,0,9.7,0.2L105.1,315.5z M78.7,315.3c-5.3-0.1-9.5-0.4-13.4-0.9l0.5-3.3c3.7,0.5,7.8,0.8,13,0.9L78.7,315.3z M52.2,311.1
		c-4.2-1.6-8.1-3.7-12-6.4l1.9-2.7c3.6,2.5,7.3,4.5,11.2,6L52.2,311.1z M30.1,295.8c-3-3.2-5.8-6.8-8.3-10.6l2.8-1.8
		c2.4,3.7,5,7.1,7.9,10.2L30.1,295.8z M15.4,273.4c-1.8-3.9-3.3-8.2-4.7-12.6l3.2-1c1.3,4.3,2.8,8.4,4.5,12.2L15.4,273.4z
		 M7.5,247.8c-0.8-4.2-1.5-8.7-2-13.2l3.3-0.4c0.5,4.4,1.1,8.8,1.9,12.9L7.5,247.8z M4.6,221.3c-0.1-1.8-0.1-3.6-0.1-5.5
		c0-0.8,0-1.5,0-2.1c0-1.9,0.1-3.9,0.2-5.8l3.3,0.2c-0.1,1.9-0.1,3.7-0.2,5.6c0,0.6,0,1.3,0,2.1c0,1.9,0,3.6,0.1,5.4L4.6,221.3z
		 M9.3,195.2L6,194.7c0.7-4.4,1.5-8.8,2.6-13.1l3.2,0.8C10.8,186.6,10,190.9,9.3,195.2z M15.7,169.9l-3.1-1.1
		c1.5-4.2,3.2-8.3,5.1-12.3l3,1.4C18.8,161.8,17.2,165.9,15.7,169.9z"/>
	<path class="st3" d="M215.7,365.2c-1.6-1.5-3.2-3.1-4.8-4.5l2.2-2.4c1.6,1.5,3.2,3,4.8,4.6L215.7,365.2z"/>
</g>
<path class="st3" d="M250.5,387.4l-3.3-0.4c0.4-3.3,0.7-6.6,0.9-9.8l3.3,0.2C251.2,380.7,250.9,384,250.5,387.4z M252.1,364.2
	l-3.3-0.1c0-1.5,0-2.9,0-4.3c0-3-0.1-6-0.2-8.8l3.3-0.2c0.1,2.9,0.2,5.9,0.2,8.9C252.1,361.2,252.1,362.7,252.1,364.2z M247.4,338
	c-0.6-4.5-1.5-8.8-2.6-12.7l3.2-0.9c1.1,4.1,2,8.5,2.7,13.2L247.4,338z M240.3,313.1c-2-4-4.3-7.6-7-10.7l2.5-2.2
	c2.8,3.3,5.3,7.1,7.4,11.4L240.3,313.1z M223.7,294.2c-3.5-2.2-7.4-3.8-11.7-4.9l0.8-3.2c4.7,1.2,8.8,2.9,12.6,5.3L223.7,294.2z
	 M199.2,287.4c-4.3-0.3-8.8-0.3-13.1-0.3l0-3.3c4.4,0,8.9,0,13.3,0.3L199.2,287.4z M172.8,286.8c-4.9-0.3-9.3-0.8-13.4-1.5l0.6-3.3
	c3.9,0.7,8.1,1.2,12.9,1.5L172.8,286.8z M146.4,281.5c-3.3-1.3-6.6-2.9-9.8-4.8c-0.8-0.5-1.5-0.9-2.3-1.4l1.8-2.8
	c0.7,0.5,1.4,0.9,2.2,1.3c3,1.8,6.1,3.3,9.3,4.6L146.4,281.5z M123.8,266.9c-3.2-3-6.1-6.5-8.9-10.2l2.7-2c2.6,3.6,5.5,6.8,8.5,9.7
	L123.8,266.9z M107.7,245.4c-2.1-3.8-4-7.9-5.7-12.1l3.1-1.2c1.7,4.2,3.5,8.1,5.5,11.8L107.7,245.4z M97.6,220.6
	c-1.2-4.1-2.4-8.4-3.3-12.9l3.2-0.7c1,4.4,2.1,8.7,3.3,12.7L97.6,220.6z"/>
<path class="st3" d="M327.1,386.9l-2.7-2c2.6-3.6,5.1-7.2,7.3-10.9l2.8,1.7C332.3,379.5,329.8,383.3,327.1,386.9z M341.1,364.2
	l-3-1.5c2-3.9,3.8-7.9,5.4-11.9l3.1,1.2C345.1,356.1,343.2,360.2,341.1,364.2z M351.1,339.3l-3.2-0.9c1.2-4.2,2.2-8.5,3-12.7
	l3.3,0.6C353.3,330.6,352.3,335,351.1,339.3z M355.9,313l-3.3-0.3c0.2-2.9,0.3-5.7,0.3-8.5c0-1.5,0-3.1-0.1-4.5l3.3-0.1
	c0.1,1.5,0.1,3.1,0.1,4.7C356.2,307.1,356.1,310,355.9,313z M351.5,286.7c-0.8-4.6-1.7-9.1-2.6-12.9l3.2-0.7
	c0.9,3.8,1.9,8.3,2.6,13.1L351.5,286.7z M346,260.9c-0.9-4.9-1.4-9.1-1.6-13.4l3.3-0.1c0.2,4.1,0.7,8.2,1.5,12.9L346,260.9z
	 M348.3,234.4L345,234c0.3-2,0.6-4,1-6.1c0.5-2.4,1-4.8,1.7-7.1l3.2,0.9c-0.6,2.2-1.2,4.5-1.6,6.9
	C348.8,230.6,348.5,232.5,348.3,234.4z M355.4,209.6l-3-1.4c1.9-4,4.2-7.8,6.9-11.6l2.7,1.9C359.4,202.2,357.3,205.8,355.4,209.6z
	 M370.3,188.4l-2.5-2.2c1.3-1.5,2.7-2.9,4-4.4c1.6-1.8,3.3-3.6,4.9-5.4l2.5,2.2c-1.6,1.8-3.3,3.7-4.9,5.5
	C372.9,185.5,371.6,187,370.3,188.4z M387.5,168l-2.8-1.8c2.5-3.7,4.4-7.4,5.9-11.4l3.1,1.2C392.1,160.2,390.1,164.1,387.5,168z
	 M397.2,142.9l-3.3-0.5c0.5-3.2,0.7-6.5,0.7-9.8c0-1,0-2.1-0.1-3.1l3.3-0.1c0,1.1,0.1,2.2,0.1,3.3
	C398,136.1,397.7,139.6,397.2,142.9z M392.9,116.7c-0.9-4.1-2-8.3-3.5-12.5l3.1-1.1c1.5,4.4,2.8,8.7,3.6,12.9L392.9,116.7z
	 M384.5,92c-1.8-3.8-3.8-7.7-6-11.6l2.9-1.6c2.3,4,4.3,8,6.1,11.9L384.5,92z M371.6,69.2c-2.3-3.5-4.8-7.2-7.5-10.8l2.7-1.9
	c2.7,3.7,5.2,7.4,7.6,11L371.6,69.2z M356.2,47.9c-2.6-3.3-5.5-6.8-8.4-10.2l2.5-2.1c2.9,3.4,5.8,6.9,8.5,10.3L356.2,47.9z
	 M339.1,27.8c-2.9-3.2-5.9-6.4-9-9.6l2.4-2.3c3.1,3.3,6.2,6.5,9.1,9.7L339.1,27.8z"/>
<path class="st3" d="M301.1,370.6c-0.2-2.6-0.3-5.1-0.4-7.6l3.3-0.1c0.1,2.5,0.2,5,0.4,7.6L301.1,370.6z M300.3,349.7
	c0-2.2,0-4.3,0-6.4c0-2.3,0-4.6,0.1-6.9l3.3,0.1c0,2.2-0.1,4.5-0.1,6.8c0,2.1,0,4.2,0,6.4L300.3,349.7z M304,323.2l-3.3-0.2
	c0.2-4.4,0.5-8.9,0.9-13.3l3.3,0.3C304.5,314.4,304.2,318.9,304,323.2z M306.2,297l-3.3-0.4c0.5-4.4,1.1-8.8,1.7-13.2l3.3,0.5
	C307.3,288.2,306.7,292.6,306.2,297z M310.1,270.9l-3.3-0.6c0.8-4.3,1.7-8.7,2.7-13l3.2,0.7C311.8,262.2,310.9,266.6,310.1,270.9z
	 M315.9,245.2l-3.2-0.8c1-4,2.2-8.1,3.5-12.8l3.2,0.9C318,237.2,316.9,241.2,315.9,245.2z M323.1,219.8l-3.2-0.9
	c1.2-4.1,2.5-8.4,3.6-12.7l3.2,0.8C325.6,211.3,324.3,215.7,323.1,219.8z M329.5,193.9l-3.3-0.5c0.7-4.4,1.2-8.6,1.4-13l3.3,0.2
	C330.8,185,330.3,189.4,329.5,193.9z M327.5,167.4c-0.3-4.3-0.8-8.7-1.5-13l3.3-0.6c0.8,4.4,1.3,8.9,1.6,13.3L327.5,167.4z
	 M323.1,141.6c-1.1-4.1-2.5-8.3-4.1-12.4l3.1-1.2c1.6,4.2,3,8.5,4.2,12.7L323.1,141.6z M313.7,117.2c-1.9-3.8-4-7.7-6.2-11.5
	l2.8-1.7c2.3,3.9,4.4,7.8,6.4,11.8L313.7,117.2z M300.4,94.7c-2.4-3.5-5.1-7-7.9-10.5l2.6-2.1c2.8,3.5,5.5,7.1,8,10.7L300.4,94.7z"
	/>
<path class="st3" d="M274.8,394.5c-0.2-4.4-0.4-8.8-0.7-13.2l3.3-0.2c0.3,4.4,0.5,8.9,0.7,13.3L274.8,394.5z M273.1,368.1
	c-0.4-4.3-0.9-8.8-1.4-13.1l3.3-0.4c0.5,4.4,1,8.8,1.4,13.2L273.1,368.1z M270,341.9c-0.7-4.5-1.3-8.7-2.1-13l3.3-0.6
	c0.8,4.3,1.5,8.6,2.1,13.1L270,341.9z M265.4,315.9c-0.3-1.5-0.6-2.9-0.9-4.4c-0.6-3-1.2-5.8-1.7-8.6l3.3-0.6
	c0.5,2.8,1.1,5.6,1.7,8.6c0.3,1.4,0.6,2.9,0.9,4.4L265.4,315.9z M260.6,289.8c-0.2-1.5-0.4-3.1-0.5-4.7c-0.3-2.8-0.5-5.7-0.6-8.6
	l3.3-0.2c0.1,2.8,0.3,5.6,0.6,8.4c0.2,1.6,0.3,3.1,0.5,4.7L260.6,289.8z M262.6,263.2l-3.3-0.1c0.1-4.4,0.4-8.9,0.8-13.3l3.3,0.3
	C263,254.5,262.8,258.9,262.6,263.2z M265.2,237.1l-3.3-0.5c0.7-4.3,1.6-8.7,2.6-13.1l3.2,0.7C266.7,228.5,265.9,232.9,265.2,237.1z
	 M271.1,211.5l-3.2-0.9c1.2-4.2,2.6-8.5,4.1-12.7l3.1,1.1C273.6,203.2,272.3,207.4,271.1,211.5z"/>
</svg>
