<?xml version="1.0" encoding="utf-8"?>
<!-- Generator: Adobe Illustrator 24.3.0, SVG Export Plug-In . SVG Version: 6.00 Build 0)  -->
<svg version="1.1" id="Camada_1" xmlns="http://www.w3.org/2000/svg" xmlns:xlink="http://www.w3.org/1999/xlink" x="0px" y="0px"
	 width="500px" height="400px" viewBox="0 0 500 400" style="enable-background:new 0 0 500 400;" xml:space="preserve">
<style type="text/css">
	.st0{fill:#26262D;}
</style>
<polygon class="st0" points="214.1,75.9 210,89.1 223.2,93.1 227.3,79.9 "/>
<polygon class="st0" points="223.9,41.9 219.3,55.7 287.6,76.4 281.1,96.2 240.4,84.1 237.1,97.7 290.2,114.1 315.6,32.5 
	247.4,12.5 244,25.5 297.3,42.4 291.6,62.7 "/>
<polygon class="st0" points="258,171.1 262.6,157.4 208.8,141.1 214.5,120.8 282.9,141.5 286.3,127.9 204.8,103.1 180.6,184.4 
	234.4,200.6 239.2,187.3 197.8,174.8 204.8,154.3 "/>
<polygon class="st0" points="262.1,209.1 248.9,205 252.9,191.3 266,195.4 "/>
<polygon class="st0" points="169.6,269.8 175.4,249.6 216,261.6 220.7,248.5 179.2,235.9 186.2,215.4 239.6,232.2 243.6,218.5 
	176.5,197.6 151.1,279.2 232.6,303.9 236.7,290.7 "/>
<polygon class="st0" points="243.7,270.2 229.3,266.4 234.5,252.4 247.6,256.5 "/>
<polygon class="st0" points="405.7,75.3 409.8,62.1 396.6,58 392.5,71.2 "/>
<polygon class="st0" points="396,109.3 400,95.6 331.6,74.9 338.6,54.4 378.8,67.1 382.9,53.4 329.6,37.1 304.1,118.6 371.7,138.8 
	375.9,125.7 322.6,108.8 327.6,88.6 "/>
<polygon class="st0" points="353.4,200 357.3,186.8 303.5,170 309.2,149.6 377.5,170.4 381.5,156.7 300.1,131.8 275.9,213.2 
	329.2,230.1 333.2,216.3 293.1,204.1 298.9,183.9 "/>
<polygon class="st0" points="357.3,237.9 342.9,234.1 347.6,220.2 361.3,224.2 "/>
<polygon class="st0" points="334.9,261 329.1,281.2 287.9,269.3 283.8,282.5 324.4,295.1 318.2,315.5 264.8,298.7 259.6,312.6 
	327.9,333.3 352.2,252 271.9,226.9 267.2,240.2 "/>
<polygon class="st0" points="260.8,260.6 274.1,265.3 270.6,278.4 257.5,274.2 "/>
<polygon class="st0" points="443.3,294.5 447.3,280.7 433.6,276.7 430.2,290.4 "/>
<polygon class="st0" points="432.9,328.1 437.5,314.8 369.3,294 375.6,273.7 416.4,285.9 420.4,272.7 365.9,256 341.1,337.4 
	409.4,358.1 413.4,344.4 358.8,327.7 365.8,307.1 "/>
<polygon class="st0" points="448.7,229.3 452,215.7 398.7,198.7 404.4,178.4 472.7,199.2 476.8,186 394.8,161.4 370.5,242 
	424.4,258.8 428.5,245.7 387.7,233 394,212.6 "/>
<polygon class="st0" points="451.5,267.6 437.5,263 441.7,249.8 456,253.8 "/>
<polygon class="st0" points="413.2,100.2 427,104.2 422.9,117.4 409.7,113.3 "/>
<g>
	<g>
		<g>
			<polygon class="st0" points="146.2,55.4 140.9,53.8 139.3,59 144.6,60.6 			"/>
			<polygon class="st0" points="159.7,59.2 154.2,57.4 146.1,84.6 138.2,82 143,65.9 137.5,64.5 131.1,85.7 163.6,95.7 171.5,68.6 
				166.3,67.2 159.6,88.4 151.5,86.2 			"/>
			<polygon class="st0" points="108.4,73 113.8,74.8 120.2,53.4 128.3,55.6 120.2,82.8 125.6,84.2 135.4,51.7 103,42.2 96.6,63.6 
				101.9,65.5 106.8,49 115,51.8 			"/>
			<polygon class="st0" points="93.2,74.6 94.9,69.4 100.3,71 98.7,76.2 			"/>
			<polygon class="st0" points="69,37.9 77,40.2 72.3,56.4 77.5,58.3 82.5,41.7 90.7,44.5 84,65.8 89.5,67.3 97.7,40.6 65.2,30.6 
				55.5,63 60.7,64.6 			"/>
			<polygon class="st0" points="68.9,67.4 70.4,61.7 76,63.7 74.4,69 			"/>
			<polygon class="st0" points="146.7,131.6 151.9,133.2 153.6,128 148.3,126.4 			"/>
			<polygon class="st0" points="133.1,127.8 138.6,129.3 146.7,102.1 154.9,104.9 149.9,120.9 155.4,122.5 161.8,101.2 129.3,91.3 
				121.4,118.2 126.6,119.8 133.2,98.6 141.3,100.6 			"/>
			<polygon class="st0" points="97,111 102.3,112.5 108.9,91.1 117,93.3 108.8,120.5 114.3,122.1 124.1,89.7 91.7,80.1 85,101.4 
				90.5,103 95.3,87 103.3,89.3 			"/>
			<polygon class="st0" points="81.9,112.6 83.4,106.8 89,108.7 87.4,114.1 			"/>
			<polygon class="st0" points="72.7,103.7 64.6,101.4 69.4,85 64.1,83.4 59.1,99.6 51,97.1 57.6,75.8 52.1,73.8 43.9,101 
				76.3,110.5 86.2,78.6 80.9,76.7 			"/>
			<polygon class="st0" points="72.8,74.2 70.9,79.5 65.7,78.1 67.3,72.9 			"/>
			<polygon class="st0" points="48.2,184.6 53.6,186.1 55.2,180.7 49.8,179.3 			"/>
			<polygon class="st0" points="34.6,180.5 40.1,182 48.3,155.3 56.3,157.6 51.4,174.1 56.9,175.7 63.4,153.7 31,144.2 22.9,171.4 
				28.3,173 34.6,151 42.8,153.8 			"/>
			<polygon class="st0" points="85.9,166.5 80.7,164.8 74,186.3 66,184.1 74.2,157.3 68.6,155.3 58.9,187.7 91.4,197.5 98,176 
				92.4,174.2 87.6,190.4 79.6,188.1 			"/>
			<polygon class="st0" points="101.1,165.3 99.5,170.5 94.1,169.2 95.9,163.7 			"/>
			<polygon class="st0" points="110.3,173.7 118.3,176.2 113.6,192.4 118.8,194.1 123.8,177.8 131.9,180.3 125.3,201.7 130.9,203.6 
				139,176.4 106.6,166.9 96.8,199.1 102.1,200.7 			"/>
			<polygon class="st0" points="110.2,203.2 112,197.9 117.3,199.5 115.7,204.8 			"/>
			<polygon class="st0" points="59.5,146.9 65,148.4 66.6,143 61.2,141.6 			"/>
			<polygon class="st0" points="46.2,142.8 51.5,144.6 59.6,117.4 67.7,119.9 62.9,136.1 68.2,137.7 74.8,116 42.3,106.2 
				34.2,133.5 39.7,135 46.2,113.3 54.4,116 			"/>
			<polygon class="st0" points="85.5,148.9 90.9,150.2 97.6,129 105.7,131.2 97.5,158.4 102.7,160 112.4,127.4 80.3,117.8 
				73.7,139.3 78.9,140.9 83.9,124.6 92.1,127.1 			"/>
			<polygon class="st0" points="70.3,150.1 72.1,144.5 77.3,146.1 75.8,151.9 			"/>
			<polygon class="st0" points="136.7,164.1 128.9,161.8 133.6,145.3 128.1,143.8 123.4,160 115.2,157.5 121.9,136.2 116.4,134.4 
				108.2,161.4 140.6,171.1 150.4,138.9 144.9,137.1 			"/>
			<polygon class="st0" points="136.8,134.6 135.2,140.1 130,138.5 131.6,133.2 			"/>
		</g>
	</g>
</g>
<g>
	<g>
		<g>
			<polygon class="st0" points="248.6,377.8 249.3,375.3 246.8,374.6 246.1,377.1 			"/>
			<polygon class="st0" points="247,384.2 247.7,381.5 234.9,378.1 236,374.4 243.6,376.4 244.2,373.8 234.2,371.1 229.9,386.4 
				242.7,389.8 243.3,387.3 233.3,384.5 234.2,380.7 			"/>
			<polygon class="st0" points="239.8,360.3 239.1,362.9 249.2,365.6 248.2,369.4 235.4,365.9 234.8,368.5 250.1,372.6 254.2,357.3 
				244,354.6 243.2,357.1 251,359.2 249.9,363.1 			"/>
			<polygon class="st0" points="238.8,353.2 241.3,353.9 240.7,356.5 238.2,355.8 			"/>
			<polygon class="st0" points="255.7,341.4 254.8,345.2 247.1,343.2 246.3,345.6 254.1,347.7 252.9,351.6 242.9,348.8 242.2,351.4 
				254.9,354.9 259.1,339.5 243.8,335.4 243.1,337.9 			"/>
			<polygon class="st0" points="241.9,341.7 244.6,342.3 243.7,345 241.3,344.3 			"/>
			<polygon class="st0" points="212.9,379 212.2,381.5 214.7,382.2 215.4,379.7 			"/>
			<polygon class="st0" points="214.5,372.6 213.8,375.2 226.7,378.6 225.5,382.5 218,380.4 217.3,383 227.3,385.7 231.5,370.3 
				218.8,367 218.1,369.4 228.2,372.3 227.3,376.1 			"/>
			<polygon class="st0" points="221.9,355.5 221.2,357.9 231.4,360.7 230.4,364.6 217.6,361.1 216.9,363.7 232.2,367.8 236.3,352.5 
				226.2,349.7 225.5,352.3 233.1,354.3 232.1,358.1 			"/>
			<polygon class="st0" points="220.9,348.4 223.6,349 222.9,351.7 220.3,351 			"/>
			<polygon class="st0" points="225,344 225.9,340.2 233.7,342.2 234.4,339.7 226.7,337.6 227.8,333.7 237.8,336.5 238.7,333.9 
				225.8,330.5 221.8,345.8 236.9,350 237.7,347.5 			"/>
			<polygon class="st0" points="238.8,343.6 236.3,342.8 236.8,340.4 239.3,341.1 			"/>
			<polygon class="st0" points="186.8,333.6 186.1,336.1 188.7,336.8 189.2,334.3 			"/>
			<polygon class="st0" points="188.5,327.1 187.8,329.7 200.4,333.2 199.5,337 191.7,334.9 191,337.5 201.4,340.3 205.5,325 
				192.6,321.6 191.9,324.1 202.3,326.8 201.1,330.6 			"/>
			<polygon class="st0" points="195.7,351 196.4,348.5 186.3,345.7 187.2,341.9 199.9,345.4 200.7,342.8 185.4,338.6 181.3,354 
				191.4,356.8 192.2,354.2 184.5,352.1 185.5,348.3 			"/>
			<polygon class="st0" points="196.5,358.1 194,357.4 194.6,354.9 197.2,355.6 			"/>
			<polygon class="st0" points="192.7,362.5 191.6,366.3 183.9,364.3 183.3,366.8 190.9,368.9 189.9,372.8 179.7,369.9 179,372.6 
				191.8,376 195.8,360.7 180.6,356.6 179.9,359 			"/>
			<polygon class="st0" points="178.9,362.9 181.4,363.7 180.7,366.1 178.2,365.5 			"/>
			<polygon class="st0" points="204.6,338.4 203.9,341 206.5,341.6 207,339.1 			"/>
			<polygon class="st0" points="206.3,332.1 205.5,334.6 218.4,338 217.3,341.9 209.6,339.8 209,342.3 219.2,345.1 223.4,329.8 
				210.5,326.3 209.8,328.9 220.1,331.7 218.9,335.6 			"/>
			<polygon class="st0" points="204,350.6 203.4,353.1 213.5,356 212.5,359.8 199.7,356.3 199,358.8 214.4,362.9 218.4,347.7 
				208.3,344.9 207.6,347.4 215.3,349.5 214.2,353.4 			"/>
			<polygon class="st0" points="203.2,343.5 205.8,344.2 205.1,346.7 202.4,346.1 			"/>
			<polygon class="st0" points="197.5,374.8 198.5,371.1 206.3,373.1 206.9,370.5 199.3,368.5 200.3,364.6 210.4,367.4 211.2,364.8 
				198.4,361.4 194.3,376.7 209.5,380.9 210.3,378.2 			"/>
			<polygon class="st0" points="211.3,374.4 208.7,373.7 209.4,371.3 211.9,371.9 			"/>
		</g>
	</g>
</g>
<polygon class="st0" points="500,193.3 490,190.1 485.9,203.3 499.8,207.8 500,206.9 "/>
<polygon class="st0" points="500,156.2 494,176.4 500,178.3 "/>
<g>
	<polygon class="st0" points="500,230.5 492.8,228.3 488.7,241.5 500,245.1 	"/>
	<polygon class="st0" points="500,267.1 469.8,257.6 464.6,271.7 500,282.5 	"/>
</g>
<polygon class="st0" points="500,370.6 453.5,357.1 460.5,336.6 500,348.9 500,333.9 464.5,322.8 470.2,302.7 500,311.7 500,296.7 
	460.5,284.9 436.3,366.2 500,385.4 "/>
<polygon class="st0" points="500,89.3 424.1,66 419.6,79.9 487.2,100.6 481.4,120.4 440.1,108.4 436.1,122.1 476.8,134.1 
	470.4,154.6 417.2,137.7 412.5,151.6 480.3,172.3 500,107.3 "/>
</svg>
