<?xml version="1.0" encoding="utf-8"?>
<!-- Generator: Adobe Illustrator 24.3.0, SVG Export Plug-In . SVG Version: 6.00 Build 0)  -->
<svg version="1.1" id="Camada_1" xmlns="http://www.w3.org/2000/svg" xmlns:xlink="http://www.w3.org/1999/xlink" x="0px" y="0px"
	 width="600px" height="400px" viewBox="0 0 600 400" style="enable-background:new 0 0 600 400;" xml:space="preserve">
<style type="text/css">
	.st0{fill:#2B2B32;}
</style>
<g>
	<polygon class="st0" points="500.4,216.1 496.3,202.6 482.9,206.7 486.9,220.2 	"/>
	<polygon class="st0" points="511.5,250.6 507.5,236.2 437.7,257.6 432,237.2 473.4,224.2 468.5,210.7 414,227.2 439,311 508.3,289 
		503.8,276 448.9,292.1 442.1,271.6 	"/>
	<polygon class="st0" points="408.8,160.3 412.7,174.7 467.7,157.8 474.4,178.3 404.6,199.7 409.5,213.2 492.8,187.8 466.9,104.9 
		412,121.9 415.5,135.8 457.9,122.9 463.7,144.3 	"/>
	<polygon class="st0" points="383.7,130.4 397.2,126.4 401.6,140.3 388.1,144.3 	"/>
	<polygon class="st0" points="427.6,26.1 434.2,46.6 392.8,59.5 396.3,73.5 438.7,60.5 444.5,81.9 389.5,98 394,111.9 462.9,91.4 
		437.9,7.7 354.6,33.2 358.6,46.7 	"/>
	<polygon class="st0" points="364.4,68.1 378.8,63.1 382.4,78 368.9,82 	"/>
	<polygon class="st0" points="338.1,326 342.1,339.5 355.7,335.5 351.7,322 	"/>
	<polygon class="st0" points="327,291.5 331.4,305.5 401.2,284.1 407,305.5 365.6,317.6 370,331.5 424.6,315 399.6,231.2 
		330.7,252.6 334.7,266.1 389.6,250.1 396.8,270.1 	"/>
	<polygon class="st0" points="311.4,190.3 315.5,203.8 370.8,187.3 377.6,207.8 307.8,229.2 312.2,243.1 395.6,217.7 369.6,134.9 
		314.7,150.9 319.1,164.9 360.2,152.3 366.9,172.9 	"/>
	<polygon class="st0" points="286.4,160.3 300.8,155.4 304.8,169.8 290.8,174.3 	"/>
	<polygon class="st0" points="292.3,127.9 285.6,107.4 327.4,94 323.4,80.5 281.6,93 275.3,72.1 330.3,55.9 326.7,41.1 256.9,62.5 
		282.7,145.5 365.2,120.9 361.6,107 	"/>
	<polygon class="st0" points="355.4,86 341.4,89.6 336.9,76.5 350.5,72.5 	"/>
	<polygon class="st0" points="84.3,190.9 88.7,204.9 102.6,200.4 97.7,186.8 	"/>
	<polygon class="st0" points="73.5,156 78,169.9 146.9,149.4 153.6,169.8 111.2,182.8 115.7,196.8 172,179.4 146.1,96.5 76.4,118 
		80.8,131.9 136.7,114.1 142.5,135.5 	"/>
	<polygon class="st0" points="176.8,245.8 172.7,232.2 117.3,248.8 110.7,228.3 179.7,207.7 176,192.9 92.7,218.4 118.2,301.7 
		173.6,285.1 169.5,270.7 128.1,283.6 121.5,263.2 	"/>
	<polygon class="st0" points="201,276.6 187.5,280.6 182.5,267.1 197,263.1 	"/>
	<polygon class="st0" points="196,308.2 202.2,329 160.8,342 164.8,355.5 206.7,343.1 212.9,364 157.6,380.5 161.6,394.9 
		231.4,373.4 205.4,290.6 122.6,315.6 126.7,329.1 	"/>
	<polygon class="st0" points="132.9,350.1 146.9,346.5 150.9,360 137.3,364 	"/>
	<polygon class="st0" points="181.1,161.4 185.5,175.4 199.4,171 194.6,157.4 	"/>
	<polygon class="st0" points="170.7,127 174.4,140.9 244.1,119.5 250.4,140.4 208.9,153.3 213,166.8 268.8,149.9 243.4,66.6 
		173.6,88 178,102 233.9,85 239.7,106.4 	"/>
	<polygon class="st0" points="213.8,219.8 218.7,233.3 273.6,217.2 280.4,237.7 210.5,259.1 214.5,272.6 298.3,246.7 272.8,164.4 
		217.5,180.9 221.5,194.4 263.4,181.8 269.6,202.8 	"/>
	<polygon class="st0" points="189.5,188.9 204,184.9 208,198.4 193.6,203.2 	"/>
	<polygon class="st0" points="254.4,351 248.1,331 290,317.6 285.6,303.6 244.1,316.6 237.9,295.6 292.8,279.6 288.8,265.2 
		219.4,286.1 244.9,369.4 327.8,344.4 323.7,330 	"/>
	<polygon class="st0" points="317.5,309.1 303.5,313.6 299.5,300 313.1,296 	"/>
</g>
<g>
	<polygon class="st0" points="478.4,341.4 479.4,344.4 482.3,343.2 481.3,340.3 	"/>
	<polygon class="st0" points="475.5,333.9 476.6,336.9 491.7,331.5 493.2,336 484.2,339.3 485.4,342.3 497.3,338 490.8,319.8 
		475.8,325.4 476.9,328.2 488.9,324.1 490.6,328.5 	"/>
	<polygon class="st0" points="499.2,352.7 498,349.5 486.2,353.9 484.5,349.4 499.7,343.9 498.4,341 480.4,347.5 486.9,365.5 
		498.9,361.2 497.8,358.1 488.8,361.4 487.2,356.8 	"/>
	<polygon class="st0" points="505,359.1 502.1,360 500.9,357 503.9,356 	"/>
	<polygon class="st0" points="496.4,382.5 494.7,378 503.7,374.8 502.8,371.7 493.5,375 492.1,370.3 504,366.2 502.9,363.2 
		487.9,368.5 494.3,386.6 512.4,380.1 511.4,377.2 	"/>
	<polygon class="st0" points="509.8,372.6 506.7,373.9 505.8,370.5 508.7,369.5 	"/>
	<polygon class="st0" points="513,315.5 512,312.5 509,313.5 510,316.5 	"/>
	<polygon class="st0" points="515.8,322.9 514.7,319.8 499.4,325.3 498,320.6 506.9,317.6 505.8,314.5 494,318.9 500.4,336.9 
		515.3,331.5 514.3,328.5 502.4,332.8 500.6,328.3 	"/>
	<polygon class="st0" points="520.3,345.1 519.3,342.1 507.2,346.3 505.5,342 520.7,336.5 519.5,333.5 501.4,339.9 508,357.9 
		520,353.8 518.9,350.7 509.9,353.9 508.2,349.5 	"/>
	<polygon class="st0" points="526.1,351.4 523,352.7 521.9,349.5 524.9,348.4 	"/>
	<polygon class="st0" points="525.2,358.5 526.8,363.1 517.8,366.4 518.8,369.3 527.9,366.2 529.5,370.8 517.5,374.9 518.4,378 
		533.6,372.6 527,354.6 509.2,360.9 510.1,364 	"/>
	<polygon class="st0" points="511.7,368.5 514.8,367.6 515.8,370.4 512.9,371.5 	"/>
	<polygon class="st0" points="570.3,342.6 569.3,339.5 566.2,340.6 567.4,343.6 	"/>
	<polygon class="st0" points="573,350.1 572,347.1 556.9,352.3 555.2,348 564.4,344.6 563.3,341.5 551.1,346 557.6,364 572.8,358.5 
		571.6,355.5 559.6,360 558,355.4 	"/>
	<polygon class="st0" points="549.4,331.4 550.4,334.3 562.4,330.2 564.1,334.5 549.1,339.9 550.1,343 568.1,336.6 561.7,318.5 
		549.6,322.7 550.7,325.8 559.6,322.6 561.4,327 	"/>
	<polygon class="st0" points="543.7,324.9 546.5,323.8 547.8,326.8 544.8,327.9 	"/>
	<polygon class="st0" points="544.5,317.9 542.9,313.4 551.9,310.1 550.9,307.1 541.8,310.3 540.1,305.8 552.2,301.6 551.1,298.5 
		536,303.9 542.5,321.9 560.6,315.5 559.5,312.6 	"/>
	<polygon class="st0" points="558,308 554.9,308.9 553.8,306 556.8,305 	"/>
	<polygon class="st0" points="549.3,350 548.1,347 545.1,348.2 546.3,351 	"/>
	<polygon class="st0" points="552,357.5 551,354.5 535.8,360 534.2,355.4 543.2,352.1 542.2,349.2 530.1,353.5 536.5,371.6 
		551.7,366.1 550.5,363.1 538.5,367.5 537,362.8 	"/>
	<polygon class="st0" points="541.5,337.6 540.3,334.6 528.3,338.8 526.7,334.3 541.8,328.9 540.8,325.9 522.5,332.5 529.1,350.4 
		541,346.2 540,343.2 530.9,346.4 529.4,341.9 	"/>
	<polygon class="st0" points="547.1,344 544,345.1 543,342.2 546.1,340.9 	"/>
	<polygon class="st0" points="531.2,309 532.7,313.4 523.6,316.8 524.8,319.8 533.7,316.6 535.4,321.1 523.4,325.2 524.5,328.3 
		539.5,323 533,304.9 515.1,311.2 516.1,314.4 	"/>
	<polygon class="st0" points="517.7,318.9 520.8,317.8 521.7,320.7 518.8,321.8 	"/>
</g>
<g>
	<polygon class="st0" points="68.6,260.1 65.8,260.9 66.5,263.8 69.4,263 	"/>
	<polygon class="st0" points="75.9,257.8 72.9,258.7 77.1,273.3 72.7,274.4 70.2,265.8 67.4,266.7 70.6,278.2 88.1,273.3 
		83.8,258.8 81.1,259.6 84.2,271.1 80,272.4 	"/>
	<polygon class="st0" points="56.7,278.9 59.7,278.2 56.4,266.7 60.7,265.3 64.9,280 67.6,279 62.7,261.6 45.3,266.7 48.7,278.2 
		51.6,277.5 49,268.6 53.5,267.5 	"/>
	<polygon class="st0" points="50.4,284.1 49.6,281.2 52.4,280.3 53.2,283.2 	"/>
	<polygon class="st0" points="28.9,274.6 33,273.2 35.6,281.9 38.6,281.2 36,272.3 40.5,271.3 43.6,282.7 46.5,281.9 42.5,267.5 
		25,272.3 30,289.7 32.8,289 	"/>
	<polygon class="st0" points="37.3,287.9 36.3,284.8 39.4,284.1 40.1,286.9 	"/>
	<polygon class="st0" points="90.9,294.3 93.7,293.5 93,290.7 90.1,291.4 	"/>
	<polygon class="st0" points="83.6,296.5 86.5,295.6 82.4,281 86.9,279.9 89.1,288.6 92.1,287.7 88.9,276.3 71.4,281.1 75.5,295.6 
		78.4,294.8 75.3,283.3 79.4,281.9 	"/>
	<polygon class="st0" points="62.5,299.3 65.3,298.6 62.1,287 66.4,285.6 70.5,300.2 73.5,299.4 68.6,281.9 51.2,287 54.3,298.6 
		57.3,297.7 54.8,289 59.1,287.8 	"/>
	<polygon class="st0" points="56.1,304.4 55.3,301.4 58.2,300.6 59.1,303.5 	"/>
	<polygon class="st0" points="49.4,303.1 45.1,304.4 42.6,295.6 39.7,296.4 42.1,305.3 37.8,306.4 34.6,294.9 31.6,295.6 
		35.7,310.2 53.1,305.2 48.3,287.9 45.4,288.6 	"/>
	<polygon class="st0" points="40.9,289.8 41.6,292.7 38.9,293.6 38.2,290.7 	"/>
	<polygon class="st0" points="61.8,346.7 64.7,345.7 63.9,342.9 61,343.8 	"/>
	<polygon class="st0" points="54.4,348.7 57.4,347.9 53.3,333.5 57.6,332.1 60.2,341 63.2,340.1 59.7,328.3 42.4,333.4 46.6,348 
		49.5,347.2 46,335.4 50.5,334.3 	"/>
	<polygon class="st0" points="73.5,327.5 70.6,328.3 73.9,340 69.6,341.3 65.7,326.8 62.5,327.5 67.5,344.9 85,340 81.8,328.4 
		78.7,329.2 81.3,337.8 77,339.2 	"/>
	<polygon class="st0" points="80.1,322.6 80.9,325.5 78,326.4 77.2,323.4 	"/>
	<polygon class="st0" points="86.5,323.8 91,322.6 93.6,331.3 96.4,330.4 93.9,321.7 98.3,320.5 101.5,332.1 104.5,331.4 
		100.3,316.7 83,321.8 87.9,339.1 90.7,338.4 	"/>
	<polygon class="st0" points="95,337.1 94.4,334.2 97.2,333.4 98,336.2 	"/>
	<polygon class="st0" points="56,326.4 59,325.5 58,322.6 55.3,323.5 	"/>
	<polygon class="st0" points="48.8,328.4 51.7,327.7 47.5,313.1 52,311.9 54.4,320.5 57.2,319.8 54,308.1 36.5,313.1 40.7,327.7 
		43.6,326.8 40.3,315.1 44.7,314 	"/>
	<polygon class="st0" points="68.3,319.8 71.1,318.9 67.9,307.3 72.3,306 76.5,320.6 79.3,319.8 74.2,302.3 56.9,307.3 60.2,318.9 
		63.1,318.1 60.6,309.3 65,308.1 	"/>
	<polygon class="st0" points="61.7,324.7 60.9,321.6 63.8,320.9 64.7,323.9 	"/>
	<polygon class="st0" points="95.7,311.8 91.5,313.1 89,304.3 86,305.1 88.5,313.8 84.2,315.1 81,303.5 78,304.4 82.1,318.9 
		99.6,313.9 94.7,296.6 91.6,297.3 	"/>
	<polygon class="st0" points="87.2,298.5 88.2,301.4 85.3,302.2 84.5,299.4 	"/>
</g>
</svg>
