<?xml version="1.0" encoding="utf-8"?>
<!-- Generator: Adobe Illustrator 24.3.0, SVG Export Plug-In . SVG Version: 6.00 Build 0)  -->
<svg version="1.1" id="Camada_1" xmlns="http://www.w3.org/2000/svg" xmlns:xlink="http://www.w3.org/1999/xlink" x="0px" y="0px"
	 width="500px" height="400px" viewBox="0 0 500 400" style="enable-background:new 0 0 500 400;" xml:space="preserve">
<style type="text/css">
	.st0{fill:#282830;}
</style>
<g>
	<path class="st0" d="M497.7,28.5l-1.1-1.7c1-0.7,2-1.4,2.9-2l1.1,1.6C499.7,27.1,498.7,27.8,497.7,28.5z"/>
	<path class="st0" d="M237.1,379.2c-0.4,0-0.9,0-1.3,0v-2c2.2,0,4.6,0,6.9-0.2l0.1,2C240.9,379.1,238.9,379.2,237.1,379.2z
		 M228.6,378.7c-2.4-0.3-4.8-0.7-7-1.2l0.5-1.9c2.2,0.5,4.5,0.9,6.8,1.2L228.6,378.7z M249.9,378.3l-0.3-2c2.2-0.3,4.5-0.7,6.9-1.1
		l0.4,2C254.5,377.6,252.1,378,249.9,378.3z M263.8,375.8l-0.4-2c2.2-0.5,4.4-1,6.8-1.6l0.5,1.9C268.2,374.7,266,375.3,263.8,375.8z
		 M214.7,375.4c-2.2-0.8-4.4-1.8-6.5-2.9l0.9-1.8c2,1.1,4.2,2,6.3,2.8L214.7,375.4z M277.5,372.3l-0.5-1.9c2.2-0.6,4.5-1.2,6.8-1.9
		l0.5,1.9C282,371.1,279.7,371.7,277.5,372.3z M489.4,372c-2.1-0.9-4.3-1.8-6.5-2.7l0.8-1.9c2.2,0.9,4.4,1.8,6.5,2.7L489.4,372z
		 M202.1,368.8c-2-1.4-3.9-2.9-5.6-4.5l1.4-1.5c1.6,1.5,3.4,2.9,5.4,4.3L202.1,368.8z M291.1,368.5l-0.6-1.9l6.8-1.9l0.6,1.9
		L291.1,368.5z M476.4,366.8c-2.2-0.8-4.4-1.6-6.6-2.4l0.7-1.9c2.2,0.8,4.5,1.6,6.6,2.4L476.4,366.8z M304.6,364.6l-0.5-1.9
		c2.2-0.6,4.5-1.3,6.8-1.9l0.5,1.9C309.1,363.4,306.8,364,304.6,364.6z M463.2,362.2c-2.2-0.7-4.5-1.4-6.7-2l0.5-1.9
		c2.3,0.6,4.5,1.3,6.8,2L463.2,362.2z M318.1,361l-0.5-1.9c2.3-0.6,4.5-1.2,6.8-1.7l0.5,1.9C322.6,359.8,320.4,360.4,318.1,361z
		 M191.7,359c-1.4-1.9-2.6-3.9-3.7-6.1l1.8-0.9c1,2.1,2.2,4,3.6,5.8L191.7,359z M449.7,358.4c-2.3-0.6-4.6-1.1-6.8-1.6l0.4-2
		c2.3,0.5,4.6,1.1,6.9,1.6L449.7,358.4z M331.8,357.7l-0.4-2c2.3-0.5,4.7-1,6.9-1.5l0.4,2C336.4,356.7,334.1,357.2,331.8,357.7z
		 M436,355.3c-2-0.4-4.1-0.8-6.1-1.1l-0.7-0.1l0.3-2l0.8,0.1c2.1,0.3,4.2,0.7,6.2,1.1L436,355.3z M345.5,354.9l-0.3-2
		c2.3-0.4,4.7-0.8,7-1.1l0.3,2C350.2,354.1,347.8,354.5,345.5,354.9z M422.2,353c-2.3-0.3-4.6-0.6-6.9-0.8l0.2-2
		c2.3,0.3,4.7,0.5,7,0.9L422.2,353z M359.4,352.8l-0.3-2c2.3-0.3,4.7-0.6,7-0.8l0.2,2C364,352.3,361.7,352.5,359.4,352.8z
		 M408.3,351.6c-2.3-0.2-4.7-0.3-7-0.4l0.1-2c2.3,0.1,4.7,0.3,7,0.4L408.3,351.6z M373.3,351.5l-0.1-2c2.3-0.2,4.7-0.3,7-0.4l0.1,2
		C378,351.2,375.6,351.3,373.3,351.5z M394.3,350.9c-2.4,0-4.7,0-7,0v-2c2.3,0,4.7,0,7.1,0L394.3,350.9z M185.3,346.3
		c-0.7-2-1.3-4.3-1.9-6.8l1.9-0.5c0.6,2.5,1.2,4.7,1.9,6.7L185.3,346.3z M181.9,332.5c-0.2-1.2-0.5-2.3-0.7-3.5
		c-0.2-1.1-0.4-2.2-0.7-3.4l2-0.4c0.2,1.1,0.5,2.3,0.7,3.4c0.2,1.2,0.5,2.4,0.7,3.5L181.9,332.5z M179,318.8
		c-0.5-2.4-1.1-4.6-1.6-6.8l1.9-0.5c0.6,2.2,1.1,4.4,1.7,6.9L179,318.8z M175.5,305.3c-0.7-2.2-1.4-4.5-2.2-6.6l1.9-0.7
		c0.8,2.2,1.5,4.5,2.2,6.7L175.5,305.3z M170.8,292.2c-0.9-2.1-1.8-4.3-2.8-6.4l1.8-0.9c1,2.1,2,4.3,2.9,6.5L170.8,292.2z
		 M164.8,279.5c-1.1-2-2.2-4.1-3.4-6.1l1.7-1c1.2,2,2.4,4.1,3.4,6.2L164.8,279.5z M157.8,267.5c-1-1.6-2-3.2-3.1-4.7l-0.7-1.1
		l1.6-1.1l0.8,1.1c1.1,1.6,2.1,3.2,3.1,4.8L157.8,267.5z M149.8,256c-1.4-1.9-2.8-3.7-4.3-5.5l1.6-1.3c1.5,1.8,2.9,3.7,4.3,5.6
		L149.8,256z M141.1,245c-1.5-1.8-3.1-3.5-4.7-5.2l1.5-1.4c1.6,1.7,3.2,3.5,4.7,5.3L141.1,245z M131.6,234.8
		c-1.6-1.6-3.3-3.3-5.1-4.8l1.4-1.5c1.7,1.6,3.4,3.2,5.1,4.9L131.6,234.8z M121.3,225.4c-1.8-1.5-3.6-3-5.4-4.4l1.2-1.6
		c1.8,1.5,3.7,3,5.5,4.5L121.3,225.4z M110.3,216.7c-1.8-1.4-3.8-2.7-5.7-4.1l1.1-1.6c2,1.3,3.9,2.7,5.7,4.1L110.3,216.7z
		 M98.8,208.7c-1.9-1.2-3.9-2.5-5.9-3.7l1-1.7c2,1.2,4,2.5,6,3.8L98.8,208.7z M86.9,201.4c-2-1.2-4.1-2.3-6.1-3.5l1-1.7
		c2,1.1,4.1,2.3,6.1,3.5L86.9,201.4z M74.6,194.5c-2.1-1.1-4.2-2.2-6.2-3.3l0.9-1.8c2,1.1,4.1,2.2,6.2,3.3L74.6,194.5z M62.2,187.9
		c-2.1-1.1-4.2-2.2-6.2-3.3l1-1.8c2,1.1,4.1,2.2,6.2,3.3L62.2,187.9z M49.8,181.2c-2.2-1.2-4.2-2.4-6.1-3.6l1-1.7
		c1.9,1.1,3.9,2.3,6,3.5L49.8,181.2z M37.7,173.9c-2.1-1.4-4-2.7-5.8-4.1l1.2-1.6c1.8,1.3,3.7,2.7,5.7,4L37.7,173.9z M26.5,165.3
		c-1.8-1.6-3.5-3.3-5.1-5l1.5-1.4c1.5,1.6,3.2,3.3,4.9,4.8L26.5,165.3z M16.8,154.8c-1.4-1.9-2.7-3.9-3.8-6l1.7-1
		c1.1,2,2.3,3.9,3.7,5.8L16.8,154.8z M10,142.4c-0.9-2.2-1.6-4.4-2.2-6.8l1.9-0.5c0.6,2.2,1.3,4.4,2.2,6.5L10,142.4z M6.2,128.6
		c-0.4-2.3-0.6-4.7-0.7-7.1l2-0.1c0.1,2.3,0.4,4.6,0.7,6.9L6.2,128.6z M7.5,114.5l-2-0.1c0.1-2.3,0.3-4.7,0.6-7.1l2,0.3
		C7.8,109.9,7.6,112.2,7.5,114.5z M9.3,100.7l-2-0.4c0.5-2.3,1.1-4.6,1.8-6.9L11,94C10.4,96.3,9.8,98.5,9.3,100.7z M13.3,87.4
		l-1.9-0.7c0.8-2.2,1.7-4.4,2.7-6.5L16,81C15,83.1,14.1,85.3,13.3,87.4z M19.1,74.7l-1.8-0.9c1.1-2.1,2.3-4.1,3.5-6.2l1.7,1
		C21.3,70.7,20.2,72.7,19.1,74.7z M366.9,68.4c-0.9,0-1.7,0-2.6,0v-2c0.9,0,1.7,0,2.6,0c1.5,0,3,0,4.4,0v2
		C369.9,68.4,368.4,68.4,366.9,68.4z M357.2,68.2c-2.4-0.1-4.7-0.3-7.1-0.5l0.2-2c2.3,0.2,4.6,0.4,7,0.5L357.2,68.2z M378.4,68.1
		l-0.1-2c2.3-0.1,4.7-0.3,7-0.5l0.2,2C383.2,67.8,380.8,68,378.4,68.1z M392.5,67l-0.2-2c2.3-0.3,4.7-0.6,6.9-0.9l0.3,2
		C397.2,66.4,394.8,66.7,392.5,67z M343.2,66.7c-2.3-0.4-4.7-0.8-7-1.3l0.4-2c2.3,0.5,4.6,0.9,6.9,1.2L343.2,66.7z M406.5,65l-0.3-2
		c2.3-0.4,4.6-0.8,6.9-1.3l0.4,2C411.1,64.1,408.8,64.6,406.5,65z M329.3,63.9c-2.2-0.6-4.5-1.2-6.8-2l0.6-1.9
		c2.2,0.7,4.5,1.4,6.7,1.9L329.3,63.9z M26.3,62.8l-1.7-1.1c1.3-1.9,2.7-3.9,4.1-5.8l1.6,1.2C29,59,27.6,60.9,26.3,62.8z
		 M420.3,62.1l-0.5-1.9c2.3-0.5,4.6-1.1,6.8-1.7l0.5,1.9C424.9,61,422.6,61.6,420.3,62.1z M315.8,59.6c-2.1-0.8-4.4-1.6-6.6-2.5
		l0.8-1.9c2.2,0.9,4.4,1.7,6.5,2.5L315.8,59.6z M434,58.5l-0.6-1.9c2.2-0.7,4.5-1.4,6.7-2.1l0.6,1.9C438.5,57.1,436.2,57.8,434,58.5
		z M302.7,54.3c-2-0.9-4.1-1.8-6.4-2.9l0.8-1.8c2.3,1.1,4.4,2,6.4,2.9L302.7,54.3z M447.4,54l-0.7-1.9c2.2-0.8,4.4-1.6,6.5-2.5
		l0.7,1.9C451.8,52.4,449.6,53.2,447.4,54z M34.7,51.7l-1.5-1.3c1.5-1.8,3.1-3.6,4.7-5.3l1.5,1.4C37.8,48.1,36.2,49.9,34.7,51.7z
		 M460.5,48.8l-0.8-1.8c2.1-0.9,4.3-1.9,6.4-2.9l0.9,1.8C464.8,46.8,462.6,47.8,460.5,48.8z M289.9,48.4l-6.3-3l0.9-1.8l6.3,3
		L289.9,48.4z M473.3,42.7l-0.9-1.8c2.1-1.1,4.2-2.1,6.2-3.3l1,1.8C477.5,40.6,475.4,41.7,473.3,42.7z M277.2,42.4
		c-2.1-1-4.2-2-6.4-2.9l0.8-1.8c2.2,1,4.3,2,6.4,2.9L277.2,42.4z M44.3,41.5L43,40.1l0.3-0.3c1.6-1.5,3.3-3,5-4.4l1.3,1.6
		c-1.7,1.4-3.4,2.8-4.9,4.3L44.3,41.5z M264.5,36.7c-2.2-0.9-4.4-1.8-6.5-2.7l0.7-1.9c2.1,0.8,4.3,1.7,6.5,2.7L264.5,36.7z
		 M485.7,36l-1-1.7c2-1.2,4-2.4,6-3.6l1.1,1.7C489.8,33.6,487.7,34.8,485.7,36z M55.1,32.8L54,31.1c1.9-1.4,3.9-2.7,5.9-3.9l1,1.7
		C59,30.2,57,31.5,55.1,32.8z M251.4,31.5c-2.2-0.8-4.4-1.6-6.6-2.3l0.6-1.9c2.2,0.7,4.4,1.5,6.7,2.3L251.4,31.5z M238.2,27.1
		c-2.2-0.7-4.5-1.3-6.7-1.9l0.2-1l0.3-1c2.3,0.6,4.6,1.2,6.8,1.9L238.2,27.1z M67,25.5l-0.9-1.8c2.1-1.1,4.2-2.1,6.4-3.1l0.8,1.8
		C71.2,23.5,69,24.5,67,25.5z M224.6,23.5c-2.2-0.6-4.5-1.1-6.8-1.7l0.5-1.9c2.4,0.6,4.6,1.1,6.8,1.7L224.6,23.5z M210.9,20.2
		c-2.2-0.5-4.5-1-6.9-1.5l0.4-2c2.3,0.5,4.6,1,6.9,1.5L210.9,20.2z M79.7,19.9L79,18c2.2-0.8,4.4-1.6,6.7-2.3l0.6,1.9
		C84.1,18.3,81.9,19,79.7,19.9z M197.2,17.2c-2.3-0.5-4.6-0.9-6.9-1.3l0.4-2c2.3,0.4,4.7,0.9,6.9,1.3L197.2,17.2z M93,15.7l-0.5-1.9
		c2.2-0.6,4.6-1.1,6.9-1.6l0.4,2C97.5,14.6,95.3,15.1,93,15.7z M183.4,14.7c-2.3-0.4-4.6-0.7-6.9-1.1l0.3-2c2.3,0.3,4.6,0.7,7,1.1
		L183.4,14.7z M106.7,12.8l-0.3-2c2.3-0.4,4.6-0.7,7-1l0.2,2C111.3,12.1,109,12.5,106.7,12.8z M169.5,12.7c-2.3-0.3-4.7-0.6-7-0.8
		l0.2-2c2.3,0.2,4.7,0.5,7,0.8L169.5,12.7z M155.6,11.3c-2.3-0.2-4.7-0.3-7-0.4l0.1-2c2.3,0.1,4.7,0.3,7,0.4L155.6,11.3z
		 M120.6,11.2l-0.2-2c2.3-0.2,4.7-0.3,7.1-0.4l0.1,2C125.2,10.9,122.9,11,120.6,11.2z M141.6,10.6c-2.3,0-4.7-0.1-7,0v-2
		c2.4,0,4.7,0,7.1,0L141.6,10.6z"/>
	<path class="st0" d="M499.6,376.7c-1-0.5-2.1-1-3.1-1.5l0.9-1.8c1.1,0.5,2.1,1,3.2,1.5L499.6,376.7z"/>
</g>
</svg>
