<?xml version="1.0" encoding="utf-8"?>
<!-- Generator: Adobe Illustrator 24.3.0, SVG Export Plug-In . SVG Version: 6.00 Build 0)  -->
<svg version="1.1" id="Camada_1" xmlns="http://www.w3.org/2000/svg" xmlns:xlink="http://www.w3.org/1999/xlink" x="0px" y="0px"
	 width="600px" height="400px" viewBox="0 0 600 400" style="enable-background:new 0 0 600 400;" xml:space="preserve">
<style type="text/css">
	.st0{fill:#24242B;}
</style>
<g>
	<g>
		<polygon class="st0" points="581,218.5 577,205 563.5,209.1 567.5,222.6 		"/>
		<polygon class="st0" points="592,253.1 588,238.7 518.1,259.7 512.5,239.3 553.9,226.5 549.1,213 494.6,229.2 519.1,313.1 
			588.5,291.5 584.1,278.5 529.1,294.3 522.5,273.7 		"/>
		<polygon class="st0" points="489.7,162.3 493.6,176.7 548.6,160.1 555.2,180.6 485.3,201.6 490.1,215.2 573.6,190.2 548.2,107.2 
			493.1,123.9 496.6,137.8 539,125.1 544.6,146.5 		"/>
		<polygon class="st0" points="464.7,132.2 478.3,128.3 482.6,142.3 469.1,146.2 		"/>
		<polygon class="st0" points="509.2,28.2 515.7,48.7 474.2,61.4 477.7,75.4 520.1,62.6 525.8,84 470.7,99.9 475.2,113.8 
			544.1,93.7 519.6,9.8 436.2,34.8 440.1,48.4 		"/>
		<polygon class="st0" points="445.8,69.8 460.3,64.9 463.8,79.8 450.2,83.7 		"/>
		<polygon class="st0" points="418.2,327.6 422.1,341.1 435.6,337.2 431.7,323.7 		"/>
		<polygon class="st0" points="407.2,293.1 411.5,307.1 481.4,286 487.1,307.4 445.7,319.3 450,333.3 504.7,317 480.1,233.2 
			411.1,254.2 415,267.7 470,251.9 477.1,272 		"/>
		<polygon class="st0" points="392.2,191.8 396.2,205.2 451.6,189 458.3,209.6 388.3,230.6 392.7,244.6 476.2,219.6 450.7,136.6 
			395.7,152.4 400,166.4 441.1,154 447.7,174.6 		"/>
		<polygon class="st0" points="367.3,161.6 381.7,156.8 385.6,171.2 371.7,175.6 		"/>
		<polygon class="st0" points="373.3,129.3 366.8,108.7 408.7,95.6 404.7,82 362.9,94.3 356.6,73.3 411.7,57.5 408.2,42.7 
			338.3,63.7 363.7,146.8 446.3,122.6 442.8,108.7 		"/>
		<polygon class="st0" points="436.7,87.7 422.6,91.2 418.3,78.1 431.8,74.2 		"/>
		<polygon class="st0" points="165,191.2 169.4,205.1 183.3,200.7 178.5,187.1 		"/>
		<polygon class="st0" points="154.4,156.2 158.9,170.2 227.8,150 234.4,170.5 192,183.2 196.4,197.2 252.8,180.1 227.4,97 
			157.5,118.2 161.8,132.1 217.8,114.6 223.5,136 		"/>
		<polygon class="st0" points="257.3,246.6 253.3,232.9 197.8,249.2 191.3,228.7 260.3,208.5 256.7,193.6 173.3,218.7 198.3,302.1 
			253.8,285.8 249.8,271.4 208.3,284.1 201.8,263.6 		"/>
		<polygon class="st0" points="281.3,277.5 267.8,281.4 262.9,267.9 277.4,263.9 		"/>
		<polygon class="st0" points="276.1,309 282.3,329.9 240.7,342.7 244.6,356.2 286.7,344 292.7,364.9 237.3,381.1 241.3,395.6 
			311.1,374.5 285.7,291.5 202.7,316.1 206.7,329.6 		"/>
		<polygon class="st0" points="212.8,350.6 226.8,347.1 230.7,360.6 217.2,364.6 		"/>
		<polygon class="st0" points="262,162.2 266.3,176.2 280.3,171.8 275.5,158.3 		"/>
		<polygon class="st0" points="251.8,127.7 255.4,141.6 325.2,120.6 331.5,141.6 289.9,154.3 293.9,167.7 349.7,151.1 324.8,67.7 
			254.9,88.8 259.2,102.7 315.2,86.1 320.9,107.5 		"/>
		<polygon class="st0" points="294.4,220.7 299.2,234.2 354.2,218.4 360.9,239 290.9,260 294.9,273.5 378.7,248.1 353.7,165.6 
			298.3,181.8 302.2,195.4 344.2,183 350.3,204 		"/>
		<polygon class="st0" points="270.2,189.7 284.7,185.7 288.7,199.3 274.2,204.1 		"/>
		<polygon class="st0" points="334.3,352.2 328.1,332.1 370.1,318.9 365.7,304.9 324.2,317.7 318.1,296.7 373,280.9 369.1,266.5 
			299.6,287.1 324.7,370.5 407.7,346 403.7,331.6 		"/>
		<polygon class="st0" points="397.6,310.6 383.6,315 379.7,301.4 393.2,297.5 		"/>
	</g>
</g>
<g>
	<g>
		<polygon class="st0" points="514.4,356.3 515.1,358.5 517.2,357.7 516.5,355.5 		"/>
		<polygon class="st0" points="512.4,350.7 513.1,353 524.3,349.3 525.3,352.6 518.7,354.8 519.5,357.1 528.4,354.1 523.9,340.7 
			512.8,344.5 513.5,346.6 522.4,343.8 523.6,347 		"/>
		<polygon class="st0" points="529.5,365 528.7,362.6 519.9,365.6 518.7,362.3 530,358.5 529.1,356.3 515.7,360.8 520.2,374.2 
			529.1,371.2 528.4,368.9 521.7,371.2 520.6,367.8 		"/>
		<polygon class="st0" points="533.6,369.8 531.5,370.4 530.7,368.2 532.9,367.5 		"/>
		<polygon class="st0" points="526.9,386.8 525.8,383.5 532.4,381.3 531.8,379 525,381.2 524,377.8 532.8,375 532,372.7 
			520.9,376.4 525.3,389.8 538.7,385.4 538,383.2 		"/>
		<polygon class="st0" points="537,379.8 534.7,380.6 534,378.2 536.2,377.5 		"/>
		<polygon class="st0" points="540.3,337.8 539.6,335.6 537.4,336.3 538.1,338.5 		"/>
		<polygon class="st0" points="542.2,343.3 541.4,341.1 530.1,344.8 529.2,341.4 535.8,339.3 535,337 526.2,340 530.7,353.4 
			541.7,349.6 541,347.4 532.2,350.4 531,347.1 		"/>
		<polygon class="st0" points="545.1,359.7 544.4,357.5 535.5,360.4 534.3,357.2 545.6,353.4 544.8,351.2 531.4,355.6 535.9,368.9 
			544.7,366.1 544,363.8 537.4,366 536.1,362.7 		"/>
		<polygon class="st0" points="549.3,364.5 547,365.4 546.2,363 548.5,362.2 		"/>
		<polygon class="st0" points="548.5,369.7 549.6,373.1 542.9,375.3 543.6,377.5 550.4,375.3 551.4,378.8 542.6,381.6 543.2,383.9 
			554.4,380.2 549.9,366.9 536.7,371.2 537.3,373.4 		"/>
		<polygon class="st0" points="538.4,376.8 540.7,376.2 541.4,378.2 539.3,379 		"/>
		<polygon class="st0" points="582,358.7 581.2,356.4 578.9,357.2 579.8,359.4 		"/>
		<polygon class="st0" points="583.8,364.3 583.1,362.1 571.9,365.7 570.8,362.4 577.6,360.1 576.8,357.8 567.7,360.9 572.2,374.3 
			583.5,370.5 582.7,368.3 573.8,371.4 572.7,368 		"/>
		<polygon class="st0" points="566.8,350.1 567.4,352.3 576.3,349.5 577.5,352.7 566.4,356.4 567.1,358.7 580.5,354.3 576,340.9 
			567.1,343.8 567.8,346.1 574.4,343.9 575.7,347.2 		"/>
		<polygon class="st0" points="562.7,345.3 564.8,344.5 565.7,346.7 563.4,347.5 		"/>
		<polygon class="st0" points="563.4,340.1 562.3,336.8 569,334.5 568.3,332.3 561.5,334.5 560.4,331.1 569.3,328.3 568.6,326 
			557.4,329.7 561.9,343 575.3,338.6 574.5,336.5 		"/>
		<polygon class="st0" points="573.5,333.1 571.2,333.7 570.4,331.5 572.6,330.8 		"/>
		<polygon class="st0" points="566.4,363.8 565.5,361.6 563.3,362.4 564.2,364.5 		"/>
		<polygon class="st0" points="568.2,369.4 567.5,367.2 556.3,370.9 555.2,367.6 561.9,365.3 561.2,363.1 552.2,366.1 556.6,379.5 
			567.9,375.7 567.1,373.5 558.2,376.5 557.1,373.1 		"/>
		<polygon class="st0" points="560.8,354.5 560,352.3 551.2,355.2 550,351.9 561.2,348.2 560.5,346 547,350.5 551.5,363.8 
			560.4,360.9 559.7,358.7 552.9,360.8 551.9,357.5 		"/>
		<polygon class="st0" points="564.9,359.4 562.6,360.2 561.9,358 564.2,357.1 		"/>
		<polygon class="st0" points="553.7,333.4 554.8,336.6 548,339 548.9,341.2 555.5,339 556.6,342.3 547.7,345.2 548.5,347.4 
			559.6,343.8 555.2,330.4 541.9,334.7 542.5,337.1 		"/>
		<polygon class="st0" points="543.7,340.4 546,339.7 546.6,341.8 544.5,342.6 		"/>
	</g>
</g>
<g>
	<g>
		<polygon class="st0" points="84,91.8 80.3,93 81.4,96.8 85.2,95.6 		"/>
		<polygon class="st0" points="93.6,88.5 89.7,89.8 95.8,109 90.1,110.7 86.3,99.4 82.7,100.7 87.3,115.7 110.4,108.6 104.2,89.5 
			100.7,90.7 105.2,105.8 99.7,107.8 		"/>
		<polygon class="st0" points="68.9,117.3 72.9,116.2 68,101.1 73.6,99 79.8,118.4 83.4,117 76.2,94 53.3,101.5 58.2,116.6 
			62.1,115.6 58.3,103.9 64.2,102.3 		"/>
		<polygon class="st0" points="60.7,124.4 59.6,120.7 63.2,119.4 64.4,123.1 		"/>
		<polygon class="st0" points="31.7,112.6 37.2,110.6 41,122.1 44.9,121.1 41.1,109.4 47.1,107.7 51.7,122.8 55.5,121.6 49.6,102.7 
			26.4,109.8 33.8,132.7 37.5,131.7 		"/>
		<polygon class="st0" points="43.4,130 42.1,126 46.1,124.9 47.2,128.6 		"/>
		<polygon class="st0" points="115,136.4 118.8,135.3 117.6,131.5 113.8,132.7 		"/>
		<polygon class="st0" points="105.3,139.6 109.2,138.3 103.2,119.1 109.1,117.5 112.4,128.8 116.3,127.6 111.7,112.5 88.6,119.6 
			94.6,138.8 98.3,137.6 93.8,122.4 99.2,120.3 		"/>
		<polygon class="st0" points="77.4,144.2 81.2,143.1 76.4,127.9 82.1,125.8 88.2,145.1 92.1,143.8 84.8,120.8 61.9,128.2 
			66.5,143.5 70.4,142.2 66.8,130.8 72.4,129 		"/>
		<polygon class="st0" points="69.1,151.2 67.9,147.3 71.8,146.1 73.1,150 		"/>
		<polygon class="st0" points="60.2,149.7 54.5,151.6 50.8,140.1 47,141.2 50.6,152.9 44.9,154.6 40.1,139.4 36.1,140.5 42.2,159.7 
			65.1,152.3 58.1,129.6 54.2,130.6 		"/>
		<polygon class="st0" points="48.4,132.4 49.4,136.3 45.9,137.5 44.7,133.7 		"/>
		<polygon class="st0" points="78.3,207.2 82.1,205.8 81,202 77.2,203.4 		"/>
		<polygon class="st0" points="68.6,210.2 72.5,209 66.6,190 72.2,188 76,199.7 79.9,198.4 74.9,182.8 52,190.3 58.1,209.6 
			62,208.3 56.9,192.8 62.8,191.2 		"/>
		<polygon class="st0" points="93.2,181.3 89.4,182.5 94.2,197.8 88.5,199.7 82.7,180.7 78.5,181.7 85.9,204.6 108.9,197.4 
			104.2,182.2 100.2,183.3 103.9,194.6 98.2,196.7 		"/>
		<polygon class="st0" points="101.7,174.5 102.9,178.3 99.1,179.7 98,175.7 		"/>
		<polygon class="st0" points="110.3,175.8 116.2,174 120,185.5 123.7,184.2 120.1,172.8 125.9,171 130.5,186.3 134.5,185.2 
			128.3,165.8 105.5,173.4 112.8,196.1 116.4,195.1 		"/>
		<polygon class="st0" points="122.2,193.2 121.2,189.3 124.9,188.1 126.1,191.9 		"/>
		<polygon class="st0" points="69.9,180.4 73.8,179.2 72.4,175.4 68.7,176.7 		"/>
		<polygon class="st0" points="60.3,183.4 64.2,182.3 58.1,163.1 63.9,161.3 67.5,172.8 71.2,171.6 66.4,156.2 43.4,163.5 
			49.5,182.8 53.4,181.5 48.4,166 54.4,164.4 		"/>
		<polygon class="st0" points="85.9,171.2 89.6,169.9 85,154.6 90.7,152.7 96.8,171.9 100.6,170.7 93.1,147.7 70.3,155 75.1,170.3 
			78.9,169.2 75.2,157.6 81.1,155.8 		"/>
		<polygon class="st0" points="77.3,178 76.2,174 80,172.8 81.3,176.8 		"/>
		<polygon class="st0" points="122.1,159.5 116.5,161.3 112.8,149.8 108.9,151 112.5,162.5 106.9,164.3 102.2,149.1 98.3,150.3 
			104.3,169.4 127.3,162.2 120.1,139.3 116.1,140.4 		"/>
		<polygon class="st0" points="110.3,142.2 111.7,146 107.9,147.2 106.7,143.4 		"/>
	</g>
</g>
</svg>
