<?xml version="1.0" encoding="utf-8"?>
<!-- Generator: Adobe Illustrator 24.3.0, SVG Export Plug-In . SVG Version: 6.00 Build 0)  -->
<svg version="1.1" id="Camada_1" xmlns="http://www.w3.org/2000/svg" xmlns:xlink="http://www.w3.org/1999/xlink" x="0px" y="0px"
	 width="600px" height="400px" viewBox="0 0 600 400" style="enable-background:new 0 0 600 400;" xml:space="preserve">
<style type="text/css">
	.st0{fill:#26262D;}
</style>
<g>
	<polygon class="st0" points="389,328.7 393.3,315.3 379.9,311 375.5,324.4 	"/>
	<polygon class="st0" points="378.5,363.4 383.4,349.3 313.8,327.2 320.7,307.1 362.1,320 365.8,306.1 311.6,288.7 284.5,371.8 
		354,393.2 357.7,379.9 303.4,361.9 309.5,341.2 	"/>
	<polygon class="st0" points="345.3,230.7 340.4,244.8 395.2,262.1 389.1,282.8 319.5,260.7 315.8,274.6 398.8,301.1 424.7,218.2 
		369.8,200.9 364.8,214.4 407,227.8 399.6,248.7 	"/>
	<polygon class="st0" points="341.7,191.8 355.1,196.2 350.8,210.2 337.4,205.8 	"/>
	<polygon class="st0" points="437.1,131 430.9,151.6 389.5,138.7 384.5,152.2 426.7,165.6 419.3,186.5 364.9,168.5 360.7,182.5 
		429,204.8 456.1,121.7 373.1,95.3 368.7,108.7 	"/>
	<polygon class="st0" points="361.3,129.6 376,133.7 370.5,148 357.1,143.6 	"/>
	<polygon class="st0" points="193,326.8 188.6,340.2 202,344.6 206.4,331.2 	"/>
	<polygon class="st0" points="203.4,292.1 199.1,306.1 268.7,328.2 261.3,349.1 220.4,335.5 216.1,349.5 270.4,366.9 297.4,283.8 
		228.6,262.2 224.2,275.6 278.5,293.6 273,314.2 	"/>
	<polygon class="st0" points="248.2,200 243.9,213.4 298.8,231.3 292.7,252 223.1,229.9 218.8,243.9 301.8,270.4 327.6,187.5 
		273.3,169.5 269,183.5 309.9,196.5 303.7,217.2 	"/>
	<polygon class="st0" points="244.7,161.1 259.3,165.2 254.4,179.3 240.4,175.1 	"/>
	<polygon class="st0" points="267.9,137.8 274.1,117.1 316.1,129.9 320.5,116.5 279,103 285.7,82.2 340.1,100.2 345.6,86 276,63.9 
		250.1,146.8 331.9,173.5 336.9,160 	"/>
	<polygon class="st0" points="343.7,139.2 330.1,134.2 333.9,120.9 347.3,125.3 	"/>
	<polygon class="st0" points="61,71.3 56.7,85.3 70.7,89.5 74.4,75.6 	"/>
	<polygon class="st0" points="72,36.5 67.8,50.5 136.1,72.8 130,93.4 87.8,80 83.5,94 139.7,111.7 165.6,28.8 96,6.8 91.7,20.8 
		147.8,37.9 140.4,58.8 	"/>
	<polygon class="st0" points="105.9,169.1 110.3,155.6 55.3,137.7 61.5,117.1 129.9,139.4 135.3,125.1 52.3,98.7 25.9,181.7 
		80.9,199.6 85.7,185.4 44.3,172.5 50.5,151.9 	"/>
	<polygon class="st0" points="108.3,208.2 94.9,203.8 98.5,189.9 112.7,194.8 	"/>
	<polygon class="st0" points="86.2,231.3 79.5,252 38,239.1 33.6,252.5 75.2,266.1 68.4,286.8 13.5,268.9 8.6,283.1 78.2,305.1 
		104,222.2 21.6,195.7 17.3,209.1 	"/>
	<polygon class="st0" points="10.5,229.9 24,234.9 19.6,248.3 6.2,243.9 	"/>
	<polygon class="st0" points="157.4,102.1 153.1,116.1 167.1,120.4 170.8,106.5 	"/>
	<polygon class="st0" points="168.5,67.9 163.6,81.4 233.1,103.5 226.4,124.3 184.9,111.3 180.6,124.7 236.1,142.5 262.6,59.6 
		193,37.5 188.7,51.5 244.3,69.3 236.9,90.2 	"/>
	<polygon class="st0" points="151.1,168.7 147.5,182.6 201.8,200.6 195.7,221.3 126.1,199.2 121.7,212.6 205.3,238.9 231.2,156.7 
		176.3,138.8 171.9,152.2 213.5,165.7 206.7,186.5 	"/>
	<polygon class="st0" points="148.7,129.5 162.9,134.4 158.5,147.8 143.9,143.6 	"/>
	<polygon class="st0" points="109.9,299.8 116.1,279.7 158.2,292.5 162.5,278.5 121,265.6 127.8,244.8 182.1,262.8 187,248.7 
		118,226.5 91.6,309.5 174,336.1 178.8,321.9 	"/>
	<polygon class="st0" points="185.6,301.2 171.6,296.9 176,283.5 189.4,287.9 	"/>
</g>
<g>
	<polygon class="st0" points="536.6,370.6 538.8,371.3 539.4,369.1 537.2,368.4 	"/>
	<polygon class="st0" points="530.9,369 533.2,369.7 536.6,358.4 539.9,359.5 537.9,366.2 540.2,366.8 542.9,357.9 529.3,353.8 
		526,365.1 528.2,365.7 531,356.8 534.3,357.7 	"/>
	<polygon class="st0" points="552.4,363.2 550,362.5 547.4,371.4 544,370.5 547.4,359.1 545.1,358.6 541.1,372.1 554.6,376.1 
		557.3,367.1 555,366.4 553,373.2 549.6,372.1 	"/>
	<polygon class="st0" points="558.7,362.6 558,364.7 555.7,364.1 556.4,361.9 	"/>
	<polygon class="st0" points="568.8,377.9 565.4,376.9 567.4,370.2 565.2,369.4 563.1,376.3 559.7,375.1 562.5,366.3 560.2,365.6 
		556.8,376.8 570.3,380.9 574.4,367.4 572.2,366.7 	"/>
	<polygon class="st0" points="568.8,365.6 568.2,368 565.8,367.1 566.5,364.9 	"/>
	<polygon class="st0" points="536.4,338.8 534.2,338.1 533.5,340.3 535.7,341 	"/>
	<polygon class="st0" points="542,340.4 539.7,339.7 536.3,351.1 532.9,349.9 535,343.3 532.7,342.6 530.1,351.5 543.6,355.6 
		546.9,344.4 544.7,343.7 542,352.6 538.6,351.7 	"/>
	<polygon class="st0" points="557.1,347.4 554.9,346.7 552.1,355.7 548.8,354.8 552.2,343.4 549.9,342.8 545.8,356.3 559.3,360.3 
		562.1,351.4 559.8,350.7 557.8,357.4 554.4,356.5 	"/>
	<polygon class="st0" points="563.4,346.7 562.8,349.1 560.4,348.4 561.1,346.1 	"/>
	<polygon class="st0" points="567.2,350.4 570.6,351.4 568.6,358.2 570.8,358.9 572.9,352.1 576.3,353.2 573.5,362.1 575.8,362.9 
		579.2,351.6 565.7,347.6 561.6,360.9 563.8,361.7 	"/>
	<polygon class="st0" points="567.2,362.7 568,360.5 570.1,361.1 569.5,363.3 	"/>
	<polygon class="st0" points="577.5,316.7 575.2,316 574.5,318.3 576.8,318.9 	"/>
	<polygon class="st0" points="583.1,318.4 580.9,317.7 577.4,328.9 574.1,328 576.1,321.1 573.8,320.4 571.1,329.6 584.6,333.6 
		588,322.2 585.7,321.6 583.1,330.7 579.7,329.6 	"/>
	<polygon class="st0" points="561.7,324.2 563.9,324.9 566.7,316 570,316.9 566.6,328.1 568.9,328.9 573,315.4 559.5,311.3 
		556.7,320.3 559,321 561,314.3 564.4,315.2 	"/>
	<polygon class="st0" points="555.4,324.7 556,322.6 558.3,323.1 557.6,325.4 	"/>
	<polygon class="st0" points="551.6,321.2 548.2,320.2 550.2,313.4 548,312.7 545.9,319.5 542.5,318.5 545.3,309.5 543,308.8 
		539.6,320.1 553.1,324.1 557.2,310.6 555,310 	"/>
	<polygon class="st0" points="551.6,308.9 550.8,311.1 548.6,310.5 549.3,308.3 	"/>
	<polygon class="st0" points="572.7,332.4 570.4,331.8 569.8,334.1 572,334.6 	"/>
	<polygon class="st0" points="578.3,334.1 576.1,333.4 572.7,344.7 569.3,343.7 571.3,336.9 569.1,336.2 566.4,345.3 579.9,349.4 
		583.3,338 581,337.4 578.3,346.4 574.9,345.3 	"/>
	<polygon class="st0" points="561.9,331.6 559.6,331 556.9,339.9 553.5,338.9 556.9,327.6 554.7,326.9 550.6,340.6 564.1,344.5 
		566.8,335.6 564.6,334.9 562.5,341.7 559.2,340.6 	"/>
	<polygon class="st0" points="568.2,331.1 567.5,333.4 565.3,332.7 565.9,330.3 	"/>
	<polygon class="st0" points="540.5,325.2 543.8,326.2 541.8,333.1 544.1,333.7 546.1,327 549.5,328 546.7,336.9 549,337.6 
		552.4,326.4 538.9,322.3 534.8,335.7 537.1,336.5 	"/>
	<polygon class="st0" points="540.5,337.5 541.2,335.2 543.3,335.9 542.7,338.1 	"/>
</g>
<g>
	<polygon class="st0" points="376.1,28.5 375.4,30.7 377.6,31.4 378.3,29.2 	"/>
	<polygon class="st0" points="377.7,22.8 377,25.1 388.3,28.6 387.2,31.9 380.5,29.9 379.9,32.1 388.7,34.9 393,21.4 381.7,18 
		381.1,20.1 389.9,23 389,26.3 	"/>
	<polygon class="st0" points="383.3,44.3 384.1,42 375.2,39.3 376.1,35.9 387.5,39.4 388,37.2 374.5,33 370.5,46.5 379.4,49.2 
		380.2,47 373.3,44.9 374.5,41.5 	"/>
	<polygon class="st0" points="384,50.6 381.8,49.9 382.4,47.7 384.6,48.4 	"/>
	<polygon class="st0" points="368.6,60.6 369.5,57.3 376.3,59.3 377.1,57.1 370.2,55 371.4,51.6 380.2,54.4 380.9,52.2 369.8,48.7 
		365.5,62.2 379,66.3 379.7,64.2 	"/>
	<polygon class="st0" points="380.9,60.8 378.5,60.1 379.3,57.8 381.5,58.5 	"/>
	<polygon class="st0" points="407.9,28.5 408.6,26.3 406.4,25.6 405.7,27.8 	"/>
	<polygon class="st0" points="406.2,34.2 406.9,31.9 395.6,28.4 396.8,25 403.4,27.2 404.1,24.9 395.3,22.1 391,35.6 402.2,39.1 
		402.9,36.9 394.1,34 394.9,30.7 	"/>
	<polygon class="st0" points="399.1,49.2 399.8,47 390.9,44.2 391.8,40.8 403.1,44.3 403.8,42 390.3,37.8 386.2,51.3 395.1,54.2 
		395.8,51.9 389.1,49.8 390.1,46.5 	"/>
	<polygon class="st0" points="399.7,55.5 397.4,54.8 398.1,52.5 400.4,53.2 	"/>
	<polygon class="st0" points="396,59.3 395,62.7 388.2,60.6 387.5,62.8 394.3,65 393.2,68.3 384.3,65.5 383.5,67.8 394.8,71.3 
		398.9,57.8 385.6,53.6 384.8,55.8 	"/>
	<polygon class="st0" points="383.7,59.2 385.9,60 385.3,62.1 383.1,61.4 	"/>
	<polygon class="st0" points="429.7,69.8 430.3,67.5 428.1,66.8 427.5,69.1 	"/>
	<polygon class="st0" points="427.9,75.5 428.6,73.2 417.5,69.7 418.4,66.3 425.3,68.4 426,66.1 416.8,63.3 412.8,76.8 424.1,80.3 
		424.8,78 415.6,75.3 416.8,71.9 	"/>
	<polygon class="st0" points="422.2,54 421.5,56.2 430.5,59 429.5,62.4 418.4,58.8 417.5,61.2 431,65.3 435.2,51.8 426.3,49 
		425.5,51.3 432.2,53.3 431.3,56.7 	"/>
	<polygon class="st0" points="421.8,47.6 424,48.3 423.4,50.6 421.1,49.8 	"/>
	<polygon class="st0" points="425.3,43.9 426.4,40.5 433.2,42.5 433.8,40.3 427.1,38.2 428.2,34.8 437.1,37.7 437.9,35.4 
		426.5,31.9 422.5,45.4 435.9,49.5 436.6,47.4 	"/>
	<polygon class="st0" points="437.6,44 435.4,43.2 436.1,41 438.3,41.7 	"/>
	<polygon class="st0" points="414,64.9 414.7,62.6 412.4,62 411.8,64.2 	"/>
	<polygon class="st0" points="412.2,70.5 413,68.3 401.7,64.8 402.8,61.4 409.5,63.5 410.2,61.3 401.2,58.5 397,72 408.3,75.5 
		409,73.2 399.9,70.4 401.1,67 	"/>
	<polygon class="st0" points="414.9,54.1 415.5,51.9 406.6,49 407.6,45.6 418.9,49.1 419.6,46.9 406,42.8 401.9,56.2 410.9,59 
		411.6,56.8 404.8,54.7 405.9,51.3 	"/>
	<polygon class="st0" points="415.3,60.5 413,59.7 413.7,57.5 416.1,58.2 	"/>
	<polygon class="st0" points="421.4,32.8 420.4,36.1 413.6,34 412.9,36.3 419.6,38.4 418.6,41.7 409.7,38.9 409,41.2 420.2,44.7 
		424.4,31.2 411,27 410.2,29.3 	"/>
	<polygon class="st0" points="409.1,32.7 411.4,33.3 410.7,35.5 408.5,34.8 	"/>
</g>
</svg>
