<?xml version="1.0" encoding="utf-8"?>
<!-- Generator: Adobe Illustrator 24.3.0, SVG Export Plug-In . SVG Version: 6.00 Build 0)  -->
<svg version="1.1" id="Camada_1" xmlns="http://www.w3.org/2000/svg" xmlns:xlink="http://www.w3.org/1999/xlink" x="0px" y="0px"
	 width="600px" height="120px" viewBox="0 0 600 120" style="enable-background:new 0 0 600 120;" xml:space="preserve">
<style type="text/css">
	.st0{fill:#24242B;}
</style>
<polygon class="st0" points="255.4,89 262.6,92.3 258.6,99.1 252.1,95.8 "/>
<polygon class="st0" points="193,95.6 200.2,98.9 196.6,105.7 189.7,102.4 "/>
<polygon class="st0" points="206.8,85.6 211.7,75.5 232.2,85.4 235.5,78.9 215.4,68.6 220.5,58.5 246.9,72.2 250.8,65.3 217,48.3 
	197,88.7 236.8,109 240.4,102.5 "/>
<polygon class="st0" points="245.6,92.5 239,88.7 242.1,82.3 248.5,85.6 "/>
<polygon class="st0" points="106.2,34.6 103,41.4 109.8,44.7 112.8,37.9 "/>
<polygon class="st0" points="114.7,17.6 111.4,24.5 144.6,41.5 139.8,51.5 119.3,41.2 115.9,48.1 143.3,61.7 163.4,21.4 129.4,4.4 
	126.1,11.2 153.5,24.6 147.9,34.7 "/>
<polygon class="st0" points="121.3,88.4 124.7,81.8 97.9,68.2 102.8,58.2 136,75.1 140,68.2 99.6,47.9 79.2,88.3 106,101.9 
	109.6,95.1 89.4,85.1 94.3,75.1 "/>
<polygon class="st0" points="119.3,108.6 112.8,105.2 115.8,98.4 122.7,102.1 "/>
<polygon class="st0" points="153.1,58.3 149.8,65.1 156.6,68.4 159.6,61.6 "/>
<polygon class="st0" points="161.6,41.6 158,48.1 191.8,65.1 186.7,75.3 166.5,65.2 163.2,71.7 190.2,85.4 210.5,45 176.7,28 
	173.3,34.8 200.3,48.5 194.9,58.6 "/>
<polygon class="st0" points="146.5,71.5 153.3,75.2 150,81.8 142.8,78.4 "/>
<g>
	<g>
		<g>
			<polygon class="st0" points="332.6,82.6 333.6,80.7 331.8,80 330.8,81.8 			"/>
			<polygon class="st0" points="330.4,87.4 331.4,85.5 322,80.9 323.5,78.2 329,80.8 329.9,78.9 322.5,75.2 316.9,86.5 326.3,91 
				327.2,89.2 319.9,85.5 321.1,82.7 			"/>
			<polygon class="st0" points="328.5,67.7 327.5,69.7 334.9,73.3 333.6,76.1 324.2,71.5 323.4,73.5 334.6,78.9 340.1,67.7 
				332.7,64.1 331.7,66 337.3,68.7 335.9,71.5 			"/>
			<polygon class="st0" points="328.9,62.2 330.6,63.1 329.8,65 327.9,64.1 			"/>
			<polygon class="st0" points="343.7,55.7 342.3,58.4 336.8,55.7 335.8,57.5 341.4,60.3 339.9,63.1 332.7,59.4 331.7,61.3 
				341,65.9 346.5,54.7 335.4,49.2 334.5,51 			"/>
			<polygon class="st0" points="333,53.8 334.9,54.7 333.9,56.6 332.1,55.7 			"/>
			<polygon class="st0" points="304.9,78.1 304,79.9 305.7,80.9 306.7,79 			"/>
			<polygon class="st0" points="307.1,73.5 306.2,75.3 315.6,80 314,82.7 308.6,80 307.7,81.9 315.1,85.5 320.6,74.3 311.3,69.9 
				310.4,71.6 317.8,75.2 316.5,78 			"/>
			<polygon class="st0" points="315.5,61.4 314.5,63.2 321.9,66.9 320.7,69.7 311.2,65 310.3,66.9 321.5,72.5 326.9,61.3 
				319.7,57.6 318.7,59.5 324.2,62.2 323,65.1 			"/>
			<polygon class="st0" points="315.8,55.8 317.8,56.6 316.8,58.6 314.8,57.7 			"/>
			<polygon class="st0" points="319.5,53 320.9,50.2 326.5,52.9 327.4,51.1 321.8,48.3 323.3,45.5 330.6,49.2 331.6,47.3 
				322.3,42.7 316.9,53.9 327.9,59.4 328.8,57.6 			"/>
			<polygon class="st0" points="330.2,54.8 328.4,53.7 329.2,52 331.1,52.8 			"/>
			<polygon class="st0" points="291.6,39.1 290.7,41.1 292.6,42 293.5,40 			"/>
			<polygon class="st0" points="294,34.5 293,36.3 302.3,41 301,43.7 295.2,41 294.4,42.9 302,46.6 307.5,35.4 298,30.8 297.2,32.6 
				304.7,36.2 303.3,39 			"/>
			<polygon class="st0" points="295.8,53.9 296.8,52.2 289.5,48.4 290.7,45.7 300,50.2 301,48.3 289.8,42.8 284.4,54 291.8,57.7 
				292.8,55.8 287.2,53.1 288.4,50.3 			"/>
			<polygon class="st0" points="295.4,59.5 293.6,58.7 294.4,56.7 296.4,57.7 			"/>
			<polygon class="st0" points="291.8,62.3 290.4,65.1 284.8,62.4 283.9,64.2 289.5,67 288.1,69.9 280.7,66.1 279.7,68 289.1,72.6 
				294.5,61.5 283.4,55.9 282.5,57.7 			"/>
			<polygon class="st0" points="281.1,60.5 282.9,61.5 282,63.4 280.3,62.5 			"/>
			<polygon class="st0" points="304.6,45.6 303.8,47.5 305.7,48.4 306.4,46.5 			"/>
			<polygon class="st0" points="306.9,41 306,42.8 315.3,47.4 314,50.1 308.4,47.4 307.4,49.3 315,53 320.5,41.8 311,37.2 
				310.2,39.1 317.6,42.7 316.2,45.5 			"/>
			<polygon class="st0" points="302.3,54.9 301.5,56.8 308.8,60.4 307.5,63.3 298.2,58.6 297.3,60.4 308.5,66 314,54.8 306.6,51.2 
				305.6,52.9 311.2,55.9 309.8,58.6 			"/>
			<polygon class="st0" points="302.8,49.3 304.8,50.2 303.8,52 301.8,51.2 			"/>
			<polygon class="st0" points="293.7,72.6 295,69.9 300.8,72.6 301.5,70.6 296,67.9 297.4,65.2 304.8,68.9 305.7,67 296.4,62.4 
				290.9,73.5 301.9,79.1 303,77.2 			"/>
			<polygon class="st0" points="304.3,74.4 302.5,73.4 303.4,71.7 305.2,72.5 			"/>
		</g>
	</g>
</g>
<g>
	<g>
		<g>
			<polygon class="st0" points="73.2,38.3 71.4,37.5 70.5,39.3 72.2,40.2 			"/>
			<polygon class="st0" points="77.9,40.6 76,39.6 71.3,48.9 68.6,47.5 71.3,42 69.5,41.2 65.8,48.3 76.9,54.1 81.5,44.8 79.7,43.9 
				75.9,51.1 73.2,49.9 			"/>
			<polygon class="st0" points="58.5,42.3 60.3,43.3 64,36 66.8,37.3 62,46.6 63.9,47.4 69.5,36.3 58.4,30.9 54.8,38.2 56.6,39.2 
				59.4,33.5 62.1,35.1 			"/>
			<polygon class="st0" points="52.9,41.9 53.8,40.1 55.6,41 54.7,42.8 			"/>
			<polygon class="st0" points="46.5,27.2 49.2,28.4 46.5,34 48.2,35 51.1,29.4 53.9,30.9 50.1,38.1 52,39 56.7,29.9 45.5,24.2 
				40,35.3 41.7,36.2 			"/>
			<polygon class="st0" points="44.5,37.7 45.5,35.8 47.4,36.8 46.4,38.6 			"/>
			<polygon class="st0" points="68.5,65.9 70.3,66.9 71.2,65 69.4,64.1 			"/>
			<polygon class="st0" points="63.8,63.6 65.7,64.5 70.4,55.3 73.2,56.8 70.3,62.2 72.1,63.1 75.9,56 64.8,50.2 60.1,59.4 
				61.9,60.3 65.8,53.1 68.5,54.3 			"/>
			<polygon class="st0" points="51.9,55.2 53.7,56.2 57.4,48.8 60.3,50.2 55.5,59.5 57.5,60.4 63,49.3 52,43.8 48.1,51 50,51.9 
				52.8,46.5 55.5,47.8 			"/>
			<polygon class="st0" points="46.3,54.8 47.3,52.9 49.1,53.9 48.2,55.8 			"/>
			<polygon class="st0" points="43.6,51 40.8,49.7 43.6,44.1 41.8,43.2 38.9,48.8 36.2,47.3 39.9,40 38.1,39 33.4,48.2 44.5,53.7 
				50,42.9 48.3,41.8 			"/>
			<polygon class="st0" points="45.5,40.4 44.5,42.2 42.7,41.4 43.6,39.6 			"/>
			<polygon class="st0" points="29.5,78.7 31.4,79.5 32.4,77.8 30.5,76.9 			"/>
			<polygon class="st0" points="24.9,76.3 26.8,77.2 31.4,68.2 34.2,69.4 31.4,75.1 33.3,76 37,68.5 26,63 21.2,72.3 23.2,73.2 
				26.8,65.7 29.6,67.2 			"/>
			<polygon class="st0" points="44.3,74.6 42.5,73.6 38.8,81 36,79.6 40.7,70.6 38.8,69.4 33.2,80.5 44.3,86.1 48,78.8 46.2,77.8 
				43.4,83.3 40.6,82 			"/>
			<polygon class="st0" points="49.9,75.1 49,76.9 47,76.1 48.1,74.2 			"/>
			<polygon class="st0" points="52.6,78.7 55.4,80.2 52.6,85.7 54.5,86.6 57.3,81.1 60,82.5 56.2,89.8 58.1,90.9 62.8,81.5 
				51.7,76.1 46.2,87 47.9,88 			"/>
			<polygon class="st0" points="50.7,89.3 51.7,87.6 53.5,88.4 52.6,90.3 			"/>
			<polygon class="st0" points="36.1,65.8 38,66.8 38.8,64.9 37,64 			"/>
			<polygon class="st0" points="31.5,63.5 33.3,64.5 38,55.2 40.7,56.6 37.9,62.2 39.7,63 43.5,55.6 32.5,50.1 27.7,59.4 29.6,60.3 
				33.4,52.8 36.2,54.3 			"/>
			<polygon class="st0" points="45.3,68.2 47.1,69.1 50.9,61.8 53.7,63.1 49.1,72.4 50.8,73.3 56.4,62.2 45.4,56.6 41.6,64 
				43.4,64.9 46.3,59.3 49.1,60.8 			"/>
			<polygon class="st0" points="39.6,67.6 40.7,65.7 42.5,66.7 41.6,68.6 			"/>
			<polygon class="st0" points="62.8,77 60.1,75.6 62.9,70 61,69.1 58.2,74.6 55.5,73.2 59.3,65.9 57.4,65 52.7,74.2 63.7,79.8 
				69.3,68.8 67.4,67.8 			"/>
			<polygon class="st0" points="64.7,66.3 63.8,68.2 62,67.3 62.9,65.5 			"/>
		</g>
	</g>
</g>
<g>
	<g>
		<g>
			<polygon class="st0" points="353.2,95 352.5,94.7 352.1,95.4 352.8,95.8 			"/>
			<polygon class="st0" points="355.1,95.9 354.4,95.5 352.5,99.3 351.4,98.7 352.5,96.5 351.7,96.2 350.2,99.1 354.7,101.4 
				356.6,97.6 355.9,97.3 354.3,100.2 353.2,99.7 			"/>
			<polygon class="st0" points="347.3,96.6 348,97 349.5,94.1 350.6,94.6 348.7,98.4 349.5,98.7 351.7,94.2 347.2,92 345.8,94.9 
				346.5,95.4 347.6,93.1 348.7,93.7 			"/>
			<polygon class="st0" points="345,96.5 345.4,95.8 346.1,96.1 345.7,96.8 			"/>
			<polygon class="st0" points="342.4,90.5 343.5,91 342.4,93.3 343.1,93.7 344.3,91.4 345.4,92 343.9,94.9 344.6,95.3 346.5,91.6 
				342,89.3 339.8,93.8 340.5,94.2 			"/>
			<polygon class="st0" points="341.6,94.8 342,94 342.8,94.4 342.4,95.1 			"/>
			<polygon class="st0" points="351.3,106.2 352,106.6 352.4,105.8 351.7,105.4 			"/>
			<polygon class="st0" points="349.4,105.2 350.2,105.6 352.1,101.9 353.2,102.5 352,104.7 352.8,105 354.3,102.2 349.8,99.8 
				347.9,103.6 348.7,103.9 350.2,101 351.3,101.5 			"/>
			<polygon class="st0" points="344.6,101.8 345.3,102.3 346.8,99.3 348,99.8 346.1,103.6 346.8,103.9 349.1,99.5 344.6,97.2 
				343.1,100.2 343.8,100.5 345,98.3 346.1,98.9 			"/>
			<polygon class="st0" points="342.3,101.7 342.7,100.9 343.5,101.3 343.1,102.1 			"/>
			<polygon class="st0" points="341.2,100.2 340.1,99.6 341.2,97.4 340.5,97 339.3,99.2 338.2,98.7 339.7,95.7 339,95.3 337.1,99 
				341.6,101.3 343.8,96.9 343.1,96.4 			"/>
			<polygon class="st0" points="342,95.9 341.6,96.6 340.9,96.3 341.3,95.5 			"/>
			<polygon class="st0" points="335.5,111.4 336.3,111.7 336.7,111 335.9,110.6 			"/>
			<polygon class="st0" points="333.6,110.4 334.4,110.8 336.3,107.1 337.4,107.6 336.3,109.9 337.1,110.3 338.6,107.2 334.1,105 
				332.2,108.8 333,109.2 334.4,106.1 335.6,106.7 			"/>
			<polygon class="st0" points="341.5,109.7 340.8,109.3 339.3,112.3 338.1,111.7 340.1,108.1 339.3,107.6 337,112.1 341.5,114.4 
				343,111.4 342.3,111 341.2,113.2 340,112.7 			"/>
			<polygon class="st0" points="343.8,109.9 343.4,110.7 342.6,110.3 343.1,109.6 			"/>
			<polygon class="st0" points="344.9,111.4 346,112 344.9,114.2 345.6,114.6 346.8,112.3 347.9,112.9 346.3,115.9 347.1,116.3 
				349,112.5 344.5,110.3 342.3,114.7 343,115.1 			"/>
			<polygon class="st0" points="344.1,115.7 344.5,115 345.2,115.3 344.9,116.1 			"/>
			<polygon class="st0" points="338.2,106.2 338.9,106.5 339.3,105.8 338.6,105.4 			"/>
			<polygon class="st0" points="336.3,105.2 337.1,105.6 339,101.9 340.1,102.4 338.9,104.7 339.7,105 341.2,102 336.7,99.8 
				334.8,103.5 335.6,103.9 337.1,100.9 338.2,101.5 			"/>
			<polygon class="st0" points="341.9,107.1 342.7,107.5 344.2,104.5 345.3,105.1 343.4,108.8 344.2,109.2 346.4,104.7 342,102.4 
				340.4,105.4 341.2,105.8 342.3,103.5 343.5,104.1 			"/>
			<polygon class="st0" points="339.6,106.9 340.1,106.1 340.8,106.5 340.4,107.3 			"/>
			<polygon class="st0" points="349,110.7 347.9,110.1 349,107.8 348.3,107.5 347.1,109.7 346,109.1 347.6,106.2 346.8,105.8 
				344.9,109.5 349.4,111.8 351.7,107.3 350.9,106.9 			"/>
			<polygon class="st0" points="349.8,106.4 349.4,107.1 348.7,106.7 349.1,106 			"/>
		</g>
	</g>
</g>
<g>
	<g>
		<g>
			<polygon class="st0" points="25.2,92.5 24.8,93.2 25.5,93.7 25.9,93 			"/>
			<polygon class="st0" points="26.2,90.7 25.8,91.4 29.4,93.6 28.7,94.6 26.6,93.4 26.2,94.1 29,95.8 31.6,91.5 28,89.4 27.6,90.1 
				30.4,91.8 29.8,92.9 			"/>
			<polygon class="st0" points="26.3,98.6 26.8,97.9 24,96.2 24.5,95.1 28.2,97.3 28.5,96.6 24.3,93.9 21.7,98.3 24.6,100 25,99.3 
				22.8,98 23.5,96.9 			"/>
			<polygon class="st0" points="26,100.8 25.3,100.4 25.7,99.7 26.4,100.1 			"/>
			<polygon class="st0" points="19.9,103 20.4,101.9 22.6,103.2 23.1,102.5 20.9,101.2 21.6,100.1 24.4,101.8 24.8,101.1 21.3,99 
				18.6,103.3 22.9,105.8 23.4,105.2 			"/>
			<polygon class="st0" points="24.1,104.1 23.3,103.6 23.8,102.9 24.5,103.4 			"/>
			<polygon class="st0" points="36.2,95.2 36.6,94.5 35.9,94.1 35.5,94.8 			"/>
			<polygon class="st0" points="35.1,97.1 35.5,96.3 31.9,94.2 32.6,93.1 34.7,94.4 35.1,93.7 32.4,92 29.7,96.2 33.3,98.4 
				33.7,97.7 30.9,96 31.5,94.9 			"/>
			<polygon class="st0" points="31.3,101.6 31.8,100.9 28.9,99.2 29.6,98.1 33.2,100.3 33.6,99.5 29.3,97 26.7,101.3 29.5,103 
				30,102.3 27.9,101 28.5,99.9 			"/>
			<polygon class="st0" points="31,103.9 30.3,103.4 30.7,102.7 31.5,103.1 			"/>
			<polygon class="st0" points="29.4,104.9 28.8,105.9 26.6,104.7 26.2,105.4 28.4,106.7 27.7,107.7 24.9,106 24.4,106.7 28,108.9 
				30.5,104.6 26.3,102 25.8,102.7 			"/>
			<polygon class="st0" points="25.2,103.8 25.9,104.2 25.5,104.9 24.8,104.5 			"/>
			<polygon class="st0" points="40.2,111.4 40.6,110.6 39.9,110.2 39.5,110.9 			"/>
			<polygon class="st0" points="39,113.2 39.5,112.4 36,110.3 36.6,109.2 38.8,110.5 39.2,109.8 36.3,108 33.7,112.3 37.3,114.5 
				37.8,113.8 34.8,112.1 35.5,111 			"/>
			<polygon class="st0" points="38.9,105.3 38.5,106 41.4,107.7 40.7,108.8 37.2,106.6 36.7,107.4 41,109.9 43.6,105.6 40.8,103.9 
				40.3,104.6 42.4,105.9 41.8,107 			"/>
			<polygon class="st0" points="39.3,103 40,103.5 39.6,104.2 38.9,103.7 			"/>
			<polygon class="st0" points="40.8,102 41.5,101 43.7,102.2 44.1,101.5 42,100.2 42.6,99.2 45.5,100.9 45.9,100.2 42.3,98 
				39.8,102.3 44,104.9 44.5,104.2 			"/>
			<polygon class="st0" points="45.1,103.1 44.4,102.7 44.8,102 45.5,102.4 			"/>
			<polygon class="st0" points="35.2,108.3 35.6,107.6 34.9,107.2 34.5,107.9 			"/>
			<polygon class="st0" points="34.1,110.1 34.5,109.4 30.9,107.3 31.6,106.2 33.7,107.5 34.1,106.8 31.3,105 28.7,109.3 
				32.3,111.5 32.7,110.8 29.8,109 30.5,108 			"/>
			<polygon class="st0" points="36.4,104.7 36.8,104 34,102.2 34.6,101.1 38.2,103.3 38.6,102.6 34.3,100 31.7,104.3 34.6,106 
				35,105.3 32.8,104 33.5,102.9 			"/>
			<polygon class="st0" points="36,106.9 35.3,106.5 35.7,105.8 36.4,106.2 			"/>
			<polygon class="st0" points="40.5,97.9 39.8,98.9 37.7,97.6 37.2,98.4 39.4,99.7 38.7,100.7 35.9,99 35.5,99.7 39,101.9 
				41.6,97.6 37.4,95 36.9,95.7 			"/>
			<polygon class="st0" points="36.2,96.8 37,97.2 36.5,97.9 35.8,97.5 			"/>
		</g>
	</g>
</g>
<polygon class="st0" points="71.6,120 74,115.4 67.5,111.7 64.1,118.6 66.9,120 "/>
<g>
	<g>
		<polygon class="st0" points="105.4,120 113.8,120 116,115.5 75.9,95.2 72.7,101.7 106.1,118.6 		"/>
		<polygon class="st0" points="80.1,120 83.3,120 80.8,118.8 		"/>
	</g>
</g>
<g>
	<g>
		<polygon class="st0" points="158.1,120 129.2,105.5 125.9,112 142,120 		"/>
		<polygon class="st0" points="164.2,120 172.6,120 186.5,92.3 159.8,78.6 156.4,85.1 176.7,95.4 171.5,105.5 144.5,91.9 
			141.5,98.7 167.8,112.3 		"/>
	</g>
</g>
<g>
	<g>
		<polygon class="st0" points="223.1,120 231.3,120 233.4,115.8 207,102.3 203.7,109.1 223.6,119 		"/>
		<polygon class="st0" points="200.2,120 191.7,115.8 189.6,120 		"/>
	</g>
</g>
<g>
	<g>
		<polygon class="st0" points="289.2,105.9 269.1,95.9 265.4,102.4 285.9,112.7 282,120 290.6,120 304.6,92.6 264.2,72.3 
			260.8,78.9 294.1,95.8 		"/>
		<polygon class="st0" points="275,120 254,109.2 250.8,116 258.5,120 		"/>
	</g>
</g>
<polygon class="st0" points="547.7,93.7 553.8,96.5 550.4,102.3 544.9,99.5 "/>
<polygon class="st0" points="494.9,99.3 501,102.1 497.9,107.9 492.1,105.1 "/>
<polygon class="st0" points="506.6,90.8 510.7,82.3 528.1,90.7 530.9,85.2 513.8,76.5 518.2,67.9 540.5,79.5 543.8,73.7 515.2,59.3 
	498.3,93.5 531.9,110.7 535,105.2 "/>
<polygon class="st0" points="539.4,96.7 533.8,93.5 536.4,88.1 541.9,90.9 "/>
<polygon class="st0" points="421.4,47.8 418.7,53.5 424.4,56.3 427,50.5 "/>
<polygon class="st0" points="428.6,33.3 425.8,39.2 453.9,53.5 449.8,62.1 432.5,53.3 429.7,59.2 452.8,70.7 469.8,36.5 441.1,22.2 
	438.2,27.9 461.4,39.2 456.8,47.8 "/>
<polygon class="st0" points="434.2,93.3 437,87.7 414.4,76.2 418.5,67.7 446.6,82 450,76.2 415.8,59 398.6,93.2 421.3,104.7 
	424.3,98.9 407.2,90.5 411.3,82 "/>
<polygon class="st0" points="432.5,110.4 427,107.5 429.5,101.8 435.4,104.8 "/>
<polygon class="st0" points="461.1,67.8 458.3,73.5 464.1,76.3 466.6,70.6 "/>
<polygon class="st0" points="468.3,53.7 465.3,59.2 493.9,73.5 489.6,82.1 472.4,73.7 469.7,79.1 492.5,90.7 509.7,56.6 481.1,42.2 
	478.2,47.9 501.1,59.5 496.5,68.1 "/>
<polygon class="st0" points="455.5,79 461.3,82.1 458.5,87.7 452.4,84.8 "/>
<g>
	<g>
		<g>
			<polygon class="st0" points="397.4,42.6 395.6,41.8 394.6,43.5 396.4,44.5 			"/>
			<polygon class="st0" points="402.1,44.9 400.2,43.9 395.5,53.2 392.8,51.8 395.5,46.3 393.7,45.4 390,52.6 401,58.3 405.6,49.1 
				403.9,48.2 400.1,55.4 397.4,54.2 			"/>
			<polygon class="st0" points="382.7,46.5 384.5,47.6 388.2,40.3 391,41.5 386.2,50.9 388.1,51.6 393.7,40.6 382.6,35.1 
				378.9,42.4 380.8,43.5 383.6,37.8 386.3,39.4 			"/>
			<polygon class="st0" points="377,46.2 378,44.4 379.8,45.3 378.9,47.1 			"/>
			<polygon class="st0" points="370.7,31.4 373.4,32.6 370.7,38.3 372.4,39.3 375.3,33.7 378.1,35.1 374.3,42.3 376.2,43.3 
				380.8,34.2 369.7,28.5 364.2,39.6 365.9,40.5 			"/>
			<polygon class="st0" points="368.7,42 369.7,40.1 371.6,41.1 370.6,42.9 			"/>
			<polygon class="st0" points="392.7,70.2 394.5,71.1 395.4,69.3 393.6,68.4 			"/>
			<polygon class="st0" points="388,67.8 389.9,68.8 394.6,59.5 397.4,61.1 394.5,66.4 396.3,67.4 400.1,60.2 389,54.5 384.3,63.7 
				386.1,64.6 390,57.4 392.7,58.6 			"/>
			<polygon class="st0" points="376.1,59.5 377.9,60.5 381.6,53.1 384.5,54.4 379.7,63.7 381.6,64.6 387.2,53.6 376.2,48.1 
				372.3,55.3 374.2,56.2 377,50.8 379.7,52.1 			"/>
			<polygon class="st0" points="370.5,59.1 371.5,57.2 373.3,58.2 372.4,60.1 			"/>
			<polygon class="st0" points="367.8,55.3 365,53.9 367.8,48.4 366,47.5 363.1,53 360.4,51.6 364.1,44.3 362.2,43.2 357.6,52.5 
				368.6,58 374.2,47.2 372.5,46.1 			"/>
			<polygon class="st0" points="369.7,44.7 368.7,46.5 366.9,45.7 367.8,43.9 			"/>
			<polygon class="st0" points="353.7,83 355.6,83.8 356.6,82 354.6,81.1 			"/>
			<polygon class="st0" points="349,80.5 351,81.5 355.6,72.4 358.4,73.7 355.6,79.4 357.5,80.3 361.2,72.8 350.1,67.3 345.4,76.5 
				347.3,77.5 351,70 353.8,71.5 			"/>
			<polygon class="st0" points="368.5,78.8 366.7,77.9 362.9,85.2 360.2,83.9 364.9,74.8 363,73.7 357.4,84.7 368.5,90.4 
				372.2,83.1 370.4,82.1 367.6,87.6 364.8,86.3 			"/>
			<polygon class="st0" points="374.1,79.4 373.2,81.2 371.2,80.4 372.3,78.5 			"/>
			<polygon class="st0" points="376.8,82.9 379.6,84.4 376.8,90 378.7,90.9 381.4,85.4 384.2,86.8 380.4,94.1 382.3,95.1 387,85.8 
				375.9,80.3 370.4,91.3 372,92.2 			"/>
			<polygon class="st0" points="374.9,93.6 375.9,91.8 377.7,92.7 376.7,94.6 			"/>
			<polygon class="st0" points="360.3,70.1 362.1,71 363,69.2 361.2,68.3 			"/>
			<polygon class="st0" points="355.7,67.7 357.5,68.7 362.2,59.5 364.9,60.9 362.1,66.4 363.9,67.3 367.7,59.9 356.6,54.3 
				351.9,63.6 353.8,64.5 357.6,57.1 360.4,58.6 			"/>
			<polygon class="st0" points="369.5,72.5 371.3,73.3 375.1,66 377.9,67.4 373.2,76.6 375,77.6 380.6,66.4 369.6,60.9 365.8,68.3 
				367.6,69.2 370.5,63.6 373.3,65.1 			"/>
			<polygon class="st0" points="363.8,71.9 364.9,70 366.7,70.9 365.8,72.9 			"/>
			<polygon class="st0" points="387,81.2 384.3,79.8 387,74.3 385.2,73.3 382.4,78.9 379.7,77.5 383.4,70.2 381.5,69.3 376.8,78.4 
				387.9,84.1 393.5,73.1 391.6,72 			"/>
			<polygon class="st0" points="388.9,70.6 388,72.5 386.2,71.6 387.1,69.8 			"/>
		</g>
	</g>
</g>
<g>
	<g>
		<g>
			<polygon class="st0" points="537.1,41.2 536.7,41.9 537.5,42.3 537.8,41.6 			"/>
			<polygon class="st0" points="538,39.3 537.6,40.1 541.4,42 540.8,43.1 538.6,42 538.2,42.7 541.1,44.2 543.5,39.7 539.7,37.9 
				539.4,38.6 542.3,40.1 541.8,41.2 			"/>
			<polygon class="st0" points="538.7,47.2 539.1,46.4 536.2,44.9 536.7,43.8 540.5,45.7 540.8,45 536.3,42.7 534.1,47.2 537,48.7 
				537.5,47.9 535.2,46.8 535.8,45.7 			"/>
			<polygon class="st0" points="538.6,49.4 537.8,49 538.2,48.3 538.9,48.7 			"/>
			<polygon class="st0" points="532.6,52 533.1,50.9 535.3,52 535.8,51.3 533.5,50.2 534.1,49 537,50.5 537.4,49.8 533.7,47.9 
				531.4,52.4 535.9,54.7 536.3,54 			"/>
			<polygon class="st0" points="536.9,52.8 536.1,52.4 536.5,51.7 537.2,52.1 			"/>
			<polygon class="st0" points="548.3,43.1 548.7,42.4 547.9,42 547.5,42.7 			"/>
			<polygon class="st0" points="547.3,45 547.7,44.2 544,42.3 544.6,41.2 546.7,42.4 547.1,41.6 544.2,40.1 541.9,44.6 545.6,46.5 
				546,45.8 543.1,44.2 543.6,43.1 			"/>
			<polygon class="st0" points="543.9,49.8 544.3,49.1 541.4,47.6 541.9,46.4 545.7,48.4 546,47.6 541.5,45.3 539.3,49.8 
				542.2,51.4 542.6,50.6 540.4,49.4 540.9,48.4 			"/>
			<polygon class="st0" points="543.8,52.1 543,51.7 543.4,50.9 544.2,51.3 			"/>
			<polygon class="st0" points="542.2,53.2 541.7,54.3 539.4,53.2 539.1,53.9 541.3,55.1 540.7,56.2 537.8,54.7 537.4,55.4 
				541.1,57.3 543.3,52.8 538.9,50.6 538.5,51.3 			"/>
			<polygon class="st0" points="537.9,52.4 538.7,52.8 538.3,53.5 537.6,53.2 			"/>
			<polygon class="st0" points="553.5,58.9 553.8,58.1 553.1,57.7 552.7,58.5 			"/>
			<polygon class="st0" points="552.5,60.8 552.9,60 549.2,58.1 549.7,57 552,58.1 552.4,57.4 549.3,55.8 547.1,60.3 550.9,62.2 
				551.2,61.5 548.2,60 548.8,58.9 			"/>
			<polygon class="st0" points="551.8,52.9 551.4,53.6 554.4,55.1 553.8,56.3 550.2,54.4 549.7,55.1 554.2,57.4 556.5,52.9 
				553.5,51.4 553.1,52.1 555.3,53.2 554.8,54.4 			"/>
			<polygon class="st0" points="552,50.6 552.7,51 552.4,51.8 551.6,51.4 			"/>
			<polygon class="st0" points="553.4,49.5 554,48.4 556.3,49.5 556.7,48.8 554.4,47.6 555,46.5 558,48.1 558.4,47.3 554.6,45.4 
				552.4,49.9 556.8,52.1 557.2,51.5 			"/>
			<polygon class="st0" points="557.8,50.3 557,49.9 557.4,49.2 558.1,49.5 			"/>
			<polygon class="st0" points="548.2,56.2 548.6,55.5 547.9,55.1 547.5,55.9 			"/>
			<polygon class="st0" points="547.3,58.1 547.7,57.3 543.9,55.5 544.5,54.3 546.8,55.5 547.1,54.8 544.1,53.2 541.9,57.7 
				545.6,59.6 546,58.8 543,57.3 543.6,56.2 			"/>
			<polygon class="st0" points="549.2,52.5 549.6,51.8 546.6,50.2 547.1,49.1 550.9,51 551.3,50.2 546.8,48 544.5,52.5 547.5,54 
				547.9,53.3 545.6,52.1 546.2,51 			"/>
			<polygon class="st0" points="549,54.8 548.2,54.3 548.6,53.6 549.4,54 			"/>
			<polygon class="st0" points="552.7,45.4 552.2,46.5 549.9,45.4 549.5,46.1 551.8,47.3 551.2,48.4 548.3,46.8 547.9,47.6 
				551.6,49.5 553.9,45 549.4,42.8 549,43.5 			"/>
			<polygon class="st0" points="548.4,44.6 549.2,45 548.8,45.7 548.1,45.4 			"/>
		</g>
	</g>
</g>
<polygon class="st0" points="392.1,120 394.1,116.1 388.6,113 385.8,118.8 388.1,120 "/>
<g>
	<g>
		<polygon class="st0" points="420.8,120 427.8,120 429.7,116.2 395.8,99 393,104.5 421.4,118.8 		"/>
		<polygon class="st0" points="399.4,120 402.1,120 399.9,118.9 		"/>
	</g>
</g>
<g>
	<g>
		<polygon class="st0" points="465.4,120 440.9,107.7 438.1,113.2 451.7,120 		"/>
		<polygon class="st0" points="470.5,120 477.7,120 489.4,96.5 466.8,84.9 463.9,90.5 481.1,99.2 476.7,107.7 453.8,96.2 451.3,102 
			473.6,113.5 		"/>
	</g>
</g>
<g>
	<g>
		<polygon class="st0" points="520.4,120 527.3,120 529.1,116.5 506.8,105 503.9,110.7 520.8,119.2 		"/>
		<polygon class="st0" points="500.9,120 493.8,116.5 492,120 		"/>
	</g>
</g>
<g>
	<g>
		<polygon class="st0" points="576.3,108.1 559.3,99.6 556.2,105.1 573.5,113.8 570.2,120 577.5,120 589.3,96.8 555.2,79.6 
			552.3,85.2 580.4,99.6 		"/>
		<polygon class="st0" points="564.3,120 546.5,110.8 543.8,116.6 550.4,120 		"/>
	</g>
</g>
</svg>
