<?xml version="1.0" encoding="utf-8"?>
<!-- Generator: Adobe Illustrator 24.3.0, SVG Export Plug-In . SVG Version: 6.00 Build 0)  -->
<svg version="1.1" id="Camada_1" xmlns="http://www.w3.org/2000/svg" xmlns:xlink="http://www.w3.org/1999/xlink" x="0px" y="0px"
	 width="700px" height="300px" viewBox="0 0 700 300" style="enable-background:new 0 0 700 300;" xml:space="preserve">
<style type="text/css">
	.st0{fill:#16161A;}
</style>
<g>
	<g>
		<g>
			<polygon class="st0" points="475.7,193.6 474.3,181.5 462.2,183 463.6,195 			"/>
			<polygon class="st0" points="479.9,224.6 478.6,211.8 416,219.1 414.3,201 451.5,196.3 449.4,184.1 400.6,189.7 408.9,264.7 
				471.1,256.8 469.3,245.1 420.2,250.2 417.7,231.7 			"/>
			<polygon class="st0" points="406.5,132.1 407.7,144.9 456.9,139.1 459.5,157.5 396.9,164.8 398.9,177.1 473.7,168.4 464.6,94 
				415.2,99.9 416.1,112.3 454,107.9 455.6,126.9 			"/>
			<polygon class="st0" points="389.8,102.7 402,101.4 403.5,114 391.4,115.3 			"/>
			<polygon class="st0" points="443.3,21 445.7,39.4 408.5,44 409.4,56.4 447.4,51.9 449,70.9 399.8,76.2 401.5,88.7 463.1,81.9 
				454.9,6.9 380.2,15.6 381.5,27.8 			"/>
			<polygon class="st0" points="383.1,46.8 396.2,44.8 396.9,58 384.8,59.3 			"/>
			<polygon class="st0" points="320.9,261.9 322.2,273.9 334.3,272.6 333,260.6 			"/>
			<polygon class="st0" points="316.7,230.9 318.3,243.4 380.9,236 382.5,255 345.5,258.9 347.1,271.5 396,265.9 387.7,190.9 
				325.9,198.4 327.2,210.5 376.3,205.3 379.3,223.4 			"/>
			<polygon class="st0" points="319.2,142.5 320.6,154.5 370.1,149 372.7,167.6 310.1,174.9 311.7,187.5 386.4,178.8 377.2,104.4 
				328.1,109.5 329.7,122.1 366.5,117.7 369,136.2 			"/>
			<polygon class="st0" points="302.6,113.1 315.5,111.2 316.7,124 304.2,125.6 			"/>
			<polygon class="st0" points="312.5,86.5 310.1,68 347.7,63.2 346.3,51 308.9,55.2 306.7,36.4 356,31.2 355.2,18.1 292.6,25.5 
				301.7,100 375.6,91.8 374.7,79.5 			"/>
			<polygon class="st0" points="372.7,60.7 360.2,61.5 358.5,49.8 370.5,48.5 			"/>
			<polygon class="st0" points="126.1,107.8 127.8,120.3 140.3,118.7 138.2,106.4 			"/>
			<polygon class="st0" points="122.4,76.5 124.1,89.1 185.7,82.3 188.2,100.7 150.3,105.1 151.9,117.7 202.4,111.6 193.3,37.1 
				130.7,44.7 132.3,57.1 182.5,50.7 184.2,69.7 			"/>
			<polygon class="st0" points="196.3,168.8 194.9,156.6 145.3,162.1 142.9,143.7 204.6,136.9 203.7,123.7 129.1,132.5 137.8,207.1 
				187.4,201.6 186.2,188.8 149,193.3 146.5,174.9 			"/>
			<polygon class="st0" points="212,198.7 200,200 197.8,187.8 210.8,186.5 			"/>
			<polygon class="st0" points="202.9,224.7 205,243.4 167.7,248 169,260.1 206.6,256 208.6,274.7 159.1,280.2 160.3,293.1 
				222.8,285.6 213.7,211.3 139.4,219.7 140.8,231.8 			"/>
			<polygon class="st0" points="142.8,250.6 155.2,249.7 156.5,261.7 144.4,263.1 			"/>
			<polygon class="st0" points="213,97.8 214.5,110.3 227.1,108.7 225,96.5 			"/>
			<polygon class="st0" points="209.5,66.9 210.4,79.3 272.9,71.9 275.1,90.7 237.9,95.2 239.3,107.2 289.2,101.5 280.6,26.9 
				218,34.3 219.5,46.8 269.6,41.1 271.3,60.1 			"/>
			<polygon class="st0" points="231.7,152.4 233.8,164.6 282.9,159.4 285.5,177.9 222.8,185.3 224.2,197.3 299.3,188.3 290.4,114.4 
				240.9,119.9 242.1,132 279.7,127.8 281.7,146.6 			"/>
			<polygon class="st0" points="215.8,122.4 228.7,121.2 230.1,133.3 217,135.2 			"/>
			<polygon class="st0" points="245.9,270.2 243.6,252.2 281.3,247.2 279.7,234.7 242.5,239.3 240.4,220.5 289.5,215.4 288.3,202.5 
				226.2,209.6 235,284.3 309.2,275.9 308,263.1 			"/>
			<polygon class="st0" points="305.9,244.3 293.4,246 292.1,233.8 304.2,232.5 			"/>
		</g>
	</g>
</g>
<g>
	<g>
		<g>
			<polygon class="st0" points="62.5,242 65.9,241.6 65.3,238.4 62,238.7 			"/>
			<polygon class="st0" points="53.8,243.2 57.4,242.9 55.4,225.6 60.4,225.2 61.6,235.3 65.2,234.9 63.5,221.2 42.9,223.6 
				45,240.8 48.3,240.4 46.9,226.7 51.9,226 			"/>
			<polygon class="st0" points="79.5,222.8 75.8,223.3 77.5,236.8 72.4,237.6 70.3,220.2 66.9,220.8 69.4,241.4 90,239 88.3,225.3 
				84.8,225.6 86.1,235.9 80.9,236.5 			"/>
			<polygon class="st0" points="87.7,218.4 87.9,221.6 84.5,222.1 84.1,218.7 			"/>
			<polygon class="st0" points="110.1,233.1 105,233.7 103.9,223.5 100.4,223.7 101.5,234.2 96.3,234.6 94.9,221.1 91.4,221.5 
				93.4,238.6 114,236.3 111.6,215.7 108.3,216 			"/>
			<polygon class="st0" points="103.1,216.5 103.5,220 99.9,220.3 99.5,216.9 			"/>
			<polygon class="st0" points="43.6,199.2 40.2,199.5 40.6,202.9 44,202.6 			"/>
			<polygon class="st0" points="52.1,198.1 48.7,198.6 50.6,215.9 45.5,216.2 44.4,206.1 40.9,206.6 42.6,220.1 63.2,217.7 
				61,200.7 57.6,201 59.3,214.6 54.2,215.3 			"/>
			<polygon class="st0" points="76.6,198.8 73.2,199.2 74.7,212.8 69.7,213.6 67.6,196.2 64.2,196.7 66.6,217.3 87.1,214.8 
				85.6,201.3 82.1,201.6 83.3,211.8 78.2,212.7 			"/>
			<polygon class="st0" points="84.7,194.2 85.3,197.8 81.6,198.2 81.2,194.7 			"/>
			<polygon class="st0" points="92,196.9 97.2,196.3 98.4,206.6 101.7,206.3 100.6,195.8 105.9,195.4 107.3,208.9 110.8,208.8 
				108.8,191.5 88.4,194.1 90.6,214.3 93.9,214.1 			"/>
			<polygon class="st0" points="99.2,213.6 99,210.1 102.1,209.7 102.6,212.9 			"/>
			<polygon class="st0" points="86.1,145.4 82.6,145.9 83.1,149.4 86.5,148.8 			"/>
			<polygon class="st0" points="94.7,144.5 91.4,144.8 93.2,162 88.1,162.6 86.8,152.2 83.3,152.6 85,166.6 105.7,164.2 
				103.6,146.8 100.2,147.3 102,161 96.7,161.6 			"/>
			<polygon class="st0" points="69.2,164.7 72.6,164.5 71.2,150.9 76.2,150.1 78.2,167.2 81.7,166.8 79.4,146.2 58.7,148.7 
				60.2,162.4 63.8,162.1 62.6,151.9 67.7,151 			"/>
			<polygon class="st0" points="61.1,169.2 60.6,165.9 64,165.3 64.5,168.8 			"/>
			<polygon class="st0" points="53.8,166.6 48.7,167.2 47.4,156.9 44.1,157.2 45.2,167.7 40,168.2 38.6,154.6 35.1,154.9 
				37.1,172.1 57.5,169.6 55.2,149 51.9,149.6 			"/>
			<polygon class="st0" points="46.8,150 46.9,153.5 43.5,154 43.2,150.6 			"/>
			<polygon class="st0" points="88.8,169.4 85.4,170 85.9,173.4 89.2,172.8 			"/>
			<polygon class="st0" points="97.4,168.5 94,168.8 96,186 90.9,186.6 89.6,176.3 86.3,176.7 87.9,190.5 108.5,188.2 106.4,170.8 
				103,171.3 104.6,185 99.4,185.5 			"/>
			<polygon class="st0" points="73.8,174.7 70.4,175.2 71.9,188.7 66.8,189.4 64.8,172.2 61.4,172.6 63.9,193.3 84.4,190.8 
				82.9,177.1 79.5,177.5 80.5,187.9 75.4,188.4 			"/>
			<polygon class="st0" points="82,170.2 82.5,173.8 79.1,174.1 78.5,170.5 			"/>
			<polygon class="st0" points="41.3,178.6 46.2,177.9 47.6,188.5 51.1,187.8 49.9,177.7 55,177.1 56.5,190.7 59.9,190.2 58,173.2 
				37.4,175.5 39.6,195.9 43.3,195.8 			"/>
			<polygon class="st0" points="48.4,195.1 48,191.5 51.2,191.3 51.8,194.6 			"/>
		</g>
	</g>
</g>
<g>
	<g>
		<g>
			<polygon class="st0" points="614.7,59.3 607.1,60.2 607.8,67.9 615.6,67 			"/>
			<polygon class="st0" points="634.3,56.5 626.3,57.5 631,96.6 619.4,97.7 616.3,74.7 608.9,75.9 612.2,106.3 659.1,101.2 
				654.2,62.3 647.1,63.3 650.1,93.9 638.9,95.7 			"/>
			<polygon class="st0" points="576.4,102.6 584.4,102 580.6,71.2 592.1,69.3 596.9,108.7 604.3,107.3 598.9,60.6 552.3,66.6 
				556.1,97.3 564,96.8 561,73 572.9,72.1 			"/>
			<polygon class="st0" points="558.1,113.2 557.3,105.7 564.7,104.5 565.6,112 			"/>
			<polygon class="st0" points="506.8,79.9 518.1,78.1 521.2,101.5 529,101.1 526,77.3 538.1,76.2 541.4,106.8 549.1,105.9 
				544.8,67.5 497.7,72.6 503.5,119.2 510.9,118.6 			"/>
			<polygon class="st0" points="522.9,117.6 521.8,109.4 529.9,108.8 530.7,116.3 			"/>
			<polygon class="st0" points="657.7,156.1 665.4,155.4 664.4,147.7 656.7,148.6 			"/>
			<polygon class="st0" points="637.9,158.7 645.9,157.6 641.4,118.6 653.3,117.7 655.5,140.6 663.4,139.7 660.1,109.1 613.3,114.2 
				617.7,153.2 625.2,152.3 622.2,121.5 633.3,119.5 			"/>
			<polygon class="st0" points="582.8,157.2 590.5,156.5 586.9,125.6 598.5,123.7 603.1,162.9 611.1,161.9 605.5,115.1 559,120.9 
				562.2,151.9 570.1,150.8 567.4,127.7 578.8,126.3 			"/>
			<polygon class="st0" points="564.3,167.6 563.4,159.7 571.4,158.8 572.4,166.8 			"/>
			<polygon class="st0" points="547.8,161.5 536.2,163 533.3,139.6 525.7,140.3 528.3,164.1 516.7,165.2 513.1,134.4 505,135 
				509.7,174 556.3,168.2 551.2,122.2 543.3,122.7 			"/>
			<polygon class="st0" points="531.6,124 532.1,131.8 524.9,132.8 524,125.1 			"/>
			<polygon class="st0" points="561.4,278.2 569.2,277 568.5,269.3 560.7,270.6 			"/>
			<polygon class="st0" points="541.7,280.4 549.6,279.6 545.3,241 556.7,239.2 559.7,263 567.7,262 563.8,230.3 517.2,236.2 
				521.8,275.4 529.8,274.4 525.7,242.8 537.6,241.9 			"/>
			<polygon class="st0" points="599.4,234.1 591.7,235 595.3,266.1 583.7,267.6 579.5,229.1 571.1,229.5 576.9,276.1 623.6,270.7 
				620.2,239.9 612.1,240.5 615,263.5 603.4,265.4 			"/>
			<polygon class="st0" points="618.2,224.2 619.1,231.9 611.3,233.2 610.7,225.1 			"/>
			<polygon class="st0" points="634.2,229.8 646.2,228.6 649.2,252 656.8,250.9 654.1,227.7 665.9,226.4 669,257.4 677.1,256.7 
				672.4,217.3 625.9,223.5 631.5,269.6 638.8,269.1 			"/>
			<polygon class="st0" points="650.6,267.5 650.1,259.7 657.7,258.8 658.6,266.5 			"/>
			<polygon class="st0" points="555.1,223.8 563,223 561.8,215.2 554.2,216.3 			"/>
			<polygon class="st0" points="535.6,226 543.5,225.4 538.9,186.4 550.6,185 553.3,208.4 560.9,207.4 557.3,176.2 510.6,181.7 
				515.2,220.9 523.1,219.9 519.2,188.4 531.3,187.5 			"/>
			<polygon class="st0" points="589.2,212.1 596.7,210.9 593.5,179.9 605.1,178.4 609.8,217.4 617.5,216.5 611.6,169.7 565.2,175.3 
				568.8,206.4 576.5,205.7 573.7,182.1 585.6,180.8 			"/>
			<polygon class="st0" points="570.2,221.9 569.5,213.9 577.3,213 578.3,221.1 			"/>
			<polygon class="st0" points="662.8,203 651.4,204.3 648.5,181 640.6,181.8 643.3,205.2 631.9,206.6 628.5,175.7 620.6,176.6 
				625.1,215.4 671.8,210 666.4,163.5 658.3,164.2 			"/>
			<polygon class="st0" points="646.5,165.5 647.8,173.3 640.1,174.2 639.2,166.5 			"/>
		</g>
	</g>
</g>
</svg>
