<?xml version="1.0" encoding="utf-8"?>
<!-- Generator: Adobe Illustrator 24.3.0, SVG Export Plug-In . SVG Version: 6.00 Build 0)  -->
<svg version="1.1" id="Camada_1" xmlns="http://www.w3.org/2000/svg" xmlns:xlink="http://www.w3.org/1999/xlink" x="0px" y="0px"
	 width="600px" height="300px" viewBox="0 0 600 300" style="enable-background:new 0 0 600 300;" xml:space="preserve">
<style type="text/css">
	.st0{fill:#2B2B32;}
</style>
<g>
	<g>
		<polygon class="st0" points="441.2,237.7 443.1,225.6 431,223.9 429.2,235.9 		"/>
		<polygon class="st0" points="437,268.7 439.2,256 376.9,246.6 380.1,228.6 417.1,233.9 418.3,221.6 369.8,214.1 358,288.6 
			420.1,297.4 421.5,285.6 372.7,277.7 375.2,259.1 		"/>
		<polygon class="st0" points="390.7,160.1 388.4,172.8 437.5,180.1 435.1,198.6 372.8,189.1 371.5,201.5 445.9,212.8 456.7,138.7 
			407.5,131.4 405.1,143.5 442.9,149.3 439.4,168 		"/>
		<polygon class="st0" points="382.3,127.4 394.3,129.3 392.5,141.9 380.6,139.9 		"/>
		<polygon class="st0" points="455.4,62.6 452.9,81 415.8,75.6 413.4,87.8 451.2,93.5 447.8,112.3 398.9,104.4 397.3,116.9 
			458.5,126.6 470.3,52.1 396,40.8 394,52.9 		"/>
		<polygon class="st0" points="390.6,71.7 403.7,73.2 400.9,86.1 388.9,84.2 		"/>
		<polygon class="st0" points="273.9,262.7 271.9,274.7 283.9,276.6 285.8,264.6 		"/>
		<polygon class="st0" points="278,231.7 276.2,244.2 338.6,253.6 335.1,272.4 298.4,266.4 296.6,278.9 345.3,286.4 357,211.9 
			295.4,202.8 293.5,214.8 342.2,222.7 340.4,241.1 		"/>
		<polygon class="st0" points="303.7,147.1 301.9,159.1 351.1,166.9 348.7,185.4 286.3,176 284.6,188.5 359,199.8 369.7,125.6 
			321,117.7 319.2,130.2 355.8,135.7 353.4,154.2 		"/>
		<polygon class="st0" points="295.4,114.4 308.4,115.9 306.2,128.6 293.7,126.9 		"/>
		<polygon class="st0" points="312,91.4 314.6,72.9 352.1,78.1 354,66 316.8,60.2 319.7,41.5 368.5,49.5 371.2,36.7 308.9,27.2 
			298.1,101.5 371.5,113.1 373.9,100.9 		"/>
		<polygon class="st0" points="376.9,82.3 364.6,79.8 366.1,68 378,70 		"/>
		<polygon class="st0" points="126.6,62.8 124.9,75.2 137.4,76.9 138.7,64.6 		"/>
		<polygon class="st0" points="131.2,31.5 129.6,44.1 190.8,53.8 188.4,72.2 150.6,66.5 148.9,79.1 199.2,86.5 210.1,12.3 147.7,3 
			145.9,15.5 196.1,22.5 192.6,41.3 		"/>
		<polygon class="st0" points="178.2,140.1 180.1,127.9 130.8,120.2 133.3,101.8 194.6,111.5 197.3,98.5 122.9,87.3 111.6,161.6 
			161,169.4 163.2,156.7 126.1,151.3 128.6,132.9 		"/>
		<polygon class="st0" points="185.5,173.1 173.5,171.1 174.7,158.8 187.5,161 		"/>
		<polygon class="st0" points="169.8,195.7 166.9,214.3 129.8,209 127.8,220.9 165.2,227 162.1,245.5 112.9,237.7 110.7,250.5 
			173,259.8 183.8,185.6 109.9,174.2 108.1,186.2 		"/>
		<polygon class="st0" points="105.1,204.8 117.3,207.3 115.3,219.2 103.3,217.4 		"/>
		<polygon class="st0" points="213,76 211.2,88.5 223.8,90.2 225,77.9 		"/>
		<polygon class="st0" points="217.8,45.3 215.5,57.4 277.7,66.8 274.9,85.5 237.7,80.1 235.9,92 285.6,99.7 296.9,25.4 234.6,16 
			232.8,28.5 282.6,36.2 279.2,55 		"/>
		<polygon class="st0" points="216.7,133.6 215.5,145.9 264.2,153.9 261.9,172.4 199.5,163 197.6,175 272.4,186.1 283.3,112.5 
			234.1,104.6 232.1,116.7 269.5,122.5 266.5,141.2 		"/>
		<polygon class="st0" points="209.3,100.4 222.1,102.7 220.2,114.8 207.1,113.2 		"/>
		<polygon class="st0" points="199.3,250.9 201.9,233 239.5,238.2 241.3,225.6 204.2,220.3 207.1,201.6 255.8,209.6 258.1,196.9 
			196.3,187.3 185.1,261.7 258.9,273.2 261.1,260.5 		"/>
		<polygon class="st0" points="264.1,241.8 251.5,240.1 253.5,228 265.5,230 		"/>
	</g>
</g>
<g>
	<g>
		<polygon class="st0" points="480.1,247.9 483.5,248.5 483.8,245.2 480.4,244.6 		"/>
		<polygon class="st0" points="471.4,246.9 474.9,247.5 477.4,230.3 482.4,231.2 481,241.3 484.5,241.8 486.5,228.1 465.9,225.1 
			463.5,242.2 466.8,242.7 469,229.2 474,229.7 		"/>
		<polygon class="st0" points="501.5,233.8 497.8,233.3 495.9,246.8 490.8,246.2 493.3,228.9 489.8,228.6 486.9,249.2 507.4,252.1 
			509.4,238.5 505.9,237.9 504.5,248.2 499.3,247.4 		"/>
		<polygon class="st0" points="510.5,231.6 509.9,234.8 506.5,234.4 507,231 		"/>
		<polygon class="st0" points="528.4,251.7 523.3,250.9 524.8,240.8 521.4,240.1 519.8,250.4 514.7,249.5 516.8,236.1 513.3,235.6 
			510.8,252.7 531.3,255.7 534.4,235.2 531,234.7 		"/>
		<polygon class="st0" points="525.9,233.8 525.4,237.3 521.8,236.6 522.3,233.3 		"/>
		<polygon class="st0" points="472.9,201.7 469.6,201.2 469,204.5 472.4,205 		"/>
		<polygon class="st0" points="481.4,202.8 478,202.4 475.4,219.7 470.3,218.6 471.9,208.6 468.4,208.1 466.5,221.7 487.1,224.6 
			489.3,207.7 486,207.1 484.1,220.7 479,220 		"/>
		<polygon class="st0" points="504.8,209.9 501.5,209.3 499.4,222.9 494.4,222.4 496.9,205 493.5,204.6 490.4,225.1 510.8,228 
			513,214.6 509.5,214 508,224.1 502.8,223.7 		"/>
		<polygon class="st0" points="513.9,207.5 513.6,211.1 509.9,210.6 510.4,207 		"/>
		<polygon class="st0" points="520.2,212 525.4,212.8 523.9,223 527.2,223.6 528.8,213.2 534.1,214.2 531.9,227.6 535.4,228.3 
			537.9,211.2 517.5,208.3 514.4,228.5 517.7,229.1 		"/>
		<polygon class="st0" points="522.9,229.9 523.6,226.5 526.7,226.9 526.4,230.2 		"/>
		<polygon class="st0" points="527.9,160.7 524.3,160.3 523.9,163.8 527.4,164.1 		"/>
		<polygon class="st0" points="536.4,162.1 533.1,161.5 530.4,178.6 525.4,177.9 526.8,167.4 523.3,167 521.3,181 541.9,183.9 
			544.4,166.6 541,166.2 539.2,179.9 534,179.1 		"/>
		<polygon class="st0" points="506.6,175 509.9,175.7 512.1,162.2 517,162.7 514.6,179.7 518.1,180.3 521.1,159.8 500.6,156.9 
			498.5,170.5 502,171.1 503.4,160.9 508.6,161.4 		"/>
		<polygon class="st0" points="497.6,177.2 497.9,173.9 501.4,174.2 500.9,177.8 		"/>
		<polygon class="st0" points="491.2,172.9 486.1,172.1 487.5,161.8 484.2,161.3 482.6,171.7 477.4,170.9 479.6,157.3 476.1,156.7 
			473.6,173.9 494,176.8 497.1,156.3 493.8,155.9 		"/>
		<polygon class="st0" points="488.7,155 487.9,158.4 484.5,158 485.1,154.7 		"/>
		<polygon class="st0" points="524.3,184.6 520.8,184.3 520.4,187.7 523.8,187.9 		"/>
		<polygon class="st0" points="532.8,185.9 529.5,185.4 526.9,202.5 521.9,201.8 523.3,191.5 519.9,191 517.9,204.8 538.4,207.8 
			540.9,190.5 537.5,190.1 535.6,203.7 530.4,202.9 		"/>
		<polygon class="st0" points="508.4,185.8 505,185.4 503,198.9 497.8,198.3 500.4,181.1 497,180.6 494,201.3 514.5,204.2 
			516.5,190.6 513.2,190 511.4,200.3 506.4,199.5 		"/>
		<polygon class="st0" points="517.5,183.7 517.1,187.2 513.7,186.7 514,183.1 		"/>
		<polygon class="st0" points="476,181.2 480.9,181.9 479.6,192.4 483.1,192.6 484.5,182.5 489.6,183.3 487.5,196.9 490.9,197.3 
			493.5,180.3 473,177.2 469.9,197.5 473.4,198.3 		"/>
		<polygon class="st0" points="478.6,198.9 479.2,195.5 482.3,196.1 482,199.4 		"/>
	</g>
</g>
<g>
	<g>
		<polygon class="st0" points="93.4,41.9 90.1,41.4 89.5,44.7 92.8,45.3 		"/>
		<polygon class="st0" points="102,43.2 98.5,42.6 95.6,59.6 90.6,58.7 92.2,48.6 88.9,48.2 86.5,61.4 106.9,65.1 109.7,48.1 
			106.5,47.6 104,60.9 99,60.3 		"/>
		<polygon class="st0" points="71.9,55.3 75.4,56.1 77.6,42.7 82.7,43.3 79.7,60.5 83,60.8 86.6,40.5 66.3,37.2 64,50.6 67.4,51.4 
			69.1,41 74.2,42.1 		"/>
		<polygon class="st0" points="62.8,57.5 63.5,54.2 66.7,54.7 66.2,58 		"/>
		<polygon class="st0" points="45.5,37.1 50.4,37.7 48.8,48 52.1,48.8 53.9,38.4 59.1,39.4 56.6,52.7 60,53.3 63,36.6 42.5,32.9 
			39.1,53.2 42.3,53.9 		"/>
		<polygon class="st0" points="47.5,54.9 48.1,51.4 51.6,52.1 50.9,55.4 		"/>
		<polygon class="st0" points="99.4,88 102.7,88.7 103.3,85.3 99.9,84.7 		"/>
		<polygon class="st0" points="90.8,86.6 94.2,87.2 97.2,70.2 102.4,71.3 100.4,81.2 103.8,81.8 106.3,68.6 85.9,64.8 82.9,81.8 
			86.2,82.3 88.8,69 93.7,69.6 		"/>
		<polygon class="st0" points="67.7,79.1 71.1,79.8 73.4,66.3 78.6,67 75.6,84.1 79.1,84.6 82.6,64.3 62.3,60.9 59.7,74.3 
			63.2,74.8 65,64.8 69.9,65.6 		"/>
		<polygon class="st0" points="58.7,81.2 59.3,77.7 62.7,78.4 62.2,81.8 		"/>
		<polygon class="st0" points="52.5,76.5 47.4,75.7 49.1,65.5 45.8,64.9 43.9,75.2 38.9,74.2 41.3,60.8 37.8,60 34.9,77 55.2,80.4 
			58.8,60.4 55.5,59.6 		"/>
		<polygon class="st0" points="50.3,58.7 49.6,62.1 46.4,61.6 47,58.3 		"/>
		<polygon class="st0" points="43.6,127.4 47,127.8 47.7,124.5 44.2,124 		"/>
		<polygon class="st0" points="35,125.8 38.5,126.4 41.5,109.7 46.5,110.4 44.8,120.8 48.3,121.3 50.6,107.5 30.3,104.2 27.3,121.2 
			30.8,121.8 33,108 38.1,109.1 		"/>
		<polygon class="st0" points="65.1,113.6 61.8,113 59.4,126.5 54.3,125.7 57.4,109 53.8,108.1 50.4,128.4 70.7,132 73.1,118.6 
			69.7,117.8 68,127.9 62.9,127.2 		"/>
		<polygon class="st0" points="74.3,111.7 73.7,115.1 70.2,114.7 71,111.2 		"/>
		<polygon class="st0" points="80.3,116.1 85.5,117.1 83.8,127.3 87.2,127.8 88.9,117.7 94,118.6 91.5,132.1 95,132.8 97.9,115.6 
			77.6,112.4 74.2,132.5 77.3,133.2 		"/>
		<polygon class="st0" points="82.5,134 83.2,130.7 86.5,131.2 85.9,134.6 		"/>
		<polygon class="st0" points="47.8,103.7 51.2,104.3 51.6,100.9 48.3,100.4 		"/>
		<polygon class="st0" points="39.3,102.2 42.7,102.9 45.6,85.9 50.7,86.8 48.9,97 52.2,97.5 54.6,83.9 34.3,80.4 31.3,97.5 
			34.8,98 37.1,84.3 42.3,85.4 		"/>
		<polygon class="st0" points="63.6,103 66.9,103.5 69.4,90 74.5,90.8 71.6,107.8 74.9,108.4 78.3,88 58.1,84.5 55.7,98.1 59,98.7 
			60.8,88.4 66,89.4 		"/>
		<polygon class="st0" points="54.3,104.8 55.1,101.3 58.4,101.9 57.9,105.4 		"/>
		<polygon class="st0" points="95.7,108.4 90.7,107.5 92.4,97.3 89,96.7 87.2,106.9 82.2,106 84.7,92.6 81.2,92 78.2,108.9 
			98.6,112.5 102.1,92.2 98.6,91.5 		"/>
		<polygon class="st0" points="93.5,90.6 93.1,94 89.7,93.4 90.3,90.1 		"/>
	</g>
</g>
</svg>
