<?xml version="1.0" encoding="utf-8"?>
<!-- Generator: Adobe Illustrator 24.3.0, SVG Export Plug-In . SVG Version: 6.00 Build 0)  -->
<svg version="1.1" id="Camada_1" xmlns="http://www.w3.org/2000/svg" xmlns:xlink="http://www.w3.org/1999/xlink" x="0px" y="0px"
	 width="800px" height="300px" viewBox="0 0 800 300" style="enable-background:new 0 0 800 300;" xml:space="preserve">
<style type="text/css">
	.st0{fill:#27272E;}
</style>
<g>
	<g>
		<g>
			<polygon class="st0" points="569.9,195.5 568.4,183.1 556,184.6 557.4,197.1 			"/>
			<polygon class="st0" points="574.3,227.5 573,214.3 508.6,222.1 506.7,203.4 544.9,198.4 542.8,185.9 492.6,191.8 501.4,269.1 
				565.4,260.6 563.6,248.6 513,254.1 510.3,235 			"/>
			<polygon class="st0" points="498.4,132.5 499.6,145.7 550.3,139.5 553,158.4 488.6,166.3 490.7,178.9 567.7,169.6 558,93 
				507.2,99.4 508.1,112.1 547.2,107.3 548.9,126.9 			"/>
			<polygon class="st0" points="481,102.3 493.5,101 495.2,113.9 482.8,115.3 			"/>
			<polygon class="st0" points="535.7,17.9 538.3,36.9 500,41.7 501,54.5 540.1,49.7 541.8,69.3 491.2,74.9 493,87.8 556.4,80.6 
				547.6,3.4 470.8,12.7 472.1,25.2 			"/>
			<polygon class="st0" points="473.9,44.8 487.3,42.7 488.1,56.3 475.6,57.7 			"/>
			<polygon class="st0" points="410.8,266.5 412.2,278.9 424.6,277.6 423.2,265.2 			"/>
			<polygon class="st0" points="406.3,234.6 408,247.6 472.4,239.6 474.2,259.2 436.1,263.4 437.8,276.3 488.2,270.3 479.3,193.2 
				415.6,201.1 417,213.6 467.6,208 470.8,226.7 			"/>
			<polygon class="st0" points="408.5,143.6 410,156 461,150.1 463.7,169.2 399.2,177 401,190 477.9,180.7 468.1,104.1 417.5,109.6 
				419.2,122.5 457,117.9 459.7,136.9 			"/>
			<polygon class="st0" points="391.2,113.4 404.6,111.4 405.8,124.6 393,126.3 			"/>
			<polygon class="st0" points="401.4,86 398.8,67 437.5,61.8 436,49.3 397.5,53.8 395.2,34.4 445.9,28.9 445,15.4 380.6,23.2 
				390.3,99.9 466.3,91.1 465.4,78.4 			"/>
			<polygon class="st0" points="463.2,59.1 450.3,60.1 448.5,47.9 460.9,46.6 			"/>
			<polygon class="st0" points="209.5,108.8 211.3,121.6 224.1,119.9 222,107.2 			"/>
			<polygon class="st0" points="205.5,76.5 207.3,89.5 270.8,82.2 273.4,101.1 234.4,105.9 236.1,118.8 288.1,112.3 278.4,35.7 
				214,43.7 215.6,56.5 267.3,49.6 269.1,69.3 			"/>
			<polygon class="st0" points="282,171.3 280.6,158.7 229.5,164.6 226.9,145.6 290.4,138.3 289.5,124.7 212.6,134.1 221.9,211 
				273,205.1 271.7,191.9 233.4,196.7 230.8,177.8 			"/>
			<polygon class="st0" points="298.4,202 286,203.3 283.7,190.8 297,189.5 			"/>
			<polygon class="st0" points="289.1,228.8 291.4,248 253,253 254.3,265.4 293.1,261 295.2,280.3 244.2,286.1 245.5,299.4 
				309.9,291.5 300.1,214.9 223.7,223.9 225.2,236.4 			"/>
			<polygon class="st0" points="227.3,255.7 240.1,254.7 241.5,267.1 229.1,268.6 			"/>
			<polygon class="st0" points="298.9,98 300.5,110.9 313.5,109.2 311.3,96.6 			"/>
			<polygon class="st0" points="295.2,66.3 296.2,79 360.5,71.1 362.9,90.5 324.5,95.3 326,107.7 377.4,101.5 368.2,24.7 
				303.7,32.6 305.4,45.5 357,39.4 358.7,59 			"/>
			<polygon class="st0" points="318.4,154.2 320.6,166.7 371.2,161.2 373.9,180.2 309.4,188.1 310.9,200.5 388.2,190.9 378.7,114.8 
				327.7,120.7 329.1,133.2 367.8,128.7 369.9,148 			"/>
			<polygon class="st0" points="301.9,123.4 315.2,122 316.7,134.6 303.2,136.6 			"/>
			<polygon class="st0" points="333.5,275.4 331.2,256.9 369.9,251.6 368.2,238.7 329.9,243.7 327.7,224.3 378.2,218.8 377,205.6 
				313,213.1 322.4,290 398.8,281.1 397.5,267.8 			"/>
			<polygon class="st0" points="395.3,248.5 382.4,250.3 381,237.8 393.4,236.4 			"/>
		</g>
	</g>
</g>
<g>
	<g>
		<g>
			<polygon class="st0" points="587.9,109 588.5,114 593.3,113.2 592.7,108.3 			"/>
			<polygon class="st0" points="586.1,96.4 586.6,101.5 611.8,98.5 612.5,105.9 597.7,107.7 598.4,112.9 618.4,110.4 614.7,80.2 
				589.6,83.5 590.2,88.2 610.2,86.1 611.3,93.4 			"/>
			<polygon class="st0" points="616.1,133.9 615.4,128.4 595.6,131 594.5,123.5 619.9,120.4 619,115.3 588.8,119.1 592.5,149.3 
				612.6,146.8 612.1,141.6 597,143.6 596.1,136 			"/>
			<polygon class="st0" points="622.7,145.7 618,146.1 617.3,141.1 622.2,140.6 			"/>
			<polygon class="st0" points="601.3,178.7 600.4,171.3 615.3,169.5 615,164.4 599.7,166.1 599,158.5 618.8,156.4 618.1,151.2 
				593.1,154.2 596.6,184.4 626.8,180.8 626.3,175.9 			"/>
			<polygon class="st0" points="625.6,168.3 620.4,169 620,163.6 624.9,163.1 			"/>
			<polygon class="st0" points="650.5,81.1 650,76.1 645,76.7 645.6,81.6 			"/>
			<polygon class="st0" points="652.2,93.5 651.4,88.5 626,91.5 625.5,83.9 640.4,82.3 639.7,77.1 619.8,79.7 623.6,109.9 
				648.4,106.6 647.9,101.6 628,104.2 626.9,96.7 			"/>
			<polygon class="st0" points="651.3,129.3 650.7,124.4 630.7,126.7 629.6,119.4 655,116.3 654.3,111.3 624.1,114.8 627.9,144.8 
				647.7,142.7 647.2,137.5 632.3,139.3 631,131.8 			"/>
			<polygon class="st0" points="658.1,141.3 652.9,142.2 652.2,136.8 657.4,136.1 			"/>
			<polygon class="st0" points="654.2,151.9 655,159.5 640,161.3 640.5,166.3 655.8,164.5 656.4,172.3 636.6,174.5 636.9,179.6 
				662.1,176.6 658.3,146.6 628.6,150 629,154.9 			"/>
			<polygon class="st0" points="629.8,162.6 634.9,162.3 635.6,166.8 630.8,167.6 			"/>
			<polygon class="st0" points="729.6,143 728.9,137.8 723.7,138.5 724.6,143.5 			"/>
			<polygon class="st0" points="731,155.6 730.4,150.6 705.3,153.4 704.4,146 719.7,144.1 719,138.9 698.5,141.5 702.2,171.7 
				727.7,168.5 726.9,163.5 706.8,166.3 706,158.6 			"/>
			<polygon class="st0" points="701.2,118.3 701.5,123.2 721.5,121.1 722.6,128.4 697.6,131.5 698.1,136.6 728.3,133.1 724.5,102.9 
				704.5,105.2 705,110.3 719.9,108.5 721.2,116 			"/>
			<polygon class="st0" points="694.6,106.5 699.3,105.7 700.3,110.7 695.1,111.4 			"/>
			<polygon class="st0" points="698.3,95.8 697.4,88.4 712.5,86.4 711.9,81.4 696.6,83.2 695.8,75.5 715.8,73.4 715.3,68.3 
				690,71.3 693.9,101.3 724,97.7 723.2,92.9 			"/>
			<polygon class="st0" points="722.6,85.3 717.5,85.6 716.7,80.6 721.7,80.1 			"/>
			<polygon class="st0" points="694.5,147.1 693.5,142.1 688.5,142.8 689.5,147.6 			"/>
			<polygon class="st0" points="695.9,159.7 695.3,154.7 670.1,157.8 669.2,150.3 684.3,148.3 683.8,143.4 663.5,145.9 667.1,176 
				692.6,172.8 691.8,167.9 671.7,170.4 670.9,162.7 			"/>
			<polygon class="st0" points="686.6,125.1 685.9,120.1 666.1,122.4 664.9,115 690.2,111.9 689.6,107 659.2,110.7 663,140.7 
				683,138.4 682.5,133.5 667.3,135 666.6,127.6 			"/>
			<polygon class="st0" points="693.2,137.2 688,137.9 687.5,132.9 692.7,132 			"/>
			<polygon class="st0" points="680.7,77.5 681.6,84.7 666.2,86.9 667.2,91.9 682.1,90.1 683,97.5 663,99.8 663.7,104.8 688.7,102 
				685.1,71.8 655.2,75.2 655.4,80.5 			"/>
			<polygon class="st0" points="656.6,88 661.7,87.5 662.1,92.2 657.3,93 			"/>
		</g>
	</g>
</g>
<g>
	<g>
		<g>
			<polygon class="st0" points="631.7,220.7 629.7,220.9 630,222.8 632,222.6 			"/>
			<polygon class="st0" points="636.9,220.1 634.8,220.2 635.8,230.5 632.8,230.7 632.2,224.6 630.1,224.9 630.9,233 643.2,231.8 
				642.1,221.6 640.1,221.8 640.8,229.9 637.9,230.3 			"/>
			<polygon class="st0" points="621.4,231.9 623.6,231.6 622.8,223.6 625.8,223.2 626.9,233.5 628.9,233.2 627.7,220.9 615.4,222.2 
				616.2,230.3 618.3,230.2 617.7,224.1 620.8,223.8 			"/>
			<polygon class="st0" points="616.6,234.4 616.5,232.5 618.5,232.3 618.7,234.3 			"/>
			<polygon class="st0" points="603.4,225.5 606.4,225.2 607,231.2 609.1,231.1 608.5,224.9 611.6,224.7 612.3,232.8 614.4,232.5 
				613.4,222.4 601.2,223.5 602.3,235.8 604.3,235.6 			"/>
			<polygon class="st0" points="607.4,235.4 607.2,233.3 609.4,233.2 609.5,235.2 			"/>
			<polygon class="st0" points="642.5,246.3 644.5,246.1 644.3,244.1 642.3,244.3 			"/>
			<polygon class="st0" points="637.4,246.8 639.5,246.6 638.5,236.3 641.6,236.1 642.1,242.2 644.2,241.9 643.3,233.9 631.1,235.1 
				632.2,245.2 634.2,245 633.3,237 636.4,236.6 			"/>
			<polygon class="st0" points="623,246.1 625,246 624.2,237.9 627.1,237.4 628.2,247.8 630.2,247.5 629.1,235.3 616.9,236.6 
				617.6,244.6 619.7,244.4 619.1,238.4 622.1,237.9 			"/>
			<polygon class="st0" points="618.1,248.8 617.7,246.7 619.9,246.4 620.2,248.6 			"/>
			<polygon class="st0" points="613.8,247.1 610.7,247.4 610.1,241.3 608.1,241.5 608.7,247.7 605.5,247.8 604.8,239.8 602.7,239.9 
				603.7,250.1 615.9,248.8 614.8,236.8 612.8,236.9 			"/>
			<polygon class="st0" points="609.7,237.2 609.8,239.2 607.9,239.5 607.7,237.5 			"/>
			<polygon class="st0" points="616.7,277.7 618.8,277.5 618.6,275.4 616.6,275.7 			"/>
			<polygon class="st0" points="611.6,278.2 613.6,278 612.7,267.8 615.7,267.5 616.4,273.7 618.5,273.5 617.6,265.1 605.3,266.4 
				606.4,276.7 608.4,276.5 607.5,268.3 610.6,268 			"/>
			<polygon class="st0" points="627,266.4 625,266.5 625.6,274.6 622.7,275 621.7,264.9 619.6,265 620.8,277.3 633,276 632.2,267.9 
				630.2,268 630.8,274.1 627.7,274.5 			"/>
			<polygon class="st0" points="631.8,263.9 632.1,265.8 630.1,266.1 629.8,264 			"/>
			<polygon class="st0" points="636.1,265.5 639.1,265.2 639.8,271.3 641.8,271.1 641.2,264.9 644.3,264.6 645,272.7 647.1,272.6 
				646.1,262.4 633.9,263.6 635.1,275.9 637,275.6 			"/>
			<polygon class="st0" points="640.1,275.4 640,273.3 642.1,273.1 642.2,275.1 			"/>
			<polygon class="st0" points="615.4,263.5 617.4,263.1 617.2,261.1 615.2,261.5 			"/>
			<polygon class="st0" points="610.3,263.9 612.3,263.7 611.3,253.5 614.3,253.2 615,259.3 617,259.2 616.2,251 603.9,252.1 
				605,262.5 607,262.2 606.2,254.1 609.3,253.8 			"/>
			<polygon class="st0" points="624.4,260.5 626.4,260.2 625.6,252.2 628.6,251.8 629.6,262 631.6,261.9 630.4,249.5 618.2,250.8 
				619,258.9 621,258.7 620.5,252.6 623.5,252.3 			"/>
			<polygon class="st0" points="619.4,263 619.2,260.9 621.2,260.7 621.5,262.9 			"/>
			<polygon class="st0" points="643.7,258.5 640.7,258.8 640,252.6 637.9,252.9 638.6,259 635.5,259.3 634.8,251.1 632.8,251.4 
				633.7,261.5 645.9,260.3 644.8,248.2 642.7,248.3 			"/>
			<polygon class="st0" points="639.6,248.7 639.8,250.7 637.9,250.9 637.6,248.9 			"/>
		</g>
	</g>
</g>
<g>
	<g>
		<g>
			<polygon class="st0" points="150.5,100.7 145.5,101.3 146,106.3 151.1,105.7 			"/>
			<polygon class="st0" points="163.3,98.8 158.1,99.5 161.2,125 153.6,125.8 151.5,110.8 146.7,111.5 148.9,131.4 179.6,128 
				176.3,102.6 171.7,103.3 173.7,123.3 166.3,124.5 			"/>
			<polygon class="st0" points="125.5,129.1 130.8,128.6 128.2,108.6 135.7,107.3 138.9,133 143.7,132.1 140.2,101.6 109.7,105.6 
				112.3,125.7 117.4,125.3 115.4,109.8 123.2,109.2 			"/>
			<polygon class="st0" points="113.6,136 113.1,131.1 117.9,130.3 118.5,135.3 			"/>
			<polygon class="st0" points="80,114.4 87.4,113.2 89.4,128.5 94.5,128.1 92.6,112.6 100.5,111.9 102.7,131.9 107.7,131.3 
				104.8,106.2 74,109.6 77.9,140 82.8,139.7 			"/>
			<polygon class="st0" points="90.6,138.9 89.9,133.6 95.1,133.2 95.6,138.1 			"/>
			<polygon class="st0" points="178.7,163.9 183.8,163.4 183.2,158.4 178.1,159 			"/>
			<polygon class="st0" points="165.8,165.6 171,164.9 168.1,139.4 175.8,138.8 177.3,153.8 182.5,153.2 180.3,133.2 149.6,136.6 
				152.6,162.1 157.5,161.5 155.5,141.4 162.8,140 			"/>
			<polygon class="st0" points="129.8,164.8 134.8,164.3 132.4,144.1 140,142.8 143.1,168.5 148.3,167.8 144.6,137.2 114.2,141.1 
				116.3,161.3 121.5,160.6 119.7,145.5 127.1,144.6 			"/>
			<polygon class="st0" points="117.7,171.6 117.2,166.4 122.3,165.8 123,171 			"/>
			<polygon class="st0" points="106.9,167.6 99.3,168.6 97.4,153.3 92.4,153.8 94.2,169.3 86.6,170.1 84.2,149.9 78.9,150.4 
				82,175.9 112.5,172 109.1,141.9 103.9,142.2 			"/>
			<polygon class="st0" points="96.3,143.1 96.6,148.3 91.9,148.9 91.3,143.9 			"/>
			<polygon class="st0" points="116,243.9 121.1,243.1 120.6,238 115.5,238.9 			"/>
			<polygon class="st0" points="103.1,245.4 108.3,244.8 105.4,219.6 112.9,218.4 114.9,234 120.1,233.3 117.5,212.5 87,216.5 
				90.1,242.1 95.3,241.4 92.6,220.8 100.4,220.2 			"/>
			<polygon class="st0" points="140.8,215 135.8,215.6 138.1,235.9 130.5,236.9 127.8,211.8 122.3,212 126.1,242.5 156.7,238.9 
				154.4,218.7 149.1,219.2 151,234.2 143.4,235.5 			"/>
			<polygon class="st0" points="153.1,208.5 153.7,213.5 148.6,214.4 148.1,209.1 			"/>
			<polygon class="st0" points="163.5,212.2 171.3,211.3 173.4,226.6 178.3,225.9 176.5,210.7 184.2,209.8 186.3,230.1 191.6,229.7 
				188.4,203.9 158.1,208 161.8,238.2 166.6,237.8 			"/>
			<polygon class="st0" points="174.3,236.8 174,231.7 178.9,231 179.5,236.1 			"/>
			<polygon class="st0" points="111.8,208.4 117,207.8 116.1,202.7 111.2,203.4 			"/>
			<polygon class="st0" points="99.1,209.8 104.2,209.4 101.1,183.9 108.8,183 110.6,198.3 115.5,197.6 113.2,177.2 82.6,180.9 
				85.7,206.5 90.9,205.8 88.3,185.2 96.2,184.6 			"/>
			<polygon class="st0" points="134,200.6 139,199.9 136.8,179.6 144.4,178.6 147.5,204.1 152.6,203.5 148.6,172.9 118.3,176.6 
				120.7,196.9 125.7,196.5 123.9,181 131.7,180.2 			"/>
			<polygon class="st0" points="121.7,207.1 121.2,201.8 126.3,201.2 127,206.5 			"/>
			<polygon class="st0" points="182.2,194.5 174.7,195.5 172.8,180.2 167.6,180.8 169.4,196 162,197 159.7,176.8 154.5,177.4 
				157.5,202.7 188,199.2 184.4,168.8 179.2,169.2 			"/>
			<polygon class="st0" points="171.5,170.1 172.3,175.2 167.3,175.8 166.7,170.7 			"/>
		</g>
	</g>
</g>
<g>
	<g>
		<g>
			<polygon class="st0" points="185.4,63.5 185.2,61.9 183.6,62.1 183.8,63.7 			"/>
			<polygon class="st0" points="185.9,67.6 185.7,65.9 177.6,66.8 177.4,64.4 182.2,63.8 181.9,62.3 175.6,62.9 176.6,72.7 
				184.7,71.7 184.5,70.2 178.1,70.8 177.7,68.5 			"/>
			<polygon class="st0" points="176.4,55.5 176.5,57.1 182.9,56.4 183.3,58.8 175.1,59.7 175.4,61.2 185.1,60.2 184,50.5 
				177.6,51.3 177.6,52.9 182.6,52.3 182.8,54.8 			"/>
			<polygon class="st0" points="174.3,51.6 175.8,51.5 176,53 174.5,53.2 			"/>
			<polygon class="st0" points="181.3,41 181.6,43.4 176.7,44 176.8,45.6 181.8,45 182,47.5 175.6,48.2 175.8,49.8 183.8,48.9 
				182.8,39.1 173.1,40.2 173.2,41.8 			"/>
			<polygon class="st0" points="173.4,44.3 175.1,44.1 175.2,45.8 173.7,45.9 			"/>
			<polygon class="st0" points="165.1,72.3 165.3,73.9 166.9,73.7 166.7,72.1 			"/>
			<polygon class="st0" points="164.6,68.2 164.8,69.8 173,69 173.1,71.4 168.4,71.8 168.5,73.5 174.9,72.9 173.9,63.1 165.8,64 
				166,65.5 172.4,65 172.8,67.3 			"/>
			<polygon class="st0" points="165,56.7 165.2,58.3 171.6,57.6 172,60 163.8,60.9 164,62.6 173.8,61.5 172.6,51.8 166.2,52.4 
				166.4,54.1 171.2,53.5 171.5,55.9 			"/>
			<polygon class="st0" points="162.9,52.8 164.6,52.7 164.7,54.3 163.1,54.5 			"/>
			<polygon class="st0" points="164.2,49.4 163.9,47 168.8,46.4 168.7,44.8 163.7,45.3 163.5,42.9 169.9,42.2 169.8,40.5 
				161.7,41.4 162.8,51.1 172.4,50.2 172.3,48.5 			"/>
			<polygon class="st0" points="172.1,46.1 170.4,46.2 170.2,44.7 171.8,44.5 			"/>
			<polygon class="st0" points="139.9,52 140.1,53.6 141.7,53.5 141.5,51.9 			"/>
			<polygon class="st0" points="139.5,47.9 139.6,49.5 147.7,48.7 148,51.1 143.1,51.7 143.3,53.3 149.9,52.6 148.7,42.9 
				140.5,43.8 140.8,45.4 147.3,44.6 147.5,47.1 			"/>
			<polygon class="st0" points="149,60 148.8,58.4 142.4,59.1 142.1,56.7 150.1,55.9 150,54.1 140.3,55.2 141.3,65 147.8,64.3 
				147.6,62.6 142.9,63.2 142.5,60.8 			"/>
			<polygon class="st0" points="151,63.9 149.4,64.1 149.2,62.5 150.8,62.4 			"/>
			<polygon class="st0" points="149.8,67.3 150.1,69.7 145.2,70.3 145.4,71.9 150.2,71.4 150.5,73.8 144,74.5 144.1,76.1 
				152.4,75.2 151.2,65.5 141.5,66.6 141.7,68.1 			"/>
			<polygon class="st0" points="141.9,70.6 143.6,70.5 143.8,72.1 142.2,72.3 			"/>
			<polygon class="st0" points="151.2,50.8 151.4,52.5 153,52.2 152.8,50.6 			"/>
			<polygon class="st0" points="150.8,46.7 150.9,48.4 159.1,47.5 159.3,49.9 154.4,50.5 154.6,52 161.1,51.3 160.1,41.6 
				151.9,42.5 152.1,44.1 158.7,43.4 158.8,45.9 			"/>
			<polygon class="st0" points="153.6,57.9 153.8,59.5 160.3,58.9 160.6,61.3 152.5,62.2 152.6,63.8 162.4,62.7 161.3,53 
				154.8,53.7 155,55.3 159.9,54.7 160.1,57.2 			"/>
			<polygon class="st0" points="151.6,53.9 153.3,53.8 153.4,55.4 151.7,55.6 			"/>
			<polygon class="st0" points="155.4,73.3 155.1,70.9 160,70.3 159.8,68.7 154.9,69.2 154.7,66.8 161.1,66.2 160.9,64.5 
				152.9,65.4 153.9,75.1 163.6,74.1 163.5,72.4 			"/>
			<polygon class="st0" points="163.2,69.9 161.6,70.2 161.4,68.6 163,68.4 			"/>
		</g>
	</g>
</g>
</svg>
