<?xml version="1.0" encoding="utf-8"?>
<!-- Generator: Adobe Illustrator 24.3.0, SVG Export Plug-In . SVG Version: 6.00 Build 0)  -->
<svg version="1.1" id="Camada_1" xmlns="http://www.w3.org/2000/svg" xmlns:xlink="http://www.w3.org/1999/xlink" x="0px" y="0px"
	 width="600px" height="400px" viewBox="0 0 600 400" style="enable-background:new 0 0 600 400;" xml:space="preserve">
<style type="text/css">
	.st0{fill:#1A1A1E;}
</style>
<g>
	<g>
		<g>
			<polygon class="st0" points="524.8,258 523.1,241.9 507,243.7 508.6,259.8 			"/>
			<polygon class="st0" points="530,299.5 528.5,282.4 444.9,291.5 442.8,267.2 492.4,261.4 489.8,245.1 424.6,252 434.7,352.2 
				517.9,342.3 515.7,326.7 450,333 446.9,308.3 			"/>
			<polygon class="st0" points="433.2,175.1 434.6,192.2 500.4,185 503.5,209.6 419.9,218.7 422.5,235.1 522.4,224.4 511.1,125 
				445.1,132.3 446.1,148.8 496.9,143.3 498.7,168.8 			"/>
			<polygon class="st0" points="411.2,135.7 427.4,134.2 429.3,150.9 413.2,152.5 			"/>
			<polygon class="st0" points="483.5,27.2 486.5,51.8 436.8,57.5 437.8,74.1 488.6,68.5 490.6,94 424.8,100.4 426.9,117.1 
				509.3,108.8 499.1,8.6 399.4,19.4 400.9,35.6 			"/>
			<polygon class="st0" points="402.9,61 420.3,58.5 421.2,76.2 404.9,77.7 			"/>
			<polygon class="st0" points="317.3,347.4 318.9,363.5 335,361.9 333.5,345.8 			"/>
			<polygon class="st0" points="312.1,306 314.1,322.8 397.7,313.6 399.7,339 350.3,343.8 352.2,360.6 417.6,353.6 407.4,253.4 
				324.7,262.7 326.3,278.8 392,272.5 395.8,296.8 			"/>
			<polygon class="st0" points="316.5,188 318.2,204.1 384.4,197.4 387.6,222.1 303.9,231.2 305.9,248 405.8,237.2 394.4,137.8 
				328.7,144.1 330.6,160.9 379.8,155.5 383,180.2 			"/>
			<polygon class="st0" points="294.6,148.6 311.9,146.1 313.3,163.3 296.6,165.4 			"/>
			<polygon class="st0" points="308.2,113.2 305.2,88.5 355.4,82.5 353.7,66.2 303.8,71.4 301,46.2 366.8,39.9 366,22.4 282.3,31.5 
				293.6,131 392.3,121 391.3,104.5 			"/>
			<polygon class="st0" points="388.8,79.4 372.1,80.4 370,64.7 386.1,63.1 			"/>
			<polygon class="st0" points="59.1,139.5 61.1,156.2 77.8,154.2 75.2,137.7 			"/>
			<polygon class="st0" points="54.4,97.6 56.6,114.5 138.9,106.1 142.1,130.7 91.4,136.1 93.4,152.9 160.9,145.4 149.6,45.9 
				65.9,55.2 67.9,71.9 135,63.8 137,89.3 			"/>
			<polygon class="st0" points="152,221.7 150.4,205.4 84.1,212.2 81,187.6 163.5,179.2 162.5,161.6 62.7,172.4 73.5,272.2 
				139.8,265.4 138.3,248.3 88.6,253.9 85.6,229.3 			"/>
			<polygon class="st0" points="172.7,261.8 156.6,263.4 153.9,247.1 171.2,245.6 			"/>
			<polygon class="st0" points="160.2,296.4 162.8,321.4 113,327.2 114.6,343.3 164.9,338.3 167.3,363.3 101.1,370 102.5,387.2 
				186.1,378 174.8,278.6 75.5,289 77.2,305.2 			"/>
			<polygon class="st0" points="79.7,330.2 96.3,329.2 97.9,345.3 81.8,347 			"/>
			<polygon class="st0" points="175.1,127.1 177.1,143.9 193.8,141.8 191.2,125.5 			"/>
			<polygon class="st0" points="170.8,85.8 172,102.3 255.5,93.2 258.2,118.4 208.4,124 210.1,140 276.9,133 266.2,33.2 182.5,42.4 
				184.5,59.1 251.4,52 253.4,77.5 			"/>
			<polygon class="st0" points="199.5,200.2 202.1,216.5 267.8,210.2 271,234.9 187.3,244 189,260.1 289.3,249 278.3,150.2 
				212.1,156.9 213.7,173.2 263.9,168 266.4,193 			"/>
			<polygon class="st0" points="178.6,160 195.9,158.5 197.6,174.7 180.1,177.1 			"/>
			<polygon class="st0" points="217.1,357.6 214.3,333.5 264.7,327.4 262.6,310.6 212.9,316.4 210.4,291.3 275.9,285 274.6,267.8 
				191.5,276.5 202.3,376.3 301.6,366 300.1,348.9 			"/>
			<polygon class="st0" points="297.6,323.8 280.8,325.8 279.2,309.6 295.3,308 			"/>
		</g>
	</g>
</g>
<g>
	<g>
		<g>
			<polygon class="st0" points="41.9,303.7 39.6,303.9 40,306.1 42.3,305.9 			"/>
			<polygon class="st0" points="47.8,302.9 45.4,303.1 46.7,314.8 43.3,315.1 42.5,308.2 40.1,308.5 41.1,317.8 55.2,316.2 
				53.8,304.6 51.6,304.8 52.5,314.1 49.1,314.6 			"/>
			<polygon class="st0" points="30.3,316.6 32.8,316.3 31.7,307.1 35.1,306.6 36.5,318.5 38.8,318 37.2,304 23.2,305.6 24.3,314.9 
				26.7,314.7 25.8,307.7 29.4,307.3 			"/>
			<polygon class="st0" points="24.7,319.6 24.6,317.4 26.9,317.1 27.1,319.4 			"/>
			<polygon class="st0" points="9.5,309.5 12.9,309.1 13.7,316 16.1,315.9 15.4,308.8 18.9,308.6 19.8,317.8 22.2,317.5 20.9,305.8 
				6.9,307.3 8.4,321.4 10.7,321.1 			"/>
			<polygon class="st0" points="14.2,320.9 13.9,318.4 16.4,318.3 16.6,320.6 			"/>
			<polygon class="st0" points="54.6,332.9 56.9,332.6 56.7,330.3 54.4,330.6 			"/>
			<polygon class="st0" points="48.8,333.6 51.1,333.3 49.9,321.4 53.4,321.3 54.1,328.2 56.5,327.8 55.4,318.6 41.3,320.2 
				42.8,331.8 45.1,331.5 44,322.3 47.4,321.8 			"/>
			<polygon class="st0" points="32.2,333 34.5,332.8 33.5,323.4 36.9,322.9 38.2,334.8 40.6,334.5 39,320.4 25.1,322.1 26,331.3 
				28.4,331 27.6,324.1 31.1,323.6 			"/>
			<polygon class="st0" points="26.6,336.1 26.2,333.6 28.7,333.4 29,335.8 			"/>
			<polygon class="st0" points="21.7,334.2 18.1,334.6 17.4,327.6 15.1,327.8 15.8,334.9 12.2,335.2 11.3,326 8.9,326.1 10.2,337.8 
				24.1,336.2 22.7,322.4 20.4,322.5 			"/>
			<polygon class="st0" points="16.9,322.9 17,325.2 14.9,325.5 14.5,323.3 			"/>
			<polygon class="st0" points="25.4,369.3 27.9,369 27.6,366.6 25.2,367 			"/>
			<polygon class="st0" points="19.6,369.9 21.9,369.6 20.7,357.9 24.2,357.6 25,364.7 27.4,364.4 26.3,354.8 12.2,356.4 
				13.6,368.3 15.9,368 14.7,358.6 18.3,358.2 			"/>
			<polygon class="st0" points="37,356.2 34.8,356.3 35.6,365.6 32.3,366.1 31,354.5 28.6,354.7 30.1,368.7 44.1,367.1 43.1,357.8 
				40.7,358 41.5,364.9 38,365.5 			"/>
			<polygon class="st0" points="42.6,353.2 42.9,355.4 40.6,355.8 40.3,353.4 			"/>
			<polygon class="st0" points="47.5,355 51,354.6 51.8,361.6 54.1,361.4 53.4,354.3 56.9,353.9 57.8,363.2 60.2,363 58.9,351.3 
				45,352.9 46.5,366.9 48.7,366.6 			"/>
			<polygon class="st0" points="52.3,366.3 52.1,363.9 54.5,363.6 54.7,365.9 			"/>
			<polygon class="st0" points="23.7,353 26.1,352.5 25.7,350.2 23.5,350.7 			"/>
			<polygon class="st0" points="17.9,353.5 20.2,353.3 18.9,341.6 22.3,341.2 23.2,348.2 25.5,348 24.4,338.6 10.4,340.1 
				11.8,351.9 14.1,351.6 13,342.3 16.6,341.9 			"/>
			<polygon class="st0" points="34,349.4 36.3,349.1 35.3,339.9 38.8,339.4 40.1,351.1 42.4,350.9 40.8,336.8 26.8,338.4 
				27.8,347.7 30.1,347.5 29.5,340.4 32.9,340.1 			"/>
			<polygon class="st0" points="28.3,352.4 28,350 30.3,349.8 30.7,352.2 			"/>
			<polygon class="st0" points="56.1,346.9 52.7,347.3 51.8,340.1 49.5,340.6 50.2,347.5 46.8,347.9 45.8,338.6 43.5,338.9 
				44.7,350.5 58.7,349 57.3,335.1 54.8,335.2 			"/>
			<polygon class="st0" points="51.3,335.6 51.5,338 49.4,338.2 49,336 			"/>
		</g>
	</g>
</g>
<g>
	<g>
		<g>
			<polygon class="st0" points="572,29.3 568.7,29.7 569,33 572.4,32.6 			"/>
			<polygon class="st0" points="580.5,28.1 577,28.5 579,45.4 574,45.9 572.7,36 569.5,36.5 570.9,49.6 591.2,47.4 589.1,30.6 
				586,31 587.3,44.3 582.4,45.1 			"/>
			<polygon class="st0" points="555.4,48 558.9,47.7 557.2,34.4 562.2,33.6 564.2,50.7 567.4,50.1 565.2,29.9 545,32.4 546.6,45.7 
				550,45.5 548.7,35.2 553.9,34.8 			"/>
			<polygon class="st0" points="547.4,52.6 547.1,49.3 550.3,48.8 550.7,52.1 			"/>
			<polygon class="st0" points="525.3,38.2 530.2,37.4 531.5,47.5 534.9,47.3 533.6,37 538.8,36.6 540.2,49.8 543.6,49.4 
				541.7,32.8 521.3,35 523.8,55.2 527,54.9 			"/>
			<polygon class="st0" points="532.2,54.5 531.8,50.9 535.2,50.7 535.6,53.9 			"/>
			<polygon class="st0" points="590.5,71.2 593.9,70.9 593.5,67.6 590.1,68 			"/>
			<polygon class="st0" points="582,72.3 585.4,71.9 583.5,55 588.7,54.6 589.6,64.5 593,64.1 591.6,50.9 571.3,53.1 573.2,70 
				576.5,69.5 575.2,56.2 580,55.3 			"/>
			<polygon class="st0" points="558.1,71.7 561.4,71.4 559.9,58 565,57.2 566.9,74.2 570.4,73.7 568,53.5 547.8,55.9 549.2,69.4 
				552.6,68.9 551.5,58.9 556.4,58.3 			"/>
			<polygon class="st0" points="550.1,76.2 549.7,72.7 553.2,72.4 553.6,75.8 			"/>
			<polygon class="st0" points="543,73.5 537.9,74.2 536.7,64 533.4,64.3 534.5,74.6 529.5,75.1 528,61.7 524.5,62 526.4,78.9 
				546.6,76.4 544.4,56.5 541.1,56.7 			"/>
			<polygon class="st0" points="536,57.3 536.2,60.7 533.1,61.1 532.7,57.7 			"/>
			<polygon class="st0" points="548.8,124.1 552.2,123.5 551.9,120.2 548.5,120.7 			"/>
			<polygon class="st0" points="540.3,125 543.7,124.6 541.8,107.9 546.8,107.2 548.1,117.5 551.5,117 549.9,103.3 529.7,105.9 
				531.7,122.8 535.1,122.4 533.3,108.7 538.5,108.3 			"/>
			<polygon class="st0" points="565.3,105 561.9,105.4 563.5,118.8 558.5,119.5 556.7,102.8 553,103 555.5,123.1 575.7,120.8 
				574.3,107.5 570.8,107.8 572,117.7 567,118.5 			"/>
			<polygon class="st0" points="573.4,100.7 573.8,104 570.4,104.6 570.2,101.1 			"/>
			<polygon class="st0" points="580.4,103.1 585.5,102.6 586.8,112.7 590.1,112.3 589,102.2 594.1,101.7 595.4,115.1 598.9,114.8 
				596.9,97.7 576.8,100.4 579.2,120.4 582.3,120.1 			"/>
			<polygon class="st0" points="587.4,119.5 587.2,116.1 590.5,115.7 590.9,119 			"/>
			<polygon class="st0" points="546.1,100.5 549.5,100.1 549,96.8 545.7,97.2 			"/>
			<polygon class="st0" points="537.7,101.5 541.1,101.2 539.1,84.3 544.2,83.7 545.3,93.8 548.6,93.4 547.1,79.9 526.8,82.3 
				528.8,99.2 532.3,98.8 530.6,85.1 535.8,84.8 			"/>
			<polygon class="st0" points="560.9,95.4 564.1,94.9 562.8,81.5 567.8,80.9 569.8,97.8 573.1,97.4 570.6,77.1 550.5,79.5 552,93 
				555.4,92.7 554.2,82.4 559.3,81.9 			"/>
			<polygon class="st0" points="552.6,99.7 552.4,96.2 555.7,95.8 556.1,99.3 			"/>
			<polygon class="st0" points="592.7,91.5 587.8,92.1 586.6,82 583.2,82.4 584.3,92.5 579.4,93.1 577.9,79.7 574.5,80.1 
				576.4,96.9 596.6,94.6 594.3,74.4 590.8,74.7 			"/>
			<polygon class="st0" points="585.7,75.3 586.3,78.7 582.9,79 582.5,75.7 			"/>
		</g>
	</g>
</g>
</svg>
