<?xml version="1.0" encoding="utf-8"?>
<!-- Generator: Adobe Illustrator 24.3.0, SVG Export Plug-In . SVG Version: 6.00 Build 0)  -->
<svg version="1.1" id="Camada_1" xmlns="http://www.w3.org/2000/svg" xmlns:xlink="http://www.w3.org/1999/xlink" x="0px" y="0px"
	 width="999.1px" height="400px" viewBox="0 0 999.1 400" style="enable-background:new 0 0 999.1 400;" xml:space="preserve">
<style type="text/css">
	.st0{fill:#16161A;}
</style>
<g>
	<g>
		<g>
			<polygon class="st0" points="553.9,173.8 551.3,188.2 565.8,191 568.4,176.5 			"/>
			<polygon class="st0" points="501.6,125.9 506.1,103.8 564.8,114 567.9,100 493.6,85.5 477.7,175.2 535.9,185.8 539.4,171.3 
				495.1,162.7 498.6,140.9 573.4,154.8 575.9,139.4 			"/>
			<polygon class="st0" points="538.8,255.2 535.4,278 490,269.6 487.9,284.4 546.9,295.5 563.9,206.7 474.6,190.2 471.1,204.8 
				545.9,218.7 541.4,240.7 482.5,229.7 480.1,245 			"/>
			<polygon class="st0" points="460.6,264 475,266.5 472.1,281.5 457.6,279 			"/>
			<polygon class="st0" points="441.5,368.6 439,383.1 528.2,399.7 544.2,310 470.5,296.9 467.4,311.8 526.3,322.1 522.8,344.9 
				477.4,336.4 475.4,351.3 519.8,359.8 515.4,381.8 			"/>
			<polygon class="st0" points="448,330.9 462.6,333.4 460.6,349.2 445,345.8 			"/>
			<polygon class="st0" points="401.9,84.3 404.4,69.9 390,67.4 387.4,81.8 			"/>
			<polygon class="st0" points="454.7,132.8 449.6,154.4 390.9,144.2 388.3,158.6 462.2,172.6 478.2,83.1 419.7,72.3 416.9,87.3 
				461.1,95 457.6,117.8 382.8,103.8 379.9,118.8 			"/>
			<polygon class="st0" points="435.2,237 430.7,259.1 386.7,250.9 383.8,265.9 442.6,276 459.7,187.2 370.3,170.7 367.4,185.7 
				442.3,199.5 437.6,221.6 378.4,211.1 375.8,225.4 			"/>
			<polygon class="st0" points="356.4,244.5 371.2,247.5 368.8,262.9 353.4,259.5 			"/>
			<polygon class="st0" points="437.5,305.8 439.6,291 351.3,275.3 334.3,364.2 409.1,378.1 411.1,362.4 352.2,352.2 356.4,329.7 
				401.1,337.8 403.7,323.2 358.8,314.4 363.2,292.3 			"/>
			<polygon class="st0" points="430,342.8 415.6,340.3 418.6,326.2 433.6,328.3 			"/>
			<polygon class="st0" points="154.9,254.3 158.3,239.7 143.4,236.7 140.4,251.6 			"/>
			<polygon class="st0" points="207.3,302.2 203.8,325 143.8,313.2 140.9,328.1 215.7,342.2 232.7,253.2 172.3,241.9 169.3,256.9 
				214.7,265.2 210.1,287.2 136.5,274.1 133.4,289.1 			"/>
			<polygon class="st0" points="170.4,172.5 174.8,150.5 219.3,159 221.8,143.6 162.5,133 145.9,222.2 235.2,238.8 237.2,223 
				163.5,209.8 167.9,187.8 227.2,198.5 229.8,183.8 			"/>
			<polygon class="st0" points="248.7,163.6 233.2,161.1 236.8,146.6 251.2,149.1 			"/>
			<polygon class="st0" points="168.1,103.5 165.4,118 254.2,134.1 271.2,45.3 196.5,31.2 194,46.7 253.2,57.3 249.3,79.6 
				204.3,71.7 201.8,86.1 246.4,94.7 242.3,117.1 			"/>
			<polygon class="st0" points="175,66.1 189.5,68.7 186.9,83.1 172,81.1 			"/>
			<polygon class="st0" points="258.6,273.3 262.1,258.7 247.1,255.8 244.2,270.7 			"/>
			<polygon class="st0" points="311.4,320.8 307.9,343.6 248,332.7 245.1,347.6 319.9,361.6 336.3,272.4 276.6,261.5 274,275.8 
				318.5,284.3 314.4,306.7 239.7,292.8 237.5,307.6 			"/>
			<polygon class="st0" points="331,217.5 327,239.9 282.1,231.8 279.6,246.4 338.8,256.9 355.4,168.6 265.8,151.7 263.1,166.2 
				338,180 333.4,202.1 274.6,192 271.2,206.5 			"/>
			<polygon class="st0" points="252.1,226 267.7,229.3 265.1,243.8 249.6,241.3 			"/>
			<polygon class="st0" points="372,79.3 374.5,63.9 285.7,47.9 269.1,137.1 343.4,150.6 345.9,135.3 287.2,125.1 291.2,102.6 
				335.6,111.2 338.6,96.2 293.6,87.3 297.7,65.8 			"/>
			<polygon class="st0" points="364.9,115.8 350.5,113.3 353,98.7 368,101.7 			"/>
		</g>
	</g>
</g>
<g>
	<g>
		<g>
			<polygon class="st0" points="486.1,41.8 486.6,39.5 484.3,38.9 483.9,41.2 			"/>
			<polygon class="st0" points="494.4,49.8 493.6,53.3 484,51.4 483.5,53.6 495.5,56.3 498.6,41.9 489.1,39.8 488.5,42.3 
				495.6,43.9 494.9,47.4 482.9,44.8 482.4,47.3 			"/>
			<polygon class="st0" points="489,28.6 489.8,25 497,26.6 497.4,24.2 487.9,22 484.7,36.4 499.1,39.6 499.8,37.2 487.7,34.5 
				488.5,31 498,33.1 498.5,30.5 			"/>
			<polygon class="st0" points="501.8,27.6 499.4,27.1 500,24.7 502.2,25.1 			"/>
			<polygon class="st0" points="505.3,10.7 505.8,8.4 491.4,5.3 488.3,19.7 500.3,22.3 500.8,19.8 491.4,17.9 492.1,14.3 
				499.3,15.8 499.7,13.3 492.6,11.8 493.4,8.2 			"/>
			<polygon class="st0" points="504.1,16.8 501.7,16.3 502.2,13.8 504.6,14.4 			"/>
			<polygon class="st0" points="510.4,57 510,59.4 512.3,59.9 512.8,57.5 			"/>
			<polygon class="st0" points="502.1,48.9 503,45.4 512.4,47.5 512.9,45.1 501.1,42.4 497.9,56.8 507.4,58.9 508,56.4 500.9,55 
				501.4,51.4 513.6,54 514.1,51.6 			"/>
			<polygon class="st0" points="505.6,32.2 506.6,28.6 513.7,30.1 514.2,27.7 504.7,25.8 501.6,40.1 515.9,43.1 516.5,40.7 
				504.4,38.1 505.3,34.6 514.8,36.6 515.3,34.3 			"/>
			<polygon class="st0" points="518.5,31.3 516.1,30.7 516.6,28.1 519.1,28.8 			"/>
			<polygon class="st0" points="505.7,21 505.3,23.3 519.5,26.3 522.6,12 510.6,9.4 510.2,11.9 519.7,13.8 519,17.5 511.7,16 
				511.3,18.4 518.5,19.9 517.7,23.5 			"/>
			<polygon class="st0" points="507.1,14.9 509.4,15.5 508.9,17.7 506.4,17.3 			"/>
			<polygon class="st0" points="551.3,30.7 550.6,33.1 553.1,33.6 553.6,31.2 			"/>
			<polygon class="st0" points="543,22.6 543.7,18.9 553.3,21.1 553.9,18.8 541.7,16.1 538.6,30.5 548.4,32.7 548.9,30.2 
				541.6,28.6 542.4,25 554.4,27.5 554.9,25.1 			"/>
			<polygon class="st0" points="548.4,43.8 547.4,47.3 540.3,45.8 539.9,48.3 549.4,50.3 552.6,35.9 538.2,32.8 537.7,35.3 
				549.7,37.9 548.8,41.3 539.2,39.4 538.9,41.8 			"/>
			<polygon class="st0" points="535.6,44.8 538.1,45.4 537.4,47.8 535.2,47.2 			"/>
			<polygon class="st0" points="548.4,55 549,52.7 534.6,49.7 531.4,64 543.4,66.5 543.9,64.1 534.4,62.2 535.1,58.5 542.4,60 
				542.9,57.7 535.7,56.1 536.5,52.5 			"/>
			<polygon class="st0" points="547,61.1 544.7,60.6 545.3,58.3 547.7,58.6 			"/>
			<polygon class="st0" points="534.5,27.1 533.8,29.4 536.2,30 536.9,27.6 			"/>
			<polygon class="st0" points="526.2,19 527,15.4 536.5,17.5 537.1,15.1 525,12.5 521.9,26.8 531.6,28.9 532.1,26.6 524.9,24.9 
				525.6,21.4 537.7,24 538.1,21.6 			"/>
			<polygon class="st0" points="522.6,35.8 523.3,32.3 530.5,33.7 531,31.3 521.5,29.3 518.3,43.6 532.8,46.7 533.3,44.4 
				521.3,41.8 522.1,38.2 531.6,40.3 532.1,37.9 			"/>
			<polygon class="st0" points="535.4,34.8 532.9,34.1 533.4,31.8 535.8,32.4 			"/>
			<polygon class="st0" points="515.1,58 514.8,60.5 529.1,63.5 532.1,49.1 520.2,46.6 519.6,49 529.2,51 528.4,54.5 521.3,53 
				520.6,55.4 527.9,57.1 527.2,60.5 			"/>
			<polygon class="st0" points="516.6,52.1 518.9,52.6 518.5,54.9 516,54.4 			"/>
		</g>
	</g>
</g>
<g>
	<g>
		<g>
			<polygon class="st0" points="925.9,276.5 926.4,274.1 924.2,273.5 923.7,275.9 			"/>
			<polygon class="st0" points="934.3,284.5 933.4,288 923.8,286.1 923.3,288.3 935.3,291 938.4,276.6 928.9,274.5 928.3,277 
				935.4,278.5 934.7,282 922.7,279.5 922.2,281.9 			"/>
			<polygon class="st0" points="928.8,263.3 929.6,259.6 936.8,261.3 937.2,258.8 927.7,256.7 924.5,271.1 938.9,274.2 939.6,271.9 
				927.5,269.2 928.3,265.6 937.8,267.8 938.3,265.2 			"/>
			<polygon class="st0" points="941.6,262.2 939.2,261.7 939.8,259.4 942,259.8 			"/>
			<polygon class="st0" points="945.1,245.4 945.6,243 931.2,240 928.1,254.3 940.1,256.9 940.6,254.5 931.2,252.5 931.9,248.9 
				939.1,250.4 939.5,248 932.4,246.4 933.2,242.9 			"/>
			<polygon class="st0" points="943.9,251.5 941.5,251 942,248.4 944.4,249 			"/>
			<polygon class="st0" points="950.2,291.7 949.8,294 952.1,294.5 952.6,292.2 			"/>
			<polygon class="st0" points="941.9,283.6 942.8,280 952.2,282.1 952.7,279.8 940.9,277.1 937.7,291.5 947.2,293.6 947.8,291.1 
				940.7,289.7 941.2,286.1 953.4,288.6 953.9,286.2 			"/>
			<polygon class="st0" points="945.4,266.8 946.4,263.3 953.5,264.8 954,262.3 944.5,260.4 941.4,274.7 955.7,277.8 956.3,275.4 
				944.2,272.7 945.1,269.3 954.6,271.3 955.1,268.9 			"/>
			<polygon class="st0" points="958.3,266 955.9,265.4 956.4,262.8 958.9,263.5 			"/>
			<polygon class="st0" points="945.5,255.6 945.1,258 959.3,260.9 962.4,246.6 950.4,244.1 950,246.5 959.5,248.4 958.8,252.2 
				951.5,250.7 951.1,253 958.3,254.5 957.5,258.2 			"/>
			<polygon class="st0" points="946.9,249.6 949.2,250.2 948.7,252.3 946.2,252 			"/>
			<polygon class="st0" points="991.1,265.3 990.4,267.7 992.9,268.3 993.4,265.8 			"/>
			<polygon class="st0" points="982.8,257.2 983.5,253.6 993.1,255.8 993.7,253.4 981.5,250.7 978.4,265.1 988.2,267.3 988.7,264.9 
				981.4,263.2 982.2,259.7 994.2,262.2 994.7,259.8 			"/>
			<polygon class="st0" points="988.2,278.4 987.2,282 980.1,280.5 979.7,282.9 989.2,284.9 992.4,270.5 978,267.5 977.5,269.9 
				989.5,272.5 988.6,276 979,274.1 978.7,276.4 			"/>
			<polygon class="st0" points="975.4,279.5 977.9,280.1 977.2,282.5 975,281.9 			"/>
			<polygon class="st0" points="988.2,289.7 988.8,287.4 974.4,284.3 971.2,298.6 983.2,301.2 983.7,298.7 974.2,296.8 974.9,293.2 
				982.2,294.7 982.7,292.3 975.5,290.7 976.3,287.2 			"/>
			<polygon class="st0" points="986.8,295.8 984.5,295.3 985.1,292.9 987.5,293.3 			"/>
			<polygon class="st0" points="974.3,261.8 973.7,264.1 976,264.7 976.7,262.3 			"/>
			<polygon class="st0" points="966,253.7 966.8,250 976.3,252.2 976.9,249.8 964.8,247.1 961.7,261.5 971.4,263.6 971.9,261.2 
				964.7,259.6 965.4,256.1 977.5,258.6 977.9,256.3 			"/>
			<polygon class="st0" points="962.4,270.4 963.1,266.9 970.3,268.3 970.8,266 961.3,264 958.1,278.2 972.6,281.4 973.1,279 
				961.1,276.5 961.9,272.9 971.4,274.9 972,272.5 			"/>
			<polygon class="st0" points="975.2,269.5 972.7,268.8 973.2,266.4 975.6,267 			"/>
			<polygon class="st0" points="954.9,292.6 954.6,295.2 968.9,298.1 971.9,283.8 960,281.3 959.4,283.7 969,285.7 968.2,289.2 
				961.1,287.7 960.4,290 967.7,291.8 967,295.2 			"/>
			<polygon class="st0" points="956.4,286.7 958.7,287.3 958.3,289.5 955.8,289.1 			"/>
		</g>
	</g>
</g>
<g>
	<g>
		<g>
			<polygon class="st0" points="605.9,324.7 606.6,321.4 603.4,320.6 602.7,323.9 			"/>
			<polygon class="st0" points="617.6,336 616.3,340.8 603,338.1 602.3,341.3 619,345.1 623.4,324.9 610,321.9 609.2,325.4 
				619.2,327.6 618.2,332.5 601.4,328.9 600.7,332.3 			"/>
			<polygon class="st0" points="609.9,306.2 611,301.1 621.1,303.4 621.7,299.9 608.3,297 603.9,317.2 624.1,321.6 625.1,318.2 
				608,314.5 609.3,309.5 622.5,312.5 623.3,308.9 			"/>
			<polygon class="st0" points="627.9,304.7 624.5,304 625.4,300.7 628.5,301.3 			"/>
			<polygon class="st0" points="632.8,281.1 633.5,277.8 613.3,273.5 609,293.7 625.7,297.3 626.5,293.8 613.3,291.2 614.2,286.1 
				624.4,288.2 624.9,284.7 615,282.6 616.1,277.6 			"/>
			<polygon class="st0" points="631.1,289.7 627.8,289 628.4,285.4 631.9,286.2 			"/>
			<polygon class="st0" points="640,346 639.3,349.3 642.6,350 643.3,346.7 			"/>
			<polygon class="st0" points="628.3,334.6 629.5,329.7 642.8,332.6 643.5,329.3 626.9,325.5 622.5,345.7 635.7,348.7 636.5,345.2 
				626.6,343.2 627.4,338.1 644.4,341.7 645.2,338.4 			"/>
			<polygon class="st0" points="633.3,311.2 634.6,306.2 644.6,308.3 645.2,304.9 632,302.2 627.5,322.2 647.7,326.5 648.5,323.2 
				631.5,319.5 632.7,314.6 646.1,317.4 646.8,314.1 			"/>
			<polygon class="st0" points="651.3,309.9 647.9,309.1 648.7,305.5 652.1,306.5 			"/>
			<polygon class="st0" points="633.3,295.4 632.8,298.7 652.6,302.9 657.1,282.9 640.2,279.3 639.7,282.7 652.9,285.4 652,290.6 
				641.8,288.5 641.1,291.8 651.2,293.9 650.2,299.1 			"/>
			<polygon class="st0" points="635.3,287 638.5,287.8 637.8,290.8 634.4,290.3 			"/>
			<polygon class="st0" points="697.3,309.1 696.3,312.4 699.8,313.2 700.6,309.7 			"/>
			<polygon class="st0" points="685.6,297.7 686.6,292.6 700.1,295.7 700.9,292.4 683.9,288.6 679.4,308.8 693.2,311.9 694,308.4 
				683.7,306.1 684.8,301.2 701.6,304.6 702.3,301.3 			"/>
			<polygon class="st0" points="693.2,327.4 691.9,332.4 681.9,330.3 681.3,333.7 694.7,336.6 699.1,316.4 678.9,312.1 678.3,315.5 
				695,319.2 693.7,324 680.4,321.3 679.8,324.6 			"/>
			<polygon class="st0" points="675.3,329 678.8,329.8 677.8,333.1 674.6,332.3 			"/>
			<polygon class="st0" points="693.2,343.2 694,340 673.8,335.7 669.4,355.8 686.3,359.4 686.9,355.9 673.5,353.2 674.6,348.1 
				684.8,350.3 685.5,347 675.4,344.7 676.5,339.7 			"/>
			<polygon class="st0" points="691.3,351.8 688,351.1 688.8,347.8 692.3,348.3 			"/>
			<polygon class="st0" points="673.8,304.1 672.8,307.3 676.1,308.1 677.1,304.8 			"/>
			<polygon class="st0" points="662.1,292.8 663.2,287.6 676.6,290.6 677.4,287.3 660.4,283.5 656.1,303.7 669.7,306.6 670.3,303.3 
				660.2,301 661.3,296.1 678.2,299.7 678.8,296.4 			"/>
			<polygon class="st0" points="657,316.2 658,311.3 668.2,313.3 668.8,310 655.5,307.2 651,327.2 671.3,331.6 672,328.3 
				655.2,324.7 656.4,319.7 669.6,322.5 670.4,319.2 			"/>
			<polygon class="st0" points="675,314.9 671.5,313.9 672.1,310.6 675.6,311.4 			"/>
			<polygon class="st0" points="646.6,347.4 646.1,350.9 666.1,355.1 670.4,334.9 653.7,331.4 652.9,334.8 666.3,337.6 665.2,342.5 
				655.2,340.4 654.3,343.7 664.5,346.1 663.4,351 			"/>
			<polygon class="st0" points="648.6,339.1 651.8,339.9 651.3,343 647.8,342.4 			"/>
		</g>
	</g>
</g>
<g>
	<g>
		<g>
			<polygon class="st0" points="612.4,191.5 614.6,180.6 604.2,177.9 602,188.7 			"/>
			<polygon class="st0" points="650.5,228.2 646.5,244 602.7,235.3 600.5,245.6 655.2,258 669.7,192 625.8,182.3 623.2,193.6 
				655.7,200.7 652.7,216.9 597.5,205.1 595.4,216.4 			"/>
			<polygon class="st0" points="625.5,130.9 629,114.2 662,121.6 664.2,110.4 620.3,100.7 605.9,166.7 671.9,181.2 675,170.2 
				619.4,158 623.4,141.7 666.7,151.4 669.3,139.6 			"/>
			<polygon class="st0" points="684.1,126 673.3,123.8 676,112.9 686.3,114.7 			"/>
			<polygon class="st0" points="700.3,48.7 702.5,37.9 636.5,23.9 622.5,89.9 677.2,101.7 679.8,90.4 636.5,81.6 639.5,65 673,71.9 
				674.7,60.7 642.2,53.6 645.7,37.4 			"/>
			<polygon class="st0" points="694.7,76.8 683.9,74.6 685.9,62.8 697.3,65.4 			"/>
			<polygon class="st0" points="723.8,261.1 721.6,271.9 732.4,274.1 734.6,263.3 			"/>
			<polygon class="st0" points="685.6,223.9 689.6,207.6 733,217.3 735.2,206.5 681,194.1 666.5,260.1 709.9,269.8 712.5,258.5 
				680,251.9 682.6,235.3 738.2,247 740.8,236.2 			"/>
			<polygon class="st0" points="701.8,147.1 706.3,130.8 738.8,137.8 740.9,126.5 697.7,117.8 683.2,183.3 749.1,197.3 751.8,186.4 
				696.1,174.2 700.2,158.4 743.9,167.6 746.1,156.7 			"/>
			<polygon class="st0" points="761,143.1 749.7,140.5 752.2,128.7 763.6,131.8 			"/>
			<polygon class="st0" points="702,95.7 700.3,106.4 765.2,120.1 779.8,54.5 724.6,42.7 723,54 766.2,62.7 763.3,79.9 729.8,72.9 
				727.6,83.8 760.6,90.8 757.1,107.5 			"/>
			<polygon class="st0" points="708.6,68 719,70.7 716.7,80.6 705.5,78.9 			"/>
			<polygon class="st0" points="911.2,140.3 908,151.2 919.4,153.8 922,142.5 			"/>
			<polygon class="st0" points="873,103.1 876.5,86.3 920.4,96.5 923,85.6 867.4,73.4 852.9,139.4 897.7,149.4 900.4,138.1 
				866.9,130.7 870.4,114.4 925.5,125.7 927.7,114.9 			"/>
			<polygon class="st0" points="898,200.4 893.5,216.7 861,209.7 858.9,220.9 902.7,230.1 917.1,164.1 851.2,150.1 849.1,161.4 
				903.7,173.3 899.7,189.1 855.9,180.4 854.2,191.2 			"/>
			<polygon class="st0" points="839.4,205.3 850.7,207.9 847.6,218.8 837.2,216.1 			"/>
			<polygon class="st0" points="897.8,251.8 900.5,241.4 834.6,227.4 820.1,292.9 875.2,304.8 877.3,293.5 833.6,284.7 837.1,268 
				870.5,275 872.7,264.2 839.7,256.7 843.2,240.4 			"/>
			<polygon class="st0" points="891.7,279.9 880.9,277.7 883.6,266.8 894.8,268.5 			"/>
			<polygon class="st0" points="834.4,124.1 831.2,134.5 842.1,137.2 845.2,126.3 			"/>
			<polygon class="st0" points="796.2,86.9 799.7,70.2 843.6,79.8 846.2,69 790.6,56.7 776.6,122.7 820.9,132.3 823.1,121.5 
				790.1,114 793.6,97.7 848.7,109.6 850.9,98.7 			"/>
			<polygon class="st0" points="779.6,163.7 782.6,147.5 816,154 818.2,143.1 774.4,134 759.9,199.5 826.4,213.9 828.6,203.1 
				773.4,191.3 777.4,175 820.8,184.2 823.4,173.4 			"/>
			<polygon class="st0" points="838.2,159.2 826.8,156.2 829,145.3 840.4,148 			"/>
			<polygon class="st0" points="745.4,265.5 743.8,277.2 809.2,290.8 823.2,224.8 768.6,213.4 766,224.3 809.8,233.5 806.2,249.7 
				773.7,242.7 770.6,253.6 804.1,261.5 800.6,277.3 			"/>
			<polygon class="st0" points="752.1,238.3 762.5,241 760.7,251.3 749.4,249.2 			"/>
		</g>
	</g>
</g>
<g>
	<g>
		<g>
			<polygon class="st0" points="68.5,359.6 64.4,358.8 63.7,362.9 67.7,363.7 			"/>
			<polygon class="st0" points="82.2,345.4 88.1,346.8 85.1,363 88.9,363.8 93.2,343.3 68.4,338.6 65.3,354.6 69.2,355.6 
				71.9,343.4 78,344.6 73.8,365.1 78,366 			"/>
			<polygon class="st0" points="46,355.1 39.7,354.1 42.3,341.5 38.2,340.9 34.8,357.1 59.4,362.3 64.2,337.7 60.4,336.6 
				56.1,357.4 50.1,355.9 53.5,339.7 49.2,339 			"/>
			<polygon class="st0" points="43.9,333.5 43,337.4 39.2,336.5 39.9,332.6 			"/>
			<polygon class="st0" points="15,327.6 11.1,327 6,351.5 30.8,356.3 34.8,336 30.7,335.2 27.7,351.4 21.3,350.3 23.9,337.7 
				19.7,337.1 17.1,349.5 11.2,348 			"/>
			<polygon class="st0" points="25.4,329.7 24.7,333.7 20.4,333 21.3,328.7 			"/>
			<polygon class="st0" points="94,318 98,318.8 98.9,314.7 94.8,314 			"/>
			<polygon class="st0" points="80.2,332.5 74.4,330.9 77.4,314.6 73.4,313.8 69.3,334.4 94.1,339.1 97.1,323 93,322.2 90.8,334.3 
				84.5,333.3 88.6,312.7 84.4,311.8 			"/>
			<polygon class="st0" points="51.5,326.5 45.5,325.2 47.9,313 43.8,312.1 40.7,328.5 65.3,333.6 70.2,308.9 66.1,308 61.9,328.7 
				55.8,327.2 59,310.9 55,310.2 			"/>
			<polygon class="st0" points="49.9,304.6 48.9,308.8 44.8,308 45.6,303.8 			"/>
			<polygon class="st0" points="32.5,326.9 36.6,327.5 41.3,303.1 16.8,298.1 12.6,318.6 16.9,319.3 20.1,303 26.2,304.2 
				23.8,316.7 27.9,317.4 30.4,305.1 36.5,306.4 			"/>
			<polygon class="st0" points="22.3,324.7 23.1,320.6 26.8,321.5 26.2,325.6 			"/>
			<polygon class="st0" points="48.1,248.8 52.2,249.9 52.9,245.8 48.8,244.8 			"/>
			<polygon class="st0" points="34.6,263.1 28.3,262.1 31.8,245.5 27.6,244.6 23.5,265.3 48,270.4 51.5,253.7 47.3,252.8 
				44.6,265.4 38.6,263.9 42.6,243.6 38.4,242.8 			"/>
			<polygon class="st0" points="70.6,253.4 76.8,255 74.2,267.1 78.5,267.8 81.6,251.5 57,246.6 51.9,271.2 56.3,271.7 60.2,251.4 
				66.3,252.7 63.1,269.1 67.2,269.9 			"/>
			<polygon class="st0" points="72.8,275.2 73.5,270.9 77.5,272 76.7,276 			"/>
			<polygon class="st0" points="89.6,253 85.8,252.4 80.8,276.7 105.3,282.1 109.5,261.3 105.2,260.6 102.2,276.9 96,275.7 
				98.4,263.5 94.5,262.6 91.8,274.9 85.5,273.7 			"/>
			<polygon class="st0" points="100.1,255.3 99.2,259.3 95.3,258.5 95.9,254.3 			"/>
			<polygon class="st0" points="42.3,277.5 46.3,278.4 47.3,274.3 43.1,273.5 			"/>
			<polygon class="st0" points="28.9,291.8 22.5,290.8 25.9,274.2 21.7,273.3 17.6,294 42.2,299 45.5,282.5 41.5,281.6 39.1,294 
				32.8,292.7 37,272.2 32.8,271.5 			"/>
			<polygon class="st0" points="57.5,297.7 51.2,296.5 53.7,284.1 49.6,283.4 46.4,299.8 70.8,304.8 76,280.1 71.9,279.3 
				67.8,299.9 61.7,298.5 64.7,282.2 60.7,281.2 			"/>
			<polygon class="st0" points="55.3,275.9 54.4,280.2 50.4,279.4 51.1,275.1 			"/>
			<polygon class="st0" points="95.5,309.7 99.8,310.4 104.6,285.9 80,281 75.9,301.5 80.1,302.3 83.3,286 89.3,287.2 86.8,299.6 
				91,300.4 93.6,288 99.6,289.3 			"/>
			<polygon class="st0" points="85.4,307.7 86.2,303.6 90.3,304.4 89.3,308.5 			"/>
		</g>
	</g>
</g>
</svg>
