<?xml version="1.0" encoding="utf-8"?>
<!-- Generator: Adobe Illustrator 24.3.0, SVG Export Plug-In . SVG Version: 6.00 Build 0)  -->
<svg version="1.1" id="Camada_1" xmlns="http://www.w3.org/2000/svg" xmlns:xlink="http://www.w3.org/1999/xlink" x="0px" y="0px"
	 width="900px" height="300px" viewBox="0 0 900 300" style="enable-background:new 0 0 900 300;" xml:space="preserve">
<style type="text/css">
	.st0{fill:#292930;}
</style>
<polygon class="st0" points="642.8,204.1 652.3,186.5 634.7,177 625.3,194.5 "/>
<polygon class="st0" points="619,248 628.5,230.4 540.8,182.8 555,156.5 607.7,185 617.2,167.5 547,129.4 490,234.8 577.8,282.4 
	587.3,264.8 517,226.7 531.4,200.4 "/>
<polygon class="st0" points="607.2,59.9 597.7,77.4 667.9,115.5 653.7,141.9 566,94.3 556.5,111.8 661.8,169 718.7,63.5 648.5,25.4 
	639,43 691.6,71.6 677.4,97.9 "/>
<polygon class="st0" points="613.4,6.4 630.9,15.9 621.4,33.5 603.9,24 "/>
<polygon class="st0" points="766.5,178.1 757,195.6 827.2,233.7 813,260.1 725.3,212.5 715.8,230 821.1,287.2 878,181.7 
	807.8,143.6 798.3,161.2 850.9,189.8 836.7,216.1 "/>
<polygon class="st0" points="772.7,124.6 790.2,134.1 780.7,151.7 763.2,142.2 "/>
<polygon class="st0" points="376.6,150.6 367.1,168.1 384.8,177.7 394.3,160.1 "/>
<polygon class="st0" points="400.4,106.6 390.9,124.2 478.6,171.8 464.4,198.2 411.8,169.6 402.3,187.2 472.4,225.3 529.4,119.8 
	441.6,72.2 432.1,89.8 502.4,127.9 488.1,154.3 "/>
<polygon class="st0" points="373.4,114.7 355.8,105.2 365.3,87.6 382.9,97.1 "/>
<g>
	<polygon class="st0" points="303,189.5 304.1,187.5 302.1,186.4 301,188.4 	"/>
	<polygon class="st0" points="300.3,194.7 301.5,192.6 291.1,187 292.8,184 299,187.3 300,185.2 291.9,180.8 285.1,193.2 
		295.5,198.7 296.5,196.7 288.4,192.2 290,189.1 	"/>
	<polygon class="st0" points="299,172.6 297.8,174.7 306,179.1 304.4,182.2 294,176.6 293,178.7 305.4,185.4 312,173 303.8,168.6 
		302.6,170.6 308.9,174 307.1,177.1 	"/>
	<polygon class="st0" points="299.6,166.3 301.6,167.4 300.5,169.5 298.5,168.4 	"/>
	<polygon class="st0" points="316.6,159.5 315,162.6 308.8,159.3 307.6,161.3 313.9,164.7 312.1,167.8 304,163.3 302.9,165.4 
		313.1,171 319.9,158.6 307.5,151.9 306.4,153.9 	"/>
	<polygon class="st0" points="304.6,157 306.8,158.1 305.5,160.2 303.5,159.1 	"/>
	<polygon class="st0" points="271.9,183.3 270.8,185.3 272.8,186.4 273.9,184.4 	"/>
	<polygon class="st0" points="274.6,178.1 273.5,180.2 283.9,185.8 282.1,188.9 276,185.5 274.9,187.6 283,192 289.8,179.6 
		279.5,174.1 278.4,176.1 286.5,180.6 285,183.7 	"/>
	<polygon class="st0" points="284.5,164.8 283.4,166.8 291.6,171.3 290,174.4 279.6,168.8 278.5,170.9 290.9,177.6 297.5,165.2 
		289.4,160.7 288.3,162.8 294.4,166.1 292.8,169.2 	"/>
	<polygon class="st0" points="285.1,158.5 287.3,159.6 286.1,161.7 284,160.6 	"/>
	<polygon class="st0" points="289.5,155.5 291.1,152.4 297.4,155.7 298.5,153.7 292.3,150.3 294,147.2 302.1,151.7 303.4,149.6 
		293,144 286.4,156.4 298.6,163.1 299.8,161.1 	"/>
	<polygon class="st0" points="301.5,158 299.5,156.8 300.5,154.8 302.5,155.9 	"/>
	<polygon class="st0" points="258.6,138.7 257.5,140.8 259.6,141.9 260.6,139.8 	"/>
	<polygon class="st0" points="261.4,133.5 260.3,135.6 270.5,141.2 268.9,144.3 262.6,140.9 261.5,143 269.9,147.5 276.5,135.1 
		266.1,129.5 265,131.6 273.4,136 271.6,139.1 	"/>
	<polygon class="st0" points="262.8,155.6 263.9,153.6 255.7,149.1 257.3,146 267.5,151.6 268.8,149.5 256.4,142.8 249.7,155.2 
		257.9,159.7 259.1,157.6 252.9,154.3 254.5,151.2 	"/>
	<polygon class="st0" points="262,161.9 260,160.8 261,158.7 263.1,159.9 	"/>
	<polygon class="st0" points="257.8,164.9 256.1,168 249.9,164.7 248.8,166.7 255,170.1 253.3,173.2 245.1,168.7 243.9,170.8 
		254.3,176.4 260.9,164 248.6,157.3 247.5,159.3 	"/>
	<polygon class="st0" points="245.8,162.4 247.8,163.6 246.7,165.6 244.7,164.5 	"/>
	<polygon class="st0" points="273,146.5 271.9,148.6 274,149.7 275,147.6 	"/>
	<polygon class="st0" points="275.8,141.4 274.6,143.4 285,149 283.3,152.1 277.1,148.8 276,150.8 284.3,155.3 291,142.9 
		280.6,137.3 279.5,139.4 287.8,143.9 286,147 	"/>
	<polygon class="st0" points="270,156.9 269,159 277.1,163.5 275.5,166.6 265.1,161 264,163 276.5,169.7 283.1,157.4 274.9,152.9 
		273.8,154.9 280,158.3 278.3,161.4 	"/>
	<polygon class="st0" points="270.8,150.6 272.9,151.8 271.8,153.8 269.6,152.7 	"/>
	<polygon class="st0" points="259.5,176.5 261.1,173.5 267.4,176.8 268.5,174.7 262.3,171.4 264,168.3 272.1,172.8 273.3,170.7 
		263,165.1 256.3,177.5 268.6,184.2 269.8,182.1 	"/>
	<polygon class="st0" points="271.5,179 269.4,177.9 270.5,175.9 272.5,177 	"/>
</g>
<g>
	<polygon class="st0" points="701,147.1 703.1,148.2 704.2,146.1 702.1,145 	"/>
	<polygon class="st0" points="695.8,144.3 697.9,145.4 703.5,135.1 706.6,136.8 703.2,143 705.3,144.1 709.8,135.8 697.4,129.1 
		691.8,139.4 693.8,140.6 698.3,132.3 701.4,134 	"/>
	<polygon class="st0" points="717.9,142.9 715.9,141.8 711.4,150 708.3,148.4 713.9,138 711.8,136.9 705.1,149.3 717.5,156 
		722,147.7 719.9,146.6 716.6,152.8 713.5,151.1 	"/>
	<polygon class="st0" points="724.2,143.6 723.1,145.7 721,144.6 722.1,142.5 	"/>
	<polygon class="st0" points="731,160.6 727.9,158.9 731.3,152.8 729.2,151.6 725.9,157.8 722.8,156.2 727.2,147.9 725.2,146.8 
		719.6,157.1 732,163.8 738.7,151.4 736.6,150.3 	"/>
	<polygon class="st0" points="733.5,148.6 732.4,150.7 730.3,149.6 731.4,147.5 	"/>
	<polygon class="st0" points="707.3,115.8 705.2,114.7 704.1,116.8 706.2,117.9 	"/>
	<polygon class="st0" points="712.4,118.6 710.4,117.5 704.8,127.8 701.7,126.1 705,119.9 703,118.8 698.5,127.1 710.9,133.8 
		716.5,123.4 714.4,122.3 709.9,130.6 706.8,128.9 	"/>
	<polygon class="st0" points="725.8,128.5 723.7,127.3 719.2,135.6 716.1,133.9 721.7,123.6 719.7,122.5 712.9,134.9 725.3,141.6 
		729.8,133.3 727.7,132.2 724.4,138.4 721.3,136.7 	"/>
	<polygon class="st0" points="732,129.2 730.9,131.2 728.9,130.1 730,128.1 	"/>
	<polygon class="st0" points="735.1,133.5 738.2,135.2 734.8,141.3 736.9,142.5 740.2,136.3 743.3,137.9 738.8,146.2 740.9,147.3 
		746.5,137 734.1,130.3 727.4,142.7 729.5,143.8 	"/>
	<polygon class="st0" points="732.6,145.5 733.7,143.4 735.7,144.5 734.6,146.6 	"/>
	<polygon class="st0" points="751.8,102.5 749.8,101.4 748.7,103.5 750.7,104.6 	"/>
	<polygon class="st0" points="757,105.3 754.9,104.2 749.3,114.5 746.2,112.9 749.6,106.7 747.5,105.6 743.1,113.8 755.4,120.5 
		761,110.2 759,109.1 754.5,117.3 751.4,115.6 	"/>
	<polygon class="st0" points="734.9,106.7 737,107.8 741.4,99.6 744.5,101.3 738.9,111.6 741,112.7 747.7,100.3 735.3,93.6 
		730.9,101.9 732.9,103 736.3,96.8 739.4,98.5 	"/>
	<polygon class="st0" points="728.6,106 729.7,103.9 731.8,105.1 730.7,107.1 	"/>
	<polygon class="st0" points="725.6,101.7 722.5,100 725.9,93.9 723.8,92.7 720.4,98.9 717.3,97.3 721.8,89 719.7,87.9 714.2,98.2 
		726.5,104.9 733.3,92.5 731.2,91.4 	"/>
	<polygon class="st0" points="728.1,89.7 727,91.8 724.9,90.7 726,88.6 	"/>
	<polygon class="st0" points="744,117 741.9,115.9 740.8,117.9 742.9,119 	"/>
	<polygon class="st0" points="749.2,119.8 747.1,118.7 741.5,129 738.4,127.3 741.8,121.1 739.7,120 735.2,128.2 747.6,134.9 
		753.2,124.6 751.1,123.5 746.7,131.8 743.6,130.1 	"/>
	<polygon class="st0" points="733.6,114 731.5,112.9 727.1,121.2 724,119.5 729.6,109.2 727.5,108.1 720.8,120.4 733.2,127.1 
		737.6,118.9 735.6,117.8 732.2,124 729.1,122.3 	"/>
	<polygon class="st0" points="739.9,114.8 738.8,116.8 736.7,115.7 737.8,113.6 	"/>
	<polygon class="st0" points="714,103.4 717.1,105.1 713.7,111.3 715.8,112.4 719.1,106.2 722.2,107.9 717.8,116.1 719.8,117.3 
		725.4,107 713,100.3 706.3,112.6 708.4,113.8 	"/>
	<polygon class="st0" points="711.5,115.4 712.6,113.4 714.7,114.5 713.6,116.5 	"/>
</g>
<polygon class="st0" points="253.8,0 242.5,21 203.8,0 185.7,0 180.3,10 233,38.5 218.8,64.9 148.6,26.8 139.1,44.4 226.8,92 
	276.5,0 "/>
<polygon class="st0" points="299.1,0 244.4,101.5 349.6,158.6 359.1,141.1 271.4,93.4 285.5,67.1 338.3,95.7 347.8,78.1 295,49.5 
	309.4,23.2 379.5,61.3 388.9,43.7 308.5,0 "/>
<polygon class="st0" points="217.6,216.2 200,206.7 209.5,189.1 227.1,198.6 "/>
<polygon class="st0" points="143.4,101.5 88.6,203 193.9,260.1 203.4,242.6 115.6,194.9 129.8,168.6 182.5,197.2 192,179.6 
	139.3,151 153.6,124.7 223.8,162.8 233.2,145.2 152.7,101.5 "/>
<polygon class="st0" points="412.5,0 408,8.5 392.4,0 350.5,0 416,35.6 435.3,0 "/>
<polygon class="st0" points="559.7,0 568.8,4.9 554.5,31.3 496.9,0 480.6,0 474.9,10.8 545,48.9 530.9,75.2 443,27.6 433.5,45.2 
	538.9,102.3 594,0 "/>
<polygon class="st0" points="730.3,0 720.1,18.8 685.5,0 643.5,0 728.2,45.9 753,0 "/>
</svg>
