<?xml version="1.0" encoding="utf-8"?>
<!-- Generator: Adobe Illustrator 24.3.0, SVG Export Plug-In . SVG Version: 6.00 Build 0)  -->
<svg version="1.1" id="Camada_1" xmlns="http://www.w3.org/2000/svg" xmlns:xlink="http://www.w3.org/1999/xlink" x="0px" y="0px"
	 width="1000px" height="100px" viewBox="0 0 1000 100" style="enable-background:new 0 0 1000 100;" xml:space="preserve">
<style type="text/css">
	.st0{fill:url(#SVGID_1_);}
	.st1{fill:#555560;}
	.st2{fill:#FFCD4B;}
	.st3{fill:#49D3FF;}
	.st4{fill:#32323A;}
	.st5{fill:#1EED89;}
	.st6{fill:#FE5D7A;}
	.st7{fill:#FFFFFF;}
</style>
<linearGradient id="SVGID_1_" gradientUnits="userSpaceOnUse" x1="500" y1="100" x2="500" y2="-9.094947e-13">
	<stop  offset="0" style="stop-color:#18181C"/>
	<stop  offset="1" style="stop-color:#26262D"/>
</linearGradient>
<rect class="st0" width="1000" height="100"/>
<path class="st1" d="M133.3,36.2l0.3,0v2.2l-0.3,0c-2,0-4.1,0.1-6.2,0.2l-0.1-2.2C129.1,36.3,131.2,36.2,133.3,36.2z"/>
<path class="st1" d="M140.1,36.4c2.2,0.1,4.4,0.3,6.5,0.6l-0.2,2.2c-2.1-0.3-4.3-0.4-6.4-0.6L140.1,36.4z"/>
<path class="st1" d="M120.5,36.9l0.2,2.2c-2.1,0.2-4.2,0.5-6.4,0.8l-0.3-2.2C116.1,37.4,118.3,37.1,120.5,36.9z"/>
<path class="st1" d="M153.1,38c2.1,0.4,4.3,0.8,6.4,1.3l-0.5,2.2c-2.1-0.5-4.2-0.9-6.3-1.3L153.1,38z"/>
<path class="st1" d="M107.5,38.8l0.4,2.2c-1.2,0.2-2.4,0.5-3.6,0.7c-0.9,0.2-1.8,0.4-2.8,0.6l-0.5-2.2c0.9-0.2,1.9-0.4,2.8-0.6
	C105.1,39.3,106.3,39.1,107.5,38.8z"/>
<path class="st1" d="M165.8,41c2,0.6,4.1,1.2,6.3,1.9l-0.7,2.1c-2.1-0.7-4.2-1.3-6.2-1.9L165.8,41z"/>
<path class="st1" d="M94.7,41.7l0.5,2.2c-2,0.5-4.1,1-6.3,1.6l-0.5-2.2C90.6,42.8,92.7,42.2,94.7,41.7z"/>
<path class="st1" d="M82.1,44.9l0.5,2.2c-2.1,0.5-4.2,1-6.3,1.5l-0.5-2.2C78,45.9,80.1,45.4,82.1,44.9z"/>
<path class="st2" d="M178.3,45c2,0.7,4.1,1.5,6.1,2.3l-0.8,2.1c-2-0.8-4.1-1.5-6.1-2.3L178.3,45z"/>
<path class="st1" d="M69.5,47.9l0.4,2.2c-2.1,0.5-4.2,0.9-6.4,1.3l-0.4-2.2C65.3,48.8,67.4,48.3,69.5,47.9z"/>
<path class="st3" d="M190.5,49.7c1.8,0.7,3.6,1.4,5.5,2.2l0.6,0.2l-0.8,2.1l-0.6-0.2c-1.8-0.7-3.7-1.5-5.5-2.2L190.5,49.7z"/>
<path class="st1" d="M56.8,50.4l0.4,2.2c-2.2,0.4-4.3,0.7-6.5,1l-0.3-2.2C52.5,51.1,54.6,50.7,56.8,50.4z"/>
<path class="st1" d="M43.9,52.2l0.2,2.2c-2.2,0.2-4.3,0.5-6.5,0.7l-0.2-2.2C39.6,52.7,41.8,52.4,43.9,52.2z"/>
<path class="st1" d="M31,53.3l0.1,2.2c-2.2,0.1-4.4,0.2-6.5,0.3l-0.1-2.2C26.7,53.5,28.9,53.4,31,53.3z"/>
<path class="st4" d="M11.7,53.5c2.1,0.1,4.3,0.1,6.5,0.1l0,2.2c-2.2,0-4.4-0.1-6.5-0.1L11.7,53.5z"/>
<path class="st5" d="M202.6,54.6c2,0.8,4,1.6,6.1,2.4l-0.8,2.1c-2.1-0.8-4.1-1.6-6.1-2.4L202.6,54.6z"/>
<path class="st1" d="M458,55.3c0.7,0,1.5,0,2.3,0c1,0,2,0,3,0l0,2.2c-1,0-2,0-2.9,0c-0.8,0-1.5,0-2.3,0l-1.3,0l0-2.2L458,55.3z"/>
<path class="st1" d="M450.2,55.4l0,2.2c-2.2,0-4.4,0.1-6.5,0.2l-0.1-2.2C445.8,55.5,448,55.4,450.2,55.4z"/>
<path class="st1" d="M469.7,55.5c2.2,0.1,4.4,0.1,6.5,0.2l-0.1,2.2c-2.1-0.1-4.3-0.2-6.5-0.2L469.7,55.5z"/>
<path class="st1" d="M437.2,55.9l0.1,2.2c-2.2,0.1-4.4,0.3-6.5,0.4l-0.2-2.2C432.8,56.1,434.9,56,437.2,55.9z"/>
<path class="st1" d="M482.7,56c2.2,0.1,4.4,0.3,6.5,0.4l-0.2,2.2c-2.1-0.2-4.3-0.3-6.5-0.4L482.7,56z"/>
<path class="st1" d="M424.2,56.9l0.2,2.2c-2.2,0.2-4.3,0.5-6.4,0.7l-0.3-2.2C419.8,57.3,422,57.1,424.2,56.9z"/>
<path class="st1" d="M495.7,57c2.2,0.2,4.4,0.4,6.5,0.7L502,60c-2.1-0.2-4.2-0.5-6.4-0.7L495.7,57z"/>
<path class="st1" d="M411.3,58.5l0.3,2.2c-2.1,0.3-4.3,0.7-6.4,1.1l-0.4-2.2C406.9,59.2,409.1,58.8,411.3,58.5z"/>
<path class="st1" d="M508.7,58.6c2.2,0.3,4.3,0.6,6.4,1l-0.3,2.2c-2.1-0.3-4.2-0.7-6.4-1L508.7,58.6z"/>
<path class="st6" d="M214.8,59.2c2,0.7,4,1.5,6.1,2.2l-0.7,2.1c-2.1-0.7-4.1-1.5-6.2-2.2L214.8,59.2z"/>
<path class="st1" d="M521.5,60.6c2.2,0.4,4.3,0.8,6.4,1.2l-0.4,2.2c-2.1-0.4-4.2-0.8-6.4-1.2L521.5,60.6z"/>
<path class="st1" d="M398.4,60.9l0.5,2.2c-2.1,0.5-4.2,1-6.3,1.5l-0.5-2.2C394.2,61.9,396.3,61.4,398.4,60.9z"/>
<path class="st1" d="M534.3,63.2c2.1,0.5,4.3,1,6.3,1.5l-0.5,2.2c-2.1-0.5-4.2-1-6.3-1.4L534.3,63.2z"/>
<path class="st1" d="M227,63.5c2,0.7,4.1,1.3,6.2,1.9l-0.6,2.1c-2.1-0.6-4.2-1.3-6.2-1.9L227,63.5z"/>
<path class="st1" d="M385.8,64.1l0.6,2.2c-2.1,0.6-4.2,1.2-6.2,1.8l-0.6-2.1C381.6,65.4,383.6,64.8,385.8,64.1z"/>
<path class="st2" d="M547,66.2c2.1,0.5,4.2,1.1,6.3,1.6l-0.5,2.2c-2.1-0.5-4.2-1.1-6.3-1.6L547,66.2z"/>
<path class="st1" d="M239.5,67.2c2.1,0.6,4.2,1.1,6.3,1.6l-0.5,2.2c-2.1-0.5-4.2-1.1-6.3-1.7L239.5,67.2z"/>
<path class="st1" d="M373.3,67.9l0.6,2.1c-2.1,0.7-4.1,1.3-6.2,1.9l-0.6-2.1C369.2,69.2,371.2,68.6,373.3,67.9z"/>
<polygon class="st5" points="559.6,69.4 565.9,71.1 565.3,73.2 559,71.6 "/>
<path class="st1" d="M252,70.3c2.1,0.5,4.2,0.9,6.3,1.3l-0.4,2.2c-2.1-0.4-4.3-0.9-6.4-1.3L252,70.3z"/>
<path class="st4" d="M360.9,71.7l0.6,2.2c-2.2,0.6-4.3,1.2-6.3,1.6l-0.5-2.2C356.7,72.8,358.7,72.3,360.9,71.7z"/>
<path class="st3" d="M572.1,72.7c2.1,0.5,4.2,1,6.3,1.6l-0.5,2.2c-2.1-0.5-4.2-1-6.3-1.6L572.1,72.7z"/>
<path class="st1" d="M264.7,72.9c2.1,0.4,4.2,0.7,6.4,1l-0.3,2.2c-2.2-0.3-4.3-0.7-6.4-1.1L264.7,72.9z"/>
<path class="st7" d="M784.3,73.1l0,2.2c-2.2,0-4.4,0-6.5,0.1l-0.1-2.2C779.9,73.1,782.1,73.1,784.3,73.1z"/>
<path class="st1" d="M790.8,73.1c2.1,0,4.3,0.1,6.5,0.2l-0.1,2.2c-2.2-0.1-4.4-0.1-6.5-0.2L790.8,73.1z"/>
<path class="st7" d="M771.3,73.4l0.1,2.2c-2.2,0.1-4.3,0.3-6.4,0.4l-0.2-2.2C766.9,73.6,769.1,73.5,771.3,73.4z"/>
<path class="st1" d="M803.8,73.6c2.2,0.1,4.4,0.2,6.5,0.4l-0.1,2.2c-2.1-0.1-4.3-0.2-6.5-0.4L803.8,73.6z"/>
<path class="st1" d="M816.8,74.4c2.2,0.2,4.4,0.3,6.5,0.5l-0.2,2.2c-2.1-0.2-4.3-0.4-6.5-0.5L816.8,74.4z"/>
<path class="st7" d="M758.3,74.5l0.2,2.2c-2.1,0.2-4.2,0.5-6.4,0.9l-0.3-2.2C754,75,756.1,74.7,758.3,74.5z"/>
<path class="st1" d="M348.3,74.7l0.4,2.2c-2.1,0.4-4.3,0.8-6.4,1.1l-0.3-2.2C344.1,75.4,346.2,75.1,348.3,74.7z"/>
<path class="st1" d="M277.5,74.8c2.1,0.3,4.2,0.5,6.4,0.8l-0.2,2.2c-2.2-0.2-4.4-0.5-6.5-0.8L277.5,74.8z"/>
<path class="st1" d="M829.8,75.5c2.2,0.2,4.3,0.5,6.5,0.7l-0.2,2.2c-2.1-0.2-4.3-0.5-6.4-0.7L829.8,75.5z"/>
<path class="st6" d="M584.8,75.7c2.1,0.5,4.2,0.9,6.3,1.4l-0.4,2.2c-2.2-0.5-4.3-0.9-6.4-1.4L584.8,75.7z"/>
<path class="st1" d="M290.4,76.2c1.8,0.2,3.7,0.3,5.6,0.5l0.9,0.1l-0.1,2.2l-0.9-0.1c-1.9-0.1-3.8-0.3-5.6-0.5L290.4,76.2z"/>
<path class="st7" d="M745.4,76.4l0.4,2.2c-2.1,0.4-4.3,0.8-6.4,1.2l-0.4-2.2C741.1,77.2,743.2,76.8,745.4,76.4z"/>
<path class="st1" d="M335.6,76.5l0.2,2.2c-2.1,0.2-4.3,0.4-6.5,0.5l-0.1-2.2C331.4,76.9,333.5,76.8,335.6,76.5z"/>
<path class="st1" d="M842.7,77c2.2,0.3,4.3,0.6,6.5,0.8l-0.3,2.2c-2.1-0.3-4.3-0.6-6.4-0.8L842.7,77z"/>
<path class="st1" d="M303.3,77.1c2.2,0.1,4.4,0.2,6.5,0.3l-0.1,2.2c-2.1-0.1-4.3-0.1-6.5-0.3L303.3,77.1z"/>
<path class="st1" d="M322.7,77.4l0.1,2.2c-2,0.1-4.1,0.1-6.3,0.1h-0.3v-2.2h0.3C318.7,77.5,320.7,77.4,322.7,77.4z"/>
<path class="st1" d="M597.4,78.4c2.1,0.4,4.2,0.8,6.4,1.1l-0.4,2.2c-2.2-0.4-4.3-0.8-6.4-1.2L597.4,78.4z"/>
<path class="st1" d="M855.6,78.7c2.2,0.3,4.3,0.6,6.4,0.9l-0.3,2.2c-2.1-0.3-4.3-0.6-6.4-0.9L855.6,78.7z"/>
<path class="st1" d="M732.6,78.9l0.4,2.2c-2.1,0.4-4.2,0.8-6.4,1.2l-0.4-2.2C728.4,79.7,730.6,79.3,732.6,78.9z"/>
<path class="st1" d="M610.2,80.5c2.1,0.3,4.2,0.6,6.4,0.9l-0.3,2.2c-2.2-0.3-4.3-0.6-6.5-0.9L610.2,80.5z"/>
<polygon class="st1" points="868.5,80.6 874.9,81.6 874.6,83.8 868.2,82.9 "/>
<path class="st1" d="M719.9,81.2l0.3,2.2c-2.2,0.3-4.3,0.6-6.5,0.9l-0.3-2.2C715.6,81.8,717.7,81.5,719.9,81.2z"/>
<path class="st1" d="M623,82.2c2.1,0.2,4.2,0.4,6.4,0.7l-0.2,2.2c-2.2-0.2-4.4-0.4-6.5-0.7L623,82.2z"/>
<path class="st1" d="M881.3,82.6c2.1,0.3,4.3,0.6,6.4,1l-0.3,2.2c-2.2-0.3-4.3-0.6-6.4-1L881.3,82.6z"/>
<path class="st1" d="M707.1,82.9l0.2,2.2c-2.1,0.2-4.3,0.4-6.5,0.6l-0.2-2.2C702.8,83.3,705,83.1,707.1,82.9z"/>
<path class="st1" d="M635.9,83.4c2.1,0.2,4.3,0.3,6.5,0.4l-0.1,2.2c-2.2-0.1-4.4-0.3-6.5-0.4L635.9,83.4z"/>
<path class="st1" d="M694.2,83.9l0.1,2.2c-2.1,0.1-4.2,0.2-6.5,0.3l-0.1-2.2C690,84.1,692.1,84,694.2,83.9z"/>
<path class="st4" d="M648.9,84.1c2.1,0.1,4.3,0.2,6.5,0.2l-0.1,2.2c-2.2-0.1-4.4-0.1-6.5-0.2L648.9,84.1z"/>
<path class="st1" d="M681.2,84.4l0.1,2.2c-2.1,0.1-4.3,0.1-6.5,0.1l0-2.2C677,84.5,679.2,84.5,681.2,84.4z"/>
<path class="st1" d="M894.2,84.5c2.1,0.3,4.3,0.6,6.4,0.9l-0.3,2.2c-2.2-0.3-4.3-0.6-6.4-0.9L894.2,84.5z"/>
<path class="st1" d="M661.8,84.5c2.1,0,4.3,0,6.5,0.1l0,2.2c-2.2,0-4.4,0-6.5-0.1L661.8,84.5z"/>
<path class="st4" d="M907,86.2c2.1,0.3,4.3,0.5,6.4,0.7l-0.2,2.2c-2.2-0.2-4.3-0.5-6.5-0.7L907,86.2z"/>
<path class="st1" d="M919.9,87.5c2.1,0.2,4.3,0.4,6.5,0.5l-0.2,2.2c-2.2-0.2-4.4-0.3-6.5-0.5L919.9,87.5z"/>
<path class="st1" d="M991.2,88.5l0.1,2.2c-2.1,0.1-4.3,0.2-6.5,0.3l-0.1-2.2C986.9,88.7,989,88.6,991.2,88.5z"/>
<path class="st1" d="M932.9,88.5c2.1,0.1,4.3,0.2,6.5,0.4l-0.1,2.2c-2.2-0.1-4.4-0.2-6.5-0.4L932.9,88.5z"/>
<path class="st1" d="M978.2,89.1l0.1,2.2c-2.1,0.1-4.3,0.1-6.5,0.2l0-2.2C973.9,89.2,976.1,89.1,978.2,89.1z"/>
<path class="st1" d="M945.8,89.1c2.1,0.1,4.3,0.1,6.5,0.2l0,2.2c-2.2,0-4.4-0.1-6.5-0.2L945.8,89.1z"/>
<path class="st1" d="M965.2,89.3l0,2.2c-2.2,0-4.4,0-6.5,0l0-2.2C960.9,89.4,963,89.4,965.2,89.3z"/>
<path class="st2" d="M35.2,73.1l0.1,2.2c-2.2,0-4.3,0-6.5,0.1l-0.1-2.2C30.9,73.1,33.1,73.1,35.2,73.1z"/>
<path class="st5" d="M41.8,73.2c2.2,0.1,4.4,0.2,6.5,0.4l-0.2,2.2c-2.1-0.2-4.3-0.3-6.4-0.4L41.8,73.2z"/>
<path class="st1" d="M22.2,73.5l0.2,2.2c-2.1,0.2-4.3,0.4-6.4,0.6l-0.2-2.2C17.9,73.9,20.1,73.7,22.2,73.5z"/>
<path class="st3" d="M54.8,74.2c2.1,0.2,4.2,0.5,6.5,0.8L61,77.2c-2.2-0.3-4.3-0.6-6.4-0.8L54.8,74.2z"/>
<path class="st1" d="M9.2,74.9l0.3,2.2c-2.1,0.3-4.3,0.7-6.4,1L2.8,76C4.9,75.6,7.1,75.2,9.2,74.9z"/>
<path class="st6" d="M67.8,76c2.1,0.4,4.3,0.8,6.4,1.2l-0.4,2.2c-2.1-0.4-4.2-0.8-6.4-1.2L67.8,76z"/>
<polygon class="st1" points="80.6,78.5 86.9,79.8 86.5,81.9 80.1,80.7 "/>
<path class="st4" d="M202.6,80.3l0.4,2.2c-2.1,0.4-4.3,0.9-6.4,1.3l-0.4-2.2C198.5,81.2,200.6,80.7,202.6,80.3z"/>
<path class="st1" d="M93.3,81c2.1,0.4,4.2,0.8,6.4,1.2l-0.4,2.2c-2.2-0.4-4.3-0.8-6.4-1.2L93.3,81z"/>
<path class="st1" d="M189.8,82.7l0.3,2.2c-2.1,0.3-4.2,0.7-6.5,1l-0.3-2.2C185.6,83.4,187.8,83,189.8,82.7z"/>
<path class="st1" d="M106.1,83.3c2.2,0.3,4.3,0.7,6.4,0.9l-0.3,2.2c-2.1-0.3-4.3-0.6-6.5-0.9L106.1,83.3z"/>
<path class="st1" d="M177,84.5l0.2,2.2c-2.1,0.2-4.3,0.5-6.5,0.7l-0.2-2.2C172.8,85,174.9,84.7,177,84.5z"/>
<path class="st7" d="M118.9,85c2.1,0.2,4.3,0.4,6.4,0.6l-0.2,2.2c-2.1-0.2-4.3-0.4-6.5-0.6L118.9,85z"/>
<path class="st7" d="M164.1,85.7l0.1,2.2c-2.2,0.2-4.3,0.3-6.5,0.4l-0.1-2.2C159.8,86,162,85.8,164.1,85.7z"/>
<path class="st7" d="M131.8,86c2.1,0.1,4.3,0.2,6.5,0.3l-0.1,2.2c-2.2-0.1-4.4-0.1-6.5-0.3L131.8,86z"/>
<path class="st7" d="M151.2,86.3l0,2.2l-1.2,0c-1.7,0-3.4,0-5,0l-0.3,0v-2.2l0.3,0c1.6,0,3.3,0,5,0L151.2,86.3z"/>
<path class="st1" d="M175.8,13.5l1.6,0l0,2.2l-1.6,0c-1.6,0-3.3,0-4.8,0l0-2.2C172.5,13.5,174.1,13.5,175.8,13.5z"/>
<path class="st4" d="M183.9,13.6c2.1,0,4.3,0.1,6.5,0.2l-0.1,2.2c-2.2-0.1-4.4-0.1-6.5-0.2L183.9,13.6z"/>
<path class="st1" d="M164.4,13.7l0.1,2.2c-2.2,0.1-4.4,0.2-6.5,0.3l-0.1-2.2C160,13.8,162.2,13.7,164.4,13.7z"/>
<path class="st3" d="M441.3,14h0.5c2,0,4,0,6,0.1l-0.1,2.2c-2-0.1-4-0.1-6-0.1h-0.5V14z"/>
<path class="st1" d="M197,14.1c1.2,0.1,2.3,0.1,3.5,0.2c1,0.1,2,0.1,3,0.2l-0.1,2.2c-1-0.1-2-0.1-3-0.2c-1.2-0.1-2.3-0.1-3.5-0.2
	L197,14.1z"/>
<path class="st2" d="M434.8,14.1l0.1,2.2c-1.7,0-3.4,0.1-5.1,0.2l-1.4,0.1l-0.1-2.2l1.4-0.1C431.4,14.2,433.1,14.1,434.8,14.1z"/>
<path class="st5" d="M454.3,14.3c2.2,0.1,4.4,0.3,6.5,0.5l-0.2,2.2c-2.1-0.2-4.3-0.4-6.4-0.5L454.3,14.3z"/>
<path class="st1" d="M151.4,14.3l0.1,2.2c-2.2,0.2-4.3,0.3-6.5,0.5l-0.2-2.2C147,14.7,149.2,14.5,151.4,14.3z"/>
<path class="st1" d="M421.8,14.7l0.2,2.2c-2.1,0.2-4.3,0.3-6.4,0.6l-0.2-2.2C417.4,15.1,419.6,14.9,421.8,14.7z"/>
<path class="st1" d="M210,14.9c2.3,0.2,4.4,0.4,6.5,0.6l-0.2,2.2c-2.1-0.2-4.2-0.4-6.4-0.6L210,14.9z"/>
<path class="st1" d="M138.4,15.5l0.2,2.2c-2.2,0.2-4.3,0.5-6.4,0.7l-0.3-2.2C134.1,15.9,136.2,15.7,138.4,15.5z"/>
<path class="st6" d="M467.3,15.5c2.2,0.3,4.3,0.6,6.5,1l-0.4,2.2c-2.1-0.4-4.2-0.7-6.4-1L467.3,15.5z"/>
<path class="st1" d="M408.8,16l0.3,2.2c-2.1,0.3-4.3,0.6-6.4,0.9l-0.3-2.2C404.5,16.6,406.6,16.3,408.8,16z"/>
<path class="st1" d="M222.9,16.3c2.2,0.3,4.3,0.6,6.5,0.9l-0.3,2.2c-2.1-0.3-4.3-0.6-6.4-0.9L222.9,16.3z"/>
<path class="st1" d="M125.5,17l0.3,2.2c-2.2,0.3-4.3,0.6-6.4,0.9l-0.3-2.2C121.2,17.6,123.3,17.3,125.5,17z"/>
<path class="st1" d="M480.2,17.8c2.1,0.5,4.2,1,6.4,1.5l-0.5,2.2c-2.1-0.5-4.2-1.1-6.3-1.5L480.2,17.8z"/>
<path class="st1" d="M395.9,18l0.4,2.2c-2.2,0.4-4.3,0.8-6.4,1.2l-0.4-2.2C391.6,18.8,393.7,18.4,395.9,18z"/>
<path class="st1" d="M235.8,18.2c2.1,0.4,4.2,0.8,6.4,1.2l-0.4,2.2c-2.2-0.4-4.3-0.8-6.4-1.2L235.8,18.2z"/>
<polygon class="st1" points="112.6,18.9 112.9,21.1 106.5,22.1 106.2,19.9 "/>
<polygon class="st1" points="383.1,20.5 383.6,22.7 377.2,24 376.8,21.8 "/>
<path class="st1" d="M248.6,20.7c2.1,0.4,4,0.9,6,1.3l0.3,0.1l-0.5,2.2l-0.3-0.1c-2-0.4-4-0.9-6-1.3L248.6,20.7z"/>
<path class="st1" d="M99.8,20.8l0.3,2.2c-2.1,0.3-4.3,0.6-6.4,0.9l-0.3-2.2C95.5,21.5,97.7,21.1,99.8,20.8z"/>
<path class="st1" d="M492.8,21.1c2,0.6,4.1,1.3,6.2,2l-0.7,2.1c-2.1-0.7-4.1-1.4-6.1-2L492.8,21.1z"/>
<path class="st1" d="M3.1,21.5c2.1,0.3,4.3,0.6,6.4,0.9l-0.3,2.2c-2.2-0.3-4.3-0.6-6.5-0.9L3.1,21.5z"/>
<path class="st1" d="M87,22.6l0.3,2.2c-2.1,0.3-4.3,0.5-6.5,0.8l-0.2-2.2C82.7,23.1,84.8,22.9,87,22.6z"/>
<path class="st1" d="M15.9,23.1c2.1,0.2,4.3,0.4,6.4,0.6L22.2,26c-2.2-0.2-4.3-0.4-6.5-0.7L15.9,23.1z"/>
<path class="st1" d="M370.4,23.1l0.4,2.2c-2.1,0.4-4.2,0.8-6.4,1.2l-0.4-2.2C366.2,23.9,368.3,23.5,370.4,23.1z"/>
<path class="st1" d="M261.2,23.4c2.1,0.4,4.2,0.9,6.3,1.3l-0.4,2.2c-2.2-0.4-4.3-0.9-6.4-1.3L261.2,23.4z"/>
<path class="st4" d="M74.1,24l0.2,2.2c-2.1,0.2-4.3,0.4-6.5,0.5l-0.1-2.2C69.8,24.3,72,24.2,74.1,24z"/>
<path class="st1" d="M765.2,24.1l0,2.2c-2.2,0-4.4,0-6.5,0.1l-0.1-2.2C760.8,24.2,763,24.1,765.2,24.1z"/>
<path class="st6" d="M771.7,24.1c2.1,0,4.3,0.1,6.5,0.1l-0.1,2.2c-2.2-0.1-4.4-0.1-6.5-0.1L771.7,24.1z"/>
<path class="st1" d="M28.8,24.3c2.2,0.2,4.4,0.3,6.5,0.4l-0.1,2.2c-2.1-0.1-4.3-0.2-6.5-0.4L28.8,24.3z"/>
<path class="st1" d="M752.2,24.4l0.1,2.2c-2.2,0.1-4.4,0.2-6.5,0.4l-0.1-2.2C747.8,24.7,750,24.6,752.2,24.4z"/>
<path class="st2" d="M784.7,24.5l0.4,0c2.1,0.1,4.2,0.2,6.1,0.3l-0.1,2.2c-2-0.1-4-0.2-6.1-0.3l-0.4,0L784.7,24.5z"/>
<path class="st1" d="M61.2,24.8l0.1,2.2c-2.2,0.1-4.4,0.2-6.5,0.2l0-2.2C56.8,25,59,24.9,61.2,24.8z"/>
<path class="st1" d="M41.8,24.9C44,25,46.1,25,48.2,25l0,2.2c-2.1,0-4.3-0.1-6.5-0.1L41.8,24.9z"/>
<path class="st3" d="M797.7,25.3c2.3,0.2,4.4,0.4,6.5,0.6l-0.2,2.2c-2.1-0.2-4.2-0.4-6.4-0.6L797.7,25.3z"/>
<path class="st1" d="M505.2,25.3c2,0.8,4.1,1.6,6.1,2.4l-0.8,2.1c-2-0.8-4-1.6-6.1-2.3L505.2,25.3z"/>
<path class="st1" d="M357.7,25.4l0.3,2.2c-2.2,0.3-4.3,0.6-6.5,0.9l-0.3-2.2C353.4,26,355.5,25.7,357.7,25.4z"/>
<path class="st1" d="M739.2,25.4l0.2,2.2c-2.2,0.2-4.3,0.4-6.4,0.7l-0.3-2.2C734.8,25.8,737,25.6,739.2,25.4z"/>
<path class="st1" d="M273.9,25.8c2.1,0.3,4.2,0.6,6.4,0.9l-0.3,2.2c-2.2-0.3-4.3-0.6-6.5-0.9L273.9,25.8z"/>
<path class="st5" d="M810.7,26.7c2.2,0.3,4.3,0.6,6.5,0.9l-0.3,2.2c-2.1-0.3-4.3-0.6-6.4-0.9L810.7,26.7z"/>
<path class="st1" d="M726.3,27l0.3,2.2c-2.1,0.3-4.3,0.7-6.4,1l-0.4-2.2C722,27.6,724.1,27.3,726.3,27z"/>
<path class="st1" d="M344.9,27l0.2,2.2c-2.1,0.2-4.3,0.4-6.5,0.6l-0.2-2.2C340.6,27.4,342.7,27.2,344.9,27z"/>
<path class="st1" d="M286.7,27.4c2.1,0.2,4.3,0.4,6.4,0.5l-0.1,2.2c-2.2-0.1-4.4-0.3-6.5-0.5L286.7,27.4z"/>
<path class="st1" d="M332,28l0.1,2.2c-2.1,0.1-4.3,0.2-6.5,0.3l-0.1-2.2C327.7,28.2,329.9,28.1,332,28z"/>
<path class="st1" d="M299.6,28.2c2.1,0.1,4.2,0.1,6.5,0.2l0,2.2c-2.3,0-4.4-0.1-6.5-0.2L299.6,28.2z"/>
<path class="st1" d="M319,28.4l0,2.2c-1.9,0-4,0-6,0h-0.5v-2.2h0.5C315.1,28.5,317.1,28.5,319,28.4z"/>
<path class="st1" d="M823.6,28.6c2.2,0.4,4.3,0.8,6.4,1.2l-0.4,2.2c-2.1-0.4-4.2-0.8-6.4-1.2L823.6,28.6z"/>
<path class="st4" d="M713.4,29.2l0.4,2.2c-2.1,0.4-4.2,0.9-6.3,1.4l-0.5-2.2C709.2,30.1,711.3,29.6,713.4,29.2z"/>
<path class="st1" d="M517.3,30.1c2,0.8,4,1.6,6,2.4l-0.8,2.1c-2-0.8-4.1-1.6-6.1-2.4L517.3,30.1z"/>
<path class="st1" d="M836.3,31.1c1.8,0.4,3.6,0.8,5.3,1.1l1,0.2l-0.4,2.2l-1-0.2c-1.8-0.4-3.6-0.8-5.3-1.1L836.3,31.1z"/>
<path class="st1" d="M700.7,32.1l0.5,2.2c-2.1,0.5-4.2,1.1-6.3,1.6l-0.5-2.2C696.5,33.2,698.6,32.7,700.7,32.1z"/>
<path class="st1" d="M849,33.8c2.1,0.4,4.2,0.9,6.4,1.3l-0.4,2.2c-2.2-0.4-4.3-0.9-6.4-1.3L849,33.8z"/>
<path class="st1" d="M529.5,34.8c2.1,0.8,4.1,1.5,6.1,2.2l-0.7,2.1c-2-0.7-4-1.4-6.2-2.2L529.5,34.8z"/>
<path class="st1" d="M688.1,35.5l0.6,2.2c-2,0.5-3.9,1.1-5.8,1.7l-0.4,0.1l-0.6-2.2l0.4-0.1C684.2,36.6,686.2,36.1,688.1,35.5z"/>
<path class="st1" d="M997.3,36.1l0.3,2.2c-2.1,0.3-4.3,0.6-6.4,0.9l-0.3-2.2C993,36.7,995.2,36.4,997.3,36.1z"/>
<path class="st1" d="M861.8,36.3c2,0.4,4.2,0.7,6.4,1l-0.3,2.2c-2.2-0.3-4.4-0.7-6.4-1L861.8,36.3z"/>
<path class="st1" d="M984.4,37.8l0.3,2.2c-2.1,0.3-4.3,0.5-6.5,0.7l-0.2-2.2C980.2,38.3,982.3,38.1,984.4,37.8z"/>
<path class="st1" d="M874.6,38.2c2.1,0.3,4.2,0.5,6.4,0.8l-0.2,2.2c-2.2-0.2-4.4-0.5-6.5-0.8L874.6,38.2z"/>
<path class="st1" d="M541.7,39c2.1,0.6,4.2,1.3,6.2,1.8l-0.6,2.2c-2.1-0.6-4.2-1.2-6.3-1.8L541.7,39z"/>
<path class="st1" d="M675.6,39l0.6,2.2c-2.1,0.6-4.2,1.2-6.3,1.7l-0.5-2.2C671.4,40.2,673.5,39.6,675.6,39z"/>
<path class="st1" d="M971.6,39.2l0.2,2.2c-2.1,0.2-4.3,0.4-6.5,0.6l-0.2-2.2C967.3,39.6,969.4,39.4,971.6,39.2z"/>
<path class="st1" d="M887.4,39.6c2.1,0.2,4.2,0.4,6.5,0.5l-0.2,2.2c-2.2-0.2-4.4-0.3-6.5-0.5L887.4,39.6z"/>
<path class="st1" d="M958.6,40.3l0.1,2.2c-2.1,0.1-4.3,0.3-6.5,0.4l-0.1-2.2C954.3,40.5,956.5,40.4,958.6,40.3z"/>
<path class="st1" d="M900.3,40.5c2.2,0.1,4.3,0.2,6.5,0.3l-0.1,2.2c-2.2-0.1-4.3-0.2-6.5-0.3L900.3,40.5z"/>
<path class="st4" d="M945.7,41l0.1,2.2c-2.2,0.1-4.3,0.2-6.5,0.2l-0.1-2.2C941.4,41.1,943.5,41,945.7,41z"/>
<path class="st1" d="M913.3,41.1c2.2,0.1,4.3,0.1,6.5,0.2l0,2.2c-2.2,0-4.3-0.1-6.5-0.2L913.3,41.1z"/>
<path class="st1" d="M932.7,41.3l0,2.2c-1.7,0-3.4,0-5.2,0l-1.3,0l0-2.2l1.3,0C929.3,41.3,931,41.3,932.7,41.3z"/>
<path class="st1" d="M663.1,42.4l0.5,2.2c-2.2,0.5-4.3,1-6.4,1.5l-0.4-2.2C658.8,43.4,660.9,42.9,663.1,42.4z"/>
<path class="st1" d="M554.2,42.4c2.1,0.5,4.2,1,6.3,1.4l-0.4,2.2c-2.1-0.4-4.3-0.9-6.4-1.4L554.2,42.4z"/>
<path class="st1" d="M566.8,45c2.1,0.4,4.2,0.7,6.4,1l-0.3,2.2c-2.2-0.3-4.3-0.7-6.4-1L566.8,45z"/>
<path class="st1" d="M650.4,45.1l0.4,2.2c-2.1,0.4-4.3,0.8-6.4,1.1l-0.3-2.2C646.2,45.9,648.3,45.5,650.4,45.1z"/>
<path class="st1" d="M579.6,46.9c2.1,0.2,4.3,0.5,6.4,0.7l-0.2,2.2c-2.2-0.2-4.4-0.4-6.5-0.7L579.6,46.9z"/>
<path class="st1" d="M637.7,47.1l0.3,2.2c-2.1,0.3-4.3,0.5-6.5,0.7l-0.2-2.2C633.4,47.6,635.6,47.3,637.7,47.1z"/>
<path class="st1" d="M592.5,48c1.3,0.1,2.5,0.2,3.8,0.2c0.9,0,1.7,0.1,2.6,0.1l-0.1,2.2c-0.9,0-1.7-0.1-2.6-0.1
	c-1.3-0.1-2.6-0.1-3.9-0.2L592.5,48z"/>
<path class="st1" d="M624.8,48.2l0.1,2.2c-2.1,0.1-4.3,0.2-6.5,0.3l-0.1-2.2C620.5,48.4,622.7,48.4,624.8,48.2z"/>
<path class="st1" d="M605.4,48.6c1.9,0,3.7,0.1,5.6,0.1l0.9,0l0,2.2l-0.9,0c-1.8,0-3.7,0-5.6-0.1L605.4,48.6z"/>
<path class="st1" d="M481.9,74.7c2.2,0,4.4,0.1,6.5,0.3l-0.2,2.2c-2.1-0.2-4.3-0.3-6.4-0.3L481.9,74.7z"/>
<path class="st1" d="M475.4,74.7l0.1,2.2c-0.9,0-1.7,0.1-2.6,0.1c-1.3,0.1-2.6,0.2-3.8,0.3l-0.2-2.2c1.3-0.1,2.6-0.2,3.9-0.3
	C473.6,74.8,474.5,74.8,475.4,74.7z"/>
<path class="st1" d="M495,75.6c2.1,0.3,4.3,0.6,6.5,1l-0.4,2.2c-2.1-0.4-4.3-0.7-6.4-1L495,75.6z"/>
<path class="st1" d="M462.3,76l0.3,2.2c-2.1,0.3-4.1,0.7-6.3,1.2l-0.4-2.2C458.1,76.7,460.2,76.3,462.3,76z"/>
<path class="st1" d="M507.9,77.9c2.1,0.5,4.2,1,6.4,1.6l-0.6,2.2c-2.1-0.6-4.2-1.1-6.3-1.6L507.9,77.9z"/>
<path class="st1" d="M449.5,78.6l0.5,2.2c-2.1,0.5-4.1,1.1-6.3,1.6l-0.5-2.2C445.3,79.7,447.4,79.1,449.5,78.6z"/>
<path class="st1" d="M520.5,81.5c2.1,0.7,4.1,1.4,6.2,2.2l-0.7,2.1c-2-0.8-4.1-1.5-6.1-2.2L520.5,81.5z"/>
<path class="st3" d="M436.9,81.9l0.5,2.2c-2,0.5-4.1,1.1-6.3,1.6l-0.5-2.2C432.8,83,434.9,82.4,436.9,81.9z"/>
<path class="st5" d="M424.3,85l0.5,2.2c-2.2,0.5-4.3,0.9-6.4,1.4l-0.4-2.2C420.1,85.9,422.2,85.5,424.3,85z"/>
<path class="st1" d="M532.8,86.1c2,0.8,4,1.7,6,2.7l-0.9,2c-2-0.9-4-1.8-5.9-2.6L532.8,86.1z"/>
<path class="st2" d="M411.6,87.6l0.4,2.2c-2.1,0.4-4.2,0.7-6.4,1.1l-0.3-2.2C407.5,88.3,409.6,87.9,411.6,87.6z"/>
<path class="st6" d="M398.8,89.6l0.3,2.2c-2.2,0.3-4.4,0.6-6.5,0.8l-0.2-2.2C394.5,90.1,396.6,89.9,398.8,89.6z"/>
<path class="st1" d="M386,91.1l0.2,2.2c-2.2,0.2-4.4,0.4-6.5,0.5l-0.2-2.2C381.6,91.4,383.8,91.3,386,91.1z"/>
<path class="st1" d="M544.7,91.7c1.9,1,3.9,2,5.8,3.1l-1,2c-1.9-1.1-3.8-2.1-5.7-3.1L544.7,91.7z"/>
<path class="st1" d="M373,92l0.1,2.2c-2.2,0.1-4.4,0.2-6.5,0.3l-0.1-2.2C368.7,92.2,370.8,92.1,373,92z"/>
<path class="st1" d="M360.1,92.4l0,2.2c-2.3,0-4.5,0-6.5,0l0-2.2C355.7,92.4,357.8,92.4,360.1,92.4z"/>
<path class="st6" d="M953.8,2.6c0.9,0,1.9,0,2.9,0l0,2.2c-2.2,0-4.4,0-6.5,0l0-2.2C951.3,2.6,952.5,2.6,953.8,2.6z"/>
<path class="st1" d="M963.2,2.8c2.2,0.1,4.4,0.2,6.5,0.4l-0.2,2.2c-2.1-0.2-4.3-0.3-6.4-0.4L963.2,2.8z"/>
<path class="st3" d="M943.6,2.9l0.1,2.2c-1.7,0.1-3.3,0.2-4.9,0.3c-0.5,0-1.1,0.1-1.6,0.1l-0.2-2.2c0.5,0,1.1-0.1,1.6-0.1
	C940.3,3.1,941.9,3,943.6,2.9z"/>
<path class="st4" d="M976.2,3.9c2.1,0.2,4.3,0.5,6.5,0.8l-0.3,2.2c-2.1-0.3-4.3-0.6-6.4-0.8L976.2,3.9z"/>
<path class="st5" d="M930.6,4l0.3,2.2c-2.1,0.3-4.2,0.6-6.4,0.9l-0.3-2.2C926.3,4.6,928.5,4.3,930.6,4z"/>
<path class="st1" d="M989.1,5.7c2.1,0.4,4.3,0.8,6.4,1.2l-0.4,2.2c-2.1-0.4-4.3-0.8-6.4-1.2L989.1,5.7z"/>
<path class="st2" d="M917.7,6l0.4,2.2c-2.2,0.4-4.3,0.8-6.4,1.3l-0.4-2.2C913.4,6.9,915.6,6.4,917.7,6z"/>
<path class="st1" d="M905,8.6l0.4,2.2c-2.1,0.4-4.2,0.9-6.4,1.3l-0.4-2.2C900.8,9.5,902.9,9,905,8.6z"/>
<path class="st1" d="M808.8,9.3c2.1,0.4,4.2,0.8,6.4,1.2l-0.4,2.2c-2.1-0.4-4.3-0.8-6.4-1.2L808.8,9.3z"/>
<path class="st1" d="M892.3,11l0.3,2.2c-2.2,0.4-4.3,0.7-6.4,1l-0.3-2.2C888,11.7,890.1,11.4,892.3,11z"/>
<path class="st1" d="M821.5,11.5c2.1,0.3,4.3,0.6,6.4,0.8l-0.2,2.2c-2.2-0.3-4.3-0.5-6.5-0.9L821.5,11.5z"/>
<path class="st1" d="M879.5,12.8l0.2,2.2c-2.1,0.2-4.3,0.4-6.5,0.6l-0.2-2.2C875.2,13.2,877.4,13,879.5,12.8z"/>
<path class="st1" d="M834.4,13.1c2.2,0.2,4.3,0.4,6.4,0.5l-0.1,2.2c-2.1-0.1-4.3-0.3-6.5-0.5L834.4,13.1z"/>
<path class="st1" d="M866.6,13.8l0.1,2.2c-2.2,0.1-4.3,0.2-6.5,0.2l0-2.2C862.3,13.9,864.5,13.9,866.6,13.8z"/>
<path class="st1" d="M847.3,13.9c2.1,0.1,4.3,0.1,6.5,0.1l0,2.2c-2.2,0-4.4-0.1-6.5-0.1L847.3,13.9z"/>
<path class="st1" d="M899.8,57.9c1.8,0,3.6,0,5.4,0.1l-0.1,2.2c-2.1-0.1-4.3-0.1-6.4-0.1l0-2.2C899,57.9,899.4,57.9,899.8,57.9z"/>
<path class="st4" d="M892.1,58.1l0.1,2.2c-2.1,0.1-4.3,0.3-6.4,0.6l-0.2-2.2C887.7,58.5,889.9,58.3,892.1,58.1z"/>
<path class="st1" d="M911.7,58.5l0.3,0c2.1,0.2,4.2,0.5,6.2,0.8l-0.3,2.2c-2-0.3-4-0.6-6.1-0.8l-0.3,0L911.7,58.5z"/>
<path class="st1" d="M879,59.6l0.3,2.2c-2.1,0.3-4.2,0.8-6.3,1.2l-0.4-2.2C874.7,60.4,876.9,60,879,59.6z"/>
<path class="st1" d="M924.7,60.5c2.1,0.4,4.2,1,6.4,1.6l-0.6,2.2c-2.2-0.6-4.2-1.1-6.3-1.5L924.7,60.5z"/>
<path class="st7" d="M937.3,63.9c1.4,0.4,2.7,0.9,4.1,1.3l2.1,0.7l-0.6,2.1l-2.1-0.7c-1.4-0.4-2.7-0.9-4.1-1.3L937.3,63.9z"/>
<path class="st7" d="M949.7,67.8c2.2,0.6,4.2,1.2,6.2,1.6l-0.5,2.2c-2-0.5-4.1-1-6.3-1.7L949.7,67.8z"/>
<path class="st7" d="M962.2,70.7c1.1,0.2,2.2,0.3,3.3,0.5c1,0.1,2,0.2,3,0.4l-0.2,2.2c-1.1-0.1-2.1-0.2-3.1-0.4
	c-1.2-0.2-2.3-0.3-3.4-0.5L962.2,70.7z"/>
<path class="st1" d="M994.3,70.9l0.3,2.2c-2.2,0.3-4.4,0.5-6.5,0.7l-0.2-2.2C990,71.5,992.2,71.2,994.3,70.9z"/>
<path class="st7" d="M975,71.9c1.3,0.1,2.7,0.1,4,0.1c0.8,0,1.6,0,2.4,0l0,2.2c-0.9,0-1.7,0-2.5,0c-1.3,0-2.7,0-4-0.1L975,71.9z"/>
<path class="st1" d="M664.7,8l0.8,2.1c-2,0.8-4.1,1.6-6.1,2.4l-0.7-2.1C660.6,9.7,662.7,8.9,664.7,8z"/>
<path class="st1" d="M652.5,12.6l0.7,2.1c-2.1,0.7-4.2,1.4-6.2,2l-0.6-2.1C648.4,13.9,650.5,13.3,652.5,12.6z"/>
<path class="st1" d="M531.6,14.5c2,0.6,4.1,1.2,6.2,1.8l-0.5,2.2c-2.1-0.6-4.2-1.2-6.3-1.8L531.6,14.5z"/>
<path class="st7" d="M640.1,16.3l0.5,2.2c-2.1,0.6-4.2,1.1-6.3,1.6l-0.5-2.2C635.9,17.4,638,16.9,640.1,16.3z"/>
<path class="st1" d="M544.1,17.8c2.1,0.5,4.2,1,6.3,1.4l-0.4,2.2c-2.1-0.4-4.3-0.9-6.4-1.4L544.1,17.8z"/>
<path class="st7" d="M627.5,19.3l0.4,2.2c-2.1,0.4-4.3,0.8-6.4,1.2l-0.3-2.2C623.3,20.1,625.4,19.7,627.5,19.3z"/>
<path class="st1" d="M556.8,20.4c2.1,0.4,4.3,0.7,6.4,1l-0.3,2.2c-2.1-0.3-4.3-0.6-6.5-1L556.8,20.4z"/>
<path class="st7" d="M614.8,21.4l0.3,2.2c-2.2,0.3-4.3,0.5-6.5,0.7l-0.2-2.2C610.5,21.9,612.6,21.7,614.8,21.4z"/>
<path class="st1" d="M569.6,22.1c2.1,0.2,4.3,0.4,6.4,0.5l-0.1,2.2c-2.2-0.1-4.3-0.3-6.5-0.5L569.6,22.1z"/>
<path class="st7" d="M601.9,22.6l0.1,2.2c-2.1,0.1-4.3,0.2-6.5,0.3l-0.1-1.1V23C597.6,22.9,599.8,22.8,601.9,22.6z"/>
<path class="st1" d="M582.5,22.9c2.2,0.1,4.3,0.1,6.5,0.1l0,2.2c-2.2,0-4.4,0-6.5-0.1L582.5,22.9z"/>
<path class="st1" d="M368.9,40.5l0.8,2.1c-2,0.9-4.1,1.7-6.1,2.5l-0.8-2.1C364.9,42.2,366.9,41.4,368.9,40.5z"/>
<path class="st1" d="M238.4,40.9c1.1,0,2.2,0,3.4,0l0,2.2c-2.3,0-4.4,0-6.5,0l0-2.2C236.3,40.9,237.3,40.9,238.4,40.9z"/>
<path class="st1" d="M228.7,41.1l0.1,2.2c-2.1,0.1-4.3,0.2-6.5,0.4l-0.2-2.2C224.4,41.3,226.6,41.2,228.7,41.1z"/>
<path class="st4" d="M248.3,41.1c2.2,0.1,4.4,0.2,6.5,0.4l-0.2,2.2c-2.1-0.2-4.3-0.3-6.5-0.4L248.3,41.1z"/>
<path class="st1" d="M261.3,42.1c2.2,0.2,4.4,0.5,6.5,0.8l-0.3,2.2c-2.1-0.3-4.2-0.6-6.4-0.8L261.3,42.1z"/>
<path class="st1" d="M274.3,43.9c2.1,0.4,4.2,0.8,6.4,1.2l-0.4,2.2c-2.2-0.5-4.3-0.9-6.4-1.2L274.3,43.9z"/>
<path class="st1" d="M356.9,45.2l0.7,2.1c-2.1,0.7-4.2,1.3-6.3,1.9l-0.6-2.2C352.7,46.5,354.8,45.9,356.9,45.2z"/>
<path class="st7" d="M287.1,46.5l2.8,0.6c1.2,0.3,2.4,0.5,3.5,0.8l-0.5,2.2c-1.2-0.3-2.4-0.5-3.6-0.8l-2.8-0.6L287.1,46.5z"/>
<path class="st1" d="M344.4,48.6l0.5,2.2c-2.1,0.5-4.3,0.9-6.4,1.3l-0.3-2.2C340.2,49.5,342.3,49.1,344.4,48.6z"/>
<path class="st7" d="M299.7,49.3c2.2,0.4,4.3,0.8,6.3,1.1l-0.3,2.2c-2.1-0.3-4.2-0.6-6.5-1.1L299.7,49.3z"/>
<path class="st7" d="M331.7,50.8l0.2,2.2c-2.2,0.2-4.4,0.4-6.5,0.5l-0.1-2.2C327.4,51.2,329.6,51,331.7,50.8z"/>
<path class="st7" d="M312.4,51.1c1.2,0.1,2.4,0.2,3.7,0.2c0.9,0,1.8,0.1,2.8,0.1l0,2.2c-1,0-1.9,0-2.8-0.1c-1.3-0.1-2.5-0.1-3.7-0.2
	L312.4,51.1z"/>
</svg>
