<?xml version="1.0" encoding="utf-8"?>
<!-- Generator: Adobe Illustrator 24.3.0, SVG Export Plug-In . SVG Version: 6.00 Build 0)  -->
<svg version="1.1" id="Camada_1" xmlns="http://www.w3.org/2000/svg" xmlns:xlink="http://www.w3.org/1999/xlink" x="0px" y="0px"
	 width="1000px" height="100px" viewBox="0 0 1000 100" style="enable-background:new 0 0 1000 100;" xml:space="preserve">
<style type="text/css">
	.st0{fill:#24242B;}
	.st1{fill:#292930;}
</style>
<rect class="st0" width="1000" height="50"/>
<rect y="50" class="st1" width="1000" height="50"/>
<g>
	<path class="st0" d="M14,87.7L14,87.7c-2.6,0-4.7-2.1-4.7-4.7V38.9c0-2.6,2.1-4.7,4.7-4.7l0,0c2.6,0,4.7,2.1,4.7,4.7V83
		C18.7,85.6,16.6,87.7,14,87.7z"/>
	<path class="st0" d="M32.7,71.3L32.7,71.3c-2.6,0-4.7-2.1-4.7-4.7V22.4c0-2.6,2.1-4.7,4.7-4.7l0,0c2.6,0,4.7,2.1,4.7,4.7v44.1
		C37.4,69.2,35.3,71.3,32.7,71.3z"/>
	<path class="st0" d="M51.4,80.3L51.4,80.3c-2.6,0-4.7-2.1-4.7-4.7V31.5c0-2.6,2.1-4.7,4.7-4.7l0,0c2.6,0,4.7,2.1,4.7,4.7v44.1
		C56.1,78.3,54,80.3,51.4,80.3z"/>
	<path class="st0" d="M70.1,85.4L70.1,85.4c-2.6,0-4.7-2.1-4.7-4.7V36.6c0-2.6,2.1-4.7,4.7-4.7l0,0c2.6,0,4.7,2.1,4.7,4.7v44.1
		C74.8,83.3,72.7,85.4,70.1,85.4z"/>
	<path class="st0" d="M88.8,87.7L88.8,87.7c-2.6,0-4.7-2.1-4.7-4.7V29.7c0-2.6,2.1-4.7,4.7-4.7l0,0c2.6,0,4.7,2.1,4.7,4.7V83
		C93.5,85.6,91.4,87.7,88.8,87.7z"/>
	<path class="st0" d="M107.5,92L107.5,92c-2.6,0-4.7-2.1-4.7-4.7V43.2c0-2.6,2.1-4.7,4.7-4.7l0,0c2.6,0,4.7,2.1,4.7,4.7v44.1
		C112.1,89.9,110.1,92,107.5,92z"/>
	<path class="st0" d="M126.2,80.3L126.2,80.3c-2.6,0-4.7-2.1-4.7-4.7V31.5c0-2.6,2.1-4.7,4.7-4.7l0,0c2.6,0,4.7,2.1,4.7,4.7v44.1
		C130.8,78.3,128.7,80.3,126.2,80.3z"/>
	<path class="st0" d="M144.9,71.3L144.9,71.3c-2.6,0-4.7-2.1-4.7-4.7V22.4c0-2.6,2.1-4.7,4.7-4.7l0,0c2.6,0,4.7,2.1,4.7,4.7v44.1
		C149.5,69.2,147.4,71.3,144.9,71.3z"/>
	<path class="st0" d="M163.6,94.6L163.6,94.6c-2.6,0-4.7-2.1-4.7-4.7V36.6c0-2.6,2.1-4.7,4.7-4.7l0,0c2.6,0,4.7,2.1,4.7,4.7v53.3
		C168.2,92.5,166.1,94.6,163.6,94.6z"/>
	<path class="st0" d="M182.3,84.7L182.3,84.7c-2.6,0-4.7-2.1-4.7-4.7V19.2c0-2.6,2.1-4.7,4.7-4.7l0,0c2.6,0,4.7,2.1,4.7,4.7V80
		C186.9,82.6,184.8,84.7,182.3,84.7z"/>
	<path class="st0" d="M200.9,56.4L200.9,56.4c-2.6,0-4.7-2.1-4.7-4.7V29.6c0-2.6,2.1-4.7,4.7-4.7l0,0c2.6,0,4.7,2.1,4.7,4.7v22.1
		C205.6,54.3,203.5,56.4,200.9,56.4z"/>
	<path class="st0" d="M219.6,87L219.6,87c-2.6,0-4.7-2.1-4.7-4.7V45.9c0-2.6,2.1-4.7,4.7-4.7l0,0c2.6,0,4.7,2.1,4.7,4.7v36.5
		C224.3,85,222.2,87,219.6,87z"/>
	<path class="st0" d="M238.3,98.3L238.3,98.3c-2.6,0-4.7-2.1-4.7-4.7V32.8c0-2.6,2.1-4.7,4.7-4.7l0,0c2.6,0,4.7,2.1,4.7,4.7v60.9
		C243,96.2,240.9,98.3,238.3,98.3z"/>
	<path class="st0" d="M257,72.1L257,72.1c-2.6,0-4.7-2.1-4.7-4.7V45.3c0-2.6,2.1-4.7,4.7-4.7l0,0c2.6,0,4.7,2.1,4.7,4.7v22.1
		C261.7,70,259.6,72.1,257,72.1z"/>
	<path class="st0" d="M275.7,72.9L275.7,72.9c-2.6,0-4.7-2.1-4.7-4.7V31.8c0-2.6,2.1-4.7,4.7-4.7l0,0c2.6,0,4.7,2.1,4.7,4.7v36.5
		C280.4,70.8,278.3,72.9,275.7,72.9z"/>
	<path class="st0" d="M294.4,65.8L294.4,65.8c-2.6,0-4.7-2.1-4.7-4.7V17c0-2.6,2.1-4.7,4.7-4.7l0,0c2.6,0,4.7,2.1,4.7,4.7v44.1
		C299.1,63.7,297,65.8,294.4,65.8z"/>
	<path class="st0" d="M313.1,91.8L313.1,91.8c-2.6,0-4.7-2.1-4.7-4.7V43c0-2.6,2.1-4.7,4.7-4.7l0,0c2.6,0,4.7,2.1,4.7,4.7v44.1
		C317.7,89.7,315.7,91.8,313.1,91.8z"/>
	<path class="st0" d="M331.8,85.4L331.8,85.4c-2.6,0-4.7-2.1-4.7-4.7V36.6c0-2.6,2.1-4.7,4.7-4.7l0,0c2.6,0,4.7,2.1,4.7,4.7v44.1
		C336.4,83.3,334.3,85.4,331.8,85.4z"/>
	<path class="st0" d="M350.4,90L350.4,90c-2.6,0-4.7-2.1-4.7-4.7V41.2c0-2.6,2.1-4.7,4.7-4.7l0,0c2.6,0,4.7,2.1,4.7,4.7v44.1
		C355.1,87.9,353,90,350.4,90z"/>
	<path class="st0" d="M369.1,64.9L369.1,64.9c-2.6,0-4.7-2.1-4.7-4.7V6.9c0-2.6,2.1-4.7,4.7-4.7l0,0c2.6,0,4.7,2.1,4.7,4.7v53.3
		C373.8,62.8,371.7,64.9,369.1,64.9z"/>
	<path class="st0" d="M387.8,90L387.8,90c-2.6,0-4.7-2.1-4.7-4.7V41.2c0-2.6,2.1-4.7,4.7-4.7l0,0c2.6,0,4.7,2.1,4.7,4.7v44.1
		C392.5,87.9,390.4,90,387.8,90z"/>
	<path class="st0" d="M406.5,78.4L406.5,78.4c-2.6,0-4.7-2.1-4.7-4.7V29.6c0-2.6,2.1-4.7,4.7-4.7l0,0c2.6,0,4.7,2.1,4.7,4.7v44.1
		C411.2,76.3,409.1,78.4,406.5,78.4z"/>
	<path class="st0" d="M425.2,85.4L425.2,85.4c-2.6,0-4.7-2.1-4.7-4.7V36.6c0-2.6,2.1-4.7,4.7-4.7l0,0c2.6,0,4.7,2.1,4.7,4.7v44.1
		C429.9,83.3,427.8,85.4,425.2,85.4z"/>
	<path class="st0" d="M443.9,87.6L443.9,87.6c-2.6,0-4.7-2.1-4.7-4.7V29.6c0-2.6,2.1-4.7,4.7-4.7l0,0c2.6,0,4.7,2.1,4.7,4.7v53.3
		C448.6,85.5,446.5,87.6,443.9,87.6z"/>
	<path class="st0" d="M462.6,95.4L462.6,95.4c-2.6,0-4.7-2.1-4.7-4.7V29.9c0-2.6,2.1-4.7,4.7-4.7l0,0c2.6,0,4.7,2.1,4.7,4.7v60.9
		C467.3,93.3,465.2,95.4,462.6,95.4z"/>
	<path class="st0" d="M481.3,69.5L481.3,69.5c-2.6,0-4.7-2.1-4.7-4.7v-22c0-2.6,2.1-4.7,4.7-4.7l0,0c2.6,0,4.7,2.1,4.7,4.7v22.1
		C486,67.5,483.9,69.5,481.3,69.5z"/>
	<path class="st0" d="M500,80L500,80c-2.6,0-4.7-2.1-4.7-4.7V38.9c0-2.6,2.1-4.7,4.7-4.7l0,0c2.6,0,4.7,2.1,4.7,4.7v36.5
		C504.7,77.9,502.6,80,500,80z"/>
	<path class="st0" d="M518.7,91.5L518.7,91.5c-2.6,0-4.7-2.1-4.7-4.7V25.9c0-2.6,2.1-4.7,4.7-4.7l0,0c2.6,0,4.7,2.1,4.7,4.7v60.9
		C523.4,89.4,521.3,91.5,518.7,91.5z"/>
	<path class="st0" d="M537.4,65.3L537.4,65.3c-2.6,0-4.7-2.1-4.7-4.7V38.5c0-2.6,2.1-4.7,4.7-4.7l0,0c2.6,0,4.7,2.1,4.7,4.7v22.1
		C542,63.2,540,65.3,537.4,65.3z"/>
	<path class="st0" d="M556.1,87L556.1,87c-2.6,0-4.7-2.1-4.7-4.7V45.8c0-2.6,2.1-4.7,4.7-4.7l0,0c2.6,0,4.7,2.1,4.7,4.7v36.5
		C560.7,84.9,558.6,87,556.1,87z"/>
	<path class="st0" d="M574.7,67.9L574.7,67.9c-2.6,0-4.7-2.1-4.7-4.7V19.1c0-2.6,2.1-4.7,4.7-4.7l0,0c2.6,0,4.7,2.1,4.7,4.7v44.1
		C579.4,65.8,577.3,67.9,574.7,67.9z"/>
	<path class="st0" d="M593.4,74.1L593.4,74.1c-2.6,0-4.7-2.1-4.7-4.7V25.3c0-2.6,2.1-4.7,4.7-4.7l0,0c2.6,0,4.7,2.1,4.7,4.7v44.1
		C598.1,72,596,74.1,593.4,74.1z"/>
	<path class="st0" d="M612.1,81.2L612.1,81.2c-2.6,0-4.7-2.1-4.7-4.7V32.4c0-2.6,2.1-4.7,4.7-4.7l0,0c2.6,0,4.7,2.1,4.7,4.7v44.1
		C616.8,79.1,614.7,81.2,612.1,81.2z"/>
	<path class="st0" d="M630.8,87L630.8,87c-2.6,0-4.7-2.1-4.7-4.7V38.2c0-2.6,2.1-4.7,4.7-4.7l0,0c2.6,0,4.7,2.1,4.7,4.7v44.1
		C635.5,84.9,633.4,87,630.8,87z"/>
	<path class="st0" d="M649.5,98.8L649.5,98.8c-2.6,0-4.7-2.1-4.7-4.7V40.8c0-2.6,2.1-4.7,4.7-4.7l0,0c2.6,0,4.7,2.1,4.7,4.7v53.3
		C654.2,96.7,652.1,98.8,649.5,98.8z"/>
	<path class="st0" d="M668.2,84.2L668.2,84.2c-2.6,0-4.7-2.1-4.7-4.7V35.4c0-2.6,2.1-4.7,4.7-4.7l0,0c2.6,0,4.7,2.1,4.7,4.7v44.1
		C672.9,82.1,670.8,84.2,668.2,84.2z"/>
	<path class="st0" d="M686.9,75L686.9,75c-2.6,0-4.7-2.1-4.7-4.7V26.2c0-2.6,2.1-4.7,4.7-4.7l0,0c2.6,0,4.7,2.1,4.7,4.7v44.1
		C691.6,72.9,689.5,75,686.9,75z"/>
	<path class="st0" d="M705.6,90L705.6,90c-2.6,0-4.7-2.1-4.7-4.7V41.2c0-2.6,2.1-4.7,4.7-4.7l0,0c2.6,0,4.7,2.1,4.7,4.7v44.1
		C710.3,87.9,708.2,90,705.6,90z"/>
	<path class="st0" d="M724.3,85.8L724.3,85.8c-2.6,0-4.7-2.1-4.7-4.7V27.8c0-2.6,2.1-4.7,4.7-4.7l0,0c2.6,0,4.7,2.1,4.7,4.7v53.3
		C729,83.7,726.9,85.8,724.3,85.8z"/>
	<path class="st0" d="M986,28.3L986,28.3c2.6,0,4.7,2.1,4.7,4.7v36.5c0,2.6-2.1,4.7-4.7,4.7l0,0c-2.6,0-4.7-2.1-4.7-4.7V33
		C981.3,30.4,983.4,28.3,986,28.3z"/>
	<path class="st0" d="M967.3,29.8L967.3,29.8c2.6,0,4.7,2.1,4.7,4.7v60.9c0,2.6-2.1,4.7-4.7,4.7l0,0c-2.6,0-4.7-2.1-4.7-4.7V34.5
		C962.6,31.9,964.7,29.8,967.3,29.8z"/>
	<path class="st0" d="M948.6,27.1L948.6,27.1c2.6,0,4.7,2.1,4.7,4.7v22.1c0,2.6-2.1,4.7-4.7,4.7l0,0c-2.6,0-4.7-2.1-4.7-4.7V31.8
		C943.9,29.2,946,27.1,948.6,27.1z"/>
	<path class="st0" d="M929.9,23.7L929.9,23.7c2.6,0,4.7,2.1,4.7,4.7v36.5c0,2.6-2.1,4.7-4.7,4.7l0,0c-2.6,0-4.7-2.1-4.7-4.7V28.3
		C925.2,25.8,927.3,23.7,929.9,23.7z"/>
	<path class="st0" d="M911.2,14.1L911.2,14.1c2.6,0,4.7,2.1,4.7,4.7v44.1c0,2.6-2.1,4.7-4.7,4.7l0,0c-2.6,0-4.7-2.1-4.7-4.7V18.8
		C906.6,16.2,908.6,14.1,911.2,14.1z"/>
	<path class="st0" d="M892.5,31.8L892.5,31.8c2.6,0,4.7,2.1,4.7,4.7v44.1c0,2.6-2.1,4.7-4.7,4.7l0,0c-2.6,0-4.7-2.1-4.7-4.7V36.5
		C887.9,33.9,890,31.8,892.5,31.8z"/>
	<path class="st0" d="M873.9,26.7L873.9,26.7c2.6,0,4.7,2.1,4.7,4.7v44.1c0,2.6-2.1,4.7-4.7,4.7l0,0c-2.6,0-4.7-2.1-4.7-4.7V31.4
		C869.2,28.8,871.3,26.7,873.9,26.7z"/>
	<path class="st0" d="M855.2,42.8L855.2,42.8c2.6,0,4.7,2.1,4.7,4.7v44.1c0,2.6-2.1,4.7-4.7,4.7l0,0c-2.6,0-4.7-2.1-4.7-4.7V47.4
		C850.5,44.8,852.6,42.8,855.2,42.8z"/>
	<path class="st0" d="M836.5,6.8L836.5,6.8c2.6,0,4.7,2.1,4.7,4.7v53.3c0,2.6-2.1,4.7-4.7,4.7l0,0c-2.6,0-4.7-2.1-4.7-4.7V11.5
		C831.8,8.9,833.9,6.8,836.5,6.8z"/>
	<path class="st0" d="M817.7,35.9L817.7,35.9c2.6,0,4.7,2.1,4.7,4.7v44.1c0,2.6-2.1,4.7-4.7,4.7l0,0c-2.6,0-4.7-2.1-4.7-4.7V40.6
		C813.1,38,815.2,35.9,817.7,35.9z"/>
	<path class="st0" d="M799.1,19.1L799.1,19.1c2.6,0,4.7,2.1,4.7,4.7v44.1c0,2.6-2.1,4.7-4.7,4.7l0,0c-2.6,0-4.7-2.1-4.7-4.7V23.8
		C794.4,21.2,796.5,19.1,799.1,19.1z"/>
	<path class="st0" d="M780.4,36.8L780.4,36.8c2.6,0,4.7,2.1,4.7,4.7v44.1c0,2.6-2.1,4.7-4.7,4.7l0,0c-2.6,0-4.7-2.1-4.7-4.7V41.4
		C775.7,38.9,777.8,36.8,780.4,36.8z"/>
	<path class="st0" d="M761.7,26.1L761.7,26.1c2.6,0,4.7,2.1,4.7,4.7v53.3c0,2.6-2.1,4.7-4.7,4.7l0,0c-2.6,0-4.7-2.1-4.7-4.7V30.8
		C757,28.2,759.1,26.1,761.7,26.1z"/>
	<path class="st0" d="M743,17.8L743,17.8c2.6,0,4.7,2.1,4.7,4.7v48.9c0,2.6-2.1,4.7-4.7,4.7l0,0c-2.6,0-4.7-2.1-4.7-4.7v-49
		C738.3,19.9,740.4,17.8,743,17.8z"/>
</g>
<g>
	<path class="st1" d="M4.7,78.4L4.7,78.4c-2.6,0-4.7-2.1-4.7-4.7V29.6c0-2.6,2.1-4.7,4.7-4.7l0,0c2.6,0,4.7,2.1,4.7,4.7v44.1
		C9.3,76.3,7.3,78.4,4.7,78.4z"/>
	<path class="st1" d="M23.4,83.8L23.4,83.8c-2.6,0-4.7-2.1-4.7-4.7V35c0-2.6,2.1-4.7,4.7-4.7l0,0c2.6,0,4.7,2.1,4.7,4.7v44.1
		C28,81.8,25.9,83.8,23.4,83.8z"/>
	<path class="st1" d="M42,88.6L42,88.6c-2.6,0-4.7-2.1-4.7-4.7V39.8c0-2.6,2.1-4.7,4.7-4.7l0,0c2.6,0,4.7,2.1,4.7,4.7v44.1
		C46.7,86.5,44.6,88.6,42,88.6z"/>
	<path class="st1" d="M60.7,74.1L60.7,74.1c-2.6,0-4.7-2.1-4.7-4.7V25.3c0-2.6,2.1-4.7,4.7-4.7l0,0c2.6,0,4.7,2.1,4.7,4.7v44.1
		C65.4,72,63.3,74.1,60.7,74.1z"/>
	<path class="st1" d="M79.4,100L79.4,100c-2.6,0-4.7-2.1-4.7-4.7V42c0-2.6,2.1-4.7,4.7-4.7l0,0c2.6,0,4.7,2.1,4.7,4.7v53.3
		C84.1,97.9,82,100,79.4,100z"/>
	<path class="st1" d="M98.2,85.4L98.2,85.4c-2.6,0-4.7-2.1-4.7-4.7V36.6c0-2.6,2.1-4.7,4.7-4.7l0,0c2.6,0,4.7,2.1,4.7,4.7v44.1
		C102.8,83.3,100.7,85.4,98.2,85.4z"/>
	<path class="st1" d="M116.8,68L116.8,68c-2.6,0-4.7-2.1-4.7-4.7V19.2c0-2.6,2.1-4.7,4.7-4.7l0,0c2.6,0,4.7,2.1,4.7,4.7v44.1
		C121.5,65.9,119.4,68,116.8,68z"/>
	<path class="st1" d="M135.5,62L135.5,62c-2.6,0-4.7-2.1-4.7-4.7V13.2c0-2.6,2.1-4.7,4.7-4.7l0,0c2.6,0,4.7,2.1,4.7,4.7v44.1
		C140.2,59.9,138.1,62,135.5,62z"/>
	<path class="st1" d="M154.2,83.9L154.2,83.9c-2.6,0-4.7-2.1-4.7-4.7V25.9c0-2.6,2.1-4.7,4.7-4.7l0,0c2.6,0,4.7,2.1,4.7,4.7v53.3
		C158.9,81.8,156.8,83.9,154.2,83.9z"/>
	<path class="st1" d="M172.9,75L172.9,75c-2.6,0-4.7-2.1-4.7-4.7V9.5c0-2.6,2.1-4.7,4.7-4.7l0,0c2.6,0,4.7,2.1,4.7,4.7v60.9
		C177.6,72.9,175.5,75,172.9,75z"/>
	<path class="st1" d="M191.6,70.5L191.6,70.5c-2.6,0-4.7-2.1-4.7-4.7v-22c0-2.6,2.1-4.7,4.7-4.7l0,0c2.6,0,4.7,2.1,4.7,4.7v22.1
		C196.3,68.4,194.2,70.5,191.6,70.5z"/>
	<path class="st1" d="M210.3,64.1L210.3,64.1c-2.6,0-4.7-2.1-4.7-4.7V23c0-2.6,2.1-4.7,4.7-4.7l0,0c2.6,0,4.7,2.1,4.7,4.7v36.5
		C215,62,212.9,64.1,210.3,64.1z"/>
	<path class="st1" d="M229,70.2L229,70.2c-2.6,0-4.7-2.1-4.7-4.7V4.7c0-2.6,2.1-4.7,4.7-4.7l0,0c2.6,0,4.7,2.1,4.7,4.7v60.9
		C233.6,68.1,231.6,70.2,229,70.2z"/>
	<path class="st1" d="M247.7,56.9L247.7,56.9c-2.6,0-4.7-2.1-4.7-4.7v-22c0-2.6,2.1-4.7,4.7-4.7l0,0c2.6,0,4.7,2.1,4.7,4.7v22.1
		C252.3,54.8,250.2,56.9,247.7,56.9z"/>
	<path class="st1" d="M266.3,81.1L266.3,81.1c-2.6,0-4.7-2.1-4.7-4.7V39.9c0-2.6,2.1-4.7,4.7-4.7l0,0c2.6,0,4.7,2.1,4.7,4.7v36.5
		C271,79,268.9,81.1,266.3,81.1z"/>
	<path class="st1" d="M285,87L285,87c-2.6,0-4.7-2.1-4.7-4.7V38.2c0-2.6,2.1-4.7,4.7-4.7l0,0c2.6,0,4.7,2.1,4.7,4.7v44.1
		C289.7,85,287.6,87,285,87z"/>
	<path class="st1" d="M303.7,74.7L303.7,74.7c-2.6,0-4.7-2.1-4.7-4.7V25.9c0-2.6,2.1-4.7,4.7-4.7l0,0c2.6,0,4.7,2.1,4.7,4.7V70
		C308.4,72.7,306.3,74.7,303.7,74.7z"/>
	<path class="st1" d="M322.4,60.3L322.4,60.3c-2.6,0-4.7-2.1-4.7-4.7V11.5c0-2.6,2.1-4.7,4.7-4.7l0,0c2.6,0,4.7,2.1,4.7,4.7v44.1
		C327.1,58.2,325,60.3,322.4,60.3z"/>
	<path class="st1" d="M341.1,80.6L341.1,80.6c-2.6,0-4.7-2.1-4.7-4.7V31.8c0-2.6,2.1-4.7,4.7-4.7l0,0c2.6,0,4.7,2.1,4.7,4.7v44.1
		C345.8,78.5,343.7,80.6,341.1,80.6z"/>
	<path class="st1" d="M359.8,77.2L359.8,77.2c-2.6,0-4.7-2.1-4.7-4.7V19.2c0-2.6,2.1-4.7,4.7-4.7l0,0c2.6,0,4.7,2.1,4.7,4.7v53.3
		C364.5,75.1,362.4,77.2,359.8,77.2z"/>
	<path class="st1" d="M378.5,83.1L378.5,83.1c-2.6,0-4.7-2.1-4.7-4.7V34.3c0-2.6,2.1-4.7,4.7-4.7l0,0c2.6,0,4.7,2.1,4.7,4.7v44.1
		C383.2,81,381.1,83.1,378.5,83.1z"/>
	<path class="st1" d="M397.2,68L397.2,68c-2.6,0-4.7-2.1-4.7-4.7V19.2c0-2.6,2.1-4.7,4.7-4.7l0,0c2.6,0,4.7,2.1,4.7,4.7v44.1
		C401.9,65.9,399.8,68,397.2,68z"/>
	<path class="st1" d="M415.9,61.8L415.9,61.8c-2.6,0-4.7-2.1-4.7-4.7V13c0-2.6,2.1-4.7,4.7-4.7l0,0c2.6,0,4.7,2.1,4.7,4.7v44.1
		C420.5,59.7,418.4,61.8,415.9,61.8z"/>
	<path class="st1" d="M434.6,70.4L434.6,70.4c-2.6,0-4.7-2.1-4.7-4.7V12.4c0-2.6,2.1-4.7,4.7-4.7l0,0c2.6,0,4.7,2.1,4.7,4.7v53.3
		C439.3,68.3,437.2,70.4,434.6,70.4z"/>
	<path class="st1" d="M453.3,84.7L453.3,84.7c-2.6,0-4.7-2.1-4.7-4.7V19.2c0-2.6,2.1-4.7,4.7-4.7l0,0c2.6,0,4.7,2.1,4.7,4.7V80
		C457.9,82.6,455.9,84.7,453.3,84.7z"/>
	<path class="st1" d="M472,56.4L472,56.4c-2.6,0-4.7-2.1-4.7-4.7V29.6c0-2.6,2.1-4.7,4.7-4.7l0,0c2.6,0,4.7,2.1,4.7,4.7v22.1
		C476.6,54.3,474.5,56.4,472,56.4z"/>
	<path class="st1" d="M490.6,61.8L490.6,61.8c-2.6,0-4.7-2.1-4.7-4.7V20.7c0-2.6,2.1-4.7,4.7-4.7l0,0c2.6,0,4.7,2.1,4.7,4.7v36.5
		C495.3,59.7,493.2,61.8,490.6,61.8z"/>
	<path class="st1" d="M509.3,70.2L509.3,70.2c-2.6,0-4.7-2.1-4.7-4.7V4.7c0-2.6,2.1-4.7,4.7-4.7l0,0c2.6,0,4.7,2.1,4.7,4.7v60.9
		C514,68.1,511.9,70.2,509.3,70.2z"/>
	<path class="st1" d="M528,76L528,76c-2.6,0-4.7-2.1-4.7-4.7v-22c0-2.6,2.1-4.7,4.7-4.7l0,0c2.6,0,4.7,2.1,4.7,4.7v22.1
		C532.7,73.9,530.6,76,528,76z"/>
	<path class="st1" d="M546.7,67.5L546.7,67.5c-2.6,0-4.7-2.1-4.7-4.7V26.4c0-2.6,2.1-4.7,4.7-4.7l0,0c2.6,0,4.7,2.1,4.7,4.7v36.5
		C551.4,65.4,549.3,67.5,546.7,67.5z"/>
	<path class="st1" d="M565.4,85.4L565.4,85.4c-2.6,0-4.7-2.1-4.7-4.7V36.6c0-2.6,2.1-4.7,4.7-4.7l0,0c2.6,0,4.7,2.1,4.7,4.7v44.1
		C570.1,83.3,568,85.4,565.4,85.4z"/>
	<path class="st1" d="M584.1,94.2L584.1,94.2c-2.6,0-4.7-2.1-4.7-4.7V45.4c0-2.6,2.1-4.7,4.7-4.7l0,0c2.6,0,4.7,2.1,4.7,4.7v44.1
		C588.8,92.2,586.7,94.2,584.1,94.2z"/>
	<path class="st1" d="M602.8,93.2L602.8,93.2c-2.6,0-4.7-2.1-4.7-4.7V44.4c0-2.6,2.1-4.7,4.7-4.7l0,0c2.6,0,4.7,2.1,4.7,4.7v44.1
		C607.5,91.1,605.4,93.2,602.8,93.2z"/>
	<path class="st1" d="M621.5,67.5L621.5,67.5c-2.6,0-4.7-2.1-4.7-4.7V18.7c0-2.6,2.1-4.7,4.7-4.7l0,0c2.6,0,4.7,2.1,4.7,4.7v44.1
		C626.1,65.4,624,67.5,621.5,67.5z"/>
	<path class="st1" d="M640.2,68.1L640.2,68.1c-2.6,0-4.7-2.1-4.7-4.7V10.1c0-2.6,2.1-4.7,4.7-4.7l0,0c2.6,0,4.7,2.1,4.7,4.7v53.3
		C644.8,66,642.7,68.1,640.2,68.1z"/>
	<path class="st1" d="M658.9,73.6L658.9,73.6c-2.6,0-4.7-2.1-4.7-4.7V24.8c0-2.6,2.1-4.7,4.7-4.7l0,0c2.6,0,4.7,2.1,4.7,4.7v44.1
		C663.6,71.5,661.5,73.6,658.9,73.6z"/>
	<path class="st1" d="M677.5,57.5L677.5,57.5c-2.6,0-4.7-2.1-4.7-4.7V8.6c0-2.6,2.1-4.7,4.7-4.7l0,0c2.6,0,4.7,2.1,4.7,4.7v44.1
		C682.2,55.4,680.1,57.5,677.5,57.5z"/>
	<path class="st1" d="M696.2,68L696.2,68c-2.6,0-4.7-2.1-4.7-4.7V19.2c0-2.6,2.1-4.7,4.7-4.7l0,0c2.6,0,4.7,2.1,4.7,4.7v44.1
		C700.9,65.9,698.8,68,696.2,68z"/>
	<path class="st1" d="M715,74.5L715,74.5c-2.6,0-4.7-2.1-4.7-4.7V16.5c0-2.6,2.1-4.7,4.7-4.7l0,0c2.6,0,4.7,2.1,4.7,4.7v53.3
		C719.6,72.4,717.5,74.5,715,74.5z"/>
	<path class="st1" d="M733.6,95.3L733.6,95.3c-2.6,0-4.7-2.1-4.7-4.7V29.8c0-2.6,2.1-4.7,4.7-4.7l0,0c2.6,0,4.7,2.1,4.7,4.7v60.9
		C738.3,93.2,736.2,95.3,733.6,95.3z"/>
	<path class="st1" d="M995.3,36.7L995.3,36.7c2.6,0,4.7,2.1,4.7,4.7v22.1c0,2.6-2.1,4.7-4.7,4.7l0,0c-2.6,0-4.7-2.1-4.7-4.7V41.4
		C990.7,38.8,992.7,36.7,995.3,36.7z"/>
	<path class="st1" d="M976.6,15.5L976.6,15.5c2.6,0,4.7,2.1,4.7,4.7v36.5c0,2.6-2.1,4.7-4.7,4.7l0,0c-2.6,0-4.7-2.1-4.7-4.7V20.1
		C972,17.6,974.1,15.5,976.6,15.5z"/>
	<path class="st1" d="M958,8.5L958,8.5c2.6,0,4.7,2.1,4.7,4.7v60.9c0,2.6-2.1,4.7-4.7,4.7l0,0c-2.6,0-4.7-2.1-4.7-4.7V13.2
		C953.3,10.6,955.4,8.5,958,8.5z"/>
	<path class="st1" d="M939.3,41.1L939.3,41.1c2.6,0,4.7,2.1,4.7,4.7v22.1c0,2.6-2.1,4.7-4.7,4.7l0,0c-2.6,0-4.7-2.1-4.7-4.7V45.8
		C934.6,43.2,936.7,41.1,939.3,41.1z"/>
	<path class="st1" d="M920.6,37.3L920.6,37.3c2.6,0,4.7,2.1,4.7,4.7v36.5c0,2.6-2.1,4.7-4.7,4.7l0,0c-2.6,0-4.7-2.1-4.7-4.7V42
		C915.9,39.4,918,37.3,920.6,37.3z"/>
	<path class="st1" d="M901.9,20.7L901.9,20.7c2.6,0,4.7,2.1,4.7,4.7v44.1c0,2.6-2.1,4.7-4.7,4.7l0,0c-2.6,0-4.7-2.1-4.7-4.7V25.3
		C897.2,22.8,899.3,20.7,901.9,20.7z"/>
	<path class="st1" d="M883.2,9.2L883.2,9.2c2.6,0,4.7,2.1,4.7,4.7V58c0,2.6-2.1,4.7-4.7,4.7l0,0c-2.6,0-4.7-2.1-4.7-4.7V13.9
		C878.5,11.3,880.6,9.2,883.2,9.2z"/>
	<path class="st1" d="M864.5,11.4L864.5,11.4c2.6,0,4.7,2.1,4.7,4.7v44.1c0,2.6-2.1,4.7-4.7,4.7l0,0c-2.6,0-4.7-2.1-4.7-4.7V16.1
		C859.8,13.5,861.9,11.4,864.5,11.4z"/>
	<path class="st1" d="M845.8,33.5L845.8,33.5c2.6,0,4.7,2.1,4.7,4.7v44.1c0,2.6-2.1,4.7-4.7,4.7l0,0c-2.6,0-4.7-2.1-4.7-4.7V38.2
		C841.1,35.6,843.2,33.5,845.8,33.5z"/>
	<path class="st1" d="M827.1,12.3L827.1,12.3c2.6,0,4.7,2.1,4.7,4.7v53.3c0,2.6-2.1,4.7-4.7,4.7l0,0c-2.6,0-4.7-2.1-4.7-4.7V17
		C822.4,14.4,824.5,12.3,827.1,12.3z"/>
	<path class="st1" d="M808.4,12.3L808.4,12.3c2.6,0,4.7,2.1,4.7,4.7v44.1c0,2.6-2.1,4.7-4.7,4.7l0,0c-2.6,0-4.7-2.1-4.7-4.7V17
		C803.8,14.4,805.8,12.3,808.4,12.3z"/>
	<path class="st1" d="M789.7,41.9L789.7,41.9c2.6,0,4.7,2.1,4.7,4.7v44.1c0,2.6-2.1,4.7-4.7,4.7l0,0c-2.6,0-4.7-2.1-4.7-4.7V46.5
		C785.1,44,787.2,41.9,789.7,41.9z"/>
	<path class="st1" d="M771,17.9L771,17.9c2.6,0,4.7,2.1,4.7,4.7v44.1c0,2.6-2.1,4.7-4.7,4.7l0,0c-2.6,0-4.7-2.1-4.7-4.7V22.6
		C766.4,20,768.5,17.9,771,17.9z"/>
	<path class="st1" d="M752.3,5.4L752.3,5.4c2.6,0,4.7,2.1,4.7,4.7v53.3c0,2.6-2.1,4.7-4.7,4.7l0,0c-2.6,0-4.7-2.1-4.7-4.7V10.1
		C747.7,7.5,749.8,5.4,752.3,5.4z"/>
</g>
</svg>
