<?xml version="1.0" encoding="utf-8"?>
<!-- Generator: Adobe Illustrator 24.3.0, SVG Export Plug-In . SVG Version: 6.00 Build 0)  -->
<svg version="1.1" id="Camada_1" xmlns="http://www.w3.org/2000/svg" xmlns:xlink="http://www.w3.org/1999/xlink" x="0px" y="0px"
	 width="1000px" height="100px" viewBox="0 0 1000 100" style="enable-background:new 0 0 1000 100;" xml:space="preserve">
<style type="text/css">
	.st0{fill:#292930;}
	.st1{fill:#24242B;}
</style>
<rect y="0" class="st0" width="1000" height="50"/>
<rect y="50" class="st1" width="1000" height="50"/>
<g>
	<path class="st1" d="M14,87.7L14,87.7c-2.6,0-4.7-2.1-4.7-4.7V38.9c0-2.6,2.1-4.7,4.7-4.7h0c2.6,0,4.7,2.1,4.7,4.7V83
		C18.7,85.6,16.6,87.7,14,87.7z"/>
	<path class="st1" d="M32.7,71.3L32.7,71.3c-2.6,0-4.7-2.1-4.7-4.7V22.4c0-2.6,2.1-4.7,4.7-4.7h0c2.6,0,4.7,2.1,4.7,4.7v44.1
		C37.4,69.2,35.3,71.3,32.7,71.3z"/>
	<path class="st1" d="M51.4,80.3L51.4,80.3c-2.6,0-4.7-2.1-4.7-4.7V31.5c0-2.6,2.1-4.7,4.7-4.7h0c2.6,0,4.7,2.1,4.7,4.7v44.1
		C56.1,78.3,54,80.3,51.4,80.3z"/>
	<path class="st1" d="M70.1,85.4L70.1,85.4c-2.6,0-4.7-2.1-4.7-4.7V36.6c0-2.6,2.1-4.7,4.7-4.7h0c2.6,0,4.7,2.1,4.7,4.7v44.1
		C74.8,83.3,72.7,85.4,70.1,85.4z"/>
	<path class="st1" d="M88.8,87.7L88.8,87.7c-2.6,0-4.7-2.1-4.7-4.7V29.7c0-2.6,2.1-4.7,4.7-4.7h0c2.6,0,4.7,2.1,4.7,4.7V83
		C93.5,85.6,91.4,87.7,88.8,87.7z"/>
	<path class="st1" d="M107.5,92L107.5,92c-2.6,0-4.7-2.1-4.7-4.7V43.2c0-2.6,2.1-4.7,4.7-4.7h0c2.6,0,4.7,2.1,4.7,4.7v44.1
		C112.1,89.9,110.1,92,107.5,92z"/>
	<path class="st1" d="M126.2,80.3L126.2,80.3c-2.6,0-4.7-2.1-4.7-4.7V31.5c0-2.6,2.1-4.7,4.7-4.7h0c2.6,0,4.7,2.1,4.7,4.7v44.1
		C130.8,78.3,128.7,80.3,126.2,80.3z"/>
	<path class="st1" d="M144.9,71.3L144.9,71.3c-2.6,0-4.7-2.1-4.7-4.7V22.4c0-2.6,2.1-4.7,4.7-4.7l0,0c2.6,0,4.7,2.1,4.7,4.7v44.1
		C149.5,69.2,147.4,71.3,144.9,71.3z"/>
	<path class="st1" d="M163.6,94.6L163.6,94.6c-2.6,0-4.7-2.1-4.7-4.7V36.6c0-2.6,2.1-4.7,4.7-4.7h0c2.6,0,4.7,2.1,4.7,4.7v53.3
		C168.2,92.5,166.1,94.6,163.6,94.6z"/>
	<path class="st1" d="M182.3,84.7L182.3,84.7c-2.6,0-4.7-2.1-4.7-4.7V19.2c0-2.6,2.1-4.7,4.7-4.7h0c2.6,0,4.7,2.1,4.7,4.7V80
		C186.9,82.6,184.8,84.7,182.3,84.7z"/>
	<path class="st1" d="M200.9,56.4L200.9,56.4c-2.6,0-4.7-2.1-4.7-4.7V29.6c0-2.6,2.1-4.7,4.7-4.7h0c2.6,0,4.7,2.1,4.7,4.7v22.1
		C205.6,54.3,203.5,56.4,200.9,56.4z"/>
	<path class="st1" d="M219.6,87L219.6,87c-2.6,0-4.7-2.1-4.7-4.7V45.9c0-2.6,2.1-4.7,4.7-4.7h0c2.6,0,4.7,2.1,4.7,4.7v36.5
		C224.3,85,222.2,87,219.6,87z"/>
	<path class="st1" d="M238.3,98.3L238.3,98.3c-2.6,0-4.7-2.1-4.7-4.7V32.8c0-2.6,2.1-4.7,4.7-4.7h0c2.6,0,4.7,2.1,4.7,4.7v60.9
		C243,96.2,240.9,98.3,238.3,98.3z"/>
	<path class="st1" d="M257,72.1L257,72.1c-2.6,0-4.7-2.1-4.7-4.7V45.3c0-2.6,2.1-4.7,4.7-4.7l0,0c2.6,0,4.7,2.1,4.7,4.7v22.1
		C261.7,70,259.6,72.1,257,72.1z"/>
	<path class="st1" d="M275.7,72.9L275.7,72.9c-2.6,0-4.7-2.1-4.7-4.7V31.8c0-2.6,2.1-4.7,4.7-4.7l0,0c2.6,0,4.7,2.1,4.7,4.7v36.5
		C280.4,70.8,278.3,72.9,275.7,72.9z"/>
	<path class="st1" d="M294.4,65.8L294.4,65.8c-2.6,0-4.7-2.1-4.7-4.7V17c0-2.6,2.1-4.7,4.7-4.7l0,0c2.6,0,4.7,2.1,4.7,4.7v44.1
		C299.1,63.7,297,65.8,294.4,65.8z"/>
	<path class="st1" d="M313.1,91.8L313.1,91.8c-2.6,0-4.7-2.1-4.7-4.7V43c0-2.6,2.1-4.7,4.7-4.7l0,0c2.6,0,4.7,2.1,4.7,4.7v44.1
		C317.7,89.7,315.7,91.8,313.1,91.8z"/>
	<path class="st1" d="M331.8,85.4L331.8,85.4c-2.6,0-4.7-2.1-4.7-4.7V36.6c0-2.6,2.1-4.7,4.7-4.7l0,0c2.6,0,4.7,2.1,4.7,4.7v44.1
		C336.4,83.3,334.3,85.4,331.8,85.4z"/>
	<path class="st1" d="M350.4,90L350.4,90c-2.6,0-4.7-2.1-4.7-4.7V41.2c0-2.6,2.1-4.7,4.7-4.7l0,0c2.6,0,4.7,2.1,4.7,4.7v44.1
		C355.1,87.9,353,90,350.4,90z"/>
	<path class="st1" d="M369.1,64.9L369.1,64.9c-2.6,0-4.7-2.1-4.7-4.7V6.9c0-2.6,2.1-4.7,4.7-4.7h0c2.6,0,4.7,2.1,4.7,4.7v53.3
		C373.8,62.8,371.7,64.9,369.1,64.9z"/>
	<path class="st1" d="M387.8,90L387.8,90c-2.6,0-4.7-2.1-4.7-4.7V41.2c0-2.6,2.1-4.7,4.7-4.7l0,0c2.6,0,4.7,2.1,4.7,4.7v44.1
		C392.5,87.9,390.4,90,387.8,90z"/>
	<path class="st1" d="M406.5,78.4L406.5,78.4c-2.6,0-4.7-2.1-4.7-4.7V29.6c0-2.6,2.1-4.7,4.7-4.7l0,0c2.6,0,4.7,2.1,4.7,4.7v44.1
		C411.2,76.3,409.1,78.4,406.5,78.4z"/>
	<path class="st1" d="M425.2,85.4L425.2,85.4c-2.6,0-4.7-2.1-4.7-4.7V36.6c0-2.6,2.1-4.7,4.7-4.7l0,0c2.6,0,4.7,2.1,4.7,4.7v44.1
		C429.9,83.3,427.8,85.4,425.2,85.4z"/>
	<path class="st1" d="M443.9,87.6L443.9,87.6c-2.6,0-4.7-2.1-4.7-4.7V29.6c0-2.6,2.1-4.7,4.7-4.7l0,0c2.6,0,4.7,2.1,4.7,4.7v53.3
		C448.6,85.5,446.5,87.6,443.9,87.6z"/>
	<path class="st1" d="M462.6,95.4L462.6,95.4c-2.6,0-4.7-2.1-4.7-4.7V29.9c0-2.6,2.1-4.7,4.7-4.7l0,0c2.6,0,4.7,2.1,4.7,4.7v60.9
		C467.3,93.3,465.2,95.4,462.6,95.4z"/>
	<path class="st1" d="M481.3,69.5L481.3,69.5c-2.6,0-4.7-2.1-4.7-4.7V42.8c0-2.6,2.1-4.7,4.7-4.7l0,0c2.6,0,4.7,2.1,4.7,4.7v22.1
		C486,67.5,483.9,69.5,481.3,69.5z"/>
	<path class="st1" d="M500,80L500,80c-2.6,0-4.7-2.1-4.7-4.7V38.9c0-2.6,2.1-4.7,4.7-4.7l0,0c2.6,0,4.7,2.1,4.7,4.7v36.5
		C504.7,77.9,502.6,80,500,80z"/>
	<path class="st1" d="M518.7,91.5L518.7,91.5c-2.6,0-4.7-2.1-4.7-4.7V25.9c0-2.6,2.1-4.7,4.7-4.7h0c2.6,0,4.7,2.1,4.7,4.7v60.9
		C523.4,89.4,521.3,91.5,518.7,91.5z"/>
	<path class="st1" d="M537.4,65.3L537.4,65.3c-2.6,0-4.7-2.1-4.7-4.7V38.5c0-2.6,2.1-4.7,4.7-4.7l0,0c2.6,0,4.7,2.1,4.7,4.7v22.1
		C542,63.2,540,65.3,537.4,65.3z"/>
	<path class="st1" d="M556.1,87L556.1,87c-2.6,0-4.7-2.1-4.7-4.7V45.8c0-2.6,2.1-4.7,4.7-4.7h0c2.6,0,4.7,2.1,4.7,4.7v36.5
		C560.7,84.9,558.6,87,556.1,87z"/>
	<path class="st1" d="M574.7,67.9L574.7,67.9c-2.6,0-4.7-2.1-4.7-4.7V19.1c0-2.6,2.1-4.7,4.7-4.7l0,0c2.6,0,4.7,2.1,4.7,4.7v44.1
		C579.4,65.8,577.3,67.9,574.7,67.9z"/>
	<path class="st1" d="M593.4,74.1L593.4,74.1c-2.6,0-4.7-2.1-4.7-4.7V25.3c0-2.6,2.1-4.7,4.7-4.7h0c2.6,0,4.7,2.1,4.7,4.7v44.1
		C598.1,72,596,74.1,593.4,74.1z"/>
	<path class="st1" d="M612.1,81.2L612.1,81.2c-2.6,0-4.7-2.1-4.7-4.7V32.4c0-2.6,2.1-4.7,4.7-4.7l0,0c2.6,0,4.7,2.1,4.7,4.7v44.1
		C616.8,79.1,614.7,81.2,612.1,81.2z"/>
	<path class="st1" d="M630.8,87L630.8,87c-2.6,0-4.7-2.1-4.7-4.7V38.2c0-2.6,2.1-4.7,4.7-4.7h0c2.6,0,4.7,2.1,4.7,4.7v44.1
		C635.5,84.9,633.4,87,630.8,87z"/>
	<path class="st1" d="M649.5,98.8L649.5,98.8c-2.6,0-4.7-2.1-4.7-4.7V40.8c0-2.6,2.1-4.7,4.7-4.7l0,0c2.6,0,4.7,2.1,4.7,4.7v53.3
		C654.2,96.7,652.1,98.8,649.5,98.8z"/>
	<path class="st1" d="M668.2,84.2L668.2,84.2c-2.6,0-4.7-2.1-4.7-4.7V35.4c0-2.6,2.1-4.7,4.7-4.7h0c2.6,0,4.7,2.1,4.7,4.7v44.1
		C672.9,82.1,670.8,84.2,668.2,84.2z"/>
	<path class="st1" d="M686.9,75L686.9,75c-2.6,0-4.7-2.1-4.7-4.7V26.2c0-2.6,2.1-4.7,4.7-4.7l0,0c2.6,0,4.7,2.1,4.7,4.7v44.1
		C691.6,72.9,689.5,75,686.9,75z"/>
	<path class="st1" d="M705.6,90L705.6,90c-2.6,0-4.7-2.1-4.7-4.7V41.2c0-2.6,2.1-4.7,4.7-4.7l0,0c2.6,0,4.7,2.1,4.7,4.7v44.1
		C710.3,87.9,708.2,90,705.6,90z"/>
	<path class="st1" d="M724.3,85.8L724.3,85.8c-2.6,0-4.7-2.1-4.7-4.7V27.8c0-2.6,2.1-4.7,4.7-4.7h0c2.6,0,4.7,2.1,4.7,4.7v53.3
		C729,83.7,726.9,85.8,724.3,85.8z"/>
	<path class="st1" d="M986,28.3L986,28.3c2.6,0,4.7,2.1,4.7,4.7v36.5c0,2.6-2.1,4.7-4.7,4.7l0,0c-2.6,0-4.7-2.1-4.7-4.7V33
		C981.3,30.4,983.4,28.3,986,28.3z"/>
	<path class="st1" d="M967.3,29.8L967.3,29.8c2.6,0,4.7,2.1,4.7,4.7v60.9c0,2.6-2.1,4.7-4.7,4.7l0,0c-2.6,0-4.7-2.1-4.7-4.7V34.5
		C962.6,31.9,964.7,29.8,967.3,29.8z"/>
	<path class="st1" d="M948.6,27.1L948.6,27.1c2.6,0,4.7,2.1,4.7,4.7v22.1c0,2.6-2.1,4.7-4.7,4.7l0,0c-2.6,0-4.7-2.1-4.7-4.7V31.8
		C943.9,29.2,946,27.1,948.6,27.1z"/>
	<path class="st1" d="M929.9,23.7L929.9,23.7c2.6,0,4.7,2.1,4.7,4.7v36.5c0,2.6-2.1,4.7-4.7,4.7l0,0c-2.6,0-4.7-2.1-4.7-4.7V28.3
		C925.2,25.8,927.3,23.7,929.9,23.7z"/>
	<path class="st1" d="M911.2,14.1L911.2,14.1c2.6,0,4.7,2.1,4.7,4.7v44.1c0,2.6-2.1,4.7-4.7,4.7l0,0c-2.6,0-4.7-2.1-4.7-4.7V18.8
		C906.6,16.2,908.6,14.1,911.2,14.1z"/>
	<path class="st1" d="M892.5,31.8L892.5,31.8c2.6,0,4.7,2.1,4.7,4.7v44.1c0,2.6-2.1,4.7-4.7,4.7l0,0c-2.6,0-4.7-2.1-4.7-4.7V36.5
		C887.9,33.9,890,31.8,892.5,31.8z"/>
	<path class="st1" d="M873.9,26.7L873.9,26.7c2.6,0,4.7,2.1,4.7,4.7v44.1c0,2.6-2.1,4.7-4.7,4.7l0,0c-2.6,0-4.7-2.1-4.7-4.7V31.4
		C869.2,28.8,871.3,26.7,873.9,26.7z"/>
	<path class="st1" d="M855.2,42.8L855.2,42.8c2.6,0,4.7,2.1,4.7,4.7v44.1c0,2.6-2.1,4.7-4.7,4.7l0,0c-2.6,0-4.7-2.1-4.7-4.7V47.4
		C850.5,44.8,852.6,42.8,855.2,42.8z"/>
	<path class="st1" d="M836.5,6.8L836.5,6.8c2.6,0,4.7,2.1,4.7,4.7v53.3c0,2.6-2.1,4.7-4.7,4.7l0,0c-2.6,0-4.7-2.1-4.7-4.7V11.5
		C831.8,8.9,833.9,6.8,836.5,6.8z"/>
	<path class="st1" d="M817.7,35.9L817.7,35.9c2.6,0,4.7,2.1,4.7,4.7v44.1c0,2.6-2.1,4.7-4.7,4.7l0,0c-2.6,0-4.7-2.1-4.7-4.7V40.6
		C813.1,38,815.2,35.9,817.7,35.9z"/>
	<path class="st1" d="M799.1,19.1L799.1,19.1c2.6,0,4.7,2.1,4.7,4.7v44.1c0,2.6-2.1,4.7-4.7,4.7l0,0c-2.6,0-4.7-2.1-4.7-4.7V23.8
		C794.4,21.2,796.5,19.1,799.1,19.1z"/>
	<path class="st1" d="M780.4,36.8L780.4,36.8c2.6,0,4.7,2.1,4.7,4.7v44.1c0,2.6-2.1,4.7-4.7,4.7h0c-2.6,0-4.7-2.1-4.7-4.7V41.4
		C775.7,38.9,777.8,36.8,780.4,36.8z"/>
	<path class="st1" d="M761.7,26.1L761.7,26.1c2.6,0,4.7,2.1,4.7,4.7v53.3c0,2.6-2.1,4.7-4.7,4.7l0,0c-2.6,0-4.7-2.1-4.7-4.7V30.8
		C757,28.2,759.1,26.1,761.7,26.1z"/>
	<path class="st1" d="M743,17.8L743,17.8c2.6,0,4.7,2.1,4.7,4.7v48.9c0,2.6-2.1,4.7-4.7,4.7l0,0c-2.6,0-4.7-2.1-4.7-4.7V22.4
		C738.3,19.9,740.4,17.8,743,17.8z"/>
</g>
<g>
	<path class="st0" d="M995.3,21.6L995.3,21.6c2.6,0,4.7,2.1,4.7,4.7v44.1c0,2.6-2.1,4.7-4.7,4.7l0,0c-2.6,0-4.7-2.1-4.7-4.7V26.2
		C990.7,23.7,992.7,21.6,995.3,21.6z"/>
	<path class="st0" d="M976.6,16.2L976.6,16.2c2.6,0,4.7,2.1,4.7,4.7V65c0,2.6-2.1,4.7-4.7,4.7l0,0c-2.6,0-4.7-2.1-4.7-4.7V20.8
		C972,18.2,974.1,16.2,976.6,16.2z"/>
	<path class="st0" d="M958,11.4L958,11.4c2.6,0,4.7,2.1,4.7,4.7v44.1c0,2.6-2.1,4.7-4.7,4.7l0,0c-2.6,0-4.7-2.1-4.7-4.7V16.1
		C953.3,13.5,955.4,11.4,958,11.4z"/>
	<path class="st0" d="M939.3,25.9L939.3,25.9c2.6,0,4.7,2.1,4.7,4.7v44.1c0,2.6-2.1,4.7-4.7,4.7l0,0c-2.6,0-4.7-2.1-4.7-4.7V30.6
		C934.6,28,936.7,25.9,939.3,25.9z"/>
	<path class="st0" d="M920.6,0L920.6,0c2.6,0,4.7,2.1,4.7,4.7V58c0,2.6-2.1,4.7-4.7,4.7l0,0c-2.6,0-4.7-2.1-4.7-4.7V4.7
		C915.9,2.1,918,0,920.6,0z"/>
	<path class="st0" d="M901.8,14.6L901.8,14.6c2.6,0,4.7,2.1,4.7,4.7v44.1c0,2.6-2.1,4.7-4.7,4.7l0,0c-2.6,0-4.7-2.1-4.7-4.7V19.3
		C897.2,16.7,899.3,14.6,901.8,14.6z"/>
	<path class="st0" d="M883.2,32L883.2,32c2.6,0,4.7,2.1,4.7,4.7v44.1c0,2.6-2.1,4.7-4.7,4.7l0,0c-2.6,0-4.7-2.1-4.7-4.7V36.7
		C878.5,34.1,880.6,32,883.2,32z"/>
	<path class="st0" d="M864.5,38L864.5,38c2.6,0,4.7,2.1,4.7,4.7v44.1c0,2.6-2.1,4.7-4.7,4.7l0,0c-2.6,0-4.7-2.1-4.7-4.7V42.7
		C859.8,40.1,861.9,38,864.5,38z"/>
	<path class="st0" d="M845.8,16.1L845.8,16.1c2.6,0,4.7,2.1,4.7,4.7v53.3c0,2.6-2.1,4.7-4.7,4.7l0,0c-2.6,0-4.7-2.1-4.7-4.7V20.7
		C841.1,18.2,843.2,16.1,845.8,16.1z"/>
	<path class="st0" d="M827.1,25L827.1,25c2.6,0,4.7,2.1,4.7,4.7v60.9c0,2.6-2.1,4.7-4.7,4.7l0,0c-2.6,0-4.7-2.1-4.7-4.7V29.7
		C822.4,27.1,824.5,25,827.1,25z"/>
	<path class="st0" d="M808.4,29.5L808.4,29.5c2.6,0,4.7,2.1,4.7,4.7v22.1c0,2.6-2.1,4.7-4.7,4.7l0,0c-2.6,0-4.7-2.1-4.7-4.7V34.2
		C803.7,31.6,805.8,29.5,808.4,29.5z"/>
	<path class="st0" d="M789.7,35.9L789.7,35.9c2.6,0,4.7,2.1,4.7,4.7V77c0,2.6-2.1,4.7-4.7,4.7l0,0c-2.6,0-4.7-2.1-4.7-4.7V40.5
		C785,38,787.1,35.9,789.7,35.9z"/>
	<path class="st0" d="M771,29.8L771,29.8c2.6,0,4.7,2.1,4.7,4.7v60.9c0,2.6-2.1,4.7-4.7,4.7l0,0c-2.6,0-4.7-2.1-4.7-4.7V34.5
		C766.4,31.9,768.4,29.8,771,29.8z"/>
	<path class="st0" d="M752.3,43.1L752.3,43.1c2.6,0,4.7,2.1,4.7,4.7v22.1c0,2.6-2.1,4.7-4.7,4.7l0,0c-2.6,0-4.7-2.1-4.7-4.7V47.7
		C747.7,45.2,749.8,43.1,752.3,43.1z"/>
	<path class="st0" d="M733.7,18.9L733.7,18.9c2.6,0,4.7,2.1,4.7,4.7v36.5c0,2.6-2.1,4.7-4.7,4.7l0,0c-2.6,0-4.7-2.1-4.7-4.7V23.6
		C729,21,731.1,18.9,733.7,18.9z"/>
	<path class="st0" d="M715,13L715,13c2.6,0,4.7,2.1,4.7,4.7v44.1c0,2.6-2.1,4.7-4.7,4.7l0,0c-2.6,0-4.7-2.1-4.7-4.7V17.6
		C710.3,15,712.4,13,715,13z"/>
	<path class="st0" d="M696.3,25.3L696.3,25.3c2.6,0,4.7,2.1,4.7,4.7v44.1c0,2.6-2.1,4.7-4.7,4.7l0,0c-2.6,0-4.7-2.1-4.7-4.7V29.9
		C691.6,27.3,693.7,25.3,696.3,25.3z"/>
	<path class="st0" d="M677.6,39.7L677.6,39.7c2.6,0,4.7,2.1,4.7,4.7v44.1c0,2.6-2.1,4.7-4.7,4.7l0,0c-2.6,0-4.7-2.1-4.7-4.7V44.4
		C672.9,41.8,675,39.7,677.6,39.7z"/>
	<path class="st0" d="M658.9,19.4L658.9,19.4c2.6,0,4.7,2.1,4.7,4.7v44.1c0,2.6-2.1,4.7-4.7,4.7l0,0c-2.6,0-4.7-2.1-4.7-4.7V24.1
		C654.2,21.5,656.3,19.4,658.9,19.4z"/>
	<path class="st0" d="M640.2,22.8L640.2,22.8c2.6,0,4.7,2.1,4.7,4.7v53.3c0,2.6-2.1,4.7-4.7,4.7l0,0c-2.6,0-4.7-2.1-4.7-4.7V27.5
		C635.5,24.9,637.6,22.8,640.2,22.8z"/>
	<path class="st0" d="M621.5,16.9L621.5,16.9c2.6,0,4.7,2.1,4.7,4.7v44.1c0,2.6-2.1,4.7-4.7,4.7l0,0c-2.6,0-4.7-2.1-4.7-4.7V21.6
		C616.8,19,618.9,16.9,621.5,16.9z"/>
	<path class="st0" d="M602.8,32L602.8,32c2.6,0,4.7,2.1,4.7,4.7v44.1c0,2.6-2.1,4.7-4.7,4.7l0,0c-2.6,0-4.7-2.1-4.7-4.7V36.7
		C598.1,34.1,600.2,32,602.8,32z"/>
	<path class="st0" d="M584.1,38.2L584.1,38.2c2.6,0,4.7,2.1,4.7,4.7V87c0,2.6-2.1,4.7-4.7,4.7l0,0c-2.6,0-4.7-2.1-4.7-4.7V42.8
		C579.5,40.3,581.6,38.2,584.1,38.2z"/>
	<path class="st0" d="M565.4,29.6L565.4,29.6c2.6,0,4.7,2.1,4.7,4.7v53.3c0,2.6-2.1,4.7-4.7,4.7l0,0c-2.6,0-4.7-2.1-4.7-4.7V34.2
		C560.7,31.7,562.8,29.6,565.4,29.6z"/>
	<path class="st0" d="M546.7,15.3L546.7,15.3c2.6,0,4.7,2.1,4.7,4.7v60.9c0,2.6-2.1,4.7-4.7,4.7l0,0c-2.6,0-4.7-2.1-4.7-4.7V20
		C542.1,17.4,544.1,15.3,546.7,15.3z"/>
	<path class="st0" d="M528,43.6L528,43.6c2.6,0,4.7,2.1,4.7,4.7v22.1c0,2.6-2.1,4.7-4.7,4.7l0,0c-2.6,0-4.7-2.1-4.7-4.7V48.3
		C523.4,45.7,525.5,43.6,528,43.6z"/>
	<path class="st0" d="M509.4,38.2L509.4,38.2c2.6,0,4.7,2.1,4.7,4.7v36.5c0,2.6-2.1,4.7-4.7,4.7h0c-2.6,0-4.7-2.1-4.7-4.7V42.8
		C504.7,40.3,506.8,38.2,509.4,38.2z"/>
	<path class="st0" d="M490.7,29.8L490.7,29.8c2.6,0,4.7,2.1,4.7,4.7v60.9c0,2.6-2.1,4.7-4.7,4.7h0c-2.6,0-4.7-2.1-4.7-4.7V34.5
		C486,31.9,488.1,29.8,490.7,29.8z"/>
	<path class="st0" d="M472,24L472,24c2.6,0,4.7,2.1,4.7,4.7v22.1c0,2.6-2.1,4.7-4.7,4.7h0c-2.6,0-4.7-2.1-4.7-4.7V28.7
		C467.3,26.1,469.4,24,472,24z"/>
	<path class="st0" d="M453.3,32.5L453.3,32.5c2.6,0,4.7,2.1,4.7,4.7v36.5c0,2.6-2.1,4.7-4.7,4.7h0c-2.6,0-4.7-2.1-4.7-4.7V37.2
		C448.6,34.6,450.7,32.5,453.3,32.5z"/>
	<path class="st0" d="M434.6,14.6L434.6,14.6c2.6,0,4.7,2.1,4.7,4.7v44.1c0,2.6-2.1,4.7-4.7,4.7h0c-2.6,0-4.7-2.1-4.7-4.7V19.3
		C429.9,16.7,432,14.6,434.6,14.6z"/>
	<path class="st0" d="M415.9,5.8L415.9,5.8c2.6,0,4.7,2.1,4.7,4.7v44.1c0,2.6-2.1,4.7-4.7,4.7h0c-2.6,0-4.7-2.1-4.7-4.7V10.4
		C411.2,7.8,413.3,5.8,415.9,5.8z"/>
	<path class="st0" d="M397.2,6.8L397.2,6.8c2.6,0,4.7,2.1,4.7,4.7v44.1c0,2.6-2.1,4.7-4.7,4.7h0c-2.6,0-4.7-2.1-4.7-4.7V11.5
		C392.5,8.9,394.6,6.8,397.2,6.8z"/>
	<path class="st0" d="M378.5,32.5L378.5,32.5c2.6,0,4.7,2.1,4.7,4.7v44.1c0,2.6-2.1,4.7-4.7,4.7h0c-2.6,0-4.7-2.1-4.7-4.7V37.2
		C373.9,34.6,376,32.5,378.5,32.5z"/>
	<path class="st0" d="M359.8,31.9L359.8,31.9c2.6,0,4.7,2.1,4.7,4.7v53.3c0,2.6-2.1,4.7-4.7,4.7h0c-2.6,0-4.7-2.1-4.7-4.7V36.6
		C355.2,34,357.3,31.9,359.8,31.9z"/>
	<path class="st0" d="M341.1,26.4L341.1,26.4c2.6,0,4.7,2.1,4.7,4.7v44.1c0,2.6-2.1,4.7-4.7,4.7h0c-2.6,0-4.7-2.1-4.7-4.7V31.1
		C336.4,28.5,338.5,26.4,341.1,26.4z"/>
	<path class="st0" d="M322.5,42.5L322.5,42.5c2.6,0,4.7,2.1,4.7,4.7v44.1c0,2.6-2.1,4.7-4.7,4.7l0,0c-2.6,0-4.7-2.1-4.7-4.7V47.2
		C317.8,44.6,319.9,42.5,322.5,42.5z"/>
	<path class="st0" d="M303.8,32L303.8,32c2.6,0,4.7,2.1,4.7,4.7v44.1c0,2.6-2.1,4.7-4.7,4.7l0,0c-2.6,0-4.7-2.1-4.7-4.7V36.7
		C299.1,34.1,301.2,32,303.8,32z"/>
	<path class="st0" d="M285,25.5L285,25.5c2.6,0,4.7,2.1,4.7,4.7v53.3c0,2.6-2.1,4.7-4.7,4.7h0c-2.6,0-4.7-2.1-4.7-4.7V30.2
		C280.4,27.6,282.5,25.5,285,25.5z"/>
	<path class="st0" d="M266.4,4.7L266.4,4.7c2.6,0,4.7,2.1,4.7,4.7v60.9c0,2.6-2.1,4.7-4.7,4.7h0c-2.6,0-4.7-2.1-4.7-4.7V9.3
		C261.7,6.8,263.8,4.7,266.4,4.7z"/>
	<path class="st0" d="M4.7,63.3L4.7,63.3c-2.6,0-4.7-2.1-4.7-4.7l0-22.1c0-2.6,2.1-4.7,4.7-4.7h0c2.6,0,4.7,2.1,4.7,4.7v22.1
		C9.3,61.2,7.3,63.3,4.7,63.3z"/>
	<path class="st0" d="M23.4,84.5L23.4,84.5c-2.6,0-4.7-2.1-4.7-4.7V43.4c0-2.6,2.1-4.7,4.7-4.7h0c2.6,0,4.7,2.1,4.7,4.7v36.5
		C28,82.4,25.9,84.5,23.4,84.5z"/>
	<path class="st0" d="M42,91.5L42,91.5c-2.6,0-4.7-2.1-4.7-4.7V25.9c0-2.6,2.1-4.7,4.7-4.7h0c2.6,0,4.7,2.1,4.7,4.7v60.9
		C46.7,89.4,44.6,91.5,42,91.5z"/>
	<path class="st0" d="M60.7,58.9L60.7,58.9c-2.6,0-4.7-2.1-4.7-4.7V32.1c0-2.6,2.1-4.7,4.7-4.7h0c2.6,0,4.7,2.1,4.7,4.7v22.1
		C65.4,56.8,63.3,58.9,60.7,58.9z"/>
	<path class="st0" d="M79.4,62.7L79.4,62.7c-2.6,0-4.7-2.1-4.7-4.7V21.5c0-2.6,2.1-4.7,4.7-4.7h0c2.6,0,4.7,2.1,4.7,4.7V58
		C84.1,60.6,82,62.7,79.4,62.7z"/>
	<path class="st0" d="M98.1,79.3L98.1,79.3c-2.6,0-4.7-2.1-4.7-4.7V30.5c0-2.6,2.1-4.7,4.7-4.7h0c2.6,0,4.7,2.1,4.7,4.7v44.1
		C102.8,77.2,100.7,79.3,98.1,79.3z"/>
	<path class="st0" d="M116.8,90.8L116.8,90.8c-2.6,0-4.7-2.1-4.7-4.7V42c0-2.6,2.1-4.7,4.7-4.7h0c2.6,0,4.7,2.1,4.7,4.7v44.1
		C121.5,88.7,119.4,90.8,116.8,90.8z"/>
	<path class="st0" d="M135.5,88.6L135.5,88.6c-2.6,0-4.7-2.1-4.7-4.7V39.8c0-2.6,2.1-4.7,4.7-4.7h0c2.6,0,4.7,2.1,4.7,4.7v44.1
		C140.2,86.5,138.1,88.6,135.5,88.6z"/>
	<path class="st0" d="M154.2,66.5L154.2,66.5c-2.6,0-4.7-2.1-4.7-4.7V17.7c0-2.6,2.1-4.7,4.7-4.7h0c2.6,0,4.7,2.1,4.7,4.7v44.1
		C158.9,64.4,156.8,66.5,154.2,66.5z"/>
	<path class="st0" d="M172.9,87.7L172.9,87.7c-2.6,0-4.7-2.1-4.7-4.7V29.7c0-2.6,2.1-4.7,4.7-4.7l0,0c2.6,0,4.7,2.1,4.7,4.7V83
		C177.6,85.6,175.5,87.7,172.9,87.7z"/>
	<path class="st0" d="M191.6,87.7L191.6,87.7c-2.6,0-4.7-2.1-4.7-4.7V38.9c0-2.6,2.1-4.7,4.7-4.7h0c2.6,0,4.7,2.1,4.7,4.7V83
		C196.2,85.6,194.2,87.7,191.6,87.7z"/>
	<path class="st0" d="M210.3,58.1L210.3,58.1c-2.6,0-4.7-2.1-4.7-4.7V9.3c0-2.6,2.1-4.7,4.7-4.7l0,0c2.6,0,4.7,2.1,4.7,4.7v44.1
		C214.9,56,212.8,58.1,210.3,58.1z"/>
	<path class="st0" d="M229,82.1L229,82.1c-2.6,0-4.7-2.1-4.7-4.7V33.3c0-2.6,2.1-4.7,4.7-4.7l0,0c2.6,0,4.7,2.1,4.7,4.7v44.1
		C233.6,80,231.5,82.1,229,82.1z"/>
	<path class="st0" d="M247.7,94.6L247.7,94.6c-2.6,0-4.7-2.1-4.7-4.7V36.6c0-2.6,2.1-4.7,4.7-4.7h0c2.6,0,4.7,2.1,4.7,4.7v53.3
		C252.3,92.5,250.2,94.6,247.7,94.6z"/>
</g>
</svg>
