<?xml version="1.0" encoding="utf-8"?>
<!-- Generator: Adobe Illustrator 24.3.0, SVG Export Plug-In . SVG Version: 6.00 Build 0)  -->
<svg version="1.1" id="Camada_1" xmlns="http://www.w3.org/2000/svg" xmlns:xlink="http://www.w3.org/1999/xlink" x="0px" y="0px"
	 width="1000px" height="50px" viewBox="0 0 1000 50" style="enable-background:new 0 0 1000 50;" xml:space="preserve">
<style type="text/css">
	.st0{fill:#26262D;}
	.st1{fill:#49D3FF;}
	.st2{fill:#FE5D7A;}
	.st3{fill:#1EED89;}
	.st4{fill:#FFCD4B;}
</style>
<path class="st0" d="M108.7,16.2C47.8,25.1,13,38.1,0,43.7L0,50h1000V8.2c-13.7,5.9-47.6,18.2-107.3,27.1
	c-41.7,6.2-89,9.4-140.6,9.6c-1.8,0-3.6,0-5.4,0c-74.9,0-157.7-6.4-246-18.9l-0.4-0.1l-0.4-0.1c-88.5-12.6-171.5-19-246.5-19
	c-1.8,0-3.6,0-5.4,0C197,7,150.1,10.2,108.7,16.2z"/>
<path d="M0,0l0,41.8c13.6-5.9,47.6-18.2,107.3-27c41.8-6.2,89.1-9.4,140.7-9.6c1.8,0,3.6,0,5.4,0c74.9,0,157.7,6.3,245.9,18.8
	l0.4,0.1l0.4,0.1c88.5,12.6,171.5,19,246.5,19c1.8,0,3.6,0,5.4,0c51-0.2,97.9-3.4,139.3-9.4c61-8.9,95.7-21.9,108.7-27.5V0L0,0z"/>
<path class="st1" d="M890.1,39.2c63.4-9.4,97.9-22.9,109.9-28.4V0c-0.3,0.2-34.3,18.3-112.4,29.8c-33.8,5-79.3,9.2-137.6,9.4v9.6
	C809.4,48.6,855.7,44.3,890.1,39.2z"/>
<path class="st2" d="M750,39.2c-66.2,0.3-148.8-4.5-249.3-18.9c-0.2,0-0.5-0.1-0.7-0.1v9.7c100.6,14.4,183.5,19.2,250,18.9V39.2z"/>
<path class="st3" d="M250,10.8c66.2-0.2,148.8,4.5,249.2,18.9c0.3,0,0.5,0.1,0.8,0.1v-9.7C399.4,5.7,316.5,0.9,250,1.2V10.8z"/>
<path class="st4" d="M109.9,10.8C46.5,20.2,12.1,33.7,0,39.2L0,50c0.4-0.2,34.3-18.3,112.4-29.8c33.8-5,79.3-9.2,137.6-9.4V1.2
	C190.6,1.4,144.2,5.7,109.9,10.8z"/>
</svg>
