<?xml version="1.0" encoding="utf-8"?>
<!-- Generator: Adobe Illustrator 24.3.0, SVG Export Plug-In . SVG Version: 6.00 Build 0)  -->
<svg version="1.1" id="Camada_1" xmlns="http://www.w3.org/2000/svg" xmlns:xlink="http://www.w3.org/1999/xlink" x="0px" y="0px"
	 width="1000px" height="100px" viewBox="0 0 1000 100" style="enable-background:new 0 0 1000 100;" xml:space="preserve">
<style type="text/css">
	.st0{fill:url(#SVGID_1_);}
	.st1{fill:#555560;}
	.st2{fill:#FFCD4B;}
	.st3{fill:#49D3FF;}
	.st4{fill:#32323A;}
	.st5{fill:#1EED89;}
	.st6{fill:#FE5D7A;}
	.st7{fill:#FFFFFF;}
</style>
<linearGradient id="SVGID_1_" gradientUnits="userSpaceOnUse" x1="500" y1="100" x2="500" y2="-9.094947e-13">
	<stop  offset="0" style="stop-color:#000000"/>
	<stop  offset="1" style="stop-color:#18181C"/>
</linearGradient>
<rect class="st0" width="1000" height="100"/>
<path class="st1" d="M867.1,63.1l-0.3,0v-2.2l0.3,0c2,0,4.1-0.1,6.2-0.2l0.1,2.2C871.3,63.1,869.2,63.1,867.1,63.1z"/>
<path class="st1" d="M860.3,62.9c-2.2-0.1-4.4-0.3-6.5-0.6l0.2-2.2c2.1,0.3,4.3,0.4,6.4,0.6L860.3,62.9z"/>
<path class="st1" d="M879.9,62.4l-0.2-2.2c2.1-0.2,4.2-0.5,6.4-0.8l0.3,2.2C884.2,61.9,882.1,62.2,879.9,62.4z"/>
<path class="st1" d="M847.3,61.4c-2.1-0.4-4.3-0.8-6.4-1.3l0.5-2.2c2.1,0.5,4.2,0.9,6.3,1.3L847.3,61.4z"/>
<path class="st1" d="M892.9,60.5l-0.4-2.2c1.2-0.2,2.4-0.5,3.6-0.7c0.9-0.2,1.8-0.4,2.8-0.6l0.5,2.2c-0.9,0.2-1.9,0.4-2.8,0.6
	C895.3,60,894.1,60.3,892.9,60.5z"/>
<path class="st1" d="M834.5,58.4c-2-0.6-4.1-1.2-6.3-1.9l0.7-2.1c2.1,0.7,4.2,1.3,6.2,1.9L834.5,58.4z"/>
<path class="st1" d="M905.6,57.6l-0.5-2.2c2-0.5,4.1-1,6.3-1.6L912,56C909.8,56.6,907.7,57.1,905.6,57.6z"/>
<path class="st1" d="M918.3,54.4l-0.5-2.2c2.1-0.5,4.2-1,6.3-1.5l0.5,2.2C922.4,53.4,920.3,53.9,918.3,54.4z"/>
<path class="st2" d="M822.1,54.3c-2-0.7-4.1-1.5-6.1-2.3l0.8-2.1c2,0.8,4.1,1.5,6.1,2.3L822.1,54.3z"/>
<path class="st1" d="M930.9,51.5l-0.4-2.2c2.1-0.5,4.2-0.9,6.4-1.3l0.4,2.2C935.1,50.6,933,51,930.9,51.5z"/>
<path class="st3" d="M809.9,49.6c-1.8-0.7-3.6-1.4-5.5-2.2l-0.6-0.2l0.8-2.1l0.6,0.2c1.8,0.7,3.7,1.5,5.5,2.2L809.9,49.6z"/>
<path class="st1" d="M943.6,49l-0.4-2.2c2.2-0.4,4.3-0.7,6.5-1L950,48C947.9,48.3,945.8,48.6,943.6,49z"/>
<path class="st1" d="M956.4,47.1l-0.2-2.2c2.2-0.2,4.3-0.5,6.5-0.7l0.2,2.2C960.8,46.7,958.6,46.9,956.4,47.1z"/>
<path class="st1" d="M969.3,46l-0.1-2.2c2.2-0.1,4.4-0.2,6.5-0.3l0.1,2.2C973.7,45.8,971.5,45.9,969.3,46z"/>
<path class="st4" d="M988.7,45.8c-2.1-0.1-4.3-0.1-6.5-0.1l0-2.2c2.2,0,4.4,0.1,6.5,0.1L988.7,45.8z"/>
<path class="st5" d="M797.8,44.8c-2-0.8-4-1.6-6.1-2.4l0.8-2.1c2.1,0.8,4.1,1.6,6.1,2.4L797.8,44.8z"/>
<path class="st1" d="M542.4,44c-0.7,0-1.5,0-2.3,0c-1,0-2,0-3,0l0-2.2c1,0,2,0,2.9,0c0.8,0,1.5,0,2.3,0l1.3,0l0,2.2L542.4,44z"/>
<path class="st1" d="M550.2,43.9l0-2.2c2.2,0,4.4-0.1,6.5-0.2l0.1,2.2C554.6,43.8,552.4,43.9,550.2,43.9z"/>
<path class="st1" d="M530.7,43.8c-2.2-0.1-4.4-0.1-6.5-0.2l0.1-2.2c2.1,0.1,4.3,0.2,6.5,0.2L530.7,43.8z"/>
<path class="st1" d="M563.2,43.5l-0.1-2.2c2.2-0.1,4.4-0.3,6.5-0.4l0.2,2.2C567.6,43.2,565.4,43.3,563.2,43.5z"/>
<path class="st1" d="M517.6,43.3c-2.2-0.1-4.4-0.3-6.5-0.4l0.2-2.2c2.1,0.2,4.3,0.3,6.5,0.4L517.6,43.3z"/>
<path class="st1" d="M576.2,42.5l-0.2-2.2c2.2-0.2,4.3-0.5,6.4-0.7l0.3,2.2C580.6,42,578.4,42.3,576.2,42.5z"/>
<path class="st1" d="M504.7,42.3c-2.2-0.2-4.4-0.4-6.5-0.7l0.2-2.2c2.1,0.2,4.2,0.5,6.4,0.7L504.7,42.3z"/>
<path class="st1" d="M589.1,40.8l-0.3-2.2c2.1-0.3,4.3-0.7,6.4-1.1l0.4,2.2C593.4,40.1,591.3,40.5,589.1,40.8z"/>
<path class="st1" d="M491.7,40.8c-2.2-0.3-4.3-0.6-6.4-1l0.3-2.2c2.1,0.3,4.2,0.7,6.4,1L491.7,40.8z"/>
<path class="st6" d="M785.6,40.1c-2-0.7-4-1.5-6.1-2.2l0.7-2.1c2.1,0.7,4.1,1.5,6.2,2.2L785.6,40.1z"/>
<path class="st1" d="M478.9,38.7c-2.2-0.4-4.3-0.8-6.4-1.2l0.4-2.2c2.1,0.4,4.2,0.8,6.4,1.2L478.9,38.7z"/>
<path class="st1" d="M601.9,38.4l-0.5-2.2c2.1-0.5,4.2-1,6.3-1.5l0.5,2.2C606.2,37.4,604,37.9,601.9,38.4z"/>
<path class="st1" d="M466.1,36.1c-2.1-0.5-4.3-1-6.3-1.5l0.5-2.2c2.1,0.5,4.2,1,6.3,1.4L466.1,36.1z"/>
<path class="st1" d="M773.4,35.8c-2-0.7-4.1-1.3-6.2-1.9l0.6-2.1c2.1,0.6,4.2,1.3,6.2,1.9L773.4,35.8z"/>
<path class="st1" d="M614.6,35.2L614,33c2.1-0.6,4.2-1.2,6.2-1.8l0.6,2.1C618.8,34,616.7,34.6,614.6,35.2z"/>
<path class="st2" d="M453.4,33.1c-2.1-0.5-4.2-1.1-6.3-1.6l0.5-2.2c2.1,0.5,4.2,1.1,6.3,1.6L453.4,33.1z"/>
<path class="st1" d="M760.9,32.1c-2.1-0.6-4.2-1.1-6.3-1.6l0.5-2.2c2.1,0.5,4.2,1.1,6.3,1.7L760.9,32.1z"/>
<path class="st1" d="M627.1,31.4l-0.6-2.1c2.1-0.7,4.1-1.3,6.2-1.9l0.6,2.1C631.2,30.1,629.1,30.8,627.1,31.4z"/>
<polygon class="st5" points="440.8,29.9 434.5,28.3 435.1,26.1 441.4,27.7 "/>
<path class="st1" d="M748.4,29c-2.1-0.5-4.2-0.9-6.3-1.3l0.4-2.2c2.1,0.4,4.3,0.9,6.4,1.3L748.4,29z"/>
<path class="st4" d="M639.5,27.7l-0.6-2.2c2.2-0.6,4.3-1.2,6.3-1.6l0.5,2.2C643.7,26.5,641.7,27.1,639.5,27.7z"/>
<path class="st3" d="M428.2,26.6c-2.1-0.5-4.2-1-6.3-1.6l0.5-2.2c2.1,0.5,4.2,1,6.3,1.6L428.2,26.6z"/>
<path class="st1" d="M735.6,26.5c-2.1-0.4-4.2-0.7-6.4-1l0.3-2.2c2.2,0.3,4.3,0.7,6.4,1.1L735.6,26.5z"/>
<path class="st7" d="M216.1,26.3l0-2.2c2.2,0,4.4,0,6.5-0.1l0.1,2.2C220.5,26.2,218.3,26.3,216.1,26.3z"/>
<path class="st1" d="M209.6,26.2c-2.1,0-4.3-0.1-6.5-0.2l0.1-2.2c2.2,0.1,4.4,0.1,6.5,0.2L209.6,26.2z"/>
<path class="st7" d="M229.1,25.9l-0.1-2.2c2.2-0.1,4.3-0.3,6.4-0.4l0.2,2.2C233.5,25.7,231.3,25.8,229.1,25.9z"/>
<path class="st1" d="M196.5,25.8c-2.2-0.1-4.4-0.2-6.5-0.4l0.1-2.2c2.1,0.1,4.3,0.2,6.5,0.4L196.5,25.8z"/>
<path class="st1" d="M183.6,25c-2.2-0.2-4.4-0.3-6.5-0.5l0.2-2.2c2.1,0.2,4.3,0.4,6.5,0.5L183.6,25z"/>
<path class="st7" d="M242.1,24.9l-0.2-2.2c2.1-0.2,4.2-0.5,6.4-0.9l0.3,2.2C246.4,24.3,244.2,24.6,242.1,24.9z"/>
<path class="st1" d="M652,24.7l-0.4-2.2c2.1-0.4,4.3-0.8,6.4-1.1l0.3,2.2C656.3,23.9,654.1,24.3,652,24.7z"/>
<path class="st1" d="M722.8,24.5c-2.1-0.3-4.2-0.5-6.4-0.8l0.2-2.2c2.2,0.2,4.4,0.5,6.5,0.8L722.8,24.5z"/>
<path class="st1" d="M170.6,23.8c-2.2-0.2-4.3-0.5-6.5-0.7l0.2-2.2c2.1,0.2,4.3,0.5,6.4,0.7L170.6,23.8z"/>
<path class="st6" d="M415.6,23.6c-2.1-0.5-4.2-0.9-6.3-1.4l0.4-2.2c2.2,0.5,4.3,0.9,6.4,1.4L415.6,23.6z"/>
<path class="st1" d="M710,23.1c-1.8-0.2-3.7-0.3-5.6-0.5l-0.9-0.1l0.1-2.2l0.9,0.1c1.9,0.1,3.8,0.3,5.6,0.5L710,23.1z"/>
<path class="st7" d="M255,22.9l-0.4-2.2c2.1-0.4,4.3-0.8,6.4-1.2l0.4,2.2C259.3,22.1,257.2,22.5,255,22.9z"/>
<path class="st1" d="M664.8,22.8l-0.2-2.2c2.1-0.2,4.3-0.4,6.5-0.5l0.1,2.2C669,22.4,666.9,22.6,664.8,22.8z"/>
<path class="st1" d="M157.6,22.4c-2.2-0.3-4.3-0.6-6.5-0.8l0.3-2.2c2.1,0.3,4.3,0.6,6.4,0.8L157.6,22.4z"/>
<path class="st1" d="M697,22.2c-2.2-0.1-4.4-0.2-6.5-0.3l0.1-2.2c2.1,0.1,4.3,0.1,6.5,0.3L697,22.2z"/>
<path class="st1" d="M677.6,21.9l-0.1-2.2c2-0.1,4.1-0.1,6.3-0.1h0.3v2.2h-0.3C681.7,21.9,679.6,21.9,677.6,21.9z"/>
<path class="st1" d="M402.9,21c-2.1-0.4-4.2-0.8-6.4-1.1l0.4-2.2c2.2,0.4,4.3,0.8,6.4,1.2L402.9,21z"/>
<path class="st1" d="M144.8,20.6c-2.2-0.3-4.3-0.6-6.4-0.9l0.3-2.2c2.1,0.3,4.3,0.6,6.4,0.9L144.8,20.6z"/>
<path class="st1" d="M267.8,20.4l-0.4-2.2c2.1-0.4,4.2-0.8,6.4-1.2l0.4,2.2C271.9,19.6,269.8,20,267.8,20.4z"/>
<path class="st1" d="M390.2,18.8c-2.1-0.3-4.2-0.6-6.4-0.9l0.3-2.2c2.2,0.3,4.3,0.6,6.5,0.9L390.2,18.8z"/>
<polygon class="st1" points="131.9,18.7 125.5,17.7 125.8,15.5 132.2,16.5 "/>
<path class="st1" d="M280.5,18.1l-0.3-2.2c2.2-0.3,4.3-0.6,6.5-0.9l0.3,2.2C284.8,17.5,282.7,17.8,280.5,18.1z"/>
<path class="st1" d="M377.3,17.1c-2.1-0.2-4.2-0.4-6.4-0.7l0.2-2.2c2.2,0.2,4.4,0.4,6.5,0.7L377.3,17.1z"/>
<path class="st1" d="M119.1,16.7c-2.1-0.3-4.3-0.6-6.4-1l0.3-2.2c2.2,0.3,4.3,0.6,6.4,1L119.1,16.7z"/>
<path class="st1" d="M293.3,16.5l-0.2-2.2c2.1-0.2,4.3-0.4,6.5-0.6l0.2,2.2C297.6,16,295.4,16.2,293.3,16.5z"/>
<path class="st1" d="M364.5,15.9c-2.1-0.2-4.3-0.3-6.5-0.4l0.1-2.2c2.2,0.1,4.4,0.3,6.5,0.4L364.5,15.9z"/>
<path class="st1" d="M306.2,15.4l-0.1-2.2c2.1-0.1,4.2-0.2,6.5-0.3l0.1,2.2C310.4,15.2,308.3,15.3,306.2,15.4z"/>
<path class="st4" d="M351.5,15.2c-2.1-0.1-4.3-0.2-6.5-0.2l0.1-2.2c2.2,0.1,4.4,0.1,6.5,0.2L351.5,15.2z"/>
<path class="st1" d="M319.1,14.9l-0.1-2.2c2.1-0.1,4.3-0.1,6.5-0.1l0,2.2C323.4,14.8,321.2,14.9,319.1,14.9z"/>
<path class="st1" d="M106.2,14.8c-2.1-0.3-4.3-0.6-6.4-0.9l0.3-2.2c2.2,0.3,4.3,0.6,6.4,0.9L106.2,14.8z"/>
<path class="st1" d="M338.6,14.8c-2.1,0-4.3,0-6.5-0.1l0-2.2c2.2,0,4.4,0,6.5,0.1L338.6,14.8z"/>
<path class="st4" d="M93.3,13.2c-2.1-0.3-4.3-0.5-6.4-0.7l0.2-2.2c2.2,0.2,4.3,0.5,6.5,0.7L93.3,13.2z"/>
<path class="st1" d="M80.4,11.8c-2.1-0.2-4.3-0.4-6.5-0.5L74.1,9c2.2,0.2,4.4,0.3,6.5,0.5L80.4,11.8z"/>
<path class="st1" d="M9.2,10.8L9.1,8.6c2.1-0.1,4.3-0.2,6.5-0.3l0.1,2.2C13.5,10.6,11.3,10.7,9.2,10.8z"/>
<path class="st1" d="M67.5,10.8c-2.1-0.1-4.3-0.2-6.5-0.4l0.1-2.2c2.2,0.1,4.4,0.2,6.5,0.4L67.5,10.8z"/>
<path class="st1" d="M22.2,10.3L22.1,8c2.1-0.1,4.3-0.1,6.5-0.2l0,2.2C26.5,10.1,24.3,10.2,22.2,10.3z"/>
<path class="st1" d="M54.6,10.2c-2.1-0.1-4.3-0.1-6.5-0.2l0-2.2c2.2,0,4.4,0.1,6.5,0.2L54.6,10.2z"/>
<path class="st1" d="M35.1,10l0-2.2c2.2,0,4.4,0,6.5,0l0,2.2C39.5,10,37.3,10,35.1,10z"/>
<path class="st2" d="M965.2,26.3l-0.1-2.2c2.2,0,4.3,0,6.5-0.1l0.1,2.2C969.5,26.2,967.3,26.3,965.2,26.3z"/>
<path class="st5" d="M958.6,26.2c-2.2-0.1-4.4-0.2-6.5-0.4l0.2-2.2c2.1,0.2,4.3,0.3,6.4,0.4L958.6,26.2z"/>
<path class="st1" d="M978.2,25.8l-0.2-2.2c2.1-0.2,4.3-0.4,6.4-0.6l0.2,2.2C982.5,25.4,980.3,25.6,978.2,25.8z"/>
<path class="st3" d="M945.5,25.2c-2.1-0.2-4.2-0.5-6.5-0.8l0.3-2.2c2.2,0.3,4.3,0.6,6.4,0.8L945.5,25.2z"/>
<path class="st1" d="M991.2,24.4l-0.3-2.2c2.1-0.3,4.3-0.7,6.4-1l0.4,2.2C995.5,23.7,993.3,24.1,991.2,24.4z"/>
<path class="st6" d="M932.6,23.3c-2.1-0.4-4.3-0.8-6.4-1.2l0.4-2.2c2.1,0.4,4.2,0.8,6.4,1.2L932.6,23.3z"/>
<polygon class="st1" points="919.8,20.9 913.5,19.6 913.9,17.4 920.2,18.7 "/>
<path class="st4" d="M797.8,19l-0.4-2.2c2.1-0.4,4.3-0.9,6.4-1.3l0.4,2.2C801.9,18.2,799.8,18.6,797.8,19z"/>
<path class="st1" d="M907.1,18.3c-2.1-0.4-4.2-0.8-6.4-1.2l0.4-2.2c2.2,0.4,4.3,0.8,6.4,1.2L907.1,18.3z"/>
<path class="st1" d="M810.6,16.6l-0.3-2.2c2.1-0.3,4.2-0.7,6.5-1l0.3,2.2C814.7,16,812.6,16.3,810.6,16.6z"/>
<path class="st1" d="M894.3,16c-2.2-0.3-4.3-0.7-6.4-0.9l0.3-2.2c2.1,0.3,4.3,0.6,6.5,0.9L894.3,16z"/>
<path class="st1" d="M823.4,14.8l-0.2-2.2c2.1-0.2,4.3-0.5,6.5-0.7l0.2,2.2C827.6,14.4,825.5,14.6,823.4,14.8z"/>
<path class="st7" d="M881.5,14.3c-2.1-0.2-4.3-0.4-6.4-0.6l0.2-2.2c2.1,0.2,4.3,0.4,6.5,0.6L881.5,14.3z"/>
<path class="st7" d="M836.3,13.6l-0.1-2.2c2.2-0.2,4.3-0.3,6.5-0.4l0.1,2.2C840.6,13.4,838.4,13.5,836.3,13.6z"/>
<path class="st7" d="M868.6,13.3c-2.1-0.1-4.3-0.2-6.5-0.3l0.1-2.2c2.2,0.1,4.4,0.1,6.5,0.3L868.6,13.3z"/>
<path class="st7" d="M849.2,13l0-2.2l1.2,0c1.7,0,3.4,0,5,0l0.3,0V13l-0.3,0c-1.6,0-3.3,0-5,0L849.2,13z"/>
<path class="st1" d="M824.6,85.8l-1.6,0l0-2.2l1.6,0c1.6,0,3.3,0,4.8,0l0,2.2C827.9,85.8,826.2,85.8,824.6,85.8z"/>
<path class="st4" d="M816.4,85.7c-2.1,0-4.3-0.1-6.5-0.2l0.1-2.2c2.2,0.1,4.4,0.1,6.5,0.2L816.4,85.7z"/>
<path class="st1" d="M836,85.7l-0.1-2.2c2.2-0.1,4.4-0.2,6.5-0.3l0.1,2.2C840.4,85.5,838.2,85.6,836,85.7z"/>
<path class="st3" d="M559.1,85.4h-0.5c-2,0-4,0-6-0.1l0.1-2.2c2,0.1,4,0.1,6,0.1h0.5V85.4z"/>
<path class="st1" d="M803.4,85.3c-1.2-0.1-2.3-0.1-3.5-0.2c-1-0.1-2-0.1-3-0.2l0.1-2.2c1,0.1,2,0.1,3,0.2c1.2,0.1,2.3,0.1,3.5,0.2
	L803.4,85.3z"/>
<path class="st2" d="M565.6,85.3l-0.1-2.2c1.7,0,3.4-0.1,5.1-0.2l1.4-0.1l0.1,2.2l-1.4,0.1C569,85.1,567.3,85.2,565.6,85.3z"/>
<path class="st5" d="M546.1,85c-2.2-0.1-4.4-0.3-6.5-0.5l0.2-2.2c2.1,0.2,4.3,0.4,6.4,0.5L546.1,85z"/>
<path class="st1" d="M849,85l-0.1-2.2c2.2-0.2,4.3-0.3,6.5-0.5l0.2,2.2C853.3,84.7,851.2,84.8,849,85z"/>
<path class="st1" d="M578.6,84.6l-0.2-2.2c2.1-0.2,4.3-0.3,6.4-0.6l0.2,2.2C583,84.3,580.8,84.4,578.6,84.6z"/>
<path class="st1" d="M790.4,84.4c-2.3-0.2-4.4-0.4-6.5-0.6l0.2-2.2c2.1,0.2,4.2,0.4,6.4,0.6L790.4,84.4z"/>
<path class="st1" d="M862,83.9l-0.2-2.2c2.2-0.2,4.3-0.5,6.4-0.7l0.3,2.2C866.3,83.4,864.1,83.6,862,83.9z"/>
<path class="st6" d="M533.1,83.8c-2.2-0.3-4.3-0.6-6.5-1l0.4-2.2c2.1,0.4,4.2,0.7,6.4,1L533.1,83.8z"/>
<path class="st1" d="M591.6,83.3l-0.3-2.2c2.1-0.3,4.3-0.6,6.4-0.9l0.3,2.2C595.9,82.7,593.7,83,591.6,83.3z"/>
<path class="st1" d="M777.5,83.1c-2.2-0.3-4.3-0.6-6.5-0.9l0.3-2.2c2.1,0.3,4.3,0.6,6.4,0.9L777.5,83.1z"/>
<path class="st1" d="M874.9,82.3l-0.3-2.2c2.2-0.3,4.3-0.6,6.4-0.9l0.3,2.2C879.2,81.7,877.1,82,874.9,82.3z"/>
<path class="st1" d="M520.2,81.6c-2.1-0.5-4.2-1-6.4-1.5l0.5-2.2c2.1,0.5,4.2,1.1,6.3,1.5L520.2,81.6z"/>
<path class="st1" d="M604.5,81.3l-0.4-2.2c2.2-0.4,4.3-0.8,6.4-1.2l0.4,2.2C608.8,80.6,606.7,81,604.5,81.3z"/>
<path class="st1" d="M764.6,81.2c-2.1-0.4-4.2-0.8-6.4-1.2l0.4-2.2c2.2,0.4,4.3,0.8,6.4,1.2L764.6,81.2z"/>
<polygon class="st1" points="887.7,80.4 887.4,78.2 893.9,77.3 894.2,79.5 "/>
<polygon class="st1" points="617.2,78.8 616.8,76.6 623.2,75.3 623.6,77.5 "/>
<path class="st1" d="M751.8,78.7c-2.1-0.4-4-0.9-6-1.3l-0.3-0.1l0.5-2.2l0.3,0.1c2,0.4,4,0.9,6,1.3L751.8,78.7z"/>
<path class="st1" d="M900.6,78.5l-0.3-2.2c2.1-0.3,4.3-0.6,6.4-0.9l0.3,2.2C904.9,77.9,902.7,78.2,900.6,78.5z"/>
<path class="st1" d="M507.5,78.3c-2-0.6-4.1-1.3-6.2-2l0.7-2.1c2.1,0.7,4.1,1.4,6.1,2L507.5,78.3z"/>
<path class="st1" d="M997.3,77.9c-2.1-0.3-4.3-0.6-6.4-0.9l0.3-2.2c2.2,0.3,4.3,0.6,6.5,0.9L997.3,77.9z"/>
<path class="st1" d="M913.4,76.7l-0.3-2.2c2.1-0.3,4.3-0.5,6.5-0.8l0.2,2.2C917.7,76.2,915.6,76.5,913.4,76.7z"/>
<path class="st1" d="M984.5,76.2c-2.1-0.2-4.3-0.4-6.4-0.6l0.2-2.2c2.2,0.2,4.3,0.4,6.5,0.7L984.5,76.2z"/>
<path class="st1" d="M630,76.2l-0.4-2.2c2.1-0.4,4.2-0.8,6.4-1.2l0.4,2.2C634.2,75.4,632,75.8,630,76.2z"/>
<path class="st1" d="M739.1,75.9c-2.1-0.4-4.2-0.9-6.3-1.3l0.4-2.2c2.2,0.4,4.3,0.9,6.4,1.3L739.1,75.9z"/>
<path class="st4" d="M926.3,75.3l-0.2-2.2c2.1-0.2,4.3-0.4,6.5-0.5l0.1,2.2C930.6,75,928.4,75.2,926.3,75.3z"/>
<path class="st1" d="M235.2,75.2l0-2.2c2.2,0,4.4,0,6.5-0.1l0.1,2.2C239.6,75.2,237.4,75.2,235.2,75.2z"/>
<path class="st6" d="M228.7,75.2c-2.1,0-4.3-0.1-6.5-0.1l0.1-2.2c2.2,0.1,4.4,0.1,6.5,0.1L228.7,75.2z"/>
<path class="st1" d="M971.5,75.1c-2.2-0.2-4.4-0.3-6.5-0.4l0.1-2.2c2.1,0.1,4.3,0.2,6.5,0.4L971.5,75.1z"/>
<path class="st1" d="M248.2,74.9l-0.1-2.2c2.2-0.1,4.4-0.2,6.5-0.4l0.1,2.2C252.6,74.6,250.4,74.8,248.2,74.9z"/>
<path class="st2" d="M215.6,74.8l-0.4,0c-2.1-0.1-4.2-0.2-6.1-0.3l0.1-2.2c2,0.1,4,0.2,6.1,0.3l0.4,0L215.6,74.8z"/>
<path class="st1" d="M939.2,74.5l-0.1-2.2c2.2-0.1,4.4-0.2,6.5-0.2l0,2.2C943.5,74.4,941.4,74.4,939.2,74.5z"/>
<path class="st1" d="M958.6,74.4c-2.2-0.1-4.4-0.1-6.5-0.1l0-2.2c2.1,0,4.3,0.1,6.5,0.1L958.6,74.4z"/>
<path class="st3" d="M202.7,74c-2.3-0.2-4.4-0.4-6.5-0.6l0.2-2.2c2.1,0.2,4.2,0.4,6.4,0.6L202.7,74z"/>
<path class="st1" d="M495.2,74c-2-0.8-4.1-1.6-6.1-2.4l0.8-2.1c2,0.8,4,1.6,6.1,2.3L495.2,74z"/>
<path class="st1" d="M642.7,74l-0.3-2.2c2.2-0.3,4.3-0.6,6.5-0.9l0.3,2.2C647,73.3,644.9,73.6,642.7,74z"/>
<path class="st1" d="M261.2,74l-0.2-2.2c2.2-0.2,4.3-0.4,6.4-0.7l0.3,2.2C265.6,73.5,263.4,73.7,261.2,74z"/>
<path class="st1" d="M726.4,73.5c-2.1-0.3-4.2-0.6-6.4-0.9l0.3-2.2c2.2,0.3,4.3,0.6,6.5,0.9L726.4,73.5z"/>
<path class="st5" d="M189.7,72.7c-2.2-0.3-4.3-0.6-6.5-0.9l0.3-2.2c2.1,0.3,4.3,0.6,6.4,0.9L189.7,72.7z"/>
<path class="st1" d="M274.1,72.4l-0.3-2.2c2.1-0.3,4.3-0.7,6.4-1l0.4,2.2C278.4,71.7,276.3,72.1,274.1,72.4z"/>
<path class="st1" d="M655.5,72.3l-0.2-2.2c2.1-0.2,4.3-0.4,6.5-0.6l0.2,2.2C659.8,71.9,657.7,72.1,655.5,72.3z"/>
<path class="st1" d="M713.6,71.9c-2.1-0.2-4.3-0.4-6.4-0.5l0.1-2.2c2.2,0.1,4.4,0.3,6.5,0.5L713.6,71.9z"/>
<path class="st1" d="M668.4,71.3l-0.1-2.2c2.1-0.1,4.3-0.2,6.5-0.3l0.1,2.2C672.6,71.1,670.5,71.2,668.4,71.3z"/>
<path class="st1" d="M700.7,71.1c-2.1-0.1-4.2-0.1-6.5-0.2l0-2.2c2.3,0,4.4,0.1,6.5,0.2L700.7,71.1z"/>
<path class="st1" d="M681.3,70.9l0-2.2c1.9,0,4,0,6,0h0.5v2.2h-0.5C685.3,70.8,683.3,70.9,681.3,70.9z"/>
<path class="st1" d="M176.8,70.7c-2.2-0.4-4.3-0.8-6.4-1.2l0.4-2.2c2.1,0.4,4.2,0.8,6.4,1.2L176.8,70.7z"/>
<path class="st4" d="M287,70.1l-0.4-2.2c2.1-0.4,4.2-0.9,6.3-1.4l0.5,2.2C291.2,69.2,289.1,69.7,287,70.1z"/>
<path class="st1" d="M483,69.2c-2-0.8-4-1.6-6-2.4l0.8-2.1c2,0.8,4.1,1.6,6.1,2.4L483,69.2z"/>
<path class="st1" d="M164,68.2c-1.8-0.4-3.6-0.8-5.3-1.1l-1-0.2l0.4-2.2l1,0.2c1.8,0.4,3.6,0.8,5.3,1.1L164,68.2z"/>
<path class="st1" d="M299.7,67.2l-0.5-2.2c2.1-0.5,4.2-1.1,6.3-1.6l0.5,2.2C303.9,66.1,301.8,66.7,299.7,67.2z"/>
<path class="st1" d="M151.3,65.5c-2.1-0.4-4.2-0.9-6.4-1.3l0.4-2.2c2.2,0.4,4.3,0.9,6.4,1.3L151.3,65.5z"/>
<path class="st1" d="M470.9,64.5c-2.1-0.8-4.1-1.5-6.1-2.2l0.7-2.1c2,0.7,4,1.4,6.2,2.2L470.9,64.5z"/>
<path class="st1" d="M312.3,63.8l-0.6-2.2c2-0.5,3.9-1.1,5.8-1.7l0.4-0.1l0.6,2.2l-0.4,0.1C316.2,62.7,314.2,63.3,312.3,63.8z"/>
<path class="st1" d="M3.1,63.2L2.8,61c2.1-0.3,4.3-0.6,6.4-0.9l0.3,2.2C7.3,62.6,5.2,62.9,3.1,63.2z"/>
<path class="st1" d="M138.6,63.1c-2-0.4-4.2-0.7-6.4-1l0.3-2.2c2.2,0.3,4.4,0.7,6.4,1L138.6,63.1z"/>
<path class="st1" d="M15.9,61.5l-0.3-2.2c2.1-0.3,4.3-0.5,6.5-0.7l0.2,2.2C20.2,61,18.1,61.2,15.9,61.5z"/>
<path class="st1" d="M125.8,61.2c-2.1-0.3-4.2-0.5-6.4-0.8l0.2-2.2c2.2,0.2,4.4,0.5,6.5,0.8L125.8,61.2z"/>
<path class="st1" d="M458.7,60.3c-2.1-0.6-4.2-1.3-6.2-1.8l0.6-2.2c2.1,0.6,4.2,1.2,6.3,1.8L458.7,60.3z"/>
<path class="st1" d="M324.8,60.3l-0.6-2.2c2.1-0.6,4.2-1.2,6.3-1.7l0.5,2.2C328.9,59.1,326.9,59.7,324.8,60.3z"/>
<path class="st1" d="M28.8,60.1l-0.2-2.2c2.1-0.2,4.3-0.4,6.5-0.6l0.2,2.2C33.1,59.7,31,59.9,28.8,60.1z"/>
<path class="st1" d="M113,59.8c-2.1-0.2-4.2-0.4-6.5-0.5l0.2-2.2c2.2,0.2,4.4,0.3,6.5,0.5L113,59.8z"/>
<path class="st1" d="M41.8,59.1l-0.1-2.2c2.1-0.1,4.3-0.3,6.5-0.4l0.1,2.2C46.1,58.8,43.9,58.9,41.8,59.1z"/>
<path class="st1" d="M100.1,58.8c-2.2-0.1-4.3-0.2-6.5-0.3l0.1-2.2c2.2,0.1,4.3,0.2,6.5,0.3L100.1,58.8z"/>
<path class="st4" d="M54.7,58.4l-0.1-2.2c2.2-0.1,4.3-0.2,6.5-0.2l0.1,2.2C59,58.2,56.8,58.3,54.7,58.4z"/>
<path class="st1" d="M87.1,58.2c-2.2-0.1-4.3-0.1-6.5-0.2l0-2.2c2.2,0,4.3,0.1,6.5,0.2L87.1,58.2z"/>
<path class="st1" d="M67.7,58l0-2.2c1.7,0,3.4,0,5.2,0l1.3,0l0,2.2l-1.3,0C71.1,58,69.4,58,67.7,58z"/>
<path class="st1" d="M337.3,57l-0.5-2.2c2.2-0.5,4.3-1,6.4-1.5l0.4,2.2C341.6,56,339.5,56.5,337.3,57z"/>
<path class="st1" d="M446.2,56.9c-2.1-0.5-4.2-1-6.3-1.4l0.4-2.2c2.1,0.4,4.3,0.9,6.4,1.4L446.2,56.9z"/>
<path class="st1" d="M433.6,54.3c-2.1-0.4-4.2-0.7-6.4-1l0.3-2.2c2.2,0.3,4.3,0.7,6.4,1L433.6,54.3z"/>
<path class="st1" d="M350,54.2l-0.4-2.2c2.1-0.4,4.3-0.8,6.4-1.1l0.3,2.2C354.2,53.5,352.1,53.8,350,54.2z"/>
<path class="st1" d="M420.8,52.5c-2.1-0.2-4.3-0.5-6.4-0.7l0.2-2.2c2.2,0.2,4.4,0.4,6.5,0.7L420.8,52.5z"/>
<path class="st1" d="M362.7,52.3l-0.3-2.2c2.1-0.3,4.3-0.5,6.5-0.7l0.2,2.2C367,51.8,364.8,52,362.7,52.3z"/>
<path class="st1" d="M407.9,51.3c-1.3-0.1-2.5-0.2-3.8-0.2c-0.9,0-1.7-0.1-2.6-0.1l0.1-2.2c0.9,0,1.7,0.1,2.6,0.1
	c1.3,0.1,2.6,0.1,3.9,0.2L407.9,51.3z"/>
<path class="st1" d="M375.6,51.1l-0.1-2.2c2.1-0.1,4.3-0.2,6.5-0.3l0.1,2.2C379.9,50.9,377.7,51,375.6,51.1z"/>
<path class="st1" d="M395,50.8c-1.9,0-3.7-0.1-5.6-0.1l-0.9,0l0-2.2l0.9,0c1.8,0,3.7,0,5.6,0.1L395,50.8z"/>
<path class="st1" d="M518.5,24.7c-2.2,0-4.4-0.1-6.5-0.3l0.2-2.2c2.1,0.2,4.3,0.3,6.4,0.3L518.5,24.7z"/>
<path class="st1" d="M525,24.6l-0.1-2.2c0.9,0,1.7-0.1,2.6-0.1c1.3-0.1,2.6-0.2,3.8-0.3l0.2,2.2c-1.3,0.1-2.6,0.2-3.9,0.3
	C526.8,24.5,525.9,24.6,525,24.6z"/>
<path class="st1" d="M505.4,23.7c-2.1-0.3-4.3-0.6-6.5-1l0.4-2.2c2.1,0.4,4.3,0.7,6.4,1L505.4,23.7z"/>
<path class="st1" d="M538.1,23.4l-0.3-2.2c2.1-0.3,4.1-0.7,6.3-1.2l0.4,2.2C542.3,22.7,540.2,23,538.1,23.4z"/>
<path class="st1" d="M492.5,21.4c-2.1-0.5-4.2-1-6.4-1.6l0.6-2.2c2.1,0.6,4.2,1.1,6.3,1.6L492.5,21.4z"/>
<path class="st1" d="M550.9,20.7l-0.5-2.2c2.1-0.5,4.1-1.1,6.3-1.6l0.5,2.2C555,19.7,553,20.2,550.9,20.7z"/>
<path class="st1" d="M479.9,17.9c-2.1-0.7-4.1-1.4-6.2-2.2l0.7-2.1c2,0.8,4.1,1.5,6.1,2.2L479.9,17.9z"/>
<path class="st3" d="M563.5,17.4l-0.5-2.2c2-0.5,4.1-1.1,6.3-1.6l0.5,2.2C567.6,16.4,565.5,16.9,563.5,17.4z"/>
<path class="st5" d="M576.1,14.3l-0.5-2.2c2.2-0.5,4.3-0.9,6.4-1.4l0.4,2.2C580.3,13.4,578.2,13.8,576.1,14.3z"/>
<path class="st1" d="M467.6,13.2c-2-0.8-4-1.7-6-2.7l0.9-2c2,0.9,4,1.8,5.9,2.6L467.6,13.2z"/>
<path class="st2" d="M588.8,11.7l-0.4-2.2c2.1-0.4,4.2-0.7,6.4-1.1l0.3,2.2C592.9,11,590.8,11.4,588.8,11.7z"/>
<path class="st6" d="M601.6,9.7l-0.3-2.2c2.2-0.3,4.4-0.6,6.5-0.8l0.2,2.2C605.9,9.2,603.7,9.5,601.6,9.7z"/>
<path class="st1" d="M614.4,8.3l-0.2-2.2c2.2-0.2,4.4-0.4,6.5-0.5l0.2,2.2C618.8,7.9,616.6,8.1,614.4,8.3z"/>
<path class="st1" d="M455.7,7.7c-1.9-1-3.9-2-5.8-3.1l1-2c1.9,1.1,3.8,2.1,5.7,3.1L455.7,7.7z"/>
<path class="st1" d="M627.3,7.3l-0.1-2.2c2.2-0.1,4.4-0.2,6.5-0.3l0.1,2.2C631.7,7.1,629.6,7.2,627.3,7.3z"/>
<path class="st1" d="M640.3,6.9l0-2.2c2.3,0,4.5,0,6.5,0l0,2.2C644.7,6.9,642.6,6.9,640.3,6.9z"/>
<path class="st6" d="M46.6,96.7c-0.9,0-1.9,0-2.9,0l0-2.2c2.2,0,4.4,0,6.5,0l0,2.2C49.1,96.7,47.8,96.7,46.6,96.7z"/>
<path class="st1" d="M37.2,96.5c-2.2-0.1-4.4-0.2-6.5-0.4l0.2-2.2c2.1,0.2,4.3,0.3,6.4,0.4L37.2,96.5z"/>
<path class="st3" d="M56.8,96.4l-0.1-2.2c1.7-0.1,3.3-0.2,4.9-0.3c0.5,0,1.1-0.1,1.6-0.1l0.2,2.2c-0.5,0-1.1,0.1-1.6,0.1
	C60.1,96.2,58.5,96.4,56.8,96.4z"/>
<path class="st4" d="M24.2,95.5c-2.1-0.2-4.3-0.5-6.5-0.8l0.3-2.2c2.1,0.3,4.3,0.6,6.4,0.8L24.2,95.5z"/>
<path class="st5" d="M69.8,95.3l-0.3-2.2c2.1-0.3,4.2-0.6,6.4-0.9l0.3,2.2C74,94.8,71.9,95,69.8,95.3z"/>
<path class="st1" d="M11.3,93.6c-2.1-0.4-4.3-0.8-6.4-1.2l0.4-2.2c2.1,0.4,4.3,0.8,6.4,1.2L11.3,93.6z"/>
<path class="st2" d="M82.7,93.3l-0.4-2.2c2.2-0.4,4.3-0.8,6.4-1.3L89,92C86.9,92.5,84.8,92.9,82.7,93.3z"/>
<path class="st1" d="M95.4,90.7L95,88.5c2.1-0.4,4.2-0.9,6.4-1.3l0.4,2.2C99.6,89.9,97.5,90.3,95.4,90.7z"/>
<path class="st1" d="M191.6,90c-2.1-0.4-4.2-0.8-6.4-1.2l0.4-2.2c2.1,0.4,4.3,0.8,6.4,1.2L191.6,90z"/>
<path class="st1" d="M108.1,88.3l-0.3-2.2c2.2-0.4,4.3-0.7,6.4-1l0.3,2.2C112.4,87.6,110.3,87.9,108.1,88.3z"/>
<path class="st1" d="M178.9,87.8c-2.1-0.3-4.3-0.6-6.4-0.8l0.2-2.2c2.2,0.3,4.3,0.5,6.5,0.9L178.9,87.8z"/>
<path class="st1" d="M120.9,86.5l-0.2-2.2c2.1-0.2,4.3-0.4,6.5-0.6l0.2,2.2C125.1,86.1,123,86.3,120.9,86.5z"/>
<path class="st1" d="M166,86.3c-2.2-0.2-4.3-0.4-6.4-0.5l0.1-2.2c2.1,0.1,4.3,0.3,6.5,0.5L166,86.3z"/>
<path class="st1" d="M133.8,85.6l-0.1-2.2c2.2-0.1,4.3-0.2,6.5-0.2l0,2.2C138.1,85.4,135.9,85.5,133.8,85.6z"/>
<path class="st1" d="M153.1,85.5c-2.1-0.1-4.3-0.1-6.5-0.1l0-2.2c2.2,0,4.4,0.1,6.5,0.1L153.1,85.5z"/>
<path class="st1" d="M100.6,41.4c-1.8,0-3.6,0-5.4-0.1l0.1-2.2c2.1,0.1,4.3,0.1,6.4,0.1l0,2.2C101.4,41.4,101,41.4,100.6,41.4z"/>
<path class="st4" d="M108.3,41.2l-0.1-2.2c2.1-0.1,4.3-0.3,6.4-0.6l0.2,2.2C112.7,40.9,110.5,41.1,108.3,41.2z"/>
<path class="st1" d="M88.7,40.9l-0.3,0c-2.1-0.2-4.2-0.5-6.2-0.8l0.3-2.2c2,0.3,4,0.6,6.1,0.8l0.3,0L88.7,40.9z"/>
<path class="st1" d="M121.3,39.7l-0.3-2.2c2.1-0.3,4.2-0.8,6.3-1.2l0.4,2.2C125.6,39,123.5,39.4,121.3,39.7z"/>
<path class="st1" d="M75.7,38.9c-2.1-0.4-4.2-1-6.4-1.6l0.6-2.2c2.2,0.6,4.2,1.1,6.3,1.5L75.7,38.9z"/>
<path class="st7" d="M63.1,35.4c-1.4-0.4-2.7-0.9-4.1-1.3l-2.1-0.7l0.6-2.1l2.1,0.7c1.4,0.4,2.7,0.9,4.1,1.3L63.1,35.4z"/>
<path class="st7" d="M50.7,31.6c-2.2-0.6-4.2-1.2-6.2-1.6l0.5-2.2c2,0.5,4.1,1,6.3,1.7L50.7,31.6z"/>
<path class="st7" d="M38.1,28.7c-1.1-0.2-2.2-0.3-3.3-0.5c-1-0.1-2-0.2-3-0.4l0.2-2.2c1.1,0.1,2.1,0.2,3.1,0.4
	c1.2,0.2,2.3,0.3,3.4,0.5L38.1,28.7z"/>
<path class="st1" d="M6.1,28.4l-0.3-2.2c2.2-0.3,4.4-0.5,6.5-0.7l0.2,2.2C10.4,27.9,8.2,28.1,6.1,28.4z"/>
<path class="st7" d="M25.3,27.4c-1.3-0.1-2.7-0.1-4-0.1c-0.8,0-1.6,0-2.4,0l0-2.2c0.9,0,1.7,0,2.5,0c1.3,0,2.7,0,4,0.1L25.3,27.4z"
	/>
<path class="st1" d="M335.7,91.3l-0.8-2.1c2-0.8,4.1-1.6,6.1-2.4l0.7,2.1C339.7,89.7,337.7,90.5,335.7,91.3z"/>
<path class="st1" d="M347.9,86.7l-0.7-2.1c2.1-0.7,4.2-1.4,6.2-2l0.6,2.1C352,85.4,349.9,86.1,347.9,86.7z"/>
<path class="st1" d="M468.8,84.9c-2-0.6-4.1-1.2-6.2-1.8l0.5-2.2c2.1,0.6,4.2,1.2,6.3,1.8L468.8,84.9z"/>
<path class="st7" d="M360.3,83l-0.5-2.2c2.1-0.6,4.2-1.1,6.3-1.6l0.5,2.2C364.5,81.9,362.3,82.4,360.3,83z"/>
<path class="st1" d="M456.3,81.5c-2.1-0.5-4.2-1-6.3-1.4l0.4-2.2c2.1,0.4,4.3,0.9,6.4,1.4L456.3,81.5z"/>
<path class="st7" d="M372.9,80.1l-0.4-2.2c2.1-0.4,4.3-0.8,6.4-1.2l0.3,2.2C377.1,79.2,375,79.6,372.9,80.1z"/>
<path class="st1" d="M443.6,79c-2.1-0.4-4.3-0.7-6.4-1l0.3-2.2c2.1,0.3,4.3,0.6,6.5,1L443.6,79z"/>
<path class="st7" d="M385.6,77.9l-0.3-2.2c2.2-0.3,4.3-0.5,6.5-0.7l0.2,2.2C389.9,77.4,387.8,77.7,385.6,77.9z"/>
<path class="st1" d="M430.8,77.3c-2.1-0.2-4.3-0.4-6.4-0.5l0.1-2.2c2.2,0.1,4.3,0.3,6.5,0.5L430.8,77.3z"/>
<path class="st7" d="M398.5,76.7l-0.1-2.2c2.1-0.1,4.3-0.2,6.5-0.3l0.1,1.1v1.1C402.8,76.4,400.6,76.6,398.5,76.7z"/>
<path class="st1" d="M417.9,76.4c-2.2-0.1-4.3-0.1-6.5-0.1l0-2.2c2.2,0,4.4,0,6.5,0.1L417.9,76.4z"/>
<path class="st1" d="M631.5,58.8l-0.8-2.1c2-0.9,4.1-1.7,6.1-2.5l0.8,2.1C635.5,57.1,633.5,57.9,631.5,58.8z"/>
<path class="st1" d="M762,58.4c-1.1,0-2.2,0-3.4,0l0-2.2c2.3,0,4.4,0,6.5,0l0,2.2C764.1,58.4,763.1,58.4,762,58.4z"/>
<path class="st1" d="M771.6,58.2l-0.1-2.2c2.1-0.1,4.3-0.2,6.5-0.4l0.2,2.2C776,58,773.8,58.1,771.6,58.2z"/>
<path class="st4" d="M752.1,58.2c-2.2-0.1-4.4-0.2-6.5-0.4l0.2-2.2c2.1,0.2,4.3,0.3,6.5,0.4L752.1,58.2z"/>
<path class="st1" d="M739,57.2c-2.2-0.2-4.4-0.5-6.5-0.8l0.3-2.2c2.1,0.3,4.2,0.6,6.4,0.8L739,57.2z"/>
<path class="st1" d="M726.1,55.4c-2.1-0.4-4.2-0.8-6.4-1.2l0.4-2.2c2.2,0.5,4.3,0.9,6.4,1.2L726.1,55.4z"/>
<path class="st1" d="M643.5,54.2l-0.7-2.1c2.1-0.7,4.2-1.3,6.3-1.9l0.6,2.2C647.7,52.8,645.6,53.5,643.5,54.2z"/>
<path class="st7" d="M713.3,52.8l-2.8-0.6c-1.2-0.3-2.4-0.5-3.5-0.8l0.5-2.2c1.2,0.3,2.4,0.5,3.6,0.8l2.8,0.6L713.3,52.8z"/>
<path class="st1" d="M656,50.7l-0.5-2.2c2.1-0.5,4.3-0.9,6.4-1.3l0.3,2.2C660.2,49.8,658.1,50.2,656,50.7z"/>
<path class="st7" d="M700.7,50c-2.2-0.4-4.3-0.8-6.3-1.1l0.3-2.2c2.1,0.3,4.2,0.6,6.5,1.1L700.7,50z"/>
<path class="st7" d="M668.7,48.6l-0.2-2.2c2.2-0.2,4.4-0.4,6.5-0.5l0.1,2.2C673,48.2,670.8,48.3,668.7,48.6z"/>
<path class="st7" d="M687.9,48.2c-1.2-0.1-2.4-0.2-3.7-0.2c-0.9,0-1.8-0.1-2.8-0.1l0-2.2c1,0,1.9,0,2.8,0.1c1.3,0.1,2.5,0.1,3.7,0.2
	L687.9,48.2z"/>
</svg>
