<?xml version="1.0" encoding="utf-8"?>
<!-- Generator: Adobe Illustrator 24.3.0, SVG Export Plug-In . SVG Version: 6.00 Build 0)  -->
<svg version="1.1" id="Camada_1" xmlns="http://www.w3.org/2000/svg" xmlns:xlink="http://www.w3.org/1999/xlink" x="0px" y="0px"
	 width="1000px" height="50px" viewBox="0 0 1000 50" style="enable-background:new 0 0 1000 50;" xml:space="preserve">
<style type="text/css">
	.st0{fill:#26262D;}
	.st1{fill:#24242B;}
	.st2{fill:#1EED89;}
	.st3{fill:#FFCD4B;}
	.st4{fill:#FE5D7A;}
	.st5{fill:#49D3FF;}
</style>
<path class="st0" d="M248,43.2c1.8,0,3.6,0,5.4,0c75,0,158-6.4,246.5-19l0.4-0.1l0.4-0.1C589,11.5,671.8,5.1,746.7,5.1
	c1.8,0,3.6,0,5.4,0c51.6,0.2,98.9,3.4,140.6,9.6c59.8,8.8,93.7,21.2,107.4,27V0H0v6.3c13,5.6,47.8,18.6,108.7,27.5
	C150.1,39.8,197,43,248,43.2z"/>
<path class="st1" d="M1000,50v-6.3c-13-5.6-47.7-18.6-108.7-27.5C849.9,10.2,803,7,752,6.8c-1.8,0-3.6,0-5.4,0
	c-75,0-158,6.4-246.5,19l-0.4,0.1l-0.4,0.1C411,38.5,328.2,44.9,253.2,44.9c-1.8,0-3.6,0-5.4,0c-51.6-0.2-98.9-3.4-140.7-9.6
	C47.6,26.4,13.7,14.1,0,8.2V50H1000z"/>
<path class="st2" d="M750,1.2v9.6c58.3,0.2,103.8,4.4,137.6,9.4C965.7,31.7,999.7,49.8,1000,50V39.2c-12-5.5-46.5-19-109.9-28.4
	C855.7,5.7,809.4,1.4,750,1.2z"/>
<path class="st3" d="M750,1.2c-66.5-0.3-149.4,4.5-250,18.9v9.7c0.2,0,0.5-0.1,0.7-0.1C601.2,15.3,683.8,10.5,750,10.8V1.2z"/>
<path class="st4" d="M250,48.8c66.5,0.3,149.4-4.5,250-18.9v-9.7c-0.3,0-0.5,0.1-0.8,0.1C398.8,34.7,316.2,39.4,250,39.2V48.8z"/>
<path class="st5" d="M250,48.8v-9.6c-58.3-0.2-103.8-4.4-137.6-9.4C34.2,18.3,0.3,0.2,0,0v10.8c12.1,5.5,46.5,19,109.9,28.4
	C144.2,44.3,190.6,48.6,250,48.8z"/>
</svg>
