<?xml version="1.0" encoding="utf-8"?>
<!-- Generator: Adobe Illustrator 24.3.0, SVG Export Plug-In . SVG Version: 6.00 Build 0)  -->
<svg version="1.1" id="Camada_1" xmlns="http://www.w3.org/2000/svg" xmlns:xlink="http://www.w3.org/1999/xlink" x="0px" y="0px"
	 width="400px" height="400px" viewBox="0 0 400 400" style="enable-background:new 0 0 400 400;" xml:space="preserve">
<style type="text/css">
	.st0{fill:#23B4DB;}
	.st1{fill:#39E09B;}
	.st2{fill:#28BF7B;}
	.st3{fill:#555560;}
</style>
<g>
	<g>
		<path class="st0" d="M63.6,318l-3.2,0.1l9.9,24.3l4.2-14.2l-4.2-10.5l-3.3,0.2l-0.1-2.3l14.9-0.7l0.1,2.3l-3.5,0.2l9.9,24.3
			l2.7-9.1c3.6-11.7-4-14.9-4.1-17.4c-0.1-2.5,1.9-4.7,4.4-4.8c0.1,0,0.3,0,0.4,0c-4.5-3.9-10.5-6.1-16.9-5.8
			c-8.4,0.4-15.6,5-19.6,11.7l8.6-0.4L63.6,318L63.6,318L63.6,318z"/>
		<path class="st0" d="M51.5,329.7c0.4,9.3,6,17.1,13.8,20.9L53,320.2C51.9,323.1,51.3,326.3,51.5,329.7z"/>
		<path class="st0" d="M96.2,315.7c0.4,2,0.4,4.3,0,6.6h0.1l-0.3,1.1l0,0c-0.2,0.8-0.4,1.5-0.7,2.3L88,349.5
			c7.5-4.4,12.3-12.7,11.9-22C99.7,323.2,98.4,319.1,96.2,315.7z"/>
		<path class="st0" d="M69.3,352c2.4,0.7,4.9,0.9,7.6,0.8c2.5-0.1,4.8-0.6,7.1-1.4l-8-19.7L69.3,352z"/>
		<path class="st0" d="M95.2,307.2c-5.7-5.2-13.1-7.9-20.9-7.6s-14.9,3.7-20,9.4c-5.2,5.7-7.9,13.1-7.6,20.9
			c0.3,7.8,3.7,14.9,9.4,20c5.7,5.2,13.1,7.9,20.9,7.6s14.9-3.7,20-9.4c5.2-5.7,7.9-13.1,7.6-20.9
			C104.3,319.6,100.9,312.4,95.2,307.2z M76.9,355.5c-14.8,0.7-27.5-10.9-28.1-25.7c-0.7-14.8,10.9-27.5,25.7-28.1
			c14.8-0.7,27.5,10.9,28.1,25.7C103.3,342.2,91.8,354.8,76.9,355.5z"/>
	</g>
</g>
<g>
	<g>
		<path class="st0" d="M174.6,193.3l-2.2,1.3l15.8,13.8l-2.1-11.7l-6.8-5.9l-2.3,1.3l-0.9-1.6l10.5-5.9l0.9,1.6l-2.4,1.4l15.8,13.8
			l-1.3-7.5c-1.6-9.7-8.3-9.2-9.3-11c-1-1.8-0.4-4,1.4-5c0.1-0.1,0.2-0.1,0.3-0.1c-4.6-1.1-9.8-0.6-14.2,1.9
			c-5.8,3.3-9.4,9.3-9.9,15.5l6-3.4L174.6,193.3L174.6,193.3L174.6,193.3z"/>
		<path class="st0" d="M170.1,206c3.6,6.4,10.5,10.1,17.4,9.9l-19.8-17.3C168,201.1,168.8,203.7,170.1,206z"/>
		<path class="st0" d="M197.1,179.8c1,1.3,1.9,2.9,2.4,4.7h0.1l0.2,0.9l0,0c0.1,0.6,0.3,1.3,0.3,1.9l3.4,19.6
			c3.7-5.8,4.2-13.5,0.5-20C202.2,183.8,199.9,181.4,197.1,179.8z"/>
		<path class="st0" d="M190.9,215.4c1.9-0.4,3.8-1.1,5.6-2.1c1.7-1,3.2-2.2,4.5-3.5l-12.9-11.2L190.9,215.4z"/>
		<path class="st0" d="M193.2,174c-5.9-1.7-12.3-0.9-17.6,2.1c-5.4,3-9.3,8.1-11,14c-1.7,5.9-0.9,12.3,2.1,17.6c3,5.4,8.1,9.3,14,11
			c5.9,1.7,12.3,0.9,17.6-2.1c5.4-3,9.3-8.1,11-14s0.9-12.3-2.1-17.6C204.2,179.6,199.3,175.8,193.2,174z M197.7,215.2
			c-10.4,5.8-23.6,2.2-29.4-8.2c-5.8-10.4-2.2-23.6,8.2-29.4s23.6-2.2,29.4,8.2C211.7,196.2,208.1,209.4,197.7,215.2z"/>
	</g>
</g>
<path id="path18" class="st1" d="M97.9,218.3c-1.8-0.9-4,0.5-3.8,2.6l3.1,36c0.2,1.8,2.2,2.6,3.7,1.6l9.8-6.5l6.6,10
	c0.7,1,2.1,1.3,3.1,0.6l5.7-3.8c1-0.7,1.3-2.1,0.6-3.1l-6.6-10l-2.7,1.8c-1.2,0.8-2.6,0.5-3.4-0.4c-0.2-0.3-0.4-0.7-0.5-1.1l-1.7-20
	L97.9,218.3z"/>
<path id="path20" class="st2" d="M110.7,209.8c-0.2-2.1,2-3.5,3.8-2.6l32.1,16.5c1.6,0.9,1.6,3.1,0.1,4.1l-9.6,6.4l6.6,10
	c0.7,1,0.4,2.4-0.6,3.1l-6,4c-1,0.7-2.4,0.4-3.1-0.6l-6.6-10l2.7-1.8c1.2-0.8,1.4-2.2,0.9-3.3c-0.2-0.3-0.4-0.7-0.8-0.9l-17.9-9.3
	L110.7,209.8z"/>
<path id="path18_1_" class="st1" d="M75.8,107.9c-0.9-1.2-2.7-0.9-3.2,0.4l-9.3,23.6c-0.4,1.2,0.6,2.3,1.8,2.2l8.2-1.1l1.1,8.3
	c0.1,0.8,0.9,1.4,1.7,1.3l4.8-0.6c0.8-0.1,1.4-0.9,1.3-1.7l-1.1-8.3l-2.2,0.3c-1,0.1-1.8-0.5-2-1.3c0-0.3-0.1-0.6,0-0.9L82,117
	L75.8,107.9z"/>
<path id="path20_1_" class="st2" d="M86.4,106.6c0.5-1.3,2.4-1.6,3.2-0.4l15,20.3c0.7,1,0,2.4-1.2,2.6l-8.1,1l1.1,8.3
	c0.1,0.8-0.5,1.6-1.3,1.7l-5,0.7c-0.8,0.1-1.6-0.5-1.7-1.3l-1.1-8.3l2.2-0.3c1-0.1,1.6-0.9,1.6-1.8c0-0.3-0.1-0.6-0.2-0.8L82.5,117
	L86.4,106.6z"/>
<g>
	<path class="st0" d="M154.7,321.2l-6.2-3.2l1.2-1.1l4.2,2.4l-2.2-4.3l1.1-1.1l4.2,2.3l-2.4-4.2l1.2-1.1l3.2,6.2l-1.2,1.2l-4.2-2.3
		l2.3,4.2L154.7,321.2z"/>
	<path class="st0" d="M162.2,312.7c-0.9,0-1.8-0.4-2.4-1.1c-0.8-0.8-1.1-1.6-1-2.5c0-0.9,0.4-1.8,1.2-2.5c0.8-0.8,1.6-1.1,2.5-1.1
		c0.9,0,1.8,0.4,2.4,1.1c0.7,0.7,1.1,1.6,1,2.5c0,0.9-0.4,1.8-1.2,2.5C163.9,312.4,163.1,312.7,162.2,312.7z M160.2,309.1
		c0,0.5,0.3,1,0.7,1.5c0.4,0.4,0.9,0.6,1.4,0.7c0.5,0,1-0.1,1.4-0.5c0.4-0.4,0.6-0.8,0.5-1.4c0-0.5-0.3-1-0.7-1.5
		c-0.4-0.4-0.9-0.7-1.4-0.7s-1,0.1-1.4,0.5C160.3,308,160.2,308.4,160.2,309.1z"/>
	<path class="st0" d="M169,307.2l-4.7-4.8l2.4-2.3c0.4-0.4,1-0.7,1.5-0.7c0.5,0,1.1,0.2,1.5,0.6c0.3,0.3,0.5,0.6,0.6,1.1
		c0.1,0.3,0,0.7,0,1.1l2.9,0.9l-1.2,1.2l-2.6-0.8l-0.9,0.8l1.7,1.7L169,307.2z M166.3,302.3l1.2,1.2l1.1-1.1
		c0.1-0.2,0.3-0.3,0.2-0.6c-0.1-0.2-0.1-0.4-0.3-0.6c-0.2-0.1-0.3-0.3-0.6-0.2c-0.2,0-0.4,0.1-0.6,0.3L166.3,302.3z"/>
	<path class="st0" d="M174.9,301.3l-4.7-4.8l2-2c0.8-0.8,1.6-1.1,2.4-1.1c0.9,0,1.7,0.3,2.3,1c0.7,0.7,1,1.5,1,2.4
		c0,0.9-0.4,1.8-1.2,2.4L174.9,301.3z M176.7,297c0-0.5-0.2-1-0.7-1.5c-0.4-0.4-0.9-0.7-1.4-0.7s-1,0.2-1.4,0.6l-0.9,0.9l2.9,2.9
		l0.9-0.9C176.5,297.9,176.7,297.6,176.7,297z"/>
	<path class="st0" d="M182.5,293.8l-1.1,1.1l-4.7-4.8l2.4-2.4c0.4-0.4,1-0.7,1.5-0.7s1.1,0.2,1.5,0.6s0.6,1,0.7,1.5
		c0,0.6-0.2,1.1-0.6,1.5l-1.2,1.3L182.5,293.8z M180,291.2l1.2-1.1c0.1-0.2,0.3-0.3,0.2-0.6c-0.1-0.2-0.1-0.4-0.3-0.6
		c-0.2-0.1-0.3-0.3-0.6-0.2c-0.2,0-0.4,0.1-0.6,0.3l-1.2,1.1L180,291.2z"/>
	<path class="st0" d="M187.2,289.2l-4.7-4.8l2.4-2.3c0.4-0.4,1-0.7,1.5-0.7c0.5,0,1.1,0.2,1.5,0.6c0.3,0.3,0.5,0.6,0.6,1.1
		c0.1,0.4,0,0.7,0,1.1l2.9,0.9l-1.2,1.2l-2.6-0.8l-0.9,0.8l1.7,1.7L187.2,289.2z M184.5,284.2l1.2,1.2l1.1-1.1
		c0.1-0.2,0.3-0.3,0.2-0.6c-0.1-0.2-0.1-0.4-0.3-0.6s-0.3-0.3-0.6-0.2c-0.2,0-0.4,0.1-0.6,0.3L184.5,284.2z"/>
	<path class="st0" d="M188.4,278.6l3.6-3.4l0.9,0.9l-2.4,2.4l0.9,0.9l2.2-2.2l0.9,0.9l-2.2,2.2l1,1l2.5-2.4l0.9,0.9l-3.6,3.5
		L188.4,278.6z"/>
	<path class="st0" d="M200.8,273c0.4,0.4,0.6,1,0.5,1.6c0,0.6-0.4,1.2-0.9,1.8c-0.4,0.3-0.8,0.7-1.2,0.9s-0.9,0.3-1.3,0.3l-0.1-1.3
		c0.2-0.1,0.5-0.1,0.8-0.2c0.3-0.1,0.6-0.3,0.7-0.6c0.3-0.3,0.4-0.4,0.5-0.7c0-0.2,0.1-0.4-0.1-0.5c-0.1-0.1-0.3-0.2-0.4-0.1
		c-0.2,0.1-0.5,0.1-0.9,0.3c-0.8,0.4-1.5,0.6-2,0.6c-0.5,0-0.9-0.2-1.2-0.5c-0.4-0.4-0.6-1-0.5-1.5c0-0.6,0.4-1.2,0.8-1.6
		c0.3-0.3,0.6-0.6,1.1-0.8c0.5-0.2,0.8-0.3,1.2-0.3l0.1,1.3c-0.2,0-0.4,0.1-0.7,0.2c-0.2,0.2-0.5,0.3-0.7,0.5
		c-0.2,0.2-0.3,0.4-0.4,0.6c0,0.2,0,0.4,0.1,0.5c0.1,0.1,0.3,0.2,0.4,0.1c0.1-0.1,0.5-0.1,0.9-0.3c0.8-0.3,1.5-0.6,2-0.6
		C200.1,272.6,200.5,272.6,200.8,273z"/>
	<path class="st0" d="M206.2,267.7c0.4,0.4,0.6,1,0.5,1.6c0,0.6-0.4,1.2-0.9,1.8c-0.4,0.3-0.7,0.6-1.2,0.9c-0.5,0.2-0.9,0.3-1.3,0.3
		l-0.1-1.3c0.2-0.1,0.5-0.1,0.8-0.2c0.3-0.1,0.6-0.3,0.7-0.6c0.3-0.3,0.4-0.4,0.5-0.7c0-0.2,0.1-0.4-0.1-0.5
		c-0.1-0.1-0.3-0.2-0.4-0.1c-0.2,0.1-0.5,0.1-0.9,0.3c-0.8,0.4-1.5,0.6-2,0.6s-0.9-0.2-1.2-0.5c-0.4-0.4-0.6-1-0.5-1.5
		c0-0.6,0.4-1.2,0.8-1.6c0.3-0.3,0.6-0.6,1.1-0.8c0.5-0.2,0.8-0.3,1.2-0.3l0.1,1.3c-0.2,0-0.4,0.1-0.7,0.2c-0.2,0.2-0.5,0.3-0.7,0.5
		s-0.3,0.4-0.4,0.6c0,0.2,0,0.4,0.1,0.5c0.1,0.1,0.3,0.2,0.4,0.1c0.2-0.1,0.5-0.1,0.9-0.3c0.8-0.3,1.5-0.6,2-0.6
		C205.4,267.2,205.9,267.4,206.2,267.7z"/>
</g>
<g>
	<path class="st0" d="M5.2,66.1l-1.8-6.7L5,59.5l1,4.6l1.6-4.6l1.6,0.1l1.2,4.7l1.5-4.6l1.6,0.1l-2.3,6.5l-1.6-0.1l-1.2-4.6
		l-1.6,4.5H5.2z"/>
	<path class="st0" d="M16.5,65.7c-0.6-0.7-0.9-1.5-0.9-2.5c0-1,0.4-1.8,1.1-2.4c0.7-0.6,1.5-0.9,2.6-0.8c1,0,1.9,0.4,2.5,1
		c0.6,0.7,0.9,1.5,0.9,2.5c0,1-0.4,1.8-1.1,2.4s-1.5,0.9-2.6,0.9C17.9,66.7,17.1,66.3,16.5,65.7z M17.8,61.8
		c-0.4,0.4-0.6,0.9-0.6,1.5s0.1,1.1,0.5,1.5c0.3,0.4,0.8,0.6,1.3,0.6s1-0.2,1.4-0.5c0.4-0.4,0.6-0.9,0.6-1.5s-0.1-1.1-0.5-1.5
		c-0.3-0.4-0.8-0.6-1.3-0.6C18.6,61.2,18.2,61.4,17.8,61.8z"/>
	<path class="st0" d="M25.2,66.9l0.2-6.6l3.3,0.1c0.6,0,1.1,0.2,1.5,0.6s0.6,0.9,0.5,1.5c0,0.4-0.1,0.8-0.3,1.1
		c-0.2,0.3-0.5,0.6-0.8,0.7L31,67l-1.6,0l-1.3-2.4h-1.2L26.8,67L25.2,66.9z M27,61.6l-0.1,1.7l1.5,0.1c0.2,0,0.4-0.1,0.6-0.2
		c0.2-0.2,0.2-0.4,0.2-0.6c0-0.3-0.1-0.5-0.2-0.6c-0.1-0.1-0.3-0.2-0.6-0.2L27,61.6z"/>
	<path class="st0" d="M33.5,67.2l0.2-6.6l2.8,0.1c1,0,1.9,0.4,2.5,1c0.6,0.6,0.9,1.5,0.9,2.4c0,1-0.4,1.8-1.1,2.4
		c-0.7,0.6-1.5,0.9-2.6,0.8L33.5,67.2z M37.9,65.5c0.4-0.4,0.6-0.8,0.6-1.5c0-0.6-0.1-1.1-0.5-1.5c-0.3-0.4-0.8-0.6-1.3-0.6h-1.3
		L35.2,66h1.3C37.1,66,37.6,65.9,37.9,65.5z"/>
	<path class="st0" d="M44.2,67.6l-1.6-0.1l0.2-6.6l3.3,0.1c0.6,0,1.2,0.2,1.5,0.6c0.3,0.4,0.6,0.9,0.5,1.5c0,0.6-0.2,1.1-0.7,1.5
		c-0.4,0.4-0.9,0.6-1.6,0.5L44.1,65L44.2,67.6z M44.3,63.9l1.6,0.1c0.2,0,0.4-0.1,0.6-0.2c0.2-0.2,0.2-0.4,0.2-0.6
		c0-0.3-0.1-0.5-0.2-0.6c-0.1-0.1-0.3-0.2-0.6-0.2l-1.6-0.1V63.9z"/>
	<path class="st0" d="M50.8,67.8l0.2-6.6l3.3,0.1c0.6,0,1.2,0.2,1.5,0.6c0.4,0.4,0.6,0.9,0.5,1.5c0,0.4-0.1,0.8-0.3,1.1
		c-0.2,0.3-0.5,0.6-0.8,0.7l1.4,2.7l-1.7-0.1l-1.3-2.4h-1.2l-0.1,2.4L50.8,67.8z M52.6,62.5l-0.1,1.7l1.5,0.1c0.2,0,0.4-0.1,0.6-0.2
		c0.2-0.2,0.2-0.4,0.2-0.6c0-0.3-0.1-0.5-0.2-0.6c-0.1-0.1-0.3-0.2-0.6-0.2L52.6,62.5z"/>
	<path class="st0" d="M59.4,61.5l4.9,0.2V63l-3.4-0.1l-0.1,1.4l3.1,0.1v1.3l-3.1-0.1l-0.1,1.5l3.5,0.1v1.3l-5-0.2L59.4,61.5z"/>
	<path class="st0" d="M71.9,66.7c0,0.6-0.3,1.1-0.8,1.4c-0.5,0.4-1.1,0.5-1.9,0.5c-0.5,0-0.9-0.1-1.4-0.3c-0.5-0.2-0.8-0.4-1.1-0.7
		l0.8-1c0.2,0.2,0.4,0.3,0.7,0.4c0.3,0.1,0.6,0.2,0.9,0.2s0.6,0,0.8-0.1c0.2-0.1,0.3-0.2,0.3-0.4c0-0.1-0.1-0.3-0.2-0.4
		c-0.2-0.1-0.4-0.3-0.9-0.4c-0.8-0.3-1.4-0.6-1.8-1c-0.3-0.4-0.5-0.8-0.5-1.3c0-0.6,0.3-1,0.7-1.4c0.5-0.4,1-0.5,1.7-0.5
		c0.4,0,0.9,0.1,1.3,0.3c0.4,0.2,0.8,0.4,1,0.6l-0.8,1c-0.1-0.1-0.3-0.3-0.6-0.4c-0.3-0.1-0.5-0.2-0.8-0.2c-0.3,0-0.5,0-0.7,0.1
		c-0.2,0.1-0.3,0.2-0.3,0.4c0,0.1,0.1,0.3,0.2,0.4c0.2,0.1,0.4,0.3,0.9,0.4c0.8,0.3,1.4,0.7,1.8,1C71.8,65.8,71.9,66.2,71.9,66.7z"
		/>
	<path class="st0" d="M79.4,66.9c0,0.6-0.3,1.1-0.8,1.4c-0.5,0.4-1.1,0.5-1.9,0.5c-0.5,0-0.9-0.1-1.4-0.3c-0.5-0.2-0.8-0.4-1.1-0.7
		l0.8-1c0.2,0.2,0.4,0.3,0.7,0.4c0.3,0.1,0.6,0.2,0.9,0.2c0.3,0,0.6,0,0.8-0.1c0.2-0.1,0.3-0.2,0.3-0.4c0-0.1-0.1-0.3-0.2-0.4
		c-0.2-0.1-0.4-0.3-0.9-0.4c-0.8-0.3-1.4-0.6-1.8-1c-0.3-0.4-0.5-0.8-0.5-1.3c0-0.6,0.3-1,0.7-1.4c0.5-0.4,1-0.5,1.7-0.5
		c0.4,0,0.9,0.1,1.3,0.3c0.4,0.2,0.8,0.4,1,0.6l-0.8,1c-0.1-0.1-0.3-0.3-0.6-0.4s-0.5-0.2-0.8-0.2c-0.3,0-0.5,0-0.7,0.1
		s-0.3,0.2-0.3,0.4c0,0.1,0.1,0.3,0.2,0.4c0.2,0.1,0.4,0.3,0.9,0.4c0.8,0.3,1.4,0.7,1.8,1C79.3,66.1,79.4,66.5,79.4,66.9z"/>
</g>
<g>
	<path class="st1" d="M13.8,234.5l-0.4-6.6l1.6-0.1l0.3,5.4l3.3-0.2l0.1,1.3L13.8,234.5z"/>
	<path class="st1" d="M22.7,233.9l-1.6,0.1l-0.4-6.6l1.6-0.1L22.7,233.9z"/>
	<path class="st1" d="M30.3,233.5l-3.4-4l0.3,4.2l-1.5,0.1l-0.4-6.6l1.5-0.1l3.4,4l-0.3-4.1l1.5-0.3l0.4,6.6L30.3,233.5z"/>
	<path class="st1" d="M39,232.9l-2.2-2.8l-0.7,0.8l0.1,2.1l-1.6,0.1l-0.4-6.6l1.6-0.1l0.2,2.5l2.3-2.6l2-0.1l-2.4,2.8l3,3.8
		L39,232.9z"/>
	<path class="st1" d="M42.5,225.9l6-0.4l0.1,1.3l-2.2,0.1l0.3,5.4l-1.6,0.1l-0.3-5.4l-2.2,0.1L42.5,225.9z"/>
	<path class="st1" d="M51.4,232.1l-0.4-6.6l3.3-0.2c0.6,0,1.2,0.1,1.6,0.5c0.4,0.4,0.7,0.9,0.7,1.5c0,0.4,0,0.8-0.2,1.2
		c-0.2,0.3-0.4,0.6-0.8,0.8l1.7,2.5l-1.7,0.1l-1.5-2.3l-1.2,0.1l0.2,2.4H51.4z M52.6,226.6l0.1,1.7l1.5-0.1c0.2,0,0.4-0.1,0.5-0.3
		c0.1-0.2,0.2-0.4,0.2-0.6c0-0.3-0.1-0.5-0.3-0.6c-0.2-0.1-0.3-0.2-0.6-0.2L52.6,226.6z"/>
	<path class="st1" d="M59.4,224.9l4.9-0.3l0.1,1.3l-3.4,0.2l0.1,1.4l3.1-0.2l0.1,1.3l-3.1,0.2l0.1,1.5l3.5-0.2l0.1,1.3l-5,0.3
		L59.4,224.9z"/>
	<path class="st1" d="M67.1,224.4l4.9-0.3l0.1,1.3l-3.4,0.2l0.1,1.4l3.1-0.2l0.1,1.3l-3.1,0.2l0.1,1.5l3.5-0.2l0.1,1.3l-5,0.3
		L67.1,224.4z"/>
</g>
<g>
	<path class="st1" d="M166.2,145l-2.8-6l1.4-0.6l2.2,4.9l3-1.4l0.5,1.2L166.2,145z"/>
	<path class="st1" d="M174.4,141.3l-1.4,0.6l-2.8-6l1.4-0.6L174.4,141.3z"/>
	<path class="st1" d="M181.2,138.1l-4.6-2.5l1.8,3.8L177,140l-2.8-6l1.4-0.6l4.6,2.5l-1.8-3.8l1.4-0.6l2.8,6L181.2,138.1z"/>
	<path class="st1" d="M189.2,134.4l-3.1-1.8l-0.4,1.1l0.9,1.9l-1.4,0.6l-2.8-6l1.4-0.6l1,2.3l1.2-3.3l1.8-0.8l-1.3,3.5l4.2,2.5
		L189.2,134.4z"/>
	<path class="st1" d="M189.9,126.8l5.5-2.5l0.5,1.2l-2,0.9l2.2,4.9l-1.4,0.6l-2.2-4.9l-2,0.9L189.9,126.8z"/>
	<path class="st1" d="M200.5,129.3l-2.8-6l3-1.4c0.6-0.3,1.1-0.3,1.7-0.1c0.5,0.2,0.9,0.6,1.2,1.1c0.2,0.4,0.2,0.8,0.2,1.2
		s-0.2,0.7-0.4,1l2.5,1.8l-1.5,0.7l-2.2-1.6l-1.1,0.5l1,2.2L200.5,129.3z M199.7,123.7l0.7,1.5l1.4-0.6c0.2-0.1,0.3-0.2,0.4-0.5
		c0.1-0.2,0-0.4-0.1-0.7c-0.1-0.2-0.3-0.4-0.4-0.5c-0.2-0.1-0.4-0.1-0.6,0L199.7,123.7z"/>
	<path class="st1" d="M205.3,119.7l4.5-2.1l0.5,1.2l-3.1,1.4l0.6,1.2l2.8-1.3l0.5,1.2l-2.8,1.3l0.6,1.3l3.2-1.5l0.5,1.2l-4.6,2.1
		L205.3,119.7z"/>
	<path class="st1" d="M212.3,116.5l4.5-2.1l0.5,1.2l-3.1,1.4l0.6,1.2l2.8-1.3l0.5,1.2l-2.8,1.3l0.6,1.3l3.2-1.5l0.5,1.2l-4.6,2.1
		L212.3,116.5z"/>
</g>
<g>
	<path class="st3" d="M126.6,364.6c-1.6-1.3-3.2-2.8-4.8-4.2l2.1-2.3c1.5,1.4,3.1,2.8,4.7,4.1L126.6,364.6z"/>
	<path class="st3" d="M213.6,395c-0.6,0-1.2,0-1.7,0v-3.1c0.6,0,1.1,0,1.7,0c3.8,0,7.6-0.2,11.2-0.5l0.3,3.1
		C221.3,394.8,217.5,395,213.6,395z M198.6,394.2c-5.9-0.6-10.4-1.4-12.8-1.8h-0.2l0.5-3.1h0.2c2.3,0.4,6.7,1.2,12.6,1.8
		L198.6,394.2z M238,392.5l-0.7-3.1c4.3-0.9,8.5-2.2,12.2-3.6l1.1,2.9C246.8,390.3,242.5,391.5,238,392.5z M172.8,389.4
		c-4.2-1.2-8.4-2.7-12.5-4.3l1.2-2.9c3.9,1.6,8.1,3,12.1,4.2L172.8,389.4z M262.6,382.7l-1.7-2.7c3.3-2.1,6.3-4.5,9.2-7.2
		c0.3-0.2,0.5-0.5,0.8-0.7l2.2,2.2c-0.3,0.3-0.5,0.5-0.8,0.8C269.4,378,266.1,380.5,262.6,382.7z M148.4,379.4
		c-3.8-2.1-7.7-4.3-11.3-6.8l1.8-2.6c3.5,2.4,7.3,4.6,11,6.6L148.4,379.4z M281.2,363.8l-2.7-1.6c2-3.4,3.6-7.3,4.9-11.6l3,0.9
		C285.1,356.1,283.4,360.1,281.2,363.8z M289.4,338.6l-3.1-0.5c0.4-2.2,0.8-4.6,1.1-7c0.3-1.9,0.6-3.8,1-5.8l3.1,0.5
		c-0.3,2-0.6,3.9-0.9,5.8C290.1,334.1,289.8,336.4,289.4,338.6z M293.9,313.1l-3.1-0.7c1-4.4,2.2-8.6,3.5-12.7l3,1
		C296.1,304.6,294.9,308.7,293.9,313.1z M302,288.6l-2.9-1.3c1.2-2.8,2.6-5.6,4-8.4c0.6-1.2,1.2-2.3,1.8-3.4l2.7,1.5
		c-0.6,1.1-1.2,2.2-1.8,3.3C304.5,283.2,303.2,285.9,302,288.6z M314.4,266.1l-2.6-1.8c2.4-3.6,5-7.2,7.9-10.6l2.4,2
		C319.3,259.1,316.8,262.5,314.4,266.1z M330.6,246l-2.3-2.2c2.9-3.1,6.1-6.2,9.4-9.2l2.1,2.3C336.5,239.9,333.4,242.9,330.6,246z"
		/>
	<path class="st3" d="M349.8,228.6l-1.9-2.5c1.6-1.3,3.3-2.6,5.1-3.8l1.8,2.5C353.2,226.1,351.5,227.4,349.8,228.6z"/>
</g>
<path class="st3" d="M195,312.5l-0.2-3.1c4.3-0.2,8.6-0.6,12.5-1.1l0.4,3.1C203.6,311.9,199.4,312.3,195,312.5z M220.4,309.2
	l-0.7-3.1c4.2-1,8.2-2.1,12-3.5l1.1,3C228.7,307,224.6,308.2,220.4,309.2z M244.4,300.3l-1.5-2.8c3.7-2,7.2-4.3,10.3-6.8l2,2.4
	C251.9,295.8,248.3,298.2,244.4,300.3z M264.4,284.1l-2.4-2c2.6-3.2,4.8-6.5,6.8-10.2l2.8,1.5C269.5,277.3,267.2,280.8,264.4,284.1z
	 M276.5,261.4l-3-0.9c1.1-3.5,2-7.4,2.9-12.1l3.1,0.6C278.5,253.8,277.6,257.8,276.5,261.4z M281.7,236.5l-3.1-0.6
	c0.7-3.7,1.6-8.2,2.9-12.5l3,0.9C283.2,228.5,282.3,232.9,281.7,236.5z M289.6,213.2l-2.6-1.7c1.8-2.8,3.9-5.3,6.3-7.7
	c0.8-0.7,1.6-1.4,2.4-2l2,2.5c-0.8,0.6-1.5,1.2-2.2,1.9C293.2,208.4,291.2,210.6,289.6,213.2z M369.5,199c-4.2-1-8.4-1.9-12.3-2.5
	l0.5-3.1c4,0.7,8.2,1.6,12.5,2.6L369.5,199z M308.2,198.3l-1.2-2.9c3.8-1.5,8-2.6,12.5-3.3l0.5,3.1
	C315.7,195.8,311.7,196.9,308.2,198.3z M344.9,194.7c-4-0.4-8-0.6-11.6-0.6h-0.8v-3.1h0.9c3.7,0,7.8,0.2,12,0.6L344.9,194.7z"/>
<path class="st3" d="M391.8,101.6c-3.1-2.8-6.3-5.5-9.6-8.1l1.9-2.5c3.3,2.5,6.6,5.3,9.8,8.3L391.8,101.6z M371.9,86.4
	c-3.5-2.2-7.3-4.3-10.9-6.1l1.4-2.8c3.7,1.9,7.6,4,11.2,6.3L371.9,86.4z M349.6,75.2c-2.9-1.1-5.8-2-8.8-2.9c-1-0.3-2.1-0.6-3.1-0.8
	l0.8-3c1,0.3,2.1,0.5,3.2,0.9c3,0.9,6,1.9,9.1,3L349.6,75.2z M287.8,69.4v-3.1c3.9,0,7.7-0.2,11.7-0.5l0.9-0.1l0.2,3.1l-0.9,0.1
	C295.6,69.2,291.7,69.4,287.8,69.4z M325.5,69.2c-4-0.5-8.1-0.7-12.4-0.8v-3.1c4.4,0,8.7,0.3,12.8,0.8L325.5,69.2z M274.9,68.5
	c-4.2-0.6-8.4-1.6-12.5-3.1l1-3c4,1.4,8,2.3,12,2.9L274.9,68.5z M250.5,60.3c-3.9-2-7.5-4.3-10.8-7.1l2-2.5
	c3.2,2.5,6.6,4.7,10.4,6.7L250.5,60.3z M67.7,46.7l-1.8-2.6c3.5-2.4,7.2-4.7,10.6-7l1.7,2.6C74.8,42,71.3,44.3,67.7,46.7z
	 M230.4,44.4c-2.8-3.1-5.3-6.3-8.1-9.9l2.5-1.9c2.7,3.5,5.1,6.6,8,9.7L230.4,44.4z M89,33.2l-1.6-2.7c3.7-2.2,7.5-4.3,11.1-6.2
	l1.5,2.8C96.4,28.9,92.7,31,89,33.2z M214.4,24.9c-3-3.4-5.8-6.1-9-8.5l1.9-2.5c3.2,2.5,6.2,5.3,9.4,8.9L214.4,24.9z M111.1,21.2
	l-1.4-2.8c3.9-1.9,7.9-3.7,11.6-5.2l1.2,2.9C118.9,17.6,115,19.3,111.1,21.2z M134.3,11.6l-1-3c4.2-1.4,8.3-2.6,12.3-3.6l0.7,3.1
	C142.4,9,138.4,10.2,134.3,11.6z M194.9,10.2c-3.7-1.6-7.7-2.9-11.7-3.7l0.6-3.1c4.3,0.9,8.5,2.2,12.4,4L194.9,10.2z M158.6,5.7
	l-0.4-3.1c4.4-0.6,8.8-0.8,12.9-0.7L170.9,5C167,4.9,162.8,5.1,158.6,5.7z"/>
<path class="st3" d="M364.7,138.5c-4.2-0.5-8.5-1.1-12.6-1.8l0.5-3.1c4.1,0.6,8.3,1.2,12.5,1.8L364.7,138.5z M339.6,134.6
	c-4.1-0.8-8.4-1.7-12.5-2.6l0.7-3.1c4,0.9,8.3,1.8,12.3,2.6L339.6,134.6z M314.8,129c-4.1-1.1-8.3-2.2-12.2-3.4l0.9-3
	c4,1.2,8.1,2.3,12.1,3.4L314.8,129z M290.4,121.7c-4-1.4-8.1-2.8-12-4.3l1.1-2.9c3.9,1.5,7.9,2.9,11.9,4.3L290.4,121.7z
	 M266.7,112.5c-3.7-1.6-7.6-3.3-11.6-5.1l1.3-2.8c4,1.9,7.8,3.5,11.5,5.1L266.7,112.5z M112.7,103.6l-1.5-2.7
	c3.8-2.1,7.7-4,11.4-5.8l1.3,2.8C120.3,99.7,116.5,101.6,112.7,103.6z M243.7,101.9l-1.6-0.8c-3.4-1.6-6.5-3.2-9.8-4.7l1.3-2.8
	c3.1,1.5,6.3,3,9.8,4.7l1.6,0.8L243.7,101.9z M135.5,93l-1.1-2.9c4-1.5,8.2-2.9,12.1-4l0.9,3C143.4,90.2,139.4,91.5,135.5,93z
	 M220.8,91.4c-4.1-1.6-8-2.8-11.8-3.9l0.8-3c4,1,8,2.3,12.2,4L220.8,91.4z M159.6,86.2L159,83c4.2-0.8,8.5-1.4,12.7-1.7l0.3,3.1
	C167.8,84.8,163.7,85.5,159.6,86.2z M196.8,85.1c-0.8-0.1-1.7-0.2-2.5-0.3c-3.2-0.4-6.5-0.6-9.9-0.7l0.1-3.1
	c3.4,0.1,6.7,0.3,10.2,0.7c0.9,0.1,1.8,0.2,2.6,0.3L196.8,85.1z"/>
<path class="st3" d="M398.1,168.1c-4.1-0.6-8.4-1.2-12.5-1.7l0.4-3.1c4.2,0.5,8.5,1.1,12.6,1.7L398.1,168.1z M373,165
	c-4.1-0.4-8.4-0.7-12.6-1l0.2-3.1c4.2,0.3,8.5,0.6,12.7,1L373,165z M297.3,163.8c-2.7-0.1-5.4-0.2-8.2-0.4c-1.5-0.1-3-0.2-4.6-0.4
	l0.3-3.1c1.6,0.2,3.1,0.3,4.5,0.4c2.6,0.2,5.2,0.3,8,0.3L297.3,163.8z M310.1,163.7l-0.1-3.1c1.2,0,2.5-0.1,3.8-0.1
	c2.7-0.1,5.6-0.2,8.9-0.3l0.1,3.1c-3.1,0.1-6,0.2-8.8,0.3C312.6,163.6,311.3,163.6,310.1,163.7z M347.8,163.4l-1.8-0.1
	c-3.7-0.1-7.3-0.2-10.8-0.2V160c3.5,0,7.1,0.1,10.9,0.2l1.8,0.1L347.8,163.4z M271.9,161.3c-4.1-0.7-8.4-1.6-12.5-2.7l0.8-3
	c4,1,8.2,1.9,12.3,2.7L271.9,161.3z M247.2,155c-3.9-1.3-8-2.8-12-4.4l1.2-2.9c3.9,1.6,7.9,3,11.8,4.3L247.2,155z M223.5,145.4
	c-3.7-1.8-7.6-3.8-11.3-5.8l1.5-2.7c3.7,2,7.5,4,11.2,5.7L223.5,145.4z"/>
</svg>
