<?xml version="1.0" encoding="utf-8"?>
<!-- Generator: Adobe Illustrator 24.3.0, SVG Export Plug-In . SVG Version: 6.00 Build 0)  -->
<svg version="1.1" id="Camada_1" xmlns="http://www.w3.org/2000/svg" xmlns:xlink="http://www.w3.org/1999/xlink" x="0px" y="0px"
	 width="250px" height="435.8px" viewBox="0 0 250 435.8" style="enable-background:new 0 0 250 435.8;" xml:space="preserve">
<style type="text/css">
	.st0{fill:#5E5E68;}
	.st1{fill:#4D4D54;}
	.st2{fill:#26262D;}
	.st3{fill:#1A1A1E;}
</style>
<path class="st0" d="M14,165.8l3.4-0.4c1-0.1,1.8-1.1,1.6-2.1l-8.4-69.8c-0.1-1-1.1-1.8-2.1-1.6l-3.4,0.4c-1,0.1-1.8,1.1-1.6,2.1
	l8.4,69.8C12.1,165.2,13,165.9,14,165.8z"/>
<path class="st0" d="M18.7,204.4l3.4-0.4c1-0.1,1.8-1.1,1.6-2.1l-3.2-26.4c-0.1-1-1.1-1.8-2.1-1.6l-3.4,0.4c-1,0.1-1.8,1.1-1.6,2.1
	l3.2,26.4C16.8,203.8,17.7,204.6,18.7,204.4z"/>
<path class="st1" d="M76,435.6l148.5-18c15.9-1.9,27.2-16.4,25.3-32.3L206.3,25.5C204.4,9.6,189.9-1.7,174,0.2l-148.5,18
	C9.6,20.1-1.7,34.5,0.2,50.4l43.5,359.8C45.6,426.2,60.1,437.5,76,435.6z"/>
<path class="st2" d="M125.1,22l-46.9,5.7c-0.7,0.1-1.4-0.4-1.5-1.1l0,0c-0.1-0.7,0.4-1.4,1.1-1.5l46.9-5.7c0.7-0.1,1.4,0.4,1.5,1.1
	l0,0C126.3,21.3,125.8,21.9,125.1,22z"/>
<path class="st2" d="M68.6,29.9c1.3-0.2,2.2-1.3,2.1-2.7c-0.2-1.3-1.3-2.2-2.7-2.1c-1.3,0.2-2.2,1.3-2.1,2.7
	C66.1,29.1,67.3,30,68.6,29.9L68.6,29.9z"/>
<path class="st2" d="M134.6,21.9c1.3-0.2,2.2-1.3,2.1-2.7c-0.2-1.3-1.3-2.2-2.7-2.1c-1.3,0.2-2.2,1.3-2.1,2.7
	C132.1,21.1,133.3,22.1,134.6,21.9L134.6,21.9z"/>
<path class="st3" d="M177.3,9.3L153,12.3l-3,0.4c-3.2,0.4-5.4,3.3-5,6.4c0.5,3.7-2.2,7.1-5.9,7.6l-73.6,8.9
	c-3.7,0.5-7.1-2.2-7.6-5.9c-0.4-3.2-3.3-5.4-6.4-5l-4.7,0.6l-22.2,2.7C12.7,29.2,4.2,40,5.7,51.9l43,355.7
	c1.4,11.9,12.2,20.3,24.1,18.9L225.5,408c11.9-1.4,20.3-12.2,18.9-24.1l-43-355.7C199.9,16.4,189.2,7.9,177.3,9.3z"/>
</svg>
