<?xml version="1.0" encoding="utf-8"?>
<!-- Generator: Adobe Illustrator 24.3.0, SVG Export Plug-In . SVG Version: 6.00 Build 0)  -->
<svg version="1.1" id="Camada_1" xmlns="http://www.w3.org/2000/svg" xmlns:xlink="http://www.w3.org/1999/xlink" x="0px" y="0px"
	 width="250px" height="435.8px" viewBox="0 0 250 435.8" style="enable-background:new 0 0 250 435.8;" xml:space="preserve">
<style type="text/css">
	.st0{fill:#5E5E68;}
	.st1{fill:#4D4D54;}
	.st2{fill:#26262D;}
	.st3{fill:#1A1A1E;}
</style>
<path class="st0" d="M238.1,164.2l8.4-69.8c0.2-1-0.6-2-1.6-2.1l-3.4-0.4c-1-0.2-2,0.6-2.1,1.6l-8.4,69.8c-0.2,1,0.6,2,1.6,2.1
	l3.4,0.4C237,165.9,237.9,165.2,238.1,164.2z"/>
<path class="st0" d="M233.4,202.8l3.2-26.4c0.2-1-0.6-2-1.6-2.1l-3.4-0.4c-1-0.2-2,0.6-2.1,1.6l-3.2,26.4c-0.2,1,0.6,2,1.6,2.1
	l3.4,0.4C232.3,204.6,233.2,203.8,233.4,202.8z"/>
<path class="st1" d="M206.3,410.2l43.5-359.8c1.9-15.9-9.4-30.3-25.3-32.2L76,0.2C60.1-1.7,45.6,9.6,43.7,25.5L0.2,385.3
	c-1.9,15.9,9.4,30.4,25.3,32.3l148.5,18C189.9,437.5,204.4,426.2,206.3,410.2z"/>
<path class="st2" d="M123.8,20.5L123.8,20.5c0.1-0.7,0.8-1.2,1.5-1.1l46.9,5.7c0.7,0.1,1.2,0.8,1.1,1.5l0,0
	c-0.1,0.7-0.8,1.2-1.5,1.1L124.9,22C124.2,21.9,123.7,21.3,123.8,20.5z"/>
<path class="st2" d="M181.4,29.9c1.3,0.1,2.5-0.8,2.7-2.1c0.1-1.4-0.8-2.5-2.1-2.7c-1.4-0.1-2.5,0.8-2.7,2.1
	C179.2,28.6,180.1,29.7,181.4,29.9L181.4,29.9z"/>
<path class="st2" d="M115.4,21.9c1.3,0.2,2.5-0.8,2.7-2.1c0.1-1.4-0.8-2.5-2.1-2.7c-1.4-0.1-2.5,0.8-2.7,2.1
	C113.2,20.6,114.1,21.7,115.4,21.9L115.4,21.9z"/>
<path class="st3" d="M48.6,28.2l-43,355.7c-1.4,11.9,7,22.7,18.9,24.1l152.7,18.5c11.9,1.4,22.7-7,24.1-18.9l43-355.7
	c1.5-11.9-7-22.7-18.9-23.9l-22.2-2.7l-4.7-0.6c-3.1-0.4-6,1.8-6.4,5c-0.5,3.7-3.9,6.4-7.6,5.9l-73.6-8.9c-3.7-0.5-6.4-3.9-5.9-7.6
	c0.4-3.1-1.8-6-5-6.4l-3-0.4l-24.3-3C60.8,7.9,50.1,16.4,48.6,28.2z"/>
</svg>
