<?xml version="1.0" encoding="utf-8"?>
<!-- Generator: Adobe Illustrator 24.3.0, SVG Export Plug-In . SVG Version: 6.00 Build 0)  -->
<svg version="1.1" id="Camada_1" xmlns="http://www.w3.org/2000/svg" xmlns:xlink="http://www.w3.org/1999/xlink" x="0px" y="0px"
	 width="100px" height="100px" viewBox="0 0 100 100" style="enable-background:new 0 0 100 100;" xml:space="preserve">
<style type="text/css">
	.st0{fill:#49D3FF;}
	.st1{fill:#FFFFFF;}
</style>
<path class="st0" d="M34.5,93.8L3.6,50.7c-3.7-5.2-2.5-12.4,2.7-16.1L49.3,3.6c5.2-3.7,12.4-2.5,16.1,2.7l30.9,43.1
	c3.7,5.2,2.5,12.4-2.7,16.1L50.7,96.4C45.5,100.2,38.2,99,34.5,93.8z"/>
<path class="st1" d="M67.7,38.2c-1-1-2.7-1-3.8,0l-18,18l-9.9-9.9c-1-1-2.7-1-3.8,0c-1,1-1,2.7,0,3.8l11.8,11.8c1,1,2.7,1,3.8,0
	L67.7,42C68.7,40.9,68.7,39.2,67.7,38.2z"/>
</svg>
