<?xml version="1.0" encoding="utf-8"?>
<!-- Generator: Adobe Illustrator 24.3.0, SVG Export Plug-In . SVG Version: 6.00 Build 0)  -->
<svg version="1.1" id="Camada_1" xmlns="http://www.w3.org/2000/svg" xmlns:xlink="http://www.w3.org/1999/xlink" x="0px" y="0px"
	 width="100px" height="100px" viewBox="0 0 100 100" style="enable-background:new 0 0 100 100;" xml:space="preserve">
<style type="text/css">
	.st0{fill:#FE5D7A;}
	.st1{fill:#FFFFFF;}
</style>
<path class="st0" d="M22.2,87.2L5.5,36.9c-2-6.1,1.3-12.6,7.3-14.6L63.1,5.5c6.1-2,12.6,1.3,14.6,7.3l16.8,50.3
	c2,6.1-1.3,12.6-7.3,14.6L36.9,94.6C30.8,96.6,24.3,93.3,22.2,87.2z"/>
<path class="st1" d="M67.7,38.2c-1-1-2.7-1-3.8,0l-18,18l-9.9-9.9c-1-1-2.7-1-3.8,0c-1,1-1,2.7,0,3.8l11.8,11.8c1,1,2.7,1,3.8,0
	L67.7,42C68.7,40.9,68.7,39.2,67.7,38.2z"/>
</svg>
