<?xml version="1.0" encoding="utf-8"?>
<!-- Generator: Adobe Illustrator 24.3.0, SVG Export Plug-In . SVG Version: 6.00 Build 0)  -->
<svg version="1.1" id="Camada_1" xmlns="http://www.w3.org/2000/svg" xmlns:xlink="http://www.w3.org/1999/xlink" x="0px" y="0px"
	 width="100px" height="100px" viewBox="0 0 100 100" style="enable-background:new 0 0 100 100;" xml:space="preserve">
<style type="text/css">
	.st0{fill:#1EED89;}
	.st1{fill:#FFFFFF;}
</style>
<path class="st0" d="M84.1,81.5L32.3,92.9c-6.2,1.4-12.4-2.6-13.8-8.8L7.1,32.3c-1.4-6.2,2.6-12.4,8.8-13.8L67.7,7.1
	C74,5.8,80.2,9.7,81.5,16l11.4,51.8C94.3,74,90.3,80.2,84.1,81.5z"/>
<path class="st1" d="M67.7,38.2c-1-1-2.7-1-3.8,0l-18,18l-9.9-9.9c-1-1-2.7-1-3.8,0c-1,1-1,2.7,0,3.8l11.8,11.8c1,1,2.7,1,3.8,0
	L67.7,42C68.7,40.9,68.7,39.2,67.7,38.2z"/>
</svg>
