<?xml version="1.0" encoding="utf-8"?>
<!-- Generator: Adobe Illustrator 24.3.0, SVG Export Plug-In . SVG Version: 6.00 Build 0)  -->
<svg version="1.1" id="Camada_1" xmlns="http://www.w3.org/2000/svg" xmlns:xlink="http://www.w3.org/1999/xlink" x="0px" y="0px"
	 width="100px" height="100px" viewBox="0 0 100 100" style="enable-background:new 0 0 100 100;" xml:space="preserve">
<style type="text/css">
	.st0{fill:#FFCD4B;}
	.st1{fill:#FFFFFF;}
</style>
<path class="st0" d="M62.7,94.7L12.6,77.5c-6-2.1-9.3-8.7-7.2-14.7l17.2-50.2c2.1-6,8.7-9.3,14.7-7.2l50.2,17.2
	c6,2.1,9.3,8.7,7.2,14.7L77.4,87.5C75.3,93.5,68.8,96.7,62.7,94.7z"/>
<path class="st1" d="M67.7,38.2c-1-1-2.7-1-3.8,0l-18,18l-9.9-9.9c-1-1-2.7-1-3.8,0c-1,1-1,2.7,0,3.8l11.8,11.8c1,1,2.7,1,3.8,0
	L67.7,42C68.7,40.9,68.7,39.2,67.7,38.2z"/>
</svg>
