<?xml version="1.0" encoding="utf-8"?>
<!-- Generator: Adobe Illustrator 24.3.0, SVG Export Plug-In . SVG Version: 6.00 Build 0)  -->
<svg version="1.1" id="Camada_1" xmlns="http://www.w3.org/2000/svg" xmlns:xlink="http://www.w3.org/1999/xlink" x="0px" y="0px"
	 width="100px" height="87.9px" viewBox="0 0 100 87.9" style="enable-background:new 0 0 100 87.9;" xml:space="preserve">
<style type="text/css">
	.st0{fill:#F3F5F9;}
	.st1{fill:#E1E6F0;}
	.st2{fill:#FFBE40;}
	.st3{fill:#FF9F40;}
	.st4{fill:#FFDF40;}
</style>
<g>
	<g>
		<g>
			<g>
				<path class="st0" d="M40.2,44.1H27c-7.9,0-14.4-6.5-14.4-14.4v0c-3.5-2.6-5.8-6.8-5.8-11.5v0c-3.5-2.6-5.9-6.8-5.9-11.5V3.8
					h29.3c8.5,0,15.6,6,17.1,14.3l0.2,0.9l-2.2,4.5l-10.8,1.6l7.8,7.6L40.2,44.1z"/>
			</g>
			<g>
				<path class="st1" d="M73,44.1H59.8l-1.9-11.4l7.8-7.6l-10.8-1.6l-2.2-4.5l0.2-0.9c1.4-8.3,8.6-14.3,17.1-14.3h29.3v2.9
					c0,4.7-2.5,8.9-5.9,11.5v0c0,4.7-2.3,8.9-5.8,11.5v0C87.4,37.7,81,44.1,73,44.1L73,44.1z"/>
			</g>
			<g>
				<path class="st2" d="M47.1,52.7h5.8v34.5h-5.8V52.7z"/>
			</g>
			<g>
				<path class="st3" d="M58.6,58.5h5.8v17.3h-5.8V58.5z"/>
			</g>
			<g>
				<path class="st2" d="M35.6,58.5h5.8v17.3h-5.8V58.5z"/>
			</g>
		</g>
		<path class="st3" d="M50,52.7h2.9v34.5H50V52.7z"/>
		<g>
			<path class="st4" d="M67.4,54.1L50,45l-17.4,9.2L36,34.8l-14-13.7l19.4-2.8L50,0.6l8.7,17.6l19.4,2.8L64,34.8L67.4,54.1z"/>
		</g>
		<path class="st2" d="M67.4,54.1L64,34.8l14-13.7l-19.4-2.8L50,0.6V45L67.4,54.1z"/>
	</g>
</g>
</svg>
