<?xml version="1.0" encoding="utf-8"?>
<!-- Generator: Adobe Illustrator 24.3.0, SVG Export Plug-In . SVG Version: 6.00 Build 0)  -->
<svg version="1.1" id="Camada_1" xmlns="http://www.w3.org/2000/svg" xmlns:xlink="http://www.w3.org/1999/xlink" x="0px" y="0px"
	 width="300px" height="300px" viewBox="0 0 300 300" style="enable-background:new 0 0 300 300;" xml:space="preserve">
<style type="text/css">
	.st0{fill:#555560;}
	.st1{fill:#36363D;}
	.st2{fill:url(#SVGID_1_);}
	.st3{fill:url(#SVGID_2_);}
	.st4{fill:url(#SVGID_3_);}
	.st5{fill:#2196F3;}
</style>
<path class="st0" d="M115.4,88.1l-5-30.9c-0.4-2.2-2.5-3.8-4.7-3.4l-30.9,5c-2.2,0.4-3.8,2.5-3.4,4.7l5,30.9
	c0.4,2.2,2.5,3.8,4.7,3.4l17.1-2.8l-2.4-14.6l-4.1,0.7c-0.4,0.1-0.9-0.2-0.9-0.7L90,75.6c-0.1-0.4,0.2-0.9,0.7-0.9l4.1-0.7l-0.7-4.1
	c-0.8-4.9,2.5-9.6,7.5-10.4l3.2-0.5c0.4-0.1,0.9,0.2,0.9,0.7l0.8,4.9c0.1,0.4-0.2,0.9-0.7,0.9l-3.2,0.5c-1.3,0.2-2.3,1.5-2,2.8
	l0.7,4.1L107,72c0.1,0,0.2,0,0.3,0c0.4,0.1,0.8,0.5,0.7,0.9l-0.8,5.1c-0.1,0.3-0.3,0.6-0.7,0.7l-4.1,0.7l2.4,14.6l7.3-1.2
	C114.3,92.5,115.8,90.4,115.4,88.1z"/>
<path class="st1" d="M264.2,265.3l-7.8-22.9c-0.6-1.7-2.4-2.6-4-2l-22.9,7.8c-1.7,0.6-2.6,2.4-2,4l7.8,22.9c0.6,1.7,2.4,2.6,4,2
	l12.7-4.3l-3.7-10.9l-3,1c-0.3,0.1-0.7-0.1-0.8-0.4l-1.2-3.6c-0.1-0.3,0.1-0.7,0.4-0.8l3-1l-1-3c-1.2-3.7,0.7-7.6,4.4-8.9l2.4-0.8
	c0.3-0.1,0.7,0.1,0.8,0.4l1.2,3.6c0.1,0.3-0.1,0.7-0.4,0.8l-2.4,0.8c-1,0.3-1.5,1.4-1.2,2.4l1,3l4.2-1.4c0.1,0,0.1,0,0.2,0
	c0.4,0,0.6,0.3,0.6,0.6l0,4c0,0.3-0.2,0.5-0.4,0.6l-3,1l3.7,10.9l5.4-1.8C263.9,268.7,264.8,266.9,264.2,265.3z"/>
<g>
	
		<linearGradient id="SVGID_1_" gradientUnits="userSpaceOnUse" x1="-522.0685" y1="-709.6014" x2="-420.104" y2="-607.637" gradientTransform="matrix(0.9608 -0.2771 0.2771 0.9608 865.9893 618.6136)">
		<stop  offset="0" style="stop-color:#FFD600"/>
		<stop  offset="0.5" style="stop-color:#FF0100"/>
		<stop  offset="1" style="stop-color:#D800B9"/>
	</linearGradient>
	<path class="st2" d="M282.3,75.2c-2.1-6.2-4.3-10.2-6.9-13.5c-2.6-3.5-6-6.4-9.8-8.5c-3.8-2.1-8-3.4-12.4-3.8
		c-4.2-0.4-8.7-0.1-15.1,1.4c-6.4,1.5-8.4,2-24.4,6.6s-18,5.3-24.2,7.4c-6.2,2.1-10.2,4.3-13.5,6.9c-3.5,2.6-6.4,6-8.5,9.8
		c-2.1,3.8-3.4,8-3.8,12.4c-0.4,4.2-0.1,8.7,1.4,15.1c1.5,6.4,2,8.4,6.6,24.4c4.6,16,5.3,18,7.4,24.2c2.1,6.2,4.3,10.2,6.9,13.5
		c2.6,3.5,6,6.4,9.8,8.5c3.8,2.1,8,3.4,12.4,3.8c4.2,0.4,8.7,0.1,15.1-1.4c6.4-1.5,8.4-2,24.4-6.6c16-4.6,18-5.3,24.2-7.4
		c6.2-2.1,10.2-4.3,13.5-6.9c7-5.3,11.5-13.4,12.2-22.2c0.4-4.2,0.1-8.7-1.4-15.1c-1.5-6.4-2-8.4-6.6-24.4
		C285.1,83.4,284.4,81.4,282.3,75.2z M285.6,126.3c1.4,5.8,1.3,9.2,1.1,11.5c-0.5,5.7-3.4,10.9-7.9,14.4c-1.8,1.4-4.7,3.3-10.3,5.2
		c-6.1,2.1-8,2.7-23.7,7.2c-15.7,4.5-17.6,5-23.9,6.5c-5.8,1.4-9.2,1.3-11.5,1.1c-2.8-0.2-5.6-1-8-2.5c-2.5-1.3-4.7-3.2-6.4-5.5
		c-1.4-1.8-3.3-4.7-5.2-10.3c-2.1-6.1-2.7-8-7.2-23.7c-4.5-15.7-5-17.6-6.5-23.9c-1.4-5.8-1.3-9.2-1.1-11.5c0.2-2.8,1-5.6,2.5-8
		c1.3-2.5,3.2-4.7,5.5-6.4c1.8-1.4,4.7-3.3,10.3-5.2c6.1-2.1,8-2.7,23.7-7.2l0,0c15.7-4.5,17.6-5,23.9-6.5c5.8-1.4,9.2-1.3,11.5-1.1
		c2.8,0.2,5.6,1,8,2.5c2.5,1.3,4.7,3.2,6.4,5.5c1.4,1.8,3.3,4.7,5.2,10.3c2.1,6.1,2.7,8,7.2,23.7C283.6,118.1,284.1,120,285.6,126.3
		z"/>
	
		<linearGradient id="SVGID_2_" gradientUnits="userSpaceOnUse" x1="-493.3326" y1="-680.8643" x2="-448.8412" y2="-636.3729" gradientTransform="matrix(0.9608 -0.2771 0.2771 0.9608 865.9893 618.6136)">
		<stop  offset="0" style="stop-color:#FF6400"/>
		<stop  offset="0.5" style="stop-color:#FF0100"/>
		<stop  offset="1" style="stop-color:#FD0056"/>
	</linearGradient>
	<path class="st3" d="M222.1,86.1c-16.7,4.8-26.3,22.3-21.5,38.9c4.8,16.7,22.3,26.3,38.9,21.5c16.7-4.8,26.3-22.3,21.5-38.9
		C256.2,90.9,238.8,81.3,222.1,86.1z M236.5,136c-10.8,3.1-22.2-3.1-25.3-14c-3.1-10.8,3.1-22.2,14-25.3c10.8-3.1,22.2,3.1,25.3,14
		C253.6,121.5,247.3,132.8,236.5,136z"/>
	
		<linearGradient id="SVGID_3_" gradientUnits="userSpaceOnUse" x1="-2872.2974" y1="15452.6484" x2="-2861.9001" y2="15463.0459" gradientTransform="matrix(0.9608 -0.2771 -0.2771 -0.9608 7291.8447 14133.6904)">
		<stop  offset="0" style="stop-color:#F30072"/>
		<stop  offset="1" style="stop-color:#E50097"/>
	</linearGradient>
	<path class="st4" d="M260.3,73.8c1.1,3.9-1.1,8-5,9.1c-3.9,1.1-8-1.1-9.1-5c-1.1-3.9,1.1-8,5-9.1C255.1,67.7,259.1,69.9,260.3,73.8
		z"/>
</g>
<g>
	<path class="st0" d="M202.6,234.3c1.1-2.3,1.6-4,1.8-5.6c0.2-1.7,0.1-3.4-0.4-5c-0.5-1.6-1.3-3.1-2.3-4.4c-1-1.2-2.3-2.4-4.5-3.8
		c-2.2-1.3-2.9-1.7-8.5-4.9c-5.6-3.1-6.4-3.5-8.6-4.6c-2.3-1.1-4-1.6-5.6-1.8c-1.7-0.2-3.4-0.1-5,0.4c-1.6,0.5-3.1,1.3-4.4,2.3
		c-1.2,1-2.4,2.4-3.8,4.5c-1.3,2.2-1.7,2.9-4.9,8.5c-3.1,5.6-3.5,6.4-4.6,8.6c-1.1,2.3-1.6,4-1.8,5.6c-0.2,1.7-0.1,3.4,0.4,5
		c0.5,1.6,1.3,3.1,2.3,4.4c1,1.2,2.3,2.4,4.5,3.8c2.2,1.3,2.9,1.7,8.5,4.9c5.6,3.1,6.4,3.5,8.6,4.6c2.3,1.1,4,1.6,5.6,1.8
		c3.4,0.5,6.8-0.5,9.4-2.7c1.2-1,2.4-2.3,3.8-4.5c1.3-2.2,1.7-2.9,4.9-8.5C201.1,237.3,201.4,236.5,202.6,234.3z M189.4,249.1
		c-1.2,2-2.2,2.9-2.9,3.5c-1.7,1.4-3.9,2.1-6.1,1.8c-0.9-0.1-2.2-0.4-4.2-1.4c-2.2-1.1-2.9-1.5-8.5-4.5c-5.5-3.1-6.2-3.5-8.3-4.8
		c-2-1.2-2.9-2.2-3.5-2.9c-0.7-0.8-1.2-1.8-1.5-2.9c-0.3-1.1-0.4-2.2-0.2-3.2c0.1-0.9,0.4-2.2,1.4-4.2c1.1-2.2,1.5-2.9,4.5-8.5
		c3.1-5.5,3.5-6.2,4.8-8.3c1.2-2,2.2-2.9,2.9-3.5c0.8-0.7,1.8-1.2,2.9-1.5c1.1-0.3,2.2-0.4,3.2-0.2c0.9,0.1,2.2,0.4,4.2,1.4
		c2.2,1.1,2.9,1.5,8.5,4.5l0,0c5.5,3.1,6.2,3.5,8.3,4.8c2,1.2,2.9,2.2,3.5,2.9c0.7,0.8,1.2,1.8,1.5,2.9c0.3,1.1,0.4,2.2,0.2,3.2
		c-0.1,0.9-0.4,2.2-1.4,4.2c-1.1,2.2-1.5,2.9-4.5,8.5C191.1,246.4,190.7,247,189.4,249.1z"/>
	<path class="st0" d="M183.1,220.7c-5.9-3.3-13.3-1.1-16.6,4.7s-1.1,13.3,4.7,16.6c5.9,3.3,13.3,1.1,16.6-4.7S189,224,183.1,220.7z
		 M173.3,238.3c-3.8-2.1-5.2-6.9-3.1-10.8c2.1-3.8,6.9-5.2,10.8-3.1c3.8,2.1,5.2,6.9,3.1,10.8C182,239,177.2,240.4,173.3,238.3z"/>
	<path class="st0" d="M196.9,227.8c-0.8,1.4-2.5,1.9-3.9,1.1c-1.4-0.8-1.9-2.5-1.1-3.9c0.8-1.4,2.5-1.9,3.9-1.1
		C197.2,224.7,197.7,226.5,196.9,227.8z"/>
</g>
<g>
	<path class="st1" d="M162.4,32.8c0.3-1.4,0.4-2.4,0.3-3.4c-0.1-1-0.4-1.9-0.8-2.8c-0.5-0.9-1.1-1.6-1.9-2.2c-0.7-0.6-1.6-1.1-3-1.5
		c-1.4-0.5-1.8-0.6-5.4-1.6s-4-1.1-5.4-1.5c-1.4-0.3-2.4-0.4-3.4-0.3c-1,0.1-1.9,0.4-2.8,0.8c-0.9,0.5-1.6,1.1-2.2,1.9
		c-0.6,0.7-1.1,1.6-1.5,3c-0.5,1.4-0.6,1.8-1.6,5.4c-1,3.6-1.1,4-1.5,5.4c-0.3,1.4-0.4,2.4-0.3,3.4c0.1,1,0.4,1.9,0.8,2.8
		c0.5,0.9,1.1,1.6,1.9,2.2c0.7,0.6,1.6,1.1,3,1.5c1.4,0.5,1.8,0.6,5.4,1.6c3.6,1,4,1.1,5.4,1.5c1.4,0.3,2.4,0.4,3.4,0.3
		c2-0.2,3.8-1.2,4.9-2.7c0.6-0.7,1.1-1.6,1.5-3c0.5-1.4,0.6-1.8,1.6-5.4C161.9,34.6,162,34.2,162.4,32.8z M156.9,42.8
		c-0.4,1.3-0.8,1.9-1.2,2.3c-0.8,1-1.9,1.7-3.2,1.8c-0.5,0-1.3,0.1-2.6-0.2c-1.4-0.3-1.8-0.4-5.3-1.4c-3.5-1-3.9-1.1-5.3-1.6
		c-1.3-0.4-1.9-0.8-2.3-1.2c-0.5-0.4-0.9-0.9-1.2-1.4c-0.3-0.5-0.5-1.2-0.5-1.8c0-0.5-0.1-1.3,0.2-2.6c0.3-1.4,0.4-1.8,1.4-5.3
		c1-3.5,1.1-3.9,1.6-5.3c0.4-1.3,0.8-1.9,1.2-2.3c0.4-0.5,0.9-0.9,1.4-1.2c0.5-0.3,1.2-0.5,1.8-0.5c0.5,0,1.3-0.1,2.6,0.2
		c1.4,0.3,1.8,0.4,5.3,1.4l0,0c3.5,1,3.9,1.1,5.3,1.6c1.3,0.4,1.9,0.8,2.3,1.2c0.5,0.4,0.9,0.9,1.2,1.4c0.3,0.5,0.5,1.2,0.5,1.8
		c0,0.5,0.1,1.3-0.2,2.6c-0.3,1.4-0.4,1.8-1.4,5.3C157.5,41,157.4,41.4,156.9,42.8z"/>
	<path class="st1" d="M149.7,27.7c-3.7-1.1-7.6,1.1-8.7,4.8c-1.1,3.7,1.1,7.6,4.8,8.7c3.7,1.1,7.6-1.1,8.7-4.8
		C155.6,32.6,153.4,28.8,149.7,27.7z M146.5,38.8c-2.4-0.7-3.8-3.2-3.1-5.6c0.7-2.4,3.2-3.8,5.6-3.1c2.4,0.7,3.8,3.2,3.1,5.6
		C151.4,38.1,148.9,39.5,146.5,38.8z"/>
	<path class="st1" d="M158.4,29.9c-0.2,0.9-1.2,1.4-2,1.1c-0.9-0.2-1.4-1.2-1.1-2c0.2-0.9,1.2-1.4,2-1.1
		C158.1,28.1,158.6,29,158.4,29.9z"/>
</g>
<path class="st5" d="M131.9,137.3l-88.2-26.1c-6.4-1.9-13.1,1.8-15,8.2L2.6,207.5c-1.9,6.4,1.8,13.1,8.2,15L59.5,237l12.4-41.8
	l-11.6-3.4c-1.3-0.4-2-1.7-1.6-3l4.1-13.9c0.4-1.3,1.7-2,3-1.6l11.6,3.4l3.4-11.6c4.2-14.1,19-22.1,33.1-18l9.3,2.7
	c1.3,0.4,2,1.7,1.6,3l-4.1,13.9c-0.4,1.3-1.7,2-3,1.6l-9.3-2.7c-3.8-1.1-7.9,1.1-9,4.9l-3.4,11.6l16.2,4.8c0.2,0.1,0.5,0.2,0.7,0.3
	c1.1,0.8,1.4,2.3,0.6,3.4l-8.8,12.5c-0.6,0.9-1.7,1.2-2.7,0.9l-11.6-3.4l-12.4,41.8l20.9,6.2c6.4,1.9,13.1-1.8,15-8.2l26.1-88.2
	C142,146,138.3,139.2,131.9,137.3z"/>
</svg>
