<?xml version="1.0" encoding="utf-8"?>
<!-- Generator: Adobe Illustrator 24.3.0, SVG Export Plug-In . SVG Version: 6.00 Build 0)  -->
<svg version="1.1" id="Camada_1" xmlns="http://www.w3.org/2000/svg" xmlns:xlink="http://www.w3.org/1999/xlink" x="0px" y="0px"
	 width="400px" height="400px" viewBox="0 0 400 400" style="enable-background:new 0 0 400 400;" xml:space="preserve">
<style type="text/css">
	.st0{fill:#292930;}
	.st1{fill:#48C1E1;}
	.st2{fill:#046699;}
	.st3{opacity:0.1;}
	.st4{fill:#A2DFF9;}
	.st5{opacity:0.1;enable-background:new    ;}
	.st6{fill:#EF5050;}
	.st7{fill:#C0272D;}
	.st8{fill:#89C947;}
	.st9{fill:#D5E962;}
	.st10{fill:#FFC502;}
	.st11{fill:#368C0E;}
	.st12{fill:#F7931E;}
	.st13{fill:#E6E9ED;}
</style>
<rect class="st0" width="400" height="400"/>
<rect x="136.1" y="256.2" transform="matrix(0.9482 -0.3177 0.3177 0.9482 -76.2236 60.6031)" class="st1" width="23.3" height="15.6"/>
<path class="st2" d="M160.3,249.8c0.4,1.3-0.3,2.5-1.4,3l-26.8,8.9c-1.3,0.4-2.5-0.3-3-1.4l-5.3-15.8c-0.4-1.3,0.3-2.5,1.4-3
	l26.8-8.9c1.3-0.4,2.5,0.3,3,1.4L160.3,249.8L160.3,249.8z"/>
<g class="st3">
	<path d="M138.3,257.1l-5.3-15.8c-0.4-1.3,0.3-2.5,1.4-3l-9.1,3c-1.3,0.4-1.9,1.7-1.4,3l5.3,15.8c0.4,1.3,1.7,1.9,3,1.4l9.1-3
		C140,259,138.7,258.4,138.3,257.1z"/>
</g>
<path class="st4" d="M167.4,382c0.1-0.1,0.2-0.2,0.2-0.4c0-0.1-0.1-0.3-0.2-0.4c-0.3-0.3-0.4-0.5-0.6-0.9c-0.8-2.3,3.6-6.6,11.4-9.2
	c2.5-0.8,5-1.3,7.3-1.5h0.1c0.1,0,0.2-0.1,0.3-0.3c0.1-0.2,0.1-0.3,0-0.4c-3.1-4.9-5.8-10.3-7.9-15.8c0-0.1-0.1-0.1-0.1-0.2
	c-0.3-0.8-0.5-1.6-0.9-2.4c-0.4-1,0.2-2.1,1.2-2.4l3.8-1.3c0.1,0,0.2-0.1,0.3-0.3c0.1-0.2,0.1-0.3,0-0.4c-0.3-0.5-0.4-1-0.6-1.4
	c-2-6,0.1-12.5,5.2-16.3c0.1-0.1,0.2-0.2,0.2-0.4c0-0.1,0-0.3-0.1-0.4c-0.9-0.9-1.6-1.9-2.2-3c-3-5.5-1.8-12.2,2.7-16.4
	c0.2-0.2,0.2-0.4,0.1-0.6c-0.4-0.6-0.9-1.3-1.3-2c-2.4-4.4-2.1-9.5,0.4-13.5l-6.2-18.3c-2.2-6.7-9.6-10.4-16.4-8.1l-28.1,9.6
	c-6.7,2.2-10.4,9.6-8.1,16.4l32.9,98.2C162.5,387,164.7,384.3,167.4,382z"/>
<path class="st2" d="M186.9,328.6c0.1-0.1,0.2-0.2,0.2-0.4c0-0.1,0-0.3-0.1-0.4c-0.9-0.9-1.6-1.9-2.2-3c-3-5.5-1.8-12.2,2.7-16.4
	c0.2-0.2,0.2-0.4,0.1-0.6c-0.4-0.6-0.9-1.3-1.3-2c-2.4-4.4-2.1-9.5,0.4-13.5l-2.8-8.2l-52.6,17.6l15.2,45.4l35.4-11.9
	C182.8,332.7,184.5,330.3,186.9,328.6z"/>
<path class="st5" d="M170.4,375.1L141,287.4c-2.2-6.7,1.4-14.1,8.1-16.4l-13.2,4.4c-6.7,2.2-10.4,9.6-8.1,16.4l32.9,98.2
	c1.8-2.9,4-5.5,6.7-7.9c0.1-0.1,0.2-0.2,0.2-0.4c0-0.1-0.1-0.3-0.2-0.4c-0.3-0.3-0.4-0.5-0.6-0.9
	C166.3,379.2,167.6,377.1,170.4,375.1z"/>
<path class="st6" d="M228.1,283.2c0.4,0.6,0.7,1.3,0.9,2.1c0.1,0.2,0.3,0.4,0.5,0.3c5.6-1.3,11.5,1,14.6,5.9
	c0.1,0.1,0.3,0.2,0.4,0.2h0.1c0.1,0,0.2-0.1,0.3-0.2c1.5-2.9,3.8-5,6.8-6.3c0.2-0.1,0.4-0.4,0.3-0.5c-1.8-6.1-1.3-12.5,1.5-18.2
	c0.1-0.1,0.1-0.3,0.2-0.4c-3-5.6-7.6-10.5-13.7-13.5c-1.2-0.6-2.7-0.1-3.2,1.1l-12.4,25.1C225.8,280,227.1,281.5,228.1,283.2z"/>
<g>
	<path class="st7" d="M244.1,291.6c0.1,0.1,0.3,0.2,0.4,0.2h0.1c0.1,0,0.2-0.1,0.3-0.2c0.7-1.3,1.7-2.6,2.8-3.7
		c-0.3-0.4-0.7-0.8-1.3-1.1l-4.1-2.1c-1.7-0.8-3.7-0.2-4.6,1.5l0,0C240.4,287.4,242.6,289.1,244.1,291.6z"/>
	<path class="st7" d="M247.6,279.8l-4.4,1.4c-1.8,0.6-3.7-0.4-4.3-2.1c-0.6-1.8,0.4-3.7,2.1-4.3l4.4-1.4c1.8-0.6,3.7,0.4,4.3,2.1
		C250.3,277.4,249.4,279.3,247.6,279.8z"/>
	<path class="st7" d="M239.7,272.7c-0.8,0.3-1.7,0.3-2.6-0.2c-1.7-0.8-2.3-2.9-1.5-4.6l2.1-4.1c0.8-1.7,2.9-2.3,4.6-1.5
		c1.7,0.8,2.3,2.9,1.5,4.6l-2.1,4.1C241.2,271.9,240.5,272.4,239.7,272.7z"/>
</g>
<path class="st8" d="M277.6,252.7c-0.1-0.1-0.2-0.2-0.3-0.2c-0.1-0.1-0.2-0.1-0.4-0.1c-10-0.5-19.4,4.9-23.9,13.9
	c-3,6-3.4,12.8-1.4,18.9c0.4-0.2,0.9-0.4,1.3-0.5c6.6-2.2,13.8,0.7,17.1,6.5c4.6-2.4,8.4-6.3,10.8-11.1
	C285.4,271.3,284,260.4,277.6,252.7z"/>
<path class="st9" d="M269.8,267.7c-1.7-0.8-3.7-0.2-4.6,1.5l-7.3,14.8c2.3,0.1,4.7,0.7,6.6,1.8l6.8-13.6
	C272.1,270.5,271.4,268.6,269.8,267.7z"/>
<g>
	<path class="st10" d="M294.4,287.9c0.4,0.6,0.6,1.3,0.8,1.9c0.1,0.2,0.3,0.4,0.5,0.3c1.8-0.4,3.6-0.4,5.5-0.1c0.1,0,0.2,0,0.3,0
		c0.1,0,0.2-0.1,0.3-0.3c0.3-0.5,0.4-1,0.6-1.4c1.7-3.4,4.2-6.4,7.2-8.5c-0.1-1.3-0.4-2.6-0.7-3.8c-2.6-7.8-11-12-18.8-9.4
		c-6.6,2.2-10.6,8.7-10.1,15.4C285.6,280.3,291.7,282.7,294.4,287.9z"/>
	<path class="st10" d="M204.2,339.1c-2.2-2.1-4.1-4.6-5.4-7.2c-4.4,0.7-8.8-0.8-11.9-3.9c-5.4,3.7-7.9,10.6-5.7,17
		c0.2,0.5,0.4,1.1,0.6,1.6L204.2,339.1L204.2,339.1L204.2,339.1z"/>
</g>
<path class="st8" d="M309.4,296.1c1.3,2.2,1.7,4.7,1.3,7.2l18.1-6.1c2.2-7.4,0.7-15.7-4.5-21.7c-0.1-0.1-0.2-0.2-0.3-0.2
	s-0.2-0.1-0.3-0.1c-9.2-0.5-17.8,4.5-21.9,12.8c-0.3,0.6-0.5,1.3-0.8,1.9C304.6,290.8,307.7,292.9,309.4,296.1z"/>
<path class="st9" d="M310.8,303.4l3.9-1.3l4.2-8.4c0.8-1.7,0.2-3.7-1.5-4.6c-1.7-0.8-3.7-0.2-4.6,1.5l-3.1,6.3
	C310.7,299,311.1,301.1,310.8,303.4z"/>
<path class="st11" d="M244.7,291.7c-3.2-5.3-9.5-7.8-15.3-6.4c-0.3-0.7-0.5-1.5-1-2.2c-3.7-6.8-12.3-9.4-19.1-5.6
	c-3.6,1.9-5.9,5.1-6.9,8.8c-3.6-1.2-7.5-0.9-11.1,1c-6.8,3.7-9.4,12.3-5.7,19.1c0.4,0.7,0.8,1.3,1.3,2c-4.6,4.3-5.8,11.2-2.8,16.9
	c3,5.4,8.9,8.1,14.7,7.2c-1.8-3.5-2.6-7.4-2.4-11.5v-0.1c0,0,0-0.1,0.1-0.1c2.2-1.9,4.7-3.3,7.4-4.2c5.7-1.9,11.9-1.5,17.3,1.3
	c0.4,0.2,0.8,0.4,1.2,0.6c-0.7-1.4-1.3-2.9-1.9-4.4c-0.4-1.1,0.2-2.1,1.3-2.5l22.4-7.5c-0.1-0.3-0.3-0.6-0.4-0.9
	C242.6,299.2,243.1,295.1,244.7,291.7z"/>
<g>
	<path class="st8" d="M198.4,308.6L198.4,308.6c-1.8,0.5-3.8-0.4-4.3-2.1c-1.8-5.5,1.3-11.5,6.8-13.4c0.1,0,0.1,0,0.2-0.1
		c2.8-0.9,5.9-0.5,8.4,0.8c1.6,0.9,2.2,3,1.3,4.6c-0.9,1.6-3,2.2-4.6,1.3c-1-0.5-2.1-0.6-3.1-0.3c-2.1,0.6-3.2,2.9-2.6,5
		C201.1,306.1,200.2,307.9,198.4,308.6z"/>
	<path class="st8" d="M217.9,308.1c-0.4,0.1-0.8,0.2-1.2,0.2c-1.9-0.1-3.3-1.6-3.2-3.5c0.2-5.4,4.7-9.7,10.1-9.5
		c2.7,0.1,5.3,1.3,7.1,3.3c1.3,1.4,1.1,3.5-0.3,4.7c-1.4,1.3-3.5,1.1-4.7-0.3c-0.5-0.6-1.3-1-2.2-1.1c-1.7-0.1-3.1,1.3-3.2,3
		C220.2,306.5,219.3,307.8,217.9,308.1z"/>
</g>
<path class="st11" d="M271.5,294.8L271.5,294.8L271.5,294.8l4.2-1.3c1.3-0.4,2.7,0.3,3,1.5c2.1,6.4,2.1,13.1,0.2,19.1l32.3-10.8
	c0.3-2.4-0.2-5-1.4-7.3c-2.8-5.2-8.7-7.6-14.1-6.3c-0.3-0.7-0.5-1.3-0.9-2c-3.3-6.2-11-8.5-17.2-5.1c-3.2,1.7-5.4,4.7-6.3,7.9
	c-0.7-0.3-1.4-0.4-2.2-0.5c0.9,1.2,1.6,2.5,2.1,3.9C271.3,294.2,271.4,294.4,271.5,294.8z"/>
<path class="st12" d="M272,294.6c-0.1-0.3-0.2-0.6-0.3-0.9c-2.6-7.8-11-12-18.8-9.4c-7.8,2.6-12,11-9.4,18.9
	c0.1,0.3,0.2,0.6,0.4,0.9L272,294.6z"/>
<path class="st8" d="M221.6,317.2c-8.2-4.1-18.2-3-25.2,3c-0.1,0.1-0.2,0.2-0.2,0.3c0,0.1-0.1,0.2-0.1,0.3
	c-0.4,7.1,2.5,13.9,7.6,18.4l29-9.8c-4.3-3-7.8-6.9-10.2-11.8C222.2,317.6,222,317.4,221.6,317.2z"/>
<path class="st9" d="M217.2,334.8l9-3l-11.9-5.9c-1.7-0.8-3.7-0.2-4.6,1.5c-0.8,1.7-0.2,3.7,1.5,4.6L217.2,334.8z"/>
<path class="st6" d="M279.2,314c2.1-6.2,2.2-13.1,0-19.7c-0.4-1.3-1.8-2-3-1.5L221.8,311c-1.3,0.4-2,1.8-1.5,3
	c2.2,6.6,6.4,12,11.8,15.7L279.2,314z"/>
<g>
	<path class="st7" d="M259,320.7l-0.7-2.2c-0.6-1.8-2.5-2.7-4.3-2.1c-1.8,0.6-2.7,2.5-2.1,4.3l0.7,2.2L259,320.7z"/>
	<path class="st7" d="M265.1,318.7l5-1.7c0.6-1.6-0.1-3.4-1.6-4.2l-4.1-2.1c-1.7-0.8-3.7-0.2-4.6,1.5c-0.8,1.7-0.2,3.7,1.5,4.6
		L265.1,318.7z"/>
	<path class="st7" d="M245.9,325.1l1.9-3.8c0.8-1.7,0.2-3.7-1.5-4.6c-1.7-0.8-3.7-0.2-4.6,1.5l-2.1,4.1c-0.8,1.5-0.3,3.4,1.3,4.4
		L245.9,325.1L245.9,325.1z"/>
	<path class="st7" d="M238.1,318.1l-4.4,1.4c-1.8,0.6-3.7-0.4-4.3-2.1c-0.6-1.8,0.4-3.7,2.1-4.3l4.4-1.4c1.8-0.6,3.7,0.4,4.3,2.1
		C240.8,315.6,239.8,317.6,238.1,318.1z"/>
	<path class="st7" d="M271.8,306.9l-4.4,1.4c-1.8,0.6-3.7-0.4-4.3-2.1s0.4-3.7,2.1-4.3l4.4-1.4c1.8-0.6,3.7,0.4,4.3,2.1
		C274.5,304.4,273.6,306.3,271.8,306.9z"/>
</g>
<path class="st13" d="M186.1,369.7L186.1,369.7c0.2,0,0.3-0.1,0.4-0.2s0.1-0.3,0.1-0.4l-1.8-5.4c-0.5-1.5,0.4-3.2,1.9-3.7
	c1.5-0.5,3.2,0.4,3.7,1.9l1.8,5.4c0,0.1,0.2,0.3,0.3,0.3c0.1,0,0.2,0,0.3,0c0,0,0.1,0,0.1-0.1c2.1-1.3,4.6-2.6,7.3-3.5
	c7.8-2.6,13.8-1.8,14.6,0.5c0.1,0.3,0.1,0.6,0,1.1c0,0.1,0,0.3,0.1,0.4c0.1,0.1,0.2,0.2,0.4,0.2c11.3,0.8,21.3,7.1,25.9,16.6
	c0.1,0.1,0.2,0.2,0.3,0.3c0.1,0,0.2,0,0.3,0s0.1,0,0.2-0.1l58.8-48.1c1.2-0.9,2.4-1.6,3.8-2.1c2-0.6,4-0.8,6.1-0.4
	c3.5,0.6,6.5,2.9,8.2,6l1.6,3c0.1,0.1,0.2,0.2,0.4,0.3c0.1,0,0.1,0,0.2,0s0.2-0.1,0.2-0.1l18.2-20.9c-0.4-7.6-1.8-15.1-4.3-22.5
	c-0.4-1.3-1.7-1.9-3-1.4l-154,51.6c-1.3,0.4-1.9,1.7-1.4,3c2.2,6.8,5.4,13.2,9.1,19.1C185.8,369.8,186,369.7,186.1,369.7z"/>
<path class="st5" d="M186.1,369.7L186.1,369.7c0.2,0,0.3-0.1,0.4-0.2s0.1-0.3,0.1-0.4l-1.8-5.4c-0.5-1.5,0.4-3.2,1.9-3.7
	c1.5-0.5,3.2,0.4,3.7,1.9l1.8,5.4c0,0.1,0.2,0.3,0.3,0.3c0.1,0,0.2,0,0.3,0c0,0,0.1,0,0.1-0.1c1.7-1.2,3.8-2.2,6.2-3.1
	c-3.6-5.6-6.4-11.7-8.7-18.3c-0.4-1.3,0.3-2.5,1.4-3l-13.7,4.6c-1.3,0.4-1.9,1.7-1.4,3c2.2,6.8,5.4,13.2,9.1,19.1
	C185.8,369.8,186,369.7,186.1,369.7z"/>
<path class="st8" d="M189.9,370.1c0.7-0.8,1.6-1.6,2.8-2.3l-2.1-6.1c-0.6-1.8-2.5-2.7-4.3-2.1c-1.8,0.6-2.7,2.5-2.1,4.3l2.1,6.1
	C187.7,369.8,188.9,369.9,189.9,370.1z"/>
<path class="st11" d="M215.1,364.3c-1-3-7.8-3.3-15.2-0.8c-4.6,1.5-8.2,3.8-10.2,5.9c-2.9-0.5-7.2-0.1-11.7,1.4
	c-7.4,2.5-12.6,6.9-11.6,9.8c0.8,2.4,5.5,3,11.3,1.9c-2.5,3.8-3,7.2-1.2,8.3c2.5,1.4,8.5-1.6,13.3-6.9c1.3-1.5,2.5-3,3.3-4.4
	c1.5,0.6,3.3,1.2,5.3,1.5c7,1.3,13.6,0.2,14.8-2.5c0.9-2.1-1.6-4.4-5.9-5.9C212.6,370.1,215.9,366.7,215.1,364.3z"/>
<path class="st8" d="M372.4,332.7l-2.4-4.4c-0.8-1.5-2.7-2.1-4.2-1.3l-31.1,17.2l16.5-21.2c0.8-1,0.8-2.3,0.3-3.4
	c-0.2-0.3-0.4-0.5-0.6-0.8l-3.8-3.4c-0.6-0.5-1.4-0.8-2.3-0.8c-0.8,0.1-1.6,0.4-2.1,1.1l-22.1,25.5l14.7,26.4l33.5-4.9
	c0.8-0.1,1.6-0.5,2.1-1.3c0.5-0.7,0.7-1.5,0.5-2.3l-0.9-5c-0.1-0.4-0.2-0.6-0.4-1c-0.6-1.1-1.8-1.7-3-1.6l-26.8,2.6l31.1-17.2
	C372.7,336.1,373.2,334.2,372.4,332.7z"/>
<path class="st12" d="M299.1,400l31.8-10.6c3.5-1.2,6.4-3.8,7.7-7.2c1.3-3.4,1.1-7.3-0.7-10.6l-18.7-33.7c-1.8-3.2-4.9-5.5-8.6-6.2
	c-3.7-0.7-7.4,0.3-10.3,2.6L220,400H299.1z"/>
<path class="st10" d="M320.1,376.3c-0.9-1.6-3-2.2-4.6-1.3c-1.6,0.9-2.2,3-1.3,4.6l7.2,12.9l6.5-2.1L320.1,376.3z"/>
<path class="st10" d="M304.1,386c-0.9-1.6-3-2.2-4.6-1.3c-1.6,0.9-2.2,3-1.3,4.6l5.2,9.4l6.5-2.1L304.1,386z"/>
<path class="st10" d="M279,367.5c0.9,1.3,2.5,1.9,3.9,1.3c0.3-0.1,0.5-0.2,0.7-0.4c1.6-1,2.1-3.1,1-4.7l-7.1-11.1l-5.3,4.3
	L279,367.5z"/>
<path class="st6" d="M220.7,400l21-17.2c-4.9-10.2-15.4-16.6-27-17.2c-0.4,2-3.4,4.7-7.7,6.6c-0.2,0.1-0.3,0.3-0.3,0.4
	c0,0.2,0.1,0.4,0.3,0.4c3,1.1,5,2.5,5.6,3.9c0.2,0.5,0.3,1,0,1.4c-0.4,0.8-1.3,1.5-2.8,2l0,0c-2.9,1-7.2,1.1-11.5,0.3
	c-1.9-0.4-3.7-0.8-5.2-1.4c-0.1,0-0.2,0-0.3,0c-0.1,0-0.2,0.1-0.3,0.2c-0.9,1.4-2,2.9-3.3,4.3c-3,3.2-6.4,5.7-9.3,6.7
	c-1.5,0.5-2.7,0.5-3.4,0.1c-0.4-0.3-0.7-0.6-0.8-1.2c-0.4-1.4,0.4-3.9,2.1-6.5c0.1-0.2,0.1-0.4,0-0.5s-0.3-0.2-0.4-0.2
	c-4.7,1-8.6,0.6-10.1-0.7c-5.8,4.9-9.8,11.5-11.2,18.6L220.7,400L220.7,400z"/>
<path class="st5" d="M169.5,400c0.3-6.4,2.5-12.4,6.4-17.6c-3.9,0.6-7.2,0.2-8.5-1c-5.8,4.9-9.8,11.5-11.2,18.6L169.5,400L169.5,400
	z"/>
<path class="st5" d="M236.5,400l70.7-58c3-2.4,6.9-3.5,10.7-2.8c0.8,0.2,1.6,0.4,2.3,0.6l-1.3-2.2c-1.8-3.2-4.9-5.5-8.6-6.2
	c-3.7-0.7-7.4,0.3-10.3,2.6L220,400H236.5z"/>
<path class="st10" d="M235.9,400h4.6c1.2-1.1,1.4-2.8,0.6-4.2l-5.2-8.9l-5.3,4.3l4.7,7.9C235.5,399.6,235.6,399.7,235.9,400z"/>
<path class="st10" d="M264.9,400h7.7l-3-5.6c-0.9-1.6-3-2.2-4.6-1.3c-1.6,0.9-2.2,3-1.3,4.6L264.9,400z"/>
</svg>
