<?xml version="1.0" encoding="utf-8"?>
<!-- Generator: Adobe Illustrator 24.3.0, SVG Export Plug-In . SVG Version: 6.00 Build 0)  -->
<svg version="1.1" id="Camada_1" xmlns="http://www.w3.org/2000/svg" xmlns:xlink="http://www.w3.org/1999/xlink" x="0px" y="0px"
	 width="400px" height="400px" viewBox="0 0 400 400" style="enable-background:new 0 0 400 400;" xml:space="preserve">
<style type="text/css">
	.st0{fill:#292930;}
	.st1{fill:#35495E;}
	.st2{fill:#2C3E50;}
	.st3{fill:#DF4D60;}
	.st4{fill:#FB7B76;}
	.st5{fill:#FF5364;}
</style>
<rect class="st0" width="400" height="400"/>
<path class="st1" d="M353.9,273c-10.9-18.1-24.1-30.9-44.6-37.5c-10.3-3.1-20.8-5.5-31.4-7c-11.5-1.9-24.4-2.2-35.1,3
	c-7.4,3.6-13.9,8.7-19.3,14.9c-2.6,3.1-5,6.4-7.1,9.8c-2.8,3.6-5.9,6.9-9.1,10.1c-1,1-1.7,2.2-2.1,3.5c-1,4.6,4.7,8.9,3.1,13.4
	c-0.4,1-1.1,1.8-1.9,2.5c-6.9,6.6-14.4,12.4-22.6,17.4c-1.9,1.1-5.7,3.2-6.2,5.6c-0.4,1.7,1,3.7,1.9,5c1.8,2.8,6.4,6,5.8,9.6
	c-0.3,1.8-1.2,3.5-2.5,4.8c-3.1,3-5.8,4.2-4.8,5.9c0.9,1.7,3.5,5.8,3.5,5.8s-5.1,3.1-3.7,5.2c1.7,2.6,4.5,4.5,4.1,8
	c-0.7,2.6-1.9,5-3.6,7.2c-1.1,2.3-1.7,4.8-1.7,7.3c-0.5,4.9,2.8,9.3,7.7,10c10.1,1.3,20.2,2,30.4,2.1c5,5,6.3,13.7,6.6,20.5h79.2
	c0.2-1,0.5-2,0.7-3c2.6-10.4,7.9-19.8,15.4-27.5c6.6-6.7,15.1-10.7,22.6-16.3c7.4-5.4,13-12.8,16.3-21.4c3.5-8.6,5.7-17.6,6.6-26.9
	C362.8,293.8,360,282.5,353.9,273z"/>
<path id="Shape_32_" class="st2" d="M289.4,379.9c-3.9-1.5-6.5-5.1-6.6-9.3c-0.1-2.4-2-6.5-6.1-12.9c-6.6-10.4-4.2-23.6,6.3-35.3
	l3.7-4.1l48.7,29.5l-14.1,6.4l-0.1,0c-6.4,2.9-12.7,6.8-14.9,12.7c-1.3,3.7-3.3,7.1-5.7,10.2C297.9,380.2,293.4,381.4,289.4,379.9
	L289.4,379.9z"/>
<path id="Shape_31_" class="st2" d="M304.3,351.2c-3.7-1.4-7.2-3.4-10.3-6c-2.2-1.8-4.2-3.9-5.9-6.1c-4.2-5.6-7.6-11.7-10.3-18.1
	c-1.4-3.2-3.7-5.9-6.5-7.9c-1.5-1-3.1-1.9-4.8-2.6c-0.6-0.3-1.3-0.6-2-0.8c-7.1-2.4-14.3-4.3-21.6-5.7l-4.5-1c-2-0.4-3.9-1-5.8-1.7
	c-0.6-0.2-1.2-0.4-1.7-0.7c-2.7-1.1-5.3-2.7-7.5-4.6c-6.5-5.8-9.1-14.7-6.7-23.1l0.1-0.5c0.6-2.5,1.4-4.9,2.5-7.2
	c0.8-1.8,1.7-3.5,2.7-5.1c0.2-0.3,3.4-5.1,5.6-7.9c0.5-0.6,0.8-1,1.1-1.4c1.5-1.7,3-3.2,4.4-4.6c3.8-3.5,8.1-6.5,12.8-8.8
	c4.7-2.1,9.8-3.3,15-3.5c2.6-0.1,5.2-0.1,7.8,0.1c2.7,0.2,5.5,0.5,8.3,1c3.1,0.5,6.4,1.1,9.6,1.7c2,0.4,4.1,0.8,6.2,1.3
	c2.4,0.5,4.9,1.1,7.3,1.7c2.3,0.6,4.6,1.3,6.8,2c0.1,0.1,0.3,0.1,0.5,0.2c1.2,0.4,2.5,0.8,3.6,1.3c0.9,0.4,1.8,0.7,2.7,1.1
	c2.3,1,4.5,2.1,6.7,3.3c6.4,3.6,12.1,8.4,17,13.9c1.3,1.5,2.6,3,3.8,4.6c1.7,2.2,3.5,4.8,5.4,7.8c0.5,0.8,1.1,1.7,1.6,2.6
	c1,1.6,1.9,3.3,2.7,5c3.5,7.1,5.1,15,4.4,22.9c-0.5,5-1.4,9.9-2.7,14.7c-0.7,2.5-1.4,4.8-2.2,6.9c-0.3,1-0.7,2.1-1.2,3.2
	c-0.5,1.3-1.1,2.6-1.7,3.8c-1.2,2.4-2.6,4.8-4.3,6.9c-2.3,3-5,5.6-8,7.9c-5.4,3.9-12,6-18.7,6C312.2,353.5,308.2,352.6,304.3,351.2
	L304.3,351.2z"/>
<path id="Shape_30_" class="st3" d="M288,326.9c-4.1,4.6-12.6,16.3-5.6,27.3c5.2,8.2,7,12.7,7.1,16.3c0,1.4,0.8,2.7,2.2,3.2
	s2.8,0.1,3.7-0.9c2-2.5,3.6-5.3,4.6-8.3c3.4-9,12.7-14,20.9-17.5c0,0,0.1,0,0.1,0L288,326.9z"/>
<path id="Shape_29_" class="st4" d="M344,323.8c0.8-2.1,1.4-4.3,2-6.4c1.2-4.4,2.1-9,2.5-13.6c0.6-6.7-0.7-13.5-3.8-19.6
	c-0.7-1.5-1.5-2.9-2.3-4.3c-0.5-0.8-1-1.6-1.5-2.4c-1.7-2.6-3.4-5.1-5.2-7.4c-1.1-1.5-2.2-2.9-3.4-4.2c-4.3-5-9.5-9.2-15.3-12.5
	c-1.9-1.1-3.9-2.1-6-3c-0.8-0.3-1.6-0.7-2.5-1c-1.1-0.4-2.2-0.8-3.4-1.2c-0.2-0.1-0.3-0.1-0.5-0.1c-2.1-0.7-4.2-1.3-6.4-1.9
	c-2.3-0.6-4.7-1.2-7.1-1.7c-2-0.4-4-0.9-6.1-1.2c-3.2-0.6-6.4-1.2-9.5-1.7c-2.7-0.5-5.3-0.7-7.7-0.9c-2.3-0.2-4.6-0.2-6.9-0.1
	c-4.3,0.1-8.5,1.1-12.5,2.8c-4.1,2-7.8,4.5-11.1,7.6c-1.3,1.2-2.6,2.6-3.9,4c-0.3,0.3-0.5,0.7-0.9,1.1c-2,2.7-5.2,7.4-5.2,7.4
	c-0.9,1.4-1.6,2.8-2.3,4.3c-1,2-1.7,4.1-2.1,6.3l0,0c-1.8,6,0,12.4,4.6,16.6c1.7,1.5,3.7,2.7,5.8,3.5c2,0.9,4.1,1.6,6.3,2
	c10,1.8,19.8,4.4,29.4,7.9c2,0.9,4,2,5.9,3.2c3.8,2.7,6.9,6.3,8.8,10.6c2.5,6,5.7,11.6,9.5,16.8c5.7,7.3,14.4,11.8,23.6,12.2
	c5.1-0.1,9.9-1.7,14.1-4.7c2.6-1.9,4.9-4.2,6.9-6.7c1.4-1.8,2.6-3.7,3.6-5.8c0.5-1,1-2,1.4-3.1C343.3,325.9,343.7,324.9,344,323.8z"
	/>
<path id="Shape_28_" class="st5" d="M242.4,270.9c-2,5.2-7.8,7.8-13,5.8l-6.4-2.4l0,0c0.5-2.2,1.2-4.3,2.1-6.3
	c0.1,0,0.3,0.1,0.4,0.1l6.3,2.4c1.7,0.7,3.7-0.2,4.3-1.9c0.7-1.7,2.6-2.6,4.3-1.9S243.1,269.2,242.4,270.9z"/>
<path id="Shape_27_" class="st5" d="M235.3,289.7l-1.7,4.4c0,0.1-0.1,0.2-0.2,0.3c-2.1-0.8-4.1-2-5.8-3.5l1.4-3.6
	c0.7-1.7,2.6-2.6,4.3-1.9C235.1,286,236,288,235.3,289.7z"/>
<path id="Shape_26_" class="st5" d="M256.4,290.6l-3.1-1.2c-5.2-2-7.8-7.8-5.8-13l1.2-3.1c2-5.2,7.8-7.8,13-5.8l3.1,1.2
	c1.7,0.7,2.6,2.6,1.9,4.3c-0.7,1.7-2.6,2.6-4.3,1.9l-3.1-1.2c-1.7-0.7-3.7,0.2-4.3,1.9l-1.2,3.1c-0.7,1.7,0.2,3.7,1.9,4.3l3.1,1.2
	c1.7,0.7,2.6,2.6,1.9,4.3C260.1,290.3,258.2,291.2,256.4,290.6z"/>
<path id="Shape_25_" class="st5" d="M250.3,259.6c-0.7,1.7-2.6,2.6-4.3,1.9l-12.3-4.7c-0.4-0.1-0.7-0.3-1-0.6
	c0.3-0.4,0.6-0.8,0.9-1.1c1.3-1.4,2.6-2.8,3.9-4l10.9,4.1C250.1,255.9,251,257.9,250.3,259.6z"/>
<path id="Shape_24_" class="st5" d="M268.3,259.3c-0.7,1.7-2.6,2.6-4.3,1.9c-5.2-2-7.8-7.8-5.8-13l2.9-7.5c2.3-0.1,4.6-0.1,6.9,0.1
	c0,0.4-0.1,0.7-0.2,1l-3.3,8.8c-0.7,1.7,0.2,3.7,1.9,4.3C268.1,255.6,269,257.5,268.3,259.3z"/>
<path id="Shape_23_" class="st5" d="M271.3,289.1l-3.1-1.2c-1.7-0.7-2.6-2.6-1.9-4.3c0.7-1.7,2.6-2.6,4.3-1.9l3.1,1.2
	c1.7,0.7,3.7-0.2,4.3-1.9l2.4-6.3c0.7-1.7,2.6-2.6,4.3-1.9c1.7,0.7,2.6,2.6,1.9,4.3l-2.4,6.3C282.3,288.4,276.5,291,271.3,289.1z"/>
<path id="Shape_22_" class="st5" d="M292.9,279.3c-1.7-0.7-2.6-2.6-1.9-4.3l1.2-3.1c0.7-1.7-0.2-3.7-1.9-4.3l-6.3-2.4
	c-1.7-0.7-3.7,0.2-4.3,1.9l-1.2,3.1c-0.7,1.7-2.6,2.6-4.3,1.9c-1.7-0.7-2.6-2.6-1.9-4.3l1.2-3.1c2-5.2,7.8-7.8,13-5.8l6.3,2.4
	c5.2,2,7.8,7.8,5.8,13l-1.2,3.1C296.6,279.1,294.7,280,292.9,279.3z"/>
<path id="Shape_21_" class="st5" d="M291.1,246.4l-1.2,3.1c-0.7,1.7-2.6,2.6-4.3,1.9c-1.7-0.7-2.6-2.6-1.9-4.3l1.2-3.1
	c0.1-0.2,0.2-0.5,0.4-0.7c2,0.4,4,0.8,6.1,1.2C291.4,245.2,291.3,245.9,291.1,246.4z"/>
<path id="Shape_20_" class="st5" d="M304.7,248.4l-2.3,5.9c-0.7,1.7-2.6,2.6-4.3,1.9c-1.7-0.7-2.6-2.6-1.9-4.3l2.1-5.6
	c2.2,0.6,4.3,1.2,6.4,1.9C304.7,248.2,304.7,248.3,304.7,248.4z"/>
<path id="Shape_19_" class="st5" d="M317.6,270.8c-0.7,1.7-2.6,2.6-4.3,1.9l-6.3-2.4c-1.7-0.7-2.6-2.6-1.9-4.3l5.8-15.4
	c0-0.1,0.1-0.1,0.1-0.2c2.1,0.9,4.1,1.8,6,3l-4.5,11.9l3.1,1.2C317.4,267.2,318.3,269.1,317.6,270.8z"/>
<path id="Shape_18_" class="st5" d="M277.2,302l-1.9,5c-0.1,0.2-0.2,0.4-0.3,0.6c-1.9-1.3-3.8-2.3-5.9-3.2l1.8-4.7
	c0.7-1.7,2.6-2.6,4.3-1.9C276.9,298.3,277.8,300.3,277.2,302z"/>
<path id="Shape_8_" class="st5" d="M295.9,309.1l-3.1-1.2c-5.2-2-7.8-7.8-5.8-13l1.2-3.1c0.7-1.7,2.6-2.6,4.3-1.9
	c1.7,0.7,2.6,2.6,1.9,4.3l-1.2,3.1c-0.7,1.7,0.2,3.7,1.9,4.3l3.1,1.2c1.7,0.7,2.6,2.6,1.9,4.3C299.6,308.9,297.7,309.8,295.9,309.1z
	"/>
<path id="Shape_7_" class="st5" d="M313.2,301.4l-3.1-1.2c-5.2-2-7.8-7.8-5.8-13c2-5.2,7.8-7.8,13-5.8l3.1,1.2
	c1.7,0.7,2.6,2.6,1.9,4.3c-0.7,1.7-2.6,2.6-4.3,1.9l-3.1-1.2c-1.7-0.7-3.7,0.2-4.3,1.9c-0.7,1.7,0.2,3.7,1.9,4.3l3.1,1.2
	c1.7,0.7,2.6,2.6,1.9,4.3C316.9,301.2,314.9,302,313.2,301.4z"/>
<path id="Shape_6_" class="st5" d="M335.7,270.5l-3.6,9.4c-0.7,1.7-2.6,2.6-4.3,1.9s-2.6-2.6-1.9-4.3l3.6-9.4
	c0.5-1.2,1.6-2.1,2.9-2.1c1.2,1.3,2.3,2.7,3.4,4.2C335.7,270.3,335.7,270.4,335.7,270.5z"/>
<path id="Shape_5_" class="st5" d="M344.8,284.3l-2.5,6.6c-2,5.2-7.8,7.8-13,5.8c-1.7-0.7-2.6-2.6-1.9-4.3c0.7-1.7,2.6-2.6,4.3-1.9
	c1.7,0.7,3.7-0.2,4.3-1.9l3.6-9.4c0.3-0.7,0.8-1.3,1.4-1.7c0.5,0.8,1,1.6,1.5,2.4C343.3,281.3,344.1,282.8,344.8,284.3z"/>
<path id="Shape_4_" class="st5" d="M313.5,319.4l-3.1-1.2c-1.7-0.7-2.6-2.6-1.9-4.3c0.7-1.7,2.6-2.6,4.3-1.9l3.1,1.2
	c1.7,0.7,3.7-0.2,4.3-1.9l2.4-6.3c0.7-1.7,2.6-2.6,4.3-1.9c1.7,0.7,2.6,2.6,1.9,4.3l-2.4,6.3C324.5,318.8,318.7,321.4,313.5,319.4z"
	/>
<path id="Shape_3_" class="st5" d="M319.3,332.3c-0.7,1.7-2.6,2.6-4.3,1.9l-9.4-3.6c-1.7-0.7-3.7,0.2-4.3,1.9l-2.4,6.3
	c-0.2,0.4-0.4,0.8-0.7,1.1c-1.8-1.5-3.5-3.2-5-5.1l1.8-4.7c2-5.2,7.8-7.8,13-5.8l9.4,3.6c0.8,0.3,1.5,0.9,1.9,1.8
	S319.7,331.5,319.3,332.3z"/>
<path id="Shape_2_" class="st5" d="M344,323.8l-9.4-3.6c-1.7-0.7-2.6-2.6-1.9-4.3c0.7-1.7,2.6-2.6,4.3-1.9l9,3.4
	C345.5,319.5,344.8,321.7,344,323.8z"/>
<path id="Shape_1_" class="st5" d="M341.5,330c-1,2.1-2.2,4-3.6,5.8l-7.9-3c-1.7-0.7-2.6-2.6-1.9-4.3c0.7-1.7,2.6-2.6,4.3-1.9
	l8.7,3.3C341.2,329.9,341.3,330,341.5,330z"/>
</svg>
