<?xml version="1.0" encoding="utf-8"?>
<!-- Generator: Adobe Illustrator 24.3.0, SVG Export Plug-In . SVG Version: 6.00 Build 0)  -->
<svg version="1.1" id="Camada_1" xmlns="http://www.w3.org/2000/svg" xmlns:xlink="http://www.w3.org/1999/xlink" x="0px" y="0px"
	 width="400px" height="400px" viewBox="0 0 400 400" style="enable-background:new 0 0 400 400;" xml:space="preserve">
<style type="text/css">
	.st0{fill:#292930;}
	.st1{fill:#0E9347;}
	.st2{fill:#3BB54A;}
	.st3{fill:#0D8944;}
	.st4{fill:#89C763;}
	.st5{fill:#FFCA5D;}
	.st6{fill:#F6B545;}
	.st7{fill:#FFCB5B;}
	.st8{fill:#FFE27A;}
	.st9{fill:#F19920;}
	.st10{fill:#E78825;}
</style>
<rect class="st0" width="400" height="400"/>
<path class="st1" d="M368.5,355.3l-28.9-80.6c-1.4-4-5.9-6.1-10-4.7l-146.6,52.5c-4,1.4-6.1,5.9-4.7,10l24.2,67.5h64.2l97-34.8
	C367.8,363.8,369.9,359.3,368.5,355.3z"/>
<path class="st2" d="M355.9,343.2l-18.4-51.3c-8.1,2.9-17-1.3-19.9-9.4l-117.2,42c2.9,8.1-1.3,17-9.4,19.9l18.4,51.3
	c6.1-2.2,12.7-0.3,16.8,4.2h17.6l102.8-36.8C343.6,355.1,347.8,346.1,355.9,343.2z"/>
<path class="st3" d="M211.9,345.2c8.4-3,14.7-9.8,16.7-18c4.3,0.5,8.9,0.5,13.6-1.2c12.8-4.6,20-17.9,17.4-31l-76.6,27.5
	c-3.7,1.3-5.7,4.9-5.1,8.9C184,343.7,198.7,350,211.9,345.2z"/>
<g>
	<path class="st1" d="M211.9,345.2c8.4-3,14.7-9.8,16.7-18c4.3,0.5,8.9,0.5,13.6-1.2c10.3-3.7,17-12.7,17.8-22.9l-59.7,21.4
		c2.9,8.1-1.1,16.5-9,19.8C197.6,347,204.9,347.7,211.9,345.2z"/>
	
		<ellipse transform="matrix(0.9413 -0.3374 0.3374 0.9413 -99.9947 112.4276)" class="st1" cx="273.4" cy="343.9" rx="31.1" ry="35"/>
	<circle class="st1" cx="317.4" cy="328.1" r="7.8"/>
	<circle class="st1" cx="229.4" cy="359.6" r="7.8"/>
</g>
<path class="st4" d="M271.1,348.8l7.3-2.6c2.2-0.8,4.2,0.2,5,2.4c0.8,2.2-0.2,4.2-2.4,5l-11,3.9c-2.2,0.8-3.1,2.8-2.4,5
	c0.8,2.2,2.8,3.1,5,2.4l3.7-1.3c0.8,2.2,2.8,3.1,5,2.4c2.2-0.8,3.1-2.8,2.4-5c6.2-2.2,9.3-8.7,7.1-14.9s-8.7-9.3-14.9-7.1l-7.3,2.6
	c-2.2,0.8-4.2-0.2-5-2.4c-0.8-2.2,0.2-4.2,2.4-5l11-3.9c2.2-0.8,3.1-2.8,2.4-5c-0.8-2.2-2.8-3.1-5-2.4l-3.7,1.3
	c-0.8-2.2-2.8-3.1-5-2.4c-2.2,0.8-3.1,2.8-2.4,5c-6.2,2.2-9.3,8.7-7.1,14.9C258.4,348,264.8,351.1,271.1,348.8z"/>
<circle class="st5" cx="240.4" cy="297.8" r="27.2"/>
<circle class="st6" cx="210" cy="317" r="27.2"/>
<path class="st7" d="M219.2,342.6c14.3-5.1,21.6-20.6,16.5-34.8c-5.1-14.3-20.6-21.6-34.8-16.5c-14.3,5.1-21.6,20.6-16.5,34.8
	S204.9,347.7,219.2,342.6z M203.5,298.6c10.3-3.7,21.2,1.5,24.9,11.8c3.7,10.3-1.5,21.2-11.8,24.9c-10.3,3.7-21.2-1.5-24.9-11.8
	S193.2,302.3,203.5,298.6z"/>
<path class="st6" d="M201,291.7L201,291.7c-14.4,4.8-21.6,20.6-16.6,34.5l0.4-0.1c1.8-0.7,2.8-2.6,2.5-4.6
	c-1.1-5.4-0.2-11.1,2.2-15.7c1.9-4,5.3-7.3,9.4-9.6C200.7,295.5,201.6,293.5,201,291.7z"/>
<path class="st8" d="M219.1,342.3L219.1,342.3c14.4-4.8,21.6-20.6,16.6-34.5l-0.4,0.1c-1.8,0.7-2.8,2.6-2.5,4.6
	c1.1,5.4,0.2,11.1-2.2,15.7c-1.9,4-5.3,7.3-9.4,9.6C219.4,338.4,218.4,340.4,219.1,342.3z"/>
<path class="st9" d="M224.9,308.8c3.7,10.3-1.5,21.2-11.8,24.9c-4.4,1.6-9,1.6-13.3-0.2c5.2,3.1,10.9,3.9,16.8,1.8
	c10.3-3.7,15.4-14.6,11.8-24.9c-2.1-5.9-6.4-9.7-11.6-11.6C220.4,300.9,223.3,304.4,224.9,308.8z"/>
<path class="st7" d="M195,309.6c0.4-0.1,0.7-0.3,1.2,0c1,0.5,1.4,1.6,0.9,2.6c-1.4,3-1.3,6.7-0.3,9.6c0.4,1.1-0.1,2.1-1.2,2.5
	c-1.1,0.4-2.1-0.1-2.5-1.2c-1.4-4-1.4-8.6,0.1-12.4C193.9,309.9,194.6,309.7,195,309.6z"/>
<g>
	<path class="st9" d="M206.1,306c2.2-0.8,4.2,0.2,5,2.4l5.3,14.7c0.8,2.2-0.2,4.2-2.4,5c-2.2,0.8-4.2-0.2-5-2.4l-5.3-14.7
		C202.9,308.8,203.9,306.8,206.1,306z"/>
	<path class="st9" d="M188.7,300.2c5.8,8.2,15.1,13.2,24.7,13.5c4.5,7.9,12.6,13.3,21.1,15.2c2.7-6.3,3.4-13.6,0.9-20.6
		c-5.1-14.3-20.6-21.6-34.8-16.5C195.7,293.2,191.8,296.2,188.7,300.2z"/>
</g>
<g>
	<path class="st10" d="M216.8,298.8c3.7,2.4,7,5.8,8.6,10.1c1.8,5.1,1.3,10.7-1.1,15.3c1.1,0.8,2.1,1.3,3.1,1.8
		c2.5-4.6,3-10.2,1-15.7C226.2,304.5,222,300.7,216.8,298.8z"/>
	<path class="st10" d="M212.9,313.5l-1.8-5.1c-0.8-2.2-2.8-3.1-5-2.4c-2.2,0.8-3.1,2.8-2.4,5l0.3,0.7
		C206.9,312.7,209.9,313.3,212.9,313.5z"/>
</g>
<path class="st6" d="M188.7,300.2c1.7,2.3,3.2,4.2,5.4,5.9c2.1-3.2,5.3-6,9.3-7.5c10.3-3.7,21.2,1.5,24.9,11.8c2,5.5,1.5,11-1,15.7
	c2.5,1.2,4.8,2,7.4,2.3c2.7-6.3,3.4-13.6,0.9-20.6c-5.1-14.3-20.6-21.6-34.8-16.5C195.7,293.2,191.8,296.2,188.7,300.2z"/>
<path class="st9" d="M191,303.1c1.9-2.8,4.8-5,7.8-6.9c1.7-1,2.6-3,2-4.8l0,0c-5.1,1.8-9,4.9-12.1,8.9
	C189.5,301.2,190.2,302.1,191,303.1z"/>
<path class="st7" d="M234.8,328.4c2.7-6.3,3.4-13.6,0.9-20.6l-0.4,0.1c-1.8,0.7-2.8,2.6-2.5,4.6c1.1,5.4,0.1,10.7-2,15.2
	C232.1,327.7,233.4,328,234.8,328.4z"/>
<circle class="st6" cx="240.4" cy="297.8" r="27.2"/>
<path class="st9" d="M237.5,278.2c-0.9-2.6-2.1-4.6-3.7-6.9c-0.7,0.3-1.8,0.7-2.6,0.9c-14.3,5.1-21.6,20.6-16.5,34.8
	c0.9,2.6,2.1,4.6,3.7,6.9c0.7-0.3,1.8-0.7,2.6-0.9C235.3,307.9,242.6,292.5,237.5,278.2z"/>
<path class="st7" d="M249.6,323.5c14.3-5.1,21.6-20.6,16.5-34.8c-5.1-14.3-20.6-21.6-34.8-16.5c-14.3,5.1-21.6,20.6-16.5,34.8
	C219.8,321.3,235.3,328.6,249.6,323.5z M233.8,279.5c10.3-3.7,21.2,1.5,24.9,11.8c3.7,10.3-1.5,21.2-11.8,24.9
	c-10.3,3.7-21.2-1.5-24.9-11.8C218.4,294.1,223.5,283.2,233.8,279.5z"/>
<path class="st6" d="M231.3,272.5L231.3,272.5c-14.4,4.8-21.6,20.6-16.6,34.5l0.4-0.1c1.8-0.7,2.8-2.6,2.5-4.6
	c-1.1-5.4-0.2-11.1,2.2-15.7c1.9-4,5.3-7.3,9.4-9.6C231,276.4,232,274.4,231.3,272.5z"/>
<path class="st8" d="M249.4,323.1L249.4,323.1c14.4-4.8,21.6-20.6,16.6-34.5l-0.4,0.1c-1.8,0.7-2.8,2.6-2.5,4.6
	c1.1,5.4,0.2,11.1-2.2,15.7c-1.9,4-5.3,7.3-9.4,9.6C249.7,319.3,248.8,321.3,249.4,323.1z"/>
<path class="st9" d="M255.2,289.6c3.7,10.3-1.5,21.2-11.8,24.9c-4.4,1.6-9,1.6-13.3-0.2c5.2,3.1,10.9,3.9,16.8,1.8
	c10.3-3.7,15.4-14.6,11.8-24.9c-2.1-5.9-6.4-9.7-11.6-11.6C250.7,281.7,253.6,285.2,255.2,289.6z"/>
<path class="st7" d="M225.3,290.4c0.4-0.1,0.7-0.3,1.2,0c1,0.5,1.4,1.6,0.9,2.6c-1.4,3-1.3,6.7-0.3,9.6c0.4,1.1-0.1,2.1-1.2,2.5
	c-1.1,0.4-2.1-0.1-2.5-1.2c-1.4-4-1.4-8.6,0.1-12.4C224.2,290.8,224.9,290.5,225.3,290.4z"/>
<path class="st9" d="M236.4,286.8c2.2-0.8,4.2,0.2,5,2.4l5.3,14.7c0.8,2.2-0.2,4.2-2.4,5c-2.2,0.8-4.2-0.2-5-2.4l-5.3-14.7
	C233.3,289.6,234.2,287.6,236.4,286.8z"/>
<g>
	<path class="st6" d="M226,310.8c-1.5-1.9-3-3.9-4-6.4c-3.7-10.3,1.5-21.2,11.8-24.9c1.1-0.4,2.6-0.9,3.8-0.9l-0.1-0.4
		c-0.9-2.6-2.1-4.6-3.7-6.9c-0.7,0.3-1.8,0.7-2.6,0.9c-14.3,5.1-21.6,20.6-16.5,34.8c0.9,2.6,2.1,4.6,3.7,6.9
		c0.7-0.3,1.8-0.7,2.6-0.9C222.8,312.4,224.3,311.8,226,310.8z"/>
	<circle class="st6" cx="214.2" cy="282.4" r="27.2"/>
</g>
<path class="st7" d="M223.4,308.1c14.3-5.1,21.6-20.6,16.5-34.8s-20.6-21.6-34.8-16.5c-14.3,5.1-21.6,20.6-16.5,34.8
	S209.1,313.2,223.4,308.1z M207.6,264.1c10.3-3.7,21.2,1.5,24.9,11.8s-1.5,21.2-11.8,24.9c-10.3,3.7-21.2-1.5-24.9-11.8
	C192.2,278.7,197.3,267.8,207.6,264.1z"/>
<path class="st6" d="M205.1,257.1L205.1,257.1c-14.4,4.8-21.6,20.6-16.6,34.5l0.4-0.1c1.8-0.7,2.8-2.6,2.5-4.6
	c-1.1-5.4-0.2-11.1,2.2-15.7c1.9-4,5.3-7.3,9.4-9.6C204.8,260.9,205.8,259,205.1,257.1z"/>
<path class="st8" d="M223.2,307.7L223.2,307.7c14.4-4.8,21.6-20.6,16.6-34.5l-0.4,0.1c-1.8,0.7-2.8,2.6-2.5,4.6
	c1.1,5.4,0.2,11.1-2.2,15.7c-1.9,4-5.3,7.3-9.4,9.6C223.5,303.9,222.6,305.9,223.2,307.7z"/>
<path class="st9" d="M229,274.2c3.7,10.3-1.5,21.2-11.8,24.9c-4.4,1.6-9,1.6-13.3-0.2c5.2,3.1,10.9,3.9,16.8,1.8
	c10.3-3.7,15.4-14.6,11.8-24.9c-2.1-5.9-6.4-9.7-11.6-11.6C224.5,266.3,227.4,269.8,229,274.2z"/>
<path class="st7" d="M199.1,275c0.4-0.1,0.7-0.3,1.2,0c1,0.5,1.4,1.6,0.9,2.6c-1.4,3-1.3,6.7-0.3,9.6c0.4,1.1-0.1,2.1-1.2,2.5
	s-2.1-0.1-2.5-1.2c-1.4-4-1.4-8.6,0.1-12.4C198,275.4,198.7,275.1,199.1,275z"/>
<path class="st9" d="M210.2,271.4c2.2-0.8,4.2,0.2,5,2.4l5.3,14.7c0.8,2.2-0.2,4.2-2.4,5c-2.2,0.8-4.2-0.2-5-2.4l-5.3-14.7
	C207.1,274.2,208,272.2,210.2,271.4z"/>
</svg>
