<?xml version="1.0" encoding="utf-8"?>
<!-- Generator: Adobe Illustrator 24.3.0, SVG Export Plug-In . SVG Version: 6.00 Build 0)  -->
<svg version="1.1" id="Camada_1" xmlns="http://www.w3.org/2000/svg" xmlns:xlink="http://www.w3.org/1999/xlink" x="0px" y="0px"
	 width="400px" height="400px" viewBox="0 0 400 400" style="enable-background:new 0 0 400 400;" xml:space="preserve">
<style type="text/css">
	.st0{fill:#292930;}
	.st1{fill:#DA4A54;}
	.st2{fill:#FFCBBE;}
	.st3{fill:#EAAC9D;}
	.st4{fill:#756E78;}
	.st5{fill:#C32430;}
	.st6{fill:#AA593D;}
	.st7{fill:#934D36;}
	.st8{fill:#544F57;}
	.st9{fill:#49D3FF;}
	.st10{fill:#33C1E2;}
	.st11{fill:#FFFFFF;}
</style>
<rect class="st0" width="400" height="400"/>
<path class="st1" d="M304.4,351c0,0-30.6,8-32.9-12.5l-60.1-12.9c-3.5,1.5-24.2,12-33.5,55.3l15.5,3.3c0,0-2,6.6-3.7,15.8h35.9
	c0.5-0.4,0.9-0.7,1.4-1c0.2,0.3,0.4,0.7,0.6,1h36c0.1-0.4,0.1-0.7,0.1-0.7l1.1-8c1.7-15.4-2.8-28.2-3-28.5l0,0
	c0.5,0.4,23.1,19.9,48,0.8c1.7-1.3,3.4-2.7,5.1-4.4L304.4,351z"/>
<path class="st2" d="M199,377.1l-8.8,21.5c0,0-2.7,0.2-5.8-0.1c-3.6-0.3-7.7-1.2-9.4-3.7c-3.1-4.7,3-13.9,3-13.9l6-1.1L199,377.1z"
	/>
<path class="st3" d="M184.3,398.5c-3.6-0.3-7.7-1.2-9.4-3.7c-3.1-4.7,3-13.9,3-13.9l6-1.1l3,3C187,382.8,178.9,391.5,184.3,398.5z"
	/>
<path class="st4" d="M263.7,400c0.1-0.4,0.1-0.7,0.1-0.7l1.1-8l-69.1-14.9c-0.9,2.4-1.7,5.1-2.3,7.8c0,0-2,6.6-3.7,15.8H263.7z"/>
<path class="st5" d="M309.9,363.6c-24.9,19.1-47.5-0.4-48-0.8l0,0l0,0l-0.3-3.7c-0.2-2.3,2.4-3.8,4.4-2.6
	C273.5,361.3,289.3,368.7,309.9,363.6z"/>
<path class="st3" d="M260.7,335.3c0,0.2-0.1,0.3-0.1,0.5c-1.6,7.6-11.5,12-22,9.7c-10.5-2.3-17.7-10.3-16.1-17.9
	c0-0.2,0.1-0.3,0.1-0.5"/>
<path class="st5" d="M219.6,327.3c-9.2,8.1-26.9,26.9-32.7,55.5l-9-1.9c9.3-43.3,30-53.8,33.5-55.3L219.6,327.3z"/>
<path class="st6" d="M308.1,289.1l-74-15.6l-36.8-7.7c2.7-26.2,1.7-61.1,32.8-60.6c7.5,0.1,14.1,0.7,20,1.5
	c39.4,5.7,45.3,25.3,45.3,25.3s8.4-4.7,15.9-2.4c2.7,0.8,5.3,2.6,7.4,5.7C329.6,252.2,308.1,289.1,308.1,289.1z"/>
<path class="st7" d="M311.4,229.6c-10.4,4.3-20.4,21.7-25.4,31.7c-0.4-11.4,5.5-22.6,9.6-29.3C295.5,232,303.9,227.4,311.4,229.6z"
	/>
<path class="st7" d="M236,245.1l-1.8,28.4l-36.8-7.7c2.7-26.2,1.7-61.1,32.8-60.6c7.5,0.1,14.1,0.7,20,1.5c0,0,0,0,0,0
	C233.3,212.7,234.4,230,236,245.1L236,245.1z"/>
<path class="st3" d="M298.8,308.7L298.8,308.7c6.1,1.3,12-2.5,13.3-8.5c1.3-6-2.5-11.9-8.5-13.2c-0.1,0-0.2,0-0.2,0l-99.7-21.4
	c-0.1,0-0.2,0-0.2-0.1c-6-1.3-11.9,2.5-13.2,8.6c-1.3,6,2.5,11.9,8.5,13.2l0.1,0"/>
<path class="st2" d="M300.7,300.4c-1.2,5.7-2.6,11.4-4.1,17.1c-3.8,14.2-17.7,23.1-32.2,20.7c-10.1-1.7-20.2-3.7-30.2-6l0,0
	c-5.4-1.2-10.7-2.6-16.1-4c-14.2-3.8-23.2-17.6-20.9-32.1c1.7-10.3,3.8-20.6,6.4-30.7l0,0c6-0.9,10.7-6.6,14.3-13.3
	c3.6-6.9,11.5-9.4,18.1-7c2.6,0.9,4.9,2.6,6.7,5c3.6,4.9,8.8,8.1,14.4,9.3c5.6,1.2,11.6,0.4,16.9-2.5c3.3-1.8,6.9-2.2,10.2-1.5
	c6.1,1.3,11.2,6.5,11.6,13.6c0.4,7.6,2.4,14.7,7.5,18C302.6,291.4,301.7,295.9,300.7,300.4L300.7,300.4z"/>
<path class="st3" d="M234.2,332.2c-5.4-1.2-10.7-2.6-16.1-4c-14.2-3.8-23.2-17.6-20.9-32.1c1.7-10.3,3.8-20.6,6.4-30.7l0,0
	c6-0.9,10.7-6.6,14.3-13.3c3.6-6.9,11.5-9.4,18.1-7C221,289.8,218.1,328.2,234.2,332.2L234.2,332.2z"/>
<g>
	<path class="st8" d="M230.2,271.5c-2.5-0.5-5.2,2.1-6,5.8c-0.8,3.7,0.6,7.2,3.1,7.7c2.5,0.5,5.2-2.1,6-5.8S232.8,272,230.2,271.5z"
		/>
	<path class="st8" d="M276.6,281.4c-2.5-0.5-5.2,2.1-6,5.8c-0.8,3.7,0.6,7.2,3.1,7.7c2.5,0.5,5.2-2.1,6-5.8
		C280.5,285.4,279.1,282,276.6,281.4z"/>
</g>
<path class="st1" d="M245.6,312.7c-5.7-1.2-10.3-5.7-11.6-11.4c-0.5-2,0.8-4,2.8-4.5c2-0.5,4,0.8,4.5,2.8c0.7,2.9,3,5.2,6,5.9
	c2.9,0.6,6-0.5,7.9-2.9c1.2-1.6,3.6-1.9,5.2-0.7c1.6,1.2,1.9,3.6,0.7,5.2C257.4,311.7,251.4,313.9,245.6,312.7z"/>
<path class="st9" d="M378.8,263l-82.6-17.7l-9.2,42.8c-4.3,20.1,4.6,40.7,22.1,51.4l8.9,5.4l10.3-1.3c20.4-2.5,36.9-17.7,41.3-37.7
	L378.8,263z"/>
<path class="st10" d="M318,344.9l-8.9-5.4c-17.5-10.7-26.4-31.3-22.1-51.4l9.2-42.8l20.1,4.3l-9.2,42.8c-4.3,20.1-1.6,39.4,6.6,48
	L318,344.9z"/>
<g>
	<g>
		<path class="st11" d="M322.4,293.3c-2-0.4-3.3-2.4-2.8-4.4c0.8-3.9-1.7-7.8-5.6-8.6c-3.9-0.8-7.8,1.7-8.6,5.6
			c-0.4,2-2.4,3.3-4.4,2.8c-2-0.4-3.3-2.4-2.8-4.4c1.7-7.9,9.5-12.9,17.4-11.2s12.9,9.5,11.2,17.4
			C326.3,292.5,324.4,293.8,322.4,293.3L322.4,293.3z"/>
		<path class="st11" d="M356.7,300.7c-2-0.4-3.3-2.4-2.8-4.4c0.8-3.9-1.7-7.8-5.6-8.6c-3.9-0.8-7.8,1.7-8.6,5.6
			c-0.4,2-2.4,3.3-4.4,2.8c-2-0.4-3.3-2.4-2.8-4.4c1.7-7.9,9.5-12.9,17.4-11.2s12.9,9.5,11.2,17.4
			C360.6,299.9,358.7,301.1,356.7,300.7L356.7,300.7z"/>
	</g>
	<path class="st11" d="M323.6,319c-5.7-1.2-11-4.6-14.4-9.9c-1.1-1.7-0.6-4,1.1-5.1c1.7-1.1,4-0.6,5.1,1.1
		c4.6,7.2,14.2,9.2,21.3,4.6c1.7-1.1,4-0.6,5.1,1.1c1.1,1.7,0.6,4-1.1,5.1C335.5,319.3,329.3,320.2,323.6,319z"/>
</g>
<path class="st2" d="M315,359.2l-5.8-4.5l-4.8-3.7c0-7.2,10.2-22.1,17.4-14.4l0,0c0.4,0.4,0.8,1,1.2,1.6
	C330.1,349.3,315,359.2,315,359.2L315,359.2z"/>
<path class="st3" d="M321.7,336.6L321.7,336.6c0,0-12.5,7.6-12.6,18.1l-4.8-3.7C304.4,343.8,314.6,328.8,321.7,336.6L321.7,336.6z"
	/>
<path class="st5" d="M195.8,376.4c3.5-10.6,16.4-27.8,16.4-27.8s-10.7,24.6-5,30.3"/>
<path class="st8" d="M199.6,400c2.4-9.7,5.3-16.7,7.6-21.1l-11.4-2.4c-0.9,2.4-1.7,5.1-2.3,7.8c0,0-2,6.6-3.7,15.8H199.6z"/>
</svg>
