<?xml version="1.0" encoding="utf-8"?>
<!-- Generator: Adobe Illustrator 24.3.0, SVG Export Plug-In . SVG Version: 6.00 Build 0)  -->
<svg version="1.1" id="Camada_1" xmlns="http://www.w3.org/2000/svg" xmlns:xlink="http://www.w3.org/1999/xlink" x="0px" y="0px"
	 width="400px" height="400px" viewBox="0 0 400 400" style="enable-background:new 0 0 400 400;" xml:space="preserve">
<style type="text/css">
	.st0{fill:#292930;}
	.st1{fill:#35495E;}
	.st2{fill:#2C3E50;}
	.st3{fill:#E64C3C;}
	.st4{fill:#3F5C6C;}
	.st5{fill:#ECF0F1;}
	.st6{fill:#C03A2B;}
	.st7{fill:#802F34;}
	.st8{fill:#F9EAB0;}
</style>
<rect class="st0" width="400" height="400"/>
<path class="st1" d="M149.5,330.5l46.6,69.5h46.8l-54.3-125.2L156.9,296c-10.5,6.8-14.3,20.4-9,31.7
	C148.3,328.7,148.9,329.6,149.5,330.5z"/>
<g>
	<path class="st2" d="M291.3,400l47.8-32.1c2.3-1.6,3.5-4.3,3-7.1l-32.4,9.9L266.2,400H291.3z"/>
	<path class="st2" d="M228.4,400l21.6-14.5l0,0l-31.8,4.6c-3.6,2.6-6.3,6.1-8.1,10H228.4z"/>
</g>
<path id="Shape_63_" class="st3" d="M207.7,352.6l-26.8-108.9c-0.9-3.8,1.4-7.5,5.1-8.5l108.1-26.6c12.1-3.2,24.7,3.1,29.5,14.7
	c0.4,1,0.7,2,1,3.1l26.8,108.9L207.7,352.6z"/>
<path id="Shape_62_" class="st4" d="M280.1,233.6c-0.2,0.1-0.4,0.1-0.6,0.2l-78.3,19.3c-1.8,0.3-3.6-0.8-4-2.6
	c-0.4-1.8,0.6-3.6,2.3-4.2l78.3-19.3c1.8-0.4,3.6,0.5,4.2,2.3C282.6,231,281.8,232.9,280.1,233.6L280.1,233.6z"/>
<path id="Shape_61_" class="st4" d="M270.7,254c-0.2,0.1-0.4,0.1-0.6,0.2l-51,12.6c-1.9,0.4-3.7-0.7-4.2-2.6
	c-0.5-1.8,0.6-3.7,2.5-4.2l51-12.6c1.8-0.4,3.6,0.5,4.2,2.3C273.2,251.3,272.4,253.2,270.7,254z"/>
<path id="Rectangle-path_2_" class="st5" d="M212.2,282.9l71.5-17.6c1.9-0.5,3.8,0.7,4.2,2.6l8.4,34c0.5,1.9-0.7,3.8-2.6,4.2
	l-71.5,17.6c-1.9,0.5-3.8-0.7-4.2-2.6l-8.4-34C209.2,285.3,210.3,283.4,212.2,282.9z"/>
<path id="Shape_60_" class="st6" d="M323.6,223.2c0.4,1,0.7,2,1,3.1l26.8,108.9l-28,3.4L301.8,251l-5.1-20.7l-5.2-21.2l2.6-0.6
	C306.2,205.4,318.8,211.6,323.6,223.2L323.6,223.2z"/>
<path id="Shape_59_" class="st7" d="M321,317.4l-108.1,26.7c-0.4,0.1-0.8,0.2-1.2,0.4c-3.3,1.5-5,5.2-3.8,8.7s4.8,5.4,8.3,4.5
	l108.9-26.9c3.1-0.7,6.3-0.1,8.8,1.8s4.1,4.8,4.2,8c0.1,5.1-3.4,9.6-8.4,10.7l-108.5,26.8c-0.4,0.1-0.8,0.2-1.2,0.4
	c-3.3,1.5-5,5.2-3.8,8.7c1.2,3.4,4.8,5.4,8.3,4.5l108.9-26.9c6.9-1.7,12.7-6.3,15.9-12.5c3.3-6.3,3.6-13.6,1.1-20.2
	C345.7,320.5,333.1,314.3,321,317.4L321,317.4z"/>
<path id="Shape_58_" class="st8" d="M338.2,340.7c0.1,5.1-3.4,9.6-8.4,10.7l-108.5,26.8l-5-20.4l108.9-26.9c3.1-0.7,6.3-0.1,8.8,1.8
	S338,337.5,338.2,340.7L338.2,340.7z"/>
<polygon class="st8" points="266.2,400 309.8,370.8 250,385.5 228.4,400 "/>
</svg>
