<?xml version="1.0" encoding="utf-8"?>
<!-- Generator: Adobe Illustrator 24.3.0, SVG Export Plug-In . SVG Version: 6.00 Build 0)  -->
<svg version="1.1" id="Camada_1" xmlns="http://www.w3.org/2000/svg" xmlns:xlink="http://www.w3.org/1999/xlink" x="0px" y="0px"
	 width="400px" height="400px" viewBox="0 0 400 400" style="enable-background:new 0 0 400 400;" xml:space="preserve">
<style type="text/css">
	.st0{fill:#292930;}
	.st1{fill:#353A59;}
	.st2{fill:#4C5072;}
	.st3{fill:#E51C42;}
	.st4{fill:#E1EBF0;}
</style>
<rect class="st0" width="400" height="400"/>
<polygon class="st1" points="288.8,400 310.8,393.4 297.1,374.2 272.6,365.4 247.9,381 240.9,400 "/>
<path class="st2" d="M354.4,366.4l-163.7,22.4c-8.6,1.2-16.6-4.9-17.8-13.5l-14.6-106.9c-1.2-8.6,4.9-16.6,13.5-17.8l163.7-22.4
	c8.6-1.2,16.6,4.9,17.8,13.5l14.6,106.9C369,357.2,363,365.2,354.4,366.4z"/>
<path class="st3" d="M343.9,342.6l-149.6,20.5c-7,1-13.5-4-14.5-11l-10.5-76.7c-1-7,4-13.5,11-14.5l149.6-20.5c7-1,13.5,4,14.5,11
	l10.5,76.7C355.9,335.1,350.9,341.6,343.9,342.6z"/>
<path class="st1" d="M344.3,345.6l-149.6,20.5c-8.7,1.2-16.7-4.9-17.9-13.6l-10.5-76.7c-1.2-8.7,4.9-16.7,13.6-17.9l149.6-20.5
	c8.7-1.2,16.7,4.9,17.9,13.6l10.5,76.7C359.1,336.4,353,344.4,344.3,345.6z M180.7,263.8c-5.4,0.7-9.2,5.7-8.4,11.1l10.5,76.7
	c0.7,5.4,5.7,9.2,11.1,8.4l149.6-20.5c5.4-0.7,9.2-5.7,8.4-11.1l-10.5-76.7c-0.7-5.4-5.7-9.2-11.1-8.4L180.7,263.8z"/>
<path class="st4" d="M279.6,294.4l-33-13.5c-4.1-1.7-8.4,1.7-7.8,6l4.8,35.4c0.6,4.3,5.7,6.4,9.1,3.7l28.2-21.9
	C284.4,301.4,283.6,296,279.6,294.4z"/>
<path class="st2" d="M322.6,400c0.3-0.8,0.4-1.7,0.3-2.6c-0.4-3.1-3.2-5.2-6.3-4.8l-54.1,7.4H322.6z"/>
</svg>
