<?xml version="1.0" encoding="utf-8"?>
<!-- Generator: Adobe Illustrator 24.3.0, SVG Export Plug-In . SVG Version: 6.00 Build 0)  -->
<svg version="1.1" id="Camada_1" xmlns="http://www.w3.org/2000/svg" xmlns:xlink="http://www.w3.org/1999/xlink" x="0px" y="0px"
	 width="400px" height="400px" viewBox="0 0 400 400" style="enable-background:new 0 0 400 400;" xml:space="preserve">
<style type="text/css">
	.st0{fill:#292930;}
	.st1{fill:#48C1E1;}
	.st2{fill:#046699;}
	.st3{opacity:0.1;}
	.st4{fill:#A2DFF9;}
	.st5{opacity:0.1;enable-background:new    ;}
	.st6{fill:#EF5050;}
	.st7{fill:#C0272D;}
	.st8{fill:#89C947;}
	.st9{fill:#D5E962;}
	.st10{fill:#FFC502;}
	.st11{fill:#368C0E;}
	.st12{fill:#F7931E;}
	.st13{fill:#E6E9ED;}
</style>
<rect class="st0" width="400" height="400"/>
<rect x="108.2" y="239.3" transform="matrix(0.9482 -0.3177 0.3177 0.9482 -72.5018 51.3558)" class="st1" width="26" height="17.4"/>
<path class="st2" d="M135.3,232.1c0.5,1.4-0.3,2.8-1.6,3.3l-29.9,10c-1.4,0.5-2.8-0.3-3.3-1.6l-5.9-17.7c-0.5-1.4,0.3-2.8,1.6-3.3
	l29.9-10c1.4-0.5,2.8,0.3,3.3,1.6L135.3,232.1L135.3,232.1z"/>
<g class="st3">
	<path d="M110.7,240.3l-5.9-17.7c-0.5-1.4,0.3-2.8,1.6-3.3l-10.2,3.4c-1.4,0.5-2.1,1.9-1.6,3.3l5.9,17.7c0.5,1.4,1.9,2.1,3.3,1.6
		l10.2-3.4C112.6,242.4,111.1,241.7,110.7,240.3z"/>
</g>
<path class="st4" d="M143.2,379.9c0.1-0.1,0.2-0.2,0.2-0.4c0-0.1-0.1-0.3-0.2-0.4c-0.3-0.3-0.5-0.6-0.7-1c-0.9-2.6,4-7.4,12.7-10.3
	c2.8-0.9,5.6-1.5,8.2-1.7c0,0,0.1,0,0.1,0c0.1,0,0.2-0.1,0.3-0.3c0.1-0.2,0.1-0.3,0-0.5c-3.5-5.5-6.5-11.5-8.8-17.7
	c0-0.1-0.1-0.1-0.1-0.2c-0.3-0.9-0.6-1.8-1-2.7c-0.4-1.1,0.2-2.3,1.3-2.7l4.3-1.4c0.1,0,0.2-0.1,0.3-0.3s0.1-0.3,0-0.4
	c-0.3-0.6-0.5-1.1-0.7-1.6c-2.2-6.7,0.1-14,5.8-18.2c0.1-0.1,0.2-0.2,0.2-0.4c0-0.1,0-0.3-0.1-0.4c-1-1-1.8-2.1-2.5-3.4
	c-3.3-6.1-2-13.6,3-18.3c0.2-0.2,0.2-0.5,0.1-0.7c-0.5-0.7-1-1.4-1.4-2.2c-2.7-4.9-2.3-10.6,0.4-15.1l-6.9-20.5
	c-2.5-7.5-10.7-11.6-18.3-9.1L108,260.7c-7.5,2.5-11.6,10.7-9.1,18.3l36.8,109.8C137.7,385.5,140.2,382.5,143.2,379.9z"/>
<path class="st2" d="M165,320.2c0.1-0.1,0.2-0.2,0.2-0.4c0-0.1,0-0.3-0.1-0.4c-1-1-1.8-2.1-2.5-3.4c-3.3-6.1-2-13.6,3-18.3
	c0.2-0.2,0.2-0.5,0.1-0.7c-0.5-0.7-1-1.4-1.4-2.2c-2.7-4.9-2.3-10.6,0.4-15.1l-3.1-9.2l-58.8,19.7l17,50.7l39.6-13.3
	C160.4,324.8,162.3,322.1,165,320.2z"/>
<path class="st5" d="M146.6,372.2l-32.9-98.1c-2.5-7.5,1.6-15.8,9.1-18.3l-14.8,4.9c-7.5,2.5-11.6,10.7-9.1,18.3l36.8,109.8
	c2-3.2,4.5-6.2,7.5-8.8c0.1-0.1,0.2-0.2,0.2-0.4c0-0.1-0.1-0.3-0.2-0.4c-0.3-0.3-0.5-0.6-0.7-1C142,376.7,143.5,374.4,146.6,372.2z"
	/>
<path class="st6" d="M211.1,269.5c0.4,0.7,0.8,1.5,1,2.4c0.1,0.2,0.3,0.4,0.6,0.3c6.3-1.5,12.8,1.1,16.3,6.6
	c0.1,0.1,0.3,0.2,0.4,0.2c0,0,0.1,0,0.1,0c0.1,0,0.2-0.1,0.3-0.2c1.7-3.2,4.3-5.6,7.6-7c0.2-0.1,0.4-0.4,0.3-0.6
	c-2-6.8-1.4-14,1.7-20.3c0.1-0.1,0.1-0.3,0.2-0.4c-3.3-6.3-8.5-11.7-15.3-15.1c-1.3-0.7-3-0.1-3.6,1.2l-13.9,28
	C208.5,265.9,210,267.6,211.1,269.5z"/>
<g>
	<path class="st7" d="M229,278.8c0.1,0.1,0.3,0.2,0.4,0.2c0,0,0.1,0,0.1,0c0.1,0,0.2-0.1,0.3-0.2c0.8-1.5,1.9-2.9,3.1-4.1
		c-0.3-0.5-0.8-0.9-1.4-1.2l-4.6-2.3c-1.9-0.9-4.1-0.2-5.1,1.7c0,0,0,0,0,0C224.8,274.1,227.3,276.1,229,278.8z"/>
	<path class="st7" d="M232.9,265.7l-4.9,1.6c-2,0.7-4.1-0.4-4.8-2.4c-0.7-2,0.4-4.1,2.4-4.8l4.9-1.6c2-0.7,4.1,0.4,4.8,2.4
		C235.9,263,234.9,265.1,232.9,265.7z"/>
	<path class="st7" d="M224,257.7c-0.9,0.3-1.9,0.3-2.9-0.2c-1.9-0.9-2.6-3.2-1.7-5.1l2.3-4.6c0.9-1.9,3.2-2.6,5.1-1.7
		c1.9,0.9,2.6,3.2,1.7,5.1l-2.3,4.6C225.7,256.8,224.9,257.4,224,257.7z"/>
</g>
<path class="st8" d="M266.4,235.4c-0.1-0.1-0.2-0.2-0.3-0.2c-0.1-0.1-0.2-0.1-0.4-0.1c-11.2-0.6-21.7,5.5-26.7,15.5
	c-3.3,6.7-3.8,14.3-1.6,21.1c0.5-0.2,1-0.4,1.5-0.6c7.4-2.5,15.4,0.8,19.1,7.3c5.1-2.7,9.4-7,12.1-12.4
	C275.1,256.1,273.6,244,266.4,235.4z"/>
<path class="st9" d="M257.7,252.1c-1.9-0.9-4.1-0.2-5.1,1.7l-8.2,16.5c2.6,0.1,5.2,0.8,7.4,2l7.6-15.2
	C260.3,255.3,259.5,253.1,257.7,252.1z"/>
<g>
	<path class="st10" d="M285.2,274.7c0.4,0.7,0.7,1.4,0.9,2.1c0.1,0.2,0.3,0.4,0.6,0.3c2-0.5,4-0.5,6.1-0.1c0.1,0,0.2,0,0.3,0
		c0.1,0,0.2-0.1,0.3-0.3c0.3-0.6,0.5-1.1,0.7-1.6c1.9-3.8,4.7-7.1,8.1-9.5c-0.1-1.4-0.4-2.9-0.8-4.3c-2.9-8.7-12.3-13.4-21-10.5
		c-7.4,2.5-11.9,9.7-11.3,17.2C275.3,266.2,282.1,268.9,285.2,274.7z"/>
	<path class="st10" d="M184.4,331.9c-2.5-2.3-4.6-5.1-6-8.1c-4.9,0.8-9.8-0.9-13.3-4.4c-6,4.1-8.8,11.8-6.4,19
		c0.2,0.6,0.5,1.2,0.7,1.8L184.4,331.9L184.4,331.9L184.4,331.9z"/>
</g>
<path class="st8" d="M301.9,283.9c1.4,2.5,1.9,5.3,1.5,8.1l20.2-6.8c2.5-8.3,0.8-17.5-5-24.2c-0.1-0.1-0.2-0.2-0.3-0.2
	c-0.1,0-0.2-0.1-0.3-0.1c-10.3-0.6-19.9,5-24.5,14.3c-0.3,0.7-0.6,1.4-0.9,2.1C296.6,277.9,300,280.3,301.9,283.9z"/>
<path class="st9" d="M303.5,292l4.4-1.5l4.7-9.4c0.9-1.9,0.2-4.1-1.7-5.1c-1.9-0.9-4.1-0.2-5.1,1.7l-3.5,7
	C303.4,287.1,303.8,289.5,303.5,292z"/>
<path class="st11" d="M229.6,278.9c-3.6-5.9-10.6-8.7-17.1-7.1c-0.3-0.8-0.6-1.7-1.1-2.5c-4.1-7.6-13.7-10.5-21.3-6.3
	c-4,2.1-6.6,5.7-7.7,9.8c-4-1.3-8.4-1-12.4,1.1c-7.6,4.1-10.5,13.7-6.4,21.3c0.4,0.8,0.9,1.5,1.5,2.2c-5.1,4.8-6.5,12.5-3.1,18.9
	c3.3,6,9.9,9.1,16.4,8c-2-3.9-2.9-8.3-2.7-12.8c0,0,0-0.1,0-0.1c0,0,0-0.1,0.1-0.1c2.5-2.1,5.3-3.7,8.3-4.7
	c6.4-2.1,13.3-1.7,19.3,1.4c0.4,0.2,0.9,0.5,1.3,0.7c-0.8-1.6-1.5-3.2-2.1-4.9c-0.4-1.2,0.2-2.4,1.4-2.8l25-8.4
	c-0.1-0.3-0.3-0.7-0.4-1C227.3,287.3,227.8,282.7,229.6,278.9z"/>
<g>
	<path class="st8" d="M177.9,297.8C177.9,297.8,177.9,297.8,177.9,297.8c-2,0.6-4.2-0.5-4.8-2.4c-2-6.2,1.4-12.9,7.6-15
		c0.1,0,0.1,0,0.2-0.1c3.1-1,6.6-0.6,9.4,0.9c1.8,1,2.5,3.3,1.5,5.1c-1,1.8-3.3,2.5-5.1,1.5c-1.1-0.6-2.3-0.7-3.5-0.3
		c-2.3,0.7-3.6,3.2-2.9,5.6C180.9,295.1,179.9,297.1,177.9,297.8z"/>
	<path class="st8" d="M199.7,297.3c-0.4,0.1-0.9,0.2-1.3,0.2c-2.1-0.1-3.7-1.8-3.6-3.9c0.2-6,5.3-10.8,11.3-10.6
		c3,0.1,5.9,1.4,7.9,3.7c1.4,1.6,1.2,3.9-0.3,5.3c-1.6,1.4-3.9,1.2-5.3-0.3c-0.6-0.7-1.5-1.1-2.5-1.2c-1.9-0.1-3.5,1.4-3.6,3.3
		C202.2,295.5,201.2,296.9,199.7,297.3z"/>
</g>
<path class="st11" d="M259.6,282.4l-0.1,0c0,0,0,0.1,0,0.1l4.8-1.6c1.4-0.5,3,0.3,3.4,1.7c2.4,7.2,2.3,14.6,0.2,21.3l36.1-12.1
	c0.3-2.7-0.2-5.6-1.6-8.2c-3.1-5.8-9.7-8.5-15.8-7c-0.3-0.8-0.6-1.5-1-2.2c-3.7-6.9-12.3-9.5-19.2-5.7c-3.6,1.9-6,5.2-7,8.8
	c-0.8-0.3-1.6-0.5-2.5-0.6c1,1.3,1.8,2.8,2.3,4.4C259.4,281.7,259.5,282,259.6,282.4z"/>
<path class="st12" d="M260.1,282.2c-0.1-0.3-0.2-0.7-0.3-1c-2.9-8.7-12.3-13.4-21-10.5c-8.7,2.9-13.4,12.3-10.5,21.1
	c0.1,0.3,0.2,0.7,0.4,1L260.1,282.2z"/>
<path class="st8" d="M203.8,307.5c-9.2-4.6-20.3-3.3-28.2,3.4c-0.1,0.1-0.2,0.2-0.2,0.3c0,0.1-0.1,0.2-0.1,0.3
	c-0.4,7.9,2.8,15.5,8.5,20.6l32.4-10.9c-4.8-3.3-8.7-7.7-11.4-13.2C204.5,307.9,204.2,307.7,203.8,307.5z"/>
<path class="st9" d="M198.9,327.1l10.1-3.4l-13.3-6.6c-1.9-0.9-4.1-0.2-5.1,1.7c-0.9,1.9-0.2,4.1,1.7,5.1L198.9,327.1z"/>
<path class="st6" d="M268.2,303.9c2.3-6.9,2.5-14.6,0-22c-0.5-1.4-2-2.2-3.4-1.7L204,300.5c-1.4,0.5-2.2,2-1.7,3.4
	c2.5,7.4,7.2,13.4,13.2,17.6L268.2,303.9z"/>
<g>
	<path class="st7" d="M245.6,311.4l-0.8-2.5c-0.7-2-2.8-3-4.8-2.4c-2,0.7-3,2.8-2.4,4.8l0.8,2.5L245.6,311.4z"/>
	<path class="st7" d="M252.4,309.1l5.6-1.9c0.7-1.8-0.1-3.8-1.8-4.7l-4.6-2.3c-1.9-0.9-4.1-0.2-5.1,1.7c-0.9,1.9-0.2,4.1,1.7,5.1
		L252.4,309.1z"/>
	<path class="st7" d="M231,316.3l2.1-4.3c0.9-1.9,0.2-4.1-1.7-5.1c-1.9-0.9-4.1-0.2-5.1,1.7l-2.3,4.6c-0.9,1.7-0.3,3.8,1.4,4.9
		L231,316.3L231,316.3z"/>
	<path class="st7" d="M222.3,308.5l-4.9,1.6c-2,0.7-4.1-0.4-4.8-2.4s0.4-4.1,2.4-4.8l4.9-1.6c2-0.7,4.1,0.4,4.8,2.4
		C225.3,305.7,224.2,307.9,222.3,308.5z"/>
	<path class="st7" d="M259.9,295.9l-4.9,1.6c-2,0.7-4.1-0.4-4.8-2.4c-0.7-2,0.4-4.1,2.4-4.8l4.9-1.6c2-0.7,4.1,0.4,4.8,2.4
		C262.9,293.1,261.9,295.3,259.9,295.9z"/>
</g>
<path class="st13" d="M164.1,366.1c0,0,0.1,0,0.1,0c0.1,0,0.2-0.1,0.3-0.2c0.1-0.1,0.1-0.3,0.1-0.4l-2-6c-0.6-1.7,0.4-3.6,2.1-4.1
	c1.7-0.6,3.6,0.4,4.1,2.1l2,6c0,0.1,0.2,0.3,0.3,0.3c0.1,0,0.2,0,0.3,0c0,0,0.1,0,0.1-0.1c2.3-1.5,5.1-2.9,8.2-3.9
	c8.7-2.9,15.4-2,16.3,0.6c0.1,0.3,0.1,0.7,0,1.2c0,0.1,0,0.3,0.1,0.4c0.1,0.1,0.2,0.2,0.4,0.2c12.6,0.9,23.8,7.9,29,18.5
	c0.1,0.1,0.2,0.2,0.3,0.3c0.1,0,0.2,0,0.3,0c0.1,0,0.1,0,0.2-0.1l65.7-53.8c1.3-1,2.7-1.8,4.3-2.4c2.2-0.7,4.5-0.9,6.8-0.5
	c3.9,0.7,7.3,3.2,9.2,6.7l1.8,3.3c0.1,0.1,0.2,0.2,0.4,0.3c0.1,0,0.1,0,0.2,0c0.1,0,0.2-0.1,0.2-0.1l20.3-23.4
	c-0.4-8.5-2-16.9-4.8-25.1c-0.5-1.4-1.9-2.1-3.3-1.6l-172.1,57.7c-1.4,0.5-2.1,1.9-1.6,3.3c2.5,7.6,6,14.7,10.2,21.3
	C163.8,366.2,164,366.1,164.1,366.1z"/>
<path class="st5" d="M164.1,366.1c0,0,0.1,0,0.1,0c0.1,0,0.2-0.1,0.3-0.2c0.1-0.1,0.1-0.3,0.1-0.4l-2-6c-0.6-1.7,0.4-3.6,2.1-4.1
	c1.7-0.6,3.6,0.4,4.1,2.1l2,6c0,0.1,0.2,0.3,0.3,0.3c0.1,0,0.2,0,0.3,0c0,0,0.1,0,0.1-0.1c1.9-1.3,4.3-2.5,6.9-3.5
	c-4-6.3-7.2-13.1-9.7-20.4c-0.5-1.4,0.3-2.8,1.6-3.3l-15.3,5.1c-1.4,0.5-2.1,1.9-1.6,3.3c2.5,7.6,6,14.7,10.2,21.3
	C163.8,366.2,164,366.1,164.1,366.1z"/>
<path class="st8" d="M168.4,366.6c0.8-0.9,1.8-1.8,3.1-2.6l-2.3-6.8c-0.7-2-2.8-3-4.8-2.4c-2,0.7-3,2.8-2.4,4.8l2.3,6.8
	C165.9,366.3,167.3,366.4,168.4,366.6z"/>
<path class="st11" d="M196.5,360.1c-1.1-3.3-8.7-3.7-17-0.9c-5.1,1.7-9.2,4.2-11.4,6.6c-3.2-0.6-8-0.1-13.1,1.6
	c-8.3,2.8-14.1,7.7-13,10.9c0.9,2.7,6.2,3.4,12.6,2.1c-2.8,4.3-3.4,8.1-1.3,9.3c2.8,1.6,9.5-1.8,14.9-7.7c1.5-1.7,2.8-3.3,3.7-4.9
	c1.7,0.7,3.7,1.3,5.9,1.7c7.8,1.4,15.2,0.2,16.5-2.8c1-2.3-1.8-4.9-6.6-6.6C193.7,366.6,197.4,362.8,196.5,360.1z"/>
<path class="st8" d="M372.3,324.8l-2.7-4.9c-0.9-1.7-3-2.3-4.7-1.4l-34.8,19.2l18.4-23.7c0.9-1.1,0.9-2.6,0.3-3.8
	c-0.2-0.3-0.4-0.6-0.7-0.9l-4.3-3.8c-0.7-0.6-1.6-0.9-2.6-0.9c-0.9,0.1-1.8,0.5-2.4,1.2l-24.7,28.5l16.4,29.5l37.4-5.5
	c0.9-0.1,1.8-0.6,2.3-1.4c0.6-0.8,0.8-1.7,0.6-2.6l-1-5.6c-0.1-0.4-0.2-0.7-0.4-1.1c-0.7-1.2-2-1.9-3.4-1.8l-29.9,2.9l34.8-19.2
	C372.7,328.6,373.3,326.5,372.3,324.8z"/>
<path class="st12" d="M290.4,400l35.5-11.9c3.9-1.3,7.1-4.3,8.6-8.1c1.5-3.8,1.2-8.2-0.8-11.8l-20.9-37.7c-2-3.6-5.5-6.1-9.6-6.9
	c-4.1-0.8-8.3,0.3-11.5,2.9L202,400H290.4z"/>
<path class="st10" d="M313.9,373.5c-1-1.8-3.3-2.5-5.1-1.4c-1.8,1-2.5,3.3-1.4,5.1l8.1,14.4l7.3-2.4L313.9,373.5z"/>
<path class="st10" d="M296,384.3c-1-1.8-3.3-2.5-5.1-1.5c-1.8,1-2.5,3.3-1.5,5.1l5.8,10.5l7.3-2.4L296,384.3z"/>
<path class="st10" d="M268,363.7c1,1.5,2.8,2.1,4.4,1.5c0.3-0.1,0.6-0.2,0.8-0.4c1.8-1.1,2.3-3.5,1.1-5.2l-7.9-12.4l-5.9,4.8
	L268,363.7z"/>
<path class="st6" d="M202.8,400l23.5-19.2c-5.5-11.4-17.2-18.5-30.2-19.2c-0.5,2.2-3.8,5.2-8.6,7.4c-0.2,0.1-0.3,0.3-0.3,0.5
	c0,0.2,0.1,0.4,0.3,0.4c3.3,1.2,5.6,2.8,6.3,4.4c0.2,0.6,0.3,1.1,0,1.6c-0.4,0.9-1.5,1.7-3.1,2.2c0,0,0,0,0,0
	c-3.2,1.1-8,1.2-12.8,0.3c-2.1-0.4-4.1-0.9-5.8-1.6c-0.1,0-0.2,0-0.3,0c-0.1,0-0.2,0.1-0.3,0.2c-1,1.6-2.2,3.2-3.7,4.8
	c-3.3,3.6-7.2,6.4-10.4,7.5c-1.7,0.6-3,0.6-3.8,0.1c-0.5-0.3-0.8-0.7-0.9-1.3c-0.4-1.6,0.5-4.4,2.4-7.3c0.1-0.2,0.1-0.4,0-0.6
	c-0.1-0.2-0.3-0.2-0.5-0.2c-5.2,1.1-9.6,0.7-11.3-0.8c-6.5,5.5-10.9,12.9-12.5,20.8H202.8z"/>
<path class="st5" d="M145.6,400c0.3-7.1,2.8-13.9,7.2-19.7c-4.4,0.7-8,0.2-9.5-1.1c-6.5,5.5-10.9,12.9-12.5,20.8H145.6z"/>
<path class="st3" d="M220.5,400l79-64.8c3.3-2.7,7.7-3.9,12-3.1c0.9,0.2,1.8,0.4,2.6,0.7l-1.4-2.5c-2-3.6-5.5-6.1-9.6-6.9
	c-4.1-0.8-8.3,0.3-11.5,2.9L202,400H220.5z"/>
<path class="st10" d="M219.8,400h5.1c1.3-1.2,1.6-3.1,0.7-4.7l-5.8-9.9l-5.9,4.8l5.2,8.8C219.3,399.5,219.5,399.7,219.8,400z"/>
<path class="st10" d="M252.2,400h8.6l-3.4-6.3c-1-1.8-3.3-2.5-5.1-1.5c-1.8,1-2.5,3.3-1.5,5.1L252.2,400z"/>
</svg>
