<?xml version="1.0" encoding="utf-8"?>
<!-- Generator: Adobe Illustrator 24.3.0, SVG Export Plug-In . SVG Version: 6.00 Build 0)  -->
<svg version="1.1" id="Camada_1" xmlns="http://www.w3.org/2000/svg" xmlns:xlink="http://www.w3.org/1999/xlink" x="0px" y="0px"
	 width="400px" height="400px" viewBox="0 0 400 400" style="enable-background:new 0 0 400 400;" xml:space="preserve">
<style type="text/css">
	.st0{fill:#292930;}
	.st1{fill:url(#SVGID_1_);}
	.st2{fill:url(#SVGID_2_);}
	.st3{fill:#F7CAA5;}
	.st4{fill:#E27C48;}
	.st5{fill:#E51C42;}
	.st6{fill:#EDB288;}
	.st7{fill:#C61C44;}
	.st8{fill:url(#SVGID_3_);}
</style>
<rect class="st0" width="400" height="400"/>
<linearGradient id="SVGID_1_" gradientUnits="userSpaceOnUse" x1="43.1022" y1="-109.7199" x2="89.1613" y2="-109.7199" gradientTransform="matrix(0.919 -0.3942 0.3942 0.919 262.503 353.1009)">
	<stop  offset="0" style="stop-color:#FFD945"/>
	<stop  offset="0.3043" style="stop-color:#FFCD3E"/>
	<stop  offset="0.8558" style="stop-color:#FFAD2B"/>
	<stop  offset="1" style="stop-color:#FFA325"/>
</linearGradient>
<polygon class="st1" points="268.7,223.2 270.5,222.1 271.4,206.1 283.6,216.5 299.2,212.4 293,227.2 301.7,240.7 285.7,239.4 
	275.6,251.9 273.3,242.5 271.8,236.3 256.8,230.5 "/>
<linearGradient id="SVGID_2_" gradientUnits="userSpaceOnUse" x1="46.5772" y1="246.9846" x2="77.1773" y2="246.9846" gradientTransform="matrix(0.9978 -6.648530e-02 6.648530e-02 0.9978 47.7451 107.2269)">
	<stop  offset="0" style="stop-color:#FFD945"/>
	<stop  offset="0.3043" style="stop-color:#FFCD3E"/>
	<stop  offset="0.8558" style="stop-color:#FFAD2B"/>
	<stop  offset="1" style="stop-color:#FFA325"/>
</linearGradient>
<polygon class="st2" points="119.5,345.2 120.9,344.9 124.9,335 130.3,344.3 140.9,345.1 133.8,353.1 136.3,363.4 126.5,359.1 
	117.4,364.7 118.1,358.3 118.5,354.1 110.4,347.1 "/>
<path class="st3" d="M195.3,339c-6.6-1.1-13-3.5-18.6-7.3c-10.6-7-18.2-17.6-21.4-29.8l0-0.1c-0.1,0-0.3,0-0.4,0
	c-5.6,0.3-10.6-3.4-11.9-8.8c-0.2-0.9-0.4-1.9-0.4-2.8c-0.1-3.8,2.4-7.3,6-8.5L147,276l1.9,1.1c3.8,2.2,8.6,1,10.8-2.8
	c0.5-0.8,0.8-1.6,1-2.5c0.4-2.2,1.7-4.2,3.7-4.9c8.2-2.6,22.8-7.2,34.6-21c14.5,9,32.1,11.7,48.7,7.4l0.5-0.1l0.6,2.5
	c3.8-0.7,7.6,1.2,9.4,4.6c2.8,5.3,1.3,11.8-3.6,15.2c-0.6,0.4-1.2,0.8-1.9,1.1l0,0.1c4.9,19.2-2.1,40.3-17.1,51.8
	c-4.4,3.4-9.5,5.9-15,7.3l-8.7,2.3C206.5,339.5,200.8,339.8,195.3,339z"/>
<path class="st4" d="M265.1,297.1c7.9,16,1.2,35.4-14.8,43.2c-1.8,0.9-3.6,1.6-5.5,2.1l0,0.4l-5.6-0.4l-3.6-13.9
	c14.9-11.5,22-32.6,17.1-51.8l0-0.1c0.7-0.3,1.3-0.7,1.9-1.1L265.1,297.1z"/>
<path class="st4" d="M199,246.1c-11.9,13.9-26.5,18.4-34.6,21c-1.9,0.6-3.2,2.7-3.7,4.9c-0.2,0.9-0.5,1.7-1,2.5
	c-2.2,3.7-7.1,5-10.8,2.8L147,276l-4.5-17.2c-7.2-27.8,9.5-56.1,37.3-63.2c27.8-7.2,56.1,9.5,63.2,37.3c0,0.1,0.1,0.2,0.1,0.3
	l5.1,20.2l-0.5,0.1C231.1,257.8,213.5,255.1,199,246.1z"/>
<polygon class="st5" points="259.2,343.9 230.3,391.3 230.2,391.3 224.2,367.7 224.2,367.7 239.2,342.4 244.8,342.8 248.2,343.1 "/>
<path class="st6" d="M224.2,367.7l-25.3-14.9l-3.6-13.9c5.5,0.9,11.2,0.6,16.6-0.8l8.7-2.3c5.4-1.4,10.5-3.9,15-7.3l3.6,13.9
	L224.2,367.7L224.2,367.7z"/>
<polygon class="st7" points="192.4,357 198.9,352.8 224.2,367.7 230.2,391.3 182.1,363.8 "/>
<path class="st4" d="M195.3,339l3.6,13.9l-6.5,4.2c0,0-0.1,0-0.1,0c-19.8,3.3-37.7-12.1-37.5-32.1l0.2-23.1c0.1,0,0.3,0,0.4,0l0,0.1
	c3.2,12.2,10.9,22.8,21.4,29.8C182.3,335.4,188.6,337.9,195.3,339z"/>
<path class="st7" d="M304.7,400l-1-12.4L270,368.3l31-13c-4.3-5.6-10.8-9.1-17.9-9.7l-23.9-1.8l-28.9,47.4l-0.1,0l2.2,8.7H304.7z"/>
<path class="st5" d="M232.5,400l-2.2-8.7l-48.2-27.5L162,376.9c-7.8,5.1-12,14-11.1,23.1H232.5z"/>
<linearGradient id="SVGID_3_" gradientUnits="userSpaceOnUse" x1="269.9662" y1="357.6648" x2="377.579" y2="357.6648">
	<stop  offset="0" style="stop-color:#FFD945"/>
	<stop  offset="0.3043" style="stop-color:#FFCD3E"/>
	<stop  offset="0.8558" style="stop-color:#FFAD2B"/>
	<stop  offset="1" style="stop-color:#FFA325"/>
</linearGradient>
<polygon class="st8" points="304.7,400 369.3,400 357.4,373.7 377.6,340.5 339,344.7 313.7,315.3 305.7,353.3 301,355.3 270,368.3 
	303.6,387.6 "/>
</svg>
