<?xml version="1.0" encoding="utf-8"?>
<!-- Generator: Adobe Illustrator 24.3.0, SVG Export Plug-In . SVG Version: 6.00 Build 0)  -->
<svg version="1.1" id="Camada_1" xmlns="http://www.w3.org/2000/svg" xmlns:xlink="http://www.w3.org/1999/xlink" x="0px" y="0px"
	 width="400px" height="400px" viewBox="0 0 400 400" style="enable-background:new 0 0 400 400;" xml:space="preserve">
<style type="text/css">
	.st0{fill:#292930;}
	.st1{fill:#FFFFFF;}
	.st2{fill:#49D3FF;}
	.st3{fill:#FE5D7A;}
	.st4{fill:#1EED89;}
	.st5{fill:#FFCD4B;}
</style>
<rect class="st0" width="400" height="400"/>
<g>
	<path class="st1" d="M289.2,260.3L289.2,260.3c-1.8-8.8-10.4-14.4-19.1-12.6l-38.6,7.9l11.2,54.5l9.1-1.9l0,0
		c-2.2-10.8,3.5-21.4,13.1-25.7l25.7,17l2.6-3.9l2.5-3.8l-18.7-12.3C285.5,277.4,291,269,289.2,260.3z M280.1,262.2
		c0.8,3.8-1.7,7.4-5.4,8.2l-29.5,6.1l-2.8-13.6l29.5-6.1C275.7,256,279.3,258.4,280.1,262.2L280.1,262.2z"/>
	<path class="st2" d="M200.5,235.2C200.5,235.2,200.5,235.2,200.5,235.2c11.2-17,28.4-28.7,48.4-32.8c20-4.1,40.4-0.2,57.4,11.1
		l3.3-5.1c-38-25.1-89.2-14.6-114.2,23.4l0,0L200.5,235.2z"/>
	<path class="st3" d="M339.1,261.9c4.1,20,0.2,40.4-11.1,57.4l5.1,3.3l0,0c25.1-38,14.6-89.2-23.4-114.2l-3.3,5.1
		C323.4,224.7,335,241.9,339.1,261.9z"/>
	<path class="st4" d="M189.5,292.6c-4.1-20-0.2-40.4,11.1-57.4l-5.1-3.3l0,0c-25.1,38-14.6,89.2,23.4,114.2l3.3-5.1
		C205.2,329.8,193.6,312.6,189.5,292.6z"/>
	<path class="st5" d="M328.1,319.3C328.1,319.3,328.1,319.3,328.1,319.3c-11.2,17-28.4,28.7-48.4,32.8c-20,4.1-40.4,0.2-57.4-11.1
		l-3.3,5.1c38,25.1,89.2,14.6,114.2-23.4l0,0L328.1,319.3z"/>
</g>
</svg>
