<?xml version="1.0" encoding="utf-8"?>
<!-- Generator: Adobe Illustrator 24.3.0, SVG Export Plug-In . SVG Version: 6.00 Build 0)  -->
<svg version="1.1" id="Camada_1" xmlns="http://www.w3.org/2000/svg" xmlns:xlink="http://www.w3.org/1999/xlink" x="0px" y="0px"
	 width="400px" height="400px" viewBox="0 0 400 400" style="enable-background:new 0 0 400 400;" xml:space="preserve">
<style type="text/css">
	.st0{fill:#292930;}
	.st1{fill:#E27C48;}
	.st2{fill:#DF6937;}
	.st3{fill:#EBAE9D;}
	.st4{fill:#C5BEC6;}
	.st5{fill:#A59DA7;}
	.st6{fill:#DDEBFD;}
	.st7{fill:#FFCDBE;}
	.st8{fill:#FE5D7A;}
	.st9{fill:#D84C6B;}
	.st10{fill:#766D78;}
</style>
<rect class="st0" width="400" height="400"/>
<path class="st1" d="M303.8,229.1l-2.7,35.9l-70.5,8.1l-11.2-35.7c-0.7-2.4,0.3-4.9,2.5-6.1c3.4-1.9,7.6-3.1,12.8-3.4l8.7-18
	c1.2-2.4,3.5-4.1,6.2-4.4c16.2-1.8,30.8,0.5,44.1,6.7C300.3,215.1,304.4,221.9,303.8,229.1z"/>
<path class="st2" d="M293.7,212.1c-8.3-3.8-17.1-6.2-26.5-7c5.3,1.3,10.4,3.2,15.2,5.7c6.4,3.2,10.4,10.4,9.9,17.9l-2.3,37.5l11-1.3
	l2.7-35.9C304.4,221.9,300.3,215.1,293.7,212.1z"/>
<path class="st3" d="M301.6,272.4l-69.9,8c-4.3,0.5-8.2-2.6-8.7-6.9s2.6-8.2,6.9-8.7l69.9-8c4.3-0.5,8.2,2.6,8.7,6.9
	S305.9,271.9,301.6,272.4z"/>
<polygon class="st4" points="321.5,400 312.1,318.2 231.9,327.4 240.2,400 "/>
<path class="st4" d="M203.9,378.3l31.6,21.7h19.2l3.9-5.7L224,370.4c-2.4-1.6-3.3-4.8-2.1-7.4l11.2-24.9l3.6,31.4l80.2-9.2
	l-3.5-30.9l13.6,18.3l14.2-10.8l-16.6-22.3c-4.4-5.9-11.6-9.1-19-8.2l-70.3,8c-7.3,0.8-13.5,5.4-16.5,12.1l-18.1,40.3
	C198.9,370.9,200.2,375.7,203.9,378.3z"/>
<path class="st5" d="M302.5,307.3l10.6,92.7h8.4l-10.7-93.6c-1.7-0.2-3.4-0.3-5.1-0.1l-8.3,1C299.1,307.1,300.8,307.1,302.5,307.3z"
	/>
<polygon class="st5" points="235.6,400 240.2,400 237.9,380 229.5,374.2 232.2,397.7 "/>
<path class="st6" d="M276.7,298.8l-14.6,1.7l-8,6.6c-4.9,4-6.1,11-2.9,16.4l5.6,9.5c0.6,0.9,1.9,1.1,2.6,0.4l9.2-8.8
	c1.9-1.8,4.8-2.1,7.1-0.8l10.9,6.5c0.9,0.6,2.2,0.1,2.5-1l3.3-10.6c1.9-6-0.9-12.5-6.5-15.4L276.7,298.8z"/>
<path class="st7" d="M254.6,274.8l4,35.4c0.3,2.5,1.6,4.7,3.7,6.1l9.7,6.5l8-8.5c1.7-1.8,2.5-4.3,2.2-6.7l-4-35.4L254.6,274.8z"/>
<path class="st3" d="M281.7,302.8l-3.5-30.6l-23.5,2.7l3.5,30.6C265.8,307.1,274.6,306.1,281.7,302.8L281.7,302.8z"/>
<path class="st7" d="M292.8,281.6c-6,17.9-40.5,21.8-50.4,5.8c-6.1-9.9-6.4-43.3,1.7-51.9c0.4-0.4,0.9-0.9,1.4-1.3
	c6.8,6.6,23.4,11.2,38.7,12c2.8,0.1,5.2,2,5.9,4.7C293.5,262.2,294.9,275.3,292.8,281.6z"/>
<path class="st8" d="M311.5,304.3l-24.7,56.9c-0.7,1.7,0,3.6,1.7,4.3l38,16.5c1.7,0.7,3.6,0,4.3-1.7l24.7-56.9
	c0.7-1.7,0-3.6-1.7-4.3l-10.2-4.4l-9.8-1.1L326,307l-10.2-4.4C314.1,301.8,312.2,302.6,311.5,304.3L311.5,304.3z"/>
<path class="st9" d="M353.8,319l-8.6-3.7c1.6,0.7,2.3,2.6,1.6,4.3l-24.7,56.9c-0.7,1.7-2.6,2.4-4.2,1.7l8.6,3.7
	c1.7,0.7,3.6,0,4.3-1.7l24.7-56.9C356.2,321.7,355.4,319.8,353.8,319L353.8,319z"/>
<path class="st6" d="M326,307l-4,9.2c-0.6,1.4,0,3.1,1.5,3.7l12.4,5.4c1.4,0.6,3.1,0,3.7-1.5l4-9.2L326,307z"/>
<path class="st4" d="M322.9,337.9l24.2,19.8c3.8,3.1,4.4,8.7,1.2,12.5c-3.1,3.8-8.7,4.4-12.5,1.2l-24.2-19.8L322.9,337.9z"/>
<path class="st7" d="M322.9,337.9l-9.1-7.5c-2.8-2.3-7-1.9-9.4,0.9l-2.9,3.5c-2.3,2.8-1.9,7,0.9,9.4l9.1,7.5L322.9,337.9z"/>
<path class="st6" d="M246.9,355.1l1.4,11.8c0.1,0.7,0.7,1.2,1.4,1.1l19.4-2.2c0.7-0.1,1.2-0.7,1.1-1.4l-1.4-11.8
	c-0.1-0.7-0.7-1.2-1.4-1.1l-19.4,2.2C247.3,353.8,246.8,354.4,246.9,355.1z"/>
<g>
	<g>
		<path class="st10" d="M253.9,268.8c-1.6,0.2-3.1-1-3.3-2.6l-0.1-0.8c-0.2-1.6,1-3.1,2.6-3.3c1.6-0.2,3.1,1,3.3,2.6l0.1,0.8
			C256.7,267.2,255.6,268.7,253.9,268.8z"/>
		<path class="st10" d="M277.5,266.1c-1.6,0.2-3.1-1-3.3-2.6l-0.1-0.8c-0.2-1.6,1-3.1,2.6-3.3c1.6-0.2,3.1,1,3.3,2.6l0.1,0.8
			C280.3,264.5,279.1,266,277.5,266.1z"/>
	</g>
	<path class="st10" d="M268.2,283.3c-2.4,0.3-4.8,0-6.8-0.8c-1.5-0.6-2.3-2.3-1.7-3.9c0.6-1.5,2.3-2.3,3.9-1.7
		c2.4,0.9,5.8,0.5,7.9-0.9c1.4-0.9,3.2-0.6,4.1,0.8c0.9,1.4,0.6,3.2-0.8,4.1C272.8,282.3,270.5,283,268.2,283.3L268.2,283.3z"/>
</g>
</svg>
