<?xml version="1.0" encoding="utf-8"?>
<!-- Generator: Adobe Illustrator 24.3.0, SVG Export Plug-In . SVG Version: 6.00 Build 0)  -->
<svg version="1.1" id="Camada_1" xmlns="http://www.w3.org/2000/svg" xmlns:xlink="http://www.w3.org/1999/xlink" x="0px" y="0px"
	 width="400px" height="400px" viewBox="0 0 400 400" style="enable-background:new 0 0 400 400;" xml:space="preserve">
<style type="text/css">
	.st0{fill:#292930;}
	.st1{fill:#99BBFF;}
	.st2{fill:#8095FF;}
	.st3{fill:#FFD480;}
	.st4{fill:#FFBB33;}
</style>
<rect class="st0" width="400" height="400"/>
<path class="st1" d="M304.2,240.3l-16.3,3.3l-1.5,45.5c-2.8-1.8-6.1-2.9-9.5-3.1c-10.9-0.5-20.1,7.9-20.6,18.8
	c-0.6,12.1,9.8,21.7,21.7,20.5c9.6-0.9,17.3-8.8,17.8-18.7c0,0,1.8-55,1.8-55l7.7-1.5l42.5-8.5l-1.2,35.4c-2.8-1.8-6-2.9-9.5-3.1
	c-10.8-0.5-20.1,7.8-20.6,18.8c-0.6,12.1,9.8,21.7,21.7,20.5c9.6-0.9,17.3-8.8,17.8-18.7c0,0,2.2-65.1,2.2-65.1L304.2,240.3z"/>
<path class="st2" d="M346.6,277c-2.8-1.8-6-2.9-9.5-3.1c-10.8-0.5-20.1,7.8-20.6,18.8c-0.6,12.1,9.8,21.7,21.7,20.5
	c9.6-0.9,17.3-8.8,17.8-18.7c0,0,2.2-65.1,2.2-65.1l-53.8,10.8l1,9.9l42.5-8.5L346.6,277z"/>
<path class="st3" d="M215.6,285.5l-31.6-16.7l-9-4.7l12.5,40.7l0.2,0.6c0,0-0.1,0-0.1,0c-1.9-0.1-3.7,0.1-5.6,0.6
	c-9,2.8-14,12.3-11.3,21.3c2.5,8.1,10.2,12.7,17.9,12c0.8-0.1,1.5-0.3,2.3-0.5c9.5-2.2,15.3-12,12.4-21.5l-9.3-30.3l16.3,8.6
	L215.6,285.5z"/>
<path class="st4" d="M203.4,317.2l-9.3-30.3l16.3,8.6l5.3-10l-31.6-16.7l3.5,35.9l0.2,0.6c0,0-0.1,0-0.1,0l3.3,33.4
	C200.5,336.5,206.3,326.7,203.4,317.2z"/>
<path class="st1" d="M207.2,400l-5.5-19.4l12.9-7.5l17.5-10.1l6.2,21.7c-1.9-0.1-3.8,0-5.7,0.6c-6.9,2-11.6,8-12.3,14.8h33.9
	c-0.1-1-0.3-2.1-0.6-3.1l-14.6-51l-25.7,14.9l-25,14.5l7.1,24.8H207.2z"/>
<path class="st2" d="M232.1,363l6.2,21.7c-1.9-0.1-3.8,0-5.7,0.6c-6.9,2-11.6,8-12.3,14.8h33.9c-0.1-1-0.3-2.1-0.6-3.1l-14.6-51
	l-25.7,14.9l1.2,12.4L232.1,363z"/>
<path class="st3" d="M316.7,400c0.2-0.5,0.5-1,0.7-1.6l0,0l10.8-29.8l7.8,16.7l10.3-4.8L326.8,339l-14.7,40.6
	c-1.5-1.2-3.1-2.2-5-2.9c-2.2-0.8-4.5-1.1-6.7-1c-6.7,0.3-12.7,4.6-15.1,11.2c-1.7,4.6-1.2,9.3,0.7,13.2H316.7z"/>
<path class="st4" d="M316.7,400c0.2-0.5,0.5-1,0.7-1.6l0,0l10.8-29.8l7.8,16.7l10.3-4.8L326.8,339l-14.7,40.6
	c-1.5-1.2-3.1-2.2-5-2.9c-2.2-0.8-4.5-1.1-6.7-1l2.4,24.4H316.7z"/>
</svg>
