<?xml version="1.0" encoding="utf-8"?>
<!-- Generator: Adobe Illustrator 24.3.0, SVG Export Plug-In . SVG Version: 6.00 Build 0)  -->
<svg version="1.1" id="Camada_1" xmlns="http://www.w3.org/2000/svg" xmlns:xlink="http://www.w3.org/1999/xlink" x="0px" y="0px"
	 width="150px" height="150px" viewBox="0 0 150 150" style="enable-background:new 0 0 150 150;" xml:space="preserve">
<style type="text/css">
	.st0{fill:#FFFFFF;}
</style>
<g>
	<path class="st0" d="M148.5,44.5c-0.4-7.9-1.6-13.2-3.4-17.9c-1.9-4.9-4.8-9.4-8.5-13.1c-3.7-3.8-8.2-6.7-13.1-8.5
		c-4.7-1.8-10.1-3.1-17.9-3.4C97.6,1.1,95.1,1.1,75,1.1S52.4,1.1,44.5,1.5c-7.9,0.4-13.2,1.6-17.9,3.4c-4.9,1.9-9.4,4.8-13.1,8.5
		c-3.8,3.7-6.7,8.2-8.5,13.1c-1.8,4.7-3.1,10.1-3.4,17.9C1.1,52.4,1.1,54.9,1.1,75c0,20.1,0.1,22.6,0.4,30.5
		c0.4,7.9,1.6,13.2,3.4,17.9c1.9,4.9,4.8,9.4,8.5,13.1c3.7,3.8,8.2,6.7,13.1,8.5c4.7,1.8,10.1,3.1,17.9,3.4
		c7.9,0.4,10.4,0.4,30.5,0.4s22.6-0.1,30.5-0.4c7.9-0.4,13.2-1.6,17.9-3.4c9.9-3.8,17.8-11.7,21.6-21.6c1.8-4.7,3.1-10.1,3.4-17.9
		c0.4-7.9,0.4-10.4,0.4-30.5C148.9,54.9,148.9,52.4,148.5,44.5z M135.2,104.9c-0.3,7.2-1.5,11.1-2.5,13.7c-2.5,6.4-7.6,11.5-14,14
		c-2.6,1-6.5,2.2-13.7,2.5c-7.8,0.4-10.1,0.4-29.9,0.4c-19.7,0-22.1-0.1-29.9-0.4c-7.2-0.3-11.1-1.5-13.7-2.5
		c-3.2-1.2-6.1-3.1-8.5-5.5c-2.5-2.4-4.3-5.3-5.5-8.5c-1-2.6-2.2-6.5-2.5-13.7c-0.4-7.8-0.4-10.1-0.4-29.9c0-19.7,0.1-22.1,0.4-29.9
		c0.3-7.2,1.5-11.1,2.5-13.7c1.2-3.2,3.1-6.1,5.5-8.5c2.4-2.5,5.3-4.3,8.5-5.5c2.6-1,6.5-2.2,13.7-2.5c7.8-0.4,10.1-0.4,29.9-0.4h0
		c19.7,0,22.1,0.1,29.9,0.4c7.2,0.3,11.1,1.5,13.7,2.5c3.2,1.2,6.1,3.1,8.5,5.5c2.5,2.4,4.3,5.3,5.5,8.5c1,2.6,2.2,6.5,2.5,13.7
		c0.4,7.8,0.4,10.1,0.4,29.9C135.6,94.7,135.5,97.1,135.2,104.9z"/>
	<path class="st0" d="M75,37c-21,0-38,17-38,38s17,38,38,38c21,0,38-17,38-38S96,37,75,37z M75,99.6c-13.6,0-24.6-11-24.6-24.6
		c0-13.6,11-24.6,24.6-24.6c13.6,0,24.6,11,24.6,24.6C99.6,88.6,88.6,99.6,75,99.6z"/>
	<path class="st0" d="M123.3,35.5c0,4.9-4,8.9-8.9,8.9c-4.9,0-8.9-4-8.9-8.9c0-4.9,4-8.9,8.9-8.9C119.4,26.7,123.3,30.6,123.3,35.5z
		"/>
</g>
</svg>
