<?xml version="1.0" encoding="utf-8"?>
<!-- Generator: Adobe Illustrator 24.3.0, SVG Export Plug-In . SVG Version: 6.00 Build 0)  -->
<svg version="1.1" id="Camada_1" xmlns="http://www.w3.org/2000/svg" xmlns:xlink="http://www.w3.org/1999/xlink" x="0px" y="0px"
	 width="150px" height="150px" viewBox="0 0 150 150" style="enable-background:new 0 0 150 150;" xml:space="preserve">
<style type="text/css">
	.st0{fill-rule:evenodd;clip-rule:evenodd;fill:#FFFFFF;}
</style>
<g>
	<path class="st0" d="M135.1,89.1c-0.8-0.2-3.3-0.4-2.9-1.7c0.2-0.7,1.8-2.4,2.4-3.2c1.8-2.6,4.3-7.6,1.8-10.6
		c-3-3.2-9.5-0.4-12.4,1.5c-2.8,1.9-2.8,1.3-3-1.8c-0.3-3.5-2.2-10-6.4-10.4c-4.2-0.3-8,6.6-8.6,15.4c-0.4,5.9,1.3,11.3,4.4,15.5
		c-0.1,0.1-0.2,0.1-0.2,0.2c-3,3.1-5.6,6.1-8,9.2c0,0,0,0,0,0c0,0,0,0,0,0c0-0.1,0-0.3,0-0.4c0-0.5,0-0.9-0.1-1.4
		c0-0.2-0.1-0.5-0.1-0.7c-0.1-0.4-0.2-0.8-0.3-1.2c-0.1-0.2-0.1-0.5-0.2-0.7c-0.1-0.4-0.3-0.8-0.5-1.2c-0.1-0.2-0.2-0.4-0.3-0.6
		c-0.3-0.6-0.7-1.2-1.1-1.8c-2.7-3.8-7-5.9-11.1-5.8c-0.9,0-0.9,0-1.1,0.6c0,0.1-0.1,0.2-0.1,0.3c0,0.1-0.1,0.3-0.1,0.4c0,0,0,0,0,0
		c-1.2,3.8-0.6,8.2,2,11.9c1.4,2,3.3,3.5,5.3,4.5c0,0,0,0,0,0c0,0,0,0,0.1,0c0.6,0.3,1.2,0.5,1.9,0.7c0.1,0,0.3,0.1,0.4,0.1
		c0.5,0.1,1,0.2,1.5,0.3c0.1,0,0.2,0.1,0.3,0.1c0,0,0,0,0,0c0,0,0,0,0,0c-1.8,2.7-3.3,5.4-4.6,8.4c-3.7,8.4-5.7,16.2-5.7,29.8
		c0,1.2,1,2.2,2.2,2.2c1.2,0,2.2-1,2.2-2.2c0-4.5,0.2-8.2,0.6-11.6c2.2,1.4,4.7,2.4,7.4,2.9c0,0,0,0,0,0c0.1,0,0.1,0,0.2,0
		c0.2,0,0.5,0.1,0.7,0.1c0.2,0,0.4,0.1,0.6,0.1c0.3,0,0.5,0,0.8,0.1c0.2,0,0.4,0,0.6,0c0.3,0,0.5,0,0.8,0c0.2,0,0.4,0,0.6,0
		c0.3,0,0.6,0,0.8,0c0.2,0,0.4,0,0.6,0c0.3,0,0.6-0.1,0.8-0.1c0.2,0,0.4,0,0.6-0.1c0.3,0,0.6-0.1,0.8-0.2c0.2,0,0.4-0.1,0.6-0.1
		c0.3-0.1,0.6-0.1,0.9-0.2c0.2,0,0.4-0.1,0.5-0.1c0.5-0.1,0.9-0.3,1.4-0.5c0.8-0.3,1.7-0.7,2.4-1.1c4.1-2.1,7.2-5.4,9.1-9.1
		c0.6-1.2,1.1-2.5,1.5-3.8c0.4-1.5,0.4-1.3-0.8-2.2c0,0,0,0,0,0c-0.6-0.4-1.2-0.8-1.8-1.1c-0.2-0.1-0.4-0.2-0.6-0.3
		c-0.4-0.2-0.9-0.4-1.3-0.6c-0.2-0.1-0.5-0.2-0.7-0.3c-0.5-0.2-1-0.3-1.4-0.5c-0.2-0.1-0.5-0.1-0.7-0.2c-0.7-0.2-1.4-0.3-2.1-0.4
		c0,0-0.1,0-0.1,0c-0.8-0.1-1.5-0.1-2.3-0.1c-0.2,0-0.4,0-0.6,0c-0.6,0-1.2,0-1.8,0.1c-0.2,0-0.5,0.1-0.7,0.1c-0.3,0-0.5,0-0.8,0.1
		c0,0,0.1,0,0.1,0c-1.4,0.2-2.7,0.5-4.1,1c-4.1,1.5-7.4,4.1-9.7,7.2c0.7-2.4,1.7-4.8,2.7-7.1c3.5-7.8,8.7-14.3,15.4-21.3
		c3.8,3.6,9,5.8,14.8,6.2c8.8,0.5,16.1-2.4,16.3-6.6C144.5,92.4,138.5,89.8,135.1,89.1z"/>
	<path class="st0" d="M99.8,61.2c2.8-2.9,0-9.4-1.7-12.3c-1.7-3-1.9-3.9,1.7-4.9c3.3-0.9,10.1-3.5,10.2-7.6
		c-0.1-4.1-6.7-6.6-9.9-7.5c-3.4-0.9-4.1-1.4-2.2-4.6c1.7-3,4.7-9.6,1.8-12.6C97,9,90.7,11.5,87.9,13.1c-2.8,1.5-4.1,2.6-5.1-1.1
		c-0.9-3.3-3.4-10.4-7.7-10.6c-4,0.1-6.6,6.6-7.5,9.8c-0.9,3.4-1.3,4.1-4.6,2.3c-2.9-1.7-9.6-4.7-12.6-1.8
		c-2.6,2.8-0.2,8.8,1.3,11.6c1.7,3.1,2.9,4.4-1.3,5.5C47,29.7,40.2,32.2,40,36.4c0.1,3.9,6.4,6.5,9.5,7.4c3.7,1,4.4,1.5,2.4,5.1
		c-1.6,2.9-4.4,9.3-1.7,12.3c2.8,2.6,8.8,0.2,11.6-1.3c3.1-1.7,4.4-2.8,5.5,1.3c0.8,2.7,2.5,7.7,5.5,9.5l-0.1,75.7
		c0,1.2,1,2.2,2.2,2.2c1.2,0,2.2-1,2.2-2.2l0.1-75.7c2.8-1.8,4.6-6.6,5.4-9.1c0.9-3.3,1.4-4.1,4.6-2.2C90.2,61,96.8,64.1,99.8,61.2z
		 M75.1,49.6c-7.2,0-13.1-5.9-13.1-13.1s5.9-13.1,13.1-13.1c7.2,0,13.1,5.9,13.1,13.1C88.2,43.7,82.3,49.6,75.1,49.6z"/>
	<path class="st0" d="M51.5,108.2c0.2,0,0.3-0.1,0.5-0.1c0.2,0,0.3-0.1,0.5-0.1c0.4-0.1,0.7-0.2,1.1-0.3c0.1,0,0.3-0.1,0.4-0.1
		c0.5-0.2,1-0.3,1.4-0.6c0.1,0,0.1-0.1,0.2-0.1c0.4-0.2,0.8-0.4,1.2-0.7c0.2-0.1,0.3-0.2,0.5-0.3c0.3-0.2,0.6-0.4,0.9-0.6
		c0.2-0.1,0.3-0.2,0.5-0.4c0.3-0.2,0.6-0.5,0.8-0.8c0.1-0.1,0.3-0.2,0.4-0.4c0.4-0.4,0.7-0.9,1.1-1.3c2.7-3.8,3.3-8.5,1.9-12.3
		c-0.3-0.9-0.2-0.9-1.2-0.9c-0.5,0-1,0-1.5,0.1c-0.3,0-0.5,0.1-0.8,0.1c-0.2,0-0.5,0.1-0.7,0.1c-0.3,0.1-0.5,0.1-0.8,0.2
		c-0.2,0.1-0.5,0.1-0.7,0.2c-0.2,0.1-0.5,0.2-0.7,0.3c-0.2,0.1-0.4,0.2-0.6,0.3c0,0,0,0,0,0c-2,1-3.8,2.5-5.3,4.5
		c-1.8,2.5-2.6,5.4-2.6,8.1c-2.4-3.1-5.1-6.1-8-9.2c-0.1-0.1-0.2-0.1-0.2-0.2c3.1-4.2,4.7-9.6,4.4-15.5c-0.5-8.8-4.4-15.7-8.6-15.4
		c-4.4,0.4-6.2,7.2-6.5,10.7c-0.2,2.8-0.2,3.4-2.7,1.7c-3-2-9.6-5-12.7-1.7c-2.8,3.3,0.7,9.5,3,12.1c1.8,2.1,2.2,2.5-0.7,3.1
		c-3.5,0.7-10.3,3.3-10.2,7.8c0.3,4.2,7.6,7.2,16.3,6.6c5.9-0.4,11-2.6,14.8-6.2c6.7,7,11.9,13.5,15.4,21.3c1,2.3,1.9,4.6,2.7,7
		c-0.2-0.2-0.4-0.5-0.6-0.7c-0.1-0.1-0.1-0.2-0.2-0.3c-0.5-0.6-1-1.1-1.6-1.7c-0.1-0.1-0.2-0.2-0.3-0.3c-0.6-0.5-1.2-1-1.8-1.4
		c-0.1-0.1-0.2-0.2-0.4-0.3c-0.7-0.4-1.3-0.9-2-1.2c-0.1-0.1-0.2-0.1-0.3-0.2c-0.8-0.4-1.6-0.8-2.4-1.1c0,0,0,0,0,0c0,0,0,0,0,0
		c-0.8-0.3-1.6-0.5-2.4-0.7c-0.1,0-0.2,0-0.3-0.1c-0.8-0.2-1.5-0.3-2.3-0.4c-0.1,0-0.2,0-0.3,0c-0.8-0.1-1.5-0.1-2.2-0.1
		c-0.1,0-0.2,0-0.3,0c-0.8,0-1.5,0.1-2.2,0.1c-0.1,0-0.1,0-0.2,0c-0.3,0-0.6,0.1-0.9,0.1c0,0,0.1,0,0.1,0c-2.9,0.5-5.7,1.6-8,3.2
		c-1.3,0.9-1.2,0.7-0.8,2.2c1.5,6.1,6.2,11.5,13,14c1.3,0.5,2.6,0.8,4,1.1c0,0,0,0,0,0c0,0,0.1,0,0.1,0c0.6,0.1,1.1,0.2,1.7,0.2
		c0.2,0,0.4,0,0.6,0c0.4,0,0.8,0,1.2,0c0.2,0,0.4,0,0.6,0c0.5,0,1.1,0,1.6-0.1c0.2,0,0.4,0,0.5-0.1c0.4,0,0.8-0.1,1.2-0.2
		c0.2,0,0.4-0.1,0.6-0.1c0.5-0.1,1-0.2,1.5-0.4c0.1,0,0.2-0.1,0.3-0.1c0.4-0.1,0.9-0.3,1.3-0.4c0.1-0.1,0.3-0.1,0.4-0.2
		c1-0.4,2-1,2.9-1.6c0,0,0.1,0,0.1-0.1c0.4,3.4,0.6,7.1,0.6,11.6c0,1.2,1,2.2,2.2,2.2s2.2-1,2.2-2.2c0-13.6-2-21.4-5.7-29.8
		C54.8,113.6,53.2,110.9,51.5,108.2C51.5,108.2,51.5,108.2,51.5,108.2C51.5,108.2,51.5,108.2,51.5,108.2z M54.9,125.4
		c0,0,0,0.1,0,0.1C54.9,125.5,54.9,125.5,54.9,125.4C54.9,125.5,54.9,125.4,54.9,125.4z"/>
</g>
</svg>
