<?xml version="1.0" encoding="utf-8"?>
<!-- Generator: Adobe Illustrator 24.3.0, SVG Export Plug-In . SVG Version: 6.00 Build 0)  -->
<svg version="1.1" id="Camada_1" xmlns="http://www.w3.org/2000/svg" xmlns:xlink="http://www.w3.org/1999/xlink" x="0px" y="0px"
	 width="150px" height="150px" viewBox="0 0 150 150" style="enable-background:new 0 0 150 150;" xml:space="preserve">
<style type="text/css">
	.st0{fill:#FFFFFF;}
</style>
<path class="st0" d="M139.6,38.2c-8.4,0-16.2-2.8-22.4-7.5c-7.1-5.4-12.3-13.3-14.1-22.4h0c-0.5-2.3-0.7-4.6-0.7-7H78.5v65.8l0,36
	c0,9.6-6.3,17.8-15.1,20.7c-2.5,0.8-5.3,1.2-8.2,1.1c-3.7-0.2-7.1-1.3-10-3.1c-6.3-3.8-10.6-10.6-10.7-18.4
	c-0.2-12.2,9.7-22.1,22-22.1c2.4,0,4.8,0.4,6.9,1.1V64.5v0v-6.4c-2.3-0.3-4.6-0.5-6.9-0.5c-12.3,0-23.9,4.8-32.7,13.4
	c-8.6,8.5-13.5,20.1-13.4,32.2c0,12.2,4.8,23.6,13.5,32.2c1.2,1.2,2.5,2.3,3.8,3.4l0.1,0.1c0,0,0.1,0.1,0.2,0.2
	c0.1,0.1,0.1,0.1,0.2,0.2c0,0,0,0,0-0.1c0.8,0.6,2.7,1.9,3.8,2.6c0,0,0,0,0.1,0c7.3,4.5,15.7,6.9,24.4,6.9c2.3,0,4.7-0.2,6.9-0.5
	c9.7-1.4,18.6-5.9,25.7-12.8c8.7-8.6,13.4-19.9,13.5-32l-0.1-53.8c4.1,3.2,8.6,5.8,13.5,7.9c7.5,3.2,15.5,4.8,23.7,4.8V44.7
	L139.6,38.2L139.6,38.2z"/>
</svg>
