<?xml version="1.0" encoding="utf-8"?>
<!-- Generator: Adobe Illustrator 24.3.0, SVG Export Plug-In . SVG Version: 6.00 Build 0)  -->
<svg version="1.1" id="Camada_1" xmlns="http://www.w3.org/2000/svg" xmlns:xlink="http://www.w3.org/1999/xlink" x="0px" y="0px"
	 width="150px" height="150px" viewBox="0 0 150 150" style="enable-background:new 0 0 150 150;" xml:space="preserve">
<style type="text/css">
	.st0{fill:#FFFFFF;}
</style>
<path class="st0" d="M75,148.9c-40.6,0-73.6-33-73.6-73.6c0-40.6,33-73.6,73.6-73.6c40.6,0,73.6,33,73.6,73.6
	C148.6,115.9,115.6,148.9,75,148.9z M75,5.3c-38.6,0-70,31.4-70,70c0,38.6,31.4,70,70,70c38.6,0,70-31.4,70-70
	C145,36.7,113.6,5.3,75,5.3z"/>
<g>
	<path class="st0" d="M84.2,51.2l-0.1,0.1c-1.4,0.9-2.4,2.2-2.9,3.8c-2.3-1.8-5.5-2.1-7.9-0.6c-1.5,1-2.6,2.5-2.9,4.3
		c-2.2-1.4-5-1.5-7.2-0.1l-0.1,0.1c-1.2,0.7-2.1,1.9-2.6,3.2l-8.8-14c-2.1-3.4-6.5-4.5-9.7-2.5c-3.2,2-4.1,6.4-2,9.8l17.4,27.8
		l-2.8-0.9c-2.5-0.8-5.2-0.6-7.5,0.6c-2.2,1.2-3.9,3.3-4.5,5.7l-0.7,2c-0.2,0.6,0.1,1.3,0.6,1.7L72,109.4c5.4,3.1,11.8,3.1,16.8,0
		l15-9.4l0,0c7.6-4.8,9.6-15.2,4.5-23.3c-2.3-3.6-4-6.3-5.4-8.5c-3.7-5.9-5-8-9.1-14.5C91.8,50.3,87.4,49.2,84.2,51.2z M100.5,69.7
		c1.4,2.2,3.1,4.9,5.3,8.5c4.2,6.8,2.6,15.5-3.7,19.4L87.3,107c-4.1,2.6-9.4,2.6-13.9,0L45.1,90.3l0.3-0.9c0,0,0,0,0-0.1
		c0.4-1.7,1.6-3.2,3.1-4c1.6-0.8,3.5-1,5.2-0.4l6.6,2.2c0.6,0.2,1.2,0,1.6-0.5c0.4-0.5,0.4-1.1,0.1-1.7L42.4,53.8
		c-1.3-2-0.8-4.7,1.1-5.8s4.4-0.5,5.7,1.6L61,68.3c0,0.1,0.1,0.1,0.1,0.2c0,0,0,0.1,0.1,0.1l5,8c0.4,0.7,1.3,0.9,2,0.5
		c0.7-0.4,0.9-1.3,0.5-2l-5.2-8.3c-1.2-2-0.7-4.5,1.1-5.6l0.1-0.1c1.9-1.2,4.4-0.5,5.7,1.5l4.6,7.4c0.4,0.7,1.3,0.9,2,0.5
		c0.7-0.4,0.9-1.3,0.5-2l-3.6-5.8c-1.3-2-0.9-4.6,1-5.8c1.9-1.2,4.4-0.4,5.7,1.6L84,64c0.4,0.7,1.3,0.9,2,0.5c0.7-0.4,0.9-1.3,0.5-2
		l-1.9-2.9c-1.3-2-0.7-4.6,1.1-5.8l0.1-0.1c1.9-1.2,4.4-0.5,5.7,1.5C95.5,61.6,96.9,63.8,100.5,69.7z"/>
</g>
</svg>
