<?xml version="1.0" encoding="utf-8"?>
<!-- Generator: Adobe Illustrator 24.3.0, SVG Export Plug-In . SVG Version: 6.00 Build 0)  -->
<svg version="1.1" id="Camada_1" xmlns="http://www.w3.org/2000/svg" xmlns:xlink="http://www.w3.org/1999/xlink" x="0px" y="0px"
	 width="300px" height="300px" viewBox="0 0 300 300" style="enable-background:new 0 0 300 300;" xml:space="preserve">
<style type="text/css">
	.st0{fill:#DDA783;}
	.st1{fill:#F3BC93;}
	.st2{fill:#D8A68B;}
	.st3{fill:#EAB692;}
	.st4{fill:#FFFFFF;}
	.st5{fill:#49D3FF;}
	.st6{fill:#1EED89;}
	.st7{fill:#FFCD4B;}
	.st8{fill:#FE5D7A;}
</style>
<g>
	<path class="st0" d="M31.1,35.9c0,0-12.6,5.2-12,8.8c0.6,3.6,3.6,9.4,16.2,6.7l12.7-4c0,0-7.1-9.3-7.1-9.8
		C41,37.2,31.1,35.9,31.1,35.9z"/>
	<path class="st1" d="M296.7,201.1c-13.5-7.2-32.4-19.1-49.6-30.4c-38.9-25.5-71.1-60-93.7-100.6c-0.4-0.7-0.8-1.4-1.1-2.1
		c0,0-24.8-46.4-41.7-39.2c0,0-14.1-7.8-23.8-2.4c0,0-23.3-5.5-34.5-2L15.5,1.3C11.9-1,7.1-0.2,4.5,3.2C3.7,4.4,3.2,5.7,3.4,7.3
		C4.2,12.7,15.1,23.6,31,36c15.9,12.4,58.7,54,53.9,79.7c0,0-14.8-5.2-29.7-16.4C42.7,90,31.2,89.1,26.5,94
		c-1.4,1.5-1.3,3.9,0.2,5.3c9.2,8.4,45.9,41.9,49.1,44.5c3.7,3,12.5,10.1,33.8,8.5c0.4,0,0.9-0.1,1.3-0.1c14-0.8,27.7,4.6,37.8,14.4
		C214.1,230,269.5,299.2,272.7,300C275.6,288,287.1,240.6,296.7,201.1z"/>
	<path class="st0" d="M52.4,24.5c4.5,1.9,8.9,4.2,13.1,6.7c5.7,3.3,13.3,8.5,18.1,12.8c6,5.3,10.5,10.2,14,17l-0.1,0
		c-3.6-6.3-9.6-12.5-14.5-16.5c-3.7-3.2-10.2-8-17.9-12.8C61.3,29.3,56.4,26.6,52.4,24.5L52.4,24.5z"/>
	<path class="st0" d="M86.5,26.5c3.4,0.6,6.6,1.8,9.6,3.4c3,1.6,5.8,3.6,8.4,6c2.5,2.3,4.7,5,6.5,7.9c1.6,2.7,2.7,4.6,4.3,9.3
		l-0.1,0c-1.3-3.1-2.9-6.1-4.8-8.9c-1.9-2.7-4.2-5.5-6.6-7.7c-2.5-2.3-5.2-4.3-8.1-6C93,28.9,89.6,27.3,86.5,26.5L86.5,26.5z"/>
	<path class="st0" d="M110.2,28.7c3.2,1.1,6.8,3.7,8.8,5.7c2.4,2.2,4.7,5,6.6,8.2c1.3,2,2.1,4.1,2.9,6.3l-0.1,0
		c-1.1-2.1-1.8-3.6-3.4-6c-2.5-3.6-4-5.4-6.6-8C117,33.4,113.3,30.4,110.2,28.7L110.2,28.7z"/>
	<path class="st2" d="M42.9,102.7C42.6,99.8,38,96.4,34,94c-2.5-1.5-5.6-1.3-7.8,0.3c-1.1,1.5-0.9,3.6,0.5,4.9
		c2.5,2.3,6.9,6.3,12.2,11.1C41,108.3,43.2,105.4,42.9,102.7z"/>
	<path class="st3" d="M35.8,39.9C53.9,55.5,89.5,93,84.9,115.7l9.3,4.8c0,0,11.6-25.5-30.6-60.2C53.8,52.2,44.4,45.5,35.8,39.9z"/>
	<path class="st4" d="M141.1,160.6c7.3-5.4,29.7-23.1,42.1-45.8c0.7-1.3,2.4-1.8,3.3-0.9l9.5,8.7c0.6,0.6,0.7,1.6,0.2,2.5
		c-3.7,6.7-19.7,33.9-43.7,47.9c-0.8,0.5-1.7,0.4-2.3-0.1l-9.7-8.8C139.6,163.1,139.9,161.5,141.1,160.6z"/>
	<path class="st5" d="M150.9,167L150.9,167c-0.4,0.4-0.9,0.4-1.3,0.1l-2.9-2.7c-0.4-0.3-0.4-0.9-0.1-1.2l0.1-0.1
		c0.3-0.4,0.9-0.4,1.2-0.1l2.9,2.7C151.2,166.1,151.2,166.6,150.9,167z"/>
	<path class="st6" d="M155.3,163.7L155.3,163.7c-0.4,0.4-0.9,0.4-1.3,0.1l-2.9-2.7c-0.4-0.3-0.4-0.9-0.1-1.2l0.1-0.1
		c0.3-0.4,0.9-0.4,1.2-0.1l2.9,2.7C155.6,162.8,155.6,163.4,155.3,163.7z"/>
	<path class="st7" d="M159.6,160.5L159.6,160.5c-0.4,0.4-0.9,0.4-1.3,0.1l-2.9-2.6c-0.4-0.3-0.4-0.9-0.1-1.3l0,0
		c0.3-0.4,0.9-0.4,1.3-0.1l2.9,2.6C159.9,159.6,159.9,160.2,159.6,160.5z"/>
	<path class="st8" d="M163.5,157L163.5,157c-0.4,0.4-0.9,0.4-1.3,0.1l-2.9-2.7c-0.4-0.3-0.4-0.9-0.1-1.2l0.1-0.1
		c0.3-0.4,0.9-0.4,1.2-0.1l2.9,2.7C163.8,156.1,163.9,156.6,163.5,157z"/>
	<path class="st5" d="M167.8,153.6L167.8,153.6c-0.4,0.4-0.9,0.4-1.3,0.1l-2.9-2.7c-0.4-0.3-0.4-0.9-0.1-1.2l0.1-0.1
		c0.3-0.4,0.9-0.4,1.2-0.1l2.9,2.7C168.1,152.7,168.1,153.3,167.8,153.6z"/>
	<path class="st6" d="M171.6,149.9L171.6,149.9c-0.4,0.4-0.9,0.4-1.3,0.1l-2.9-2.7c-0.4-0.3-0.4-0.9-0.1-1.2l0.1-0.1
		c0.3-0.4,0.9-0.4,1.2-0.1l2.9,2.7C171.9,149,171.9,149.5,171.6,149.9z"/>
	<path class="st7" d="M175.2,145.9L175.2,145.9c-0.4,0.4-0.9,0.4-1.3,0.1l-2.9-2.7c-0.4-0.3-0.4-0.9-0.1-1.2l0.1-0.1
		c0.3-0.4,0.9-0.4,1.2-0.1l2.9,2.7C175.5,145,175.5,145.6,175.2,145.9z"/>
	<path class="st8" d="M178.5,141.8L178.5,141.8c-0.4,0.4-0.9,0.4-1.3,0.1l-2.9-2.6c-0.4-0.3-0.4-0.9-0.1-1.3l0,0
		c0.3-0.4,0.9-0.4,1.3-0.1l2.9,2.6C178.8,140.9,178.9,141.5,178.5,141.8z"/>
	<path class="st5" d="M181.5,137.3L181.5,137.3c-0.4,0.4-0.9,0.4-1.3,0.1l-2.9-2.6c-0.4-0.3-0.4-0.9-0.1-1.3l0,0
		c0.3-0.4,0.9-0.4,1.3-0.1l2.9,2.6C181.8,136.4,181.8,137,181.5,137.3z"/>
	<path class="st6" d="M184.7,133.1L184.7,133.1c-0.4,0.4-0.9,0.4-1.3,0.1l-2.9-2.7c-0.4-0.3-0.4-0.9-0.1-1.2l0.1-0.1
		c0.3-0.4,0.9-0.4,1.2-0.1l2.9,2.7C185,132.2,185.1,132.7,184.7,133.1z"/>
	<path class="st7" d="M187.6,128.4L187.6,128.4c-0.4,0.4-0.9,0.4-1.3,0.1l-2.9-2.7c-0.4-0.3-0.4-0.9-0.1-1.2l0.1-0.1
		c0.3-0.4,0.9-0.4,1.2-0.1l2.9,2.7C187.9,127.5,187.9,128.1,187.6,128.4z"/>
	<path class="st8" d="M190.4,123.8L190.4,123.8c-0.4,0.4-0.9,0.4-1.3,0.1l-2.9-2.6c-0.4-0.3-0.4-0.9-0.1-1.3l0,0
		c0.3-0.4,0.9-0.4,1.3-0.1l2.9,2.6C190.7,122.9,190.7,123.5,190.4,123.8z"/>
</g>
</svg>
