<?xml version="1.0" encoding="utf-8"?>
<!-- Generator: Adobe Illustrator 24.3.0, SVG Export Plug-In . SVG Version: 6.00 Build 0)  -->
<svg version="1.1" id="Camada_1" xmlns="http://www.w3.org/2000/svg" xmlns:xlink="http://www.w3.org/1999/xlink" x="0px" y="0px"
	 width="176.1px" height="187.5px" viewBox="0 0 176.1 187.5" style="enable-background:new 0 0 176.1 187.5;" xml:space="preserve"
	>
<style type="text/css">
	.st0{fill:#F25872;}
	.st1{fill:#FF798F;}
	.st2{fill:#FFDF40;}
	.st3{fill:#FFBE40;}
	.st4{fill:#FF9F40;}
</style>
<g>
	<g>
		<g>
			<path class="st0" d="M118.1,132.2c-2.2-1.6-30.2-11.8-30.2-11.8L147.2,0l28.8,14.4L118.1,132.2z"/>
		</g>
		<g>
			<path class="st1" d="M51.5,131.8L0,14.4L28.8,0l52.8,120C81.7,120,53.6,130.3,51.5,131.8z"/>
		</g>
		<circle class="st2" cx="84.3" cy="139.9" r="47.7"/>
		<path class="st3" d="M132,139.9c0-26.3-21.3-47.7-47.7-47.7v95.3C110.7,187.5,132,166.2,132,139.9z"/>
		<g id="Success_2_">
			<g>
				<path class="st3" d="M103.8,166.6l-19.4-10.1l-19.4,10.1l3.6-21.6l-15.6-15.3l21.6-3.3l9.8-19.6l9.8,19.6l21.6,3.3L100.2,145
					L103.8,166.6z"/>
			</g>
		</g>
		<path class="st4" d="M103.8,166.6l-3.6-21.6l15.6-15.3l-21.6-3.3l-9.8-19.6v49.7L103.8,166.6z"/>
	</g>
	<polygon class="st0" points="28.8,0 50.1,14.3 35.1,14.3 	"/>
	<polygon class="st1" points="147.4,0 125.8,14.3 140.3,14.3 	"/>
</g>
</svg>
