<?xml version="1.0" encoding="utf-8"?>
<!-- Generator: Adobe Illustrator 24.3.0, SVG Export Plug-In . SVG Version: 6.00 Build 0)  -->
<svg version="1.1" id="Camada_1" xmlns="http://www.w3.org/2000/svg" xmlns:xlink="http://www.w3.org/1999/xlink" x="0px" y="0px"
	 width="400px" height="400px" viewBox="0 0 400 400" style="enable-background:new 0 0 400 400;" xml:space="preserve">
<style type="text/css">
	.st0{fill:url(#SVGID_1_);}
</style>
<linearGradient id="SVGID_1_" gradientUnits="userSpaceOnUse" x1="162.4697" y1="410.8999" x2="236.8544" y2="-10.9567">
	<stop  offset="0" style="stop-color:#000000"/>
	<stop  offset="0.5361" style="stop-color:#555560"/>
</linearGradient>
<path class="st0" d="M89.3,397.6L89.3,397.6c-2.5,0-5-0.4-7.3-1l0.8-2.9c2.1,0.6,4.2,0.9,6.4,0.9L89.3,397.6z M96.6,396.6l-0.6-2.9
	l6.8-1.5l0.6,2.9L96.6,396.6z M110.2,393.6l-0.6-2.9l6.8-1.5l0.6,2.9L110.2,393.6z M75.3,393.5c-2.1-1.4-4-3-5.6-4.9l2.3-2
	c1.4,1.7,3.1,3.1,4.9,4.3L75.3,393.5z M123.9,390.7l-0.6-2.9l6.8-1.5l0.6,2.9L123.9,390.7z M137.6,387.7l-0.6-2.9l6.8-1.5l0.6,2.9
	L137.6,387.7z M151.3,384.7l-0.6-2.9l6.8-1.5l0.6,2.9L151.3,384.7z M65.8,382.3c-0.7-1.6-1.2-3.2-1.6-5l-0.4-2l2.9-0.6l0.4,2
	c0.3,1.5,0.8,3,1.4,4.4L65.8,382.3z M165,381.7l-0.6-2.9l6.8-1.5l0.6,2.9L165,381.7z M178.6,378.7l-0.6-2.9l6.8-1.5l0.6,2.9
	L178.6,378.7z M192.3,375.7l-0.6-2.9l6.8-1.5l0.6,2.9L192.3,375.7z M206,372.8l-0.6-2.9l6.8-1.5l0.6,2.9L206,372.8z M219.7,369.8
	l-0.6-2.9l6.8-1.5l0.6,2.9L219.7,369.8z M62.2,368.5l-1.5-6.8l2.9-0.6l1.5,6.8L62.2,368.5z M233.4,366.8l-0.6-2.9l6.8-1.5l0.6,2.9
	L233.4,366.8z M247,363.8l-0.6-2.9l6.8-1.5l0.6,2.9L247,363.8z M260.7,360.8l-0.6-2.9l6.8-1.5l0.6,2.9L260.7,360.8z M274.4,357.8
	l-0.6-2.9l6.8-1.5l0.6,2.9L274.4,357.8z M288.1,354.8l-0.6-2.9l6.8-1.5l0.6,2.9L288.1,354.8z M59.2,354.8l-1.5-6.8l2.9-0.6l1.5,6.8
	L59.2,354.8z M301.7,351.9l-0.6-2.9l6.8-1.5l0.6,2.9L301.7,351.9z M315.4,348.9l-0.6-2.9l6.8-1.5l0.6,2.9L315.4,348.9z M329.1,345.9
	l-0.6-2.9l6.8-1.5l0.6,2.9L329.1,345.9z M342.8,342.9l-0.6-2.9l6.8-1.5l0.6,2.9L342.8,342.9z M56.2,341.2l-1.5-6.8l2.9-0.6l1.5,6.8
	L56.2,341.2z M356.5,339.9l-0.6-2.9l6.8-1.5l0.6,2.9L356.5,339.9z M370.1,336.9l-0.6-2.9l6.8-1.5c1.7-0.4,3.4-1,5-1.7l1.3,2.7
	c-1.8,0.9-3.7,1.5-5.7,1.9L370.1,336.9z M388.8,329.4l-2-2.2c1.6-1.5,3-3.2,4.2-5.1l2.6,1.6C392.2,325.8,390.6,327.7,388.8,329.4z
	 M53.3,327.5l-1.5-6.8l2.9-0.6l1.5,6.8L53.3,327.5z M396.4,316.8l-2.9-0.8c0.5-1.9,0.7-3.8,0.7-5.7c0-0.3,0-0.5,0-0.8l3-0.1
	c0,0.3,0,0.6,0,0.9C397.2,312.5,396.9,314.7,396.4,316.8z M50.3,313.8l-1.5-6.8l2.9-0.6l1.5,6.8L50.3,313.8z M393.1,302.9l-1.5-6.8
	l2.9-0.6l1.5,6.8L393.1,302.9z M47.3,300.1l-1.5-6.8l2.9-0.6l1.5,6.8L47.3,300.1z M390.1,289.2l-1.5-6.8l2.9-0.6l1.5,6.8
	L390.1,289.2z M44.3,286.4l-1.5-6.8l2.9-0.6l1.5,6.8L44.3,286.4z M387.2,275.6l-1.5-6.8l2.9-0.6l1.5,6.8L387.2,275.6z M41.3,272.8
	l-1.5-6.8l2.9-0.6l1.5,6.8L41.3,272.8z M384.2,261.9l-1.5-6.8l2.9-0.6l1.5,6.8L384.2,261.9z M38.3,259.1l-1.5-6.8l2.9-0.6l1.5,6.8
	L38.3,259.1z M381.2,248.2l-1.5-6.8l2.9-0.6l1.5,6.8L381.2,248.2z M35.3,245.4l-1.5-6.8l2.9-0.6l1.5,6.8L35.3,245.4z M378.2,234.5
	l-1.5-6.8l2.9-0.6l1.5,6.8L378.2,234.5z M32.4,231.7l-1.5-6.8l2.9-0.6l1.5,6.8L32.4,231.7z M375.2,220.9l-1.5-6.8l2.9-0.6l1.5,6.8
	L375.2,220.9z M29.4,218l-1.5-6.8l2.9-0.6l1.5,6.8L29.4,218z M372.2,207.2l-1.5-6.8l2.9-0.6l1.5,6.8L372.2,207.2z M26.4,204.4
	l-1.5-6.8l2.9-0.6l1.5,6.8L26.4,204.4z M369.3,193.5l-1.5-6.8l2.9-0.6l1.5,6.8L369.3,193.5z M23.4,190.7l-1.5-6.8l2.9-0.6l1.5,6.8
	L23.4,190.7z M366.3,179.8l-1.5-6.8l2.9-0.6l1.5,6.8L366.3,179.8z M20.4,177l-1.5-6.8l2.9-0.6l1.5,6.8L20.4,177z M363.3,166.1
	l-1.5-6.8l2.9-0.6l1.5,6.8L363.3,166.1z M17.4,163.3l-1.5-6.8l2.9-0.6l1.5,6.8L17.4,163.3z M360.3,152.5l-1.5-6.8l2.9-0.6l1.5,6.8
	L360.3,152.5z M14.5,149.7l-1.5-6.8l2.9-0.6l1.5,6.8L14.5,149.7z M357.3,138.8l-1.5-6.8l2.9-0.6l1.5,6.8L357.3,138.8z M11.5,136
	l-1.5-6.8l2.9-0.6l1.5,6.8L11.5,136z M354.3,125.1l-1.5-6.8l2.9-0.6l1.5,6.8L354.3,125.1z M8.5,122.3L7,115.5l2.9-0.6l1.5,6.8
	L8.5,122.3z M351.3,111.4l-1.5-6.8l2.9-0.6l1.5,6.8L351.3,111.4z M5.5,108.6L4,101.8l2.9-0.6l1.5,6.8L5.5,108.6z M348.4,97.8
	l-1.5-6.8l2.9-0.6l1.5,6.8L348.4,97.8z M2.5,94.9C2.2,93.2,2,91.4,2,89.6c0-0.7,0-1.4,0.1-2.1l3,0.2C5,88.4,5,89,5,89.6
	c0,1.6,0.2,3.1,0.5,4.7L2.5,94.9z M345.4,84.1l-1.5-6.8l2.9-0.6l1.5,6.8L345.4,84.1z M6.5,81.4l-2.8-1.1c0.9-2.3,2.1-4.5,3.7-6.4
	l2.4,1.8C8.4,77.5,7.3,79.4,6.5,81.4z M14.5,71.2l-1.7-2.4c2-1.4,4.2-2.6,6.6-3.4l1,2.8C18.2,68.9,16.3,69.9,14.5,71.2z M342.4,70.4
	l-1.5-6.8l2.9-0.6l1.5,6.8L342.4,70.4z M26.9,66.6l-0.6-2.9l6.8-1.5l0.6,2.9L26.9,66.6z M40.6,63.6L40,60.7l6.8-1.5l0.6,2.9
	L40.6,63.6z M54.3,60.6l-0.6-2.9l6.8-1.5l0.6,2.9L54.3,60.6z M68,57.6l-0.6-2.9l6.8-1.5l0.6,2.9L68,57.6z M339.4,56.7l-1.5-6.8
	l2.9-0.6l1.5,6.8L339.4,56.7z M81.6,54.7l-0.6-3l6.8-1.5l0.6,2.9L81.6,54.7z M95.3,51.7l-0.6-2.9l6.8-1.5l0.6,2.9L95.3,51.7z
	 M109,48.7l-0.6-2.9l6.8-1.5l0.6,2.9L109,48.7z M122.7,45.7l-0.6-2.9l6.8-1.5l0.6,2.9L122.7,45.7z M336.4,43l-1.5-6.8l2.9-0.6
	l1.5,6.8L336.4,43z M136.3,42.7l-0.6-2.9l6.8-1.5l0.6,2.9L136.3,42.7z M150,39.7l-0.6-2.9l6.8-1.5l0.6,2.9L150,39.7z M163.7,36.7
	l-0.6-2.9l6.8-1.5l0.6,2.9L163.7,36.7z M177.4,33.8l-0.6-2.9l6.8-1.5l0.6,2.9L177.4,33.8z M191.1,30.8l-0.6-2.9l6.8-1.5l0.6,2.9
	L191.1,30.8z M333.4,29.4l-1.3-6.1c0-0.2-0.1-0.5-0.2-0.7l2.9-0.7c0.1,0.3,0.1,0.5,0.2,0.8l1.3,6.1L333.4,29.4z M204.7,27.8
	l-0.6-2.9l6.8-1.5l0.6,2.9L204.7,27.8z M218.4,24.8l-0.6-2.9l6.8-1.5l0.6,2.9L218.4,24.8z M232.1,21.8l-0.6-2.9l6.8-1.5l0.6,2.9
	L232.1,21.8z M245.8,18.8l-0.6-2.9l6.8-1.5l0.6,2.9L245.8,18.8z M329.5,16.5c-1.1-1.9-2.5-3.6-4.1-5.1l2-2.2
	c1.8,1.7,3.4,3.6,4.7,5.8L329.5,16.5z M259.4,15.9l-0.6-2.9l6.8-1.5l0.6,2.9L259.4,15.9z M273.1,12.9l-0.6-2.9l6.8-1.5l0.6,2.9
	L273.1,12.9z M286.8,9.9L286.2,7l6.8-1.5l0.6,2.9L286.8,9.9z M320,7.7c-2-1-4.1-1.7-6.2-2l0.5-3c2.4,0.4,4.8,1.2,7,2.3L320,7.7z
	 M300.5,6.9L299.8,4l4.6-1c0.8-0.2,1.6-0.3,2.4-0.4l0.4,3c-0.7,0.1-1.4,0.2-2.1,0.4L300.5,6.9z"/>
</svg>
