<?xml version="1.0" encoding="utf-8"?>
<!-- Generator: Adobe Illustrator 24.3.0, SVG Export Plug-In . SVG Version: 6.00 Build 0)  -->
<svg version="1.1" id="Camada_1" xmlns="http://www.w3.org/2000/svg" xmlns:xlink="http://www.w3.org/1999/xlink" x="0px" y="0px"
	 width="100px" height="250px" viewBox="0 0 100 250" style="enable-background:new 0 0 100 250;" xml:space="preserve">
<style type="text/css">
	.st0{fill:#FFCD4B;}
	.st1{fill:#1EED89;}
	.st2{fill:#49D3FF;}
	.st3{fill:#FE5D7A;}
</style>
<g>
	<rect x="75" y="75" transform="matrix(-1 -1.224647e-16 1.224647e-16 -1 175 174.9927)" class="st0" width="25" height="25"/>
	<rect y="75" transform="matrix(-1 -1.224647e-16 1.224647e-16 -1 25 174.9927)" class="st1" width="25" height="25"/>
	<rect x="75" y="0" transform="matrix(-1 -1.224647e-16 1.224647e-16 -1 175 24.9914)" class="st1" width="25" height="25"/>
	<rect y="0" transform="matrix(-1 -1.224647e-16 1.224647e-16 -1 25 24.9914)" class="st2" width="25" height="25"/>
	<rect x="75" y="225" transform="matrix(-1 -1.224647e-16 1.224647e-16 -1 175 474.9954)" class="st2" width="25" height="25"/>
	<rect y="225" transform="matrix(-1 -1.224647e-16 1.224647e-16 -1 25 474.9998)" class="st3" width="25" height="25"/>
	<rect x="75" y="150" transform="matrix(-1 -1.224647e-16 1.224647e-16 -1 175 324.9941)" class="st3" width="25" height="25"/>
	<rect y="150" transform="matrix(-1 -1.224647e-16 1.224647e-16 -1 25 324.9941)" class="st0" width="25" height="25"/>
</g>
</svg>
