<?xml version="1.0" encoding="utf-8"?>
<!-- Generator: Adobe Illustrator 24.3.0, SVG Export Plug-In . SVG Version: 6.00 Build 0)  -->
<svg version="1.1" id="Camada_1" xmlns="http://www.w3.org/2000/svg" xmlns:xlink="http://www.w3.org/1999/xlink" x="0px" y="0px"
	 width="500px" height="39.1px" viewBox="0 0 500 39.1" style="enable-background:new 0 0 500 39.1;" xml:space="preserve">
<style type="text/css">
	.st0{fill:#FFFFFF;}
	.st1{fill:#1EED89;}
	.st2{fill:#FFCD4B;}
	.st3{fill:#49D3FF;}
	.st4{fill:#FE5D7A;}
</style>
<polygon class="st0" points="60.2,31.5 60.2,22.7 77.7,22.7 77.7,16.9 60.2,16.9 60.2,8.2 83.5,8.2 83.5,2.3 54.4,2.3 54.4,37.3 
	89.4,37.3 89.4,31.5 "/>
<polygon class="st0" points="264.5,22.7 264.5,16.9 241.1,16.9 241.1,8.2 270.3,8.2 270.3,2.3 235.3,2.3 235.3,37.3 258.6,37.3 
	258.6,31.5 241.1,31.5 241.1,22.7 "/>
<rect x="492.7" y="2.3" transform="matrix(-1.836970e-16 1 -1 -1.836970e-16 500.8485 -490.374)" class="st1" width="5.8" height="5.8"/>
<polygon class="st0" points="498.5,22.7 498.5,16.9 469.3,16.9 469.3,8.2 486.9,8.2 486.9,2.3 463.5,2.3 463.5,37.3 492.7,37.3 
	492.7,31.5 469.3,31.5 469.3,22.7 "/>
<rect x="159.4" y="2.3" class="st0" width="5.8" height="14.6"/>
<rect x="159.4" y="22.7" class="st0" width="5.8" height="14.6"/>
<rect x="335.1" y="14" class="st0" width="5.8" height="23.3"/>
<rect x="335.1" y="2.3" class="st2" width="5.8" height="5.8"/>
<path class="st0" d="M106.9,2.3v35h17.5c9.7,0,17.5-7.8,17.5-17.5v0c0-9.7-7.8-17.5-17.5-17.5H106.9z M124.4,31.5h-11.7V8.2h11.7
	c6.4,0,11.7,5.2,11.7,11.7v0C136.1,26.3,130.9,31.5,124.4,31.5z"/>
<polygon class="st0" points="446,2.3 440.2,2.3 440.2,25.3 411,2.3 411,37.3 416.8,37.3 416.8,14.3 446,37.3 "/>
<path class="st0" d="M358.5,19.8L358.5,19.8c0,9.7,7.8,17.5,17.5,17.5h0c9.7,0,17.5-7.8,17.5-17.5v0c0-9.7-7.8-17.5-17.5-17.5h0
	C366.3,2.3,358.5,10.2,358.5,19.8z M376,31.5L376,31.5c-6.4,0-11.7-5.2-11.7-11.7v0c0-6.4,5.2-11.7,11.7-11.7h0
	c6.4,0,11.7,5.2,11.7,11.7v0C387.6,26.3,382.4,31.5,376,31.5z"/>
<path class="st0" d="M317.6,8.2V2.3h-17.5c-9.7,0-17.5,7.8-17.5,17.5v0c0,9.7,7.8,17.5,17.5,17.5h17.5v-5.8h-17.5
	c-6.4,0-11.7-5.2-11.7-11.7v0c0-6.4,5.2-11.7,11.7-11.7H317.6z"/>
<path class="st0" d="M36.9,12.5L36.9,12.5c0-5.6-4.6-10.2-10.2-10.2H1.8v35h5.8v0c0-6.9,4.8-12.7,11.3-14.2l13.7,13.7l2.1-2.1l2-2
	l-10-10C32.4,22.6,36.9,18.1,36.9,12.5z M31,12.5c0,2.4-2,4.4-4.4,4.4h-19V8.2h19C29.1,8.2,31,10.1,31,12.5L31,12.5z"/>
<path class="st0" d="M217.8,12.5L217.8,12.5c0-5.6-4.6-10.2-10.2-10.2h-24.8v35h5.8v0c0-6.9,4.8-12.7,11.3-14.2l13.7,13.7l4.1-4.1
	l-10-10C213.3,22.6,217.8,18.1,217.8,12.5z M211.9,12.5c0,2.4-2,4.4-4.4,4.4h-19V8.2h19C210,8.2,211.9,10.1,211.9,12.5L211.9,12.5z"
	/>
<rect x="83.5" y="16.9" class="st3" width="5.8" height="5.8"/>
<rect x="264.5" y="31.5" class="st4" width="5.8" height="5.8"/>
</svg>
