<?xml version="1.0" encoding="utf-8"?>
<!-- Generator: Adobe Illustrator 24.3.0, SVG Export Plug-In . SVG Version: 6.00 Build 0)  -->
<svg version="1.1" id="Camada_1" xmlns="http://www.w3.org/2000/svg" xmlns:xlink="http://www.w3.org/1999/xlink" x="0px" y="0px"
	 width="300px" height="300px" viewBox="0 0 300 300" style="enable-background:new 0 0 300 300;" xml:space="preserve">
<style type="text/css">
	.st0{fill:#FFFFFF;}
	.st1{fill:#26262D;}
	.st2{fill:#49D3FF;}
	.st3{fill:#FE5D7A;}
	.st4{fill:#FFCD4B;}
	.st5{fill:#1EED89;}
</style>
<g>
	<path class="st0" d="M274.1,299.5h-248c-14,0-25.3-11.3-25.3-25.3v-248C0.8,12.3,12.1,1,26.1,1h248c14,0,25.3,11.3,25.3,25.3v248
		C299.3,288.2,288,299.5,274.1,299.5z"/>
	<path class="st1" d="M228.9,125.3L228.9,125.3c0-19.8-16-35.8-35.8-35.8h-86.9v122.7h20.4v0c0-24.3,17-44.6,39.7-49.8l48.1,48.1
		l7.3-7.3l7.2-7.2L194,161C213.4,160.6,228.9,144.7,228.9,125.3z M208.5,125.3c0,8.5-6.9,15.3-15.3,15.3h-66.4v-30.7h66.4
		C201.6,109.9,208.5,116.8,208.5,125.3L208.5,125.3z"/>
	
		<rect x="71.2" y="89.5" transform="matrix(-1.836970e-16 1 -1 -1.836970e-16 178.2303 18.2746)" class="st2" width="17.5" height="17.5"/>
	
		<rect x="71.2" y="194.6" transform="matrix(-1.836970e-16 1 -1 -1.836970e-16 283.3696 123.4139)" class="st3" width="17.5" height="17.5"/>
	
		<rect x="71.2" y="159.6" transform="matrix(-1.836970e-16 1 -1 -1.836970e-16 248.3232 88.3675)" class="st4" width="17.5" height="17.5"/>
	
		<rect x="71.2" y="124.5" transform="matrix(-1.836970e-16 1 -1 -1.836970e-16 213.2767 53.321)" class="st5" width="17.5" height="17.5"/>
</g>
</svg>
