<?xml version="1.0" encoding="utf-8"?>
<!-- Generator: Adobe Illustrator 24.3.0, SVG Export Plug-In . SVG Version: 6.00 Build 0)  -->
<svg version="1.1" id="Camada_1" xmlns="http://www.w3.org/2000/svg" xmlns:xlink="http://www.w3.org/1999/xlink" x="0px" y="0px"
	 width="266.1px" height="266px" viewBox="0 0 266.1 266" style="enable-background:new 0 0 266.1 266;" xml:space="preserve">
<style type="text/css">
	.st0{fill:#4D4D54;}
	.st1{fill:#5E5E68;}
	.st2{fill:#18181C;}
</style>
<g>
	<path class="st0" d="M259.4,43.1H6.8c-3.7,0-6.6,3-6.6,6.6v153.9c0,1.6-0.2,3.8-0.2,6.6c2.2,0,4.7,0,6.8,0h252.7
		c1.9,0,4.5-0.2,6.6-0.2c0-1.9,0-4.6,0-6.4V49.7C266.1,46.1,263.1,43.1,259.4,43.1z"/>
	<rect x="10.3" y="54.2" width="245.6" height="152.3"/>
	<path class="st1" d="M265.9,206.5H0.2C0.1,207,0,207.5,0,208.1v15c0,7.9,6.4,14.3,14.3,14.3h237.4c7.9,0,14.3-6.4,14.3-14.3v-15
		C266.1,207.5,266,207,265.9,206.5z"/>
	<path class="st0" d="M14.3,237.4h237.4c5.7,0,10.6-3.3,12.9-8.1H1.5C3.8,234.1,8.7,237.4,14.3,237.4z"/>
	<path class="st2" d="M135.4,48.7c0,1.3-1,2.3-2.3,2.3c-1.3,0-2.3-1-2.3-2.3c0-1.3,1-2.3,2.3-2.3C134.4,46.4,135.4,47.4,135.4,48.7z
		"/>
	<rect x="117.5" y="229.3" class="st0" width="31" height="29.9"/>
	<path class="st1" d="M178.1,266H87.9l0,0c0-3.8,3-6.8,6.8-6.8h76.6C175.1,259.2,178.1,262.2,178.1,266L178.1,266z"/>
</g>
</svg>
