<?xml version="1.0" encoding="utf-8"?>
<!-- Generator: Adobe Illustrator 24.3.0, SVG Export Plug-In . SVG Version: 6.00 Build 0)  -->
<svg version="1.1" id="Camada_1" xmlns="http://www.w3.org/2000/svg" xmlns:xlink="http://www.w3.org/1999/xlink" x="0px" y="0px"
	 width="62px" height="266px" viewBox="0 0 62 266" style="enable-background:new 0 0 62 266;" xml:space="preserve">
<style type="text/css">
	.st0{fill:#4D4D54;}
	.st1{fill:#18181C;}
	.st2{fill:#5E5E68;}
</style>
<g>
	<path class="st0" d="M62,255.7c0,7.6-2.7,10.3-10.3,10.3H10.3C2.7,266,0,263.3,0,255.7v-96.5c0-7.6,2.7-10.3,10.3-10.3h41.3
		c7.6,0,10.3,2.7,10.3,10.3V255.7z"/>
	<rect x="1.9" y="158.5" width="57.9" height="93.5"/>
	<path class="st1" d="M39.2,154.6c0,0.4-0.3,0.7-0.7,0.7h-15c-0.4,0-0.7-0.3-0.7-0.7v-0.8c0-0.4,0.3-0.7,0.7-0.7h15
		c0.4,0,0.7,0.3,0.7,0.7V154.6z"/>
	<path class="st2" d="M37.3,259.9c0,1.2-0.7,2.1-1.6,2.1h-9.3c-0.9,0-1.6-0.9-1.6-2.1v-1.5c0-1.2,0.7-2.1,1.6-2.1h9.3
		c0.9,0,1.6,0.9,1.6,2.1V259.9z"/>
	<path class="st1" d="M53.8,154.3c0,0.6-0.5,1.2-1.2,1.2c-0.6,0-1.2-0.5-1.2-1.2s0.5-1.2,1.2-1.2C53.3,153.1,53.8,153.6,53.8,154.3z
		"/>
</g>
</svg>
