<?xml version="1.0" encoding="utf-8"?>
<!-- Generator: Adobe Illustrator 24.3.0, SVG Export Plug-In . SVG Version: 6.00 Build 0)  -->
<svg version="1.1" id="Camada_1" xmlns="http://www.w3.org/2000/svg" xmlns:xlink="http://www.w3.org/1999/xlink" x="0px" y="0px"
	 width="110.6px" height="266px" viewBox="0 0 110.6 266" style="enable-background:new 0 0 110.6 266;" xml:space="preserve">
<style type="text/css">
	.st0{fill:#4D4D54;}
	.st1{fill:#18181C;}
	.st2{fill:#5E5E68;}
</style>
<g>
	<path class="st0" d="M102.2,93.4H8.5c-4.7,0-8.5,3.8-8.5,8.5v155.7c0,4.7,3.8,8.5,8.5,8.5h93.7c4.7,0,8.5-3.8,8.5-8.5V101.9
		C110.6,97.2,106.8,93.4,102.2,93.4z"/>
	<rect x="4.5" y="105.5" width="101.7" height="146.3"/>
	<path class="st1" d="M47.4,99.4h15.9c0.4,0,0.8,0.4,0.8,0.8c0,0.4-0.4,0.8-0.8,0.8H47.4c-0.4,0-0.8-0.4-0.8-0.8
		C46.6,99.7,46.9,99.4,47.4,99.4z"/>
	<path class="st2" d="M62.1,259.7c0,1.3-0.8,2.3-1.7,2.3h-10c-0.9,0-1.7-1-1.7-2.3v-1.6c0-1.3,0.8-2.3,1.7-2.3h10
		c0.9,0,1.7,1,1.7,2.3V259.7z"/>
</g>
</svg>
