<?xml version="1.0" encoding="utf-8"?>
<!-- Generator: Adobe Illustrator 24.3.0, SVG Export Plug-In . SVG Version: 6.00 Build 0)  -->
<svg version="1.1" id="Camada_1" xmlns="http://www.w3.org/2000/svg" xmlns:xlink="http://www.w3.org/1999/xlink" x="0px" y="0px"
	 width="180.1px" height="266px" viewBox="0 0 180.1 266" style="enable-background:new 0 0 180.1 266;" xml:space="preserve">
<style type="text/css">
	.st0{fill:#4D4D54;}
	.st1{fill:#5E5E68;}
	.st2{fill:#555560;}
	.st3{fill:#414147;}
</style>
<g>
	<path class="st0" d="M27.4,220.6H7.2c-3.8,0-7,3.1-7,7v20.7c0,3.8,3.1,7,7,7h20.2c3.8,0,7-3.1,7-7v-20.7
		C34.4,223.7,31.2,220.6,27.4,220.6z"/>
	<rect x="34.4" y="234.6" class="st1" width="2.9" height="5.4"/>
	<path d="M27.2,251.2H7.4c-2,0-3.6-1.6-3.6-3.6v-19.4c0-2,1.6-3.6,3.6-3.6h19.8c2,0,3.6,1.6,3.6,3.6v19.4
		C30.7,249.6,29.1,251.2,27.2,251.2z"/>
	<polygon class="st1" points="27.4,220.6 7.6,220.6 8.8,209.8 26.2,209.8 	"/>
	<polygon class="st1" points="26.2,266 8.8,266 7.6,255.2 27.4,255.2 	"/>
</g>
<path class="st2" d="M159.3,157.8h-6.2v-1.5h6.2c0.4,0,0.8,0,1.1,0l0.1,1.5C160.1,157.7,159.7,157.8,159.3,157.8z M146.9,157.8h-6.2
	v-1.5h6.2V157.8z M134.6,157.8h-6.2v-1.5h6.2V157.8z M122.2,157.8h-6.2v-1.5h6.2V157.8z M109.9,157.8h-6.2v-1.5h6.2V157.8z
	 M97.5,157.8h-2.7c-1.2,0-2.4-0.1-3.6-0.3l0.3-1.5c1.1,0.2,2.2,0.3,3.3,0.3h2.7V157.8z M166.8,156.4l-0.6-1.4
	c1.8-0.7,3.6-1.7,5.1-2.9l1,1.2C170.6,154.5,168.8,155.6,166.8,156.4z M85.2,155.4c-1.9-1-3.6-2.3-5.1-3.8l1.1-1.1
	c1.4,1.4,3,2.6,4.8,3.5L85.2,155.4z M176.6,148.5l-1.3-0.9c1.1-1.7,1.9-3.5,2.5-5.4l1.5,0.4C178.7,144.7,177.8,146.7,176.6,148.5z
	 M76.3,146.5c-1-1.9-1.7-3.9-2-6.1l1.5-0.3c0.3,2,1,3.8,1.9,5.6L76.3,146.5z M180.1,136.4h-1.5v-6.2h1.5V136.4z M75.5,134.1H74v-6.2
	h1.5V134.1z M180.1,124h-1.5v-6.2h1.5V124z M75.5,121.8H74v-6.2h1.5V121.8z M180.1,111.7h-1.5v-6.2h1.5V111.7z M75.5,109.4H74v-6.2
	h1.5V109.4z M180.1,99.3h-1.5v-6.2h1.5V99.3z M75.5,97.1H74v-6.2h1.5V97.1z M180.1,87h-1.5v-6.2h1.5V87z M75.5,84.7H74v-6.2h1.5
	V84.7z M180.1,74.6h-1.5v-2.2c0-1.3-0.1-2.6-0.4-3.8l1.5-0.3c0.3,1.3,0.4,2.7,0.4,4.1V74.6z M75.5,72.4l-1.5,0c0-2.2,0.3-4.3,1-6.3
	l1.5,0.5C75.8,68.4,75.5,70.4,75.5,72.4z M176.2,63.1c-1-1.7-2.2-3.3-3.6-4.7l1.1-1.1c1.6,1.5,2.9,3.2,3.9,5L176.2,63.1z M79.1,61.2
	l-1.3-0.9c1.2-1.7,2.7-3.3,4.5-4.6l0.9,1.2C81.6,58.2,80.2,59.6,79.1,61.2z M167.7,55c-1.8-0.9-3.7-1.4-5.7-1.7l0.2-1.5
	c2.1,0.3,4.2,0.9,6.1,1.9L167.7,55z M88.4,54.2l-0.5-1.5c2-0.7,4.1-1.1,6.3-1.2l0,1.5C92.2,53.2,90.3,53.6,88.4,54.2z M156,53.1
	h-6.2v-1.5h6.2V53.1z M143.6,53.1h-6.2v-1.5h6.2V53.1z M131.3,53.1h-6.2v-1.5h6.2V53.1z M118.9,53.1h-6.2v-1.5h6.2V53.1z
	 M106.6,53.1h-6.2v-1.5h6.2V53.1z"/>
<g>
	<g>
		<path class="st3" d="M87.7,74.9h28.6v6.5H95.7v9.3h18.9v6.5H95.7v9.8h21.2v6.5H87.7V74.9z"/>
		<path class="st3" d="M122.2,113.7V74.9h10.4l11.5,24.6l11.4-24.6h10.5v38.8h-7.7V86.1l-11.4,24.3h-5.7l-11.4-24.3v27.6H122.2z"/>
	</g>
</g>
<g>
	<g>
		<path class="st3" d="M88,134.5v-16.6h9c1.3,0,2.4,0.4,3.2,1.2c0.8,0.8,1.2,1.8,1.2,3c0,0.8-0.2,1.5-0.6,2.2
			c-0.4,0.6-0.9,1.1-1.6,1.5c0.9,0.3,1.5,0.8,2,1.5c0.5,0.8,0.8,1.6,0.8,2.7c0,1.3-0.4,2.4-1.3,3.3c-0.9,0.8-2,1.3-3.5,1.3H88z
			 M91.4,124.5h4.5c0.6,0,1.1-0.2,1.5-0.6c0.4-0.4,0.6-0.8,0.6-1.4c0-0.6-0.2-1.1-0.6-1.4c-0.4-0.4-0.9-0.6-1.5-0.6h-4.5V124.5z
			 M91.4,127.3v4.5H96c0.7,0,1.3-0.2,1.7-0.6s0.7-1,0.7-1.6c0-0.6-0.2-1.2-0.7-1.6s-1-0.6-1.7-0.6H91.4z"/>
		<path class="st3" d="M104.3,134.5v-16.6h8.1c1.6,0,2.9,0.5,3.8,1.4c1,1,1.5,2.2,1.5,3.8c0,1.1-0.3,2.1-0.8,2.9
			c-0.5,0.8-1.3,1.5-2.2,1.9l3.9,6.6h-3.7l-3.6-6.2h-3.6v6.2H104.3z M107.7,120.7v4.8h4.3c0.7,0,1.2-0.2,1.6-0.7
			c0.4-0.5,0.6-1,0.6-1.8s-0.2-1.3-0.6-1.7c-0.4-0.4-1-0.6-1.6-0.6H107.7z"/>
		<path class="st3" d="M120.4,117.9h12.2v2.8h-8.8v4h8.1v2.8h-8.1v4.2h9.1v2.8h-12.5V117.9z"/>
		<path class="st3" d="M141.3,134.5l-7.2-16.6h3.6l5.3,12.7l5.3-12.7h3.6l-7.2,16.6H141.3z"/>
		<path class="st3" d="M153.6,117.9h12.2v2.8h-8.8v4h8.1v2.8h-8.1v4.2h9.1v2.8h-12.5V117.9z"/>
	</g>
</g>
<path class="st2" d="M34.4,215l-1.2-0.9l3.6-5l1.2,0.9L34.4,215z M41.7,205l-1.2-0.9l3.6-5l1.2,0.9L41.7,205z M49,195l-1.2-0.9
	l3.6-5l1.2,0.9L49,195z M56.2,185l-1.2-0.9l3.6-5l1.2,0.9L56.2,185z M63.5,175l-1.2-0.9l3.6-5l1.2,0.9L63.5,175z M70.8,165.1
	l-1.2-0.9l3.6-5l1.2,0.9L70.8,165.1z"/>
</svg>
