<?xml version="1.0" encoding="utf-8"?>
<!-- Generator: Adobe Illustrator 24.3.0, SVG Export Plug-In . SVG Version: 6.00 Build 0)  -->
<svg version="1.1" id="Camada_1" xmlns="http://www.w3.org/2000/svg" xmlns:xlink="http://www.w3.org/1999/xlink" x="0px" y="0px"
	 width="400px" height="266px" viewBox="0 0 400 266" style="enable-background:new 0 0 400 266;" xml:space="preserve">
<style type="text/css">
	.st0{fill:#4D4D54;}
	.st1{fill:#18181C;}
	.st2{fill:#5E5E68;}
</style>
<g>
	<path class="st0" d="M393.1,0H6.8C3.1,0,0,3.1,0,6.9v216.9c0,3.8,3.1,6.8,6.8,6.8h386.3c3.8,0,6.9-3.1,6.9-6.8V6.9
		C400,3.1,396.9,0,393.1,0z"/>
	<rect x="9.9" y="11.3" width="380.2" height="206.7"/>
	<path class="st1" d="M202.4,5.8c0,1.3-1,2.4-2.4,2.4c-1.3,0-2.4-1.1-2.4-2.4c0-1.3,1.1-2.4,2.4-2.4C201.3,3.5,202.4,4.5,202.4,5.8z
		"/>
	<path class="st0" d="M197.5,242c0.1,2.5-1.8,4.6-4.3,4.8l-96.4,5.7c-2.5,0.1-4.6-1.8-4.8-4.3l0,0c-0.1-2.5,1.8-4.6,4.3-4.8
		l96.4-5.7C195.2,237.5,197.3,239.5,197.5,242L197.5,242z"/>
	<path class="st0" d="M202.5,242c-0.1,2.5,1.8,4.6,4.3,4.8l96.4,5.7c2.5,0.1,4.6-1.8,4.8-4.3l0,0c0.1-2.5-1.8-4.6-4.3-4.8l-96.4-5.7
		C204.8,237.5,202.7,239.5,202.5,242L202.5,242z"/>
	<path class="st2" d="M196.9,244.4c0.4,2.5-1.4,4.8-3.8,5.2L81.4,266c-2.5,0.4-4.8-1.4-5.2-3.8l0,0c-0.4-2.5,1.4-4.8,3.8-5.2
		l111.6-16.4C194.2,240.2,196.5,242,196.9,244.4L196.9,244.4z"/>
	<path class="st2" d="M203.1,244.4c-0.4,2.5,1.4,4.8,3.8,5.2L318.6,266c2.5,0.4,4.8-1.4,5.2-3.8l0,0c0.4-2.5-1.4-4.8-3.8-5.2
		l-111.6-16.4C205.8,240.2,203.5,242,203.1,244.4L203.1,244.4z"/>
	<path class="st2" d="M216.6,218l-9.5,31.5c-4.7-0.7-10.6-0.6-14.7,0l-9.5-31.5H216.6z"/>
</g>
</svg>
