<?xml version="1.0" encoding="utf-8"?>
<!-- Generator: Adobe Illustrator 24.3.0, SVG Export Plug-In . SVG Version: 6.00 Build 0)  -->
<svg version="1.1" id="Camada_1" xmlns="http://www.w3.org/2000/svg" xmlns:xlink="http://www.w3.org/1999/xlink" x="0px" y="0px"
	 width="295.1px" height="266px" viewBox="0 0 295.1 266" style="enable-background:new 0 0 295.1 266;" xml:space="preserve">
<style type="text/css">
	.st0{fill:#4D4D54;}
	.st1{fill:#5E5E68;}
	.st2{fill:#18181C;}
</style>
<g>
	<path class="st0" d="M265.8,93.6H29.3c-3.4,0-6.2,2.8-6.2,6.2V244c0,3.4,2.8,6.2,6.2,6.2h236.5c3.4,0,6.2-2.8,6.2-6.2V99.8
		C272,96.4,269.2,93.6,265.8,93.6z"/>
	<rect x="31.6" y="104.6" width="231.9" height="134.3"/>
	<path class="st1" d="M295,246.6h-102c-0.2,2.1-1.9,3.7-4.1,3.7h-82.7c-2.1,0-3.8-1.6-4.1-3.7H0.2c-0.1,0.5-0.2,1-0.2,1.5v4.5
		C0,260,6,266,13.4,266h268.3c7.4,0,13.4-6,13.4-13.4v-4.5C295.1,247.6,295,247.1,295,246.6z"/>
	<path class="st0" d="M13.4,266h268.3c5.3,0,9.9-3.1,12.1-7.6H1.4C3.5,262.9,8.1,266,13.4,266z"/>
	<path class="st2" d="M149.7,99.4c0,1.2-0.9,2.1-2.1,2.1c-1.2,0-2.1-1-2.1-2.1c0-1.2,1-2.1,2.1-2.1
		C148.7,97.2,149.7,98.2,149.7,99.4z"/>
</g>
</svg>
