<?xml version="1.0" encoding="utf-8"?>
<!-- Generator: Adobe Illustrator 24.3.0, SVG Export Plug-In . SVG Version: 6.00 Build 0)  -->
<svg version="1.1" id="Camada_1" xmlns="http://www.w3.org/2000/svg" xmlns:xlink="http://www.w3.org/1999/xlink" x="0px" y="0px"
	 width="307.9px" height="266px" viewBox="0 0 307.9 266" style="enable-background:new 0 0 307.9 266;" xml:space="preserve">
<style type="text/css">
	.st0{fill:#4D4D54;}
	.st1{fill:#18181C;}
	.st2{fill:#5E5E68;}
</style>
<g>
	<path class="st0" d="M300.2,23.7H7.7c-4.2,0-7.7,3.4-7.7,7.7v178.3c0,4.2,3.4,7.7,7.7,7.7h292.5c4.2,0,7.7-3.4,7.7-7.7V31.4
		C307.9,27.1,304.4,23.7,300.2,23.7z"/>
	<rect x="11.3" y="36.3" width="285.3" height="167"/>
	<path class="st1" d="M156.6,30.1c0,1.5-1.2,2.6-2.6,2.6c-1.5,0-2.6-1.2-2.6-2.6c0-1.4,1.2-2.6,2.6-2.6
		C155.4,27.5,156.6,28.6,156.6,30.1z"/>
	<g>
		<path class="st2" d="M162.5,217.3c0,0.2,0,0.5,0,0.7v20.9c0,4.7-3.8,8.6-8.6,8.6c-4.7,0-8.6-3.8-8.6-8.6V218c0-0.2,0-0.5,0-0.7
			h-12.2v40.5h41.5v-40.5H162.5z"/>
		<rect x="91" y="256" class="st2" width="125.9" height="10"/>
	</g>
</g>
</svg>
