<?xml version="1.0" encoding="utf-8"?>
<!-- Generator: Adobe Illustrator 24.3.0, SVG Export Plug-In . SVG Version: 6.00 Build 0)  -->
<svg version="1.1" id="Camada_1" xmlns="http://www.w3.org/2000/svg" xmlns:xlink="http://www.w3.org/1999/xlink" x="0px" y="0px"
	 width="49.6px" height="266px" viewBox="0 0 49.6 266" style="enable-background:new 0 0 49.6 266;" xml:space="preserve">
<style type="text/css">
	.st0{fill:#4D4D54;}
	.st1{fill:#18181C;}
	.st2{fill:#5E5E68;}
</style>
<g>
	<path class="st0" d="M42,168.4H7.6c-4.2,0-7.6,3.4-7.6,7.6v82.5c0,4.2,3.4,7.6,7.6,7.6H42c4.2,0,7.6-3.4,7.6-7.6V176
		C49.6,171.8,46.2,168.4,42,168.4z"/>
	<path class="st1" d="M18.3,174.2h13c0.4,0,0.7,0.3,0.7,0.7c0,0.4-0.3,0.7-0.7,0.7h-13c-0.4,0-0.7-0.3-0.7-0.7
		C17.6,174.5,17.9,174.2,18.3,174.2z"/>
	<rect x="2.1" y="181.5" width="45.4" height="67.2"/>
	<path class="st2" d="M24.8,253c-2.4,0-4.4,2-4.4,4.4c0,2.4,2,4.4,4.4,4.4c2.4,0,4.4-2,4.4-4.4C29.2,255,27.2,253,24.8,253z
		 M24.8,260.4c-1.7,0-3-1.4-3-3c0-1.7,1.4-3,3-3c1.7,0,3,1.4,3,3C27.8,259.1,26.5,260.4,24.8,260.4z"/>
</g>
</svg>
