<?xml version="1.0" encoding="utf-8"?>
<!-- Generator: Adobe Illustrator 24.3.0, SVG Export Plug-In . SVG Version: 6.00 Build 0)  -->
<svg version="1.1" id="Camada_1" xmlns="http://www.w3.org/2000/svg" xmlns:xlink="http://www.w3.org/1999/xlink" x="0px" y="0px"
	 width="300px" height="300px" viewBox="0 0 300 300" style="enable-background:new 0 0 300 300;" xml:space="preserve">
<style type="text/css">
	.st0{fill:#3D3D44;}
	.st1{fill:#46464C;}
	.st2{fill:#FED843;}
	.st3{fill:#FABE2C;}
	.st4{fill:#FF9100;}
	.st5{fill:#37373D;}
</style>
<g>
	<g>
		<path class="st0" d="M210.8,251.5L150,234l-60.8,17.6c-0.5,1.1-0.7,2.1-0.7,3.3v36.3h123v-36.3
			C211.5,253.7,211.3,252.6,210.8,251.5z"/>
	</g>
	<path class="st1" d="M211.5,291.2v-36.3c0-1.2-0.2-2.3-0.7-3.3L150,234v57.2H211.5z"/>
	<path class="st2" d="M291.2,17.6h-44.9c0.1-3,0.4-5.8,0.4-8.8c0-4.9-3.9-8.8-8.8-8.8H62.1c-4.9,0-8.8,3.9-8.8,8.8
		c0,3,0.3,5.8,0.4,8.8H8.8c-4.9,0-8.8,3.9-8.8,8.8v22.3c0,49.1,39.3,88.9,87.8,91.5c10.1,13.9,22.1,24.2,35.7,30
		c-2.1,42.7-26.5,72.4-32.3,78.6c-0.9,0.7-1.6,1.8-1.9,2.8h121.6c-0.4-1.1-1.1-2.1-1.9-2.8c-6-6.2-30.2-35.7-32.3-78.6
		c13.6-5.8,25.7-16.1,35.8-30c48.4-2.6,87.7-42.5,87.7-91.5V26.4C300,21.5,296.1,17.6,291.2,17.6L291.2,17.6z M17.6,48.6V35.2h36.9
		c2.3,29,8.6,59.8,21.8,86C43.1,113.6,17.6,84,17.6,48.6z M282.4,48.6c0,35.4-25.5,65-58.6,72.5c13.1-26.1,19.5-56.6,21.8-85.9h36.9
		V48.6z"/>
	<path class="st3" d="M291.2,17.6h-44.9c0.1-3,0.4-5.8,0.4-8.8c0-4.9-3.9-8.8-8.8-8.8H150v251.5h60.8c-0.4-1.1-1.1-2.1-1.9-2.8
		c-6-6.2-30.2-35.7-32.3-78.6c13.6-5.8,25.7-16.1,35.8-30c48.4-2.6,87.7-42.5,87.7-91.5V26.4C300,21.5,296.1,17.6,291.2,17.6
		L291.2,17.6z M282.4,48.6c0,35.4-25.5,65-58.6,72.5c13.1-26.1,19.5-56.6,21.8-85.9h36.9V48.6z"/>
	<g id="Trophy_1_">
		<g>
			<path class="st3" d="M164,111.8l-14-7.3l-14,7.3c-2.9,1.5-6.5,1.3-9.2-0.7c-2.7-2-4.1-5.3-3.5-8.5l2.6-15.6l-11.2-11.1
				c-2.4-2.4-3.2-5.9-2.2-9c1-3.2,3.8-5.5,7.1-6l15.6-2.4l7.1-14.1c3-6,12.7-6,15.7,0l7.1,14.1l15.6,2.4c3.3,0.5,6,2.8,7.1,6
				c1,3.2,0.2,6.6-2.2,9l-11.2,11.1l2.6,15.6c0.5,3.3-0.8,6.6-3.5,8.5C170.6,113,167,113.3,164,111.8L164,111.8z"/>
		</g>
	</g>
	<path class="st4" d="M164,111.8c3,1.5,6.5,1.3,9.2-0.7c2.7-2,4.1-5.3,3.5-8.5l-2.6-15.6l11.2-11.1c2.4-2.3,3.2-5.8,2.2-9
		c-1-3.2-3.8-5.5-7.1-6l-15.6-2.4l-7.1-14.1c-1.5-3-4.7-4.5-7.9-4.5v64.6L164,111.8z"/>
	<g>
		<path class="st1" d="M220.3,300H79.7c-4.9,0-8.8-3.9-8.8-8.8s3.9-8.8,8.8-8.8h140.6c4.9,0,8.8,3.9,8.8,8.8S225.2,300,220.3,300z"
			/>
	</g>
	<path class="st5" d="M220.3,282.4H150V300h70.3c4.9,0,8.8-3.9,8.8-8.8S225.2,282.4,220.3,282.4z"/>
</g>
</svg>
